<svg xmlns="http://www.w3.org/2000/svg" xmlns:xlink="http://www.w3.org/1999/xlink" viewBox="0 0 40 40">
  <defs>
    <style>
      .cls-1 {
        isolation: isolate;
      }

      .cls-2 {
        fill: url(#linear-gradient);
      }

      .cls-3, .cls-4, .cls-9 {
        opacity: 0.25;
      }

      .cls-3, .cls-5, .cls-9 {
        mix-blend-mode: multiply;
      }

      .cls-3 {
        fill: url(#radial-gradient);
      }

      .cls-4 {
        fill: #fff;
      }

      .cls-11, .cls-12, .cls-5 {
        opacity: 0.35;
      }

      .cls-5 {
        fill: url(#linear-gradient-2);
      }

      .cls-6 {
        fill: #5d4037;
      }

      .cls-7 {
        fill: #4e342e;
      }

      .cls-8, .cls-9 {
        fill: #d95957;
      }

      .cls-10 {
        fill: #80cbc4;
      }

      .cls-11, .cls-12 {
        mix-blend-mode: screen;
      }

      .cls-11 {
        fill: url(#linear-gradient-3);
      }

      .cls-12 {
        fill: url(#linear-gradient-4);
      }
    </style>
    <linearGradient id="linear-gradient" x1="20" y1="-0.67" x2="20" y2="40.75" gradientUnits="userSpaceOnUse">
      <stop offset="0" stop-color="#80deea"/>
      <stop offset="0.5" stop-color="#ffcf73"/>
      <stop offset="1" stop-color="#ffbf66"/>
    </linearGradient>
    <radialGradient id="radial-gradient" cx="20" cy="20" r="20" gradientUnits="userSpaceOnUse">
      <stop offset="0.8" stop-color="#fff"/>
      <stop offset="1" stop-color="#ffbf66"/>
    </radialGradient>
    <linearGradient id="linear-gradient-2" x1="20" y1="17.63" x2="20" y2="40.41" gradientUnits="userSpaceOnUse">
      <stop offset="0" stop-color="#ffe082"/>
      <stop offset="1" stop-color="#ffbf66"/>
    </linearGradient>
    <linearGradient id="linear-gradient-3" x1="5.47" y1="23.8" x2="5.47" y2="35.48" gradientUnits="userSpaceOnUse">
      <stop offset="0" stop-color="#fff"/>
      <stop offset="0.5"/>
      <stop offset="1" stop-color="#fff"/>
    </linearGradient>
    <linearGradient id="linear-gradient-4" x1="5.47" y1="23.8" x2="5.47" y2="35.48" gradientUnits="userSpaceOnUse">
      <stop offset="0" stop-color="#fff"/>
      <stop offset="0.5"/>
    </linearGradient>
  </defs>
  <title>1</title>
  <g class="cls-1">
    <g id="레이어_1" data-name="레이어 1">
      <g>
        <g>
          <circle class="cls-2" cx="20" cy="20" r="20"/>
          <path class="cls-3" d="M40,20A20,20,0,1,1,7,4.83a19.67,19.67,0,0,1,4.07-2.72A20,20,0,0,1,40,20Z"/>
          <path class="cls-4" d="M36.5,15.12c0,7.43-7.39,0-16.5,0s-16.5,7.43-16.5,0S10.89,1.67,20,1.67,36.5,7.69,36.5,15.12Z"/>
          <path class="cls-5" d="M20,36A20,20,0,0,1,.1,18,18.86,18.86,0,0,0,0,20a20,20,0,0,0,40,0,18.86,18.86,0,0,0-.1-2A20,20,0,0,1,20,36Z"/>
        </g>
        <g>
          <g>
            <path class="cls-4" d="M17.07,18.81a2.33,2.33,0,0,1-1-.31,5.93,5.93,0,0,0-2.84-.67,5.9,5.9,0,0,0-2.84.67,2.43,2.43,0,0,1-1,.31,1.11,1.11,0,0,1-.89-.45,2.32,2.32,0,0,1,0-2.42,5.07,5.07,0,0,1,4.68-2.78,5.08,5.08,0,0,1,4.67,2.78,2.32,2.32,0,0,1,0,2.42,1.09,1.09,0,0,1-.88.45Z"/>
            <path class="cls-6" d="M13.25,13.82c-3.44,0-4.9,3.23-4.19,4.12.58.73,1.25-.78,4.19-.78s3.6,1.51,4.18.78C18.14,17.05,16.69,13.82,13.25,13.82Z"/>
            <path class="cls-7" d="M13.25,15.16a4.39,4.39,0,0,1,4.21,2.74c.63-.95-.82-4.08-4.21-4.08S8.4,17,9,17.9A4.37,4.37,0,0,1,13.25,15.16Z"/>
          </g>
          <g>
            <path class="cls-4" d="M30.57,18.81a2.43,2.43,0,0,1-1-.31,6.35,6.35,0,0,0-5.68,0,2.33,2.33,0,0,1-1,.31,1.09,1.09,0,0,1-.88-.45,2.32,2.32,0,0,1,0-2.42,5.08,5.08,0,0,1,4.67-2.78,5.07,5.07,0,0,1,4.68,2.78,2.32,2.32,0,0,1,0,2.42A1.11,1.11,0,0,1,30.57,18.81Z"/>
            <path class="cls-6" d="M26.75,13.82c3.44,0,4.9,3.23,4.19,4.12-.58.73-1.25-.78-4.19-.78s-3.6,1.51-4.18.78C21.86,17.05,23.31,13.82,26.75,13.82Z"/>
            <path class="cls-7" d="M26.75,15.16A4.37,4.37,0,0,1,31,17.9c.64-.95-.82-4.08-4.21-4.08S21.91,17,22.54,17.9A4.39,4.39,0,0,1,26.75,15.16Z"/>
          </g>
          <g>
            <path class="cls-4" d="M13.69,33.2a1.72,1.72,0,0,1-.78-.18c-1-.53-1.2-1.83-.45-3.49A8.17,8.17,0,0,1,20,25a8.76,8.76,0,0,1,3.24.61,7.9,7.9,0,0,1,4.1,3.72c.85,1.68.85,2.92,0,3.5a1.62,1.62,0,0,1-.93.27h0a5.51,5.51,0,0,1-2.31-.8,5.28,5.28,0,0,0-.71-.34,10.53,10.53,0,0,0-3.37-.55,10,10,0,0,0-3.13.49,7.71,7.71,0,0,0-.83.41A5.47,5.47,0,0,1,13.69,33.2Z"/>
            <path class="cls-6" d="M26.72,29.68A7.18,7.18,0,0,0,23,26.3c-3.56-1.41-8.23-.09-9.88,3.53-.31.68-.77,2.08.12,2.55.74.37,2-.41,2.87-.88a5.6,5.6,0,0,1,.58-.27,11.26,11.26,0,0,1,7,.06l.06,0c.81.31,2.44,1.5,3.25.94S27,30.21,26.72,29.68Z"/>
            <path class="cls-7" d="M26.72,29.68A7.18,7.18,0,0,0,23,26.3c-3.56-1.41-8.23-.09-9.88,3.53A2.85,2.85,0,0,0,12.86,32a5.68,5.68,0,0,1,.26-.71c1.65-3.62,6.32-4.94,9.88-3.53a7.18,7.18,0,0,1,3.72,3.38,8.07,8.07,0,0,1,.4,1C27.56,31.49,27,30.17,26.72,29.68Z"/>
            <path class="cls-8" d="M23.71,31.31l-.06,0a11.26,11.26,0,0,0-7-.06,5.6,5.6,0,0,0-.58.27,4.15,4.15,0,0,1,7.6-.19Z"/>
            <path class="cls-9" d="M16.69,30.57h0a4.94,4.94,0,0,0-.57.93,5.6,5.6,0,0,1,.58-.27,11.26,11.26,0,0,1,7,.06l.06,0a4.6,4.6,0,0,0-.55-.83A11.22,11.22,0,0,0,16.69,30.57Z"/>
          </g>
        </g>
        <g>
          <path class="cls-10" d="M9.17,32.4a3.7,3.7,0,0,1-7.4,0c0-5.35,4-10.27,4-10.27S9.17,27.37,9.17,32.4Z"/>
          <path class="cls-11" d="M5.47,35.43a3,3,0,0,1-3-3c0-3.83,2.17-7.49,3.23-9.06C6.6,25,8.5,28.79,8.5,32.4A3,3,0,0,1,5.47,35.43Z"/>
          <path class="cls-12" d="M5.47,35.43a3,3,0,0,1-3-3c0-3.83,2.17-7.49,3.23-9.06C6.6,25,8.5,28.79,8.5,32.4A3,3,0,0,1,5.47,35.43Z"/>
        </g>
      </g>
    </g>
  </g>
</svg>
