<svg xmlns="http://www.w3.org/2000/svg" xmlns:xlink="http://www.w3.org/1999/xlink" viewBox="0 0 40 40">
  <defs>
    <style>
      .cls-1 {
        isolation: isolate;
      }

      .cls-2 {
        fill: url(#linear-gradient);
      }

      .cls-3, .cls-4, .cls-9 {
        opacity: 0.25;
      }

      .cls-10, .cls-11, .cls-3, .cls-5, .cls-9 {
        mix-blend-mode: multiply;
      }

      .cls-3 {
        fill: url(#radial-gradient);
      }

      .cls-4 {
        fill: #fff;
      }

      .cls-10, .cls-11, .cls-5 {
        opacity: 0.35;
      }

      .cls-5 {
        fill: url(#linear-gradient-2);
      }

      .cls-6 {
        fill: #5d4037;
      }

      .cls-7 {
        fill: #4e342e;
      }

      .cls-8, .cls-9 {
        fill: #d95957;
      }

      .cls-10 {
        fill: url(#linear-gradient-3);
      }

      .cls-11 {
        fill: url(#linear-gradient-4);
      }
    </style>
    <linearGradient id="linear-gradient" x1="20" y1="-0.67" x2="20" y2="40.75" gradientUnits="userSpaceOnUse">
      <stop offset="0" stop-color="#ffe082"/>
      <stop offset="1" stop-color="#ffbf66"/>
    </linearGradient>
    <radialGradient id="radial-gradient" cx="20" cy="20" r="20" gradientUnits="userSpaceOnUse">
      <stop offset="0.8" stop-color="#fff"/>
      <stop offset="1" stop-color="#ffbf66"/>
    </radialGradient>
    <linearGradient id="linear-gradient-2" x1="20" y1="17.63" x2="20" y2="40.41" xlink:href="#linear-gradient"/>
    <linearGradient id="linear-gradient-3" x1="-26.48" y1="15.28" x2="-18.3" y2="15.28" gradientTransform="translate(29.53 -14.22) rotate(-14.55)" xlink:href="#linear-gradient"/>
    <linearGradient id="linear-gradient-4" x1="-117.48" y1="-8.35" x2="-109.3" y2="-8.35" gradientTransform="matrix(-0.97, -0.25, -0.25, 0.97, -83.53, -14.22)" xlink:href="#linear-gradient"/>
  </defs>
  <title>1</title>
  <g class="cls-1">
    <g id="레이어_1" data-name="레이어 1">
      <g>
        <g>
          <circle class="cls-2" cx="20" cy="20" r="20"/>
          <circle class="cls-3" cx="20" cy="20" r="20"/>
          <path class="cls-4" d="M36.5,15.12c0,7.43-7.39,0-16.5,0s-16.5,7.43-16.5,0S10.89,1.67,20,1.67,36.5,7.69,36.5,15.12Z" transform="translate(0)"/>
          <path class="cls-5" d="M20,36A20,20,0,0,1,.1,18C0,18.66,0,19.32,0,20a20,20,0,0,0,40,0,18.86,18.86,0,0,0-.1-2A20,20,0,0,1,20,36Z" transform="translate(0)"/>
        </g>
        <g>
          <g>
            <path class="cls-4" d="M17.07,16.05a2.28,2.28,0,0,1-1-.31,6,6,0,0,0-2.84-.66,6,6,0,0,0-2.84.66,2.28,2.28,0,0,1-1,.31,1.12,1.12,0,0,1-.89-.45,2.3,2.3,0,0,1,0-2.41,5.07,5.07,0,0,1,4.67-2.79,5.07,5.07,0,0,1,4.67,2.79,2.28,2.28,0,0,1,0,2.41,1.09,1.09,0,0,1-.88.45Z" transform="translate(0)"/>
            <path class="cls-6" d="M13.25,11.07c-3.44,0-4.89,3.23-4.18,4.12.57.72,1.24-.78,4.18-.78s3.61,1.5,4.18.78C18.14,14.3,16.69,11.07,13.25,11.07Z" transform="translate(0)"/>
            <path class="cls-7" d="M13.25,12.4a4.37,4.37,0,0,1,4.21,2.74c.63-.94-.82-4.07-4.21-4.07S8.4,14.2,9,15.14A4.37,4.37,0,0,1,13.25,12.4Z" transform="translate(0)"/>
          </g>
          <g>
            <path class="cls-4" d="M30.58,16.05a2.28,2.28,0,0,1-1-.31,6.42,6.42,0,0,0-5.67,0,2.28,2.28,0,0,1-1,.31,1.09,1.09,0,0,1-.88-.45,2.3,2.3,0,0,1,0-2.41,5.07,5.07,0,0,1,4.67-2.79,5.08,5.08,0,0,1,4.68,2.79,2.3,2.3,0,0,1,0,2.41A1.11,1.11,0,0,1,30.58,16.05Z" transform="translate(0)"/>
            <path class="cls-6" d="M26.75,11.07c3.44,0,4.9,3.23,4.19,4.12-.58.72-1.25-.78-4.19-.78s-3.6,1.5-4.18.78C21.86,14.3,23.32,11.07,26.75,11.07Z" transform="translate(0)"/>
            <path class="cls-7" d="M26.75,12.4A4.37,4.37,0,0,1,31,15.14c.64-.94-.82-4.07-4.21-4.07s-4.84,3.13-4.2,4.07A4.36,4.36,0,0,1,26.75,12.4Z" transform="translate(0)"/>
          </g>
        </g>
        <g>
          <g>
            <path class="cls-4" d="M20,35.19c-2.93,0-5.1-2.55-5.87-4.91a8.94,8.94,0,0,1,2.32-9.47A5.35,5.35,0,0,1,20,19.5a5.85,5.85,0,0,1,4.64,2.4,8.9,8.9,0,0,1,1.75,5.42c0,3.19-1.74,6.86-5.05,7.7A5.12,5.12,0,0,1,20,35.19Z" transform="translate(0)"/>
            <path class="cls-6" d="M25.67,27.33a8.41,8.41,0,0,1-1.82,5.29A5.5,5.5,0,0,1,22.15,34a4.63,4.63,0,0,1-1.84.52h0a2.94,2.94,0,0,1-.42,0A4.62,4.62,0,0,1,17.93,34a5.87,5.87,0,0,1-1.74-1.41,7.54,7.54,0,0,1-1.42-2.51c-1-2.95-.34-6.7,2.12-8.76a4.91,4.91,0,0,1,7.18,1A8.34,8.34,0,0,1,25.67,27.33Z" transform="translate(0)"/>
            <path class="cls-7" d="M16.89,22.65a4.9,4.9,0,0,1,7.17,1A8,8,0,0,1,25.64,28c0-.21,0-.43,0-.64a8.24,8.24,0,0,0-1.61-5,4.89,4.89,0,0,0-7.17-1A7.93,7.93,0,0,0,14.37,28,7.59,7.59,0,0,1,16.89,22.65Z" transform="translate(0)"/>
          </g>
          <path class="cls-7" d="M22.36,25c-.86-.29-1.89,0-1.62,1,.48,1.63.84,3.29-.86,3.29s-1.34-1.66-.86-3.29c.27-.94-.75-1.25-1.61-1-1.44.47-2.12,2.24-2.12,3.86a4.56,4.56,0,0,0,2.12,3.86,13.12,13.12,0,0,1,2.35-.2,12.53,12.53,0,0,1,2.54.24,4.55,4.55,0,0,0,2.17-3.9C24.47,27.22,23.79,25.45,22.36,25Z" transform="translate(0)"/>
          <g>
            <path class="cls-8" d="M23.85,32.62A5.5,5.5,0,0,1,22.15,34a4.63,4.63,0,0,1-1.84.52h-.44A4.62,4.62,0,0,1,17.93,34a5.87,5.87,0,0,1-1.74-1.41A4.71,4.71,0,0,1,20,30.29,4.75,4.75,0,0,1,23.85,32.62Z" transform="translate(0)"/>
            <path class="cls-9" d="M22.15,33.32a4.48,4.48,0,0,1-1,.39,5,5,0,0,1-.82.13h-.44a4.48,4.48,0,0,1-1.94-.51,5.59,5.59,0,0,1-1.46-1.11c-.1.12-.19.24-.28.37A5.87,5.87,0,0,0,17.93,34a4.62,4.62,0,0,0,1.94.51h.44A4.63,4.63,0,0,0,22.15,34a5.5,5.5,0,0,0,1.7-1.37c-.09-.12-.19-.24-.28-.37A5.31,5.31,0,0,1,22.15,33.32Z" transform="translate(0)"/>
          </g>
        </g>
        <g>
          <path class="cls-10" d="M14.54,5.22c-2.37.91-5,2.13-6.12,4.63.23-2.26,2-4.5,3.72-5.86.6-.46,1.34-1.33,2.18-1.18A1.27,1.27,0,0,1,14.54,5.22Z" transform="translate(0)"/>
          <path class="cls-6" d="M14.37,4.57c-2.38.92-5,2.14-6.12,4.64.26-2.49,2-4.45,3.87-6,.71-.6,1.88-1.69,2.75-.65a1.28,1.28,0,0,1-.5,2Z" transform="translate(0)"/>
          <path class="cls-11" d="M25.48,5.22c2.36.91,5.05,2.13,6.11,4.63-.23-2.26-2-4.5-3.72-5.86-.59-.46-1.33-1.33-2.18-1.18A1.27,1.27,0,0,0,25.48,5.22Z" transform="translate(0)"/>
          <path class="cls-6" d="M25.64,4.57c2.39.92,5.05,2.14,6.12,4.64-.25-2.49-2-4.45-3.86-6-.72-.6-1.89-1.69-2.75-.65a1.28,1.28,0,0,0,.49,2Z" transform="translate(0)"/>
        </g>
      </g>
    </g>
  </g>
</svg>
