<svg id="레이어_1" data-name="레이어 1" xmlns="http://www.w3.org/2000/svg" viewBox="0 0 40 40">
  <defs>
    <style>
      .cls-1 {
        stroke: #000;
        stroke-miterlimit: 10;
        stroke-width: 0.75px;
      }
    </style>
  </defs>
  <title>1</title>
  <path d="M20,40A20,20,0,1,1,40,20,20,20,0,0,1,20,40ZM20,3.66A16.34,16.34,0,1,0,36.34,20,16.36,16.36,0,0,0,20,3.66Z"/>
  <path class="cls-1" d="M11.16,25.11,8.75,23.65a14.13,14.13,0,0,0,3.73-5,13.81,13.81,0,0,0,1.07-5.54c-.37,0-.76.05-1.18.05H10.09V10.58h3.85l2.54-.06v1.36a23.71,23.71,0,0,1-.28,3.73A17.11,17.11,0,0,1,15.31,19a15.26,15.26,0,0,1-1.64,3.15A17.23,17.23,0,0,1,11.16,25.11Zm3.73.94a25.72,25.72,0,0,0,2.26-3.19,20.23,20.23,0,0,0,1.55-3.18,16.3,16.3,0,0,0,.88-3.23,18.46,18.46,0,0,0,.25-3.36,8.7,8.7,0,0,1-.93.05H17V10.58h3.58l2.33-.06V12a25.38,25.38,0,0,1-1.3,8.22,22.55,22.55,0,0,1-4.09,7.21ZM31,20.29h-3.4V31.67h-3v-23h3v9H31Z"/>
</svg>
