<svg id="레이어_1" data-name="레이어 1" xmlns="http://www.w3.org/2000/svg" viewBox="0 0 40 40">
  <defs>
    <style>
      .cls-1 {
        stroke: #000;
        stroke-miterlimit: 10;
        stroke-width: 0.75px;
      }
    </style>
  </defs>
  <title>1</title>
  <path d="M20,40A20,20,0,1,1,40,20,20,20,0,0,1,20,40ZM20,3.66A16.34,16.34,0,1,0,36.34,20,16.36,16.36,0,0,0,20,3.66Z"/>
  <path class="cls-1" d="M10.33,10.85H21v2.62h-7.5v10.1h1.76a32.87,32.87,0,0,0,4.17-.26,30,30,0,0,0,3.77-.73v2.55c-.54.15-1.16.29-1.84.42s-1.41.25-2.17.35-1.53.17-2.31.22-1.56.08-2.32.08H10.33Zm20.4,8.93H27.14V31.89H24.07v-23h3.07v8.22h3.59Z"/>
</svg>
