<svg id="레이어_1" data-name="레이어 1" xmlns="http://www.w3.org/2000/svg" viewBox="0 0 40 40">
  <defs>
    <style>
      .cls-1 {
        stroke: #000;
        stroke-miterlimit: 10;
        stroke-width: 0.75px;
      }
    </style>
  </defs>
  <title>1</title>
  <path d="M20,40A20,20,0,1,1,40,20,20,20,0,0,1,20,40ZM20,3.66A16.34,16.34,0,1,0,36.34,20,16.36,16.36,0,0,0,20,3.66Z"/>
  <path class="cls-1" d="M14.51,25.73H10.25V10.55h3.12V23.08h1.84a31,31,0,0,0,4.09-.26,34.91,34.91,0,0,0,3.85-.76v2.63a26,26,0,0,1-4,.78A41,41,0,0,1,14.51,25.73Zm16.22-5.92H27.14V31.89H24.07v-23h3.07v8.27h3.59Z"/>
</svg>
