<svg id="레이어_1" data-name="레이어 1" xmlns="http://www.w3.org/2000/svg" viewBox="0 0 40 40">
  <defs>
    <style>
      .cls-1 {
        stroke: #000;
        stroke-miterlimit: 10;
        stroke-width: 0.75px;
      }
    </style>
  </defs>
  <title>1</title>
  <path d="M20,40A20,20,0,1,1,40,20,20,20,0,0,1,20,40ZM20,3.66A16.34,16.34,0,1,0,36.34,20,16.36,16.36,0,0,0,20,3.66Z"/>
  <path class="cls-1" d="M25.36,29.31V22.68a36,36,0,0,1-4.28.55c-1.45.1-3,.14-4.63.14H9.58V19.6H17c1.53,0,3,0,4.3-.11s2.69-.21,4.08-.41V14.87H9.9V11H29.2V29.31Z"/>
</svg>
