<svg xmlns="http://www.w3.org/2000/svg" xmlns:xlink="http://www.w3.org/1999/xlink" viewBox="0 0 40 40">
  <defs>
    <style>
      .cls-1 {
        isolation: isolate;
      }

      .cls-2 {
        fill: url(#linear-gradient);
      }

      .cls-3, .cls-4 {
        opacity: 0.25;
      }

      .cls-10, .cls-3, .cls-5, .cls-6, .cls-8 {
        mix-blend-mode: multiply;
      }

      .cls-3 {
        fill: url(#radial-gradient);
      }

      .cls-4 {
        fill: #fff;
      }

      .cls-12, .cls-13, .cls-5 {
        opacity: 0.35;
      }

      .cls-5 {
        fill: url(#linear-gradient-2);
      }

      .cls-10, .cls-6, .cls-8 {
        opacity: 0.5;
      }

      .cls-6 {
        fill: url(#linear-gradient-3);
      }

      .cls-7 {
        fill: #5d4037;
      }

      .cls-8 {
        fill: url(#linear-gradient-4);
      }

      .cls-9 {
        fill: #4e342e;
      }

      .cls-10 {
        fill: url(#linear-gradient-5);
      }

      .cls-11 {
        fill: #d95957;
      }

      .cls-12, .cls-13 {
        mix-blend-mode: screen;
      }

      .cls-12 {
        fill: url(#linear-gradient-6);
      }

      .cls-13 {
        fill: url(#linear-gradient-7);
      }
    </style>
    <linearGradient id="linear-gradient" x1="20" y1="-0.67" x2="20" y2="40.75" gradientUnits="userSpaceOnUse">
      <stop offset="0" stop-color="#ffe082"/>
      <stop offset="1" stop-color="#ffbf66"/>
    </linearGradient>
    <radialGradient id="radial-gradient" cx="20" cy="20" r="20" gradientUnits="userSpaceOnUse">
      <stop offset="0.8" stop-color="#fff"/>
      <stop offset="1" stop-color="#ffbf66"/>
    </radialGradient>
    <linearGradient id="linear-gradient-2" x1="20" y1="17.63" x2="20" y2="40.41" xlink:href="#linear-gradient"/>
    <linearGradient id="linear-gradient-3" x1="30.83" y1="30.07" x2="30.83" y2="37.7" xlink:href="#linear-gradient"/>
    <linearGradient id="linear-gradient-4" x1="-231.2" y1="47.85" x2="-223.82" y2="47.85" gradientTransform="matrix(-0.98, 0.2, 0.2, 0.98, -220.59, 6.09)" xlink:href="#linear-gradient"/>
    <linearGradient id="linear-gradient-5" x1="174.42" y1="-34.99" x2="181.8" y2="-34.99" gradientTransform="translate(-153.41 6.09) rotate(11.54)" xlink:href="#linear-gradient"/>
    <linearGradient id="linear-gradient-6" x1="30.86" y1="26.09" x2="30.86" y2="32.99" gradientUnits="userSpaceOnUse">
      <stop offset="0" stop-color="#fff"/>
      <stop offset="1"/>
    </linearGradient>
    <linearGradient id="linear-gradient-7" x1="30.86" y1="26.09" x2="30.86" y2="32.99" gradientUnits="userSpaceOnUse">
      <stop offset="0" stop-color="#fff"/>
      <stop offset="0.5"/>
    </linearGradient>
  </defs>
  <title>1</title>
  <g class="cls-1">
    <g id="레이어_1" data-name="레이어 1">
      <g>
        <g>
          <circle class="cls-2" cx="20" cy="20" r="20"/>
          <path class="cls-3" d="M40,20A20,20,0,1,1,20,0,19.89,19.89,0,0,1,40,20Z"/>
          <path class="cls-4" d="M36.5,15.12c0,7.43-7.39,0-16.5,0s-16.5,7.43-16.5,0S10.89,1.67,20,1.67,36.5,7.69,36.5,15.12Z"/>
          <path class="cls-5" d="M20,36A20,20,0,0,1,.1,18,18.86,18.86,0,0,0,0,20a20,20,0,0,0,40,0,18.86,18.86,0,0,0-.1-2A20,20,0,0,1,20,36Z"/>
        </g>
        <path class="cls-6" d="M36.26,31.63a19.84,19.84,0,0,1-6.71,5.94c-1.65-.9-4.14-2.94-4.14-5.36A3.2,3.2,0,0,1,28.61,29c1.48,0,1.66.92,2.25.92s.77-.92,2.25-.92A3.19,3.19,0,0,1,36.26,31.63Z"/>
        <g>
          <path class="cls-4" d="M13,12.28A4.68,4.68,0,0,0,8.33,17c0,.86,0,.91.07,1a1.53,1.53,0,0,0,1.4,1A1.65,1.65,0,0,0,11,18.47,3.24,3.24,0,0,1,13,17.61a3.24,3.24,0,0,1,2.05.86A1.65,1.65,0,0,0,16.2,19a1.53,1.53,0,0,0,1.4-1c0-.12.07-.17.07-1A4.68,4.68,0,0,0,13,12.28Zm14,0A4.68,4.68,0,0,0,22.33,17c0,.86,0,.91.07,1a1.53,1.53,0,0,0,1.4,1A1.65,1.65,0,0,0,25,18.47,3.24,3.24,0,0,1,27,17.61a3.24,3.24,0,0,1,2.05.86A1.65,1.65,0,0,0,30.2,19a1.53,1.53,0,0,0,1.4-1c0-.12.07-.17.07-1A4.68,4.68,0,0,0,27,12.28Z"/>
          <path class="cls-7" d="M27,13a4.09,4.09,0,0,0-4,4.39.84.84,0,0,0,1.48.65A3.78,3.78,0,0,1,27,17a3.74,3.74,0,0,1,2.49,1c.58.54,1.48.36,1.51-.5C31.05,15.11,29.54,13,27,13ZM13,13a4.09,4.09,0,0,0-4,4.39.84.84,0,0,0,1.48.65A3.78,3.78,0,0,1,13,17a3.74,3.74,0,0,1,2.49,1c.58.54,1.48.36,1.51-.5C17.05,15.11,15.54,13,13,13Z"/>
        </g>
        <g>
          <g>
            <path class="cls-8" d="M14.51,5.63c-2.8-.24-5.68,1-5.91,4.09a3.62,3.62,0,0,1,4.31-2.35c.73.14,1.55.76,2.23.16A1.1,1.1,0,0,0,14.51,5.63Z"/>
            <path class="cls-9" d="M14.37,5c-2.79-.24-5.68,1-5.91,4.1a3.64,3.64,0,0,1,4.32-2.36c.72.15,1.54.77,2.22.17A1.1,1.1,0,0,0,14.37,5Z"/>
          </g>
          <g>
            <path class="cls-10" d="M25.49,5.63c2.8-.24,5.68,1,5.91,4.09a3.62,3.62,0,0,0-4.31-2.35c-.73.14-1.55.76-2.23.16A1.1,1.1,0,0,1,25.49,5.63Z"/>
            <path class="cls-9" d="M25.63,5c2.79-.24,5.68,1,5.91,4.1a3.64,3.64,0,0,0-4.32-2.36c-.72.15-1.54.77-2.22.17A1.1,1.1,0,0,1,25.63,5Z"/>
          </g>
        </g>
        <g>
          <path class="cls-11" d="M33.11,24.46c-1.48,0-1.66.92-2.25.92s-.77-.92-2.25-.92a3.2,3.2,0,0,0-3.2,3.2c0,3.32,4.64,5.88,5.45,5.88s5.45-2.56,5.45-5.88A3.2,3.2,0,0,0,33.11,24.46Z"/>
          <path class="cls-12" d="M30.86,32.88c-.68-.11-4.79-2.39-4.79-5.22a2.54,2.54,0,0,1,2.54-2.54,1.63,1.63,0,0,1,1.22.46,1.55,1.55,0,0,0,1,.46,1.5,1.5,0,0,0,1-.46,1.68,1.68,0,0,1,1.23-.46,2.54,2.54,0,0,1,2.54,2.54C35.65,30.49,31.54,32.77,30.86,32.88Z"/>
          <path class="cls-13" d="M30.86,32.88c-.68-.11-4.79-2.39-4.79-5.22a2.54,2.54,0,0,1,2.54-2.54,1.63,1.63,0,0,1,1.22.46,1.55,1.55,0,0,0,1,.46,1.5,1.5,0,0,0,1-.46,1.68,1.68,0,0,1,1.23-.46,2.54,2.54,0,0,1,2.54,2.54C35.65,30.49,31.54,32.77,30.86,32.88Z"/>
        </g>
        <path class="cls-4" d="M21.2,33.24a2.22,2.22,0,0,1-2.45-2.17A1.87,1.87,0,0,1,19.19,30a1.09,1.09,0,0,0,.28-.6,1.14,1.14,0,0,0-.28-.6,1.93,1.93,0,0,1-.44-1.12,2.19,2.19,0,0,1,2.45-2.16,2.19,2.19,0,0,1,2.45,2.16,1.75,1.75,0,0,1-.44,1.08.86.86,0,0,0,0,1.27,1.75,1.75,0,0,1,.44,1.08A2.22,2.22,0,0,1,21.2,33.24Z"/>
        <path class="cls-7" d="M22.26,29.36c0-.84.72-1.14.72-1.72,0-1-.8-1.49-1.78-1.49s-1.79.5-1.79,1.49c0,.58.72,1,.72,1.72s-.72,1.13-.72,1.71c0,1,.8,1.5,1.79,1.5S23,32.06,23,31.07C23,30.49,22.26,30.2,22.26,29.36Z"/>
        <path class="cls-9" d="M22.77,28.2a1,1,0,0,0,.21-.56c0-1-.8-1.49-1.78-1.49s-1.79.5-1.79,1.49a1.07,1.07,0,0,0,.22.57,1.76,1.76,0,0,1,1.57-.73A1.8,1.8,0,0,1,22.77,28.2Z"/>
      </g>
    </g>
  </g>
</svg>
