<svg id="레이어_1" data-name="레이어 1" xmlns="http://www.w3.org/2000/svg" viewBox="0 0 24.85 40.05">
  <defs>
    <style>
      .cls-1 {
        fill: #576d64;
      }

      .cls-1, .cls-3, .cls-4 {
        fill-rule: evenodd;
      }

      .cls-2, .cls-4 {
        fill: #aedff4;
      }
    </style>
  </defs>
  <title>1</title>
  <g>
    <polygon class="cls-1" points="3.86 0.67 1.51 1.67 1.5 3.84 0.68 37.39 1.9 38.94 21.83 39.32 24.01 37.39 24.07 2.06 22.84 0.67 3.86 0.67"/>
    <rect class="cls-2" x="0.97" y="4.37" width="22.73" height="29.15"/>
    <path class="cls-1" d="M17.31,33.72Q16.18,36,15.07,38.28c-.32.65.67,1.21,1,.55q1.1-2.3,2.2-4.59C18.55,33.61,17.61,33.09,17.31,33.72Z" transform="translate(-7.57 0)"/>
    <path class="cls-1" d="M19.32,34c-.38.81-.77,1.62-1.17,2.42a12.1,12.1,0,0,0-1.07,2.24.51.51,0,0,0,.86.47A9.48,9.48,0,0,0,19.16,37c.4-.8.78-1.61,1.15-2.43C20.61,33.92,19.63,33.37,19.32,34Z" transform="translate(-7.57 0)"/>
    <path class="cls-1" d="M21.93,33.73c-.42.86-.85,1.72-1.31,2.56a13.39,13.39,0,0,0-1.19,2.36.47.47,0,0,0,.8.43,9.18,9.18,0,0,0,1.34-2.26c.44-.85.86-1.71,1.27-2.58C23.12,33.63,22.22,33.12,21.93,33.73Z" transform="translate(-7.57 0)"/>
    <path class="cls-1" d="M24,33.62c-.44.82-.89,1.64-1.36,2.45a12.87,12.87,0,0,0-1.2,2.26.45.45,0,0,0,.76.41,10.53,10.53,0,0,0,1.37-2.16q.67-1.23,1.32-2.46C25.19,33.54,24.31,33.05,24,33.62Z" transform="translate(-7.57 0)"/>
    <path class="cls-1" d="M26,33.66c-.51.81-1,1.63-1.51,2.45a9.74,9.74,0,0,0-1.24,2.31.42.42,0,0,0,.7.39,11.62,11.62,0,0,0,1.38-2.24c.47-.83,1-1.65,1.45-2.48C27.09,33.6,26.32,33.18,26,33.66Z" transform="translate(-7.57 0)"/>
    <path class="cls-1" d="M10.73,1.05c-.32.44-.63.88-.92,1.34a4,4,0,0,0-.73,1.45.35.35,0,0,0,.58.32,5.18,5.18,0,0,0,.82-1.28c.28-.47.58-.92.89-1.36S11,.68,10.73,1.05Z" transform="translate(-7.57 0)"/>
    <path class="cls-1" d="M12.08,1.17A15.77,15.77,0,0,0,9.94,4.32c-.16.41.42.59.67.37a7,7,0,0,0,1.15-1.45l1.13-1.62C13.24,1.13,12.42.7,12.08,1.17Z" transform="translate(-7.57 0)"/>
    <path class="cls-1" d="M13.56,1.25c-.33.49-.65,1-1,1.48a4.47,4.47,0,0,0-.72,1.49.39.39,0,0,0,.66.37,5.38,5.38,0,0,0,.94-1.37c.3-.5.61-1,.93-1.49S13.9.74,13.56,1.25Z" transform="translate(-7.57 0)"/>
    <path class="cls-1" d="M15.42,1.07A27.8,27.8,0,0,0,13.61,4c-.22.46.41,1,.76.56a28.71,28.71,0,0,0,1.91-3C16.62,1,15.76.55,15.42,1.07Z" transform="translate(-7.57 0)"/>
    <path class="cls-1" d="M16.86,1.38a12.83,12.83,0,0,0-1.48,2.69.47.47,0,0,0,.8.43A13.34,13.34,0,0,0,17.8,1.9C18.15,1.3,17.21.78,16.86,1.38Z" transform="translate(-7.57 0)"/>
    <path class="cls-1" d="M18.77,1.07q-.36.7-.78,1.38a5.53,5.53,0,0,0-.76,1.31.45.45,0,0,0,.67.49,3.54,3.54,0,0,0,1-1.22c.29-.48.55-1,.8-1.48S19.07.49,18.77,1.07Z" transform="translate(-7.57 0)"/>
    <path class="cls-1" d="M20.76,1.08l-1,1.46A3.83,3.83,0,0,0,19,4a.44.44,0,0,0,.65.48,3.73,3.73,0,0,0,1-1.32l1-1.58C22,1,21.11.54,20.76,1.08Z" transform="translate(-7.57 0)"/>
    <path class="cls-1" d="M22.39,1.07a15,15,0,0,1-.76,1.56,11.36,11.36,0,0,0-.8,1.45c-.19.47.48.71.78.43a8.13,8.13,0,0,0,1.67-2.95C23.52,1,22.65.46,22.39,1.07Z" transform="translate(-7.57 0)"/>
    <path class="cls-1" d="M24.24,1.13c-.27.5-.55,1-.84,1.48s-.69.87-.52,1.38a.41.41,0,0,0,.4.29c.57-.07.77-.6,1-1.05s.58-1,.85-1.58S24.56.52,24.24,1.13Z" transform="translate(-7.57 0)"/>
    <path class="cls-1" d="M26,1.37c-.27.5-.55,1-.86,1.48a3.89,3.89,0,0,0-.78,1.42.5.5,0,0,0,.73.54,3.35,3.35,0,0,0,1-1.31c.32-.52.6-1,.88-1.58S26.37.71,26,1.37Z" transform="translate(-7.57 0)"/>
    <path class="cls-1" d="M28,.91a13.2,13.2,0,0,1-.79,1.6C27,3,26.51,3.4,26.52,4a.42.42,0,0,0,.54.39c.56-.2.81-.82,1.07-1.32a14.24,14.24,0,0,0,.76-1.75C29.08.76,28.21.41,28,.91Z" transform="translate(-7.57 0)"/>
    <path class="cls-1" d="M29.44,1.72l-.61,1.1a4.44,4.44,0,0,0-.52,1.1.47.47,0,0,0,.79.43,4.35,4.35,0,0,0,.66-1l.61-1.1A.53.53,0,0,0,29.44,1.72Z" transform="translate(-7.57 0)"/>
    <path class="cls-1" d="M30.77,2.3a9,9,0,0,0-.88,1.49c-.12.33.31.6.57.43a4.58,4.58,0,0,0,1.19-1.43C32,2.24,31.1,1.75,30.77,2.3Z" transform="translate(-7.57 0)"/>
    <path class="cls-3" d="M19.83,34.6c-1.27,0-3.13-.17-2.91,1.6s1.79,1.6,3.21,1.69a.42.42,0,0,0,.2,0c1,.13,2.47,0,2.51-1.34C22.89,34.73,21.2,34.63,19.83,34.6Z" transform="translate(-7.57 0)"/>
    <path class="cls-1" d="M9.16,34.05a6.88,6.88,0,0,1-.58,1.4,10,10,0,0,0-.71,1.28.54.54,0,0,0,.8.58,5.51,5.51,0,0,0,1.62-3C10.49,33.61,9.38,33.34,9.16,34.05Z" transform="translate(-7.57 0)"/>
    <path class="cls-1" d="M11.16,34c-.44.82-.87,1.65-1.27,2.49a9,9,0,0,0-1,2.37c-.06.4.46.82.76.42A11.57,11.57,0,0,0,10.82,37c.4-.84.81-1.67,1.24-2.5C12.37,33.87,11.47,33.37,11.16,34Z" transform="translate(-7.57 0)"/>
    <path class="cls-1" d="M12.73,34.29c-.69,1.46-1.65,2.87-2.21,4.37-.17.46.53.84.84.46a20.33,20.33,0,0,0,2.3-4.32C13.94,34.19,13,33.67,12.73,34.29Z" transform="translate(-7.57 0)"/>
    <path class="cls-1" d="M14.81,33.84q-.6,1.27-1.26,2.52a13.09,13.09,0,0,0-1.15,2.31.43.43,0,0,0,.73.4,18.42,18.42,0,0,0,2.55-4.75C16,33.74,15.09,33.25,14.81,33.84Z" transform="translate(-7.57 0)"/>
    <path class="cls-1" d="M27.27,33.76a19.41,19.41,0,0,0-1.68,2.71A5.21,5.21,0,0,0,24.71,39a.38.38,0,0,0,.65.26,9.36,9.36,0,0,0,1.2-2.46,19.84,19.84,0,0,1,1.52-2.6C28.43,33.71,27.61,33.28,27.27,33.76Z" transform="translate(-7.57 0)"/>
    <path class="cls-1" d="M28.92,34a19.64,19.64,0,0,0-2.59,5.43.43.43,0,0,0,.8.31A24.93,24.93,0,0,0,28.37,37q.64-1.34,1.38-2.61A.47.47,0,0,0,28.92,34Z" transform="translate(-7.57 0)"/>
    <path class="cls-1" d="M30.82,34.1c-.34.81-.71,1.61-1.12,2.39s-1,1.5-1.31,2.3c-.18.44.35.93.72.53a15.86,15.86,0,0,0,2.5-4.79C31.82,34,31,33.56,30.82,34.1Z" transform="translate(-7.57 0)"/>
    <path class="cls-4" d="M10.17,4.68a31.06,31.06,0,0,0-1.9,4.05c-.15.48.52.68.77.3A32.14,32.14,0,0,0,11,5.12C11.19,4.6,10.42,4.16,10.17,4.68Z" transform="translate(-7.57 0)"/>
    <path class="cls-4" d="M12.62,4.57c-1.34,2.43-3,4.9-4,7.51-.15.41.49.77.75.41,1.66-2.22,2.78-5,4.08-7.45A.48.48,0,0,0,12.62,4.57Z" transform="translate(-7.57 0)"/>
    <path class="cls-4" d="M14.36,4.94c-2,3.71-4.33,7.43-5.89,11.32a.41.41,0,0,0,.72.4c2.32-3.49,4-7.55,6-11.27A.46.46,0,0,0,14.36,4.94Z" transform="translate(-7.57 0)"/>
    <path class="cls-4" d="M16.53,4.83C13.88,9.62,10.92,14.47,9,19.59c-.17.45.53.67.75.3,2.82-4.69,5-9.82,7.59-14.63A.44.44,0,0,0,16.53,4.83Z" transform="translate(-7.57 0)"/>
    <path class="cls-4" d="M18.55,5.35c-3.35,6.41-6.83,12.77-10,19.25-.28.57.57,1,.87.48C12.81,18.71,16,12.21,19.31,5.77,19.57,5.27,18.81,4.85,18.55,5.35Z" transform="translate(-7.57 0)"/>
    <path class="cls-4" d="M21,4.66q-3.06,6.08-6.3,12.06c-2.12,3.93-4.87,7.8-6.58,11.92-.15.37.34.86.64.47,2.67-3.38,4.56-7.65,6.58-11.43,2.23-4.16,4.35-8.36,6.4-12.61C22,4.58,21.23,4.17,21,4.66Z" transform="translate(-7.57 0)"/>
    <path class="cls-4" d="M22.68,4.8C18.2,13.51,13.11,22,8.8,30.75a.48.48,0,0,0,.85.46c5.19-8.25,9.41-17.29,13.78-26C23.68,4.72,22.94,4.31,22.68,4.8Z" transform="translate(-7.57 0)"/>
    <path class="cls-4" d="M24.53,5C20.1,14.65,14.87,23.71,9.69,33c-.33.59.56,1.06.92.5,5.78-8.74,10.44-18.45,14.66-28C25.49,4.93,24.75,4.51,24.53,5Z" transform="translate(-7.57 0)"/>
    <path class="cls-4" d="M26.26,4.76A262.58,262.58,0,0,1,12.58,32.64a.56.56,0,0,0,1,.54A238.33,238.33,0,0,0,27.1,5.23C27.32,4.67,26.5,4.2,26.26,4.76Z" transform="translate(-7.57 0)"/>
    <path class="cls-4" d="M27.91,4.94C24,14.41,19.62,23.6,15.33,32.88c-.26.58.57,1.06.88.49a294.18,294.18,0,0,0,12.51-28C28.94,4.85,28.13,4.39,27.91,4.94Z" transform="translate(-7.57 0)"/>
    <path class="cls-4" d="M29.73,4.66C26,14.21,21.56,23.41,17.35,32.76c-.27.59.57,1.08.88.49A225,225,0,0,0,30.57,5C30.76,4.51,29.92,4.17,29.73,4.66Z" transform="translate(-7.57 0)"/>
    <path class="cls-4" d="M30.83,5.86c-1.55,4.74-3.29,9.42-5.25,14-1.84,4.33-4.18,8.43-6,12.75a.47.47,0,0,0,.83.46c2.7-4.15,4.64-9,6.54-13.59,1.83-4.39,3.42-8.85,4.85-13.37C32,5.48,31,5.25,30.83,5.86Z" transform="translate(-7.57 0)"/>
    <path class="cls-4" d="M31.21,10.74c-1.48,4.11-3.07,8.19-4.79,12.2-1.48,3.46-3.33,6.81-4.67,10.31-.18.48.55.7.79.31,4.22-6.8,6.94-15.06,9.53-22.61C32.25,10.41,31.4,10.21,31.21,10.74Z" transform="translate(-7.57 0)"/>
    <path class="cls-4" d="M31.26,17C28.58,22.41,26,27.88,23.65,33.44c-.24.59.61,1.08.88.49C27,28.4,29.41,22.87,32,17.4,32.22,16.92,31.5,16.51,31.26,17Z" transform="translate(-7.57 0)"/>
    <path class="cls-4" d="M30.7,22.29c-1.66,3.63-3.38,7.25-5,10.92-.24.56.58,1,.85.47,1.72-3.61,3.3-7.29,5-10.93C31.77,22.2,31,21.73,30.7,22.29Z" transform="translate(-7.57 0)"/>
    <path class="cls-4" d="M30.61,26.67c-.91,2.37-2.19,4.5-3.23,6.8-.17.39.35.88.65.48a28.85,28.85,0,0,0,3.41-7.07C31.64,26.36,30.8,26.16,30.61,26.67Z" transform="translate(-7.57 0)"/>
    <path class="cls-4" d="M30.69,30.33c-.22.51-.46,1-.72,1.49a8.28,8.28,0,0,0-.71,1.39c-.14.42.44.67.72.4a9,9,0,0,0,1.56-2.81C31.78,30.24,31,29.77,30.69,30.33Z" transform="translate(-7.57 0)"/>
    <path class="cls-3" d="M20.77,35a1.32,1.32,0,0,0-.51-.16,1.5,1.5,0,0,0-2,1.34,1.69,1.69,0,0,0,2.36,1.59A1.56,1.56,0,0,0,20.77,35Zm0,0a1.32,1.32,0,0,0-.51-.16,1.5,1.5,0,0,0-2,1.34,1.69,1.69,0,0,0,2.36,1.59A1.56,1.56,0,0,0,20.77,35ZM32.11,1.41C31.43,0,29.57.2,28.29.19,23.58.14,18.88.08,14.17,0,12.73,0,10.34-.23,9.1.7s-.87,3.59-.91,5Q8,12.83,7.85,20c-.08,4.26-.15,8.51-.21,12.78v1.82l0,2.12a3.52,3.52,0,0,0,.33,2.05c.86,1.27,3.19.86,4.45.89l13.54.24c1.47,0,3.69.51,5.07-.21s1-3,1.05-4.41c.11-10.18.24-20.36.26-30.53A5.92,5.92,0,0,0,32.11,1.41ZM9.64,2.1c.6-.86,2.35-.73,3.26-.75,1.09,0,2.19,0,3.29,0l6.35.07,6.35.07a4.47,4.47,0,0,1,1.55.12c.64.3.55.93.57,1.53l0,.74c-7.18-.07-14.37-.15-21.55-.17A3.57,3.57,0,0,1,9.64,2.1ZM29.87,38.66a9.39,9.39,0,0,1-2.31,0l-2.82-.05-5.92-.11-5.36-.09-2.82-.06a4.4,4.4,0,0,1-1.14,0c-.91-.43-.68-1.15-.67-1.92s0-1.45,0-2.18c7.33.1,14.67,0,22,0C30.94,36,30.91,38.38,29.87,38.66Zm1-12c0,1.92-.05,3.85-.07,5.78,0,.15,0,.36,0,.59-7.3,0-14.61-.14-21.92-.05L9,25.37c.07-3.81.13-7.62.22-11.43,0-1.82.09-3.63.14-5.44l.09-2.85c0-.22,0-.43,0-.65,7.2.08,14.4.1,21.61.14,0,.36,0,.73,0,1.1a.41.41,0,0,0,0,.19C31,13.16,31,19.89,30.87,26.62ZM20.77,35a1.32,1.32,0,0,0-.51-.16,1.5,1.5,0,0,0-2,1.34,1.69,1.69,0,0,0,2.36,1.59A1.56,1.56,0,0,0,20.77,35Z" transform="translate(-7.57 0)"/>
  </g>
</svg>
