<svg id="레이어_1" data-name="레이어 1" xmlns="http://www.w3.org/2000/svg" viewBox="0 0 39.75 40.02">
  <defs>
    <style>
      .cls-1 {
        fill: #576d64;
      }

      .cls-1, .cls-2 {
        fill-rule: evenodd;
      }
    </style>
  </defs>
  <title>1</title>
  <g>
    <polygon class="cls-1" points="35.15 21.6 39.31 0.86 18.43 4.21 23.44 8.79 0.58 31.85 7.36 39.16 30.09 17.39 31.3 16.17 35.15 21.6"/>
    <path class="cls-1" d="M4.91,27.68,3.64,31.79a13.67,13.67,0,0,0-1,3.73.53.53,0,0,0,1,.25,14.45,14.45,0,0,0,1.28-3.66L6.17,28C6.41,27.19,5.15,26.89,4.91,27.68Z" transform="translate(0 0)"/>
    <path class="cls-1" d="M9.77,23A64.58,64.58,0,0,0,5.82,38.78c-.08.83,1.29,1,1.45.16a106.81,106.81,0,0,1,3.86-15.58C11.44,22.5,10.07,22.17,9.77,23Z" transform="translate(0 0)"/>
    <path class="cls-1" d="M19.14,13.73c-.7,5.33-2.13,10.66-2.59,16-.07.74,1,.75,1.22.13,1.68-5,2.07-10.61,2.68-15.79C20.55,13.21,19.25,12.86,19.14,13.73Z" transform="translate(0 0)"/>
    <path class="cls-1" d="M28.79,3A91.22,91.22,0,0,0,27,20.19c0,1,1.46.93,1.52,0a160.43,160.43,0,0,1,1.73-16.8C30.37,2.44,29,2.08,28.79,3Z" transform="translate(0 0)"/>
    <path class="cls-1" d="M33.22,1.84c-1,5-2.15,10.91-1.46,16,.09.62,1.08.88,1.19.13.79-5.23.64-10.56,1.56-15.82C34.65,1.33,33.38,1,33.22,1.84Z" transform="translate(0 0)"/>
    <path class="cls-1" d="M36.14,1.81c-.37,6.18-.93,12.42-.94,18.62,0,.81,1.15.74,1.22,0,.59-6.17.63-12.43.84-18.62C37.29,1.05,36.18,1.08,36.14,1.81Z" transform="translate(0 0)"/>
    <path class="cls-2" d="M12.28,36.56c1.3-1.27,2.6-2.53,3.9-3.81q7.61-7.48,15.05-15.14a29.93,29.93,0,0,0,3.7,4.72,1,1,0,0,0,1.49-.22c1.37-2.92,1.4-6.53,1.82-9.68l1.5-11.22c.07-.54-.27-1.3-1-1.2h0Q28.44,1.57,18.3,4.09A1,1,0,0,0,18.1,6l4.37,2.86c-1.75,1.9-3.55,3.78-5.38,5.62L7,24.18,3,28c-.91.88-2.23,1.79-2.76,3-1,2.23,1.68,4.43,2.9,5.92,1.52,1.87,3.14,4,5.76,2.59Zm23-16.69a28.32,28.32,0,0,1-3-4.3,1,1,0,0,0-1.5-.16q-6.23,6.43-12.57,12.75Q15,31.33,11.76,34.45a30.76,30.76,0,0,1-3.32,3.14c-1.74,1.23-2.78-.48-3.81-1.71s-2.45-2.35-2.44-3.77,1.63-2.44,2.63-3.41l6.79-6.64c3.37-3.28,6.71-6.59,10.06-9.89L24.8,9.34a1,1,0,0,0-.24-1.62L21.11,5.49c5.48-1.35,11-2.47,16.58-3.37q-.6,4.53-1.21,9.07C36.12,13.91,36.12,17.15,35.26,19.87Z" transform="translate(0 0)"/>
  </g>
</svg>
