<svg id="레이어_1" data-name="레이어 1" xmlns="http://www.w3.org/2000/svg" viewBox="0 0 31.21 40">
  <defs>
    <style>
      .cls-1, .cls-3 {
        fill: #ec331e;
      }

      .cls-1, .cls-4, .cls-5 {
        fill-rule: evenodd;
      }

      .cls-2, .cls-4 {
        fill: #e3ca95;
      }
    </style>
  </defs>
  <title>1</title>
  <g>
    <path class="cls-1" d="M35.38,15.81C35.38,24.24,19.76,39,19.76,39S4.85,24.24,4.85,15.81a15.27,15.27,0,0,1,30.53,0Z" transform="translate(-4.4 0)"/>
    <circle class="cls-2" cx="15.87" cy="15.91" r="10.95"/>
    <ellipse class="cls-3" cx="15.83" cy="16.16" rx="6.18" ry="6.3"/>
    <path class="cls-1" d="M8.69,15.4a22.42,22.42,0,0,1,.68-2.2,1.31,1.31,0,0,1,0-.28c-1.49,1.93-2.91,3.89-4.21,5.92a.45.45,0,0,0,.72.52c1-1.1,1.88-2.24,2.79-3.39A1.24,1.24,0,0,1,8.69,15.4Z" transform="translate(-4.4 0)"/>
    <path class="cls-1" d="M19.24,1C18,2.46,16.77,3.92,15.53,5.38a3.64,3.64,0,0,1,1.36,0c1-1.25,2-2.5,3-3.73C20.23,1.18,19.61.58,19.24,1Z" transform="translate(-4.4 0)"/>
    <path class="cls-1" d="M23.34,1.08c-.48.52-.95,1-1.43,1.55a7.6,7.6,0,0,0-1.3,1.49.38.38,0,0,0,.53.51,7.71,7.71,0,0,0,1.35-1.44c.48-.52,1-1,1.42-1.57S23.68.71,23.34,1.08Z" transform="translate(-4.4 0)"/>
    <path class="cls-1" d="M25.86,1.54c-.38.66-.78,1.3-1.22,1.92a9.46,9.46,0,0,0-1.19,1.77c-.15.39.39.73.71.51a5.89,5.89,0,0,0,1.36-1.65,23.91,23.91,0,0,0,1.27-2C27.13,1.46,26.21,1,25.86,1.54Z" transform="translate(-4.4 0)"/>
    <path class="cls-1" d="M28,3.33,26.86,4.77A2.91,2.91,0,0,0,26,6.17a.46.46,0,0,0,.59.42c.51-.18.79-.7,1.11-1.11l1.07-1.37C29.25,3.54,28.44,2.76,28,3.33Z" transform="translate(-4.4 0)"/>
    <path class="cls-1" d="M29.94,5.59,28.83,6.85c-.34.38-.79.72-.82,1.26,0,.31.31.45.56.41.47-.09.79-.65,1.1-1l1-1.19C31.18,5.82,30.4,5.07,29.94,5.59Z" transform="translate(-4.4 0)"/>
    <path class="cls-1" d="M32.21,7.54a24.33,24.33,0,0,0-2.58,2.89c-.24.36.28.86.62.59A24.36,24.36,0,0,0,33,8.28C33.45,7.77,32.68,7,32.21,7.54Z" transform="translate(-4.4 0)"/>
    <path class="cls-1" d="M33.5,10.28a11.22,11.22,0,0,0-2.95,3.8c-.16.45.48.74.77.43.53-.55.9-1.25,1.37-1.84A18.92,18.92,0,0,1,34.24,11C34.71,10.53,34,9.83,33.5,10.28Z" transform="translate(-4.4 0)"/>
    <path class="cls-1" d="M8.73,19,7.27,20.5A10.11,10.11,0,0,0,5.91,22a.5.5,0,0,0,.7.66A10,10,0,0,0,8,21.23L9.47,19.7A.51.51,0,0,0,8.73,19Z" transform="translate(-4.4 0)"/>
    <path class="cls-1" d="M9.88,22.07c-.7.69-1.41,1.38-2.1,2.09-.44.46.26,1.13.72.69.71-.69,1.4-1.4,2.09-2.1C11,22.3,10.33,21.62,9.88,22.07Z" transform="translate(-4.4 0)"/>
    <path class="cls-1" d="M12,24.14c-.45.48-.9.95-1.34,1.43A4.49,4.49,0,0,0,9.5,27c-.15.39.33.58.62.46a5.14,5.14,0,0,0,1.29-1.22c.42-.46.84-.91,1.27-1.36S12.39,23.67,12,24.14Z" transform="translate(-4.4 0)"/>
    <path class="cls-1" d="M14.22,26.25,12.69,28a9.38,9.38,0,0,0-1.37,1.65c-.2.35.23.81.58.56a10.33,10.33,0,0,0,1.49-1.54l1.52-1.72C15.32,26.45,14.63,25.79,14.22,26.25Z" transform="translate(-4.4 0)"/>
    <path class="cls-1" d="M17.76,26.58c-1,.86-1.93,1.74-2.86,2.65a10.61,10.61,0,0,0-2.41,2.69.41.41,0,0,0,.57.54A14,14,0,0,0,15.66,30c.92-.92,1.86-1.82,2.83-2.68C19,26.84,18.24,26.16,17.76,26.58Z" transform="translate(-4.4 0)"/>
    <path class="cls-1" d="M34,13.48c-.54.56-1.07,1.15-1.56,1.76A5.38,5.38,0,0,0,31.23,17a.44.44,0,0,0,.64.47,7.28,7.28,0,0,0,1.34-1.62c.47-.58.95-1.14,1.47-1.68A.5.5,0,0,0,34,13.48Z" transform="translate(-4.4 0)"/>
    <path class="cls-1" d="M21,26.89c-1.1,1.14-2.18,2.31-3.21,3.52a18.6,18.6,0,0,0-2.68,3.47.45.45,0,0,0,.71.52,35.85,35.85,0,0,0,2.87-3.48c1-1.15,2-2.27,3-3.37A.48.48,0,0,0,21,26.89Z" transform="translate(-4.4 0)"/>
    <path class="cls-1" d="M34.63,17c-3.08,3.26-6.14,6.52-9.23,9.77-2.95,3.09-6.25,6.09-8.89,9.45.2.11.39.21.58.33a1.73,1.73,0,0,1,.41.35c3.13-2.84,5.85-6.27,8.7-9.36q4.56-4.95,9.14-9.86C35.77,17.26,35.06,16.58,34.63,17Z" transform="translate(-4.4 0)"/>
    <path class="cls-1" d="M31.54,24.58l-7.71,8.33c-1.4,1.52-4.12,3.36-4.22,5.59a.56.56,0,0,0,1,.26c1-2.44,3.78-4.63,5.54-6.59l6.15-6.83C32.81,24.81,32,24.06,31.54,24.58Z" transform="translate(-4.4 0)"/>
    <path class="cls-1" d="M15.93,1.24A108.43,108.43,0,0,0,5.19,13.57c-.38.54.52,1.2.93.69C9.54,10,12.89,5.85,16.65,1.92A.5.5,0,0,0,15.93,1.24Z" transform="translate(-4.4 0)"/>
    <path class="cls-1" d="M10.82,3.2q-1,1.08-2,2.07C8.39,5.64,8,6,7.57,6.35a5.55,5.55,0,0,1-.12,1.52,23.29,23.29,0,0,0,4.13-3.93C12,3.43,11.28,2.7,10.82,3.2Z" transform="translate(-4.4 0)"/>
    <path class="cls-1" d="M18.9,9.68l-2.67,2.87a13.22,13.22,0,0,0-2.36,2.72.44.44,0,0,0,.61.58A13.59,13.59,0,0,0,17,13.28l2.64-2.9C20.06,9.9,19.35,9.21,18.9,9.68Z" transform="translate(-4.4 0)"/>
    <path class="cls-1" d="M21.78,9.67c-2.67,2.64-5.26,5.38-7.66,8.28-.49.59.38,1.43.87.83,2.41-2.9,4.87-5.74,7.49-8.45C22.92,9.89,22.22,9.22,21.78,9.67Z" transform="translate(-4.4 0)"/>
    <path class="cls-1" d="M23.51,11.4c-1.38,1.5-2.73,3-4,4.61a21.18,21.18,0,0,0-3.34,4.47.49.49,0,0,0,.78.57,33.54,33.54,0,0,0,3.62-4.49c1.22-1.5,2.48-3,3.76-4.41C24.77,11.63,24,10.89,23.51,11.4Z" transform="translate(-4.4 0)"/>
    <path class="cls-1" d="M25.11,13.49Q22.77,16,20.58,18.62c-.63.77-2.4,2.15-1.88,3.28a.59.59,0,0,0,.81.2L19.6,22a.56.56,0,0,0,.24-.47,9,9,0,0,1,1.27-1.65c.52-.68,1.05-1.36,1.59-2,1-1.26,2.09-2.48,3.18-3.67C26.33,13.71,25.58,13,25.11,13.49Z" transform="translate(-4.4 0)"/>
    <path class="cls-1" d="M25.79,16.09c-.68.88-1.37,1.74-2.09,2.57a14.38,14.38,0,0,0-2,2.37.49.49,0,0,0,.68.65,10.54,10.54,0,0,0,2.21-2.4c.69-.85,1.35-1.72,2-2.6C26.93,16.22,26.13,15.63,25.79,16.09Z" transform="translate(-4.4 0)"/>
    <path class="cls-4" d="M16.13,5.68Q14,8,11.9,10.3L10,12.41c-.41.47-1.06.95-1.2,1.6a.51.51,0,0,0,.5.62h.09a.45.45,0,0,0,.4-.56,21.66,21.66,0,0,1,1.53-1.7c.61-.72,1.22-1.43,1.84-2.14,1.16-1.35,2.34-2.68,3.53-4C17,5.85,16.48,5.3,16.13,5.68Z" transform="translate(-4.4 0)"/>
    <path class="cls-4" d="M19.59,5.07q-3.25,3.21-6.34,6.6-1.46,1.61-2.87,3.27a5.75,5.75,0,0,0-1.6,2.23.55.55,0,0,0,.26.6l.16.11c.43.29.89-.29.66-.69-.15-.24,4.5-5.23,5-5.8,1.73-2,3.52-3.86,5.35-5.73C20.61,5.27,20,4.68,19.59,5.07Z" transform="translate(-4.4 0)"/>
    <path class="cls-4" d="M22.07,5.46l-2,2.06a8.09,8.09,0,0,0-1.78,2,.48.48,0,0,0,.67.64A8.55,8.55,0,0,0,20.9,8.3l2-2.09A.54.54,0,0,0,22.07,5.46Z" transform="translate(-4.4 0)"/>
    <path class="cls-4" d="M13,15.14c-.71.81-1.45,1.59-2.21,2.34L9.69,18.53c-.26.24-.65.48-.81.81a.55.55,0,0,0,.21.72l.05,0a.52.52,0,0,0,.75-.33h0c.17-.18.5-.43.68-.6.37-.35.74-.71,1.09-1.08.72-.72,1.41-1.48,2.07-2.26C14.13,15.34,13.45,14.68,13,15.14Z" transform="translate(-4.4 0)"/>
    <path class="cls-4" d="M25.21,6.27c-.5.56-1,1.11-1.55,1.64a9.05,9.05,0,0,0-1.52,1.51c-.21.35.17.9.58.73a5.88,5.88,0,0,0,1.67-1.4C24.94,8.2,25.48,7.61,26,7S25.67,5.75,25.21,6.27Z" transform="translate(-4.4 0)"/>
    <path class="cls-4" d="M13.59,18.14A17.24,17.24,0,0,1,12,19.87c-.28.26-.58.52-.88.76-.13.11-.28.21-.4.32s-.32.24-.22.24a.34.34,0,0,0-.2.27v0a.46.46,0,0,0,.22.49c.61.35,1.45-.63,1.85-1a17.19,17.19,0,0,0,1.95-2.14C14.73,18.33,14,17.62,13.59,18.14Z" transform="translate(-4.4 0)"/>
    <path class="cls-4" d="M27.49,8.31c-.58.53-1.15,1.07-1.7,1.62a6.44,6.44,0,0,0-1.45,1.68.43.43,0,0,0,.6.57,8.59,8.59,0,0,0,1.56-1.57C27,10.05,27.6,9.5,28.17,9S27.93,7.91,27.49,8.31Z" transform="translate(-4.4 0)"/>
    <path class="cls-4" d="M15.58,20.71c-.52.58-1.06,1.15-1.61,1.69s-1.25,1-1.55,1.58c-.16.33.13.78.51.64a5.16,5.16,0,0,0,1.71-1.42c.57-.58,1.12-1.18,1.66-1.8S16,20.23,15.58,20.71Z" transform="translate(-4.4 0)"/>
    <path class="cls-4" d="M29.07,10l-1.69,1.82a9.44,9.44,0,0,0-1.5,1.78.46.46,0,0,0,.64.61,9.49,9.49,0,0,0,1.63-1.66l1.64-1.87C30.21,10.23,29.51,9.55,29.07,10Z" transform="translate(-4.4 0)"/>
    <path class="cls-4" d="M17.7,21.66l-1.42,1.73A8.06,8.06,0,0,0,15,25.08c-.16.4.24,1,.68.64A7.29,7.29,0,0,0,17,24.12l1.38-1.77C18.81,21.86,18.11,21.16,17.7,21.66Z" transform="translate(-4.4 0)"/>
    <path class="cls-4" d="M22,22.26a1.57,1.57,0,0,1-1.4-.28,44,44,0,0,0-3,3.86c-.43.61.5,1.15,1,.72a50.64,50.64,0,0,0,4.64-4.73A5.64,5.64,0,0,1,22,22.26Z" transform="translate(-4.4 0)"/>
    <path class="cls-4" d="M29.86,12.21c-1.12,1.23-2.31,2.46-3.52,3.69a1.21,1.21,0,0,1,.3.73,5,5,0,0,1-.15,1.27c1.37-1.69,2.74-3.38,4.13-5C31.07,12.42,30.32,11.7,29.86,12.21Z" transform="translate(-4.4 0)"/>
    <path class="cls-4" d="M30.19,19.39a29.68,29.68,0,0,0-5,5.66.45.45,0,0,0,.71.52C27.61,23.74,29,21.72,30.78,20,31.16,19.58,30.57,19,30.19,19.39Z" transform="translate(-4.4 0)"/>
    <path class="cls-4" d="M30.9,14.62c-3.13,3.76-6.8,7.26-9.67,11.21-.33.47.39.89.76.56,3.59-3.19,6.57-7.4,9.57-11.13C31.93,14.8,31.28,14.16,30.9,14.62Z" transform="translate(-4.4 0)"/>
    <path class="cls-5" d="M25.39,11.59c-2.64-3.31-7.46-3.08-10.4-.31a5,5,0,0,0-1.62,5,9.7,9.7,0,0,0,1,3.11.42.42,0,0,0,.08.29,5.38,5.38,0,0,0,.52.64,5.93,5.93,0,0,0,1.1,1.14,5.46,5.46,0,0,0,2.46,1A6.55,6.55,0,0,0,24,21.41a6.93,6.93,0,0,0,1.37-9.82Zm3.29-9a16.06,16.06,0,0,1,6.82,15,21.3,21.3,0,0,1-3.67,8.93.47.47,0,0,1-.13.29l-.26.31,0,0a45.44,45.44,0,0,1-6.55,7.63c-1.43,1.67-2.87,3.34-4.34,5a.8.8,0,0,1-1.11,0,102.47,102.47,0,0,1-8.78-9.5C8,27.1,5.56,23.75,4.74,19.63,3.44,13.1,5.84,6,11.57,2.38a16.11,16.11,0,0,1,17.11.16Zm5.59,13.62c-.08,3.67-1.8,6.9-3.74,9.92-.39.62-.8,1.23-1.21,1.83C26.18,31.3,23,34.65,19.91,38.09c-2.22-2.15-4.36-4.39-6.37-6.74a44.83,44.83,0,0,1-5.73-7.71C4.74,17.93,5.35,10.26,10,5.56A14.46,14.46,0,0,1,26.08,2.79a14.4,14.4,0,0,1,8.19,13.37Zm-2.9-4.42a10.62,10.62,0,0,1-.08,8A11.76,11.76,0,0,1,26.19,26a13.26,13.26,0,0,1-8,1.41,11.6,11.6,0,0,1-10-10.73,12.05,12.05,0,0,1,3.5-8.86A9.48,9.48,0,0,1,16.9,4.43a12.05,12.05,0,0,1,8.68,1.24,13.27,13.27,0,0,1,5.78,6.07Zm-.83,5.2A10.51,10.51,0,0,1,20.84,26,10.44,10.44,0,0,1,10,18.9a11.33,11.33,0,0,1,1.65-9.27,10.54,10.54,0,0,1,4.29-3.28A10.18,10.18,0,0,1,22.56,6c4.69,1.36,8.8,5.81,8,10.92Zm-15.65-3.6a6.54,6.54,0,0,1,5-3,5.61,5.61,0,0,1,5.61,7.19.3.3,0,0,0-.22.27,3.88,3.88,0,0,1-.18.71,2.28,2.28,0,0,1-.17.3,5.59,5.59,0,0,1-3.36,2.53h0a6.08,6.08,0,0,1-3.63-.18,5.11,5.11,0,0,1-2.38-2.13C14.62,17.53,13.91,15,14.89,13.34Z" transform="translate(-4.4 0)"/>
    <path class="cls-4" d="M14,6.09" transform="translate(-4.4 0)"/>
  </g>
</svg>
