<svg id="레이어_1" data-name="레이어 1" xmlns="http://www.w3.org/2000/svg" viewBox="0 0 32.64 39.96">
  <defs>
    <style>
      .cls-1 {
        fill: #ffcb9e;
      }

      .cls-2 {
        fill: #404048;
      }

      .cls-3 {
        fill: #141418;
      }

      .cls-26, .cls-27, .cls-4, .cls-5 {
        fill: #fff;
      }

      .cls-5 {
        opacity: 0.5;
      }

      .cls-6 {
        fill: #1e1e29;
      }

      .cls-7 {
        fill: #e8e8e8;
      }

      .cls-8 {
        fill: #313142;
      }

      .cls-9 {
        opacity: 0.1;
      }

      .cls-10 {
        fill: #f5f5f5;
      }

      .cls-11 {
        fill: #f2b486;
      }

      .cls-12 {
        fill: #b8b1ad;
      }

      .cls-13 {
        fill: #c94614;
      }

      .cls-13, .cls-16, .cls-26 {
        opacity: 0.3;
      }

      .cls-14 {
        fill: #ffa073;
      }

      .cls-15 {
        fill: #224245;
      }

      .cls-16, .cls-20 {
        fill: #b54d26;
      }

      .cls-17 {
        fill: #ffdfc2;
      }

      .cls-18 {
        fill: #d4e6dd;
      }

      .cls-18, .cls-27 {
        opacity: 0.7;
      }

      .cls-19 {
        fill: #5e5a59;
      }

      .cls-20 {
        opacity: 0.2;
      }

      .cls-21 {
        fill: #f7a286;
      }

      .cls-22 {
        fill: #8f2724;
      }

      .cls-23 {
        fill: #fff9f0;
      }

      .cls-24 {
        fill: #e8dac5;
      }

      .cls-25 {
        fill: #3a3a4a;
      }

      .cls-28 {
        fill: #c1c5c9;
      }
    </style>
  </defs>
  <title>1</title>
  <g>
    <g>
      <path class="cls-1" d="M36,24.24c1-1.73-1.2-6-5.82,1.26-1.49,2.35.34,2.74,2.15,3.65.9.46,2,1.3,2.51-.19a21.35,21.35,0,0,0,.41-2.37A8.84,8.84,0,0,1,36,24.24Z" transform="translate(-4.76 0)"/>
      <g>
        <path class="cls-2" d="M28.59,15.23a.69.69,0,0,0-1,.15l-3.51,4.51a.7.7,0,0,0,.09,1l8,6.28a.69.69,0,0,0,1-.15l3.51-4.52a.7.7,0,0,0-.09-1Z" transform="translate(-4.76 0)"/>
        <path class="cls-3" d="M28.3,15a.68.68,0,0,0-.94.15l-3.43,4.43a.67.67,0,0,0,.07.95l7.63,6a.68.68,0,0,0,.94-.15L36,22a.68.68,0,0,0-.07-.95Z" transform="translate(-4.76 0)"/>
        <path class="cls-3" d="M28.3,15a.68.68,0,0,0-.94.15l-3.43,4.43a.67.67,0,0,0,.07.95l7.63,6a.68.68,0,0,0,.94-.15L36,22a.68.68,0,0,0-.07-.95Z" transform="translate(-4.76 0)"/>
        <path class="cls-4" d="M28.54,16.43a.5.5,0,0,0-.71.08l-2.51,3.23a.52.52,0,0,0,.09.72l5.9,4.62A.51.51,0,0,0,32,25l2.5-3.23a.52.52,0,0,0-.09-.72Z" transform="translate(-4.76 0)"/>
        <path class="cls-5" d="M27.36,15.18l-3.43,4.43a.67.67,0,0,0,.07.95l5.47,4.29a62.82,62.82,0,0,1,2.31-7.09L28.3,15A.68.68,0,0,0,27.36,15.18Z" transform="translate(-4.76 0)"/>
      </g>
      <path class="cls-1" d="M30.13,24.72a2.45,2.45,0,0,1,1,2.46c-.15.46-.5.91-1,.64s-.38-1.36-.66-1.86c-.18-.31-.85-.9-.76-1.29C28.79,24.07,29.78,24.42,30.13,24.72Z" transform="translate(-4.76 0)"/>
      <path class="cls-6" d="M29.45,33.1c2.35,1.4,2.68,1.76,3.43.93.92-1-.76-4.58-.76-4.58l3.37-2.81s4.27,7.4,0,11.1c-2.39,2.09-5.16,1.43-7.28.36C28.11,38,28.83,32.73,29.45,33.1Z" transform="translate(-4.76 0)"/>
    </g>
    <g>
      <path class="cls-6" d="M6.69,40h4.9l-.49-8C7.63,33.54,6.56,33.92,6.69,40Z" transform="translate(-4.76 0)"/>
      <path class="cls-6" d="M27.27,31.93l-.49,8h4.89C31.81,33.92,30.73,33.54,27.27,31.93Z" transform="translate(-4.76 0)"/>
      <path class="cls-7" d="M24.87,30.93a12.3,12.3,0,0,0-11,.29c-2.75,1.8-2.64,4.6-2,8.74H26.7C27.39,35.81,27.56,32.38,24.87,30.93Z" transform="translate(-4.76 0)"/>
      <path class="cls-8" d="M20.78,35.31a1.62,1.62,0,0,0-1.87-.84,1.71,1.71,0,0,0-1.42,1.31l1,1L17.69,40H21l-.8-3.34Z" transform="translate(-4.76 0)"/>
      <path class="cls-6" d="M24.16,30.59A34.25,34.25,0,0,0,23.05,40h4.67A57,57,0,0,0,28,32.55C27.67,31.77,24.16,30.59,24.16,30.59Z" transform="translate(-4.76 0)"/>
      <path class="cls-6" d="M10.4,32.55A56.07,56.07,0,0,0,10.64,40h4.68a34.25,34.25,0,0,0-1.12-9.37S10.7,31.77,10.4,32.55Z" transform="translate(-4.76 0)"/>
      <path class="cls-9" d="M14.45,33.15a7,7,0,0,0,3,3.61l1.68-1.84,2.2,1.83a5.65,5.65,0,0,0,3-4.19C24.37,31.45,13.76,30.85,14.45,33.15Z" transform="translate(-4.76 0)"/>
      <path class="cls-10" d="M14.47,30.41c-1.87,2.54,2.87,5.74,2.87,5.74l1.84-1.46,2.1,1.53s4.29-2.37,2.77-5.55C22.68,27.81,16.36,27.86,14.47,30.41Z" transform="translate(-4.76 0)"/>
      <path class="cls-11" d="M22.57,27.64a6.73,6.73,0,0,0-4.93-.79A3.43,3.43,0,0,0,15.07,30c-.13,1.8,2.52,4.22,4.36,4.27C20.82,34.28,26.71,30.91,22.57,27.64Z" transform="translate(-4.76 0)"/>
      <path class="cls-8" d="M24.11,30.42a28.85,28.85,0,0,0-1.06,9.32c.05.36,4.23-4.65,4.19-4.8a14.08,14.08,0,0,0-1.61-1.34l1.74-2A9.65,9.65,0,0,0,24.11,30.42Z" transform="translate(-4.76 0)"/>
      <path class="cls-8" d="M11,31.57l1.74,2a14.14,14.14,0,0,0-1.62,1.34c0,.15,4.18,5.23,4.23,4.87a30.09,30.09,0,0,0-1.1-9.39A9.57,9.57,0,0,0,11,31.57Z" transform="translate(-4.76 0)"/>
    </g>
    <g>
      <path class="cls-12" d="M25,2.24C22.43,1,8.68-1.84,6.86,10.84,6.54,13,23.07,13.57,24.51,14.59a9.3,9.3,0,0,1,2.18,1.86A4.26,4.26,0,0,0,28.1,17.9c.45.21,1.43.57,1.76.06,1-1.54,1.29-5.8.56-8.71C29.78,6.7,27.3,3.36,25,2.24Z" transform="translate(-4.76 0)"/>
      <path class="cls-1" d="M8.5,21c1,5.84,5.77,12.1,12.54,11.35s9.83-9.48,9-16.72C29.21,8.14,28.23-1.52,16.45.3,7.29,1.72,7.14,13.16,8.5,21Z" transform="translate(-4.76 0)"/>
      <path class="cls-1" d="M7.2,23.53a5.77,5.77,0,0,0,2.3.16s0-.05,0-.08c.32-.55-.27-3.57-.47-4.13-.49-1.42-1.37-2.15-2.71-1.72C3.55,18.66,4.85,22.78,7.2,23.53Z" transform="translate(-4.76 0)"/>
      <path class="cls-13" d="M8.26,22.45c1-.69-.06-2.86-.85-3.19S5.19,19.58,6,20.81c.35-1.18,1.08-.45,1,.38-.06.56-.65.59,0,1.28C7.3,22.84,7.94,22.67,8.26,22.45Z" transform="translate(-4.76 0)"/>
      <path class="cls-12" d="M10.89,10.94c-.19.5-.43,1-.57,1.32-.88,2.11-.67,5.07-.27,7.26,0,0-1.74-1.77-3.1-1.87-1.09-.88-1.09-2.94-1.08-4.31,0-2.09.86-7.45,3.6-7.46C11.25,5.88,11.32,9.82,10.89,10.94Z" transform="translate(-4.76 0)"/>
      <path class="cls-12" d="M22.17.05A13.43,13.43,0,0,0,11.34,4,18.31,18.31,0,0,1,24.6,1.66c-4.21.06-7.82.27-12,4.07A22,22,0,0,1,26.05,3.06c.63.08,1,1,1.4,1.58C28.23,2.8,25.45.34,22.17.05Z" transform="translate(-4.76 0)"/>
    </g>
    <g>
      <path class="cls-13" d="M12.69,18.44c.61-.89-1.88-.67-2.22-.51.17.56,1.2.15,1.56.2-.2.38-1.06.49-1.35.77s-.23.46.21.39A6.09,6.09,0,0,0,12.69,18.44Z" transform="translate(-4.76 0)"/>
      <path class="cls-13" d="M28.14,17.53c-.49-.83,1.56-.71,1.86-.57-.19.54-.92.15-1.24.22.15.36.92.41,1.16.67s.18.43-.22.38A4.7,4.7,0,0,1,28.14,17.53Z" transform="translate(-4.76 0)"/>
      <path class="cls-14" d="M29.61,19.11a1.38,1.38,0,0,1,.21.42c.47,1.59-3.16,1.18-3.61.5-.85-1.28.34-1.64,1.25-1.66A2.61,2.61,0,0,1,29.61,19.11Z" transform="translate(-4.76 0)"/>
      <path class="cls-14" d="M14.66,19.43a1.35,1.35,0,0,1,.32.38c.89,1.48-2.9,2-3.54,1.44-1.19-1.07-.07-1.75.85-2A2.75,2.75,0,0,1,14.66,19.43Z" transform="translate(-4.76 0)"/>
      <path class="cls-15" d="M14.05,18.61a2.1,2.1,0,0,0-1.48-.07c-1.05-.83-.21-3.52,1.3-2.93A1.82,1.82,0,0,1,14.05,18.61Z" transform="translate(-4.76 0)"/>
      <path class="cls-16" d="M23,20c-.38-.45-.89.08-1.85.13s-1.23-.34-1.83.05.32,1.52,1.86,1.4S23.33,20.36,23,20Z" transform="translate(-4.76 0)"/>
      <path class="cls-17" d="M20.78,16.83c-1.64-.08-1.63,3.4-1.24,3.68.94.7,2.84.11,3.37-.5C23.12,19.77,22.35,16.91,20.78,16.83Z" transform="translate(-4.76 0)"/>
      <path class="cls-15" d="M28.21,15c.83.46.89,2.14.31,2.84a2,2,0,0,0-1.58.07C25.66,17.07,26.66,14.09,28.21,15Z" transform="translate(-4.76 0)"/>
      <path class="cls-18" d="M13.18,16.29c.53-.21.9.61.48.94C13.09,17.68,12.59,16.52,13.18,16.29Z" transform="translate(-4.76 0)"/>
      <path class="cls-18" d="M27.45,15.49c.53-.13.77.69.34,1C27.19,16.8,26.86,15.63,27.45,15.49Z" transform="translate(-4.76 0)"/>
      <path class="cls-19" d="M17.31,11.57A.81.81,0,0,1,18,12.82c-.27.53-1.68.17-3.56.09-2-.09-3.35.07-3.5-.31s1.06-1,2.87-1.16A14.33,14.33,0,0,1,17.31,11.57Z" transform="translate(-4.76 0)"/>
      <path class="cls-19" d="M24,11.27a.82.82,0,0,0-.55,1.27c.25.52,1.48.09,3.16-.09s3-.1,3.1-.48-1-.92-2.58-1A11.06,11.06,0,0,0,24,11.27Z" transform="translate(-4.76 0)"/>
      <path class="cls-20" d="M12.91,10a48,48,0,0,1,15.37-.8C23.12,9.6,19,9.78,12.91,10Z" transform="translate(-4.76 0)"/>
      <path class="cls-20" d="M14,7.67A42,42,0,0,1,27.52,7C23,7.37,19.41,7.53,14,7.67Z" transform="translate(-4.76 0)"/>
      <g>
        <path class="cls-21" d="M24.83,23.07l1.31-.43a19.91,19.91,0,0,0-8,.17c-1.62.46-4,1.71-2.4,3.26,2,1.95,7.2,1.62,9.17.08C26.23,25.16,26.35,24,24.83,23.07Z" transform="translate(-4.76 0)"/>
        <path class="cls-22" d="M16.14,25.48c.7,1.75,6.47,1.53,8,.54,1.32-.85,1.6-1.94-.25-2.72.21-.08.51-.24.81-.37C20,22.41,15.35,23.5,16.14,25.48Z" transform="translate(-4.76 0)"/>
        <path class="cls-23" d="M16.94,23.78c-.35.21-.28.44.2.62,1.07.42,2.85-.1,3.93-.16,2.65-.16,2.9.25,3.08-.08s.47-1.27-.12-1.32C21.67,22.63,18.64,22.74,16.94,23.78Z" transform="translate(-4.76 0)"/>
        <path class="cls-24" d="M17.14,24.4a9,9,0,0,1,7.24-.86s.16-.63-.27-.69c-1-.18-5.76-.31-7.34,1.07C16.77,23.92,16.45,24.2,17.14,24.4Z" transform="translate(-4.76 0)"/>
      </g>
    </g>
    <g>
      <path class="cls-16" d="M24.29,19.42a2.72,2.72,0,0,1-.79-.83,2.69,2.69,0,0,1-.2-2.3c.36-1,1.49-1.14,2.43-1.23,1.13-.12,2.28-.11,3.41-.23a10.88,10.88,0,0,1,1.51,0c.64,0,2-.21,1.26-1.14s-2.2-.9-3.25-.83a15.65,15.65,0,0,0-3.19.54,13.69,13.69,0,0,0-2.76.81,3.15,3.15,0,0,1-2,.64c-1.64,0-3-1-4.67-1.19a13.77,13.77,0,0,0-5.12.15c-.43.13-1.74.65-.84,1.11a7.77,7.77,0,0,0,3.12.31c.44,0,.89,0,1.32,0,1.56.12,3.95-.13,3.86,1.82a3.27,3.27,0,0,1-2,3,13.91,13.91,0,0,1-3.2.37A5.41,5.41,0,0,1,10.89,20c-.21-.1-.84-.49-1-.2-.34.48.94,1.26,1.27,1.41a7.78,7.78,0,0,0,2.39.5c2,.19,4.12.05,5.24-1.84.65-1.09,1-2.38,1.57-3.5,1-1.84,1.49.63,1.82,1.71A5.62,5.62,0,0,0,23,19.8a4.06,4.06,0,0,0,3,1.41,4.53,4.53,0,0,0,2-.29c.38-.16.52-.6.07-.77a3.71,3.71,0,0,0-1,0,8.75,8.75,0,0,1-1.25-.08A3.86,3.86,0,0,1,24.29,19.42Z" transform="translate(-4.76 0)"/>
      <path class="cls-25" d="M6.81,15.35a2.27,2.27,0,0,0,1.07.27c.16.93.28,3.34,2.1,4.74,1.51,1.16,6.18,1.19,7.57.35a5.62,5.62,0,0,0,2.56-4.45c.48-4.11-9-2.79-10.92-2.59-1.34.15-2.51-.14-2.8.15S6.81,15.35,6.81,15.35Zm2.45.18c1.62-1.14,8-1.22,9.56-.2.75.5,0,3.31-1.25,4.28-1.68,1.28-6.24,1.07-7.52-.3C9.07,18.25,8.74,15.91,9.26,15.53Z" transform="translate(-4.76 0)"/>
      <path class="cls-25" d="M33.9,12.7c-.29-.27-1.31.12-2.53.09-1.7,0-10.38-.56-9.65,3.5a5.65,5.65,0,0,0,2.63,4.21c1.31.72,5.52.3,6.8-1,1.53-1.54,1.46-4,1.54-4.89a2,2,0,0,0,1-.37S34.28,13,33.9,12.7ZM31,18.47c-1.05,1.48-5.14,2.07-6.74.94-1.22-.86-2.08-3.61-1.44-4.16,1.32-1.15,7.08-1.61,8.62-.6C31.94,15,31.81,17.34,31,18.47Z" transform="translate(-4.76 0)"/>
      <path class="cls-26" d="M24,14.91c1.05-.43,6.45-.78,7.06-.21.43.4-1.13,1-1.84,1.14a12.58,12.58,0,0,1-4.1.06C24.7,15.84,23,15.3,24,14.91Z" transform="translate(-4.76 0)"/>
      <path class="cls-4" d="M28.18,14.77c1.09-.15,3,0,2.77.37s-3.22.54-3.49.08C27.32,15,27.66,14.84,28.18,14.77Z" transform="translate(-4.76 0)"/>
      <path class="cls-27" d="M25,18.35c.69,0,1.83.4,1.67.65s-2,0-2.16-.39C24.41,18.41,24.63,18.34,25,18.35Z" transform="translate(-4.76 0)"/>
      <path class="cls-27" d="M11.07,18.89c.72.07,1.89.52,1.71.75s-2.15-.1-2.25-.51C10.49,18.92,10.73,18.87,11.07,18.89Z" transform="translate(-4.76 0)"/>
      <path class="cls-26" d="M10.35,15.37c.57-.57,6.53-.56,7.75-.22s-.67.92-1.06,1a16.67,16.67,0,0,1-4.5.19C11.74,16.27,9.94,15.78,10.35,15.37Z" transform="translate(-4.76 0)"/>
      <path class="cls-4" d="M15.5,15c1.16-.12,3.15.11,2.92.44s-3.42.46-3.69,0C14.59,15.18,15,15.05,15.5,15Z" transform="translate(-4.76 0)"/>
      <path class="cls-25" d="M18.67,14A7.12,7.12,0,0,0,23,13.85c1.3-.42,0,.66-.25.94s-.25,3.28-.85,2.14-1.45-1.06-1.89.18-.27-1-.43-1.64S17.33,13.64,18.67,14Z" transform="translate(-4.76 0)"/>
      <path class="cls-28" d="M18.59,14.52c-1.51-1.07-4-1.15-8.75-.49C13.46,13.94,16.35,13.84,18.59,14.52Z" transform="translate(-4.76 0)"/>
      <path class="cls-28" d="M23.37,14.23c1.22-1.1,3.28-1.08,7.69-1.13C27.77,13.49,25.31,13.37,23.37,14.23Z" transform="translate(-4.76 0)"/>
    </g>
  </g>
</svg>
