<svg id="레이어_1" data-name="레이어 1" xmlns="http://www.w3.org/2000/svg" viewBox="0 0 40 31.47">
  <defs>
    <style>
      .cls-1 {
        fill: #ff9500;
      }

      .cls-1, .cls-2, .cls-4 {
        fill-rule: evenodd;
      }

      .cls-2 {
        fill: #86bcb6;
      }

      .cls-3 {
        fill: #fff;
      }
    </style>
  </defs>
  <title>1</title>
  <g>
    <polygon class="cls-1" points="32.5 7.09 33.65 12.36 37.41 9.33 35.75 8.88 38.41 6.61 32.5 7.09"/>
    <polygon class="cls-2" points="1.5 4.65 0.93 10.92 2.01 17.41 4.25 22.37 9.41 28.32 3.18 29.14 8.12 30.3 14.11 31.14 21.04 28.97 27.03 24.91 31.5 19.04 33.55 13.85 33.55 9.81 31.5 5.35 28.86 3 25.02 1.12 20.22 0.64 13.81 4.95 12.76 7.12 11.72 9.23 9.59 8.82 6.03 7.39 3.74 6.51 1.5 4.65"/>
    <circle class="cls-3" cx="26.22" cy="7.1" r="2.71"/>
    <path class="cls-1" d="M34.66,11.46l-.59,1.08a2.1,2.1,0,0,0-.42,1,.28.28,0,0,0,.43.23c.32-.19.44-.58.62-.89s.39-.73.58-1.09A.35.35,0,0,0,34.66,11.46Z" transform="translate(0 -4.01)"/>
    <path class="cls-1" d="M36,11.6c-.29.57-.62,1.13-1,1.67a15.1,15.1,0,0,0-1,1.6.32.32,0,0,0,.51.38A11,11,0,0,0,36.63,12,.38.38,0,0,0,36,11.6Z" transform="translate(0 -4.01)"/>
    <path class="cls-2" d="M2.72,11.2c-.3.54-.6,1.08-.91,1.61A7.64,7.64,0,0,0,1,14.34c-.17.5.5.77.84.46a6,6,0,0,0,1-1.45c.31-.54.61-1.07.89-1.61A.55.55,0,0,0,2.72,11.2Z" transform="translate(0 -4.01)"/>
    <path class="cls-2" d="M5.2,11.6c-.78,1.17-1.56,2.34-2.33,3.52a17.35,17.35,0,0,0-2,3.26c-.2.55.58.88.94.52A17.22,17.22,0,0,0,4,15.73c.76-1.19,1.5-2.37,2.25-3.56.42-.65-.62-1.21-1-.57Z" transform="translate(0 -4.01)"/>
    <path class="cls-2" d="M7.94,13A107.38,107.38,0,0,0,2.07,22.1c-.3.61.54,1.32,1,.74a108.22,108.22,0,0,0,6-9.27C9.48,12.88,8.38,12.29,7.94,13Z" transform="translate(0 -4.01)"/>
    <path class="cls-2" d="M10.57,13.87C8.14,17.74,5.3,21.56,3.24,25.64c-.3.6.56,1.34,1,.74,2.77-3.71,5-8,7.37-11.92.42-.68-.64-1.25-1.06-.59Z" transform="translate(0 -4.01)"/>
    <path class="cls-2" d="M17.87,6C13.71,13.41,9.15,20.6,4.7,27.89c-.49.79.75,1.46,1.26.69,4.67-7.11,8.77-14.65,12.76-22.16A.49.49,0,0,0,17.87,6Z" transform="translate(0 -4.01)"/>
    <path class="cls-2" d="M21.93,5.1C17,13.43,11.9,21.73,7.33,30.27a.73.73,0,0,0,1.29.7C13.49,22.6,18,14,22.84,5.61a.52.52,0,0,0-.91-.51Z" transform="translate(0 -4.01)"/>
    <path class="cls-2" d="M25,4.89c-2.76,5-5.6,9.94-8.51,14.84-2.65,4.47-6.3,9.05-8.13,13.9-.21.54.59.9.94.52,3.49-3.75,5.92-9.28,8.43-13.74Q21.94,13,25.83,5.34A.46.46,0,0,0,25,4.89Z" transform="translate(0 -4.01)"/>
    <path class="cls-2" d="M23.51,12.69c-3.76,7.39-8.09,14.37-12.25,21.53-.43.74.67,1.3,1.15.63A147,147,0,0,0,24.59,13.29C24.93,12.57,23.87,12,23.51,12.69Z" transform="translate(0 -4.01)"/>
    <path class="cls-2" d="M26.31,13.66c-3.68,6.44-7.47,13-10.52,19.73-.33.72.71,1.32,1.1.6,3.58-6.54,6.78-13.27,10.37-19.8a.55.55,0,0,0-1-.53Z" transform="translate(0 -4.01)"/>
    <path class="cls-2" d="M31.25,9.47c-3.84,7.69-7.94,15.34-11.38,23.22-.32.73.72,1.34,1.11.61C25,25.71,28.48,17.75,32.13,10,32.41,9.38,31.54,8.89,31.25,9.47Z" transform="translate(0 -4.01)"/>
    <path class="cls-2" d="M32.28,12.73c-2.59,5.44-5.2,10.87-7.73,16.34-.37.79.83,1.46,1.2.66,2.52-5.48,5-11,7.43-16.5C33.46,12.63,32.56,12.12,32.28,12.73Z" transform="translate(0 -4.01)"/>
    <path class="cls-2" d="M29.26,8l-.6,1.17c-.21.4-.45.71-.24,1.16a.42.42,0,0,0,.49.19c.43-.09.55-.55.72-.9s.37-.73.56-1.11C30.49,7.89,29.58,7.38,29.26,8Z" transform="translate(0 -4.01)"/>
    <path class="cls-2" d="M26.78,6.33l-.49,1.12a3.27,3.27,0,0,0-.37,1.09.44.44,0,0,0,.76.29,3,3,0,0,0,.51-1l.43-1.06c.24-.56-.59-1-.84-.47Z" transform="translate(0 -4.01)"/>
    <path class="cls-4" d="M39,9.58a27.59,27.59,0,0,1-6,.72l-.1,0A11.9,11.9,0,0,0,22.54,4a11.32,11.32,0,0,0-10.85,8.47C8.09,11.79,4.34,10.92,1.91,8a.74.74,0,0,0-1.23.36c-.76,4.75-1.29,9.73.72,14.27C2.87,25.91,5,29.63,7.94,32c-1.76.23-3.71.13-5.38.24a.78.78,0,0,0-.3,1.46,2.82,2.82,0,0,0,1.85,1,41.72,41.72,0,0,0,4.43.61,29.2,29.2,0,0,0,8.9-.34c5.59-1.17,9.74-4.8,13.08-9.28a18.17,18.17,0,0,0,3.68-8.52s0,0,0,0a9.74,9.74,0,0,1,4.5-2.92.76.76,0,0,0,0-1.45,7.48,7.48,0,0,0-1.36-.28,14.17,14.17,0,0,1,2.31-1.56c.76-.4.2-1.58-.6-1.35ZM28.7,9.22c1.32,1.37.86,3-.45,4.22a3.31,3.31,0,0,1-4.66-.64A3,3,0,0,1,24,9.05a.72.72,0,0,1,.31-.5,3.67,3.67,0,0,1,4.36.67ZM27.51,12.1a1.86,1.86,0,0,1-2.88-.28,1.72,1.72,0,0,1,.48-2,2.45,2.45,0,0,1,2,.06,1.3,1.3,0,0,1,.4,2.25ZM35.45,14a8.88,8.88,0,0,0-1.2.92,11.28,11.28,0,0,0-.7-3.22c.85,0,1.7-.08,2.56-.14a16.71,16.71,0,0,0-1.21,1.17c-.4.44-.12,1.35.55,1.27Zm-3,4.91a20.08,20.08,0,0,1-4.3,7.44,22.52,22.52,0,0,1-6.21,5.46A19.5,19.5,0,0,1,13.37,34a33,33,0,0,1-4.87-.17c-.63-.06-1.26-.14-1.89-.23a14.14,14.14,0,0,0,3.45-.52.77.77,0,0,0,.15-1.4C6.76,29.73,4.33,25.52,2.78,22c-1.65-3.76-1.43-7.88-.87-11.86,2.67,2.39,6.37,3.19,9.85,3.83a.71.71,0,0,0,.83-.51A.61.61,0,0,0,13,13,9.92,9.92,0,0,1,25.17,5.8,10.59,10.59,0,0,1,32.42,18.91Z" transform="translate(0 -4.01)"/>
  </g>
</svg>
