<svg id="레이어_1" data-name="레이어 1" xmlns="http://www.w3.org/2000/svg" viewBox="0 0 16.59 40">
  <defs>
    <style>
      .cls-1 {
        fill: #e3ca95;
      }

      .cls-1, .cls-2, .cls-3 {
        fill-rule: evenodd;
      }

      .cls-2 {
        fill: #ec331e;
      }

      .cls-3 {
        fill: #2b2722;
      }
    </style>
  </defs>
  <title>1</title>
  <g>
    <polygon class="cls-1" points="2.27 25.84 2.76 5.3 4.14 1.46 6.07 0.84 11.94 1.32 13.72 3.58 14.21 9.7 13.72 25.84 15.63 29.41 15.63 33.49 14.38 36.65 11.17 38.85 6.61 38.85 3.22 36.81 0.39 33 0.93 29.52 2.27 25.84"/>
    <polygon class="cls-2" points="5.85 25.84 5.42 14.38 7.02 11.58 8.97 11.2 10.68 12.62 10.41 24.87 10.69 27.44 13.1 30.43 12.46 33.73 9.26 35.83 6.32 35.83 4.14 33.73 3.57 30.08 5.24 27.44 5.85 25.84"/>
    <path class="cls-2" d="M21.88,13l-2.63,2.45a12.47,12.47,0,0,0-2.37,2.39c-.31.51.32,1,.8.76a12.7,12.7,0,0,0,2.47-2.28l2.56-2.53C23.23,13.25,22.42,12.48,21.88,13Z" transform="translate(-11.7)"/>
    <path class="cls-2" d="M22.16,16.12l-3,2.59c-.73.63-1.82,1.26-2.08,2.23a.56.56,0,0,0,.94.52c1.57-1.59,3.24-3.08,4.89-4.6C23.44,16.39,22.67,15.68,22.16,16.12Z" transform="translate(-11.7)"/>
    <path class="cls-2" d="M21.72,19.51l-2.36,2.07c-.68.6-1.55,1.13-1.88,2-.16.41.33.76.69.66.86-.24,1.52-1.12,2.16-1.72l2.3-2.13C23.22,19.82,22.32,19,21.72,19.51Z" transform="translate(-11.7)"/>
    <path class="cls-2" d="M21.77,23.11,19.4,24.84a10.24,10.24,0,0,0-2.15,1.71c-.32.42,0,1.22.6,1A9.88,9.88,0,0,0,20.09,26l2.32-1.81C23,23.67,22.41,22.64,21.77,23.11Z" transform="translate(-11.7)"/>
    <path class="cls-2" d="M21.87,26.15,18.11,28.7c-.95.65-2.21,1.23-2.82,2.24-.25.42.21,1.09.7.87a17.41,17.41,0,0,0,3-2.11l3.47-2.56C23.08,26.71,22.5,25.73,21.87,26.15Z" transform="translate(-11.7)"/>
    <path class="cls-2" d="M22.6,28.26c-1.06.79-2.1,1.61-3.12,2.45a23.67,23.67,0,0,0-3.18,2.81c-.46.55.19,1.51.83,1,1-.74,1.85-1.68,2.78-2.51s2.19-1.87,3.32-2.76C23.82,28.82,23.22,27.8,22.6,28.26Z" transform="translate(-11.7)"/>
    <path class="cls-2" d="M24.11,30.23c-.9.78-1.8,1.56-2.67,2.38A9.27,9.27,0,0,0,19.14,35a.62.62,0,0,0,.85.82,11.07,11.07,0,0,0,2.43-2.31c.83-.85,1.69-1.67,2.55-2.48C25.55,30.53,24.68,29.74,24.11,30.23Z" transform="translate(-11.7)"/>
    <path class="cls-1" d="M19,.91c-.79.54-1.56,1.1-2.31,1.69a10.14,10.14,0,0,0-2,1.74.41.41,0,0,0,.51.63,15.75,15.75,0,0,0,2-1.63c.72-.59,1.47-1.16,2.23-1.7C19.89,1.32,19.46.6,19,.91Z" transform="translate(-11.7)"/>
    <path class="cls-1" d="M23,1.38c-1.55,1-3.08,2-4.58,3.06a22,22,0,0,0-3.94,3.1.43.43,0,0,0,.54.66A36.58,36.58,0,0,0,19.2,5.08c1.4-1,2.82-2,4.26-3C23.89,1.79,23.48,1.1,23,1.38Z" transform="translate(-11.7)"/>
    <path class="cls-1" d="M24.78,3.33C21.26,5.75,17.41,8,14.15,10.73c-.45.39.15,1.06.63.79,3.66-2.12,7-5,10.46-7.45C25.69,3.75,25.25,3,24.78,3.33Z" transform="translate(-11.7)"/>
    <path class="cls-1" d="M25.45,6.79c-3.82,2.52-7.71,4.92-11.53,7.44a.62.62,0,0,0,.64,1c3.87-2.46,7.61-5.11,11.37-7.71C26.41,7.24,26,6.46,25.45,6.79Z" transform="translate(-11.7)"/>
    <path class="cls-1" d="M25.42,10.68c-.5.37-1,.72-1.54,1a11.24,11.24,0,0,0-1.5.9c-.35.3.06.8.43.71a5.79,5.79,0,0,0,1.56-.81c.52-.33,1-.69,1.53-1.06S25.89,10.34,25.42,10.68Z" transform="translate(-11.7)"/>
    <path class="cls-1" d="M16.27,16.23,15.11,17A5.79,5.79,0,0,0,14,17.7a.49.49,0,0,0,.5.81,5.92,5.92,0,0,0,1.14-.66l1.14-.74C17.37,16.74,16.83,15.87,16.27,16.23Z" transform="translate(-11.7)"/>
    <path class="cls-1" d="M25.07,15a12.22,12.22,0,0,0-3,2,.4.4,0,0,0,.5.62c1-.56,1.89-1.33,2.89-1.91C25.94,15.39,25.52,14.71,25.07,15Z" transform="translate(-11.7)"/>
    <path class="cls-1" d="M16.16,20l-1.29.77a3.77,3.77,0,0,0-1.16.82.44.44,0,0,0,.44.71,3.9,3.9,0,0,0,1.27-.64l1.28-.78A.52.52,0,0,0,16.16,20Z" transform="translate(-11.7)"/>
    <path class="cls-1" d="M25.16,18.51a13.44,13.44,0,0,0-1.5.8,3.54,3.54,0,0,0-1.21.92c-.2.28.15.65.45.55A6.38,6.38,0,0,0,24.19,20a12.79,12.79,0,0,1,1.4-.78C26.06,19,25.62,18.29,25.16,18.51Z" transform="translate(-11.7)"/>
    <path class="cls-1" d="M16.86,23.45c-.47.33-.94.64-1.43.93a3.76,3.76,0,0,0-1.24.87c-.18.25.08.59.35.59a3,3,0,0,0,1.4-.63c.49-.29,1-.62,1.41-.95S17.36,23.1,16.86,23.45Z" transform="translate(-11.7)"/>
    <path class="cls-1" d="M25.47,22.2c-1.06.71-2.15,1.4-3.18,2.14-.51.37,0,1.2.52.85,1.06-.71,2.09-1.49,3.13-2.23C26.4,22.63,26,21.88,25.47,22.2Z" transform="translate(-11.7)"/>
    <path class="cls-1" d="M16.52,27.29l-3.89,2.23c-.54.31,0,1.17.51.83L16.93,28A.39.39,0,0,0,16.52,27.29Z" transform="translate(-11.7)"/>
    <path class="cls-1" d="M25.41,26.53a19.09,19.09,0,0,0-1.72,1.08.44.44,0,0,0,.46.75,17.15,17.15,0,0,0,1.75-1A.47.47,0,0,0,25.41,26.53Z" transform="translate(-11.7)"/>
    <path class="cls-1" d="M14.34,32.94l-.77.44a1.64,1.64,0,0,0-.68.57.43.43,0,0,0,.39.63,1.64,1.64,0,0,0,.83-.32l.76-.45A.51.51,0,0,0,14.34,32.94Z" transform="translate(-11.7)"/>
    <path class="cls-1" d="M27,29.34c-.61.35-1.23.68-1.81,1.08a.42.42,0,0,0,.44.72c.64-.31,1.23-.69,1.83-1.05S27.45,29.06,27,29.34Z" transform="translate(-11.7)"/>
    <path class="cls-1" d="M17.22,35.63a23.55,23.55,0,0,0-2.29,1.18c-.45.28-.14,1.07.39.88.85-.32,1.64-.77,2.45-1.17C18.37,36.22,17.82,35.34,17.22,35.63Z" transform="translate(-11.7)"/>
    <path class="cls-1" d="M27.23,32.85,21.8,35.8c-1.25.67-3.17,1.25-4,2.45-.21.32.15.69.48.6,1.52-.4,3-1.57,4.34-2.35l5.05-2.87C28.22,33.34,27.74,32.57,27.23,32.85Z" transform="translate(-11.7)"/>
    <path class="cls-2" d="M20.49,10.79l-2.2,1.85c-.53.45-1.5,1-1.41,1.77a.62.62,0,0,0,1.15.28,8.4,8.4,0,0,1,1.58-1.51l1.75-1.56C21.94,11.1,21.07,10.3,20.49,10.79Z" transform="translate(-11.7)"/>
    <path class="cls-1" d="M25.23,36.54c-.74.36-1.47.73-2.21,1.08a6.31,6.31,0,0,0-2,1.09.44.44,0,0,0,.33.74,5.6,5.6,0,0,0,2-.9q1.15-.61,2.28-1.26C26.2,37,25.73,36.29,25.23,36.54Z" transform="translate(-11.7)"/>
    <path class="cls-3" d="M28.28,30.65a7,7,0,0,0-1.65-4.22c-.65-.9-.28-2.5-.27-3.54,0-1.19,0-2.38.05-3.57,0-3.35-.07-6.7-.14-10,0-.53.07-1.07.11-1.6.1-1.56.47-3.58-.24-5C25.54,1.37,24,.91,22.79.55A11.85,11.85,0,0,0,17.63.12a4.5,4.5,0,0,0-3.09,1.7c-.89,1.31-.7,3.15-.76,4.65-.15,4.43-.34,8.85-.36,13.28,0,1.94.16,3.95,0,5.89s-1.57,3.43-1.71,5.42a8.43,8.43,0,0,0,4.39,7.76c6.07,3.61,12.49-1.63,12.17-8.17Zm-3.12-1.22a5.66,5.66,0,0,1,.25,3.26c-.89,4-6.12,5.36-9.12,2.75a5.25,5.25,0,0,1-1.57-5.56c.4-1.18,1.48-1.94,1.86-3.1a13.3,13.3,0,0,0,.16-4.32c-.06-2.73-.46-5.69,0-8.4.3-1.87,1.53-3.86,3.63-3.91s2.89,1.72,2.9,3.58c0,1.57-.05,3.14-.12,4.71,0,1,.08,2,.11,3.07,0,.87,0,1.75,0,2.62a10.71,10.71,0,0,0,0,2.33c.25,1.09,1.6,1.86,2,3Zm-4.43,5.76c-2.85.51-5.81-2.31-4.41-5.2.43-.89,1.21-1.49,1.58-2.41a7.61,7.61,0,0,0,.42-2.92c0-2.7-.14-5.41-.2-8.11a6.89,6.89,0,0,1,.65-3.93c.55-.83,1.79-1.46,2.66-.64.54.51.39,1.69.39,2.38,0,1.48,0,2.95.06,4.42-.15,1.89-.24,3.79-.27,5.68a7.54,7.54,0,0,0,.14,3.07c.4.88,1.39,1.28,1.83,2.17a3.84,3.84,0,0,1-2.85,5.49Zm6-3.31c-.25,3-2.24,5.94-5.34,6.54s-6.82-1.78-7.82-4.81A6.32,6.32,0,0,1,13.85,29,8.27,8.27,0,0,0,15,25.33c.22-6.89-.06-13.81.32-20.7.12-2.19,1.28-3.1,3.41-3.16,1.6-.05,4.09.19,5.44,1.18s.79,4,.85,5.63c.07,1.75.14,3.5.14,5.26-.13,3.82-.27,7.64-.34,11.46a2.82,2.82,0,0,0,.76,2.53A5.55,5.55,0,0,1,26.72,31.88Z" transform="translate(-11.7)"/>
  </g>
</svg>
