<svg id="레이어_1" data-name="레이어 1" xmlns="http://www.w3.org/2000/svg" viewBox="0 0 40 39.42">
  <defs>
    <style>
      .cls-1 {
        fill: #ec331e;
      }

      .cls-1, .cls-2, .cls-3 {
        fill-rule: evenodd;
      }

      .cls-2 {
        fill: #576d64;
      }
    </style>
  </defs>
  <title>1</title>
  <g>
    <polygon class="cls-1" points="6.89 5.14 17.06 18.07 27.06 18.07 30.75 24.51 26.18 26.39 38.84 32.79 38.52 18.81 35.43 22.77 29.11 13.14 18.95 12.88 9.94 2.37 6.89 5.14"/>
    <polygon class="cls-2" points="0.77 0.99 1.23 37.98 38.81 38.84 38.84 35.58 4.42 35.29 3.86 0.99 0.77 0.99"/>
    <path class="cls-1" d="M9.7,4.11a.53.53,0,0,0-1,.31,15,15,0,0,1,.49,2.4,8.81,8.81,0,0,0,.28,2,.43.43,0,0,0,.82,0C10.76,7.47,10.11,5.45,9.7,4.11Z" transform="translate(0 -0.21)"/>
    <path class="cls-1" d="M11.42,3.58c-.13-.57-1-.3-.87.27.47,2.49.5,5.16,1.16,7.6a.44.44,0,0,0,.86-.13C12.74,8.82,11.94,6,11.42,3.58Z" transform="translate(0 -0.21)"/>
    <path class="cls-1" d="M13.75,6.43c-.09-.51-1-.37-.92.15.4,2.58.4,5.35,1,7.86.13.49.78.31.81-.13C14.87,11.75,14.18,9,13.75,6.43Z" transform="translate(0 -0.21)"/>
    <path class="cls-1" d="M16.22,9.83c-.13-.63-1.07-.33-.95.29.43,2.2.52,4.44.9,6.64.09.53.84.33.87-.14A27,27,0,0,0,16.22,9.83Z" transform="translate(0 -0.21)"/>
    <path class="cls-1" d="M19,13.09c-.07-.61-1-.6-1,0a24.66,24.66,0,0,0,.51,5.44c.13.43.9.5,1,0A25.64,25.64,0,0,0,19,13.09Z" transform="translate(0 -0.21)"/>
    <path class="cls-1" d="M21.1,14.06c-.11-.54-.9-.28-.8.24A28.64,28.64,0,0,0,21,18c.15.44.87.36.83-.13A30.75,30.75,0,0,0,21.1,14.06Z" transform="translate(0 -0.21)"/>
    <path class="cls-1" d="M23.16,14.18c-.16-.62-1.1-.33-1,.29.31,1.39.28,2.84.6,4.21a.47.47,0,0,0,.91,0A12.16,12.16,0,0,0,23.16,14.18Z" transform="translate(0 -0.21)"/>
    <path class="cls-1" d="M24.92,13.91a.51.51,0,0,0-1,.29c.19.69.37,1.39.51,2.09a14.84,14.84,0,0,0,.41,2.11.47.47,0,0,0,.92-.15A11.87,11.87,0,0,0,24.92,13.91Z" transform="translate(0 -0.21)"/>
    <path class="cls-1" d="M27.11,14c0-.59-1-.58-.93,0a16.87,16.87,0,0,0,1,5.42c.16.36.83.36.76-.12C27.71,17.57,27.25,15.85,27.11,14Z" transform="translate(0 -0.21)"/>
    <path class="cls-1" d="M29.32,14.31c0-.58-.94-.57-.91,0,.14,2.55,0,5.37.56,7.86.11.48.74.29.78-.12C30,19.56,29.49,16.82,29.32,14.31Z" transform="translate(0 -0.21)"/>
    <path class="cls-1" d="M29.93,25.88c-.16-.58-1.07-.31-.91.28s.24,1.35.36,2c.09.53.82.31.86-.14A6.2,6.2,0,0,0,29.93,25.88Z" transform="translate(0 -0.21)"/>
    <path class="cls-1" d="M31.78,17.3a.44.44,0,0,0-.87,0c.18,3.95.35,7.92.86,11.84.07.54.91.55.87,0C32.37,25.19,32,21.26,31.78,17.3Z" transform="translate(0 -0.21)"/>
    <path class="cls-1" d="M34.19,21.25c0-.57-.91-.55-.88,0,.17,2.92.15,5.94.57,8.84a.43.43,0,0,0,.86,0C34.79,27.16,34.39,24.17,34.19,21.25Z" transform="translate(0 -0.21)"/>
    <path class="cls-1" d="M36.74,22.61c0-.59-1-.58-.93,0,.14,3,0,6.27.55,9.23.1.53.83.32.87-.14C37.47,28.75,36.93,25.58,36.74,22.61Z" transform="translate(0 -0.21)"/>
    <path class="cls-1" d="M38.37,20.3c-.09-.56-1-.55-.89,0,.43,3.13.35,6.26.68,9.38a.46.46,0,0,0,.91,0A38,38,0,0,0,38.37,20.3Z" transform="translate(0 -0.21)"/>
    <path class="cls-2" d="M3.71,37.57a11.67,11.67,0,0,0-1.52-2.85.54.54,0,0,0-.92.57c.56.87,1,1.82,1.57,2.68A.49.49,0,0,0,3.71,37.57Z" transform="translate(0 -0.21)"/>
    <path class="cls-2" d="M6.42,38a5.59,5.59,0,0,0-.65-1.32L5,35.29c-.3-.54-1.11,0-.81.51s.49.91.74,1.37a5,5,0,0,0,.78,1.24A.44.44,0,0,0,6.42,38Z" transform="translate(0 -0.21)"/>
    <path class="cls-2" d="M9.92,38.09a7.18,7.18,0,0,0-1.65-2.56c-.51-.58-1.31.28-.82.85a24.14,24.14,0,0,1,1.44,2.18A.57.57,0,0,0,9.92,38.09Z" transform="translate(0 -0.21)"/>
    <path class="cls-2" d="M11.64,36c-.49-.57-1.3.29-.81.86a11.87,11.87,0,0,1,1.24,2.12.51.51,0,0,0,.94-.28A5,5,0,0,0,11.64,36Z" transform="translate(0 -0.21)"/>
    <path class="cls-2" d="M16.12,38.11a12.37,12.37,0,0,0-1.35-2.34.59.59,0,0,0-1,.62,12.34,12.34,0,0,0,1.5,2.24A.52.52,0,0,0,16.12,38.11Z" transform="translate(0 -0.21)"/>
    <path class="cls-2" d="M22.61,38.47a7.45,7.45,0,0,0-1.3-2.16.68.68,0,0,0-.89-.21.66.66,0,0,0-.2.88c.51.67.91,1.42,1.46,2.07C22.05,39.49,22.77,39,22.61,38.47Z" transform="translate(0 -0.21)"/>
    <path class="cls-2" d="M28.68,37.92a24.32,24.32,0,0,1-1.42-2.42c-.37-.72-1.45,0-1.08.67a25.52,25.52,0,0,0,1.42,2.42C28.05,39.27,29.13,38.6,28.68,37.92Z" transform="translate(0 -0.21)"/>
    <path class="cls-2" d="M35.41,38.53a4.48,4.48,0,0,0-.68-1.25c-.26-.41-.53-.82-.79-1.24a.61.61,0,0,0-1,.64c.26.42.53.83.79,1.24a4.14,4.14,0,0,0,.85,1.14A.53.53,0,0,0,35.41,38.53Z" transform="translate(0 -0.21)"/>
    <path class="cls-2" d="M4.38,34.18a21.92,21.92,0,0,0-2.2-3.4c-.37-.56-1.26,0-.89.55a22.75,22.75,0,0,0,2.27,3.36C3.89,35,4.58,34.65,4.38,34.18Z" transform="translate(0 -0.21)"/>
    <path class="cls-2" d="M4.09,29.83a10.86,10.86,0,0,0-1.86-2.41c-.46-.52-1.17.25-.73.76.64.74,1.14,1.58,1.78,2.3C3.71,31,4.34,30.32,4.09,29.83Z" transform="translate(0 -0.21)"/>
    <path class="cls-2" d="M4.22,26.7a4.34,4.34,0,0,0-1-1.33c-.38-.45-.76-.91-1.15-1.36s-1.1.24-.69.73l1.07,1.31a4.39,4.39,0,0,0,1.1,1.17A.45.45,0,0,0,4.22,26.7Z" transform="translate(0 -0.21)"/>
    <path class="cls-2" d="M4.1,22.87a10.57,10.57,0,0,0-.94-1.18c-.34-.4-.65-.83-1-1.26-.41-.59-1.35,0-.95.59a9.39,9.39,0,0,0,2.16,2.57C3.86,23.89,4.35,23.28,4.1,22.87Z" transform="translate(0 -0.21)"/>
    <path class="cls-2" d="M4.42,19.87a5,5,0,0,0-1.18-1.62A17.82,17.82,0,0,0,1.69,16.8c-.53-.44-1.27.32-.74.79a15.86,15.86,0,0,1,1.37,1.35,10.35,10.35,0,0,0,1.29,1.43C4,20.64,4.6,20.38,4.42,19.87Z" transform="translate(0 -0.21)"/>
    <path class="cls-2" d="M4.37,15.81a6.64,6.64,0,0,0-1.08-1.17L2.13,13.51c-.52-.52-1.29.29-.78.82l1.14,1.16a6.25,6.25,0,0,0,1.17,1.07C4.12,16.84,4.63,16.25,4.37,15.81Z" transform="translate(0 -0.21)"/>
    <path class="cls-2" d="M4.1,12.14a5.54,5.54,0,0,0-.92-1.07l-1-1c-.52-.54-1.3.29-.8.84a12.61,12.61,0,0,0,2,2C3.86,13.21,4.35,12.58,4.1,12.14Z" transform="translate(0 -0.21)"/>
    <path class="cls-2" d="M3.25,8.15a6.53,6.53,0,0,0-1.39-.94.54.54,0,0,0-.53,1A5.39,5.39,0,0,1,2.46,9c.32.31.59.78,1,1s.78-.05.73-.45A2.27,2.27,0,0,0,3.25,8.15Z" transform="translate(0 -0.21)"/>
    <path class="cls-2" d="M4,6.43a11,11,0,0,0-2.09-2.6c-.5-.56-1.29.29-.8.85L2.14,5.91A4.68,4.68,0,0,0,3.28,7C3.61,7.19,4.13,6.82,4,6.43Z" transform="translate(0 -0.21)"/>
    <path class="cls-2" d="M3.84,3.24A4,4,0,0,0,2.3,1.36a.64.64,0,0,0-.9,0,.63.63,0,0,0,0,.9A6,6,0,0,1,2.21,3c.24.27.44.56.7.8A.57.57,0,0,0,3.84,3.24Z" transform="translate(0 -0.21)"/>
    <path class="cls-3" d="M39.73,37.72V36.25a.61.61,0,0,0-.17-.44.6.6,0,0,0-.62-.59c-5.73,0-11.47,0-17.21,0-2.87,0-5.74,0-8.61-.08-2.67,0-5.61-.4-8.28,0C4.92,24,4.67,12.81,4.36,1.7A.72.72,0,0,0,4.08.58.61.61,0,0,0,3.73.47,4.45,4.45,0,0,0,.29.63a.62.62,0,0,0-.12,1C.34,13.67.49,25.75.51,37.84a.71.71,0,0,0,.43,1.25H1a.82.82,0,0,0,.35,0c6.11.28,12.29.09,18.42.12s12.46.05,18.69.05a.64.64,0,0,0,1.18-.12,5,5,0,0,0,.07-1.44Zm-.07-18.25a63.09,63.09,0,0,1-.06,13.46c.57.48,0,1.52-.73,1.09l-.07,0a.58.58,0,0,1-.48-.29c-4.09-2.42-8.42-4.38-12.61-6.63-.81-.44-.13-1.63.69-1.24h0a5.54,5.54,0,0,1,1.81-.79l1.69-.58c-.43-.64-.8-1.33-1.18-2q-1-1.73-2-3.48c-3.17.13-6.35.15-9.51,0a.73.73,0,0,1-.67-.88C13,14.42,9.89,10,6.66,6a.61.61,0,0,1-.14-.31.66.66,0,0,1,0-.87A11.37,11.37,0,0,1,8.23,3.4L10,2c.49-.39,1,.07,1,.56,2.71,3.34,5.3,6.77,7.93,10.16h0c1.82.11,3.64.19,5.46.21a32.29,32.29,0,0,1,4.92.1.58.58,0,0,1,.6.3C31.64,16.17,33.68,19,35.23,22A10.48,10.48,0,0,1,36,20.94a9,9,0,0,1,2-1.85.61.61,0,0,1,.56-.08.69.69,0,0,1,1.14.46ZM38.32,32.13c-3.33-2-6.79-3.81-10.27-5.5.24-.1.48-.21.71-.29l2-.75h0l.08.07c.42.42,1.28,0,1-.64a24.15,24.15,0,0,0-2-3.26c-.68-1.09-1.33-2.19-2-3.31a.64.64,0,0,0-.65-.79c-3.13.14-6.25.13-9.37,0l-.07-.09C14.27,13.87,11.24,9.47,8,5.39c.36-.28.7-.6,1-.87l1.14-.93c2.65,3.43,5.41,6.76,8.11,10.14a.76.76,0,0,0,.23.18.73.73,0,0,0,.41.17c1.82.15,3.64.26,5.47.31A23.17,23.17,0,0,0,29,14.33c1.89,3.22,3.61,6.79,5.9,9.73.38.49,1.42.19,1.11-.5h0c.41-.52.63-1.2,1-1.74a7.61,7.61,0,0,1,1.29-1.31c0,3.89.16,7.75,0,11.63Zm-18.57,5.7c-5.92-.06-11.88-.31-17.8-.15,0-12-.14-24-.47-35.93.22,0,.44-.05.67-.06a4.44,4.44,0,0,1,.9.06c0,11.19,0,22.43.32,33.62a.68.68,0,0,0,.59.68.54.54,0,0,0,.42.3c2.59.51,5.47.23,8.11.26l8.94.06c5.64,0,11.28-.05,16.92-.19V38C32.15,37.94,26,37.89,19.75,37.83Z" transform="translate(0 -0.21)"/>
  </g>
</svg>
