<svg id="레이어_1" data-name="레이어 1" xmlns="http://www.w3.org/2000/svg" viewBox="0 0 29.6 40">
  <defs>
    <style>
      .cls-1 {
        fill: #e34f7e;
      }

      .cls-2 {
        fill: #3a3a4a;
      }

      .cls-3 {
        fill: #1e1e29;
      }

      .cls-4 {
        opacity: 0.1;
      }

      .cls-5 {
        fill: #f06799;
      }

      .cls-6 {
        fill: #ffb67d;
      }

      .cls-7 {
        fill: #2b2521;
      }

      .cls-8 {
        fill: #ffcb9e;
      }

      .cls-9 {
        fill: #bf3c1b;
      }

      .cls-18, .cls-19, .cls-9 {
        opacity: 0.3;
      }

      .cls-10 {
        fill: #423833;
      }

      .cls-11 {
        fill: #211011;
      }

      .cls-12 {
        fill: #ffd8b5;
      }

      .cls-13 {
        fill: #a89191;
      }

      .cls-14 {
        fill: #f7a286;
      }

      .cls-15 {
        fill: #8f2722;
      }

      .cls-16 {
        fill: #fff7eb;
      }

      .cls-17 {
        fill: #e8dac5;
      }

      .cls-18 {
        fill: #a67663;
      }

      .cls-19, .cls-20, .cls-21 {
        fill: #fff;
      }

      .cls-21 {
        opacity: 0.7;
      }

      .cls-22 {
        fill: #c1c5c9;
      }
    </style>
  </defs>
  <title>1</title>
  <g>
    <g>
      <path class="cls-1" d="M15.56,30.34c-2.88,1.89-2.42,4.94-1.67,9.62H27.38c.82-4.52,1.35-8.36-1.47-9.88A11.56,11.56,0,0,0,15.56,30.34Z" transform="translate(-5.4)"/>
      <path class="cls-2" d="M21,33.49a1.62,1.62,0,0,0-1.74,1.07l1.11,1.36-1.39,4h4l-1.51-4,1.08-1.27A1.72,1.72,0,0,0,21,33.49Z" transform="translate(-5.4)"/>
      <g>
        <path class="cls-3" d="M9.25,40c0-.18.22-3.43.4-4.71.29-2,1-3.5,3.81-4.53L14.86,34c-1.58.82-1.79,6-1.79,6Z" transform="translate(-5.4)"/>
        <path class="cls-3" d="M15.57,29.78s-2.93,1.09-3.21,1.82A35.33,35.33,0,0,0,12.9,40h4A39.9,39.9,0,0,0,15.57,29.78Z" transform="translate(-5.4)"/>
        <path class="cls-2" d="M15.65,29.25a5,5,0,0,0-2.34,3.49c0,.45,3.06.71,3,.26S15.65,29.25,15.65,29.25Z" transform="translate(-5.4)"/>
        <path class="cls-2" d="M16.15,32.55c-.34-.6-1.61,2.52-1.42,3.05.11.31.91,2.44,1.51,4.36L17,40C17,36.88,16.66,33.42,16.15,32.55Z" transform="translate(-5.4)"/>
      </g>
      <g>
        <path class="cls-3" d="M32.67,40c0-.18-.21-3.43-.39-4.71-.29-2-1.05-3.5-3.82-4.53L27.07,34c1.57.82,1.78,6,1.78,6Z" transform="translate(-5.4)"/>
        <path class="cls-3" d="M26.36,29.78s2.92,1.09,3.2,1.82c.22.56.06,4.81-.54,8.36H25A39.46,39.46,0,0,1,26.36,29.78Z" transform="translate(-5.4)"/>
        <path class="cls-2" d="M26.28,29.25a5,5,0,0,1,2.34,3.49c0,.45-3.07.71-3,.26S26.28,29.25,26.28,29.25Z" transform="translate(-5.4)"/>
        <path class="cls-2" d="M25.77,32.55c.35-.6,1.61,2.52,1.42,3.05-.11.31-.9,2.44-1.5,4.36L25,40C25,36.88,25.27,33.42,25.77,32.55Z" transform="translate(-5.4)"/>
      </g>
      <path class="cls-4" d="M26,31.38c0,1.53-1.45,3.08-2.81,4.05L20.93,33.5l-2.12,2A7.15,7.15,0,0,1,15.62,32C14.9,29.68,26,30.28,26,31.38Z" transform="translate(-5.4)"/>
      <path class="cls-5" d="M20.93,33.5l2.13,1.35s4.81-2.45,3.22-5.6c-1.44-2.83-8.65-2.53-10.63,0s3,5.68,3,5.68Z" transform="translate(-5.4)"/>
      <path class="cls-6" d="M20.82,33.19c1.3,0,6.82-3.13,2.94-6.2a6.41,6.41,0,0,0-4.62-.74,3.22,3.22,0,0,0-2.41,2.94C16.61,30.88,19.09,33.15,20.82,33.19Z" transform="translate(-5.4)"/>
    </g>
    <g>
      <path class="cls-7" d="M30.81,16c.45-.61,1.1-6.82,1.77-6.05,2.54,2.93-.39,7.08.85,10.49.16.44-1.57.18-1.71.12C30,19.85,29.78,17.42,30.81,16Z" transform="translate(-5.4)"/>
      <path class="cls-7" d="M30.51,15.18c1.33-.35,2.86-.55,2-6.18C31.65,2.87,24.38-.92,18.23.25c-14.89,2.81-12.29,20-7.94,19.26S29.18,15.53,30.51,15.18Z" transform="translate(-5.4)"/>
      <path class="cls-8" d="M9.2,18.09c.22,7.83,5.6,14,12,13.85s11.42-6.68,11.2-14.52-5.59-14-12-13.86S9,10.25,9.2,18.09Z" transform="translate(-5.4)"/>
      <path class="cls-8" d="M7.74,22.14a7,7,0,0,0,2.53.31l.05-.06c.42-.51-.09-3.2-.24-3.75-.4-1.4-1.13-2.41-2.67-2.08C4.21,17.23,5.22,21.27,7.74,22.14Z" transform="translate(-5.4)"/>
      <path class="cls-9" d="M11.6,14.41a11.64,11.64,0,0,1,1.17-3.68C14,8.48,16.54,7.67,19,7.34a28.55,28.55,0,0,1,9.22.38c.69.13,3.86.61,3.19,1.85a5,5,0,0,1-3.05,2.07,24.5,24.5,0,0,1-5.48-.06c-4.68-.5-6.81,1-7.43,1.88A4.31,4.31,0,0,1,16,11.39c-.1.09-3.26,1.38-4.05,6.48C11.56,17.74,11.31,16,11.6,14.41Z" transform="translate(-5.4)"/>
      <path class="cls-7" d="M15.16,4.07C10.81,5.85,8.12,12.8,8.45,17c.2,2.39,3.49,2.55,3.48,1.2,0-4.11.67-7,6.72-8.46,4.82-1.14,10.51-.51,11.94.49s0-2.92-4.15-5.49S18.49,2.71,15.16,4.07Z" transform="translate(-5.4)"/>
      <path class="cls-9" d="M9.4,21.38C10.89,21,10,18.63,9,18.12c-.8-.43-3-.25-2.23,1.12.73-1,1.52-.15,1.23.62-.19.52-1,.4-.33,1.22A1.82,1.82,0,0,0,9.4,21.38Z" transform="translate(-5.4)"/>
      <path class="cls-7" d="M33.57,9.7c-4.35,3.24-12.24-.84-16.88,1.94a4,4,0,0,1,.52-1.75,6.61,6.61,0,0,1-2.78.95c-1.12-.18-1.67-1.48-1.95-2.39-.87-2.76-.43-5.41,2-6.84C17.92-.37,22-.33,25.82.7,32.45,2.5,35.62,8.18,33.57,9.7Z" transform="translate(-5.4)"/>
      <path class="cls-7" d="M11.86,21.38l.31,0C12.27,20,12,18.7,12,17.27c0-1-.08-1.15-.77-1.57s-1.9-.09-2.73-.58c.39.24.07,1.89.05,2.27A3.59,3.59,0,0,0,11.86,21.38Z" transform="translate(-5.4)"/>
      <path class="cls-7" d="M8.71,2.14C9.84,5.78,14.44,5,16.48,3.79c1-.55,2.16-3.63.55-3.3-2.2.44-4.58.91-6.36-.19a2,2,0,0,0,.84,2A2.73,2.73,0,0,1,8.71,2.14Z" transform="translate(-5.4)"/>
      <path class="cls-10" d="M30.8,9.34c3.64-1.14,1.56-4.28-.21-5.76C27.89,1.33,24,.64,20.49.65c-2.83,0-7.54.89-8.72,3.93-.8,2.07,1.3,3.28,3,3.76a11.56,11.56,0,0,0,3.8.31c-.32.41-.59.87-.89,1.26C21.92,9.45,26.72,10.62,30.8,9.34Z" transform="translate(-5.4)"/>
    </g>
    <g>
      <path class="cls-11" d="M17.09,19a2.2,2.2,0,0,0-1.53-.21c-1-.95.08-3.67,1.6-2.93C18.3,16.36,18.15,18.45,17.09,19Z" transform="translate(-5.4)"/>
      <path class="cls-9" d="M24.85,19.58c.29.32-.37,1.38-1.75,1.4s-2.1-1.16-1.56-1.43.86,0,1.64.05S24.5,19.22,24.85,19.58Z" transform="translate(-5.4)"/>
      <path class="cls-12" d="M24.72,19.68c.4-.35,0-1.73-1.61-1.7-1.38,0-2.08,1.19-1.39,1.73A2.87,2.87,0,0,0,24.72,19.68Z" transform="translate(-5.4)"/>
      <path class="cls-11" d="M29.46,15.39a1.79,1.79,0,0,1,.37,2.55,2,2,0,0,0-1.33.45C26.72,18,27.83,14.59,29.46,15.39Z" transform="translate(-5.4)"/>
      <path class="cls-13" d="M16.7,16.18c.56-.16.87.72.42,1C16.48,17.62,16.06,16.37,16.7,16.18Z" transform="translate(-5.4)"/>
      <path class="cls-13" d="M29.07,15.84c.53-.16.82.66.39.95C28.87,17.18,28.48,16,29.07,15.84Z" transform="translate(-5.4)"/>
      <path class="cls-7" d="M30.13,13.26c.87,0,1.14-.47.28-.86a4.54,4.54,0,0,0-1.64-.25c-.33,0-1.57-.22-1.82,0C26,13.21,29.79,13.27,30.13,13.26Z" transform="translate(-5.4)"/>
      <path class="cls-7" d="M15.13,13.72c-.87,0-1.18-.36-.36-.83a4.45,4.45,0,0,1,1.61-.41c.32,0,1.54-.37,1.81-.13C19.21,13.26,15.47,13.7,15.13,13.72Z" transform="translate(-5.4)"/>
      <g>
        <path class="cls-14" d="M29.18,21.56c-.79-.56-1.74.53-6.21.79a27.38,27.38,0,0,1-6.27-.43c.55,3.77,2.62,6.32,5.41,6.57,1.73.14,4-.25,5-1.94a6.66,6.66,0,0,0,.71-2.11,4.39,4.39,0,0,1,1.58-2.63A1,1,0,0,0,29.18,21.56Z" transform="translate(-5.4)"/>
        <path class="cls-15" d="M17.29,22.36s5,1.74,11.83-.68a4,4,0,0,0-1.48,2.51c-.27,1.34-.88,3.25-4.81,3.48C18.45,27.92,17.29,22.36,17.29,22.36Z" transform="translate(-5.4)"/>
        <path class="cls-16" d="M18.45,22.71a1.72,1.72,0,0,0,1.32,1.61,11.89,11.89,0,0,0,5.61.08c1.34-.28,2.06-2.06,2.06-2.06A30,30,0,0,1,18.45,22.71Z" transform="translate(-5.4)"/>
        <path class="cls-16" d="M19.54,26.37c-.09-.28-.06-.59.51-.35a10.76,10.76,0,0,0,3.49.52c1.52,0,1.91-.54,2.16-.24s-.91,1.68-3.31,1.45C19.65,27.48,19.54,26.37,19.54,26.37Z" transform="translate(-5.4)"/>
        <path class="cls-17" d="M18.64,23.44s6.78-.65,8.34-.27a6.77,6.77,0,0,0,.46-.83,30.09,30.09,0,0,1-9,.37A1.41,1.41,0,0,0,18.64,23.44Z" transform="translate(-5.4)"/>
        <path class="cls-17" d="M20.28,26.27a11.19,11.19,0,0,0,5,.2A7.37,7.37,0,0,1,20.28,26.27Z" transform="translate(-5.4)"/>
      </g>
    </g>
    <g>
      <path class="cls-18" d="M26,19.62a2.85,2.85,0,0,1-.69-.81,2.71,2.71,0,0,1-.1-2.18c.36-1,1.38-1,2.23-1.09.56,0,1.13,0,1.7-.06a4.1,4.1,0,0,0,1.44-.11c.59-.25.47-1.08.11-1.5s-.94-.3-1.46-.24a13.24,13.24,0,0,0-2,.35,11.69,11.69,0,0,0-2.5.68,3,3,0,0,1-1.85.56c-1.55-.06-2.86-1-4.4-1.17a12.91,12.91,0,0,0-4.84.11c-.41.12-1.66.6-.81,1a7.3,7.3,0,0,0,3,.31c.42,0,.83,0,1.25.06,1.47.13,3.73-.09,3.63,1.75a3.08,3.08,0,0,1-1.91,2.82,12.88,12.88,0,0,1-3,.33,5.23,5.23,0,0,1-2.2-.46c-.19-.09-.78-.46-1-.19-.33.45.88,1.2,1.19,1.34a7.26,7.26,0,0,0,2.26.49c1.91.2,3.89.08,5-1.7.62-1,.93-2.24,1.51-3.3.94-1.73,1.34.63,1.61,1.66a5.26,5.26,0,0,0,.7,1.63,3.66,3.66,0,0,0,2.7,1.43A11.7,11.7,0,0,0,30.6,21c.35-.15.53-.72.12-.89a21.38,21.38,0,0,0-2.22.22,7.09,7.09,0,0,1-1.13-.11A3.29,3.29,0,0,1,26,19.62Z" transform="translate(-5.4)"/>
      <path class="cls-2" d="M9.37,14.12c.28-.27,1.38,0,2.65-.12,1.77-.17,10.79-1.35,10.3,2.54a5.31,5.31,0,0,1-2.45,4.18c-1.32.78-5.73.72-7.16-.39-1.7-1.34-1.8-3.62-1.94-4.49a2.16,2.16,0,0,1-1-.27S9,14.48,9.37,14.12Zm3.42,5.22c1.2,1.3,5.51,1.53,7.1.34,1.22-.91,1.93-3.56,1.22-4-1.46-1-7.5-1-9,.12C11.57,16.11,11.87,18.33,12.79,19.34Z" transform="translate(-5.4)"/>
      <path class="cls-2" d="M34.62,15a1.82,1.82,0,0,1-.87.31c-.09.88-.11,3.17-1.54,4.58-1.19,1.17-5,1.44-6.16.73a5.41,5.41,0,0,1-2.24-4.07c-.53-3.85,7.27-3.1,8.81-3,1.09.07,2-.27,2.29,0S34.62,15,34.62,15Zm-2,.3c-1.35-1-6.56-.74-7.79.3-.6.51.09,3.13,1.17,4,1.41,1.11,5.12.68,6.11-.68C32.88,17.88,33.07,15.66,32.62,15.33Z" transform="translate(-5.4)"/>
      <path class="cls-19" d="M25.86,15.35c1-.37,5.84-.54,6.37,0s-1,.94-1.69,1a10.89,10.89,0,0,1-3.7-.07C26.51,16.25,25,15.69,25.86,15.35Z" transform="translate(-5.4)"/>
      <path class="cls-20" d="M29.68,15.34c1-.1,2.69.13,2.49.44s-2.93.41-3.15,0C28.9,15.52,29.21,15.4,29.68,15.34Z" transform="translate(-5.4)"/>
      <path class="cls-21" d="M26.66,18.63c.62,0,1.64.44,1.49.66s-1.84,0-1.94-.42C26.17,18.67,26.37,18.61,26.66,18.63Z" transform="translate(-5.4)"/>
      <path class="cls-21" d="M13.76,19c.68.07,1.79.5,1.61.72s-2-.11-2.12-.5C13.21,19,13.43,18.92,13.76,19Z" transform="translate(-5.4)"/>
      <path class="cls-19" d="M13.1,15.61c.55-.53,6.18-.48,7.33-.15s-.64.87-1,.94a15.31,15.31,0,0,1-4.25.15C14.41,16.48,12.71,16,13.1,15.61Z" transform="translate(-5.4)"/>
      <path class="cls-20" d="M18,15.3c1.1-.11,3,.12,2.76.43s-3.24.41-3.49,0C17.11,15.47,17.46,15.35,18,15.3Z" transform="translate(-5.4)"/>
      <path class="cls-2" d="M21,14.38a6.93,6.93,0,0,0,4-.06c1.18-.36,0,.62-.26.88s-.32,3.09-.83,2-1.3-1-1.72.14-.25-.91-.4-1.56S19.71,14,21,14.38Z" transform="translate(-5.4)"/>
      <path class="cls-22" d="M20.9,14.88c-1.42-1-3.75-1.12-8.27-.54C16.05,14.29,18.79,14.21,20.9,14.88Z" transform="translate(-5.4)"/>
      <path class="cls-22" d="M25.36,14.69c1.13-1,3-.92,7-.84C29.35,14.12,27.13,13.93,25.36,14.69Z" transform="translate(-5.4)"/>
    </g>
  </g>
</svg>
