<svg id="레이어_1" data-name="레이어 1" xmlns="http://www.w3.org/2000/svg" xmlns:xlink="http://www.w3.org/1999/xlink" viewBox="0 0 31.91 39.96">
  <defs>
    <style>
      .cls-1 {
        fill: #ffc38f;
      }

      .cls-2 {
        fill: #f0f0f0;
      }

      .cls-3 {
        fill: #3a3a4a;
      }

      .cls-4 {
        opacity: 0.1;
      }

      .cls-5 {
        fill: #fbfbfb;
      }

      .cls-6 {
        fill: url(#linear-gradient);
      }

      .cls-7 {
        fill: #c93712;
      }

      .cls-8 {
        fill: #fff9f0;
      }

      .cls-9 {
        fill: #d15426;
        opacity: 0.3;
      }

      .cls-10 {
        fill: #bf3c1b;
        opacity: 0.2;
      }

      .cls-11 {
        fill: #e85216;
      }

      .cls-12 {
        fill: #ff7752;
      }

      .cls-13 {
        fill: #1c5c57;
      }

      .cls-14 {
        fill: #6cd9d2;
        opacity: 0.7;
      }

      .cls-15 {
        fill: #121b21;
      }

      .cls-16 {
        fill: #f04d4d;
      }
    </style>
    <linearGradient id="linear-gradient" x1="21.03" y1="29.28" x2="21.03" y2="32.61" gradientUnits="userSpaceOnUse">
      <stop offset="0" stop-color="#ee996d"/>
      <stop offset="0.02" stop-color="#ee9a6e"/>
      <stop offset="0.37" stop-color="#f8b181"/>
      <stop offset="0.71" stop-color="#fdbf8d"/>
      <stop offset="1" stop-color="#ffc491"/>
    </linearGradient>
  </defs>
  <title>1</title>
  <g>
    <g>
      <path class="cls-1" d="M16,33.16l-1.13-1.8a7.16,7.16,0,0,0-3.12,6.48,8.29,8.29,0,0,0,.4,2.12h2.27a5.9,5.9,0,0,1-.55-2.23A5,5,0,0,1,16,33.16Z" transform="translate(-3.94 0)"/>
      <path class="cls-1" d="M27,31.36l-1.13,1.8A5,5,0,0,1,28,37.73,5.91,5.91,0,0,1,27.44,40h2.28a8.29,8.29,0,0,0,.4-2.12A7.18,7.18,0,0,0,27,31.36Z" transform="translate(-3.94 0)"/>
      <path class="cls-2" d="M25,30.12a9,9,0,0,0-8.31.22c-2.62,1.78-1.8,4.8-1.1,9.62H25.94C26.71,35.53,27.62,31.57,25,30.12Z" transform="translate(-3.94 0)"/>
      <path class="cls-3" d="M21.35,35.09,22.43,34a1.6,1.6,0,0,0-1.51-1,1.61,1.61,0,0,0-1.73.91l1.09,1.13-1.37,3.36L20.08,40H21.5l1.34-1.58Z" transform="translate(-3.94 0)"/>
      <path class="cls-3" d="M17,29.85s-2.63,1-2.85,1.62.69,5,1.17,8.49h2.56A35.84,35.84,0,0,0,17,29.85Z" transform="translate(-3.94 0)"/>
      <path class="cls-3" d="M27.37,31.47c-.22-.63-2.86-1.59-2.86-1.59A35.82,35.82,0,0,0,23.71,40h2.67C26.47,35.33,27.53,31.92,27.37,31.47Z" transform="translate(-3.94 0)"/>
      <path class="cls-4" d="M17.2,31.79a5.77,5.77,0,0,0,2.29,3.09l1.26-1.58,1.66,1.57a4.84,4.84,0,0,0,2.24-3.59C24.67,30.33,16.68,29.81,17.2,31.79Z" transform="translate(-3.94 0)"/>
      <path class="cls-5" d="M17.22,29.44c-1.41,2.17,2.15,4.92,2.15,4.92l1.39-1.25,1.58,1.3s3.23-2,2.08-4.75C23.39,27.21,18.64,27.25,17.22,29.44Z" transform="translate(-3.94 0)"/>
      <path class="cls-6" d="M19.91,26.85a2.71,2.71,0,0,0-1.52,2.54c-.08,1.46,1.49,3.42,2.58,3.46.82,0,4.29-2.71,1.85-5.36A3.07,3.07,0,0,0,19.91,26.85Z" transform="translate(-3.94 0)"/>
    </g>
    <g>
      <path class="cls-7" d="M33.45,14.87c1.67-.45,3.55-4.1.72-3.9.76,1.16-1.05,1.69-1.64.81a.41.41,0,0,1-.1-.21c-.1-1.44-1.57-2.43-2.69-3.32a15.39,15.39,0,0,0-5.88-2.84c-3.68-.85-8.09-.64-11,1.81-1.18,1-2.21,3.05-3.85,3.44-2,.48-3.12,2.53-1.53,3.82a1.16,1.16,0,0,1-1.76-.87c-1.73,1.2-2.38,3.54,0,4.6-2.8,1.46-2.1,4.41.89,5.7-1.4,1.31-.68,3.53.73,4.41-.11-.92.75-3,2.34-1.94,1,.65.46,2.39-.87,1.52-.35,1.57,2.29,2.54,3.06,1.24-.09,1.17.72,1.63,1.8,1.56,1.62-.1,2.18-1.19,3.27-1.52a16.35,16.35,0,0,1,4.41-.48c2.68-.05,5,2.61,7.65,1.46A2,2,0,0,0,30.41,28c-.73.52-2.63-.23-1.08-1.45.78-.61,1.93-.05,2.72-.51s.55-2.51.62-2.55c.67-.42,1.77-.45,1.84.72,1.38-2.73.07-3.48-1.41-3.69C36.37,20,37,15.51,33.45,14.87Z" transform="translate(-3.94 0)"/>
      <path class="cls-8" d="M30.7,22.58a.94.94,0,0,0-.91,1,.9.9,0,0,0,.93.9,1,1,0,0,0,.92-1A.92.92,0,0,0,30.7,22.58Z" transform="translate(-3.94 0)"/>
      <path class="cls-1" d="M20.26,5.11c-5.44.5-9.66,5.15-9.33,12.51s5.65,13.22,11.4,12.58c4.77-.53,8.84-6.51,7.94-14.56C29.46,8.42,25.7,4.61,20.26,5.11Z" transform="translate(-3.94 0)"/>
      <path class="cls-1" d="M9.53,16.46c-2.37,1.08-1.27,5.17.71,5.77a3.86,3.86,0,0,0,1.94,0l0-.08c.27-.58-.34-3.32-.5-3.87C11.3,16.89,10.66,15.93,9.53,16.46Z" transform="translate(-3.94 0)"/>
      <path class="cls-9" d="M10.88,17.88c-.64-.34-2.29.11-1.6,1.45.47-1.18,1.15-.35,1,.49-.1.57-.71.54-.14,1.31.3.41,1,.31,1.31.11C12.52,20.63,11.65,18.3,10.88,17.88Z" transform="translate(-3.94 0)"/>
      <path class="cls-10" d="M18.24,8a15.23,15.23,0,0,0-4.15,1.38c-1.93,1-2.06,2-3,3.86-.47.94-1.62,1.88-.52,2.87a1.48,1.48,0,0,0-.76.7,2.59,2.59,0,0,0-.19,1.95c.22.72.83,1,.51,1.89a2.17,2.17,0,0,0-.06,1.64c.67,1.62,4.22,2.08,4.3-.16,0-.19,0-.59-.17-.72s-.54.05-.75.05a.86.86,0,0,1-.88-.64c-.1-.49.32-.73.64-1a1.44,1.44,0,0,0,.64-1.08c0-.69-.48-.78-.89-1.13-.69-.59-.48-.48-.11-1.1s.75-1.78-.18-2.37a1,1,0,0,0,1-.73c.8.42,1.73-.42,2-1.14-.08.22.88-.2.94-.24a2.72,2.72,0,0,0,.71-1.14c.07,1,1.11,1.68,1.91.89.52,1.25,1.57,1.21,2.72.93.4,1.43-.81.84-1.21,1.55C20,15.44,22.46,16,23.12,15.72a1.89,1.89,0,0,0,1.14-1.89c.1.93,1.43.5,1.9.15a1.36,1.36,0,0,0,2.43.69c.17,2.15,3,2.12,2.41-.39C29.71,8.48,23.57,7,18.24,8Z" transform="translate(-3.94 0)"/>
      <path class="cls-7" d="M31.7,5.63c1.19-2.5-3.73-4.42-5.6-3.06-.29-3.09-4.16-3.27-6-1.08A3.72,3.72,0,0,0,17.63.06a3.12,3.12,0,0,0-2.92.85c1,0,2.78,2-.33,1.7C13.09,2.49,12.33,2,11,2.69c-1,.57-1.75,1.56-.76,2.53,0,0-2.31-.13-2.66,2C7.48,8,7.83,8.24,7,8.88a2,2,0,0,1-1.92.46,3.43,3.43,0,0,0,1.17,2.2,2.34,2.34,0,0,0,2.54.07c-.08.53,1.48,5,2.17,4.54-1.13.78-1.62,2.36-.5,3.09a2.22,2.22,0,0,0,.66.27c-1.34,1.25-.9,2.71-.26,3.15a3.13,3.13,0,0,0,2.79.25,1.12,1.12,0,0,0,.71-1.15c-.61.11-1.2.31-1.7-.2-1.4-1.4,1.48-2.58.1-3.69-.31-.25-.83-.27-.86-.75s.52-.64.72-.93c.71-1-.39-2.19-1.3-2.56.58,0,2.23.25,2-.86.91.8,2.25-.33,1.88-1.41.17.49,1.05.33,1.34.13.54-.37.49-1.09.77-1.63a1.86,1.86,0,0,0,.79,1.48A1,1,0,0,0,19.61,11c.34,1.2,1.52,2.18,2.57,1a1.57,1.57,0,0,1,0,1.57c-.51.67-1.17,0-1.59.28s.43,1.25.79,1.36a2.08,2.08,0,0,0,2.1-.72,2.69,2.69,0,0,0,.29-1.58c.58.94,1.55,1.57,2.52.59.7.89,1.39,1.31,2.4.43.48.8.4,1.89,1.55,2.05,1.34.2,1.27-1.36,1-2.27-.31-1.13-.72-3.34.58-4.34.81-.61,2-.22,1.63.85a2.13,2.13,0,0,0,.79-2.94A3.41,3.41,0,0,0,31.7,5.63Z" transform="translate(-3.94 0)"/>
      <path class="cls-8" d="M11.1,22.92a.88.88,0,0,0-.85.88.84.84,0,0,0,.87.83.87.87,0,0,0,.84-.88A.83.83,0,0,0,11.1,22.92Z" transform="translate(-3.94 0)"/>
      <path class="cls-11" d="M17.44,4.57v0S17.44,4.53,17.44,4.57Z" transform="translate(-3.94 0)"/>
      <path class="cls-11" d="M31.18,11.7A8.07,8.07,0,0,0,31,10c-.19-.87-.69-1.1-1.5-1.07A2.43,2.43,0,0,1,33.4,8.5c.43-1.56-1.46-2.94-3-2.54.32-.91.58-2-.31-2.72A3.23,3.23,0,0,0,26.62,3c-.84.52-1.77,1.53-3,.79.71.44,2.41-2,.4-2.85-1.26-.55-2.34.16-3.19,1a2.78,2.78,0,0,0-.68.89C19.32,1.23,18,.24,15.94.73c1.57,0,2.23,2.49.81,3.18-.82.4-1.58-.47-2.25-.77a3.66,3.66,0,0,0-2.24-.21,2.85,2.85,0,0,0-1.69,1.36c1.12-.14,1.76,2.08,4.22,1.38a2.79,2.79,0,0,1-3.09.51A2.38,2.38,0,0,0,9.54,6c-1,.57-.78,2-1.3,2.94s-.9.92-1.75,1.16A3.16,3.16,0,0,0,9,10.67c-.74.07-1.18,1.13-1.24,1.7-.08.75.56,1.34.45,2s-.89,1-1.43,1a1.31,1.31,0,0,0,1.45.24c.63-.21.77-1,1.29-1.16C10.23,14.29,11,15.49,11,16c1.07-.52-.2-2.18-.82-2.66.7,0,2.63-.08,2.5-1.07.08.59,1.36,0,1.52-.32a1.17,1.17,0,0,0-.33-1.44c.39.06,1.13.44,1.44.07s0-1-.22-1.34c3.21,1.25,2.3-2.09.32-2,1.5-.12,1.89-.35,2.07-2.65v0s0,0,0,0v0c.11,1.34-.24,2.68,2,2.46-3.25,1.16-2,3.8,1.28,3-.5.12-.53,1.05.21,1.59a1.58,1.58,0,0,0,1.61-.1c.57.89.75,1.67.06,2.46.78,0,1.08-1.12,1.19-1.69.59.36,1.12.9,1.86.61.55-.22.85-.82,1.21-1.25,0,1,.37,1.71,1,1.84a1.79,1.79,0,0,0,1.79-.63,2.58,2.58,0,0,0,.76,2,1.76,1.76,0,0,0,2.19.36.85.85,0,0,1-.8-.49c1.37-.13,2.44-.86,2.32-2.27C33.15,12.91,31.24,13.14,31.18,11.7Z" transform="translate(-3.94 0)"/>
      <path class="cls-7" d="M25.25,9.79c.61,2.19,2.49,2.78,3.61,1C27.69,11.83,25.78,10.94,25.25,9.79Z" transform="translate(-3.94 0)"/>
      <path class="cls-7" d="M10.77,12.25c1.32,1.12,2.9.05,2.23-1.57A1.92,1.92,0,0,1,10.77,12.25Z" transform="translate(-3.94 0)"/>
      <path class="cls-7" d="M29,11.57c-.8,1.5.68,2.69,2.16,1.67C30,13.37,28.86,12.4,29,11.57Z" transform="translate(-3.94 0)"/>
      <path class="cls-7" d="M27.15,8.09a3,3,0,0,0,3.73.82l-.06-1A4.65,4.65,0,0,1,27.15,8.09Z" transform="translate(-3.94 0)"/>
      <path class="cls-7" d="M27.85,5.16a2.3,2.3,0,0,0,2.85.75l.17-1.14A2.89,2.89,0,0,1,27.85,5.16Z" transform="translate(-3.94 0)"/>
      <path class="cls-7" d="M7.56,10.72l.3,1a2.94,2.94,0,0,0,3.18-2A4.52,4.52,0,0,1,7.56,10.72Z" transform="translate(-3.94 0)"/>
      <path class="cls-11" d="M5.46,15l0-.65c-.67.75-1.16,1.59-.67,2.51.33.6,1.23,1.24,2,.73.29-.21.38-.76.45-1.07,0,0,0,0,0,0C6.22,16.56,5.26,15.86,5.46,15Z" transform="translate(-3.94 0)"/>
      <path class="cls-11" d="M6.43,18.51l-.54.32c-1.3,0-2,2.19-1.4,3.12A2.68,2.68,0,0,0,6.22,23a3.25,3.25,0,0,1-.68-2.47C5.73,19.84,6.41,19.3,6.43,18.51Z" transform="translate(-3.94 0)"/>
      <path class="cls-11" d="M34.4,16a3.14,3.14,0,0,0-1.16-.48v.22c1.15,1.49.94,2.62.29,4.14,0,0,0,.05.06,0C35.2,19.22,36,17,34.4,16Z" transform="translate(-3.94 0)"/>
      <path class="cls-11" d="M33.59,21.21l-.54-.15c-.24,1.27,1.35,1,1.54,1.91C34.87,22.19,34.73,21.15,33.59,21.21Z" transform="translate(-3.94 0)"/>
      <path class="cls-11" d="M6.66,24.66a2,2,0,0,0,.13,2.69c0-.41.29-.73.29-1.14s-.27-.69-.22-1.12Z" transform="translate(-3.94 0)"/>
    </g>
    <g>
      <path class="cls-12" d="M29.57,20.46a1.78,1.78,0,0,0-1.49-.71c-.67-.05-1.58.15-1.1,1.18.26.55,2.88,1.11,2.7-.13A1.13,1.13,0,0,0,29.57,20.46Z" transform="translate(-3.94 0)"/>
      <path class="cls-12" d="M17.31,20.26a1.86,1.86,0,0,0-1.77-.47c-.74.1-1.71.54-1,1.62.38.58,3.35.62,2.94-.78A1.15,1.15,0,0,0,17.31,20.26Z" transform="translate(-3.94 0)"/>
      <path class="cls-7" d="M25.8,15.05c1.46.13,2.67-.3,4.85-.12C29.85,13.93,26.89,13.9,25.8,15.05Z" transform="translate(-3.94 0)"/>
      <path class="cls-9" d="M22.57,20.93c-.49,0-.69-.21-1,0s.41.87,1,.82,1.26-.63,1.08-.83S23.12,20.92,22.57,20.93Z" transform="translate(-3.94 0)"/>
      <path class="cls-7" d="M12.83,14.73c2.73.07,3.65.19,5.54.14C17.38,13.59,14,13.67,12.83,14.73Z" transform="translate(-3.94 0)"/>
      <path class="cls-13" d="M16,16.13c-1.43-.54-2.17,2.11-1.16,2.9a1.91,1.91,0,0,1,1.39,0C17.18,18.5,17.11,16.53,16,16.13Z" transform="translate(-3.94 0)"/>
      <path class="cls-14" d="M16.27,17c-.6.09-.38,1.31.24,1C17,17.79,16.8,16.93,16.27,17Z" transform="translate(-3.94 0)"/>
      <path class="cls-13" d="M28.68,16.16c-1.44-.93-2.71,2.46-1.11,2.95a1.73,1.73,0,0,1,1.27-.21C29.39,18.18,29.45,16.65,28.68,16.16Z" transform="translate(-3.94 0)"/>
      <path class="cls-14" d="M28.59,16.88c-.57,0-.48,1.28.13,1.05C29.16,17.76,29.1,16.87,28.59,16.88Z" transform="translate(-3.94 0)"/>
      <path class="cls-15" d="M28.72,16.08C27.4,15.57,27,17.15,27,17.15a1.21,1.21,0,0,1,1.54-.29,2.73,2.73,0,0,0,3.36-.25C30.24,17.16,29.42,16.36,28.72,16.08Z" transform="translate(-3.94 0)"/>
      <path class="cls-15" d="M15.08,16.2a4.23,4.23,0,0,1-3.38.6,3,3,0,0,0,3.52.13,1.36,1.36,0,0,1,1.6.12S16.46,15.5,15.08,16.2Z" transform="translate(-3.94 0)"/>
      <g>
        <path class="cls-16" d="M15.26,22.55c.73,1.39,2.51.72,1.76-.7A1.33,1.33,0,0,1,15.26,22.55Z" transform="translate(-3.94 0)"/>
        <path class="cls-16" d="M27,21.61a1,1,0,1,0,1.91.54A1.48,1.48,0,0,1,27,21.61Z" transform="translate(-3.94 0)"/>
        <path class="cls-16" d="M27.83,22.36a.42.42,0,0,0-.53.22A5.37,5.37,0,0,1,22,25.84,5.48,5.48,0,0,1,17,23a.46.46,0,0,0-.55-.22.34.34,0,0,0-.23.48,6.38,6.38,0,0,0,5.64,3.38h.22a6.13,6.13,0,0,0,6-3.75A.39.39,0,0,0,27.83,22.36Z" transform="translate(-3.94 0)"/>
      </g>
    </g>
  </g>
</svg>
