<svg id="레이어_1" data-name="레이어 1" xmlns="http://www.w3.org/2000/svg" viewBox="0 0 40 40">
  <title>1</title>
  <path d="M20,40A20,20,0,1,1,40,20,20,20,0,0,1,20,40ZM20,3.66A16.34,16.34,0,1,0,36.34,20,16.36,16.36,0,0,0,20,3.66Z"/>
  <path d="M12.84,15.47h-.67V10H8.91v15.9H16.1V9.93H12.84Zm-.67,7.28V18.56h.72v4.19Z"/>
  <polygon points="28.51 16.56 28.51 8.27 24.83 8.27 24.83 32.04 28.51 32.04 28.51 19.92 31.59 19.92 31.59 16.56 28.51 16.56"/>
  <path d="M20.87,15.5h-.74V10H16.87v16h7.26v-16H20.87Zm-.81,7.27V18.58h.81v4.19Z"/>
</svg>
