<svg xmlns="http://www.w3.org/2000/svg" xmlns:xlink="http://www.w3.org/1999/xlink" viewBox="0 0 40 40">
  <defs>
    <style>
      .cls-1 {
        isolation: isolate;
      }

      .cls-2 {
        fill: url(#linear-gradient);
      }

      .cls-3, .cls-4 {
        opacity: 0.25;
      }

      .cls-3, .cls-5, .cls-8, .cls-9 {
        mix-blend-mode: multiply;
      }

      .cls-3 {
        fill: url(#radial-gradient);
      }

      .cls-4 {
        fill: #fff;
      }

      .cls-5 {
        opacity: 0.35;
        fill: url(#linear-gradient-2);
      }

      .cls-6 {
        fill: #5d4037;
      }

      .cls-7 {
        fill: #4e342e;
      }

      .cls-8, .cls-9 {
        opacity: 0.5;
      }

      .cls-8 {
        fill: url(#linear-gradient-3);
      }

      .cls-9 {
        fill: url(#linear-gradient-4);
      }
    </style>
    <linearGradient id="linear-gradient" x1="20" y1="-0.67" x2="20" y2="40.75" gradientUnits="userSpaceOnUse">
      <stop offset="0" stop-color="#ffe082"/>
      <stop offset="1" stop-color="#ffbf66"/>
    </linearGradient>
    <radialGradient id="radial-gradient" cx="20" cy="20" r="20" gradientUnits="userSpaceOnUse">
      <stop offset="0.8" stop-color="#fff"/>
      <stop offset="1" stop-color="#ffbf66"/>
    </radialGradient>
    <linearGradient id="linear-gradient-2" x1="20" y1="17.63" x2="20" y2="40.41" xlink:href="#linear-gradient"/>
    <linearGradient id="linear-gradient-3" x1="22.78" y1="6.66" x2="31.53" y2="6.66" xlink:href="#linear-gradient"/>
    <linearGradient id="linear-gradient-4" x1="408.59" y1="6.66" x2="417.34" y2="6.66" gradientTransform="matrix(-1, 0, 0, 1, 425.81, 0)" xlink:href="#linear-gradient"/>
  </defs>
  <title>1</title>
  <g class="cls-1">
    <g id="레이어_1" data-name="레이어 1">
      <g>
        <g>
          <circle class="cls-2" cx="20" cy="20" r="20"/>
          <circle class="cls-3" cx="20" cy="20" r="20"/>
          <path class="cls-4" d="M36.5,15.12c0,7.43-7.39,0-16.5,0s-16.5,7.43-16.5,0S10.89,1.67,20,1.67,36.5,7.69,36.5,15.12Z"/>
          <path class="cls-5" d="M20,36A20,20,0,0,1,.1,18,18.86,18.86,0,0,0,0,20a20,20,0,0,0,40,0,18.86,18.86,0,0,0-.1-2A20,20,0,0,1,20,36Z"/>
        </g>
        <g>
          <path class="cls-4" d="M13.89,32.78c-.7,0-1.17-.62-1.26-1.66-.07-1.42,1.26-2.82,1.66-3.22a8.06,8.06,0,0,1,5.54-2.19,9.72,9.72,0,0,1,2.73.41,7.11,7.11,0,0,1,3.57,2.29,4.62,4.62,0,0,1,1.23,3.09,1.19,1.19,0,0,1-1.24,1.18,4.31,4.31,0,0,1-1.78-.62L24,31.89a12.57,12.57,0,0,0-4-.67h-.23a12,12,0,0,0-3.19.45c-.34.12-.68.29-1,.46s-.61.31-.94.44A1.26,1.26,0,0,1,13.89,32.78Z"/>
          <path class="cls-6" d="M13.29,31.06a4.24,4.24,0,0,1,1.47-2.68A7.24,7.24,0,0,1,18,26.6a8.2,8.2,0,0,1,4.34.16,6.43,6.43,0,0,1,3.24,2.06,4.16,4.16,0,0,1,1.09,2.61c-.13,1.31-1.93.05-2.47-.16a13.29,13.29,0,0,0-4.33-.72H20a13.11,13.11,0,0,0-3.64.5c-.73.25-1.38.67-2.08.93C13.54,32.47,13.33,31.54,13.29,31.06Z"/>
          <path class="cls-7" d="M14.76,29.71A7.34,7.34,0,0,1,18,27.93a8.2,8.2,0,0,1,4.34.16,6.51,6.51,0,0,1,3.24,2.07,5.83,5.83,0,0,1,1,1.66.78.78,0,0,0,.13-.39,4.16,4.16,0,0,0-1.09-2.61,6.43,6.43,0,0,0-3.24-2.06A8.2,8.2,0,0,0,18,26.6a7.24,7.24,0,0,0-3.27,1.78,4.24,4.24,0,0,0-1.47,2.68,2.34,2.34,0,0,0,.13.59A5.38,5.38,0,0,1,14.76,29.71Z"/>
        </g>
        <g>
          <g>
            <path class="cls-8" d="M24.36,4.53c2.67.72,5.74,1.72,7.17,4.3C29.94,7.31,27.59,6.94,25.46,7c-.77,0-2,.27-2.48-.51a1.28,1.28,0,0,1,1.38-1.91C27,5.24,23.42,4.27,24.36,4.53Z"/>
            <path class="cls-6" d="M24.36,3.86c2.67.72,5.74,1.73,7.17,4.3-1.59-1.51-3.94-1.89-6.07-1.88-.77,0-2,.28-2.48-.51a1.28,1.28,0,0,1,1.38-1.91C27,4.57,23.42,3.6,24.36,3.86Z"/>
          </g>
          <g>
            <path class="cls-9" d="M15.64,4.53C13,5.25,9.9,6.25,8.47,8.83,10.06,7.31,12.41,6.94,14.54,7c.77,0,2,.27,2.48-.51a1.28,1.28,0,0,0-1.38-1.91C13,5.24,16.58,4.27,15.64,4.53Z"/>
            <path class="cls-6" d="M15.64,3.86C13,4.58,9.9,5.59,8.47,8.16c1.59-1.51,3.94-1.89,6.07-1.88.77,0,2,.28,2.48-.51a1.28,1.28,0,0,0-1.38-1.91C13,4.57,16.58,3.6,15.64,3.86Z"/>
          </g>
        </g>
        <g>
          <path class="cls-4" d="M15.31,19.68a4.67,4.67,0,0,0,1.43-6.44c-.46-.73-.5-.76-.61-.84a1.53,1.53,0,0,0-1.72-.1,1.63,1.63,0,0,0-.69,1.06,3.35,3.35,0,0,1-1.27,1.82,3.23,3.23,0,0,1-2.19.37A1.66,1.66,0,0,0,9,15.73a1.54,1.54,0,0,0-.64,1.6c0,.13,0,.18.5.91A4.67,4.67,0,0,0,15.31,19.68Z"/>
          <path class="cls-6" d="M15,19.12a4.11,4.11,0,0,0,1-5.86.84.84,0,0,0-1.6.25,3.73,3.73,0,0,1-1.57,2.23,3.72,3.72,0,0,1-2.65.47c-.77-.15-1.44.5-1,1.23C10.37,19.46,12.8,20.48,15,19.12Z"/>
          <path class="cls-7" d="M10.82,17.41a3.73,3.73,0,0,0,2.65-.47A3.75,3.75,0,0,0,15,14.71a.82.82,0,0,1,1.44-.45,5.19,5.19,0,0,0-.5-1,.84.84,0,0,0-1.6.25,3.73,3.73,0,0,1-1.57,2.23,3.72,3.72,0,0,1-2.65.47c-.77-.15-1.44.5-1,1.23a5.69,5.69,0,0,0,.53.73A.9.9,0,0,1,10.82,17.41Z"/>
        </g>
        <g>
          <path class="cls-4" d="M31.13,18.24c.47-.73.48-.78.5-.91a1.54,1.54,0,0,0-.64-1.6,1.66,1.66,0,0,0-1.25-.18,3.23,3.23,0,0,1-2.19-.37,3.35,3.35,0,0,1-1.27-1.82,1.63,1.63,0,0,0-.69-1.06,1.53,1.53,0,0,0-1.72.1c-.11.08-.15.11-.61.84a4.66,4.66,0,1,0,7.87,5Z"/>
          <path class="cls-6" d="M30.85,17.44c.44-.73-.23-1.38-1-1.23a3.56,3.56,0,0,1-4.22-2.7.84.84,0,0,0-1.6-.25,4.11,4.11,0,0,0,1,5.86C27.2,20.48,29.63,19.46,30.85,17.44Z"/>
          <path class="cls-7" d="M29.18,17.41A3.54,3.54,0,0,1,25,14.71a.82.82,0,0,0-1.44-.45,5.19,5.19,0,0,1,.5-1,.84.84,0,0,1,1.6.25,3.56,3.56,0,0,0,4.22,2.7c.77-.15,1.44.5,1,1.23a5.69,5.69,0,0,1-.53.73A.9.9,0,0,0,29.18,17.41Z"/>
        </g>
      </g>
    </g>
  </g>
</svg>
