<svg id="레이어_1" data-name="레이어 1" xmlns="http://www.w3.org/2000/svg" viewBox="0 0 40 39.37">
  <defs>
    <style>
      .cls-1, .cls-3 {
        fill: #518c21;
      }

      .cls-2 {
        fill: #aedff4;
      }

      .cls-2, .cls-3, .cls-4 {
        fill-rule: evenodd;
      }
    </style>
  </defs>
  <title>1</title>
  <g>
    <ellipse class="cls-1" cx="20.13" cy="19.74" rx="19.52" ry="19.17"/>
    <polygon class="cls-2" points="22.92 0.77 23.64 4.3 23.28 7.07 22.48 8.59 21.39 8.69 20.59 7.65 19.51 7.07 18.42 7.65 17.47 10.29 17.11 12.34 15.59 12.85 14.19 12.34 13.14 12.53 11.58 14.18 7.31 14.69 4.2 15.79 3.31 17.71 4.17 19.66 7.83 19.66 9.31 20.36 10.43 22.85 10.79 24.79 12.76 26.77 10.16 29.72 9.22 30.93 7.38 33.81 14.19 38.01 21.66 38.36 24.66 37.78 24.66 36.19 26.17 33.36 26.22 31.6 24.33 29.92 20.98 28.64 19.54 28.59 18.42 26.77 20.05 24.12 21.97 23.02 26.36 22.27 33.25 19.99 33.05 19.07 29.56 18.99 27.13 19.55 25.88 18.12 23.28 19.99 20.91 20.36 20.29 19.07 20.13 17.71 22.02 16.78 23.17 16.38 23.28 13.83 25.19 12.6 26.36 9.89 28.54 9 32.6 8.8 35.71 8.2 30.58 4.04 25.77 1.96 22.92 0.77"/>
    <path class="cls-3" d="M10.8,3.7c-3.24,3.55-6.73,7-9.62,10.87-.41.56.29,1.29.81.77C5.37,11.91,8.37,8.05,11.6,4.48,12.08,3.94,11.28,3.18,10.8,3.7Z" transform="translate(0 -0.34)"/>
    <path class="cls-3" d="M3.18,18.93a1.47,1.47,0,0,1-.52-1.21C2.06,18.46,1.47,19.2.89,20c-.44.57.31,1.32.82.78S2.78,19.59,3.3,19Z" transform="translate(0 -0.34)"/>
    <path class="cls-3" d="M16.24,2.1c-4,4.59-8.15,9.1-12.07,13.78l.16-.05a1.57,1.57,0,0,1,1.53.3C9.65,11.76,13.26,7.2,17,2.8,17.4,2.3,16.67,1.6,16.24,2.1Z" transform="translate(0 -0.34)"/>
    <path class="cls-3" d="M5.81,20.25a1.63,1.63,0,0,1-.75-.17Q3.25,22.3,1.48,24.55c-.63.81.51,1.92,1.17,1.11L7.11,20.2C6.67,20.24,6.24,20.25,5.81,20.25Z" transform="translate(0 -0.34)"/>
    <path class="cls-3" d="M21.48,1.13c-4.15,4.58-8.26,9.21-12.26,13.93h.13l1.44-.28a1.38,1.38,0,0,1,.74.07C15.1,10.52,18.72,6.24,22.43,2,23,1.4,22.05.5,21.48,1.13Z" transform="translate(0 -0.34)"/>
    <path class="cls-3" d="M10.27,22.63a9.86,9.86,0,0,0-.41-1.84A49.74,49.74,0,0,0,3.91,29a.65.65,0,0,0,1,.76,42.53,42.53,0,0,0,5.48-6.57A1.36,1.36,0,0,1,10.27,22.63Z" transform="translate(0 -0.34)"/>
    <path class="cls-3" d="M22.7,4.54,20.29,7.63a1.63,1.63,0,0,1,1.1.75l2.23-3C24.11,4.77,23.21,3.89,22.7,4.54Z" transform="translate(0 -0.34)"/>
    <path class="cls-3" d="M11.06,26.19C10.21,27.58,9.34,29,8.42,30.3c-.62.93-2,2.16-2,3.3-.05.71.94.84,1.27.31l0,0s0,0,0,0a25.36,25.36,0,0,1,2.17-3.3c.78-1.23,1.53-2.48,2.25-3.74C12.53,26.09,11.47,25.52,11.06,26.19Z" transform="translate(0 -0.34)"/>
    <path class="cls-3" d="M28,9.34l-4.34,5.8A25.55,25.55,0,0,0,20.32,20c-.35.82.8,1.52,1.25.69C23.6,17,26.49,13.52,29,10,29.36,9.49,28.43,8.8,28,9.34Z" transform="translate(0 -0.34)"/>
    <path class="cls-3" d="M32.1,9.19c-2.12,2.93-4.69,6-6.22,9.27-.29.6.52,1.32,1,.73,2.35-2.88,4.14-6.35,6.26-9.42C33.58,9.13,32.54,8.58,32.1,9.19Z" transform="translate(0 -0.34)"/>
    <path class="cls-3" d="M23.25,23c-.67,1-1.35,2-2,3a10.68,10.68,0,0,0-1.69,2.87c-.18.6.57.89,1,.54a11.24,11.24,0,0,0,1.9-2.75c.63-1,1.27-2.07,1.9-3.1C24.74,22.94,23.68,22.37,23.25,23Z" transform="translate(0 -0.34)"/>
    <path class="cls-3" d="M35.44,9.34c-1.82,3.24-4.11,6.32-5.77,9.63-.32.65.59,1.43,1.09.79,2.32-2.91,4-6.54,5.74-9.83A.61.61,0,0,0,35.44,9.34Z" transform="translate(0 -0.34)"/>
    <path class="cls-3" d="M27.74,22.46C26,24.66,24,27.13,23.1,29.77c-.27.79.83,1.05,1.23.49.81-1.11,1.37-2.43,2.08-3.61s1.49-2.35,2.29-3.48C29.1,22.62,28.16,21.92,27.74,22.46Z" transform="translate(0 -0.34)"/>
    <path class="cls-3" d="M37.1,13.21c-3.68,5.92-8,11.64-11.32,17.77a2.12,2.12,0,0,1,.61.62,3.6,3.6,0,0,1,.32.69C31.12,26.65,34.52,20,38.1,13.77,38.47,13.13,37.49,12.6,37.1,13.21Z" transform="translate(0 -0.34)"/>
    <path class="cls-3" d="M38.39,17C34.32,23.47,29.81,29.71,26,36.28c-.56,1,.86,1.68,1.48.82,4.39-6.19,8.11-13,12-19.47C39.9,16.94,38.82,16.36,38.39,17Z" transform="translate(0 -0.34)"/>
    <path class="cls-3" d="M38.61,21.7c-2.19,4-4.58,7.88-6.61,11.93-.39.78.67,1.67,1.29.94A27.94,27.94,0,0,0,36.48,29c1.12-2.2,2.24-4.38,3.35-6.58A.7.7,0,0,0,38.61,21.7Z" transform="translate(0 -0.34)"/>
    <path class="cls-2" d="M25.21,2A8.27,8.27,0,0,0,24,3.2a3,3,0,0,0-.74,1.49c-.05.47.58.59.86.33A8,8,0,0,0,25,3.8a7.56,7.56,0,0,1,1-1.1C26.53,2.23,25.74,1.51,25.21,2Z" transform="translate(0 -0.34)"/>
    <path class="cls-2" d="M20.53,8.7A122.65,122.65,0,0,0,9.9,21.29c-.4.56.54,1.27,1,.72,3.4-4.27,6.71-8.56,10.37-12.62C21.68,8.91,21,8.23,20.53,8.7Z" transform="translate(0 -0.34)"/>
    <path class="cls-2" d="M13.14,12.87C12.05,14,11,15.13,10,16.32a17.58,17.58,0,0,0-2.57,3.51.63.63,0,0,0,1,.73,40.13,40.13,0,0,0,2.68-3.51C12,15.89,13,14.79,14,13.71A.61.61,0,0,0,13.14,12.87Z" transform="translate(0 -0.34)"/>
    <path class="cls-2" d="M7.31,15c-.63.65-1.24,1.32-1.84,2S4.15,18.25,4,19c-.06.38.28.85.72.68.75-.3,1.21-1.14,1.73-1.74s1.19-1.36,1.81-2A.66.66,0,0,0,7.31,15Z" transform="translate(0 -0.34)"/>
    <path class="cls-2" d="M28,3.41q-4.44,5.16-8.8,10.41c-2.62,3.16-5.85,6.33-7.85,9.92a.56.56,0,0,0,.89.66c3.12-2.87,5.56-6.86,8.2-10.18s5.46-6.8,8.23-10.17C29.07,3.59,28.42,3,28,3.41Z" transform="translate(0 -0.34)"/>
    <path class="cls-2" d="M30.58,4.38c-6.17,7.79-12.75,15.2-19.07,22.85-.61.74.43,1.75,1.09,1,4.62-5.07,9-10.47,13.18-15.92a2,2,0,0,1,.07-.93c-.15.47-.1.42-.14.16A1.52,1.52,0,0,1,27.46,10l.15,0c1.25-1.62,2.49-3.25,3.73-4.87C31.75,4.58,31,3.84,30.58,4.38Z" transform="translate(0 -0.34)"/>
    <path class="cls-2" d="M33,6.08l-.84,1.2a5.64,5.64,0,0,0-.74,1.19c-.14.41.41.6.68.37a5.74,5.74,0,0,0,.81-1.14l.81-1.22C34,6,33.31,5.65,33,6.08Z" transform="translate(0 -0.34)"/>
    <path class="cls-2" d="M21.55,21q-3.19,3.55-6.31,7.18c-1.84,2.16-4,4.28-5.41,6.75-.31.55.41,1,.85.62,2.21-1.95,4-4.62,5.83-6.89s3.87-4.62,5.83-6.9C22.8,21.25,22,20.49,21.55,21Z" transform="translate(0 -0.34)"/>
    <path class="cls-2" d="M10.92,28.59,9.46,30.25a6.76,6.76,0,0,0-1.3,1.63c-.14.36.19.79.58.56a6.39,6.39,0,0,0,1.39-1.54l1.41-1.72C11.88,28.76,11.28,28.17,10.92,28.59Z" transform="translate(0 -0.34)"/>
    <path class="cls-2" d="M19.7,28.64h0a1.1,1.1,0,0,1-.55-.4,99.94,99.94,0,0,0-6.29,8.41c-.37.58.48,1.16.94.7a71.6,71.6,0,0,0,6.8-8.21A1.77,1.77,0,0,1,19.7,28.64Z" transform="translate(0 -0.34)"/>
    <path class="cls-2" d="M26.34,19.31c-1,1.35-2.09,2.68-3.17,4a4.72,4.72,0,0,1,.83-.11,1.44,1.44,0,0,1,.68.15c.82-1.17,1.63-2.33,2.45-3.47C27.46,19.44,26.68,18.86,26.34,19.31Z" transform="translate(0 -0.34)"/>
    <path class="cls-2" d="M29.56,19.33a11.08,11.08,0,0,0-1,1.15,2.43,2.43,0,0,0-.65,1.31.46.46,0,0,0,.7.38,3.3,3.3,0,0,0,.83-1.05A10,10,0,0,1,30.3,20,.51.51,0,0,0,29.56,19.33Z" transform="translate(0 -0.34)"/>
    <path class="cls-2" d="M22.76,29.63,19.51,34a23.6,23.6,0,0,0-2.84,4,.5.5,0,0,0,.8.58,23,23,0,0,0,3-3.93l3.13-4.41C23.88,29.75,23.1,29.18,22.76,29.63Z" transform="translate(0 -0.34)"/>
    <path class="cls-2" d="M25.42,31.18c-.82.94-1.6,1.91-2.33,2.93a9.81,9.81,0,0,0-1.85,3.24.57.57,0,0,0,1,.52A16.11,16.11,0,0,0,24,35.07a31.91,31.91,0,0,1,2.26-3.13C26.67,31.4,25.9,30.64,25.42,31.18Z" transform="translate(0 -0.34)"/>
    <path class="cls-2" d="M31.81,19.55A3.41,3.41,0,0,1,31,20.74c-.25.27,0,.82.4.66a2.41,2.41,0,0,0,1.31-1.62C32.86,19.21,32,19,31.81,19.55Z" transform="translate(0 -0.34)"/>
    <path class="cls-4" d="M30.11,2.91C21.86-1.81,8.41-.15,3.66,8.9a.41.41,0,0,0-.05.18,19.65,19.65,0,0,0-3,16c2.3,9.14,11.22,15.05,20.5,14.6a20.2,20.2,0,0,0,18.1-14A19.79,19.79,0,0,0,30.11,2.91Zm4,5.41c-2.29.55-4.73-.2-7,.5a3.46,3.46,0,0,0-2.26,1.68c-.29.66,0,1.55-.46,2.16-.34.44-1,.63-1.43,1a1.84,1.84,0,0,0-.77,1.67c.12,1,.61.9-.76,1.3a3.45,3.45,0,0,0-1.46.51c-1.53,1.26-.76,3.59.91,4.25a3.57,3.57,0,0,0,2.74-.11,5.24,5.24,0,0,0,1.37-.9c.05-.05.69-.76.73-.76s.17.25.35.39a2.42,2.42,0,0,0,2.18.56c.59-.09,1.13-.32,1.71-.44A5.7,5.7,0,0,1,31.45,20c1.55.07.79.12.14.36a35.72,35.72,0,0,1-4.74,1.39c-1.63.32-3.54.16-5.11.69a6.94,6.94,0,0,0-2.53,2.14,4.15,4.15,0,0,0-1.39,2.89c.12,2.88,3.71,2.68,5.7,3,1.05.19,2.47.75,2.35,2.1a4.26,4.26,0,0,1-1,1.88,4.4,4.4,0,0,0-1.14,3,.77.77,0,0,0,.07.26A19.66,19.66,0,0,1,8.43,34.28c1.3-1,.85-3.05,2.13-4.13S13.84,28,13,26c-.32-.77-1-1.13-1.54-1.73-.81-.94-.38-2.17-.79-3.26-.61-1.66-2.41-1.84-3.94-1.66a14,14,0,0,1-1.45.15,1.32,1.32,0,0,1-1-2.3c1-1.16,2.5-1.3,3.94-1.41a8.24,8.24,0,0,0,5-1.68c.57-.46.37-.61,1.18-.43.34.07.55.3.91.36a2.09,2.09,0,0,0,1.74-.51,3.45,3.45,0,0,0,1-2.28,12.22,12.22,0,0,1,.27-1.8c.44-1.47,2-1.75,2.11.09,0,.37.42.76.81.59,3.25-1.4,3.13-4.87,2.33-7.79a18.23,18.23,0,0,1,3.06.83,17.74,17.74,0,0,1,7.43,5.19ZM25.21,37.4c-.15-1.89,2.25-3.06,2.17-5.07C27.3,30.12,25,29.19,23.13,29c-1-.12-2.83,0-3.55-.9-.93-1.18,1.31-3.53,2.35-4.13s3.2-.41,4.48-.64a28.3,28.3,0,0,0,4.79-1.23c1-.36,4.26-1.41,2.41-3a4.13,4.13,0,0,0-2.76-.58c-1.18.06-3,1.1-3.84.18-.45-.46-.65-.93-1.45-.74-1.39.33-1.73,2.12-3.41,2.13-.67,0-1-.07-1.29-.68-.46-.89.2-1.09,1.11-1.4a8.68,8.68,0,0,0,1-.23,1.64,1.64,0,0,0,1-1.82c0-.43-.23-.46-.08-.92s.32-.48.67-.7a4.93,4.93,0,0,0,1-.8,2.09,2.09,0,0,0,.53-1.17c.18-1.08.49-2,1.64-2.35,2.38-.74,4.86.07,7.24-.68a18.06,18.06,0,0,1,3.43,12.85A18.5,18.5,0,0,1,25.2,37.4ZM3.07,27.79a18.82,18.82,0,0,1,3.79-21A20.35,20.35,0,0,1,22.34,2.1c.58,2,1.2,5-.72,6.41C21.26,7.21,20.28,6.28,18.7,7a3,3,0,0,0-1.51,1.7c-.48,1.21,0,4.12-2.06,3.72-.78-.14-1.25-.78-2.1-.27-.37.23-.54.64-.84,1a3.7,3.7,0,0,1-1.85.95c-2.3.56-4.7,0-6.65,1.66C2.35,16.8,1.36,19.08,3,20.4A3.76,3.76,0,0,0,5.52,21c1.38,0,3.29-.91,3.77,1,.26,1,0,1.94.67,2.88.27.39.69.62,1,1,.87,1.08.33,1.79-.56,2.43a5.28,5.28,0,0,0-2,2.11c-.36.82-.21,2.29-1.11,2.74l-.09,0A16.5,16.5,0,0,1,3.07,27.79Z" transform="translate(0 -0.34)"/>
  </g>
</svg>
