<svg id="레이어_1" data-name="레이어 1" xmlns="http://www.w3.org/2000/svg" xmlns:xlink="http://www.w3.org/1999/xlink" viewBox="0 0 31.24 40.12">
  <defs>
    <style>
      .cls-1 {
        fill: #ebebeb;
      }

      .cls-2 {
        fill: #313142;
      }

      .cls-3 {
        fill: url(#linear-gradient);
      }

      .cls-20, .cls-21, .cls-22, .cls-4 {
        fill: #fff;
      }

      .cls-4 {
        opacity: 0.1;
      }

      .cls-5 {
        fill: #261b18;
      }

      .cls-6 {
        fill: #ffbc82;
      }

      .cls-7 {
        fill: #bc551e;
      }

      .cls-18, .cls-20, .cls-7 {
        opacity: 0.3;
      }

      .cls-8 {
        fill: #57443a;
      }

      .cls-9 {
        fill: #ffc48f;
      }

      .cls-10 {
        fill: #b54319;
        opacity: 0.5;
      }

      .cls-11 {
        fill: #425361;
      }

      .cls-12 {
        fill: #c3d5e3;
      }

      .cls-13 {
        fill: #121b21;
      }

      .cls-14 {
        fill: #ff3b3b;
      }

      .cls-15 {
        fill: #a80a0a;
      }

      .cls-16 {
        fill: #fff9f0;
      }

      .cls-17 {
        fill: #e8dac5;
      }

      .cls-18 {
        fill: #b54d26;
      }

      .cls-19 {
        fill: #3a3a4a;
      }

      .cls-22 {
        opacity: 0.7;
      }

      .cls-23 {
        fill: #c1c5c9;
      }
    </style>
    <linearGradient id="linear-gradient" x1="20.27" y1="30.78" x2="20.27" y2="33.05" gradientUnits="userSpaceOnUse">
      <stop offset="0" stop-color="#e88958"/>
      <stop offset="0.34" stop-color="#f49d62"/>
      <stop offset="0.69" stop-color="#fcab69"/>
      <stop offset="1" stop-color="#ffb06b"/>
    </linearGradient>
  </defs>
  <title>1</title>
  <g>
    <path class="cls-1" d="M17.92,34.63l-1.1-2.18c-1.48.75-2,2.61-2.46,4.58a22.43,22.43,0,0,1-1,3.09H16c.29-.85.51-1.7.72-2.48C17.05,36.35,17.42,34.88,17.92,34.63Z" transform="translate(-4.88 0)"/>
    <path class="cls-1" d="M24.24,32.45l-1.11,2.18c.5.25.88,1.72,1.21,3,.2.78.42,1.63.71,2.48h2.61a22.43,22.43,0,0,1-1-3.09C26.19,35.06,25.71,33.2,24.24,32.45Z" transform="translate(-4.88 0)"/>
    <g>
      <path class="cls-2" d="M24.6,37.1c.73-2.75.81-4.41-.88-5a10.9,10.9,0,0,0-6.47,0c-1.43.62-1.89,1.62-.91,4.66a18.17,18.17,0,0,1,.78,3.28H24A21.07,21.07,0,0,1,24.6,37.1Z" transform="translate(-4.88 0)"/>
      <path class="cls-3" d="M22.4,29.29c.13-2.42-4-2.52-4,.14a6.31,6.31,0,0,1-.16,2.44c-.83,1.32,2.32,3.2,2.32,3.2s2.45-2,1.84-3.07C22,31.37,22.34,30.36,22.4,29.29Z" transform="translate(-4.88 0)"/>
      <path class="cls-4" d="M22.23,35.31a6.84,6.84,0,0,1-3.83-.06c-.7-.18-1.09.62-.88,1.3.29.9,1.73,1.13,3,1.11,2.49,0,3.42-1,3-2.07C23.4,35.29,22.87,35.09,22.23,35.31Z" transform="translate(-4.88 0)"/>
    </g>
    <g>
      <path class="cls-5" d="M34.51,13.05c-.88-.77-1.44-1.24-1.52-2.41s.15-2.61-.41-3.75S30.9,5.63,29.94,5.17a5.3,5.3,0,0,1-2.18-2.29,4.48,4.48,0,0,0-5.67-1.39C21.89.48,20.57,0,19.18,0a7.44,7.44,0,0,0-4.27,1.54A50.81,50.81,0,0,0,11.28,5.1C8.85,7.31,3.66,9.8,5.14,14c.54,1.54,1.5,2,.62,3.65s-1.24,2.41,0,3.82c.5.56,1,.82,1.06,1.63s-.65,1.39-.61,2.16c.1,1.64,1.35,2.82,2.92,3.79,2,1.22,4.46,2.1,5.79,3.16,2.34,1.86,3.58-1.44,5.47-1.51,1,0,1.46.91,2.74,1.94,2,1.62,4.9,3.31,6.51.79a2.83,2.83,0,0,1-1.77-.77c2.62,0,5-.82,4.82-3.87-.08-1.15-.52-1.59.32-2.52s2.53-.92,2.61-2.44-1.59-1.67-1.9-2.79.71-1.67,1.33-2.51C36.67,16.39,36.4,14.71,34.51,13.05Z" transform="translate(-4.88 0)"/>
      <path class="cls-6" d="M19.15,5.94c-5.44.91-9.4,8.26-8.53,15.24.65,5.17,5.28,10.75,10.87,10.42,6.73-.41,10.12-7.94,9.43-14.09C30.14,10.53,26.77,4.66,19.15,5.94Z" transform="translate(-4.88 0)"/>
      <path class="cls-7" d="M30.54,11.83A5.39,5.39,0,0,0,27.67,8c-2-.83-5.28-2.51-7.41-1.81a17,17,0,0,0-6.69,4.47c-2.31,2.43-4,8.08-2.21,11.13a8.77,8.77,0,0,0,.66-2c.86-2.31,3.39-3.67,5.17-5.24.53,1.26,1.62,1.48,2.8,1.74a3.17,3.17,0,0,1,.2-2.27A5.26,5.26,0,0,1,20.86,13c.29-.36,2.19-1.92,1.89-2.4A9.75,9.75,0,0,0,27,13.79c2,.94,2.45,2.38,3.4,4.3-.22-.43.36-2.37.36-3A16.58,16.58,0,0,0,30.54,11.83Z" transform="translate(-4.88 0)"/>
      <path class="cls-5" d="M31.64,11.06c-.27-1.31-2.18-2.67-2.92-3.83a10.32,10.32,0,0,0-3.61-3.64c-2.67-1.47-6-1.38-8.93-.92C12.7,3.21,10,6.21,8.64,9.23,7.13,12.66,6.92,16,7.45,20.8c.27,2.5.6,5.74,2,7.89C9.89,29.35,11,30,10.59,31,10,32.22,8.84,30.7,9,30.46a3.47,3.47,0,0,0-.26.37,2.72,2.72,0,0,0,.72,1.89c1.7,1.74,3.85.63,4.65-1.37,1.08-2.65-1.31-4-2-6.4-.74-2.59-.89-4.95.72-7.24s2.64-3.88,5.12-5.06c-.72,1.55.67,4.1,2.57,3.33-1.59-.58-1.11-2-.35-3.08.27-.39,2.89-3.11,2.47-3.54a18,18,0,0,0,3.37,2.79c1.2.74,2.34,1,3.18,2.22a6.88,6.88,0,0,1,1,2c.16.54,0,1.47.34,1.93.79,1.23,2.44.06,2.63-1,.25-1.46-.72-2.21-1.32-3.41S31.86,12.14,31.64,11.06Z" transform="translate(-4.88 0)"/>
      <path class="cls-8" d="M19.35,12.86h0Z" transform="translate(-4.88 0)"/>
      <path class="cls-8" d="M29.08,6.14c-1.74-.71-2.1-2.56-3.43-3.65a3,3,0,0,0-4,.51,2.87,2.87,0,0,0-3.15-1.76A4.4,4.4,0,0,0,15.91,3a15.79,15.79,0,0,1-4.51,3.7c-1.57.94-3.71,2.56-3.8,4.57,0,.78.45,2.82,1.17,3.26a3.72,3.72,0,0,0,2.8,0,16.84,16.84,0,0,0,8.16-5.66,23.89,23.89,0,0,0-.38,4c.47-.89,1.23-1.61,1.69-2.51a8.16,8.16,0,0,0,.57-1.94,6.74,6.74,0,0,1,.88-1.81c.94,1.69,2.09,3.51,4.13,3.89.7.12,1.41,0,2.1.13a4.94,4.94,0,0,1,1.57.79c1.35.77,1.56-1.3,1.64-2.37C32.09,6.87,30.71,6.81,29.08,6.14Z" transform="translate(-4.88 0)"/>
      <path class="cls-8" d="M9.14,23.46a1.25,1.25,0,0,0-.74.22c-.76.6-1.27,4,2.69,3.82a2.9,2.9,0,0,1-.58-1.43C10.45,25.29,10.4,23.45,9.14,23.46Z" transform="translate(-4.88 0)"/>
      <path class="cls-8" d="M32.29,13.52a1.2,1.2,0,0,0-.65.44c-.81,1,.57,2.17,1.13,2.71A3,3,0,0,1,33.51,18C36.19,15.1,33.22,13.3,32.29,13.52Z" transform="translate(-4.88 0)"/>
      <path class="cls-8" d="M29.73,28.73c-.1.88.51,1.59-.07,2.52a2.34,2.34,0,0,0,2.06-2.56A1,1,0,0,0,29.73,28.73Z" transform="translate(-4.88 0)"/>
      <path class="cls-8" d="M7.67,18.69c-.69,1.14.21,2.62,1.16,3.07-.25-1.07.54-1.55.72-2.41S8.49,17.33,7.67,18.69Z" transform="translate(-4.88 0)"/>
      <path class="cls-8" d="M32.4,22.74c-.45.76-.18,1.65-1.08,2.27,1,.31,2.67-.18,2.92-1.49C34.54,22,32.84,22,32.4,22.74Z" transform="translate(-4.88 0)"/>
    </g>
    <g>
      <path class="cls-9" d="M28.26,19.19c-.79-.14-1.89,0-1.36,1.24.29.66,3.38,1.61,3.23.15a1.25,1.25,0,0,0-.12-.4A2.28,2.28,0,0,0,28.26,19.19Z" transform="translate(-4.88 0)"/>
      <path class="cls-9" d="M17.68,19.6a2.41,2.41,0,0,0-2.11-.1c-.81.25-1.78.89-.69,1.8.58.5,3.92-.09,3.1-1.38A1.32,1.32,0,0,0,17.68,19.6Z" transform="translate(-4.88 0)"/>
      <path class="cls-10" d="M22.48,20.41c-.66-.05-.65-.41-1.13-.13s-.12,1.32,1,1.37,1.72-.82,1.49-1.18S23.21,20.46,22.48,20.41Z" transform="translate(-4.88 0)"/>
      <path class="cls-9" d="M22.31,18.47c-.54,0-1.34,1.85-1.07,2.13a2.15,2.15,0,0,0,2.59-.11C24,20.31,22.93,18.46,22.31,18.47Z" transform="translate(-4.88 0)"/>
      <path class="cls-11" d="M29,16.35c-1.83-.78-3.5,1.49-2.18,2.66a2.41,2.41,0,0,1,2.58-.08A1.64,1.64,0,0,0,29,16.35Z" transform="translate(-4.88 0)"/>
      <path class="cls-12" d="M29.16,17.63c-.5.16-.26,1.12.25.78S29.61,17.49,29.16,17.63Z" transform="translate(-4.88 0)"/>
      <path class="cls-12" d="M27.45,16.62c-.85.27-.45,1.91.42,1.34C28.5,17.54,28.21,16.39,27.45,16.62Z" transform="translate(-4.88 0)"/>
      <path class="cls-11" d="M15.35,16.5A1.63,1.63,0,0,0,15,19.09a2.41,2.41,0,0,1,2.58,0C18.89,17.88,17.15,15.67,15.35,16.5Z" transform="translate(-4.88 0)"/>
      <path class="cls-12" d="M15.18,17.78c-.45-.12-.6.56-.22.79S15.69,17.92,15.18,17.78Z" transform="translate(-4.88 0)"/>
      <path class="cls-12" d="M16.87,16.73c-.77-.22-1,.95-.39,1.34C17.37,18.62,17.72,17,16.87,16.73Z" transform="translate(-4.88 0)"/>
      <path class="cls-5" d="M18.24,14A10,10,0,0,0,15.56,14a4.56,4.56,0,0,0-1.74.6.76.76,0,0,0-.36.47c.15,0,.27,0,.4-.08A8.37,8.37,0,0,1,16,14.88c.55,0,1.09.11,1.64.13.37,0,.86.12,1.08-.22S18.73,14.06,18.24,14Z" transform="translate(-4.88 0)"/>
      <path class="cls-5" d="M30.16,14.36a4.43,4.43,0,0,0-1.69-.55,10.36,10.36,0,0,0-2.61.08c-.47.07-.73.35-.45.77s.69.21,1.05.2c.53,0,1.06-.11,1.59-.15a8.36,8.36,0,0,1,2.06,0c.14,0,.25.11.39.07S30.31,14.46,30.16,14.36Z" transform="translate(-4.88 0)"/>
      <path class="cls-13" d="M28.6,16a1.9,1.9,0,0,0-2.17,1.36,1.71,1.71,0,0,1,1.91-.59,3.08,3.08,0,0,0,3.8-.7C30.37,16.94,29.46,16.2,28.6,16Z" transform="translate(-4.88 0)"/>
      <path class="cls-13" d="M15.77,16.22c-.86.17-1.76.92-3.54.11A3.06,3.06,0,0,0,16,17a1.71,1.71,0,0,1,1.92.57A1.9,1.9,0,0,0,15.77,16.22Z" transform="translate(-4.88 0)"/>
      <g>
        <path class="cls-14" d="M15.3,22.81c2.88,4.25,4.62,5,6.82,5.11a3.72,3.72,0,0,0,4.07-3,7.86,7.86,0,0,1,2.08-2.35c-1.71.41-3.4.23-6,.34C20.14,23,17,23.67,15.3,22.81Z" transform="translate(-4.88 0)"/>
        <path class="cls-15" d="M16.61,23.54a6.42,6.42,0,0,0,5.16,2.88c2.2,0,3.63-.69,4-1.67a2.83,2.83,0,0,1,1.36-1.47A23.5,23.5,0,0,1,16.61,23.54Z" transform="translate(-4.88 0)"/>
        <path class="cls-16" d="M17.89,23.78s.11.87,1.34,1.19a12.21,12.21,0,0,0,5,.14c1.17-.19,1.73-1.57,1.73-1.57A25.18,25.18,0,0,1,17.89,23.78Z" transform="translate(-4.88 0)"/>
        <path class="cls-16" d="M22.63,25.24A7.17,7.17,0,0,1,19,24.77c-.56-.33-.61,0-.48.26,0,0,.52,1.19,3.12,1.43s3.78-1.21,3.49-1.46S24.08,25.17,22.63,25.24Z" transform="translate(-4.88 0)"/>
        <path class="cls-17" d="M17.89,23.78a1.36,1.36,0,0,0,.32.61s5.85-.55,7.26-.08a2.74,2.74,0,0,0,.47-.77A29,29,0,0,1,17.89,23.78Z" transform="translate(-4.88 0)"/>
        <path class="cls-17" d="M19.43,24.94a6,6,0,0,0,4.63.13A8.88,8.88,0,0,1,19.43,24.94Z" transform="translate(-4.88 0)"/>
      </g>
    </g>
    <g>
      <path class="cls-18" d="M29.56,14.76a13.86,13.86,0,0,0-2.93.46,11.51,11.51,0,0,0-2.52.71,3,3,0,0,1-1.81.56c-1.5-.06-2.76-1-4.25-1.15a12.69,12.69,0,0,0-4.68.08c-.39.12-1.6.58-.78,1a7,7,0,0,0,2.85.32c.4,0,.8,0,1.2.06,1.42.13,3.61-.07,3.5,1.71a3,3,0,0,1-1.85,2.72,12.62,12.62,0,0,1-2.93.3,5,5,0,0,1-2.11-.45c-.19-.09-.76-.46-.95-.2-.31.44.85,1.17,1.15,1.31a7,7,0,0,0,2.18.48c1.85.2,3.76.1,4.8-1.61.61-1,.91-2.16,1.47-3.18.92-1.67,1.35.59,1.65,1.58A4.87,4.87,0,0,0,24.29,21a3.77,3.77,0,0,0,2.76,1.33,4.23,4.23,0,0,0,1.8-.25c.34-.14.48-.54.07-.69a3.08,3.08,0,0,0-.91,0,8.91,8.91,0,0,1-1.15-.09,3.4,3.4,0,0,1-1.37-.59,2.6,2.6,0,0,1-.71-.77,2.46,2.46,0,0,1-.15-2.1c.34-.94,1.37-1,2.22-1.1,1-.09,2.09-.07,3.12-.17a10.6,10.6,0,0,1,1.38,0c.59,0,1.86-.18,1.16-1S30.51,14.7,29.56,14.76Z" transform="translate(-4.88 0)"/>
      <path class="cls-19" d="M11.9,14.77c-1.22,0-2.27-.3-2.56,0s.29,1.42.29,1.42a2,2,0,0,0,1,.32c.08.85,0,3.06,1.6,4.45,1.31,1.16,5.56,1.48,6.88.81a5.15,5.15,0,0,0,2.62-3.88C22.39,14.12,13.62,14.71,11.9,14.77Zm7.26,5.95c-1.62,1.05-5.75.57-6.83-.76-.83-1-1-3.18-.48-3.49,1.55-.94,7.37-.6,8.72.43C21.22,17.4,20.38,19.92,19.16,20.72Z" transform="translate(-4.88 0)"/>
      <path class="cls-19" d="M32,14.38c-1.56,0-9.49-.26-8.72,3.43a5.14,5.14,0,0,0,2.5,3.78c1.21.62,5,.14,6.17-1.07,1.37-1.44,1.25-3.65,1.29-4.5a1.81,1.81,0,0,0,.86-.36s.55-1.12.21-1.43S33.06,14.38,32,14.38Zm-.2,5.2c-.93,1.37-4.64,2-6.13,1-1.14-.75-2-3.23-1.42-3.76,1.18-1.07,6.42-1.64,7.85-.75C32.52,16.36,32.46,18.52,31.75,19.58Z" transform="translate(-4.88 0)"/>
      <path class="cls-20" d="M25.23,16.5c-.87.38.7.83,1,.88A11.56,11.56,0,0,0,30,17.22c.65-.12,2.06-.73,1.65-1.09C31.09,15.62,26.18,16.08,25.23,16.5Z" transform="translate(-4.88 0)"/>
      <path class="cls-21" d="M29.08,16.27c-.47.07-.77.21-.64.42.25.42,3,.17,3.19-.15S30.08,16.1,29.08,16.27Z" transform="translate(-4.88 0)"/>
      <path class="cls-22" d="M26.11,19.72c-.29,0-.5.05-.44.24.1.37,1.81.59,2,.37S26.74,19.75,26.11,19.72Z" transform="translate(-4.88 0)"/>
      <path class="cls-22" d="M13.28,19.65c-.31,0-.53,0-.5.18.06.37,1.82.81,2,.61S13.93,19.75,13.28,19.65Z" transform="translate(-4.88 0)"/>
      <path class="cls-20" d="M19.92,16.69c-1.09-.39-6.51-.78-7.07-.3-.4.35,1.21.91,1.94,1a14.59,14.59,0,0,0,4.1.12C19.25,17.48,20.91,17,19.92,16.69Z" transform="translate(-4.88 0)"/>
      <path class="cls-21" d="M17.56,16.38c-.5,0-.83.12-.73.34.22.45,3.13.54,3.36.24S18.63,16.34,17.56,16.38Z" transform="translate(-4.88 0)"/>
      <path class="cls-19" d="M24.25,15.58a4.62,4.62,0,0,1-3.82.05c-1.19-.42.63.78.77,1.4s-.06,2.52.35,1.39,1.25-1.21,1.78-.17.49-1.74.7-2S25.38,15.06,24.25,15.58Z" transform="translate(-4.88 0)"/>
      <path class="cls-23" d="M12.47,15.14c3.31.15,5.94.24,7.94,1C19.11,15.08,16.87,14.85,12.47,15.14Z" transform="translate(-4.88 0)"/>
      <path class="cls-23" d="M31.67,14.67c-4,.16-5.91.19-7,1.22C26.43,15.06,28.68,15.11,31.67,14.67Z" transform="translate(-4.88 0)"/>
    </g>
  </g>
</svg>
