<svg xmlns="http://www.w3.org/2000/svg" xmlns:xlink="http://www.w3.org/1999/xlink" viewBox="0 0 39.2 40">
  <defs>
    <style>
      .cls-1 {
        isolation: isolate;
      }

      .cls-2 {
        fill: url(#linear-gradient);
      }

      .cls-11, .cls-3, .cls-4 {
        opacity: 0.25;
      }

      .cls-11, .cls-12, .cls-15, .cls-3, .cls-5, .cls-6, .cls-7 {
        mix-blend-mode: multiply;
      }

      .cls-3 {
        fill: url(#radial-gradient);
      }

      .cls-4 {
        fill: #fff;
      }

      .cls-13, .cls-14, .cls-16, .cls-17, .cls-5 {
        opacity: 0.35;
      }

      .cls-5 {
        fill: url(#linear-gradient-2);
      }

      .cls-12, .cls-15, .cls-6, .cls-7 {
        opacity: 0.5;
      }

      .cls-6 {
        fill: url(#radial-gradient-2);
      }

      .cls-7 {
        fill: url(#radial-gradient-3);
      }

      .cls-8 {
        fill: #5d4037;
      }

      .cls-9 {
        fill: #4e342e;
      }

      .cls-10, .cls-11 {
        fill: #d95957;
      }

      .cls-12 {
        fill: url(#linear-gradient-3);
      }

      .cls-13, .cls-14, .cls-16, .cls-17 {
        mix-blend-mode: screen;
      }

      .cls-13 {
        fill: url(#linear-gradient-4);
      }

      .cls-14 {
        fill: url(#linear-gradient-5);
      }

      .cls-15 {
        fill: url(#linear-gradient-6);
      }

      .cls-16 {
        fill: url(#linear-gradient-7);
      }

      .cls-17 {
        fill: url(#linear-gradient-8);
      }
    </style>
    <linearGradient id="linear-gradient" x1="19.38" y1="0.59" x2="19.38" y2="40.73" gradientUnits="userSpaceOnUse">
      <stop offset="0" stop-color="#ffe082"/>
      <stop offset="1" stop-color="#ffbf66"/>
    </linearGradient>
    <radialGradient id="radial-gradient" cx="19.78" cy="20.62" r="19.38" gradientUnits="userSpaceOnUse">
      <stop offset="0.8" stop-color="#fff"/>
      <stop offset="1" stop-color="#ffbf66"/>
    </radialGradient>
    <linearGradient id="linear-gradient-2" x1="19.78" y1="18.33" x2="19.78" y2="40.4" xlink:href="#linear-gradient"/>
    <radialGradient id="radial-gradient-2" cx="29.92" cy="23.54" r="5.85" gradientTransform="translate(11.41 -9.69) rotate(22.62)" gradientUnits="userSpaceOnUse">
      <stop offset="0" stop-color="#ff7043"/>
      <stop offset="1" stop-color="#fff"/>
    </radialGradient>
    <radialGradient id="radial-gradient-3" cx="-323.65" cy="23.54" r="5.85" gradientTransform="matrix(-0.38, -0.92, -0.92, 0.38, -92.96, -284.18)" xlink:href="#radial-gradient-2"/>
    <linearGradient id="linear-gradient-3" x1="4.94" y1="7.05" x2="14.63" y2="7.05" xlink:href="#linear-gradient"/>
    <linearGradient id="linear-gradient-4" x1="9.35" y1="1.43" x2="9.35" y2="8.62" gradientUnits="userSpaceOnUse">
      <stop offset="0" stop-color="#fff"/>
      <stop offset="1"/>
    </linearGradient>
    <linearGradient id="linear-gradient-5" x1="9.35" y1="1.43" x2="9.35" y2="8.62" gradientUnits="userSpaceOnUse">
      <stop offset="0" stop-color="#fff"/>
      <stop offset="0.5"/>
    </linearGradient>
    <linearGradient id="linear-gradient-6" x1="31.95" y1="12.81" x2="38.19" y2="12.81" xlink:href="#linear-gradient"/>
    <linearGradient id="linear-gradient-7" x1="35.77" y1="7.39" x2="35.77" y2="12.32" xlink:href="#linear-gradient-4"/>
    <linearGradient id="linear-gradient-8" x1="35.77" y1="7.39" x2="35.77" y2="12.32" xlink:href="#linear-gradient-5"/>
  </defs>
  <title>1</title>
  <g class="cls-1">
    <g id="레이어_1" data-name="레이어 1">
      <g>
        <g>
          <circle class="cls-2" cx="19.38" cy="20.62" r="19.38"/>
          <path class="cls-3" d="M39.16,20.62a19.4,19.4,0,1,1-3.08-10.47,18.39,18.39,0,0,1,2.11,4.4A19.34,19.34,0,0,1,39.16,20.62Z" transform="translate(-0.4)"/>
          <path class="cls-4" d="M35.77,15.89c0,7.2-7.16,0-16,0s-16,7.2-16,0,7.16-13,16-13S35.77,8.69,35.77,15.89Z" transform="translate(-0.4)"/>
          <path class="cls-5" d="M19.78,36.12A19.38,19.38,0,0,1,.5,18.68a17.74,17.74,0,0,0-.1,1.94,19.38,19.38,0,1,0,38.76,0c0-.66,0-1.3-.09-1.94A19.39,19.39,0,0,1,19.78,36.12Z" transform="translate(-0.4)"/>
          <circle class="cls-6" cx="29.92" cy="23.69" r="6.16" transform="translate(-7.21 13.33) rotate(-22.62)"/>
          <circle class="cls-7" cx="9.65" cy="23.69" r="6.16" transform="translate(-16.33 23.48) rotate(-67.38)"/>
        </g>
        <g>
          <g>
            <path class="cls-4" d="M13,12.87a4.53,4.53,0,0,0-4.52,4.52c0,.84,0,.88.07,1a1.48,1.48,0,0,0,1.35,1A1.55,1.55,0,0,0,11,18.86,3.23,3.23,0,0,1,13,18a3.16,3.16,0,0,1,2,.83,1.59,1.59,0,0,0,1.12.51,1.48,1.48,0,0,0,1.35-1c.05-.12.07-.16.07-1A4.53,4.53,0,0,0,13,12.87Zm13.57,0A4.53,4.53,0,0,0,22,17.39c0,.84,0,.88.07,1a1.49,1.49,0,0,0,1.35,1,1.57,1.57,0,0,0,1.12-.51,3.2,3.2,0,0,1,2-.83,3.19,3.19,0,0,1,2,.83,1.57,1.57,0,0,0,1.12.51,1.49,1.49,0,0,0,1.35-1c.05-.12.07-.16.07-1A4.53,4.53,0,0,0,26.57,12.87Z" transform="translate(-0.4)"/>
            <path class="cls-8" d="M26.57,13.51a4,4,0,0,0-3.88,4.26.82.82,0,0,0,1.44.63,3.44,3.44,0,0,1,4.85,0c.56.52,1.44.35,1.46-.48C30.49,15.61,29,13.51,26.57,13.51ZM13,13.51a4,4,0,0,0-3.87,4.26c0,.8.78,1.27,1.43.63a3.65,3.65,0,0,1,2.44-1,3.65,3.65,0,0,1,2.42,1c.55.52,1.43.35,1.45-.48C16.93,15.61,15.46,13.51,13,13.51Z" transform="translate(-0.4)"/>
            <path class="cls-9" d="M26.57,13.51a3.88,3.88,0,0,0-3.88,3.88,4.93,4.93,0,0,0,0,.75l0,0a3.87,3.87,0,0,1,7.68,0s0,0,0,0a4.93,4.93,0,0,0,0-.75A3.88,3.88,0,0,0,26.57,13.51ZM13,13.51a3.88,3.88,0,0,0-3.88,3.88,4.93,4.93,0,0,0,0,.75l0,0a3.87,3.87,0,0,1,7.68,0s0,0,0,0a4.93,4.93,0,0,0,0-.75A3.88,3.88,0,0,0,13,13.51Z" transform="translate(-0.4)"/>
          </g>
          <g>
            <path class="cls-4" d="M19.76,33.61a12.75,12.75,0,0,1-9.07-3.51L10.56,30c-.69-.66-2-1.89-1.85-3.06a1.62,1.62,0,0,1,1.58-1.4,2.73,2.73,0,0,1,1.27.41l.34.19a15.79,15.79,0,0,0,7.79,2.09h.14a15.26,15.26,0,0,0,5.83-1.14,14.7,14.7,0,0,0,2-.95l.32-.17a2.75,2.75,0,0,1,1.29-.43,1.62,1.62,0,0,1,1.59,1.4c.11,1.17-1.17,2.4-1.85,3.06l-.14.13a12.67,12.67,0,0,1-9,3.51Z" transform="translate(-0.4)"/>
            <path class="cls-8" d="M29.73,26.3c-.73-.47-1.7.33-2.32.66a16.81,16.81,0,0,1-2.91,1.2,16.49,16.49,0,0,1-5.93.65,15.89,15.89,0,0,1-5.81-1.53,7.67,7.67,0,0,0-2.39-1.12.94.94,0,0,0-1,1.14,6,6,0,0,0,2.07,2.63,11.56,11.56,0,0,0,4.46,2.49,13.31,13.31,0,0,0,10-.94c.84-.46,5.84-3.89,3.84-5.18Z" transform="translate(-0.4)"/>
            <path class="cls-9" d="M9.8,27.59c.51-.33,1,0,1.49.21A19.52,19.52,0,0,0,13.63,29a15.74,15.74,0,0,0,6.13,1.19A15.75,15.75,0,0,0,25.9,29a19.52,19.52,0,0,0,2.34-1.15c.47-.25,1-.54,1.49-.21a1.57,1.57,0,0,1,.23.2c.3-.56.35-1.11-.23-1.49s-1,0-1.49.21a19.52,19.52,0,0,1-2.34,1.15,16.41,16.41,0,0,1-12.27,0,19.52,19.52,0,0,1-2.34-1.15c-.47-.25-1-.54-1.49-.21s-.53.93-.23,1.49A1.57,1.57,0,0,1,9.8,27.59Z" transform="translate(-0.4)"/>
            <path class="cls-10" d="M19.76,33A13.09,13.09,0,0,0,24.68,32C24,30.84,22.06,30,19.76,30s-4.23.86-4.91,2.05A13.07,13.07,0,0,0,19.76,33Z" transform="translate(-0.4)"/>
            <path class="cls-11" d="M24.17,31.42a11.28,11.28,0,0,1-4.41,1.09,11.23,11.23,0,0,1-4.4-1.09,2.4,2.4,0,0,0-.51.61,13.32,13.32,0,0,0,9.83,0A2.4,2.4,0,0,0,24.17,31.42Z" transform="translate(-0.4)"/>
          </g>
        </g>
        <path class="cls-12" d="M14.63,5.69c0,3.22-4.49,5.7-5.28,5.7A8.78,8.78,0,0,1,4.94,8.17,19.24,19.24,0,0,1,12.39,2.7,3.11,3.11,0,0,1,14.63,5.69Z" transform="translate(-0.4)"/>
        <g>
          <path class="cls-10" d="M11.53,0C10.1,0,9.92.89,9.35.89S8.6,0,7.17,0a3.1,3.1,0,0,0-3.1,3.11c0,3.21,4.49,5.7,5.28,5.7s5.29-2.49,5.29-5.7A3.11,3.11,0,0,0,11.53,0Z" transform="translate(-0.4)"/>
          <path class="cls-13" d="M9.35,8.16c-.65-.1-4.64-2.31-4.64-5.05A2.46,2.46,0,0,1,7.17.65a1.59,1.59,0,0,1,1.19.44,1.51,1.51,0,0,0,1,.45,1.56,1.56,0,0,0,1-.45A1.56,1.56,0,0,1,11.53.65,2.46,2.46,0,0,1,14,3.11C14,5.85,10,8.06,9.35,8.16Z" transform="translate(-0.4)"/>
          <path class="cls-14" d="M9.35,8.16c-.65-.1-4.64-2.31-4.64-5.05A2.46,2.46,0,0,1,7.17.65a1.59,1.59,0,0,1,1.19.44,1.51,1.51,0,0,0,1,.45,1.56,1.56,0,0,0,1-.45A1.56,1.56,0,0,1,11.53.65,2.46,2.46,0,0,1,14,3.11C14,5.85,10,8.06,9.35,8.16Z" transform="translate(-0.4)"/>
        </g>
        <path class="cls-15" d="M38.19,14.55A5.76,5.76,0,0,1,35.77,16C35.2,16,32,14.2,32,11.87A2.25,2.25,0,0,1,34.2,9.62c1,0,1.16.65,1.57.65a.5.5,0,0,0,.31-.12A18.39,18.39,0,0,1,38.19,14.55Z" transform="translate(-0.4)"/>
        <g>
          <path class="cls-10" d="M37.35,6.39c-1,0-1.16.65-1.58.65s-.54-.65-1.58-.65A2.24,2.24,0,0,0,32,8.64c0,2.33,3.25,4.13,3.82,4.13S39.6,11,39.6,8.64A2.25,2.25,0,0,0,37.35,6.39Z" transform="translate(-0.4)"/>
          <path class="cls-16" d="M35.77,12.12c-.57-.14-3.18-1.66-3.18-3.48A1.6,1.6,0,0,1,34.19,7a1,1,0,0,1,.75.28,1.24,1.24,0,0,0,.83.37,1.22,1.22,0,0,0,.83-.37A1,1,0,0,1,37.35,7,1.6,1.6,0,0,1,39,8.64C39,10.46,36.34,12,35.77,12.12Z" transform="translate(-0.4)"/>
          <path class="cls-17" d="M35.77,12.12c-.57-.14-3.18-1.66-3.18-3.48A1.6,1.6,0,0,1,34.19,7a1,1,0,0,1,.75.28,1.24,1.24,0,0,0,.83.37,1.22,1.22,0,0,0,.83-.37A1,1,0,0,1,37.35,7,1.6,1.6,0,0,1,39,8.64C39,10.46,36.34,12,35.77,12.12Z" transform="translate(-0.4)"/>
        </g>
      </g>
    </g>
  </g>
</svg>
