<svg id="레이어_1" data-name="레이어 1" xmlns="http://www.w3.org/2000/svg" viewBox="0 0 40 40">
  <defs>
    <style>
      .cls-1 {
        stroke: #000;
        stroke-miterlimit: 10;
        stroke-width: 0.75px;
      }
    </style>
  </defs>
  <title>1</title>
  <path d="M20,40A20,20,0,1,1,40,20,20,20,0,0,1,20,40ZM20,3.66A16.34,16.34,0,1,0,36.34,20,16.36,16.36,0,0,0,20,3.66Z"/>
  <path class="cls-1" d="M20.82,21.32c-.43.49-.85.94-1.25,1.36A12.17,12.17,0,0,1,18,24c-.43-.39-.84-.79-1.24-1.21S16,22,15.61,21.5a24.75,24.75,0,0,1-2.69,3A32.65,32.65,0,0,1,9.4,27.42L6.79,24.73a29.19,29.19,0,0,0,3.8-2.92A20,20,0,0,0,13,19.1a12.38,12.38,0,0,0,1.41-2.45,12.53,12.53,0,0,0,.71-2.18c-.49,0-1,.07-1.45.07H9.46V11h3.9l2.84,0q1.44,0,3.33-.09A17.77,17.77,0,0,1,19,14.71a17.47,17.47,0,0,1-1.48,3.79A18.46,18.46,0,0,0,20.82,21.32Zm6.63-1.58A25.1,25.1,0,0,0,30.18,22c.95.68,2.07,1.41,3.38,2.19l-2.48,3.13c-1.09-.73-2.08-1.47-3-2.2a31.79,31.79,0,0,1-2.56-2.38,33.81,33.81,0,0,1-7.17,7.31l-2.71-2.62a31.75,31.75,0,0,0,4.25-3.54,28.83,28.83,0,0,0,3-3.51,19.58,19.58,0,0,0,1.91-3.24,12.5,12.5,0,0,0,.92-2.7c-.5,0-1,.07-1.45.07H20.27V11h3.32l3,0c1,0,2.18,0,3.4-.09A20.79,20.79,0,0,1,27.45,19.74Z"/>
</svg>
