<svg id="레이어_1" data-name="레이어 1" xmlns="http://www.w3.org/2000/svg" viewBox="0 0 27.71 39.79">
  <defs>
    <style>
      .cls-1 {
        fill: #1e1e29;
      }

      .cls-2 {
        fill: #e8e8e8;
      }

      .cls-3 {
        fill: #313142;
      }

      .cls-4 {
        opacity: 0.1;
      }

      .cls-5 {
        fill: #f5f5f5;
      }

      .cls-6 {
        fill: #ed9d6c;
      }

      .cls-7 {
        fill: #2b221c;
      }

      .cls-8 {
        fill: #ffb97f;
      }

      .cls-9 {
        fill: #bc551e;
        opacity: 0.3;
      }

      .cls-10 {
        fill: #a82807;
        opacity: 0.4;
      }

      .cls-11 {
        fill: #634f40;
      }

      .cls-12 {
        fill: #b54319;
        opacity: 0.5;
      }

      .cls-13 {
        fill: #1f1a17;
      }

      .cls-14 {
        fill: #ffcb9e;
      }

      .cls-15 {
        fill: #a87f7f;
      }

      .cls-16 {
        fill: #8f2724;
      }

      .cls-17 {
        fill: #fff9f0;
      }

      .cls-18 {
        fill: #f58c53;
      }

      .cls-19 {
        fill: #e8dac5;
      }
    </style>
  </defs>
  <title>1</title>
  <g>
    <g>
      <path class="cls-1" d="M8.52,39.79h4.6l-.46-7.55C9.4,33.75,8.4,34.11,8.52,39.79Z" transform="translate(-6.15)"/>
      <path class="cls-1" d="M27.86,32.24l-.46,7.55H32C32.12,34.11,31.12,33.75,27.86,32.24Z" transform="translate(-6.15)"/>
      <path class="cls-2" d="M25.6,31.3a11.59,11.59,0,0,0-10.38.27c-2.59,1.69-2.48,4.32-1.9,8.22h14C28,35.89,28.13,32.67,25.6,31.3Z" transform="translate(-6.15)"/>
      <path class="cls-3" d="M21.76,35.41A1.52,1.52,0,0,0,20,34.63a1.61,1.61,0,0,0-1.35,1.23l1,1-.78,2.95h3.08l-.75-3.15Z" transform="translate(-6.15)"/>
      <path class="cls-1" d="M28.52,32.83c-.28-.74-3.58-1.85-3.58-1.85a32.25,32.25,0,0,0-1.05,8.81h4.4A54.31,54.31,0,0,0,28.52,32.83Z" transform="translate(-6.15)"/>
      <path class="cls-1" d="M15.58,31s-3.3,1.11-3.58,1.85a54.31,54.31,0,0,0,.23,7h4.4A32.64,32.64,0,0,0,15.58,31Z" transform="translate(-6.15)"/>
      <path class="cls-4" d="M15.81,33.39a6.59,6.59,0,0,0,2.86,3.39l1.58-1.73,2.07,1.72a5.29,5.29,0,0,0,2.8-3.93C25.14,31.79,15.16,31.23,15.81,33.39Z" transform="translate(-6.15)"/>
      <path class="cls-5" d="M15.83,30.82c-1.76,2.38,2.7,5.39,2.7,5.39l1.73-1.37,2,1.43s4-2.23,2.6-5.21C23.54,28.37,17.61,28.42,15.83,30.82Z" transform="translate(-6.15)"/>
      <path class="cls-6" d="M23.44,28.2a6.38,6.38,0,0,0-4.63-.73,3.22,3.22,0,0,0-2.42,2.94c-.12,1.7,2.37,4,4.1,4C21.8,34.45,27.33,31.29,23.44,28.2Z" transform="translate(-6.15)"/>
      <path class="cls-3" d="M24.89,30.83a27.36,27.36,0,0,0-1,8.75c.05.34,4-4.37,3.95-4.51a13.48,13.48,0,0,0-1.52-1.26L28,31.9A8.88,8.88,0,0,0,24.89,30.83Z" transform="translate(-6.15)"/>
      <path class="cls-3" d="M12.54,31.9l1.63,1.91a13.48,13.48,0,0,0-1.52,1.26c0,.14,3.93,4.91,4,4.57a28,28,0,0,0-1-8.81A8.88,8.88,0,0,0,12.54,31.9Z" transform="translate(-6.15)"/>
    </g>
    <g>
      <path class="cls-7" d="M31.17,6.56C27.66,3.29,24.73.72,18.43,1.38c.12-.46.23-.91.37-1.38A7.55,7.55,0,0,0,16,1.55S13.53,1.2,12.71,2a14.58,14.58,0,0,1,1.81.64c-1.42.16-7.62,3.5-8.37,10.93.13-.2,1.15-1.37,1.32-1.53a15,15,0,0,0,.34,4.49c.31,1.15.94,2.56,2.41,2.35,2.43-.36,4.86-.84,7.29-1.3a13.15,13.15,0,0,1,7.24.36c1.67.69,3.09,1.84,5,.28,1.44-1.2,1.37-2.76,1.84-4.45.26.12,1.37.9,1.61,1.07a18.53,18.53,0,0,0-1.27-5.39c.61-.18,1.38,0,2-.38C33,8.19,32.06,7.38,31.17,6.56Z" transform="translate(-6.15)"/>
      <path class="cls-8" d="M20,4.74c-5.79.07-11.77,6-10.33,12.88.75,3.56.66,4.42,1.87,8s4.67,6.07,9.61,6.16c8.37.14,9.59-7.38,9.51-14.42S25.76,4.68,20,4.74Z" transform="translate(-6.15)"/>
      <path class="cls-8" d="M8,16.22c-2.9.56-2,4.2.22,5a6.06,6.06,0,0,0,2.28.32l.05-.06c.38-.45,0-2.87-.17-3.37C10.08,16.87,9.43,16,8,16.22Z" transform="translate(-6.15)"/>
      <path class="cls-9" d="M27.54,8.56a25.94,25.94,0,0,0-8.31-.48c-1.94.22-4.82-.61-6.6.12-1.17.48-1.66,2.21-2.26,3.55-.37.79-1,6.42.32,5.59.46-.29,1.91-5.64,2.24-6.78a35,35,0,0,0,13.32,1.56s-.34-.68-.55-1.08c.32.61,3,.57,3.57.27C30.2,10.85,28.55,8.78,27.54,8.56Z" transform="translate(-6.15)"/>
      <path class="cls-7" d="M29.7,7.31A13,13,0,0,0,24.62,4.9c-3.09-.61-5.44-1.34-8.64.21a13,13,0,0,0-5.77,6A10.2,10.2,0,0,0,9,15.64c0,1,1.62,3.22,1.86,1.75.35-2.11.06-4.25,2-8,3.55,1.59,10,1.87,12.2,2.05a6.25,6.25,0,0,1-.9-1.11,14.28,14.28,0,0,0,2.66.42,5.32,5.32,0,0,0,2.88,0C31.35,9.9,30.77,8.12,29.7,7.31Z" transform="translate(-6.15)"/>
      <path class="cls-10" d="M9.47,17.65c-.71-.39-2.7-.27-2,1,.68-.92,1.38-.11,1.11.58-.18.47-.89.35-.31,1.09a1.65,1.65,0,0,0,1.53.3C11.11,20.24,10.34,18.12,9.47,17.65Z" transform="translate(-6.15)"/>
      <path class="cls-11" d="M22.89,2.13a12.55,12.55,0,0,0-5.49,0c0-.29.06-.59.09-.88a3.3,3.3,0,0,0-1,.79L14.25,2a2.36,2.36,0,0,1,1.4.87A15.27,15.27,0,0,0,10,6.48a9,9,0,0,0,1.43-.21A15,15,0,0,0,8.88,9.21a19.06,19.06,0,0,0,4.7-2.45,38.49,38.49,0,0,0,8.81,2.66c-.19-.51-2.46-1.83-3.41-3C22,7.32,29.08,9,29.08,9s-5.52-4.13-5.49-4.12c1,.3,6,2.46,7.1,2.22C29.33,5.46,24.48,2.6,22.89,2.13Z" transform="translate(-6.15)"/>
    </g>
    <g>
      <path class="cls-12" d="M13.94,17.85c0,.44,1,.24,1.34.31-.27.27-1.06.27-1.38.45s-.31.34.1.33a7.48,7.48,0,0,0,1.79-.47C16.54,17.84,14.28,17.76,13.94,17.85Z" transform="translate(-6.15)"/>
      <path class="cls-12" d="M29.44,18.3c-.25-.19-.91-.21-1.1-.49.26-.06,1.08.18,1.16-.26-.28-.1-2.18-.08-1.62.56a5,5,0,0,0,1.44.51C29.66,18.64,29.71,18.51,29.44,18.3Z" transform="translate(-6.15)"/>
      <path class="cls-13" d="M16.65,16c-1.4-.62-2.32,1.89-1.36,2.72a2,2,0,0,1,1.39.13A1.73,1.73,0,0,0,16.65,16Z" transform="translate(-6.15)"/>
      <path class="cls-12" d="M22.36,20.14c-.71,0-1-.26-1.49,0s.21,1.3,1.46,1.24,1.82-1,1.54-1.32S23.15,20.12,22.36,20.14Z" transform="translate(-6.15)"/>
      <path class="cls-14" d="M21.94,16.12c-.62,0-.74,1.7-1,2.49s-.36,1.54,0,1.77a3,3,0,0,0,2.93-.21c.19-.17.11-1-.24-1.82S22.63,16.08,21.94,16.12Z" transform="translate(-6.15)"/>
      <path class="cls-13" d="M28,16c-1.44-.79-2.59,2.28-1,2.68a1.82,1.82,0,0,1,1.24-.35A1.64,1.64,0,0,0,28,16Z" transform="translate(-6.15)"/>
      <path class="cls-15" d="M16.24,16.31c-.57.19-.15,1.31.41.91S16.75,16.14,16.24,16.31Z" transform="translate(-6.15)"/>
      <path class="cls-15" d="M27.63,16.35c-.55.14-.24,1.21.32.88C28.35,17,28.12,16.23,27.63,16.35Z" transform="translate(-6.15)"/>
      <path class="cls-12" d="M27,22.37c-.25.05.21.14.8.3a.34.34,0,0,1,.23.15c-2.86.85-9.11,1.17-12.9-.17l.11-.08c.58-.32,1.39-.31,1.17-.44a4.69,4.69,0,0,0-1.91.23c-.5.28-.52,1.24-.13,1.29s.34-.47.61-.83c.25,1.05,1.53,5.18,6.17,5.4,3.5.16,4.62-.95,4.81-2.66.11-.95,1.35-2.08,2.11-2.62.06.29-.17.7.1.74s.78-.53.54-1.05S27,22.37,27,22.37Z" transform="translate(-6.15)"/>
      <path class="cls-16" d="M15.79,23.38s1.38,4.31,5.53,4.31c3.74,0,4.22-1.45,4.41-2.46A2.69,2.69,0,0,1,27,23.37,22.51,22.51,0,0,1,15.79,23.38Z" transform="translate(-6.15)"/>
      <path class="cls-17" d="M17.14,23.87a2.22,2.22,0,0,0,1.27,1.94,8.27,8.27,0,0,0,5.34.4c1.27-.31,2.06-2.38,2.06-2.38A35.9,35.9,0,0,1,17.14,23.87Z" transform="translate(-6.15)"/>
      <path class="cls-17" d="M22.28,26.17a11.59,11.59,0,0,1-4.11-.68c-.69-.3-.71.09-.59.45,0,0,.19,1.42,3.41,1.78,2.82.3,4.11-1.46,3.8-1.84S24.05,26.2,22.28,26.17Z" transform="translate(-6.15)"/>
      <path class="cls-18" d="M29.55,19.81a2.43,2.43,0,0,0-2.09-.5c-.85.1-1.94.54-1,1.67.48.6,3.93.66,3.35-.79A1.43,1.43,0,0,0,29.55,19.81Z" transform="translate(-6.15)"/>
      <path class="cls-18" d="M16.88,19.77a2.61,2.61,0,0,0-2.21-.45c-.89.13-2,.64-1,1.79.53.61,4.16.55,3.5-.95A1.56,1.56,0,0,0,16.88,19.77Z" transform="translate(-6.15)"/>
      <path class="cls-19" d="M17.13,23.85a2.36,2.36,0,0,0,.12.61s6.73-.46,8.2.13a3.59,3.59,0,0,0,.36-.76A42.18,42.18,0,0,1,17.13,23.85Z" transform="translate(-6.15)"/>
      <path class="cls-19" d="M18.53,25.51a7.9,7.9,0,0,0,5.88.28A12.1,12.1,0,0,1,18.53,25.51Z" transform="translate(-6.15)"/>
      <path class="cls-7" d="M16.31,12.6a29.93,29.93,0,0,0-3.13,1.86c.17.48.56.49,1,.36a17.23,17.23,0,0,1,2.76-.66c.49.15,1.9.27,2.22-.33S16.64,12.5,16.31,12.6Z" transform="translate(-6.15)"/>
      <path class="cls-7" d="M24.82,14.17c.27.59,1.53.44,2,.28a13.61,13.61,0,0,1,2.44.61c.36.12.71.11.88-.37a21,21,0,0,0-2.76-1.8C27.07,12.79,24.52,13.52,24.82,14.17Z" transform="translate(-6.15)"/>
    </g>
  </g>
</svg>
