<svg id="레이어_1" data-name="레이어 1" xmlns="http://www.w3.org/2000/svg" viewBox="0 0 39.97 39.54">
  <defs>
    <style>
      .cls-1 {
        fill: #d8d8d8;
      }

      .cls-1, .cls-2, .cls-3, .cls-5 {
        fill-rule: evenodd;
      }

      .cls-2 {
        fill: #518c21;
      }

      .cls-3 {
        fill: #aedff4;
      }

      .cls-4 {
        fill: #ffda00;
      }
    </style>
  </defs>
  <title>1</title>
  <polygon class="cls-1" points="37.54 38.71 0.94 37.77 0.94 31.56 39.03 31.56 37.54 38.71"/>
  <path class="cls-2" d="M.38,22.48l6.29-6.64,13.2,11.42,8.21-5.83,10.12,6.3L38.78,32S1.63,31.53.71,32.19Z" transform="translate(0 -0.23)"/>
  <polygon class="cls-3" points="1.02 21.57 1.18 2.49 2.82 0.49 37.57 0.57 39.33 2.88 38.91 27.5 28.03 20.98 20.38 26.77 6.43 15.35 1.02 21.57"/>
  <circle class="cls-4" cx="25.6" cy="11.56" r="5.28"/>
  <path class="cls-5" d="M39.61,8.83c.16-1.47.3-2.94.35-4.42a5.46,5.46,0,0,0-.08-1.23.41.41,0,0,0,0-.19A3,3,0,0,0,37.79.72c-2.13-.77-4.75-.4-7-.4H22.11c-6,0-12-.13-18.06,0C2.22.32.7.86.34,2.83-.14,5.43.22,8.38.21,11L.12,28.92l0,4.23a21.76,21.76,0,0,0,.06,4.42c.4,1.92,2.35,1.66,3.9,1.68l17.77.22,9.05.12c2.05,0,5.08.64,6.89-.59s1.76-4.24,1.8-6.18c.07-3.17-.16-6.36-.19-9.54q-.06-7.23.24-14.45Zm-8.52,1.41c.38,3.56-1.05,7-5,7.32a5.72,5.72,0,0,1-6.5-6,4.81,4.81,0,0,1,1.71-4,5.58,5.58,0,0,1,2.92-1.32c2.68-1.19,6.58,1.2,6.88,4Zm-5,5.87c-2.27.22-4.53-.92-5-3.24a5.52,5.52,0,0,1,.19-3.17,4.63,4.63,0,0,1,2.41-2.09.7.7,0,0,0,.79.08,2.3,2.3,0,0,1,.5-.18l.2.07a.69.69,0,0,0,.7-.12A5.66,5.66,0,0,1,27.78,8a3.08,3.08,0,0,1,1.89,3.05c.08,2.51-.82,4.76-3.62,5ZM1.66,3.69c.16-2.25,2.06-2,3.7-2H8.59l7.75,0,16.78.05a19.72,19.72,0,0,1,3.35.11,3.36,3.36,0,0,1,1.31.42c.95.64.72,1.78.67,2.76-.14,2.7-.13,5.4-.21,8.09a.41.41,0,0,0,0,.11c0,1.54-.09,3.08-.11,4.63,0,3,0,5.91.1,8.86-1.54-1-3.09-2.06-4.64-3.07-.89-.59-1.79-1.17-2.68-1.74a9.09,9.09,0,0,0-2.17-1.31c-1.31-.36-2.42,1-3.35,1.72l-5,3.88Q14.47,21.85,8.93,17C8,16.16,7,14.71,5.82,15.75a25.61,25.61,0,0,0-2.36,2.81l-1.9,2.25c0-.78,0-1.56,0-2.34,0-4.89-.25-9.9.09-14.78ZM38.28,31.21q-9.22-.3-18.44-.27c-6.1,0-12.25,0-18.34.35,0-2.86,0-5.71.05-8.57,0,0,0,0,0,0,1.34-1.54,2.66-3.08,4-4.61,0,0,1-1.34,1-1.33s.79.74.9.84c.83.77,1.67,1.53,2.51,2.28,3.16,2.79,6.46,5.41,9.85,7.92a.82.82,0,0,0,.94.1l4.13-3.2L27,23.08c1-.77,1.23-1,2.37-.29q4.44,2.85,8.8,5.79l.11.06c0,.85,0,1.71,0,2.57Zm-.35,4.94a2.55,2.55,0,0,1-2.7,2.18c-2.51.14-5.1-.07-7.62-.11L12.75,38l-7.11-.11c-1.06,0-3.59.43-4.16-.77a4.17,4.17,0,0,1,0-1.41c0-.75,0-1.51,0-2.27V32.6c6.12-.07,12.24-.37,18.37-.4s12.27,0,18.41.18A16.5,16.5,0,0,1,37.93,36.15Z" transform="translate(0 -0.23)"/>
</svg>
