<svg id="레이어_1" data-name="레이어 1" xmlns="http://www.w3.org/2000/svg" viewBox="0 0 40 40">
  <title>1</title>
  <path d="M20,40A20,20,0,1,1,40,20,20,20,0,0,1,20,40ZM20,3.66A16.34,16.34,0,1,0,36.34,20,16.36,16.36,0,0,0,20,3.66Z"/>
  <g>
    <polygon points="19.3 11.49 19.3 15.68 13.51 15.68 13.51 24.36 19.29 24.36 19.29 28.65 8.99 28.65 8.99 11.49 19.3 11.49"/>
    <polygon points="24.43 24.36 24.43 15.68 31.04 15.68 31.04 11.49 19.94 11.49 19.94 28.65 31.38 28.65 31.38 24.36 24.43 24.36"/>
  </g>
  <rect x="19.29" y="11.49" width="0.01" height="4.19"/>
</svg>
