<svg id="레이어_1" data-name="레이어 1" xmlns="http://www.w3.org/2000/svg" viewBox="0 0 35.45 40">
  <defs>
    <style>
      .cls-1 {
        fill: #576d64;
      }

      .cls-1, .cls-2 {
        fill-rule: evenodd;
      }
    </style>
  </defs>
  <title>1</title>
  <path class="cls-1" d="M11.65,30s-4.55-3.2-7.79,2.09c0,0-4.07,6.23,5.47,7.61,0,0,7-2.81,5.18-10.25l-.09-14,1.07-1.18L34.13,9V23.54s-6.69-3.64-8.43,3.73c0,0-.93,5.88,5.38,5.94,0,0,5.34-.86,5.73-8.42,0,0,.16-21.33-.18-23.89L11,8.28Z" transform="translate(-2.27 0)"/>
  <path class="cls-2" d="M37.41.69A.71.71,0,0,0,36.5,0L11.08,7.67a.73.73,0,0,0-.51.7c.16,6.79.39,13.57.6,20.35a4.21,4.21,0,0,0-1-.41.45.45,0,0,0-.43.05c-2.71-.67-5.75,1.47-7,4C.93,36.24,4.37,40.05,8.27,40c4.42-.06,7.08-4,7.11-8.06,0-2.84-.18-5.71-.29-8.56l-.15-4.31-.07-2c0-1.07-.26-1.63.73-2.13a31.53,31.53,0,0,1,4.32-1.5c1.54-.51,3.09-1,4.65-1.43q4.35-1.26,8.78-2.23l-.06,12.89a6.19,6.19,0,0,0-7.11,1.83,6,6,0,0,0,9.39,7.39,7.56,7.56,0,0,0,1.65-4.81c.21-2.65.32-5.31.4-8q.3-9.19-.21-18.4ZM36.28,15.57c0,2.47-.12,4.94-.24,7.42-.11,2.19.19,5.17-.95,7.13a4.59,4.59,0,0,1-8.5-1.25c-.86-4.06,3.83-6.63,7.06-4.38a.73.73,0,0,0,1.07-.65l.06-15a.73.73,0,0,0-.92-.67,137,137,0,0,0-16.5,4.65c-1,.36-2.62.61-3.42,1.38a2.42,2.42,0,0,0-.47,2c.06,3,.21,6,.31,8.92s.66,6.05.05,8.82a6,6,0,0,1-5.58,4.69c-3.08.07-5.8-2.84-4.27-5.87,1.25-2.48,4.7-4.76,7.13-2.39a.6.6,0,0,0,.25.15.6.6,0,0,0,1-.4C12.27,23.05,12.17,16,12,8.88L36,1.65C36.26,6.29,36.35,10.93,36.28,15.57Z" transform="translate(-2.27 0)"/>
</svg>
