<svg id="레이어_1" data-name="레이어 1" xmlns="http://www.w3.org/2000/svg" viewBox="0 0 40 22.42">
  <defs>
    <style>
      .cls-1 {
        fill: #576d64;
      }

      .cls-1, .cls-2 {
        fill-rule: evenodd;
      }
    </style>
  </defs>
  <title>1</title>
  <g>
    <polygon class="cls-1" points="22.38 11.8 22.13 17.23 23.88 20.83 31.24 21.67 37.7 20.96 38.87 19.06 38.87 11.57 22.38 11.8"/>
    <polygon class="cls-1" points="0.78 11.8 1.07 19.91 2.73 21.11 13.23 20.99 17.32 19.45 17.32 11.61 1.07 11.21 0.78 11.8"/>
    <path class="cls-1" d="M2.57,18.63c-.42,1.12-1.08,2.15-1.48,3.26-.14.39.46.71.72.39a11.9,11.9,0,0,0,1.61-3.44C3.61,18.31,2.77,18.11,2.57,18.63Z" transform="translate(0 -6.72)"/>
    <path class="cls-1" d="M4.58,18.52c-1.1,2.28-2.69,4.73-3.34,7.17-.12.47.49.63.74.29A20.2,20.2,0,0,0,3.72,22.5L5.37,19C5.62,18.44,4.83,18,4.58,18.52Z" transform="translate(0 -6.72)"/>
    <path class="cls-1" d="M6.86,18.55c-1.38,3-3.3,6.11-4.13,9.28a.39.39,0,0,0,.71.28c1.82-2.68,2.9-6.17,4.21-9.13C7.88,18.45,7.1,18,6.86,18.55Z" transform="translate(0 -6.72)"/>
    <path class="cls-1" d="M9,18.51c-1.29,2.94-3,6.09-3.7,9.23a.43.43,0,0,0,.79.31C7.68,25.24,8.58,21.93,9.84,19,10.07,18.42,9.27,18,9,18.51Z" transform="translate(0 -6.72)"/>
    <path class="cls-1" d="M11.06,18.54c-1,3.09-2.43,6.1-3.38,9.21a.46.46,0,0,0,.84.33,59.75,59.75,0,0,0,3.37-9.34C12.06,18.21,11.23,18,11.06,18.54Z" transform="translate(0 -6.72)"/>
    <path class="cls-1" d="M13,18.82c-1,3-2.35,6-3.08,9-.1.46.58.76.8.32A63.55,63.55,0,0,0,13.83,19C14,18.49,13.18,18.3,13,18.82Z" transform="translate(0 -6.72)"/>
    <path class="cls-1" d="M15.31,19c-1,2.75-2.19,5.52-3,8.35-.15.52.69.88.91.36,1.14-2.77,2-5.67,3-8.49C16.42,18.65,15.52,18.44,15.31,19Z" transform="translate(0 -6.72)"/>
    <path class="cls-1" d="M17.32,19.1c-.9,2.74-2.3,5.35-3.11,8.1-.15.5.57.74.82.32,1.5-2.4,2.31-5.53,3.12-8.21C18.31,18.78,17.49,18.59,17.32,19.1Z" transform="translate(0 -6.72)"/>
    <path class="cls-1" d="M23.64,18.91a16.45,16.45,0,0,1-.75,1.91,13.28,13.28,0,0,0-.75,1.57.38.38,0,0,0,.64.36,9.39,9.39,0,0,0,1.67-3.64C24.61,18.59,23.8,18.4,23.64,18.91Z" transform="translate(0 -6.72)"/>
    <path class="cls-1" d="M25.53,18.61a60.5,60.5,0,0,0-3.13,7.1c-.17.5.63.81.86.34,1.09-2.3,2-4.7,3-7C26.54,18.53,25.78,18.1,25.53,18.61Z" transform="translate(0 -6.72)"/>
    <path class="cls-1" d="M27.38,19.11c-.64,1.49-1.27,3-1.91,4.45a22.43,22.43,0,0,0-1.59,4,.39.39,0,0,0,.72.29c1.59-2.4,2.46-5.64,3.54-8.3C28.35,19,27.6,18.59,27.38,19.11Z" transform="translate(0 -6.72)"/>
    <path class="cls-1" d="M29.78,18.82A59,59,0,0,1,26,27.65a.49.49,0,0,0,.78.57l.09-.08a.24.24,0,0,0,.09-.21A38.82,38.82,0,0,0,30.61,19C30.77,18.49,30,18.3,29.78,18.82Z" transform="translate(0 -6.72)"/>
    <path class="cls-1" d="M32.17,18.91c-1.4,2.84-3.14,5.91-3.87,9a.45.45,0,0,0,.82.32c1.52-2.8,2.47-6,3.82-8.91C33.18,18.82,32.42,18.4,32.17,18.91Z" transform="translate(0 -6.72)"/>
    <path class="cls-1" d="M34.09,19.13c-1.18,2.66-2.58,5.32-3.55,8.07-.14.42.52.67.72.28,1.34-2.55,2.32-5.36,3.46-8C34.9,19.05,34.27,18.7,34.09,19.13Z" transform="translate(0 -6.72)"/>
    <path class="cls-1" d="M36.16,19c-1.25,2.63-3,5.39-3.76,8.19-.13.44.46.61.69.28,1.61-2.39,2.59-5.46,3.77-8.08C37.07,18.92,36.39,18.53,36.16,19Z" transform="translate(0 -6.72)"/>
    <path class="cls-1" d="M38.14,18.91a73.51,73.51,0,0,0-3.75,8.49c-.15.47.54.71.77.31a72.26,72.26,0,0,0,3.67-8.41C39,18.83,38.35,18.44,38.14,18.91Z" transform="translate(0 -6.72)"/>
    <path class="cls-1" d="M39.19,21.82c-.95,1.87-2.22,3.72-3,5.66a.41.41,0,0,0,.72.4,37.08,37.08,0,0,0,3-5.7C40.05,21.75,39.41,21.39,39.19,21.82Z" transform="translate(0 -6.72)"/>
    <path class="cls-2" d="M39.3,17.7a.62.62,0,0,0-.36-.2c-1-1.64-2-3.27-3-4.9L34.14,9.68A12.34,12.34,0,0,0,32.6,7.27a1.07,1.07,0,0,0-1.92.49,12.55,12.55,0,0,0,0,2.94c0,1.22.05,2.45.11,3.67a.58.58,0,0,0,1.15,0c-.06-1.57-.09-3.14-.08-4.72a5.73,5.73,0,0,1,0-1.31V8.16a.67.67,0,0,0,.28.58c.38.7.83,1.36,1.24,2,1.39,2.29,2.77,4.6,4.18,6.88a34,34,0,0,1-3.64,0l-4.35,0q-2.4,0-4.8,0l-3.06-.11c-5.65-.19-11.3-.38-16.95-.17-.78,0-1.65,0-2.49.06,1.45-2.21,2.85-4.44,4.28-6.66A16.48,16.48,0,0,0,7.7,8.87c.17-.37.16-1.19.23-.18C8,9,8,9.4,8,9.75c0,1.59-.08,3.18-.16,4.77,0,.74,1.25.91,1.34.15a28.63,28.63,0,0,0,.16-6.54c-.13-1-.93-1.9-1.93-1.1A7.1,7.1,0,0,0,6.09,8.9l-2,3.21C3,13.94,1.86,15.76.76,17.61c-.55.22-.68.62-.72,1.33C0,20.2,0,21.49,0,22.75A14.21,14.21,0,0,0,.16,26c.41,1.8,2,2.56,3.66,2.75a45.36,45.36,0,0,0,8.24.09c2.16-.14,4.68-.59,5.72-2.76a9.37,9.37,0,0,0,.57-3.24c.11-1.3.13-2.6.12-3.91l2.43,0h.75c-.14,2.72-.76,6.54,1.4,8.51S28.79,29,31.43,29s6.74.83,8-2.28a12.79,12.79,0,0,0,.53-4.4c0-1.44.35-3.47-.63-4.65ZM16.72,24.57c-.44,2.53-3.12,2.75-5.23,2.87a57.59,57.59,0,0,1-6.7,0,4.59,4.59,0,0,1-2.6-.65c-.89-.74-.78-2-.79-3s0-2,0-3a4.63,4.63,0,0,1,0-1.53c.28-.6,1.25-.46,1.79-.49l1.11-.05c4.25.12,8.51.22,12.75.3a29.62,29.62,0,0,1-.31,5.65Zm21.65-1.65c0,1.14.07,2.77-.63,3.74s-2.27.88-3.41.87l-4.27,0c-1.92,0-4.83.33-6.28-1.27-.91-1-.87-2.47-.88-3.73V19c2.41,0,4.82.1,7.24.12,2.66,0,5.58.4,8.23,0a7.84,7.84,0,0,1,0,1.67C38.4,21.49,38.4,22.21,38.37,22.92Z" transform="translate(0 -6.72)"/>
  </g>
</svg>
