<svg id="레이어_1" data-name="레이어 1" xmlns="http://www.w3.org/2000/svg" xmlns:xlink="http://www.w3.org/1999/xlink" viewBox="0 0 32.3 40.01">
  <defs>
    <style>
      .cls-1 {
        fill: #ffc38f;
      }

      .cls-2 {
        fill: #ebebeb;
      }

      .cls-3 {
        fill: #3a3a4a;
      }

      .cls-4 {
        opacity: 0.1;
      }

      .cls-5 {
        fill: #fbfbfb;
      }

      .cls-6 {
        fill: url(#linear-gradient);
      }

      .cls-7 {
        fill: #3d1f12;
      }

      .cls-8 {
        fill: #de3e78;
      }

      .cls-9 {
        fill: #139e9b;
        opacity: 0.5;
      }

      .cls-10 {
        fill: #d94c18;
      }

      .cls-10, .cls-11 {
        opacity: 0.3;
      }

      .cls-11 {
        fill: #bf3c1b;
      }

      .cls-12 {
        fill: #78452f;
      }

      .cls-13 {
        fill: #ff7752;
      }

      .cls-14 {
        fill: #f04d4d;
        opacity: 0.8;
      }

      .cls-15 {
        fill: #b32f29;
      }

      .cls-16 {
        fill: #fff9f0;
      }

      .cls-17 {
        fill: #e8dac5;
      }

      .cls-18 {
        fill: #1f1a17;
      }

      .cls-19 {
        fill: #a87f7f;
      }

      .cls-20 {
        fill: #121b21;
      }
    </style>
    <linearGradient id="linear-gradient" x1="20.68" y1="30.12" x2="20.68" y2="33.5" gradientUnits="userSpaceOnUse">
      <stop offset="0" stop-color="#ee996d"/>
      <stop offset="0.02" stop-color="#ee9a6e"/>
      <stop offset="0.37" stop-color="#f8b181"/>
      <stop offset="0.71" stop-color="#fdbf8d"/>
      <stop offset="1" stop-color="#ffc491"/>
    </linearGradient>
  </defs>
  <title>1</title>
  <g>
    <path class="cls-1" d="M17,33.45l-1-1.92c-1.49.76-1.79,2.37-2.11,4.07A9.89,9.89,0,0,1,12.24,40h2.53A14.46,14.46,0,0,0,16,36C16.24,34.59,16.43,33.72,17,33.45Z" transform="translate(-3.85 0.01)"/>
    <path class="cls-1" d="M24.82,31.53l-1,1.92c.52.27.71,1.14,1,2.55A14.13,14.13,0,0,0,26,40h2.53a9.77,9.77,0,0,1-1.63-4.4C26.61,33.9,26.31,32.29,24.82,31.53Z" transform="translate(-3.85 0.01)"/>
    <g>
      <path class="cls-2" d="M25.33,37.89a10.67,10.67,0,0,0-.6-6.91,10.1,10.1,0,0,0-8.9.27,13.2,13.2,0,0,0-.05,6.42A13.49,13.49,0,0,1,16.16,40h8.89A14,14,0,0,1,25.33,37.89Z" transform="translate(-3.85 0.01)"/>
      <path class="cls-3" d="M21,36l1.09-1.08a1.6,1.6,0,0,0-1.53-1,1.63,1.63,0,0,0-1.75.91L19.92,36l-1.39,2.64,1,1.37h1.74l1.19-1.42Z" transform="translate(-3.85 0.01)"/>
      <path class="cls-4" d="M16.8,32.66a5.85,5.85,0,0,0,2.31,3.13l1.28-1.6,1.68,1.59a4.88,4.88,0,0,0,2.27-3.63C24.36,31.19,16.28,30.67,16.8,32.66Z" transform="translate(-3.85 0.01)"/>
      <path class="cls-5" d="M16.82,30.29c-1.43,2.2,2.18,5,2.18,5L20.4,34,22,35.32s3.27-2,2.11-4.81C23.06,28,18.26,28.07,16.82,30.29Z" transform="translate(-3.85 0.01)"/>
      <path class="cls-6" d="M19.54,27.67A2.74,2.74,0,0,0,18,30.24c-.07,1.48,1.51,3.46,2.61,3.5.83,0,4.35-2.74,1.88-5.43A3.12,3.12,0,0,0,19.54,27.67Z" transform="translate(-3.85 0.01)"/>
    </g>
    <g>
      <path class="cls-7" d="M33.72,15c1.68-.45,3.6-4.15.73-3.94.77,1.16-1.07,1.7-1.67.82a.61.61,0,0,1-.1-.22C32.59,10.24,31.1,9.24,30,8.34A15.68,15.68,0,0,0,24,5.47c-3.73-.86-8.19-.65-11.16,1.83-1.19,1-2.24,3.08-3.89,3.48-2,.48-3.16,2.56-1.55,3.86a1.17,1.17,0,0,1-1.78-.88c-1.75,1.22-2.41,3.59,0,4.67-2.83,1.47-2.13,4.46.9,5.76-1.42,1.33-.69,3.58.73,4.47-.11-.94.77-3,2.38-2,1,.65.47,2.41-.88,1.53-.36,1.59,2.31,2.58,3.1,1.25-.09,1.19.72,1.66,1.82,1.59,1.63-.11,2.2-1.21,3.3-1.55A16.79,16.79,0,0,1,21.46,29c2.71-.05,5.05,2.64,7.75,1.47a2,2,0,0,0,1.43-2.13c-.74.52-2.67-.24-1.09-1.48.78-.62,1.95,0,2.75-.51s.56-2.54.62-2.58c.68-.43,1.8-.46,1.87.73,1.4-2.76.07-3.53-1.42-3.74C36.68,20.28,37.32,15.69,33.72,15Z" transform="translate(-3.85 0.01)"/>
      <path class="cls-8" d="M30.93,22.85a1,1,0,0,0-.92,1,.91.91,0,0,0,.95.91,1,1,0,0,0,.92-1A.91.91,0,0,0,30.93,22.85Z" transform="translate(-3.85 0.01)"/>
      <path class="cls-1" d="M20.37,5.16c-5.51.51-9.79,5.22-9.45,12.67s5.72,13.38,11.54,12.73c4.83-.54,9-6.59,8-14.74C29.68,8.51,25.87,4.66,20.37,5.16Z" transform="translate(-3.85 0.01)"/>
      <path class="cls-9" d="M28.76,15.26a2.21,2.21,0,0,0-1.4,1,1.87,1.87,0,0,1,1.17-.1c.3.05.55.25.85.31.57.11,1.64.09,1.23-.79C30.36,15.12,29.47,15.1,28.76,15.26Z" transform="translate(-3.85 0.01)"/>
      <path class="cls-1" d="M9.5,16.65c-2.39,1.1-1.28,5.23.73,5.84a3.83,3.83,0,0,0,2,0,.3.3,0,0,1,0-.08c.27-.59-.34-3.36-.51-3.92C11.3,17.08,10.65,16.12,9.5,16.65Z" transform="translate(-3.85 0.01)"/>
      <path class="cls-10" d="M10.87,18.09c-.65-.34-2.32.11-1.61,1.46.47-1.18,1.15-.35,1,.51-.11.57-.72.54-.15,1.32.31.42,1,.31,1.33.11C12.54,20.88,11.65,18.51,10.87,18.09Z" transform="translate(-3.85 0.01)"/>
      <path class="cls-11" d="M18.32,8.06a16.34,16.34,0,0,0-4.2,1.4c-2,1-2.08,2-3,3.91-.48,1-1.65,1.91-.53,2.9-1.13.43-1.39,2.38-.68,3.26a1.21,1.21,0,0,0,.74.47,1.9,1.9,0,0,0-.15,1.66c.27.62.76,1.17,1.38,1.05a3.76,3.76,0,0,0,.56,1.78,2.17,2.17,0,0,0,3.06.61,1.24,1.24,0,0,0-.34-2.23c-.1.32-.47.65-.8.4s.14-1.37.13-1.79c0-1.14-.72-.7-1.37-1.29.33-.32.8-.69.79-1.24s-.49-.79-.9-1.15c-.7-.59-.49-.48-.11-1.11.46-.78.75-1.8-.18-2.4a1,1,0,0,0,1-.74c.8.43,1.75-.42,2-1.15-.08.22.89-.2,1-.24A2.71,2.71,0,0,0,17.36,11c.07,1,1.12,1.7,1.93.91.53,1.26,1.59,1.22,2.76.93.4,1.45-.82.85-1.23,1.58-.69,1.2,1.78,1.72,2.44,1.49A1.93,1.93,0,0,0,24.42,14c.09.94,1.44.5,1.92.15a1.38,1.38,0,0,0,2.46.7c.17,2.18,3,2.15,2.44-.39C29.94,8.57,23.71,7.06,18.32,8.06Z" transform="translate(-3.85 0.01)"/>
      <path class="cls-7" d="M32,5.69c1.2-2.54-3.78-4.48-5.67-3.1C26-.53,22.06-.72,20.19,1.5A3.74,3.74,0,0,0,17.7.05a3.16,3.16,0,0,0-2.95.86c1,0,2.81,2-.34,1.72-1.3-.12-2.07-.62-3.38.09-1,.57-1.77,1.58-.77,2.55,0,0-2.33-.13-2.69,2-.14.87.21,1.08-.65,1.73A2,2,0,0,1,5,9.44a3.45,3.45,0,0,0,1.19,2.23,2.37,2.37,0,0,0,2.57.07c-.09.54,1.5,5.08,2.2,4.59-1.15.8-1.65,2.4-.51,3.13a2.22,2.22,0,0,0,.66.28c-1.74.65-.36,3.26,1.36,2.4C11,23.93,15.4,26,15.5,23.87a1.32,1.32,0,0,0-.95-1.33c.3.06.41,1.37-.37,1C13,23.1,15,21.52,14,20.87c-.52-.32-2,0-1.47-.93.4-.68,1.26-1,.23-1.86-.31-.25-.84-.28-.87-.76s.53-.65.73-.94c.73-1-.39-2.22-1.31-2.59.59,0,2.26.25,2.07-.87.92.81,2.28-.33,1.91-1.43.17.5,1,.34,1.35.14.55-.38.5-1.11.78-1.66a1.89,1.89,0,0,0,.8,1.5,1,1,0,0,0,1.49-.39c.35,1.22,1.55,2.21,2.61,1a1.59,1.59,0,0,1,0,1.58c-.51.69-1.18,0-1.61.29s.44,1.26.8,1.38a2.12,2.12,0,0,0,2.13-.73A2.79,2.79,0,0,0,24,13c.59,1,1.57,1.6,2.55.6.71.9,1.41,1.33,2.43.44.48.81.4,1.91,1.57,2.08,1.36.2,1.28-1.39,1-2.3-.31-1.15-.73-3.38.59-4.39.82-.63,2-.23,1.65.86a2.15,2.15,0,0,0,.79-3A3.45,3.45,0,0,0,32,5.69Z" transform="translate(-3.85 0.01)"/>
      <path class="cls-8" d="M11.09,23.19a.88.88,0,0,0-.85.89.84.84,0,0,0,.87.84A.89.89,0,0,0,12,24,.85.85,0,0,0,11.09,23.19Z" transform="translate(-3.85 0.01)"/>
      <path class="cls-12" d="M17.51,4.62v0S17.51,4.57,17.51,4.62Z" transform="translate(-3.85 0.01)"/>
      <path class="cls-12" d="M31.42,11.83a8.11,8.11,0,0,0-.14-1.68,1.27,1.27,0,0,0-1.52-1.09,2.47,2.47,0,0,1,3.91-.47c.44-1.57-1.48-3-3-2.57.32-.91.59-2-.31-2.75a3.26,3.26,0,0,0-3.53-.21c-.85.52-1.8,1.55-3,.8.72.44,2.44-2,.4-2.89C22.93.42,21.83,1.14,21,2a3,3,0,0,0-.69.91C19.41,1.24,18.09.23,16,.73c1.59,0,2.26,2.52.82,3.22-.83.41-1.6-.48-2.27-.79A3.83,3.83,0,0,0,12.27,3a3,3,0,0,0-1.72,1.39c1.14-.15,1.79,2.09,4.28,1.39a2.84,2.84,0,0,1-3.13.52,2.41,2.41,0,0,0-2.19-.16c-1,.58-.78,2.07-1.31,3s-.91.93-1.77,1.18A3.23,3.23,0,0,0,9,10.79c-.75.08-1.19,1.14-1.26,1.72-.08.76.57,1.36.46,2.06s-.9,1-1.45,1a1.36,1.36,0,0,0,1.47.25c.64-.22.78-1.07,1.31-1.18.72-.16,1.47,1.06,1.45,1.61,1.08-.52-.2-2.2-.83-2.69.71,0,2.66-.08,2.53-1.08.08.6,1.38,0,1.54-.33a1.16,1.16,0,0,0-.34-1.45c.41.06,1.15.44,1.47.07s-.06-1.07-.23-1.35c3.25,1.26,2.33-2.12.33-2.07,1.51-.13,1.91-.36,2.09-2.68v0s0,0,0,0v0c.11,1.35-.24,2.71,2,2.49-3.29,1.17-2,3.84,1.3,3.07-.5.12-.54,1.06.21,1.6a1.61,1.61,0,0,0,1.63-.1c.59.9.77,1.7.07,2.49.79.05,1.08-1.13,1.2-1.71.6.36,1.14.92,1.88.62.56-.22.86-.83,1.22-1.26,0,1,.38,1.73,1,1.86a1.83,1.83,0,0,0,1.81-.64,2.62,2.62,0,0,0,.77,2,1.78,1.78,0,0,0,2.22.36.87.87,0,0,1-.81-.49c1.39-.13,2.47-.87,2.35-2.3C33.42,13.06,31.48,13.29,31.42,11.83Z" transform="translate(-3.85 0.01)"/>
      <path class="cls-7" d="M25.41,9.9c.63,2.22,2.52,2.82,3.66,1C27.88,12,26,11.07,25.41,9.9Z" transform="translate(-3.85 0.01)"/>
      <path class="cls-7" d="M10.76,12.39c1.34,1.13,2.93,0,2.26-1.59A2,2,0,0,1,10.76,12.39Z" transform="translate(-3.85 0.01)"/>
      <path class="cls-7" d="M29.19,11.7c-.82,1.52.68,2.73,2.17,1.7C30.25,13.53,29.07,12.54,29.19,11.7Z" transform="translate(-3.85 0.01)"/>
      <path class="cls-7" d="M27.34,8.18A3.08,3.08,0,0,0,31.12,9l-.06-1A4.64,4.64,0,0,1,27.34,8.18Z" transform="translate(-3.85 0.01)"/>
      <path class="cls-7" d="M28.05,5.21A2.31,2.31,0,0,0,30.93,6l.17-1.15A2.92,2.92,0,0,1,28.05,5.21Z" transform="translate(-3.85 0.01)"/>
      <path class="cls-7" d="M7.51,10.84l.31,1A3,3,0,0,0,11,9.77,4.54,4.54,0,0,1,7.51,10.84Z" transform="translate(-3.85 0.01)"/>
      <path class="cls-12" d="M5.39,15.15l0-.65c-.69.75-1.18,1.6-.68,2.53.33.61,1.24,1.26,2,.74.3-.21.39-.76.46-1.08a.08.08,0,0,1,0,0C6.15,16.75,5.18,16,5.39,15.15Z" transform="translate(-3.85 0.01)"/>
      <path class="cls-12" d="M6.37,18.72l-.55.33c-1.32,0-2,2.22-1.42,3.16a2.7,2.7,0,0,0,1.76,1.1,3.22,3.22,0,0,1-.69-2.49C5.66,20.07,6.35,19.52,6.37,18.72Z" transform="translate(-3.85 0.01)"/>
      <path class="cls-12" d="M34.68,16.15a3.08,3.08,0,0,0-1.18-.49v.22c1.17,1.51,1,2.65.29,4.19,0,0,.06.06.06,0C35.49,19.44,36.27,17.24,34.68,16.15Z" transform="translate(-3.85 0.01)"/>
      <path class="cls-12" d="M33.86,21.46l-.55-.15c-.24,1.29,1.37,1,1.56,1.93C35.15,22.45,35,21.4,33.86,21.46Z" transform="translate(-3.85 0.01)"/>
      <path class="cls-12" d="M6.6,25a2.06,2.06,0,0,0,.13,2.73c0-.42.3-.74.3-1.16s-.28-.69-.23-1.13Z" transform="translate(-3.85 0.01)"/>
    </g>
    <g>
      <path class="cls-13" d="M29.79,20.7A1.81,1.81,0,0,0,28.28,20c-.67-.05-1.6.15-1.11,1.2.27.56,2.91,1.12,2.73-.14A1.13,1.13,0,0,0,29.79,20.7Z" transform="translate(-3.85 0.01)"/>
      <path class="cls-13" d="M17.38,20.5A1.87,1.87,0,0,0,15.59,20c-.75.1-1.73.55-1,1.65.38.58,3.38.62,3-.8A1.59,1.59,0,0,0,17.38,20.5Z" transform="translate(-3.85 0.01)"/>
      <path class="cls-7" d="M26,15.22c1.47.14,2.7-.3,4.91-.11C30.08,14.09,27.08,14.07,26,15.22Z" transform="translate(-3.85 0.01)"/>
      <path class="cls-10" d="M22.71,21.17c-.51,0-.71-.2-1.06,0s.42.88,1,.83,1.27-.64,1.09-.85S23.26,21.17,22.71,21.17Z" transform="translate(-3.85 0.01)"/>
      <path class="cls-7" d="M12.85,14.9c2.76.07,3.69.19,5.61.14C17.45,13.74,14.07,13.83,12.85,14.9Z" transform="translate(-3.85 0.01)"/>
      <g>
        <path class="cls-14" d="M22.31,22.92c-2,0-4.87.6-6.42-.32C18.43,27,20,27.79,22,28c2.53.19,3.42-1.57,3.82-2.9a7.7,7.7,0,0,1,2-2.32C26.25,23.1,24.7,22.87,22.31,22.92Z" transform="translate(-3.85 0.01)"/>
        <path class="cls-15" d="M17.08,23.37a5.9,5.9,0,0,0,4.67,3.05c2,.07,3.36-.6,3.75-1.58a2.75,2.75,0,0,1,1.3-1.45A19.71,19.71,0,0,1,17.08,23.37Z" transform="translate(-3.85 0.01)"/>
        <path class="cls-16" d="M18.25,23.65a1.58,1.58,0,0,0,1.2,1.24,10.2,10.2,0,0,0,4.59.27c1.08-.16,1.63-1.54,1.63-1.54A21.2,21.2,0,0,1,18.25,23.65Z" transform="translate(-3.85 0.01)"/>
        <path class="cls-16" d="M22.57,25.25a6,6,0,0,1-3.36-.57c-.51-.35-.56,0-.45.25,0,0,.45,1.21,2.84,1.53s3.51-1.13,3.25-1.38S23.91,25.22,22.57,25.25Z" transform="translate(-3.85 0.01)"/>
        <path class="cls-17" d="M18.25,23.65a1.41,1.41,0,0,0,.27.62s5.41-.39,6.69.12a2.87,2.87,0,0,0,.46-.77A24.43,24.43,0,0,1,18.25,23.65Z" transform="translate(-3.85 0.01)"/>
        <path class="cls-17" d="M19.64,24.86a5,5,0,0,0,4.25.25A7.43,7.43,0,0,1,19.64,24.86Z" transform="translate(-3.85 0.01)"/>
      </g>
      <path class="cls-18" d="M16.1,16.32c-1.46-.55-2.2,2.14-1.19,2.93a2,2,0,0,1,1.42,0C17.25,18.72,17.18,16.72,16.1,16.32Z" transform="translate(-3.85 0.01)"/>
      <path class="cls-19" d="M16.32,17.21c-.6.09-.37,1.32.25,1C17,18,16.86,17.12,16.32,17.21Z" transform="translate(-3.85 0.01)"/>
      <path class="cls-18" d="M28.89,16.34c-1.46-.93-2.74,2.5-1.12,3a1.76,1.76,0,0,1,1.28-.21C29.61,18.39,29.67,16.84,28.89,16.34Z" transform="translate(-3.85 0.01)"/>
      <path class="cls-19" d="M28.8,17.07c-.58,0-.49,1.3.13,1.07C29.38,18,29.31,17.06,28.8,17.07Z" transform="translate(-3.85 0.01)"/>
      <path class="cls-20" d="M28.93,16.27c-1.34-.52-1.78,1.08-1.78,1.08a1.25,1.25,0,0,1,1.56-.3,2.75,2.75,0,0,0,3.4-.25C30.47,17.36,29.64,16.55,28.93,16.27Z" transform="translate(-3.85 0.01)"/>
      <path class="cls-20" d="M15.12,16.39A4.3,4.3,0,0,1,11.7,17a3,3,0,0,0,3.56.13,1.39,1.39,0,0,1,1.62.12S16.52,15.68,15.12,16.39Z" transform="translate(-3.85 0.01)"/>
      <path class="cls-9" d="M15.3,15.27c-.77-.15-1.73-.12-2,.42-.45.88.71.9,1.32.77.31-.06.59-.26.91-.31a2,2,0,0,1,1.25.09A2.32,2.32,0,0,0,15.3,15.27Z" transform="translate(-3.85 0.01)"/>
    </g>
  </g>
</svg>
