<svg id="레이어_1" data-name="레이어 1" xmlns="http://www.w3.org/2000/svg" viewBox="0 0 30.43 40">
  <defs>
    <style>
      .cls-1 {
        fill: #1e6fec;
        fill-rule: evenodd;
      }

      .cls-2 {
        fill: #fff;
      }
    </style>
  </defs>
  <title>1</title>
  <g>
    <g>
      <path class="cls-1" d="M34.47,15.22c0,8-14.47,23.67-14.47,23.67S5.54,23.21,5.54,15.22a14.47,14.47,0,0,1,28.93,0Z" transform="translate(-4.78 0)"/>
      <path d="M20,40l-.55-.6c-.6-.65-14.67-16-14.67-24.18a15.22,15.22,0,0,1,30.44,0c0,8.19-14.07,23.53-14.66,24.18ZM20,1.5A13.73,13.73,0,0,0,6.29,15.22C6.29,22,17.37,34.8,20,37.76c2.64-3,13.71-15.81,13.71-22.54A13.73,13.73,0,0,0,20,1.5Z" transform="translate(-4.78 0)"/>
    </g>
    <g>
      <circle class="cls-2" cx="15.22" cy="15.22" r="6.98"/>
      <path d="M20,23a7.73,7.73,0,1,1,7.74-7.73A7.74,7.74,0,0,1,20,23ZM20,9a6.23,6.23,0,1,0,6.23,6.23A6.24,6.24,0,0,0,20,9Z" transform="translate(-4.78 0)"/>
    </g>
  </g>
</svg>
