<svg id="레이어_1" data-name="레이어 1" xmlns="http://www.w3.org/2000/svg" viewBox="0 0 40 40">
  <defs>
    <style>
      .cls-1 {
        stroke: #000;
        stroke-miterlimit: 10;
        stroke-width: 0.75px;
      }
    </style>
  </defs>
  <title>1</title>
  <path d="M20,40A20,20,0,1,1,40,20,20,20,0,0,1,20,40ZM20,3.66A16.34,16.34,0,1,0,36.34,20,16.36,16.36,0,0,0,20,3.66Z"/>
  <path class="cls-1" d="M8.94,25.06a20.55,20.55,0,0,0,4-2.47,16.2,16.2,0,0,0,2.79-2.84,13.1,13.1,0,0,0,1.72-3.11,14,14,0,0,0,.8-3.22c-1.83.05-3.66.07-5.5.07H10.13V10.87h7.51c1.22,0,2.53,0,3.93,0a25.53,25.53,0,0,1-.82,5,16.38,16.38,0,0,1-1.91,4.39A17.33,17.33,0,0,1,15.65,24,24,24,0,0,1,11,27.21Zm21.79-4.93H27.14V31.89H24.07v-23h3.07v8.57h3.59Z"/>
</svg>
