<svg id="레이어_1" data-name="레이어 1" xmlns="http://www.w3.org/2000/svg" viewBox="0 0 40 40">
  <defs>
    <style>
      .cls-1 {
        stroke: #000;
        stroke-miterlimit: 10;
        stroke-width: 0.75px;
      }
    </style>
  </defs>
  <title>1</title>
  <path d="M20,40A20,20,0,1,1,40,20,20,20,0,0,1,20,40ZM20,3.66A16.34,16.34,0,1,0,36.34,20,16.36,16.36,0,0,0,20,3.66Z"/>
  <path class="cls-1" d="M9.84,25.85,7.57,24.19a17.41,17.41,0,0,0,2.18-3.05,15.22,15.22,0,0,0,1.36-3.33,19.44,19.44,0,0,0,.64-3.8,39.32,39.32,0,0,0,0-4.49h3.05c0,1.26,0,2.44,0,3.53s-.16,2.14-.31,3.12a13.06,13.06,0,0,0,.93,2,12,12,0,0,0,1.11,1.66c-.24.5-.47,1-.69,1.39a9.75,9.75,0,0,1-.92,1.48,15.76,15.76,0,0,1-1.52-2.43,15.92,15.92,0,0,1-1.48,2.91A20.53,20.53,0,0,1,9.84,25.85ZM31,19.46H27.88V32H24.75V24.11l-2.07,1.66A22,22,0,0,1,21,23.53a17.88,17.88,0,0,1-1.28-2.32,22.51,22.51,0,0,1-1.61,3.51,17.91,17.91,0,0,1-2.2,3.09l-2.53-1.5a20,20,0,0,0,2.4-3.58,20.2,20.2,0,0,0,1.57-3.95,24,24,0,0,0,.79-4.37,35.72,35.72,0,0,0,.08-4.89h3.13c0,1.29,0,2.56-.08,3.8A35,35,0,0,1,20.84,17a17.83,17.83,0,0,0,1.55,3.51,18.35,18.35,0,0,0,2.36,3.21V8.05h3.13v8.69H31Z"/>
</svg>
