<svg xmlns="http://www.w3.org/2000/svg" xmlns:xlink="http://www.w3.org/1999/xlink" viewBox="0 0 39.89 39.89">
  <defs>
    <style>
      .cls-1 {
        isolation: isolate;
      }

      .cls-2 {
        fill: url(#linear-gradient);
      }

      .cls-3, .cls-4 {
        opacity: 0.25;
      }

      .cls-12, .cls-3, .cls-5, .cls-6, .cls-8 {
        mix-blend-mode: multiply;
      }

      .cls-3 {
        fill: url(#radial-gradient);
      }

      .cls-10, .cls-4 {
        fill: #fff;
      }

      .cls-5 {
        opacity: 0.35;
        fill: url(#linear-gradient-2);
      }

      .cls-6, .cls-8 {
        opacity: 0.5;
      }

      .cls-6 {
        fill: url(#linear-gradient-3);
      }

      .cls-7 {
        fill: #5d4037;
      }

      .cls-8 {
        fill: url(#linear-gradient-4);
      }

      .cls-9 {
        fill: #4e342e;
      }

      .cls-11 {
        fill: #f5f5f5;
      }

      .cls-12 {
        fill: #cfd8dc;
      }
    </style>
    <linearGradient id="linear-gradient" x1="19.95" y1="-0.66" x2="19.95" y2="40.64" gradientUnits="userSpaceOnUse">
      <stop offset="0" stop-color="#ffe082"/>
      <stop offset="1" stop-color="#ffbf66"/>
    </linearGradient>
    <radialGradient id="radial-gradient" cx="19.95" cy="19.95" r="19.95" gradientUnits="userSpaceOnUse">
      <stop offset="0.8" stop-color="#fff"/>
      <stop offset="1" stop-color="#ffbf66"/>
    </radialGradient>
    <linearGradient id="linear-gradient-2" x1="19.95" y1="17.69" x2="19.95" y2="40.41" xlink:href="#linear-gradient"/>
    <linearGradient id="linear-gradient-3" x1="22.86" y1="9.25" x2="31.59" y2="9.25" xlink:href="#linear-gradient"/>
    <linearGradient id="linear-gradient-4" x1="408.5" y1="9.25" x2="417.22" y2="9.25" gradientTransform="matrix(-1, 0, 0, 1, 425.81, 0)" xlink:href="#linear-gradient"/>
  </defs>
  <title>1</title>
  <g class="cls-1">
    <g id="레이어_1" data-name="레이어 1">
      <g>
        <g>
          <circle class="cls-2" cx="19.95" cy="19.95" r="19.95"/>
          <circle class="cls-3" cx="19.95" cy="19.95" r="19.95"/>
          <path class="cls-4" d="M36.4,15.19c0,7.41-7.36,0-16.45,0s-16.46,7.41-16.46,0S10.86,1.77,20,1.77,36.4,7.78,36.4,15.19Z" transform="translate(0 -0.11)"/>
          <path class="cls-5" d="M20,36A19.94,19.94,0,0,1,.1,18.06a18.67,18.67,0,0,0-.1,2,19.95,19.95,0,1,0,39.89,0,18.67,18.67,0,0,0-.1-2A19.94,19.94,0,0,1,20,36Z" transform="translate(0 -0.11)"/>
        </g>
        <g>
          <g>
            <path class="cls-6" d="M24.43,7.12c2.67.72,5.73,1.72,7.16,4.29C30,9.9,27.65,9.52,25.54,9.54c-.78,0-2,.27-2.48-.52a1.27,1.27,0,0,1,1.37-1.9Z" transform="translate(0 -0.11)"/>
            <path class="cls-7" d="M24.43,6.46c2.67.72,5.73,1.72,7.16,4.29C30,9.23,27.65,8.86,25.54,8.87c-.78,0-2,.27-2.48-.51a1.27,1.27,0,0,1,1.37-1.9C27.07,7.17,23.49,6.2,24.43,6.46Z" transform="translate(0 -0.11)"/>
          </g>
          <g>
            <path class="cls-8" d="M15.74,7.12c-2.67.72-5.72,1.72-7.15,4.29,1.59-1.51,3.93-1.89,6.05-1.87.77,0,2,.27,2.48-.52a1.27,1.27,0,0,0-1.38-1.9C13.11,7.83,16.68,6.87,15.74,7.12Z" transform="translate(0 -0.11)"/>
            <path class="cls-7" d="M15.74,6.46c-2.67.72-5.72,1.72-7.15,4.29,1.59-1.52,3.93-1.89,6.05-1.88.77,0,2,.27,2.48-.51a1.27,1.27,0,0,0-1.38-1.9C13.11,7.17,16.68,6.2,15.74,6.46Z" transform="translate(0 -0.11)"/>
          </g>
        </g>
        <g>
          <path class="cls-4" d="M13.08,21.47c-2.94,0-5.33-1.08-5.33-4a5.33,5.33,0,1,1,10.65,0C18.4,20.39,16,21.47,13.08,21.47Z" transform="translate(0 -0.11)"/>
          <path class="cls-7" d="M17.74,17.44c0,2.54-2.11,3.36-4.66,3.36S8.42,20,8.42,17.44a4.66,4.66,0,1,1,9.32,0Z" transform="translate(0 -0.11)"/>
          <path class="cls-9" d="M13.08,14.07a4.68,4.68,0,0,1,4.61,4,4.77,4.77,0,0,0,0-.66,4.66,4.66,0,1,0-9.32,0,4.77,4.77,0,0,0,.05.66A4.68,4.68,0,0,1,13.08,14.07Z" transform="translate(0 -0.11)"/>
          <path class="cls-10" d="M17.07,17.44c0,2.22-1.79,2.69-4,2.69s-4-.47-4-2.69a4,4,0,1,1,8,0Z" transform="translate(0 -0.11)"/>
          <path class="cls-11" d="M13.08,19.46c-1.83,0-3.33-.17-3.33-2a3.33,3.33,0,1,1,6.65,0C16.4,19.29,14.91,19.46,13.08,19.46Z" transform="translate(0 -0.11)"/>
          <path class="cls-10" d="M16.82,16.87c0,1.68-1.67,0-3.74,0s-3.75,1.68-3.75,0a3.66,3.66,0,0,1,3.75-3.32A3.65,3.65,0,0,1,16.82,16.87Z" transform="translate(0 -0.11)"/>
          <path class="cls-7" d="M16,16.11a1.59,1.59,0,0,1-3.18,0A1.59,1.59,0,0,1,16,16.11Z" transform="translate(0 -0.11)"/>
          <path class="cls-12" d="M13.08,14.09a4,4,0,0,1,4,3.68c0-.11,0-.22,0-.33a4,4,0,1,0-8,0c0,.11,0,.22,0,.33A4,4,0,0,1,13.08,14.09Z" transform="translate(0 -0.11)"/>
        </g>
        <g>
          <path class="cls-4" d="M27.05,21.47c-2.93,0-5.32-1.08-5.32-4a5.33,5.33,0,1,1,10.65,0C32.38,20.39,30,21.47,27.05,21.47Z" transform="translate(0 -0.11)"/>
          <path class="cls-7" d="M31.72,17.44c0,2.54-2.11,3.36-4.67,3.36s-4.66-.82-4.66-3.36a4.67,4.67,0,1,1,9.33,0Z" transform="translate(0 -0.11)"/>
          <path class="cls-9" d="M27.05,14.07a4.68,4.68,0,0,1,4.61,4,4.76,4.76,0,0,0,.06-.66,4.67,4.67,0,1,0-9.33,0,3.6,3.6,0,0,0,.06.66A4.66,4.66,0,0,1,27.05,14.07Z" transform="translate(0 -0.11)"/>
          <path class="cls-10" d="M31,17.44c0,2.22-1.78,2.69-4,2.69s-4-.47-4-2.69a4,4,0,1,1,8,0Z" transform="translate(0 -0.11)"/>
          <path class="cls-11" d="M27.05,19.46c-1.83,0-3.32-.17-3.32-2a3.33,3.33,0,1,1,6.65,0C30.38,19.29,28.89,19.46,27.05,19.46Z" transform="translate(0 -0.11)"/>
          <path class="cls-10" d="M30.8,16.87c0,1.68-1.68,0-3.75,0s-3.74,1.68-3.74,0a3.77,3.77,0,0,1,7.49,0Z" transform="translate(0 -0.11)"/>
          <path class="cls-7" d="M30,16.11a1.59,1.59,0,0,1-3.18,0A1.59,1.59,0,0,1,30,16.11Z" transform="translate(0 -0.11)"/>
          <path class="cls-12" d="M27.05,14.09a4,4,0,0,1,4,3.68c0-.11,0-.22,0-.33a4,4,0,1,0-8,0c0,.11,0,.22,0,.33A4,4,0,0,1,27.05,14.09Z" transform="translate(0 -0.11)"/>
        </g>
        <g>
          <path class="cls-4" d="M19,32.86c-.48,0-4.71,0-4.76-1.49,0-.84.86-1,2.49-1.41a19.58,19.58,0,0,0,4.73-1.52A7.53,7.53,0,0,0,25.15,25a3.09,3.09,0,0,1,2.73-1.86,3.65,3.65,0,0,1,1.71.47,2.52,2.52,0,0,1,1.33,1.73,3.66,3.66,0,0,1-.79,2.9,11.11,11.11,0,0,1-4,3.1A17.56,17.56,0,0,1,19,32.86Z" transform="translate(0 -0.11)"/>
          <path class="cls-7" d="M29.61,27.86a10.3,10.3,0,0,1-3.73,2.9C20.57,33.15,15,32,14.94,31.34s3.9-.76,6.87-2.31a8.12,8.12,0,0,0,3.93-3.69,2.37,2.37,0,0,1,3.53-1.11C30.7,25,30.5,26.71,29.61,27.86Z" transform="translate(0 -0.11)"/>
          <path class="cls-9" d="M16.65,32a21.74,21.74,0,0,0,5.16-1.64,8.17,8.17,0,0,0,3.93-3.69,2.37,2.37,0,0,1,3.53-1.11,1.87,1.87,0,0,1,.95,1.1,2,2,0,0,0-.95-2.43,2.37,2.37,0,0,0-3.53,1.11A8.12,8.12,0,0,1,21.81,29c-3,1.55-6.89,1.7-6.87,2.31C15,31.55,15.6,31.82,16.65,32Z" transform="translate(0 -0.11)"/>
        </g>
      </g>
    </g>
  </g>
</svg>
