<svg id="레이어_1" data-name="레이어 1" xmlns="http://www.w3.org/2000/svg" viewBox="0 0 40 40">
  <defs>
    <style>
      .cls-1 {
        stroke: #000;
        stroke-miterlimit: 10;
        stroke-width: 0.75px;
      }
    </style>
  </defs>
  <title>1</title>
  <path d="M20,40A20,20,0,1,1,40,20,20,20,0,0,1,20,40ZM20,3.66A16.34,16.34,0,1,0,36.34,20,16.36,16.36,0,0,0,20,3.66Z"/>
  <path class="cls-1" d="M31,19.88a12.87,12.87,0,0,1-.72,4.36,9.87,9.87,0,0,1-2.11,3.49A9.46,9.46,0,0,1,24.67,30a12.64,12.64,0,0,1-4.73.82A12.28,12.28,0,0,1,15.27,30a9.32,9.32,0,0,1-5.5-5.77,13.11,13.11,0,0,1-.71-4.36,13.24,13.24,0,0,1,.71-4.41A9.49,9.49,0,0,1,11.86,12a9.71,9.71,0,0,1,3.41-2.31,12.28,12.28,0,0,1,4.67-.83,12.64,12.64,0,0,1,4.73.83A9.78,9.78,0,0,1,28.12,12a10,10,0,0,1,2.11,3.49A13,13,0,0,1,31,19.88Zm-4.19-.05a8.61,8.61,0,0,0-.38-2.58,5.8,5.8,0,0,0-1.19-2.08,5.61,5.61,0,0,0-2.09-1.38,8.43,8.43,0,0,0-3.1-.5,8.47,8.47,0,0,0-3.12.5,5.18,5.18,0,0,0-3.27,3.46,9.22,9.22,0,0,0,0,5.17,5.49,5.49,0,0,0,1.17,2.07,5.55,5.55,0,0,0,2.1,1.39,8.47,8.47,0,0,0,3.12.5,8.43,8.43,0,0,0,3.1-.5,5.51,5.51,0,0,0,2.09-1.39,5.67,5.67,0,0,0,1.19-2.07A8.62,8.62,0,0,0,26.76,19.83Z"/>
</svg>
