<svg xmlns="http://www.w3.org/2000/svg" xmlns:xlink="http://www.w3.org/1999/xlink" viewBox="0 0 40 40">
  <defs>
    <style>
      .cls-1 {
        isolation: isolate;
      }

      .cls-2 {
        fill: url(#linear-gradient);
      }

      .cls-12, .cls-3, .cls-4 {
        opacity: 0.25;
      }

      .cls-10, .cls-12, .cls-3, .cls-5, .cls-8, .cls-9 {
        mix-blend-mode: multiply;
      }

      .cls-3 {
        fill: url(#radial-gradient);
      }

      .cls-4 {
        fill: #fff;
      }

      .cls-13, .cls-5 {
        opacity: 0.35;
      }

      .cls-5 {
        fill: url(#linear-gradient-2);
      }

      .cls-6 {
        fill: #5d4037;
      }

      .cls-7 {
        fill: #4e342e;
      }

      .cls-10, .cls-8, .cls-9 {
        opacity: 0.5;
      }

      .cls-8 {
        fill: url(#linear-gradient-3);
      }

      .cls-9 {
        fill: url(#linear-gradient-4);
      }

      .cls-10 {
        fill: url(#linear-gradient-5);
      }

      .cls-11, .cls-12 {
        fill: #d95957;
      }

      .cls-13 {
        mix-blend-mode: screen;
        fill: url(#linear-gradient-6);
      }
    </style>
    <linearGradient id="linear-gradient" x1="20" y1="-0.67" x2="20" y2="40.75" gradientUnits="userSpaceOnUse">
      <stop offset="0" stop-color="#ffe082"/>
      <stop offset="1" stop-color="#ffbf66"/>
    </linearGradient>
    <radialGradient id="radial-gradient" cx="20" cy="20" r="20" gradientUnits="userSpaceOnUse">
      <stop offset="0.8" stop-color="#fff"/>
      <stop offset="1" stop-color="#ffbf66"/>
    </radialGradient>
    <linearGradient id="linear-gradient-2" x1="20" y1="17.63" x2="20" y2="40.41" xlink:href="#linear-gradient"/>
    <linearGradient id="linear-gradient-3" x1="-231.2" y1="47.85" x2="-223.82" y2="47.85" gradientTransform="matrix(-0.98, 0.2, 0.2, 0.98, -220.59, 6.09)" xlink:href="#linear-gradient"/>
    <linearGradient id="linear-gradient-4" x1="174.42" y1="-34.99" x2="181.8" y2="-34.99" gradientTransform="translate(-153.41 6.09) rotate(11.54)" xlink:href="#linear-gradient"/>
    <linearGradient id="linear-gradient-5" x1="13.88" y1="29.03" x2="26.12" y2="29.03" xlink:href="#linear-gradient"/>
    <linearGradient id="linear-gradient-6" x1="20" y1="25.98" x2="20" y2="28.85" gradientUnits="userSpaceOnUse">
      <stop offset="0" stop-color="#fff"/>
      <stop offset="1"/>
    </linearGradient>
  </defs>
  <title>1</title>
  <g class="cls-1">
    <g id="레이어_1" data-name="레이어 1">
      <g>
        <g>
          <circle class="cls-2" cx="20" cy="20" r="20"/>
          <circle class="cls-3" cx="20" cy="20" r="20"/>
          <path class="cls-4" d="M36.5,15.12c0,7.43-7.39,0-16.5,0s-16.5,7.43-16.5,0S10.89,1.67,20,1.67,36.5,7.69,36.5,15.12Z"/>
          <path class="cls-5" d="M20,36A20,20,0,0,1,.1,18,18.86,18.86,0,0,0,0,20a20,20,0,0,0,40,0,18.86,18.86,0,0,0-.1-2A20,20,0,0,1,20,36Z"/>
        </g>
        <g>
          <path class="cls-4" d="M13,12.79a4.68,4.68,0,0,0-4.67,4.67c0,.86,0,.91.07,1a1.53,1.53,0,0,0,1.4,1A1.65,1.65,0,0,0,11,19,3.24,3.24,0,0,1,13,18.12a3.24,3.24,0,0,1,2.05.86,1.65,1.65,0,0,0,1.15.52,1.53,1.53,0,0,0,1.4-1c0-.12.07-.17.07-1A4.68,4.68,0,0,0,13,12.79Zm14,0a4.68,4.68,0,0,0-4.67,4.67c0,.86,0,.91.07,1a1.53,1.53,0,0,0,1.4,1A1.65,1.65,0,0,0,25,19,3.24,3.24,0,0,1,27,18.12a3.24,3.24,0,0,1,2.05.86,1.65,1.65,0,0,0,1.15.52,1.53,1.53,0,0,0,1.4-1c0-.12.07-.17.07-1A4.68,4.68,0,0,0,27,12.79Z"/>
          <path class="cls-6" d="M27,13.46a4.09,4.09,0,0,0-4,4.39.84.84,0,0,0,1.48.65,3.56,3.56,0,0,1,5,0c.58.54,1.48.36,1.51-.5C31.05,15.62,29.54,13.46,27,13.46Zm-14,0a4.09,4.09,0,0,0-4,4.39.84.84,0,0,0,1.48.65,3.73,3.73,0,0,1,2.52-1,3.74,3.74,0,0,1,2.49,1c.58.54,1.48.36,1.51-.5C17.05,15.62,15.54,13.46,13,13.46Z"/>
          <path class="cls-7" d="M27,13.46a4.09,4.09,0,0,0-4,4.39,1.23,1.23,0,0,0,.08.39,3.95,3.95,0,0,1,7.84.08A1.13,1.13,0,0,0,31,18C31.05,15.62,29.54,13.46,27,13.46Zm-14,0a4.09,4.09,0,0,0-4,4.39,1.23,1.23,0,0,0,.08.39,3.95,3.95,0,0,1,7.84.08A1.13,1.13,0,0,0,17,18C17.05,15.62,15.54,13.46,13,13.46Z"/>
        </g>
        <g>
          <g>
            <path class="cls-8" d="M14.51,5.63c-2.8-.24-5.68,1-5.91,4.09a3.62,3.62,0,0,1,4.31-2.35c.73.14,1.54.76,2.23.16A1.1,1.1,0,0,0,14.51,5.63Z"/>
            <path class="cls-7" d="M14.37,5c-2.79-.24-5.68,1-5.91,4.1a3.64,3.64,0,0,1,4.32-2.36c.72.15,1.54.77,2.22.17A1.1,1.1,0,0,0,14.37,5Z"/>
          </g>
          <g>
            <path class="cls-9" d="M25.49,5.63c2.8-.24,5.68,1,5.91,4.09a3.62,3.62,0,0,0-4.31-2.35c-.73.14-1.55.76-2.23.16A1.09,1.09,0,0,1,25.49,5.63Z"/>
            <path class="cls-7" d="M25.63,5c2.79-.24,5.68,1,5.91,4.1a3.64,3.64,0,0,0-4.32-2.36c-.72.15-1.54.77-2.22.17A1.1,1.1,0,0,1,25.63,5Z"/>
          </g>
        </g>
        <path class="cls-10" d="M20,33.6a7.08,7.08,0,0,1-4.68-4.08H14L13.93,29a5,5,0,0,1,0-.62,3.87,3.87,0,0,1,3.87-3.87,3,3,0,0,1,2.07.76l.18.14.18-.14a3,3,0,0,1,2.07-.76,3.87,3.87,0,0,1,3.87,3.87,5,5,0,0,1-.05.62l-.08.57H24.68A7.08,7.08,0,0,1,20,33.6Z"/>
        <g>
          <path class="cls-11" d="M25.45,28.33a3.21,3.21,0,0,0-3.2-3.21c-1.48,0-1.66.92-2.25.92s-.77-.92-2.25-.92a3.21,3.21,0,0,0-3.2,3.21,4.38,4.38,0,0,0,0,.52H25.41A4.38,4.38,0,0,0,25.45,28.33Z"/>
          <path class="cls-11" d="M20,32.93c.59,0,3.83-1.77,4.17-4.13H15.83C16.17,31.16,19.41,32.93,20,32.93Z"/>
          <path class="cls-12" d="M20,32.27a6.76,6.76,0,0,1-4-3.47h-.18c.34,2.36,3.58,4.13,4.17,4.13s3.83-1.77,4.17-4.13H24A6.76,6.76,0,0,1,20,32.27Z"/>
          <path class="cls-12" d="M24,29.46a2.93,2.93,0,0,0,.18-.66H15.83a2.93,2.93,0,0,0,.18.66Z"/>
          <path class="cls-13" d="M22.25,25.79a1.6,1.6,0,0,0-1.22.46,1.38,1.38,0,0,1-2.06,0,1.6,1.6,0,0,0-1.22-.46,2.53,2.53,0,0,0-2.53,2.4v.66h9.56v-.66A2.53,2.53,0,0,0,22.25,25.79Z"/>
        </g>
      </g>
    </g>
  </g>
</svg>
