<svg id="레이어_1" data-name="레이어 1" xmlns="http://www.w3.org/2000/svg" xmlns:xlink="http://www.w3.org/1999/xlink" viewBox="0 0 33.98 40.22">
  <defs>
    <style>
      .cls-1 {
        fill: #912907;
      }

      .cls-2 {
        fill: #801a00;
      }

      .cls-3 {
        fill: #e8e8e8;
      }

      .cls-4 {
        fill: #313142;
      }

      .cls-5 {
        fill: url(#linear-gradient);
      }

      .cls-6 {
        fill: #fff;
        opacity: 0.07;
      }

      .cls-7 {
        fill: #fab077;
      }

      .cls-8 {
        fill: #591702;
      }

      .cls-9 {
        fill: #f59a62;
      }

      .cls-10 {
        fill: #283b21;
      }

      .cls-11 {
        fill: #c90b00;
      }

      .cls-11, .cls-17 {
        opacity: 0.3;
      }

      .cls-12 {
        fill: #8f2f2b;
      }

      .cls-13 {
        fill: #fff2de;
      }

      .cls-14 {
        fill: #e8d3b5;
      }

      .cls-15 {
        fill: #d14f2e;
        opacity: 0.4;
      }

      .cls-16 {
        fill: #82a375;
      }

      .cls-17 {
        fill: #bf3c1b;
      }

      .cls-18 {
        fill: #ffbe8a;
      }

      .cls-19 {
        fill: #1f1a17;
      }

      .cls-20 {
        fill: #f7985c;
      }

      .cls-21 {
        fill: #e6864a;
      }

      .cls-22 {
        fill: #a8370a;
      }
    </style>
    <linearGradient id="linear-gradient" x1="21.67" y1="31.12" x2="21.67" y2="33.49" gradientUnits="userSpaceOnUse">
      <stop offset="0" stop-color="#e88958"/>
      <stop offset="0.34" stop-color="#f49d62"/>
      <stop offset="0.69" stop-color="#fcab69"/>
      <stop offset="1" stop-color="#ffb06b"/>
    </linearGradient>
  </defs>
  <title>1</title>
  <g>
    <g>
      <path class="cls-1" d="M36,22.35c2.22-1,1.28-5.78-1.23-4.24,1.7-.06.06,2.66-.89.61-.6-1.29.78-1.92,1.41-2.78a5,5,0,0,0,.88-3.59c-.3-3.51-3.51-5.72-5.36-8.42C28.79,1,26-.89,22.28.43A5.91,5.91,0,0,0,20,2.13,3.55,3.55,0,0,0,18.85.52c-.06.53-.09,1.05-.1,1.59-2-1.23-5.12-.73-6.85.4C9.55,4,9.77,6.4,8.82,8.7c-.87,2.11-3.63,4.56-3.45,7,.11,1.53,1.2,2.33,1.12,3.9-.06,1.32-1.48,2-.83,3.31s3.32.85,2,3.05c-1.25,2-3.69-.36-2.16-.69C3.77,24.45,3.07,26.64,3.32,28c.34,1.83,2.89,1.87,4.26,1.49C4,36,14.17,37.63,19.19,33.28c2.15-1.86,3.88,3,6.48,3.28,3.51.32,5.37-2.22,4.65-4.48.6,1.89,2.7,2,4.27,1.32a4.06,4.06,0,0,0,2.36-4,2.55,2.55,0,0,1-2.89.59,2,2,0,0,1-.91-3c1-1.39,3.74-3.17,1-4.64A2,2,0,0,0,36,22.35Z" transform="translate(-3.27 0)"/>
      <path class="cls-2" d="M32.57,18.17c-.66-1.92-3.62-1.79-5.23-1.77a32.47,32.47,0,0,0-6.82.52A7.19,7.19,0,0,0,17.79,18c-.6.42-1.47,1.31-2.28,1.22-.4,0-.22-.26-.53-.39A8.65,8.65,0,0,0,13.23,18a3.32,3.32,0,0,0-3.38,2.18c-.32,1.33.39,2.59.9,3.73a5.76,5.76,0,0,1-1.5,6.71c-1,.91-1.28,1.65.12,2.56,2.26,1.47,5.44,1.56,9,.36,1.7-.57,7.22,2.49,9.1,1.5,1.51-.8,2-1.59,2.58-4.33.49.61,1.14,1.61,2,1.6-.85-1.59,0-3.42.23-5.07s-.08-3.6,0-5.4C32.39,20.7,33,19.28,32.57,18.17Z" transform="translate(-3.27 0)"/>
    </g>
    <path class="cls-3" d="M25.67,32.54l-1.1,2.18c.34.18.66,1.77.84,2.63a17.44,17.44,0,0,0,.75,2.87h2.69a10.37,10.37,0,0,1-1.06-3.36C27.42,35,27.07,33.25,25.67,32.54Z" transform="translate(-3.27 0)"/>
    <path class="cls-3" d="M19.28,34.72l-1.1-2.18c-1.4.71-1.75,2.47-2.13,4.32A10.37,10.37,0,0,1,15,40.22h2.7a19.71,19.71,0,0,0,.75-2.87C18.61,36.49,18.93,34.9,19.28,34.72Z" transform="translate(-3.27 0)"/>
    <g>
      <path class="cls-4" d="M26,37.19c.73-2.74.82-4.4-.87-5a10.82,10.82,0,0,0-6.47.05c-1.43.61-1.89,1.61-.91,4.66a17.76,17.76,0,0,1,.79,3.28h6.84A21.72,21.72,0,0,1,26,37.19Z" transform="translate(-3.27 0)"/>
      <path class="cls-5" d="M23.78,29.39c.14-2.42-4-2.52-4,.13A6.41,6.41,0,0,1,19.6,32c-1.67,2.63,5.72,2.94,4.16.13C23.41,31.46,23.72,30.46,23.78,29.39Z" transform="translate(-3.27 0)"/>
      <path class="cls-6" d="M23.62,35.41a7,7,0,0,1-3.84-.06c-.69-.18-1.08.62-.87,1.29.28.9,1.73,1.14,3,1.12,2.49,0,3.42-1,3-2.08C24.79,35.39,24.26,35.18,23.62,35.41Z" transform="translate(-3.27 0)"/>
    </g>
    <g>
      <path class="cls-7" d="M20.77,6.45c-5.57.71-10,5.22-9.26,13s5.94,12.44,11.56,12.4c4.31,0,9.51-7.12,9.22-15.13C32,9,26.34,5.73,20.77,6.45Z" transform="translate(-3.27 0)"/>
      <path class="cls-8" d="M30.11,13.46c-.86-.14-2.63.22-2.31,1.51.1.4.31.43.59.24s.29-.59.5-.79c1-1,2.72,0,3.23,1A2.45,2.45,0,0,0,30.11,13.46Z" transform="translate(-3.27 0)"/>
      <path class="cls-8" d="M15.78,14.14a2.44,2.44,0,0,0-1.88,2.25c.37-1.09,2.1-2.29,3.46-1.49.28.17.45.59.73.71s.59.09.62-.32C18.8,14,16.72,13.87,15.78,14.14Z" transform="translate(-3.27 0)"/>
      <path class="cls-9" d="M31.21,20.3a2.15,2.15,0,0,0-1.79-.85c-.8-.05-1.9.19-1.32,1.44.31.66,3.44,1.32,3.23-.18A1.31,1.31,0,0,0,31.21,20.3Z" transform="translate(-3.27 0)"/>
      <path class="cls-9" d="M17.36,20.15a2.34,2.34,0,0,0-2.11.07c-.79.32-1.71,1.05-.56,1.92.62.46,3.92-.41,3-1.68A1.18,1.18,0,0,0,17.36,20.15Z" transform="translate(-3.27 0)"/>
      <path class="cls-10" d="M17.1,16.36c-1.44-.54-2.28,2.06-1.08,3a1.29,1.29,0,0,1,1.29-.15A1.73,1.73,0,0,0,17.1,16.36Z" transform="translate(-3.27 0)"/>
      <g>
        <path class="cls-11" d="M23.31,23.52a20.3,20.3,0,0,1-3.12,0,7,7,0,0,1-2.83-1,11.1,11.1,0,0,0,.89,2.14,8.68,8.68,0,0,0,1.13,1.57,5.54,5.54,0,0,0,4.11,1.91c2.93,0,3.32-1.86,3.42-3.25.05-.85.91-1.42,1.31-2.19a1.67,1.67,0,0,0,.19-.57,6.24,6.24,0,0,1-2.19,1A26,26,0,0,1,23.31,23.52Z" transform="translate(-3.27 0)"/>
        <path class="cls-12" d="M18.35,23.6s1.32,3.41,4.79,3.21c3.12-.17,3.47-1.35,3.6-2.18a2.19,2.19,0,0,1,1-1.55A13.47,13.47,0,0,1,18.35,23.6Z" transform="translate(-3.27 0)"/>
        <path class="cls-13" d="M19.5,23.93a1.77,1.77,0,0,0,1.13,1.51,7.13,7.13,0,0,0,4.48.07c1.06-.3,1.64-2,1.64-2A15.73,15.73,0,0,1,19.5,23.93Z" transform="translate(-3.27 0)"/>
        <path class="cls-13" d="M23.89,25.55a10,10,0,0,1-3.47-.36c-.58-.21-.59.11-.47.39,0,0,.21,1.14,2.92,1.27,2.37.12,3.38-1.36,3.11-1.65S25.37,25.49,23.89,25.55Z" transform="translate(-3.27 0)"/>
        <path class="cls-14" d="M19.49,23.92a1.91,1.91,0,0,0,.29.87s5.29-.8,6.55-.39a5.28,5.28,0,0,0,.42-.9A17.46,17.46,0,0,1,19.49,23.92Z" transform="translate(-3.27 0)"/>
        <path class="cls-14" d="M20.73,25.19a6.9,6.9,0,0,0,4.92,0A10.56,10.56,0,0,1,20.73,25.19Z" transform="translate(-3.27 0)"/>
      </g>
      <path class="cls-15" d="M23.62,20.9c-.77,0-1.12-.22-1.62.05s.32,1.26,1.68,1.17,1.91-1.07,1.58-1.33S24.47,20.86,23.62,20.9Z" transform="translate(-3.27 0)"/>
      <path class="cls-10" d="M30.57,16c-1.49-.92-2.62,2.08-1.15,2.72a1.61,1.61,0,0,1,1.33.19A2.18,2.18,0,0,0,30.57,16Z" transform="translate(-3.27 0)"/>
      <path class="cls-16" d="M16.86,17c-.61,0-.52,1.22.13,1C17.46,17.83,17.4,17,16.86,17Z" transform="translate(-3.27 0)"/>
      <path class="cls-16" d="M30,16.64c-.6,0-.59,1.17.07,1C30.56,17.49,30.55,16.65,30,16.64Z" transform="translate(-3.27 0)"/>
      <path class="cls-7" d="M9.08,16.23c-2.67.95-1.5,4.83.7,5.46a5.34,5.34,0,0,0,2.18.08.25.25,0,0,1,0-.07c.31-.54-.33-3.13-.5-3.67C11.06,16.7,10.36,15.78,9.08,16.23Z" transform="translate(-3.27 0)"/>
      <path class="cls-17" d="M27.32,6.06a28.15,28.15,0,0,0-9.11.46C16.17,7,14,7.84,12.84,9.68,12,11,10.58,12.42,10.39,14s.83,2.67,1.46,3.93c.79,1.6.07,2.82.12,4.42,0,1,.55,1.24,1.52,1.27-1.58-1.53-.11-3.37.18-5.08a16.3,16.3,0,0,0-.21-2.68c0-.21,0-.42,0-.63a15.71,15.71,0,0,1,.57-2.44c-.32,2.86,3.81,1.29,5,.83a2.08,2.08,0,0,1,1.2-.22c-1.4,1.44.65,4,2.35,4,2.76,0,3.46-1.15,4.62-2.74A3.84,3.84,0,0,1,29.81,13c.71-.09,2.2.4,2.5-.45C32.76,11.29,28.74,6.21,27.32,6.06Z" transform="translate(-3.27 0)"/>
      <path class="cls-15" d="M10.74,17.68c-.7-.34-2.56,0-1.8,1.31.54-1.09,1.28-.29,1.1.49-.13.53-.81.49-.19,1.23a1.36,1.36,0,0,0,1.46.15C12.54,20.32,11.6,18.1,10.74,17.68Z" transform="translate(-3.27 0)"/>
      <path class="cls-1" d="M23.62,2.44A29.32,29.32,0,0,0,20.23,2a12.54,12.54,0,0,0-5.54,1.64c-2.56,1.37-4.21,4.47-5,7.22A11.12,11.12,0,0,0,9.42,16c.31,1.47,2.2,2,2.32,3.55,0,.67-.55,1.18-.54,1.83a2.2,2.2,0,0,0,.65,1.47,3.62,3.62,0,0,0,1.6.48c-1-1.16,0-1.84.06-3a8.66,8.66,0,0,0-.39-3,4.68,4.68,0,0,1,1.39-5.46c.17,2.09,2.29,2,3.81,1.7.69-.13,2.68-.94,3,.1.21.65-.82,1.21-1.06.47,0,1.1,0,2,1.36,2.29a4.06,4.06,0,0,0,4.63-2A3.54,3.54,0,0,1,27.61,13a5,5,0,0,1,2.23-.4c1.74,0,2.34-1.3,2.26-3C31.88,5.11,27.6,2.8,23.62,2.44Z" transform="translate(-3.27 0)"/>
      <path class="cls-18" d="M23.61,21.47C24.73,21.4,26,21.1,25,19.75,23.2,17.4,19.76,21.68,23.61,21.47Z" transform="translate(-3.27 0)"/>
      <path class="cls-19" d="M16.1,16.4a3.74,3.74,0,0,1-2.82,1,2.6,2.6,0,0,0,3-.39,1.19,1.19,0,0,1,1.39-.12S17.18,15.59,16.1,16.4Z" transform="translate(-3.27 0)"/>
      <path class="cls-19" d="M30.73,16c-1.09-.8-1.74.49-1.74.49a1.19,1.19,0,0,1,1.39.12,2.6,2.6,0,0,0,3,.39A3.35,3.35,0,0,1,30.73,16Z" transform="translate(-3.27 0)"/>
      <path class="cls-20" d="M23,18.37c-.32.06-.56.28-.53.5s.31.34.63.29.55-.28.52-.5S23.35,18.31,23,18.37Z" transform="translate(-3.27 0)"/>
      <path class="cls-20" d="M22.16,19.32c-.22.14-.34.37-.26.52s.32.16.53,0,.34-.37.26-.52S22.38,19.18,22.16,19.32Z" transform="translate(-3.27 0)"/>
      <path class="cls-20" d="M26,18.93c-.23-.1-.47,0-.52.12s.1.37.33.46.48,0,.53-.12S26.26,19,26,18.93Z" transform="translate(-3.27 0)"/>
      <path class="cls-20" d="M20.11,18.34c-.24.06-.4.25-.35.41s.29.25.54.18.4-.24.35-.41S20.36,18.28,20.11,18.34Z" transform="translate(-3.27 0)"/>
      <path class="cls-21" d="M17.35,19.85c-.25,0-.46.14-.46.31s.2.31.46.31.45-.13.45-.31S17.6,19.85,17.35,19.85Z" transform="translate(-3.27 0)"/>
      <path class="cls-21" d="M28.35,19.89c-.25,0-.46.14-.46.31s.2.31.46.31.45-.13.45-.31S28.6,19.89,28.35,19.89Z" transform="translate(-3.27 0)"/>
      <path class="cls-21" d="M15.3,19.78c-.31.11-.51.36-.44.57s.38.29.7.18.51-.36.44-.56S15.62,19.68,15.3,19.78Z" transform="translate(-3.27 0)"/>
      <path class="cls-21" d="M18.22,19.28c-.25,0-.43.19-.39.35s.27.28.52.25.43-.18.4-.35S18.48,19.25,18.22,19.28Z" transform="translate(-3.27 0)"/>
      <path class="cls-21" d="M31.08,19.78c-.23-.12-.46-.08-.53.07s.07.39.3.51.46.08.52-.07S31.3,19.9,31.08,19.78Z" transform="translate(-3.27 0)"/>
      <path class="cls-20" d="M22,18.14c-.18,0-.3.16-.28.29s.17.2.35.16.3-.15.28-.28S22.15,18.11,22,18.14Z" transform="translate(-3.27 0)"/>
      <path class="cls-21" d="M16.29,20.54c-.18,0-.31.16-.29.28s.18.2.35.17.3-.16.29-.29A.27.27,0,0,0,16.29,20.54Z" transform="translate(-3.27 0)"/>
      <path class="cls-20" d="M26.66,18.48c-.16-.06-.33,0-.36.11s.07.26.24.32.33,0,.37-.11S26.83,18.54,26.66,18.48Z" transform="translate(-3.27 0)"/>
      <path class="cls-21" d="M30,20.14c-.17-.05-.34,0-.37.11s.07.27.24.33.33,0,.37-.11A.32.32,0,0,0,30,20.14Z" transform="translate(-3.27 0)"/>
      <path class="cls-20" d="M25.69,17.91c-.21,0-.4.06-.41.22s.14.3.35.33.4-.06.42-.21S25.9,17.94,25.69,17.91Z" transform="translate(-3.27 0)"/>
      <path class="cls-20" d="M20.77,20.07c-.24.07-.41.27-.37.43s.27.25.52.17.4-.26.36-.43S21,20,20.77,20.07Z" transform="translate(-3.27 0)"/>
      <path class="cls-20" d="M24.35,18c-.29-.05-.56.08-.59.29s.19.42.49.47.56-.08.59-.29S24.65,18,24.35,18Z" transform="translate(-3.27 0)"/>
      <path class="cls-21" d="M27.68,19c-.3-.05-.56.07-.59.28s.19.42.49.47.56-.08.59-.29S28,19.05,27.68,19Z" transform="translate(-3.27 0)"/>
      <path class="cls-20" d="M18.71,20.13c-.3,0-.54.18-.53.39s.27.38.57.37.54-.17.53-.38S19,20.13,18.71,20.13Z" transform="translate(-3.27 0)"/>
      <path class="cls-21" d="M29.25,19.06c-.3,0-.54.18-.53.38s.27.38.57.38.54-.17.53-.38S29.55,19.06,29.25,19.06Z" transform="translate(-3.27 0)"/>
      <path class="cls-20" d="M24.93,18.94c-.29-.12-.58-.07-.64.11s.11.44.4.56.57.07.64-.11S25.21,19.07,24.93,18.94Z" transform="translate(-3.27 0)"/>
      <path class="cls-20" d="M19.81,19.26c-.33,0-.58.28-.55.51s.32.37.66.32.58-.28.56-.51S20.15,19.2,19.81,19.26Z" transform="translate(-3.27 0)"/>
      <path class="cls-20" d="M21.17,18.82c-.33.11-.53.39-.47.61s.38.31.7.19.53-.39.47-.61S21.49,18.7,21.17,18.82Z" transform="translate(-3.27 0)"/>
      <path class="cls-20" d="M26.8,19.76c-.34-.05-.63.1-.66.33s.22.45.56.5.63-.1.66-.33S27.14,19.8,26.8,19.76Z" transform="translate(-3.27 0)"/>
      <path class="cls-22" d="M22.25,2.07a4.62,4.62,0,0,0-2.17,1.35,9.17,9.17,0,0,1,1.57,2.81,3.07,3.07,0,0,1-1.24,3c-1,.69-6.81,1.71-2.8,3.11,1.23.42,2.5-.38,3.71-.1,1,.22,1.6,1.64.6,2.3.87.42,2.21-.11,2.94-.58a10.8,10.8,0,0,1,1.58-1,8.13,8.13,0,0,0,3.29-2.38C30.93,9,31,6.94,29.24,4.52A7.23,7.23,0,0,0,22.25,2.07Z" transform="translate(-3.27 0)"/>
      <path class="cls-22" d="M16,3.09c-5.06.35-4,4.73-6.19,7.86C9,12,8.33,13,9,14.19a5.54,5.54,0,0,0,3.25,2.64,4.21,4.21,0,0,1-.35-2.68c.92-3.25,4.69-4.24,6.33-6.87C19.54,5.11,18.57,2.92,16,3.09Z" transform="translate(-3.27 0)"/>
    </g>
  </g>
</svg>
