<svg xmlns="http://www.w3.org/2000/svg" xmlns:xlink="http://www.w3.org/1999/xlink" viewBox="0 0 40 40">
  <defs>
    <style>
      .cls-1 {
        isolation: isolate;
      }

      .cls-2 {
        fill: url(#linear-gradient);
      }

      .cls-11, .cls-3, .cls-4 {
        opacity: 0.25;
      }

      .cls-11, .cls-14, .cls-3, .cls-5, .cls-6, .cls-7 {
        mix-blend-mode: multiply;
      }

      .cls-3 {
        fill: url(#radial-gradient);
      }

      .cls-12, .cls-4 {
        fill: #fff;
      }

      .cls-5 {
        opacity: 0.35;
        fill: url(#linear-gradient-2);
      }

      .cls-6, .cls-7 {
        opacity: 0.5;
      }

      .cls-6 {
        fill: url(#radial-gradient-2);
      }

      .cls-7 {
        fill: url(#radial-gradient-3);
      }

      .cls-8 {
        fill: #5d4037;
      }

      .cls-9 {
        fill: #4e342e;
      }

      .cls-10, .cls-11 {
        fill: #d95957;
      }

      .cls-13 {
        fill: #f5f5f5;
      }

      .cls-14 {
        fill: #cfd8dc;
      }
    </style>
    <linearGradient id="linear-gradient" x1="20" y1="-0.67" x2="20" y2="40.75" gradientUnits="userSpaceOnUse">
      <stop offset="0" stop-color="#ffe082"/>
      <stop offset="1" stop-color="#ffbf66"/>
    </linearGradient>
    <radialGradient id="radial-gradient" cx="20" cy="20" r="20" gradientUnits="userSpaceOnUse">
      <stop offset="0.8" stop-color="#fff"/>
      <stop offset="1" stop-color="#ffbf66"/>
    </radialGradient>
    <linearGradient id="linear-gradient-2" x1="20" y1="17.63" x2="20" y2="40.41" xlink:href="#linear-gradient"/>
    <radialGradient id="radial-gradient-2" cx="30.46" cy="23.02" r="6.03" gradientUnits="userSpaceOnUse">
      <stop offset="0" stop-color="#ff7043"/>
      <stop offset="1" stop-color="#fff"/>
    </radialGradient>
    <radialGradient id="radial-gradient-3" cx="-323.54" cy="23.02" r="6.03" gradientTransform="matrix(-0.98, -0.17, -0.17, 0.98, -305.07, -55.78)" xlink:href="#radial-gradient-2"/>
  </defs>
  <title>1</title>
  <g class="cls-1">
    <g id="레이어_1" data-name="레이어 1">
      <g>
        <g>
          <circle class="cls-2" cx="20" cy="20" r="20"/>
          <circle class="cls-3" cx="20" cy="20" r="20"/>
          <path class="cls-4" d="M36.5,15.12c0,7.43-7.39,0-16.5,0s-16.5,7.43-16.5,0S10.89,1.67,20,1.67,36.5,7.69,36.5,15.12Z"/>
          <path class="cls-5" d="M20,36A20,20,0,0,1,.1,18,18.86,18.86,0,0,0,0,20a20,20,0,0,0,40,0,18.86,18.86,0,0,0-.1-2A20,20,0,0,1,20,36Z"/>
          <path class="cls-6" d="M36.81,23.17a6.35,6.35,0,1,1-6.35-6.36A6.35,6.35,0,0,1,36.81,23.17Z"/>
          <circle class="cls-7" cx="9.54" cy="23.17" r="6.35" transform="matrix(0.98, -0.17, 0.17, 0.98, -3.87, 2.01)"/>
        </g>
        <g>
          <path class="cls-4" d="M20,33.41a13.19,13.19,0,0,1-9.36-3.62l-.14-.14c-.71-.68-2-1.95-1.9-3.16a1.56,1.56,0,0,1,.76-1.19,1.61,1.61,0,0,1,.87-.26,2.75,2.75,0,0,1,1.3.43l.36.19a16.87,16.87,0,0,0,2,1,15.81,15.81,0,0,0,6,1.19h.14a15.82,15.82,0,0,0,6-1.18,17.25,17.25,0,0,0,2-1l.32-.17A2.85,2.85,0,0,1,29.75,25a1.58,1.58,0,0,1,.87.26,1.6,1.6,0,0,1,.77,1.19c.11,1.21-1.2,2.48-1.91,3.16l-.14.14A13.15,13.15,0,0,1,20,33.41Z"/>
          <path class="cls-8" d="M30.26,25.87c-.75-.49-1.75.33-2.39.67a16.69,16.69,0,0,1-9.12,1.91,16.46,16.46,0,0,1-6-1.57,8.17,8.17,0,0,0-2.46-1.17,1,1,0,0,0-1,1.19c.24,1.08,1.36,2,2.14,2.71A11.93,11.93,0,0,0,16,32.17a13.71,13.71,0,0,0,10.3-1c.87-.47,6-4,4-5.33C29.73,25.52,31.66,26.76,30.26,25.87Z"/>
          <path class="cls-9" d="M9.7,27.2c.53-.34,1.05-.05,1.53.21a20.09,20.09,0,0,0,2.42,1.19,16.9,16.9,0,0,0,12.66,0,20.09,20.09,0,0,0,2.42-1.19c.48-.26,1-.55,1.53-.21a1,1,0,0,1,.24.2c.31-.58.36-1.15-.24-1.53s-1.05-.05-1.53.21a21.7,21.7,0,0,1-2.42,1.19A16.34,16.34,0,0,1,20,28.49a16.34,16.34,0,0,1-6.33-1.22,21.7,21.7,0,0,1-2.42-1.19c-.48-.26-1-.56-1.53-.21s-.55.95-.24,1.53A1,1,0,0,1,9.7,27.2Z"/>
          <path class="cls-10" d="M20,32.74a13.57,13.57,0,0,0,5.08-1c-.71-1.23-2.71-2.12-5.08-2.12s-4.37.89-5.07,2.12A13.48,13.48,0,0,0,20,32.74Z"/>
          <path class="cls-11" d="M24.53,31.14A11.65,11.65,0,0,1,20,32.27a11.65,11.65,0,0,1-4.55-1.13,2.57,2.57,0,0,0-.52.64,13.89,13.89,0,0,0,10.15,0A2.86,2.86,0,0,0,24.53,31.14Z"/>
        </g>
        <path class="cls-10" d="M20,32.74a13.57,13.57,0,0,0,5.08-1c-.71-1.23-2.71-2.12-5.08-2.12s-4.37.89-5.07,2.12A13.48,13.48,0,0,0,20,32.74Z"/>
        <path class="cls-11" d="M24.53,31.14A11.65,11.65,0,0,1,20,32.27a11.65,11.65,0,0,1-4.55-1.13,2.57,2.57,0,0,0-.52.64,13.89,13.89,0,0,0,10.15,0A2.86,2.86,0,0,0,24.53,31.14Z"/>
        <g>
          <g>
            <path class="cls-4" d="M13,20.06c-2.94,0-5.34-1.08-5.34-4a5.34,5.34,0,1,1,10.68,0C18.33,19,15.94,20.06,13,20.06Z"/>
            <path class="cls-8" d="M17.67,16c0,2.55-2.12,3.37-4.68,3.37S8.32,18.57,8.32,16A4.74,4.74,0,0,1,13,11.31,4.74,4.74,0,0,1,17.67,16Z"/>
            <path class="cls-9" d="M13,12.65a4.67,4.67,0,0,1,4.62,4,3.71,3.71,0,0,0,.06-.67,4.68,4.68,0,1,0-9.35,0,4.91,4.91,0,0,0,0,.67A4.68,4.68,0,0,1,13,12.65Z"/>
            <path class="cls-12" d="M17,16c0,2.23-1.79,2.7-4,2.7S9,18.25,9,16a4,4,0,1,1,8,0Z"/>
            <path class="cls-13" d="M13,18.05c-1.83,0-3.33-.18-3.33-2a3.34,3.34,0,1,1,6.67,0C16.33,17.87,14.83,18.05,13,18.05Z"/>
            <path class="cls-12" d="M16.75,15.45c0,1.69-1.68,0-3.76,0s-3.75,1.69-3.75,0A3.66,3.66,0,0,1,13,12.12,3.66,3.66,0,0,1,16.75,15.45Z"/>
            <path class="cls-8" d="M14.59,16a1.6,1.6,0,0,1-3.19,0A1.6,1.6,0,0,1,14.59,16Z"/>
            <path class="cls-14" d="M13,12.66a4,4,0,0,1,4,3.69c0-.11,0-.22,0-.33a4,4,0,1,0-8,0c0,.11,0,.22,0,.33A4,4,0,0,1,13,12.66Z"/>
          </g>
          <g>
            <path class="cls-4" d="M27,20.06c-3,0-5.34-1.08-5.34-4a5.34,5.34,0,1,1,10.68,0C32.35,19,30,20.06,27,20.06Z"/>
            <path class="cls-8" d="M31.68,16c0,2.55-2.11,3.37-4.67,3.37s-4.68-.82-4.68-3.37a4.68,4.68,0,1,1,9.35,0Z"/>
            <path class="cls-9" d="M27,12.65a4.68,4.68,0,0,1,4.62,4,4.91,4.91,0,0,0,.05-.67,4.68,4.68,0,1,0-9.35,0,3.71,3.71,0,0,0,.06.67A4.67,4.67,0,0,1,27,12.65Z"/>
            <path class="cls-12" d="M31,16c0,2.23-1.79,2.7-4,2.7s-4-.47-4-2.7a4,4,0,1,1,8,0Z"/>
            <path class="cls-13" d="M27,18.05c-1.84,0-3.34-.18-3.34-2a3.34,3.34,0,1,1,6.67,0C30.34,17.87,28.84,18.05,27,18.05Z"/>
            <path class="cls-12" d="M30.76,15.45c0,1.69-1.68,0-3.75,0s-3.76,1.69-3.76,0a3.78,3.78,0,0,1,7.51,0Z"/>
            <path class="cls-8" d="M28.6,16a1.6,1.6,0,0,1-3.19,0A1.6,1.6,0,0,1,28.6,16Z"/>
            <path class="cls-14" d="M27,12.66a4,4,0,0,1,4,3.69c0-.11,0-.22,0-.33a4,4,0,1,0-8,0c0,.11,0,.22,0,.33A4,4,0,0,1,27,12.66Z"/>
          </g>
        </g>
      </g>
    </g>
  </g>
</svg>
