<svg id="레이어_1" data-name="레이어 1" xmlns="http://www.w3.org/2000/svg" viewBox="0 0 39.98 39.72">
  <defs>
    <style>
      .cls-1 {
        fill: #576d64;
      }

      .cls-1, .cls-2 {
        fill-rule: evenodd;
      }
    </style>
  </defs>
  <title>1</title>
  <g>
    <polygon class="cls-1" points="18.34 35.14 39.07 39.29 35.72 18.43 31.14 23.43 8.11 0.59 0.8 7.37 22.56 30.08 23.77 31.29 18.34 35.14"/>
    <path class="cls-1" d="M7.38,1.76C5.83,4.48,3.9,7.23,2.72,10.13c-.26.65.6,1.51,1.11.81,1.9-2.57,3.26-5.68,4.8-8.48A.72.72,0,0,0,7.38,1.76Z" transform="translate(0 0)"/>
    <path class="cls-1" d="M11.47,4.5c-1.72,3.08-3.6,6.11-5.16,9.28a.81.81,0,0,0,1.41.78c1.84-3,3.39-6.23,5.05-9.34A.74.74,0,0,0,11.47,4.5Z" transform="translate(0 0)"/>
    <path class="cls-1" d="M15.42,8.46c-1.57,3.39-3.13,6.79-4.71,10.19-.46,1,1.07,1.84,1.51.83L16.75,9.19C17.14,8.31,15.83,7.56,15.42,8.46Z" transform="translate(0 0)"/>
    <path class="cls-1" d="M19.68,13.14l-2.1,5.18a22.21,22.21,0,0,0-1.73,4.73.65.65,0,0,0,1.2.48,22.43,22.43,0,0,0,2-4.64l2-5.21C21.35,12.9,20,12.36,19.68,13.14Z" transform="translate(0 0)"/>
    <path class="cls-1" d="M23.59,18.24l-2.08,5.19a16.44,16.44,0,0,0-1.46,4.32.64.64,0,0,0,1.1.42A15.86,15.86,0,0,0,23,24l2-5.24C25.21,18,23.9,17.48,23.59,18.24Z" transform="translate(0 0)"/>
    <path class="cls-1" d="M27.93,21c-2.06,5-4.75,10.13-6.15,15.36a.75.75,0,0,0,1.38.55c2.59-4.76,4.17-10.33,6.12-15.38C29.57,20.76,28.25,20.23,27.93,21Z" transform="translate(0 0)"/>
    <path class="cls-1" d="M32.54,22.47c-2,4.46-4.14,9.39-4.67,14.26-.09.85,1.13.82,1.38.15,1.67-4.53,2.63-9.23,4.51-13.73C34.11,22.33,32.9,21.64,32.54,22.47Z" transform="translate(0 0)"/>
    <path class="cls-1" d="M36.58,27c-.7,3.81-2.18,7.08-3.48,10.68-.27.76.87,1.12,1.26.5,2-3.15,2.9-7.24,3.46-10.87C38,26.54,36.73,26.22,36.58,27Z" transform="translate(0 0)"/>
    <path class="cls-2" d="M40,38.75Q38.42,28.43,35.9,18.29A1,1,0,0,0,34,18.08l-2.86,4.37c-1.9-1.76-3.78-3.55-5.61-5.37L15.82,7,12,3C11.09,2.06,10.18.75,9,.22,6.76-.77,4.56,1.9,3.06,3.11,1.19,4.63-1,6.26.48,8.87a17.24,17.24,0,0,0,3,3.4q1.89,2,3.8,3.89,7.49,7.61,15.13,15a29.93,29.93,0,0,0-4.72,3.7,1,1,0,0,0,.23,1.49c2.91,1.37,6.51,1.39,9.67,1.81l11.21,1.51c.54.07,1.3-.27,1.19-1ZM20.13,35.23a28.32,28.32,0,0,1,4.3-3,1,1,0,0,0,.16-1.49q-6.43-6.23-12.75-12.57C9.75,16,7.65,13.88,5.57,11.75A30.71,30.71,0,0,1,2.42,8.44C1.2,6.69,2.91,5.65,4.14,4.63S6.49,2.18,7.9,2.19s2.44,1.63,3.41,2.62l6.63,6.79q4.92,5,9.88,10c.94,1.05,1.88,2.09,2.83,3.13a1.05,1.05,0,0,0,1.62-.24c.75-1.15,1.49-2.29,2.23-3.45q2,8.22,3.37,16.57L28.8,36.45C26.08,36.09,22.85,36.09,20.13,35.23Z" transform="translate(0 0)"/>
  </g>
</svg>
