<svg xmlns="http://www.w3.org/2000/svg" xmlns:xlink="http://www.w3.org/1999/xlink" viewBox="0 0 31.05 39.91">
  <defs>
    <style>
      .cls-1 {
        isolation: isolate;
      }

      .cls-2 {
        fill: #6f6e82;
      }

      .cls-3 {
        fill: #fff9f0;
      }

      .cls-4 {
        fill: #fff;
      }

      .cls-5 {
        fill: url(#linear-gradient);
      }

      .cls-6 {
        fill: #3a3a4a;
      }

      .cls-6, .cls-9 {
        opacity: 0.5;
      }

      .cls-7 {
        fill: #f5f5f5;
      }

      .cls-8 {
        fill: #f06799;
      }

      .cls-9 {
        fill: #d9af96;
        mix-blend-mode: multiply;
      }

      .cls-10 {
        fill: #4f2619;
      }

      .cls-11 {
        fill: #ffcb9e;
      }

      .cls-12 {
        fill: #bf3c1b;
        opacity: 0.2;
      }

      .cls-13 {
        fill: #2f2120;
      }

      .cls-14 {
        fill: #7d4732;
      }

      .cls-15 {
        fill: #b08a72;
      }

      .cls-16 {
        fill: #ffb696;
      }

      .cls-17 {
        fill: #e65050;
        opacity: 0.7;
      }

      .cls-18 {
        fill: #8f3935;
      }

      .cls-19 {
        fill: #e8dac5;
      }

      .cls-20 {
        fill: #d14f2e;
        opacity: 0.3;
      }

      .cls-21 {
        fill: #121b21;
      }

      .cls-22 {
        fill: #784430;
      }
    </style>
    <linearGradient id="linear-gradient" x1="20.88" y1="27.92" x2="20.88" y2="30.94" gradientUnits="userSpaceOnUse">
      <stop offset="0" stop-color="#eea17a"/>
      <stop offset="1" stop-color="#ffcca6"/>
    </linearGradient>
  </defs>
  <title>1</title>
  <g class="cls-1">
    <g id="레이어_1" data-name="레이어 1">
      <g>
        <g>
          <path class="cls-2" d="M15.31,34.45c-.21.89-1,4.24-1.48,5.46H16.3c.35-1.13,1.1-4.27,1.26-5,.26-1.11.52-2.26,1-2.48l-1.05-2C16.06,31.16,15.69,32.76,15.31,34.45Z" transform="translate(-4.47)"/>
          <path class="cls-2" d="M24.27,30.46l-1,2c.45.22.71,1.37,1,2.48.16.7.91,3.84,1.26,5h2.48c-.47-1.22-1.27-4.57-1.48-5.46C26.06,32.76,25.7,31.16,24.27,30.46Z" transform="translate(-4.47)"/>
          <path class="cls-3" d="M23.59,29.55a.29.29,0,0,0-.31.28.3.3,0,0,0,.29.3.29.29,0,1,0,0-.58Z" transform="translate(-4.47)"/>
          <path class="cls-3" d="M18.18,29.59a.28.28,0,0,0-.3.28.28.28,0,0,0,.29.3.29.29,0,1,0,0-.58Z" transform="translate(-4.47)"/>
          <g>
            <path class="cls-2" d="M17.48,30.43a3.32,3.32,0,0,0-1.05,1.83c-.72,1.89,0,2.77.37,4.38A9.11,9.11,0,0,1,17,39.91h8A7.53,7.53,0,0,1,25.6,36c.72-1.8.75-2.23.33-3.25A5.49,5.49,0,0,0,17.48,30.43Z" transform="translate(-4.47)"/>
            <path class="cls-4" d="M21,36.38a.36.36,0,1,0,.36.36A.36.36,0,0,0,21,36.38Z" transform="translate(-4.47)"/>
            <path class="cls-4" d="M21,38.58a.36.36,0,1,0,.36.35A.36.36,0,0,0,21,38.58Z" transform="translate(-4.47)"/>
            <path class="cls-5" d="M23.54,29.9c-1.29-.74.11-4.11-.93-4.95a3.14,3.14,0,0,0-3-.32c-1.78.74,0,4.83-1.73,5.57-.34.15-.42.56.24,1.64a5.83,5.83,0,0,0,2.94,2.71,5.69,5.69,0,0,0,2.92-3A1.33,1.33,0,0,0,23.54,29.9Z" transform="translate(-4.47)"/>
          </g>
          <path class="cls-6" d="M21.09,34.55c-.4,0-3.74-.9-3.74-.9l.29,3.11a34.79,34.79,0,0,1,3.44-2,33,33,0,0,1,3.53,1.94l0-3.18A27.78,27.78,0,0,1,21.09,34.55Z" transform="translate(-4.47)"/>
          <path class="cls-7" d="M23.69,29.84a3,3,0,0,1-.18,2.6,9.7,9.7,0,0,1-2.42,2.11L24.4,36S25.14,30.84,23.69,29.84Z" transform="translate(-4.47)"/>
          <path class="cls-7" d="M18.74,32.69A3.26,3.26,0,0,1,18,30.07C16.37,31.18,17.8,36,17.8,36l3.29-1.41A6.61,6.61,0,0,1,18.74,32.69Z" transform="translate(-4.47)"/>
          <path class="cls-3" d="M23.79,29.76a.29.29,0,1,0,.29.3A.3.3,0,0,0,23.79,29.76Z" transform="translate(-4.47)"/>
          <path class="cls-3" d="M17.93,29.92a.3.3,0,1,0,0,.59.3.3,0,0,0,.3-.29A.29.29,0,0,0,17.93,29.92Z" transform="translate(-4.47)"/>
          <path class="cls-3" d="M18.55,30.47a.34.34,0,0,0-.33.37.35.35,0,0,0,.37.34.36.36,0,0,0,0-.71Z" transform="translate(-4.47)"/>
          <path class="cls-3" d="M19.37,31a.36.36,0,0,0-.33.38.35.35,0,0,0,.37.33.36.36,0,0,0,0-.71Z" transform="translate(-4.47)"/>
          <path class="cls-3" d="M20.43,31.35a.36.36,0,1,0,.37.33A.35.35,0,0,0,20.43,31.35Z" transform="translate(-4.47)"/>
          <path class="cls-3" d="M21.48,31.38a.36.36,0,0,0-.34.37.37.37,0,0,0,.38.34.36.36,0,0,0,0-.71Z" transform="translate(-4.47)"/>
          <path class="cls-3" d="M23.35,30.32a.36.36,0,0,0,0,.71.34.34,0,0,0,.33-.38A.35.35,0,0,0,23.35,30.32Z" transform="translate(-4.47)"/>
          <path class="cls-3" d="M22.53,31a.36.36,0,0,0-.34.38.36.36,0,0,0,.38.33.36.36,0,0,0,0-.71Z" transform="translate(-4.47)"/>
          <path class="cls-8" d="M22,36.13c-.18,0-.19,2,.06,2a26.34,26.34,0,0,0,3.09,0,4,4,0,0,0,0-2A24.14,24.14,0,0,0,22,36.13Z" transform="translate(-4.47)"/>
          <path class="cls-7" d="M25,36.47c-.15-.06-2.74,0-2.74,0-.16,0-.17.77.05.79s2.55,0,2.68,0S25.1,36.52,25,36.47Z" transform="translate(-4.47)"/>
        </g>
        <g>
          <path class="cls-9" d="M10.62,15.46c-1.26-.13-2.32.82-1.94,3.78a2.76,2.76,0,0,0,3.11,2.6S11.88,15.59,10.62,15.46Z" transform="translate(-4.47)"/>
          <path class="cls-10" d="M22,0C.88,1.68-.94,29.81,15.38,25.76c3-.74,1.24-3.73,5.95-4.08,3-.22,4,3.5,5.19,3.83C40,29.29,38.28,3.65,22,0Z" transform="translate(-4.47)"/>
          <path class="cls-3" d="M28.24,20.86a2,2,0,0,0-1.68,2.33,2.08,2.08,0,0,0,2.09,2,2,2,0,0,0,1.69-2.33A2.09,2.09,0,0,0,28.24,20.86Zm.35,3.59A1.5,1.5,0,0,1,27.07,23a1.48,1.48,0,0,1,1.22-1.7,1.52,1.52,0,0,1,1.52,1.47A1.47,1.47,0,0,1,28.59,24.45Z" transform="translate(-4.47)"/>
          <path class="cls-11" d="M20.22,5.47c-7.15.23-9.5,5-9.32,12.05s5.25,11.76,10.53,12.07c4.05.24,9.17-6.1,8.75-13.17S27.1,5.26,20.22,5.47Z" transform="translate(-4.47)"/>
          <path class="cls-12" d="M26.88,5.51A6.71,6.71,0,0,0,22,5a15.68,15.68,0,0,0-3.05,1,15.78,15.78,0,0,0-7.46,6.2c-.35.61-1.45,2.56-.8,3.24.43.44.22,1.37.64,1C14,13.78,18.68,14.56,22,11.48a19.91,19.91,0,0,0,2.8-3.76C24.51,9,29.2,12.14,29.9,14.17c.57,1.64.52-1.44.57-2.29A7.1,7.1,0,0,0,26.88,5.51Z" transform="translate(-4.47)"/>
          <path class="cls-13" d="M15.31,15.35c-1.48-.56-2.23,2.17-1.2,3a2,2,0,0,1,1.43,0C16.47,17.78,16.4,15.76,15.31,15.35Z" transform="translate(-4.47)"/>
          <path class="cls-14" d="M15.11,12a2.14,2.14,0,0,0-1.66,1.48,2.87,2.87,0,0,1,3.65-.37A2,2,0,0,0,15.11,12Z" transform="translate(-4.47)"/>
          <path class="cls-15" d="M15.6,16.57c-.61.09-.39,1.35.25,1C16.31,17.37,16.14,16.49,15.6,16.57Z" transform="translate(-4.47)"/>
          <path class="cls-10" d="M28.32,5.83a13.14,13.14,0,0,0-5.8-3.44A9.17,9.17,0,0,0,17.65,2c-4.16.82-6.74,4.84-7.41,8.81-.21,1.24-1.36,5.62.28,7.69.38-2.24,1-3.48,6-4.94A14.67,14.67,0,0,0,25,7c.14,3.09,5.12,4.29,5.15,8.8,0-1.13.8-3.08.61-4.21A11.67,11.67,0,0,0,28.32,5.83Z" transform="translate(-4.47)"/>
          <path class="cls-16" d="M29.09,19.73A1.84,1.84,0,0,0,27.56,19c-.69-.05-1.62.16-1.12,1.22.26.56,2.94,1.13,2.76-.14A1.11,1.11,0,0,0,29.09,19.73Z" transform="translate(-4.47)"/>
          <path class="cls-16" d="M16,19.64a1.92,1.92,0,0,0-1.81-.49c-.76.11-1.76.56-1,1.67.39.59,3.43.63,3-.8A1.22,1.22,0,0,0,16,19.64Z" transform="translate(-4.47)"/>
          <g>
            <path class="cls-17" d="M21.51,22c-2,0-4.94.61-6.51-.32,2.57,4.43,4.18,5.26,6.23,5.42,2.57.19,3.47-1.6,3.88-2.94a7.74,7.74,0,0,1,2-2.35C25.5,22.16,23.93,21.93,21.51,22Z" transform="translate(-4.47)"/>
            <path class="cls-18" d="M16.2,22.44a6,6,0,0,0,4.74,3.09c2,.07,3.41-.61,3.8-1.6a2.79,2.79,0,0,1,1.31-1.48A20,20,0,0,1,16.2,22.44Z" transform="translate(-4.47)"/>
            <path class="cls-3" d="M17.39,22.72A1.6,1.6,0,0,0,18.6,24a10.38,10.38,0,0,0,4.66.27c1.09-.16,1.65-1.56,1.65-1.56A21.46,21.46,0,0,1,17.39,22.72Z" transform="translate(-4.47)"/>
            <path class="cls-3" d="M21.77,24.35a6.11,6.11,0,0,1-3.4-.59c-.52-.35-.57,0-.47.26,0,0,.46,1.23,2.88,1.55s3.56-1.15,3.3-1.4S23.13,24.31,21.77,24.35Z" transform="translate(-4.47)"/>
            <path class="cls-19" d="M17.39,22.72a1.37,1.37,0,0,0,.28.63s5.48-.4,6.78.12a3,3,0,0,0,.46-.78A24.71,24.71,0,0,1,17.39,22.72Z" transform="translate(-4.47)"/>
            <path class="cls-19" d="M18.8,24a5.07,5.07,0,0,0,4.31.25A7.54,7.54,0,0,1,18.8,24Z" transform="translate(-4.47)"/>
          </g>
          <path class="cls-20" d="M21.88,19.31c-.46,0-.64-.21-1,0s.37.82.94.79,1.18-.55,1-.75S22.4,19.32,21.88,19.31Z" transform="translate(-4.47)"/>
          <path class="cls-13" d="M28.27,15.37c-1.48-.94-2.78,2.53-1.14,3a1.82,1.82,0,0,1,1.3-.21C29,17.45,29.06,15.88,28.27,15.37Z" transform="translate(-4.47)"/>
          <path class="cls-15" d="M28.19,16.4c-.58,0-.49,1.32.14,1.08C28.78,17.31,28.71,16.39,28.19,16.4Z" transform="translate(-4.47)"/>
          <path class="cls-21" d="M28.31,15.3c-1.36-.52-1.8,1.09-1.8,1.09a1.26,1.26,0,0,1,1.58-.3,2.77,2.77,0,0,0,3.44-.25C29.87,16.4,29,15.58,28.31,15.3Z" transform="translate(-4.47)"/>
          <path class="cls-21" d="M14.32,15.42a4.34,4.34,0,0,1-3.47.62,3.06,3.06,0,0,0,3.61.13,1.4,1.4,0,0,1,1.64.13S15.73,14.7,14.32,15.42Z" transform="translate(-4.47)"/>
          <path class="cls-22" d="M27.76,2.85c-6.05,5.57-15.31.79-15.31.79C9.55,5.35,7,9.21,7,9.22a8.94,8.94,0,0,1,2.43.66c1.07.43,2.08,1,3.17,1.4a13.64,13.64,0,0,0,4,.83c2.6.07,6.26-2.39,8.65-5.86a4.23,4.23,0,0,0,1,2.67c2.87,3.24,6.71,0,6.71,0A14.09,14.09,0,0,0,27.76,2.85Z" transform="translate(-4.47)"/>
          <path class="cls-22" d="M28.08,12a2,2,0,0,0-2,1.06,2.85,2.85,0,0,1,3.63.46A2.13,2.13,0,0,0,28.08,12Z" transform="translate(-4.47)"/>
          <path class="cls-11" d="M9.77,15.44c-1.9.86-1.14,4.81.42,5.53a2.64,2.64,0,0,0,1.54.16l0-.07a14.13,14.13,0,0,0-.3-3.71C11.16,16,10.68,15,9.77,15.44Z" transform="translate(-4.47)"/>
          <path class="cls-20" d="M10.38,16.76c-.39-.21-1.2.43-.65,1.5.09-1.1.56-.46.6.3,0,.51-.3.57.1,1.17.22.32.56.13.72-.09C11.64,19,10.85,17,10.38,16.76Z" transform="translate(-4.47)"/>
          <path class="cls-3" d="M11.09,21.24a2,2,0,0,0-1.85,2.21,2.09,2.09,0,0,0,1.94,2.17A2,2,0,0,0,13,23.41,2.09,2.09,0,0,0,11.09,21.24Zm.08,3.62a1.51,1.51,0,0,1-1.4-1.58,1.47,1.47,0,0,1,1.34-1.6,1.52,1.52,0,0,1,1.41,1.58A1.49,1.49,0,0,1,11.17,24.86Z" transform="translate(-4.47)"/>
        </g>
      </g>
    </g>
  </g>
</svg>
