<svg xmlns="http://www.w3.org/2000/svg" xmlns:xlink="http://www.w3.org/1999/xlink" viewBox="0 0 40 40">
  <defs>
    <style>
      .cls-1 {
        isolation: isolate;
      }

      .cls-2 {
        fill: url(#linear-gradient);
      }

      .cls-3, .cls-4 {
        opacity: 0.25;
      }

      .cls-10, .cls-11, .cls-12, .cls-3, .cls-5 {
        mix-blend-mode: multiply;
      }

      .cls-3 {
        fill: url(#radial-gradient);
      }

      .cls-4, .cls-8 {
        fill: #fff;
      }

      .cls-11, .cls-12, .cls-5 {
        opacity: 0.35;
      }

      .cls-5 {
        fill: url(#linear-gradient-2);
      }

      .cls-6 {
        fill: #5d4037;
      }

      .cls-7 {
        fill: #4e342e;
      }

      .cls-9 {
        fill: #f5f5f5;
      }

      .cls-10 {
        fill: #cfd8dc;
      }

      .cls-11 {
        fill: url(#linear-gradient-3);
      }

      .cls-12 {
        fill: url(#linear-gradient-4);
      }
    </style>
    <linearGradient id="linear-gradient" x1="20" y1="-0.67" x2="20" y2="40.75" gradientUnits="userSpaceOnUse">
      <stop offset="0" stop-color="#ffe082"/>
      <stop offset="1" stop-color="#ffbf66"/>
    </linearGradient>
    <radialGradient id="radial-gradient" cx="20" cy="20" r="20" gradientUnits="userSpaceOnUse">
      <stop offset="0.8" stop-color="#fff"/>
      <stop offset="1" stop-color="#ffbf66"/>
    </radialGradient>
    <linearGradient id="linear-gradient-2" x1="20" y1="17.63" x2="20" y2="40.41" xlink:href="#linear-gradient"/>
    <linearGradient id="linear-gradient-3" x1="6.97" y1="13.25" x2="18.98" y2="13.25" xlink:href="#linear-gradient"/>
    <linearGradient id="linear-gradient-4" x1="21.04" y1="13.25" x2="33.03" y2="13.25" xlink:href="#linear-gradient"/>
  </defs>
  <title>1</title>
  <g class="cls-1">
    <g id="레이어_1" data-name="레이어 1">
      <g>
        <g>
          <circle class="cls-2" cx="20" cy="20" r="20"/>
          <circle class="cls-3" cx="20" cy="20" r="20"/>
          <path class="cls-4" d="M36.5,15.12c0,7.43-7.39,0-16.5,0s-16.5,7.43-16.5,0S10.89,1.67,20,1.67,36.5,7.69,36.5,15.12Z"/>
          <path class="cls-5" d="M20,36A20,20,0,0,1,.1,18,18.86,18.86,0,0,0,0,20a20,20,0,0,0,40,0,18.86,18.86,0,0,0-.1-2A20,20,0,0,1,20,36Z"/>
        </g>
        <g>
          <g>
            <path class="cls-4" d="M13,22a6.2,6.2,0,0,1-1.54-.2A5.94,5.94,0,0,1,7.77,19a6,6,0,0,1-.6-4.57l.35-1.29,11.59,3.1-.34,1.29A6,6,0,0,1,13,22Z"/>
            <path class="cls-6" d="M11.58,21.16a5.38,5.38,0,0,1-3.51-3A6.16,6.16,0,0,1,8,14l8.42,2.26,1.64.44s.23,0,.24.06-.29,1-.34,1.18A5.4,5.4,0,0,1,11.58,21.16Z"/>
            <path class="cls-7" d="M7.82,15.93,8,15.29l9.93,2.65a3.72,3.72,0,0,0,.2-.59l.17-.64L8,14l-.17.65a5.26,5.26,0,0,0-.14,2.08A4.94,4.94,0,0,1,7.82,15.93Z"/>
            <path class="cls-8" d="M17.48,17.18a4.67,4.67,0,1,1-9-2.41l3.69,1h0l2.08.55Z"/>
            <path class="cls-9" d="M13,20a4.47,4.47,0,0,1-1-.13A4,4,0,0,1,9,15.6l.1-.66L16.85,17l-.24.63A4,4,0,0,1,13,20Z"/>
            <path class="cls-6" d="M14.43,17.58A1.59,1.59,0,1,1,11.84,16c.44-.38,1,0,1.54.12l.76.2c.41.11.37,1,.29,1.29C14.2,18.43,14.55,17.13,14.43,17.58Z"/>
            <path class="cls-10" d="M11.84,16.8h0l2.08.55,3.16.84a5.31,5.31,0,0,0,.4-1l-3.25-.87-2.08-.55h0l-3.69-1a4.46,4.46,0,0,0-.15,1.08Z"/>
          </g>
          <g>
            <path class="cls-4" d="M27.05,22a6.2,6.2,0,0,0,1.54-.2A5.94,5.94,0,0,0,32.23,19a6,6,0,0,0,.6-4.57l-.35-1.29-11.59,3.1.34,1.29A6,6,0,0,0,27.05,22Z"/>
            <path class="cls-6" d="M28.42,21.16a5.4,5.4,0,0,0,3.88-6A3.91,3.91,0,0,0,32,14a1.09,1.09,0,0,0-.24.07l-1.64.44-8.42,2.25a6.12,6.12,0,0,0,2,3.46A5.33,5.33,0,0,0,28.42,21.16Z"/>
            <path class="cls-7" d="M32.18,15.93,32,15.29l-9.93,2.65a3.72,3.72,0,0,1-.2-.59l-.17-.64L32,14l.17.65a5.26,5.26,0,0,1,.14,2.08A4.94,4.94,0,0,0,32.18,15.93Z"/>
            <path class="cls-8" d="M22.52,17.18a4.67,4.67,0,1,0,9-2.41l-3.69,1h0l-2.08.55Z"/>
            <path class="cls-9" d="M27.05,20a4.47,4.47,0,0,0,1-.13A4,4,0,0,0,31,15.6l-.1-.66L23.15,17l.24.63A4,4,0,0,0,27.05,20Z"/>
            <path class="cls-6" d="M25.57,17.58A1.59,1.59,0,1,0,28.16,16c-.44-.38-1,0-1.54.12l-.76.2c-.41.11-.37,1-.29,1.29C25.8,18.43,25.45,17.13,25.57,17.58Z"/>
            <path class="cls-10" d="M28.16,16.8h0l-2.08.55-3.16.84a5.31,5.31,0,0,1-.4-1l3.25-.87,2.08-.55h0l3.69-1a4.46,4.46,0,0,1,.15,1.08Z"/>
          </g>
          <g>
            <path class="cls-11" d="M16.79,15.82C14.31,13,10.94,10.39,7,10.52a12.25,12.25,0,0,1,8.37,1.42c.67.36,1.31.75,1.94,1.17a6,6,0,0,1,1.45,1.14A1.25,1.25,0,0,1,16.79,15.82Z"/>
            <path class="cls-6" d="M16.79,15.15C14.3,12.32,10.92,9.72,7,9.86a12.22,12.22,0,0,1,8.81,1.66c.69.39,1.35.82,2,1.26s1.18.81,1.19,1.5a1.28,1.28,0,0,1-2.19.87C14.31,12.33,17.81,16.3,16.79,15.15Z"/>
          </g>
          <g>
            <path class="cls-12" d="M21.53,14c3.2-2.4,7.38-4.51,11.5-3.48a11.49,11.49,0,0,0-7.46,2.91A12.64,12.64,0,0,0,23.94,15a4.1,4.1,0,0,1-1.16,1.15A1.25,1.25,0,0,1,21.53,14Z"/>
            <path class="cls-6" d="M21.53,13.33c3.22-2.42,7.38-4.51,11.5-3.47-3-.11-5.78,1.41-8,3.34a11.82,11.82,0,0,0-1.46,1.54,1.66,1.66,0,0,1-1.54.82,1.28,1.28,0,0,1-.53-2.23C24.73,10.93,20.38,14.2,21.53,13.33Z"/>
          </g>
          <g>
            <path class="cls-4" d="M20,35.08c-6.25,0-11.37-2.72-14-7.41a13.87,13.87,0,0,1-1.21-2.73l-.06-.21a2.45,2.45,0,0,1-.06-2.1,1.21,1.21,0,0,1,1-.63c.83,0,1.34.91,1.47,1.18a13,13,0,0,0,1.18,1.87,13.32,13.32,0,0,0,9,5.29,20.31,20.31,0,0,0,2.75.21,20.28,20.28,0,0,0,2.74-.21,13.32,13.32,0,0,0,9-5.29,13.54,13.54,0,0,0,1.18-1.87c.13-.27.64-1.18,1.47-1.18a1.21,1.21,0,0,1,1,.63,2.45,2.45,0,0,1-.06,2.1l-.06.21a13.87,13.87,0,0,1-1.21,2.73c-2.67,4.69-7.79,7.39-14,7.41Z"/>
            <path class="cls-6" d="M34.83,23c-.51-.76-1.12,0-1.36.49a12.88,12.88,0,0,1-1.23,2A14,14,0,0,1,22.85,31a20.43,20.43,0,0,1-2.85.22A20.41,20.41,0,0,1,17.16,31a14,14,0,0,1-9.39-5.56,12.88,12.88,0,0,1-1.23-2C6.3,23,5.69,22.23,5.18,23c-.29.45.07,1.3.21,1.76a13,13,0,0,0,1.15,2.59C9.32,32.23,14.65,34.4,20,34.41s10.69-2.18,13.47-7.07a13,13,0,0,0,1.15-2.59C34.76,24.29,35.12,23.44,34.83,23Z"/>
            <path class="cls-7" d="M6.54,24.81a12.88,12.88,0,0,0,1.23,2,14,14,0,0,0,9.39,5.56,20.41,20.41,0,0,0,2.84.22,20.43,20.43,0,0,0,2.85-.22,14,14,0,0,0,9.39-5.56,12.88,12.88,0,0,0,1.23-2c.24-.48.81-1.18,1.3-.54A1.65,1.65,0,0,0,34.83,23c-.51-.76-1.12,0-1.36.49a12.88,12.88,0,0,1-1.23,2A14,14,0,0,1,22.85,31a20.43,20.43,0,0,1-2.85.22A20.41,20.41,0,0,1,17.16,31a14,14,0,0,1-9.39-5.56,12.88,12.88,0,0,1-1.23-2C6.3,23,5.69,22.23,5.18,23a1.65,1.65,0,0,0,.06,1.28C5.73,23.63,6.3,24.33,6.54,24.81Z"/>
            <path class="cls-9" d="M31.69,27.13A14.75,14.75,0,0,1,23,31.66a21.51,21.51,0,0,1-2.95.23,21.48,21.48,0,0,1-2.94-.23A14.76,14.76,0,0,1,8.3,27.12a6.7,6.7,0,0,0,.45,1.23,1.35,1.35,0,0,0-.51.3C10.85,31.89,15,33.73,20,33.74s9.16-1.85,11.77-5.09a1.38,1.38,0,0,0-.52-.3A6.53,6.53,0,0,0,31.69,27.13Z"/>
            <path class="cls-10" d="M20,31.89a21.48,21.48,0,0,1-2.94-.23A14.76,14.76,0,0,1,8.3,27.12c0,.16.09.32.15.49a14.1,14.1,0,0,0,8.71,4.72,20.41,20.41,0,0,0,2.84.22,20.43,20.43,0,0,0,2.85-.22,14.1,14.1,0,0,0,8.69-4.7c.06-.17.11-.34.15-.5A14.75,14.75,0,0,1,23,31.66,21.51,21.51,0,0,1,20,31.89Z"/>
          </g>
        </g>
      </g>
    </g>
  </g>
</svg>
