<svg id="레이어_1" data-name="레이어 1" xmlns="http://www.w3.org/2000/svg" viewBox="0 0 21.05 40">
  <defs>
    <style>
      .cls-1 {
        fill: #576d64;
      }

      .cls-1, .cls-2 {
        fill-rule: evenodd;
      }
    </style>
  </defs>
  <title>1</title>
  <g>
    <polygon class="cls-1" points="1.17 25.61 10.27 39.27 19.88 25.98 14.62 26.21 14.51 1.02 6.78 0.73 6.26 25.14 6.26 26.48 1.17 25.61"/>
    <path class="cls-1" d="M19.15.69C18.58,1.43,18,2.19,17.51,3a8.8,8.8,0,0,0-1.34,2.46.44.44,0,0,0,.75.41,13.6,13.6,0,0,0,1.31-2.09c.52-.82,1.07-1.61,1.65-2.38C20.26.87,19.55.17,19.15.69Z" transform="translate(-9.48)"/>
    <path class="cls-1" d="M23.49,4.39C20.75,8.55,18,12.72,15.47,17c-.32.55.5,1,.83.47C19,13.33,21.56,9,24.21,4.79,24.49,4.34,23.78,4,23.49,4.39Z" transform="translate(-9.48)"/>
    <path class="cls-1" d="M23.44,10c-2.62,4.22-5.52,8.37-7.86,12.76-.28.52.46.89.78.43,2.86-4.07,5.25-8.53,7.83-12.77C24.48,9.89,23.73,9.48,23.44,10Z" transform="translate(-9.48)"/>
    <path class="cls-1" d="M23.45,16.87q-2.7,3.6-5.41,7.21a38.65,38.65,0,0,0-4.4,6.42c-.21.44.36.92.71.52,3.66-4.1,6.6-9.15,9.84-13.61C24.49,17,23.76,16.45,23.45,16.87Z" transform="translate(-9.48)"/>
    <path class="cls-1" d="M12.64,25.92a3.73,3.73,0,0,0-1.59,1.65.48.48,0,0,0,.14.6.46.46,0,0,0,.61-.05,4.49,4.49,0,0,1,1.36-1.35C13.71,26.44,13.19,25.61,12.64,25.92Z" transform="translate(-9.48)"/>
    <path class="cls-1" d="M23.23,23.34c-2.61,3.3-5.58,6.41-8,9.83-.33.46.39.93.77.57,2.95-2.9,5.4-6.5,7.88-9.8C24.19,23.5,23.58,22.89,23.23,23.34Z" transform="translate(-9.48)"/>
    <path class="cls-1" d="M25.43,26.25c-2.63,3.19-5.46,6.29-7.88,9.64-.36.5.45,1.07.85.63,2.76-3,5.18-6.41,7.73-9.6C26.52,26.43,25.83,25.76,25.43,26.25Z" transform="translate(-9.48)"/>
    <path class="cls-2" d="M9.6,26c3.14,4.58,6.31,9.12,9.47,13.67a.76.76,0,0,0,1.3,0,94.53,94.53,0,0,1,10-13.32.73.73,0,0,0-.54-1.22,33.06,33.06,0,0,0-5.15.71c0-8.21.09-16.43.08-24.63A.69.69,0,0,0,24,.5L19.22.22c-.89,0-2.51-.51-3.32.07-.59.42-.5,1.21-.51,1.84,0,1.63,0,3.27,0,4.89l-.12,18.65-4.8-.82c-.6-.11-1.23.55-.83,1.13ZM16.66,1.8c.27-.66.6-.42,1.39-.37l1.8.12,3.54.24c-.08,8.3-.09,16.6-.14,24.9a.71.71,0,0,0,.9.65,29.68,29.68,0,0,1,4-.69A94.08,94.08,0,0,0,19.69,37.9c-2.59-3.76-5.18-7.53-7.8-11.27l3.81.64A.79.79,0,0,0,16.43,26v0q.09-8.1.16-16.2l0-4c0-.62,0-1.23,0-1.84A7,7,0,0,1,16.66,1.8Z" transform="translate(-9.48)"/>
  </g>
</svg>
