<svg id="레이어_1" data-name="레이어 1" xmlns="http://www.w3.org/2000/svg" viewBox="0 0 40 26.25">
  <defs>
    <style>
      .cls-1 {
        fill: #e3ca95;
      }

      .cls-1, .cls-4, .cls-5, .cls-6, .cls-7 {
        fill-rule: evenodd;
      }

      .cls-2, .cls-6 {
        fill: #518c21;
      }

      .cls-3, .cls-5 {
        fill: #ec331e;
      }

      .cls-4 {
        fill: #576d64;
      }
    </style>
  </defs>
  <title>1</title>
  <g>
    <path class="cls-1" d="M4.87,9.41,1.8,22,.57,28S4,37.2,12.05,30.08l1.66-5.87L17,22.35h6.45l3.05,1,.76,2.15L28,28.64,29.74,31l2.45,1.45,3.27.15,2.43-1,1.26-2V26L36.84,11.07l-1.1-2L29.58,8l-3.67.4L24.3,10.55l-1.66.16-5.24-.16-1.82-.4L14.23,8.54l-.58-.68-4.44.51-3.52.72Z" transform="translate(0 -7.13)"/>
    <circle class="cls-2" cx="32.98" cy="7.08" r="1.73"/>
    <circle class="cls-3" cx="29.11" cy="10.77" r="1.54"/>
    <polygon class="cls-4" points="13.83 8.04 11.36 8.04 11.36 5.27 8.46 5.27 8.46 8.04 6.04 8.04 6.04 10.56 8.46 10.56 8.46 12.57 11.36 12.57 11.36 10.56 13.83 10.56 13.83 8.04"/>
    <path class="cls-5" d="M28.52,16.9l-.45.83a2.39,2.39,0,0,0-.36.82.26.26,0,0,0,.43.24,2.59,2.59,0,0,0,.48-.75l.45-.84A.31.31,0,0,0,28.52,16.9Z" transform="translate(0 -7.13)"/>
    <path class="cls-5" d="M29.39,17.26a8.14,8.14,0,0,0-.81,1.65.38.38,0,0,0,.63.35,7.88,7.88,0,0,0,.89-1.61A.41.41,0,0,0,29.39,17.26Z" transform="translate(0 -7.13)"/>
    <path class="cls-1" d="M7.39,8.55C6.66,9.7,5.92,10.86,5.17,12A18.63,18.63,0,0,0,3.3,15.17c-.13.33.35.54.57.31a18.76,18.76,0,0,0,2-3.07l2.15-3.5C8.3,8.5,7.65,8.15,7.39,8.55Z" transform="translate(0 -7.13)"/>
    <path class="cls-1" d="M10.15,8.15c-2.09,3.9-5.36,7-7.48,10.86a.49.49,0,0,0,.85.47c2.29-3.74,5.22-7.09,7.19-11A.32.32,0,0,0,10.15,8.15Z" transform="translate(0 -7.13)"/>
    <path class="cls-1" d="M13,8.05c-.41.73-.84,1.46-1.27,2.17a11.3,11.3,0,0,0-1.15,2c-.13.36.37.57.61.34a9.53,9.53,0,0,0,1.25-1.93c.42-.73.82-1.46,1.22-2.21A.38.38,0,0,0,13,8.05Z" transform="translate(0 -7.13)"/>
    <path class="cls-1" d="M14.79,9.27a22.09,22.09,0,0,0-3.14,5.23c-.16.47.51.64.75.3.57-.82,1-1.76,1.48-2.61s1.06-1.7,1.63-2.52C15.81,9.23,15.09,8.85,14.79,9.27Z" transform="translate(0 -7.13)"/>
    <path class="cls-1" d="M16.5,10.89c-.46.71-.92,1.42-1.37,2.13a14,14,0,0,0-1.32,2.16c-.13.34.28.72.56.41a12.73,12.73,0,0,0,1.35-2.05l1.42-2.29C17.4,10.84,16.75,10.49,16.5,10.89Z" transform="translate(0 -7.13)"/>
    <path class="cls-1" d="M19.23,10.48c-4.33,7-8.94,14.06-12.76,21.39a.51.51,0,0,0,.9.5c4.4-7,8.25-14.42,12.45-21.56C20,10.43,19.46,10.11,19.23,10.48Z" transform="translate(0 -7.13)"/>
    <path class="cls-1" d="M12.12,18c-2.8,4.53-6.3,8.79-8.84,13.44a.4.4,0,0,0,.64.47c3.49-3.94,6.11-9.06,8.74-13.61C12.86,17.92,12.33,17.63,12.12,18Z" transform="translate(0 -7.13)"/>
    <path class="cls-1" d="M7.92,19.87C5.66,23,3.09,26.13,1.14,29.49c-.22.38.34.8.63.46,2.52-3,4.58-6.49,6.81-9.71C8.85,19.84,8.2,19.49,7.92,19.87Z" transform="translate(0 -7.13)"/>
    <path class="cls-1" d="M7.05,17.42c-1.93,2.73-4.29,5.32-6,8.21a.39.39,0,0,0,.63.46c2.34-2.39,4.12-5.55,6-8.33C7.92,17.38,7.3,17.05,7.05,17.42Z" transform="translate(0 -7.13)"/>
    <path class="cls-1" d="M21.56,10.3c-2.46,4.11-5,8.17-7.37,12.36-.27.48.46.87.75.41,2.49-4.1,4.76-8.33,7.14-12.49A.3.3,0,0,0,21.56,10.3Z" transform="translate(0 -7.13)"/>
    <path class="cls-1" d="M23.76,10.57c-2.23,3.59-4.91,7.18-6.72,11-.17.36.33.8.6.44,2.57-3.41,4.52-7.45,6.69-11.13C24.54,10.52,24,10.21,23.76,10.57Z" transform="translate(0 -7.13)"/>
    <path class="cls-1" d="M27.74,7.83C25.06,12.5,21.82,17,19.36,21.76c-.19.37.34.82.62.46,3.22-4.3,5.67-9.41,8.26-14.11A.29.29,0,0,0,27.74,7.83Z" transform="translate(0 -7.13)"/>
    <path class="cls-1" d="M30.17,8.11c-2.74,4.38-5.66,8.7-8.2,13.19-.3.53.48.94.8.45,2.83-4.32,5.33-8.89,8-13.32C31,8.06,30.39,7.75,30.17,8.11Z" transform="translate(0 -7.13)"/>
    <path class="cls-1" d="M32.7,7.84C29.89,12.49,26.88,17,24,21.61c-.27.44.41.78.69.38A156.12,156.12,0,0,0,33.24,8.14.31.31,0,0,0,32.7,7.84Z" transform="translate(0 -7.13)"/>
    <path class="cls-1" d="M27.89,20c-.38.51-.74,1-1.09,1.56A4.65,4.65,0,0,0,25.92,23a.35.35,0,0,0,.59.32,5.82,5.82,0,0,0,1-1.45c.35-.54.7-1.06,1.06-1.58S28.17,19.57,27.89,20Z" transform="translate(0 -7.13)"/>
    <path class="cls-1" d="M33.06,16.23c-1.89,2.84-3.88,5.59-5.88,8.35-.31.43.42.83.73.4,2-2.74,3.86-5.59,5.67-8.46C33.79,16.2,33.27,15.92,33.06,16.23Z" transform="translate(0 -7.13)"/>
    <path class="cls-1" d="M37.12,14c-2.9,4.74-6.27,9.22-9.07,14-.24.41.38.89.68.5,3.4-4.36,6.11-9.46,8.87-14.25C37.77,13.94,37.31,13.68,37.12,14Z" transform="translate(0 -7.13)"/>
    <path class="cls-1" d="M38,18.32c-2.92,4.1-6,8.1-8.77,12.3-.29.43.42,1,.73.54,3-4.05,5.75-8.35,8.62-12.52C38.86,18.29,38.28,18,38,18.32Z" transform="translate(0 -7.13)"/>
    <path class="cls-1" d="M38.21,22.36C36,25.58,33.6,28.69,31.52,32c-.25.4.37.87.67.5,2.41-3.09,4.48-6.5,6.63-9.77C39.07,22.32,38.46,22,38.21,22.36Z" transform="translate(0 -7.13)"/>
    <path class="cls-1" d="M38.37,26.18a53.72,53.72,0,0,0-4.32,6.2.4.4,0,0,0,.63.46,52.92,52.92,0,0,0,4.39-6.27C39.37,26.14,38.67,25.76,38.37,26.18Z" transform="translate(0 -7.13)"/>
    <path class="cls-1" d="M36.29,10.76c-.52,1-1.21,2-1.66,3-.14.3.25.66.49.37a15.16,15.16,0,0,0,1.72-3C37,10.7,36.47,10.4,36.29,10.76Z" transform="translate(0 -7.13)"/>
    <path class="cls-1" d="M31,15.19c-.18.39-.43.74-.59,1.13a.26.26,0,0,0,.42.31,2.81,2.81,0,0,0,.72-1.13C31.69,15.12,31.14,14.81,31,15.19Z" transform="translate(0 -7.13)"/>
    <path class="cls-1" d="M34.85,8.74a12.83,12.83,0,0,0-2,3.39c-.08.28.34.54.52.28a14.58,14.58,0,0,0,.93-1.63c.33-.59.7-1.17,1.08-1.73C35.64,8.7,35.08,8.41,34.85,8.74Z" transform="translate(0 -7.13)"/>
    <path class="cls-4" d="M6.83,15.14A17,17,0,0,0,5.71,17c-.15.32.28.7.53.39a16.37,16.37,0,0,0,1.18-1.87C7.66,15.1,7.06,14.77,6.83,15.14Z" transform="translate(0 -7.13)"/>
    <path class="cls-4" d="M9.6,12.84c-.59.82-1.17,1.65-1.73,2.49A8.88,8.88,0,0,0,6.48,17.7.33.33,0,0,0,7,18a11.65,11.65,0,0,0,1.53-2.3c.54-.85,1.11-1.69,1.68-2.52C10.51,12.8,9.87,12.46,9.6,12.84Z" transform="translate(0 -7.13)"/>
    <path class="cls-4" d="M10.75,13.52c-.53.65-1,1.32-1.52,2a8.88,8.88,0,0,0-1.3,2.14A.34.34,0,0,0,8.5,18a12.28,12.28,0,0,0,1.24-1.86c.49-.72,1-1.43,1.54-2.11C11.57,13.65,11.05,13.15,10.75,13.52Z" transform="translate(0 -7.13)"/>
    <path class="cls-4" d="M11,15.31c-.45.58-.88,1.16-1.31,1.75A6.36,6.36,0,0,0,8.52,18.9c-.09.35.32.5.56.31a7.32,7.32,0,0,0,1.14-1.54c.42-.61.86-1.21,1.31-1.81C11.84,15.46,11.27,14.9,11,15.31Z" transform="translate(0 -7.13)"/>
    <path class="cls-4" d="M12.3,15.48a40.74,40.74,0,0,0-3,4c-.21.34.33.75.58.42,1-1.28,1.92-2.67,2.92-4C13,15.6,12.56,15.15,12.3,15.48Z" transform="translate(0 -7.13)"/>
    <path class="cls-4" d="M13,16.12a7.63,7.63,0,0,0-1,1.77.32.32,0,0,0,.54.29,8.15,8.15,0,0,0,1-1.74A.33.33,0,0,0,13,16.12Z" transform="translate(0 -7.13)"/>
    <path class="cls-6" d="M32.53,13.27a10.25,10.25,0,0,0-1,1.66c-.11.28.22.6.46.34a10.19,10.19,0,0,0,1.12-1.7C33.29,13.23,32.74,12.93,32.53,13.27Z" transform="translate(0 -7.13)"/>
    <path class="cls-6" d="M33.66,13.43c-.22.33-.45.67-.67,1a3.79,3.79,0,0,0-.58,1c-.1.32.32.49.53.29a4.46,4.46,0,0,0,.64-1c.2-.35.41-.7.62-1S33.88,13.1,33.66,13.43Z" transform="translate(0 -7.13)"/>
    <path class="cls-7" d="M39.68,25.27q-.41-4.31-1-8.56c-.21-1.33-.42-2.66-.66-4a12.13,12.13,0,0,0-.88-3.42c-1.06-2.05-3.6-2-5.62-2.05a28.86,28.86,0,0,0-4,.13c-.91.1-2.07.11-2.65,1-.23.33-.22.91-.54,1.16s-1.17.17-1.58.17H17.88c-.51,0-1.42.19-1.83-.23s-.34-1-.6-1.34a2.6,2.6,0,0,0-2.07-1,16.87,16.87,0,0,0-3.24.39,32.1,32.1,0,0,0-3.78.65c-2.27.65-2.71,2.57-3.18,4.63-.63,2.79-1.27,5.58-1.9,8.37C.92,22.77.52,24.35.21,26a6,6,0,0,0,.13,3.6,7,7,0,0,0,5.34,3.66,6.16,6.16,0,0,0,5.63-1.87,6.12,6.12,0,0,0,.39-.5,7,7,0,0,0,1.47-2.59c.84-2.41,1-5.1,4.12-5.32,1.27-.08,2.58,0,3.85.06a12.39,12.39,0,0,1,3.64.38c1.39.46,1.72,1.44,2,2.77a12.19,12.19,0,0,0,1.17,3.59,6.62,6.62,0,0,0,4.77,3.59,8.61,8.61,0,0,0,6.09-1.54c1.85-1.55,1.1-4.44.9-6.51ZM34.89,13.33h0a2.11,2.11,0,0,1-1,3,1.93,1.93,0,0,1-1.9-.16A2.36,2.36,0,0,1,30.89,15a2.25,2.25,0,0,1,1.44-2.77,2,2,0,0,1,2.56,1.06Zm-1.58,2A1.51,1.51,0,0,1,32,14.62a1.06,1.06,0,0,1,.3-1.14.63.63,0,0,0,.32-.06c1.27-.58,2,1.61.71,1.88Zm-2.64,1.39a2.05,2.05,0,0,1-.41,3,2.67,2.67,0,0,1-1.78.27,1.76,1.76,0,0,1-1.3-1,1.94,1.94,0,0,1,0-1.77,1.62,1.62,0,0,1,.94-.86,2.12,2.12,0,0,1,2.59.38Zm-1,1.93a1.14,1.14,0,0,1-1.42,0,1.1,1.1,0,0,1-.14-1.09h.16c.21-.07.45-.33.64-.35a1.43,1.43,0,0,1,.6.17.78.78,0,0,1,.16,1.31Zm-7.46.46a.54.54,0,0,1-.27,1A21.59,21.59,0,0,0,18.66,20a.57.57,0,0,1,0-1.13,12.07,12.07,0,0,1,3.6.22Zm-8-2.18c0,.56.07,1-.43,1.29a3.51,3.51,0,0,1-2.13.16,7.79,7.79,0,0,0,0,1.67c.06.38-.38.64-.7.57a8.29,8.29,0,0,0-1.29-.22c-.38,0-.8.11-1.17.06a1.24,1.24,0,0,1-.66-.29c-.39-.42-.34-1.32-.29-2-.67.1-1.47.17-1.88-.28-.56-.63-.15-2.08-.11-2.82A.53.53,0,0,1,6,14.5a14.18,14.18,0,0,1,2-.21c0-.76-.08-1.81.37-2.25a1.56,1.56,0,0,1,1.27-.26c.7-.11,1.51-.21,1.94.17.62.54.3,1.76.37,2.58.68.09,1.59,0,2.05.4s.28,1.44.3,2Zm-2.91.26a.58.58,0,0,0-.7.41,8.67,8.67,0,0,0-.11,1.75l-.6-.08a3.84,3.84,0,0,1-.83,0c-.38-.15-.27,0-.3-.59,0-.4,0-.81,0-1.21a.58.58,0,0,0-.58-.55c-.29,0-.58.08-.87.1l-.44,0c-.29.12-.4.06-.31-.19a3.39,3.39,0,0,1,0-1.41,9.16,9.16,0,0,1,1.89-.15.52.52,0,0,0,.5-.51,5.45,5.45,0,0,1,0-1.51.91.91,0,0,1,.24-.4c.27,0,.53.05.8.06h.42c.4-.12.51-.09.34.1.17.41-.13,1.39,0,1.91.25,1,1.42.75,2.28.89a7.09,7.09,0,0,1,.06,1.38,6.09,6.09,0,0,1-1.81,0ZM38.36,29.88c-.42,1.14-1.76,1.45-2.83,1.73-2.44.63-4.66.07-6.06-2.13a9.62,9.62,0,0,1-1.16-3,8.65,8.65,0,0,0-.82-2.92c-.93-1.46-2.78-1.87-4.39-2-1.23-.1-2.47-.09-3.7-.12a13.65,13.65,0,0,0-3.32.14,5,5,0,0,0-3.61,3.8c-.23.82-.34,1.82-.57,2.75a8.56,8.56,0,0,1-1.06,1.89,6,6,0,0,1-.81.85l-.27.1a.39.39,0,0,0-.28.29,5.33,5.33,0,0,1-4.19.58c-2.36-.6-4.3-2.37-3.94-5,.33-2.35,1-4.71,1.58-7l1.59-7c.23-1,.38-2.4,1.31-3.06S8.38,9.19,9.51,9s2-.32,3-.43a3.16,3.16,0,0,1,1.37,0c.58.23.62.76.86,1.26.83,1.74,3.31,1.24,4.89,1.24,1.19,0,2.39,0,3.58,0a3.19,3.19,0,0,0,2.06-.56C26,10,25.87,9.05,27,8.92a27,27,0,0,1,3.81-.2A18.06,18.06,0,0,1,34.46,9c1.28.3,1.57,1.41,1.81,2.56.5,2.49.88,5,1.23,7.54s.59,4.76.8,7.14C38.4,27.34,38.75,28.84,38.36,29.88Z" transform="translate(0 -7.13)"/>
  </g>
</svg>
