<svg id="레이어_1" data-name="레이어 1" xmlns="http://www.w3.org/2000/svg" viewBox="0 0 25.81 40">
  <defs>
    <style>
      .cls-1 {
        fill: #313142;
      }

      .cls-2 {
        fill: #379bdb;
      }

      .cls-3 {
        fill: #1e1e29;
      }

      .cls-4 {
        fill: #3c3c4d;
      }

      .cls-5 {
        fill: #f7b07c;
      }

      .cls-6 {
        fill: #c93712;
      }

      .cls-7 {
        fill: #ffcb9e;
      }

      .cls-8 {
        fill: #bf3c1b;
      }

      .cls-11, .cls-8 {
        opacity: 0.3;
      }

      .cls-9 {
        fill: #ffa073;
      }

      .cls-10 {
        fill: #224245;
      }

      .cls-11 {
        fill: #b54d26;
      }

      .cls-12 {
        fill: #ffdfc2;
      }

      .cls-13 {
        fill: #d4e6dd;
        opacity: 0.7;
      }

      .cls-14 {
        fill: #d94d15;
      }

      .cls-15 {
        fill: #e88564;
      }

      .cls-16 {
        fill: #e85216;
      }
    </style>
  </defs>
  <title>1</title>
  <g>
    <path class="cls-1" d="M16.27,34.25,16,30.82c-4.86,1.13-6.48,5-6.8,9.18h5C14.35,38.69,14.79,35,16.27,34.25Z" transform="translate(-7.46)"/>
    <path class="cls-1" d="M24,30.82l-.26,3.43c1.48.71,1.91,4.44,2,5.75h5C30.49,35.84,28.88,32,24,30.82Z" transform="translate(-7.46)"/>
    <path class="cls-1" d="M26.39,32.39c-1.4-3.23-10.13-3.57-12.72-.1-1.2,1.61-.81,4.91-.16,7.71H26.22C26.82,37.37,27.21,34.28,26.39,32.39Z" transform="translate(-7.46)"/>
    <path class="cls-2" d="M21.54,34.46a1.59,1.59,0,0,0-1.83-.82,1.69,1.69,0,0,0-1.4,1.28l1,1-.83,4h3.28l-1.21-4Z" transform="translate(-7.46)"/>
    <path class="cls-3" d="M15.44,32.46a6.14,6.14,0,0,0,2.68,3.66l1.89-2L22,36c1.93-1.89,2.35-2.26,2.5-3.9S14.91,30.19,15.44,32.46Z" transform="translate(-7.46)"/>
    <path class="cls-4" d="M15.49,30.73c-.94,2.65,2.48,4.8,2.48,4.8l2-1.4,1.91,1.32s3.76-2.15,2.33-5.24C23,27.43,16.58,27.66,15.49,30.73Z" transform="translate(-7.46)"/>
    <path class="cls-5" d="M18.49,27.57a2.94,2.94,0,0,0-2.17,2.7,2.29,2.29,0,0,0,.62,2,4.28,4.28,0,0,0,1.65,1c.47.14,1.27.68,1.42.69s.32-.24.76-.46A4.25,4.25,0,0,0,22.66,32c.51-1,1-3,0-3.79A5.59,5.59,0,0,0,18.49,27.57Z" transform="translate(-7.46)"/>
    <g>
      <path class="cls-6" d="M31.74,7.6a2.65,2.65,0,0,1,.34-.45c.36-.41.7-.75.21-1.37A2.07,2.07,0,0,0,30,5.2c.25-.61.54-1.57-.11-2a2.41,2.41,0,0,0-2.35.29c.86-2.15-2.94-3.45-3.88-1.53-.38-1.1-1.05-2-2.35-1.93-.81.05-2.2.79-2.33,1.68C18.41,1,18.08.29,17,.25a2,2,0,0,0-2.18,2.11,2.77,2.77,0,0,0-2.94-.44,1.88,1.88,0,0,0-1,2.35c-.66-.27-1.56-.72-2.2-.19S8.63,6,9.13,6.54A1.42,1.42,0,0,0,7.52,7.63c-.33,1.39.69,2.75,1.09,4a46.42,46.42,0,0,1,1.24,6.1,24.91,24.91,0,0,0,1.78,6.71c.74,1.46,1.49.84,2.58.27a12.78,12.78,0,0,1,5.05-.95c1.62-.08,4-.21,5.47.49,1,.47,1.49.84,2.5.07A6.05,6.05,0,0,0,28.88,22a11.91,11.91,0,0,0,.74-4.11c.23-2.89.68-5.81,2.86-7.89a2.93,2.93,0,0,0,.76-.92A1.33,1.33,0,0,0,31.74,7.6Z" transform="translate(-7.46)"/>
      <path class="cls-7" d="M18.53,7.49c-5,1-8.44,8.13-7.53,14.85.68,5,4.54,10.54,10.35,10.13s8.89-7.82,8.12-14C28.64,11.74,25.47,6.13,18.53,7.49Z" transform="translate(-7.46)"/>
      <path class="cls-8" d="M24.91,8.55a22.24,22.24,0,0,0-6-1,12.74,12.74,0,0,0-5.46.63c-.93.43-2.07,1-2.41,2a7.41,7.41,0,0,0-.17,2.7,15.63,15.63,0,0,0,.23,2.46,3.83,3.83,0,0,0,1,1.75c.66-1.31.88-3.21,2.29-4a8.19,8.19,0,0,1,4.89-.58,1.5,1.5,0,0,1,1,.8c.4.92-.59,1.6-1.3,1.93,1.16.7,3.18.73,3.87-.61a5.88,5.88,0,0,0,.27.87,10.19,10.19,0,0,0,1.54-1.54,2.31,2.31,0,0,1,1.71-.83c1.31-.21,3.22-.61,2.67-2.46C28.62,9.28,26.2,8.94,24.91,8.55Z" transform="translate(-7.46)"/>
      <path class="cls-7" d="M9.27,19.54c-2.44.67-1.46,4.24.53,5a4.67,4.67,0,0,0,2,.21l0-.06c.29-.46-.11-3.06-.26-3.55C11.16,19.86,10.44,19.22,9.27,19.54Z" transform="translate(-7.46)"/>
      <path class="cls-8" d="M10.12,20.85c-.55-.25-1.91.2-1.27,1.28.34-1,.94-.34.85.36-.06.48-.57.49-.07,1.09a.92.92,0,0,0,1.11,0C11.63,23.05,10.79,21.16,10.12,20.85Z" transform="translate(-7.46)"/>
      <path class="cls-6" d="M25.73,6.11C23,3.78,19.42,3.8,16.05,4.38a12.51,12.51,0,0,0-3.82,1.2c-1,.57-1.4,1.9-1.87,2.9-.54,1.19,0,11,.4,11.33a2.83,2.83,0,0,1,.66,1.29,1.58,1.58,0,0,0,1.1.3,23.78,23.78,0,0,1-.13-5.06c.19-2.67.5-4.11,3.54-4.22,1.39,0,5.11-.59,5.45,1.47.16.92-.62,1.44-1.37,1.77,1.12.36,2.54.29,2.89-1.09a1.6,1.6,0,0,1,.49,1.08c1.4-.95.56-2.46,2.42-2.62,1.23-.1,2.69,0,3.1-1.46l0-.14C29.41,9.05,27.09,7.27,25.73,6.11Z" transform="translate(-7.46)"/>
      <g>
        <path class="cls-9" d="M29.12,21.3a2.24,2.24,0,0,0-1.81-.7c-.78,0-1.81.26-1.13,1.38.36.6,3.45,1.07,3.11-.31A1.4,1.4,0,0,0,29.12,21.3Z" transform="translate(-7.46)"/>
        <path class="cls-9" d="M16.32,21.08a2.35,2.35,0,0,0-2-.24c-.79.19-1.77.74-.79,1.69.53.51,3.79.18,3.08-1.12A1.23,1.23,0,0,0,16.32,21.08Z" transform="translate(-7.46)"/>
        <path class="cls-10" d="M15.77,17.94c-1.28-.55-2.08,1.73-1.21,2.47a1.85,1.85,0,0,1,1.27.11A1.57,1.57,0,0,0,15.77,17.94Z" transform="translate(-7.46)"/>
        <path class="cls-11" d="M22,22.2c-.75,0-1-.33-1.57,0s.23,1.31,1.55,1.26,1.89-1,1.61-1.29S22.83,22.19,22,22.2Z" transform="translate(-7.46)"/>
        <path class="cls-12" d="M21.8,19.38c-1.4-.12-1.5,2.86-1.18,3.11a2.65,2.65,0,0,0,2.9-.32C23.71,22,23.14,19.5,21.8,19.38Z" transform="translate(-7.46)"/>
        <path class="cls-10" d="M28.06,17.86c-1.29-.78-2.25,1.73-1.18,2.44a1.71,1.71,0,0,1,1.35,0A1.85,1.85,0,0,0,28.06,17.86Z" transform="translate(-7.46)"/>
        <path class="cls-13" d="M15.32,18.34c-.52.18-.13,1.19.38.82C16.06,18.9,15.78,18.19,15.32,18.34Z" transform="translate(-7.46)"/>
        <path class="cls-13" d="M27.56,18.13c-.52.11-.27,1.12.25.83S28,18,27.56,18.13Z" transform="translate(-7.46)"/>
        <path class="cls-14" d="M29.09,16.25c.55-.46-.06-.6-.46-.44.46-.83-.81-.38-1.12-.16.14-.3.29-.45-.08-.5s-.72.24-1,.41c.17-.61-1,.25-1.08.36s-.21.24-.31.37c-.92,1.2,1.69.69,2.14.68a6.65,6.65,0,0,1,1.62.16c.39.08.85-.07.87-.53S29.44,16.1,29.09,16.25Z" transform="translate(-7.46)"/>
        <path class="cls-14" d="M17.3,15.92c-.1-.11-1.25-1-1.08-.36-.24-.17-.63-.47-1-.41s-.22.2-.08.5c-.31-.22-1.58-.67-1.12.16-.4-.16-1,0-.46.44-.34-.15-.64-.06-.62.35s.48.61.87.53A6.65,6.65,0,0,1,15.47,17c.45,0,3.06.52,2.14-.68C17.51,16.16,17.41,16,17.3,15.92Z" transform="translate(-7.46)"/>
        <g>
          <path class="cls-15" d="M14.93,24.36c.69,1.31,2.36.68,1.65-.66A1.23,1.23,0,0,1,14.93,24.36Z" transform="translate(-7.46)"/>
          <path class="cls-15" d="M26,23.48a.94.94,0,1,0,1.8.51A1.41,1.41,0,0,1,26,23.48Z" transform="translate(-7.46)"/>
          <path class="cls-15" d="M26.77,24.19a.38.38,0,0,0-.49.2,5.08,5.08,0,0,1-5,3.08,5.18,5.18,0,0,1-4.75-2.73.44.44,0,0,0-.52-.21.33.33,0,0,0-.21.45,6,6,0,0,0,5.31,3.19h.21A5.77,5.77,0,0,0,27,24.64.37.37,0,0,0,26.77,24.19Z" transform="translate(-7.46)"/>
        </g>
      </g>
      <path class="cls-16" d="M29.89,6.87C31.36,5.68,29,5.5,28.2,5.6,29,3.88,26.76,4,25.8,4.42c.35-1.24-2.14-1.76-2.71-1a1.11,1.11,0,0,0-.45-1.81c-1.12-.42-2.42.84-3.27,1.4a4.11,4.11,0,0,0-1.12-.83,2,2,0,0,0-1.42-.28C16,2.13,16,3.14,15.67,3.79c-.8-.56-2.3-1.33-3.15-.42a2.7,2.7,0,0,0-.11,2.56c-.5-.3-2.34-.95-1.83.4-1.26.19-.31,1.3.13,1.74a14.92,14.92,0,0,1,1.82,2.59c-.32-.49.7-2.58,1.21-2.77A1.5,1.5,0,0,0,15,9.45c.92.07,1.41-.79,1.8-1.45.35,1.54,1.9.79,2.33-.23A15.16,15.16,0,0,1,20.57,10c.21-.76.93-1.27,1.09-2,.55.48,1.92,2,2.34.29.52,1.67.79,2.46-.72,3.49,1.77.21,2.67-.88,2.75-2.5s1.3-1.46,1.9,0c-.13-1.36,2.24-1.4,2.06.31.35-.37,1.28-1.08,1.24-1.66C31.2,7.51,30.19,6.63,29.89,6.87Z" transform="translate(-7.46)"/>
    </g>
  </g>
</svg>
