<svg id="레이어_1" data-name="레이어 1" xmlns="http://www.w3.org/2000/svg" viewBox="0 0 40 35.55">
  <defs>
    <style>
      .cls-1, .cls-7 {
        fill: #ff9500;
      }

      .cls-2, .cls-6 {
        fill: #aedff4;
      }

      .cls-3, .cls-8 {
        fill: #576d64;
      }

      .cls-4, .cls-5 {
        fill: #86bcb6;
      }

      .cls-5, .cls-6, .cls-7, .cls-8, .cls-9 {
        fill-rule: evenodd;
      }
    </style>
  </defs>
  <title>1</title>
  <g>
    <rect class="cls-1" x="6.01" y="6.1" width="6.45" height="3.27"/>
    <rect class="cls-2" x="19.29" y="0.7" width="14.03" height="6.14"/>
    <path class="cls-3" d="M2.91,9.48H37.3a2.33,2.33,0,0,1,2.33,2.33V34.4a.28.28,0,0,1-.28.28H2.91a.28.28,0,0,1-.28-.28V9.77A.28.28,0,0,1,2.91,9.48Z"/>
    <rect class="cls-3" x="21.64" y="7.29" width="9.22" height="2.08"/>
    <ellipse class="cls-4" cx="25.96" cy="22.14" rx="10.32" ry="9.98"/>
    <polygon class="cls-5" points="1.3 12.9 1.47 20.26 0.8 27.5 0.63 30.96 1.93 31.74 5.75 31.57 9.65 28.97 10.38 20.5 10.16 15.7 6.81 12.89 3.43 12.23 1.3 12.68 1.3 12.9"/>
    <ellipse class="cls-2" cx="25.9" cy="22.14" rx="7.42" ry="7.18"/>
    <path class="cls-6" d="M23.42,16.88,20.11,21c-.49.61-1.77,1.55-1.29,2.42a.42.42,0,0,0,.77-.23c0-.41.92-1.26,1.17-1.57l1-1.31L24,17.46C24.36,17,23.76,16.46,23.42,16.88Z" transform="translate(0 -1.82)"/>
    <path class="cls-6" d="M26.22,16.6a79.44,79.44,0,0,0-7.73,9.89c-.28.45.44,1,.77.56,2.47-3.35,4.83-6.73,7.54-9.9C27.14,16.76,26.57,16.21,26.22,16.6Z" transform="translate(0 -1.82)"/>
    <path class="cls-6" d="M28.23,16.93c-2.86,3.79-6.17,7.67-8.34,11.91-.22.45.4,1,.75.54,3.06-3.7,5.49-8,8.33-11.91C29.27,17.05,28.55,16.51,28.23,16.93Z" transform="translate(0 -1.82)"/>
    <path class="cls-6" d="M30.15,17.58c-2.93,4-5.88,8-8.47,12.21-.37.6.56,1.09.95.52C25.36,26.23,28,22.1,30.86,18.1,31.16,17.69,30.45,17.17,30.15,17.58Z" transform="translate(0 -1.82)"/>
    <path class="cls-6" d="M31.38,19.28c-2.4,3.67-5,7.26-7.23,11-.34.55.5,1,.86.47,2.55-3.55,4.79-7.38,7.11-11.08C32.42,19.22,31.67,18.82,31.38,19.28Z" transform="translate(0 -1.82)"/>
    <path class="cls-6" d="M32.42,21q-2,3.09-4,6.18c-.44.69-2.28,2.52-1.68,3.39a.48.48,0,0,0,.82,0l0-.06a.38.38,0,0,0,0-.28,10.37,10.37,0,0,1,1.08-1.67l1.46-2.38,2.93-4.76C33.41,21,32.7,20.6,32.42,21Z" transform="translate(0 -1.82)"/>
    <path class="cls-6" d="M32.48,24.3c-.65,1.05-1.32,2.1-2,3.13a12.08,12.08,0,0,0-1.74,2.89c-.12.42.39.59.67.37a11.32,11.32,0,0,0,1.93-2.78c.65-1.05,1.29-2.11,1.92-3.17C33.58,24.23,32.78,23.8,32.48,24.3Z" transform="translate(0 -1.82)"/>
    <path class="cls-6" d="M22.89,2.74c-.62.8-1.22,1.6-1.82,2.41l-.89,1.26a9.25,9.25,0,0,1-.81,1.29.47.47,0,0,0-.29.2A.21.21,0,0,1,19,8a.48.48,0,0,0,.43.7c.75,0,1.22-1.27,1.57-1.78.81-1.18,1.66-2.34,2.53-3.49C23.93,2.92,23.26,2.26,22.89,2.74Z" transform="translate(0 -1.82)"/>
    <path class="cls-6" d="M25.05,2.73c-.63,1-1.28,1.95-1.91,2.93a13.57,13.57,0,0,0-1.63,2.7c-.15.42.43.66.71.39A13.92,13.92,0,0,0,24,6.12l1.85-2.95C26.15,2.67,25.37,2.25,25.05,2.73Z" transform="translate(0 -1.82)"/>
    <path class="cls-6" d="M27.39,3,25.78,5.77a12.72,12.72,0,0,0-1.36,2.61.4.4,0,0,0,.67.37,12.6,12.6,0,0,0,1.52-2.52l1.56-2.85A.45.45,0,0,0,27.39,3Z" transform="translate(0 -1.82)"/>
    <path class="cls-6" d="M29.94,2.78a20.75,20.75,0,0,0-3.21,5.49c-.16.48.57.74.81.32a53.2,53.2,0,0,1,3.11-5.3C30.94,2.89,30.24,2.37,29.94,2.78Z" transform="translate(0 -1.82)"/>
    <path class="cls-6" d="M32,2.85c-1,1.74-2.29,3.7-2.75,5.65a.41.41,0,0,0,.75.29A20.81,20.81,0,0,0,31.32,6c.45-.93.92-1.85,1.41-2.75A.43.43,0,0,0,32,2.85Z" transform="translate(0 -1.82)"/>
    <path class="cls-6" d="M33.14,4.65a25,25,0,0,0-1.92,3.84c-.11.38.45.72.71.39a24,24,0,0,0,2-3.79C34.18,4.57,33.41,4.14,33.14,4.65Z" transform="translate(0 -1.82)"/>
    <path class="cls-5" d="M3.41,14.61,2.22,16.09a7.69,7.69,0,0,0-1.05,1.44c-.14.3.19.73.51.49a7.44,7.44,0,0,0,1.17-1.33L4,15.2C4.35,14.77,3.75,14.18,3.41,14.61Z" transform="translate(0 -1.82)"/>
    <path class="cls-5" d="M5.88,14.62a69.55,69.55,0,0,0-5,6c-.28.43.36.85.7.51a69.69,69.69,0,0,0,4.93-5.9C6.84,14.79,6.24,14.21,5.88,14.62Z" transform="translate(0 -1.82)"/>
    <path class="cls-5" d="M8.09,15.51C6.88,17,5.64,18.55,4.35,20A33.64,33.64,0,0,0,.86,24.1c-.2.34.24.78.57.54A22.6,22.6,0,0,0,5,20.69q1.88-2.28,3.64-4.63C9,15.66,8.42,15.1,8.09,15.51Z" transform="translate(0 -1.82)"/>
    <path class="cls-5" d="M9.23,17.44c-2.67,3.17-5.65,6.17-8.14,9.47-.36.48.24,1.1.68.66A125,125,0,0,0,9.82,18C10.15,17.6,9.57,17,9.23,17.44Z" transform="translate(0 -1.82)"/>
    <path class="cls-5" d="M10.21,20.36C8.64,22.15,7,23.92,5.37,25.65A40.89,40.89,0,0,0,.88,30.38c-.24.36.26.81.61.58a28.38,28.38,0,0,0,4.6-4.63c1.61-1.77,3.2-3.56,4.74-5.38C11.19,20.53,10.58,19.94,10.21,20.36Z" transform="translate(0 -1.82)"/>
    <path class="cls-5" d="M10.31,23.63q-2.45,2.58-4.9,5.14a32.85,32.85,0,0,0-4.36,4.78c-.23.35.26.83.6.58a34.15,34.15,0,0,0,4.48-4.67c1.59-1.76,3.19-3.5,4.8-5.25A.42.42,0,0,0,10.31,23.63Z" transform="translate(0 -1.82)"/>
    <path class="cls-5" d="M9.56,27.82c-.92.91-1.82,1.83-2.69,2.8a11.1,11.1,0,0,0-2.23,2.81c-.14.34.2.82.57.55a15.56,15.56,0,0,0,2.38-2.67c.85-1,1.75-1.92,2.66-2.84C10.68,28,10,27.39,9.56,27.82Z" transform="translate(0 -1.82)"/>
    <path class="cls-5" d="M22.56,14.3c-2.28,2.18-5.16,5-6.32,8-.14.37.41.63.66.36,1.1-1.22,1.88-2.76,2.9-4.05a39.35,39.35,0,0,1,3.35-3.71C23.53,14.49,22.94,13.93,22.56,14.3Z" transform="translate(0 -1.82)"/>
    <path class="cls-5" d="M25.58,13.62l-1.46,1.62a9,9,0,0,0-1.31,1.58c-.19.36.24.81.6.56a8.92,8.92,0,0,0,1.41-1.47l1.45-1.63C26.67,13.82,26,13.17,25.58,13.62Z" transform="translate(0 -1.82)"/>
    <path class="cls-5" d="M28.05,14c-.4.4-.78.81-1.14,1.24A6,6,0,0,0,26,16.53a.43.43,0,0,0,.68.5,11.1,11.1,0,0,0,1-1.25c.34-.41.7-.8,1.08-1.18S28.47,13.57,28.05,14Z" transform="translate(0 -1.82)"/>
    <path class="cls-5" d="M30.07,14.76c-.32.36-.64.72-.93,1.09A3,3,0,0,0,28.42,17a.42.42,0,0,0,.61.45,3.58,3.58,0,0,0,.83-1c.28-.36.57-.7.87-1S30.47,14.33,30.07,14.76Z" transform="translate(0 -1.82)"/>
    <path class="cls-5" d="M32.11,15.92c-.27.28-.53.56-.8.83a3.75,3.75,0,0,0-.72.87.39.39,0,0,0,.54.51,3.33,3.33,0,0,0,.83-.76l.79-.83C33.15,16.12,32.5,15.5,32.11,15.92Z" transform="translate(0 -1.82)"/>
    <path class="cls-5" d="M33.69,17.24c-.33.41-.66.83-1,1.25s-.72.74-.79,1.19c0,.25.18.56.47.45.45-.19.69-.64,1-1l1-1.26C34.67,17.4,34,16.79,33.69,17.24Z" transform="translate(0 -1.82)"/>
    <path class="cls-5" d="M34.74,19l-1.08,1.4a6.65,6.65,0,0,0-.95,1.36c-.12.29.19.72.5.48a14.15,14.15,0,0,0,2.16-2.64C35.71,19.16,35.09,18.56,34.74,19Z" transform="translate(0 -1.82)"/>
    <path class="cls-5" d="M35.81,21.21a17.8,17.8,0,0,0-3,3.9c-.2.38.32.81.63.46,1.07-1.2,1.93-2.56,3-3.76A.44.44,0,0,0,35.81,21.21Z" transform="translate(0 -1.82)"/>
    <path class="cls-5" d="M18,23c-.43.48-.85,1-1.25,1.46a7,7,0,0,0-1.07,1.48.42.42,0,0,0,.67.49A10.25,10.25,0,0,0,17.49,25c.39-.47.78-.93,1.18-1.39S18.4,22.5,18,23Z" transform="translate(0 -1.82)"/>
    <path class="cls-5" d="M17.89,26.55a17.1,17.1,0,0,0-1.34,1.71c-.27.43.35.82.69.5a15.43,15.43,0,0,0,1.36-1.54C19,26.74,18.3,26.06,17.89,26.55Z" transform="translate(0 -1.82)"/>
    <path class="cls-5" d="M20.93,29.92a.46.46,0,0,0-.62.18q-.49.69-1,1.41c-.26.41.4.91.7.51s.71-1,1.06-1.49A.45.45,0,0,0,20.93,29.92Z" transform="translate(0 -1.82)"/>
    <path class="cls-5" d="M22.59,30.8a13.15,13.15,0,0,0-1,1.09,1.88,1.88,0,0,0-.66,1.17.34.34,0,0,0,.44.32c.43-.14.65-.58.93-.91a12,12,0,0,1,1-1C23.65,31,23,30.39,22.59,30.8Z" transform="translate(0 -1.82)"/>
    <path class="cls-5" d="M27.8,31.08c-.4.52-.82,1-1.26,1.52A7.83,7.83,0,0,0,25.31,34a.39.39,0,0,0,.55.52,5.7,5.7,0,0,0,1.33-1.31c.43-.5.84-1,1.24-1.55S28.14,30.64,27.8,31.08Z" transform="translate(0 -1.82)"/>
    <path class="cls-5" d="M36,23.66c-2.51,3.19-5.4,6.17-7.77,9.46-.28.4.35.81.67.49,2.83-2.81,5.19-6.3,7.61-9.47C36.75,23.79,36.25,23.3,36,23.66Z" transform="translate(0 -1.82)"/>
    <path class="cls-5" d="M35.83,26.52c-.83,1-1.64,2.09-2.47,3.13a21.23,21.23,0,0,0-2.18,2.91.38.38,0,0,0,.61.44,23.74,23.74,0,0,0,2.31-3l2.26-3C36.63,26.65,36.12,26.15,35.83,26.52Z" transform="translate(0 -1.82)"/>
    <path class="cls-7" d="M7.18,8.12A12.62,12.62,0,0,0,5.67,10.7c-.18.48.53.67.78.31.54-.79.94-1.68,1.47-2.49C8.22,8.06,7.48,7.67,7.18,8.12Z" transform="translate(0 -1.82)"/>
    <path class="cls-7" d="M8.74,8.12c-.63,1-1.33,2-1.86,3a.43.43,0,0,0,.75.41c.69-1,1.25-2,1.85-3C9.77,8.05,9,7.65,8.74,8.12Z" transform="translate(0 -1.82)"/>
    <path class="cls-7" d="M10.16,8.3c-.24.47-.5.92-.78,1.36a8.18,8.18,0,0,0-.74,1.28c-.15.4.4.56.65.35a4.52,4.52,0,0,0,.89-1.19c.28-.44.53-.9.77-1.36S10.43,7.79,10.16,8.3Z" transform="translate(0 -1.82)"/>
    <path class="cls-7" d="M11.63,8.42a13,13,0,0,0-1.24,2.4.39.39,0,0,0,.66.37,13.34,13.34,0,0,0,1.36-2.34A.45.45,0,0,0,11.63,8.42Z" transform="translate(0 -1.82)"/>
    <path class="cls-8" d="M4,11.88c-.26.4-.53.79-.8,1.18a2.74,2.74,0,0,0-.61,1.2c0,.39.45.54.73.4a3,3,0,0,0,.86-1.06L5,12.42C5.37,11.83,4.4,11.3,4,11.88Z" transform="translate(0 -1.82)"/>
    <path class="cls-8" d="M7.08,11.57a.58.58,0,0,0-.77.23l-.75,1a4.2,4.2,0,0,0-.65,1.07.5.5,0,0,0,.74.54,4.54,4.54,0,0,0,.86-1l.79-1.09A.58.58,0,0,0,7.08,11.57Z" transform="translate(0 -1.82)"/>
    <path class="cls-8" d="M9.14,11.82c-.28.45-.57.9-.88,1.34a6.92,6.92,0,0,0-.9,1.33c-.15.39.23.93.66.63A4.89,4.89,0,0,0,9.1,13.85c.35-.5.67-1,1-1.51S9.51,11.23,9.14,11.82Z" transform="translate(0 -1.82)"/>
    <path class="cls-8" d="M11.55,12.3a13.68,13.68,0,0,0-2.41,4,.49.49,0,0,0,.82.45,12.15,12.15,0,0,0,1.2-1.9c.43-.68.87-1.35,1.34-2S12,11.75,11.55,12.3Z" transform="translate(0 -1.82)"/>
    <path class="cls-8" d="M15.37,11.69q-1.3,1.94-2.64,3.85a32.2,32.2,0,0,0-2.63,3.84.45.45,0,0,0,.72.53,25.54,25.54,0,0,0,2.59-3.67c.92-1.37,1.83-2.74,2.73-4.13C16.45,11.64,15.68,11.23,15.37,11.69Z" transform="translate(0 -1.82)"/>
    <path class="cls-8" d="M22.05,11.25q-1.38,1.65-2.7,3.35a13.14,13.14,0,0,0-2,3c-.18.48.48.7.79.43a16.41,16.41,0,0,0,2.14-2.81q1.23-1.68,2.52-3.33C23.18,11.44,22.47,10.75,22.05,11.25Z" transform="translate(0 -1.82)"/>
    <path class="cls-8" d="M23.36,9.27c-.52.65-1.14,1.23-1.63,1.89-.26.34.09.93.51.63A9.39,9.39,0,0,0,24,9.91C24.4,9.45,23.73,8.81,23.36,9.27Z" transform="translate(0 -1.82)"/>
    <path class="cls-8" d="M26.07,9A28.38,28.38,0,0,0,24,11.22a6.58,6.58,0,0,0-1.52,2.16.45.45,0,0,0,.67.49,10.49,10.49,0,0,0,1.69-2c.61-.74,1.24-1.44,1.91-2.13C27.2,9.25,26.52,8.59,26.07,9Z" transform="translate(0 -1.82)"/>
    <path class="cls-8" d="M28.63,8.94c-.67.75-1.32,1.52-1.95,2.3A12.59,12.59,0,0,0,25,13.52a.49.49,0,0,0,.77.57,22.64,22.64,0,0,0,1.73-2.27c.58-.75,1.18-1.48,1.8-2.2C29.74,9.14,29.05,8.48,28.63,8.94Z" transform="translate(0 -1.82)"/>
    <path class="cls-8" d="M30.53,9.57,29,11.52A7.33,7.33,0,0,0,27.7,13.3c-.14.37.38.72.68.5a7.36,7.36,0,0,0,1.41-1.68l1.43-1.89C31.58,9.75,30.92,9.08,30.53,9.57Z" transform="translate(0 -1.82)"/>
    <path class="cls-8" d="M32.3,11.1a24.57,24.57,0,0,0-2.23,2.75c-.31.51.4,1,.81.59A11.5,11.5,0,0,0,32,13.12L33,11.78C33.4,11.29,32.71,10.61,32.3,11.1Z" transform="translate(0 -1.82)"/>
    <path class="cls-8" d="M35.19,11.35c-.57.64-1.13,1.3-1.67,2a8.83,8.83,0,0,0-1.45,1.95.5.5,0,0,0,.79.58,13.52,13.52,0,0,0,1.48-1.95c.5-.64,1-1.28,1.55-1.9C36.28,11.54,35.61,10.88,35.19,11.35Z" transform="translate(0 -1.82)"/>
    <path class="cls-8" d="M37.35,11.9c-.69.82-1.36,1.64-2,2.48a6.52,6.52,0,0,0-1.51,2.3.43.43,0,0,0,.63.46A7.6,7.6,0,0,0,36.2,15c.6-.81,1.22-1.61,1.85-2.4C38.44,12.09,37.76,11.42,37.35,11.9Z" transform="translate(0 -1.82)"/>
    <path class="cls-8" d="M38.62,14.22c-.64.76-1.29,1.52-1.92,2.29a7.53,7.53,0,0,0-1.51,2.09c-.12.35.33.64.62.46a8.6,8.6,0,0,0,1.72-2q.88-1.09,1.8-2.19C39.72,14.41,39,13.74,38.62,14.22Z" transform="translate(0 -1.82)"/>
    <path class="cls-8" d="M38.86,18.13c-.55.58-1.08,1.19-1.59,1.81A7.22,7.22,0,0,0,36,21.73c-.19.52.51.75.84.47a11.65,11.65,0,0,0,1.31-1.72c.44-.57.9-1.12,1.38-1.67S39.3,17.67,38.86,18.13Z" transform="translate(0 -1.82)"/>
    <path class="cls-8" d="M38.86,22.08A111.38,111.38,0,0,1,29.4,35.73c-.48.61.4,1.45.88.84a105.67,105.67,0,0,0,9.3-14.1A.41.41,0,0,0,38.86,22.08Z" transform="translate(0 -1.82)"/>
    <path class="cls-8" d="M39,26.51c-2.09,3.34-4.33,6.56-6.59,9.78-.42.6.57,1.13,1,.55,2.28-3.19,4.35-6.55,6.33-9.93C40,26.44,39.28,26.05,39,26.51Z" transform="translate(0 -1.82)"/>
    <path class="cls-8" d="M38.77,31.83c-.61.87-1.24,1.73-1.88,2.58a11.48,11.48,0,0,0-1.59,2.23c-.14.35.21.84.59.56a9.64,9.64,0,0,0,1.89-2.27c.63-.87,1.25-1.74,1.85-2.62C40,31.78,39.13,31.33,38.77,31.83Z" transform="translate(0 -1.82)"/>
    <path class="cls-8" d="M28,33.94a15.47,15.47,0,0,0-1,1.26,4.16,4.16,0,0,0-.81,1.39.42.42,0,0,0,.71.39,6.52,6.52,0,0,0,.8-1.19c.3-.43.62-.84.95-1.24S28.4,33.51,28,33.94Z" transform="translate(0 -1.82)"/>
    <path class="cls-8" d="M24.71,34.15l-.94,1.19a6.07,6.07,0,0,0-.86,1.17c-.16.37.24.92.63.61a5.87,5.87,0,0,0,.95-1.1l.92-1.2C25.79,34.33,25.1,33.65,24.71,34.15Z" transform="translate(0 -1.82)"/>
    <path class="cls-8" d="M15.29,25.53c-2.43,3.53-5,7-7.29,10.66-.39.64.59,1.14,1,.55,2.5-3.48,4.67-7.22,7-10.82C16.27,25.48,15.58,25.11,15.29,25.53Z" transform="translate(0 -1.82)"/>
    <path class="cls-8" d="M16.34,28.82c-.82,1.25-1.64,2.49-2.48,3.72a23.11,23.11,0,0,0-2.46,3.73.45.45,0,0,0,.71.53,18.69,18.69,0,0,0,2.47-3.54c.86-1.33,1.7-2.66,2.54-4C17.42,28.76,16.65,28.35,16.34,28.82Z" transform="translate(0 -1.82)"/>
    <path class="cls-8" d="M22.24,33.92c-.32.42-.63.84-.95,1.25a5.1,5.1,0,0,0-.79,1.22.43.43,0,0,0,.64.47,5.27,5.27,0,0,0,.94-1.11L23,34.48C23.32,34.05,22.57,33.48,22.24,33.92Z" transform="translate(0 -1.82)"/>
    <path class="cls-9" d="M40,33.91c0-1.14,0-2.29,0-3.44,0-3.26-.12-6.52-.2-9.78,0-1.35,0-2.7,0-4.05,0-1.5.49-3.17-.41-4.51a4,4,0,0,0-3.12-1.47,41.39,41.39,0,0,0-5.1.07,3,3,0,0,0,.2-1.3c.63,0,1.25,0,1.88-.06a.48.48,0,0,0,.47-.44A.57.57,0,0,0,34,8.37c0-1.93,0-3.87.05-5.8A.59.59,0,0,0,33.48,2a85.17,85.17,0,0,1-10.23.1c-.85,0-1.71-.09-2.55-.16-.44,0-1.18-.24-1.6,0-.79.53-.38,2.39-.39,3.15s0,1.71,0,2.57c0,.4-.1,1,.18,1.33s.64.28,1,.31.87.06,1.32.07a3.36,3.36,0,0,0,.09,1.48c-2.86,0-5.73,0-8.59-.07a.59.59,0,0,0,0-.13c0-1.17.68-3.06-.88-3.18-1.1-.08-2.23,0-3.33,0a11.47,11.47,0,0,0-2.87,0,.55.55,0,0,0-.36.38,8,8,0,0,0,.22,2.74,6.1,6.1,0,0,0-2,.12c-1.37.39-1.57,1.69-1.47,2.92a1.64,1.64,0,0,0-1.14.52c-.55.68-.24,1.89-.22,2.67Q.71,19,.69,21.22c0,2.72-.16,5.45-.42,8.17-.17,1.72-.92,4.07,1.17,4.89l.23.08a.56.56,0,0,0,.12.64c.26.27.11,1.07.42,1.46a2.33,2.33,0,0,0,1.48.73,35.46,35.46,0,0,0,5.83.08l13.48,0,13.49,0c1.28,0,2.78.23,3.32-1.22A6.19,6.19,0,0,0,40,33.91ZM11.78,10.78l-1.67,0-3.65-.07v0c0-.48-.33-1.82,0-2.15s2.17,0,2.56,0a11.15,11.15,0,0,1,2.31,0c.77.19.46,1.48.45,2.19a.28.28,0,0,0,0,.09ZM30.3,9.46a2.66,2.66,0,0,1-.17,1,.45.45,0,0,0,0,.28c-2.26.05-4.51.08-6.77.09h-1.1v0a3.27,3.27,0,0,1-.11-1.42h.31q3.91.12,7.84,0Zm-3.94-1c-1.05,0-2.1,0-3.14-.07a18.79,18.79,0,0,1-3.43-.13,21.27,21.27,0,0,1,.06-2.88,12.23,12.23,0,0,1,0-2.36,28.86,28.86,0,0,1,3,.26c1.2.08,2.39.13,3.58.15,2.19,0,4.37,0,6.55-.16,0,1.71,0,3.43,0,5.14-2.16.06-4.32.07-6.48.05ZM32.91,20c1.81,3.54,1,8.36-2.45,10.54a8.43,8.43,0,0,1-10.26-.88,7.28,7.28,0,0,1-.93-1.08.37.37,0,0,1-.39-.26c-.1-.32-.21-.65-.3-1a7.69,7.69,0,0,1,0-5.94l.08-.23A9.1,9.1,0,0,1,23,16.37a8.84,8.84,0,0,1,6.18.19A7.26,7.26,0,0,1,32.9,20Zm-8-2.78a7.26,7.26,0,0,1,5.63,1.68c-.86,1.47-3.36,1.78-4.87,1.56a6.34,6.34,0,0,1-3.65-2,4.81,4.81,0,0,1,2.89-1.28Zm7.56,7.83a5.9,5.9,0,0,1-3.42,4.84,7.18,7.18,0,0,1-6.11.15,7,7,0,0,1-3.64-3.84,9.89,9.89,0,0,1,.48-4.5,8,8,0,0,1,1.48-2.44,7.17,7.17,0,0,0,5,2.29c1.69.06,3.87-.49,4.88-2a7.4,7.4,0,0,1,1.31,5.46ZM37,22.51A11.32,11.32,0,0,1,30.21,34a11.33,11.33,0,0,1-12.89-3.46,11.15,11.15,0,0,1,.29-13.48.33.33,0,0,1,.27-.14,10.83,10.83,0,0,1,8-4c5.27-.1,10.47,4.29,11,9.52ZM31,32.27A10.16,10.16,0,0,1,19.37,31a10,10,0,0,1-3.12-7.39A10.52,10.52,0,0,1,24,14.53c4.76-1.2,10.47,2.31,11.54,7.09A10.2,10.2,0,0,1,31,32.27ZM1.3,31.66c0-1.09.24-2.23.33-3.32.2-2.29.3-4.6.33-6.9,0-1.19,0-2.38,0-3.58,0-.6,0-1.19-.07-1.79,0-.85.06-1,.93-1.21,2.07-.43,4.75.14,6,1.94a5.75,5.75,0,0,1,.88,2,13.3,13.3,0,0,1,.19,2.93c0,.49,0,1,0,1.51l0,.36a.7.7,0,0,0,0,.16,19.55,19.55,0,0,1-.53,5.21c-.68,2.46-2.42,3.59-4.83,4a10.3,10.3,0,0,1-1.56.23c-1.21,0-1.58-.36-1.6-1.54Zm37.51,3.9c-.46.71-1.37.7-2.08.7l-7.4,0-14.81-.08-7.4,0A13.75,13.75,0,0,1,3.91,36c-.86-.23-.77-.91-1-1.5a10.9,10.9,0,0,0,4.42-1.08A6.43,6.43,0,0,0,10.53,29a34.36,34.36,0,0,0,.53-8.54c0-2-.63-4.38-2.47-5.44a5.51,5.51,0,0,0-2.81-1.27A12.16,12.16,0,0,0,3,13.62a2.49,2.49,0,0,1,0-1.09c.32-.88,1.27-.73,2-.69L8.28,12c2.3.09,4.6.13,6.9.16q7,.11,14.06,0c2.14,0,4.31-.23,6.45-.15.9,0,2.07.15,2.59,1s.2,2.09.15,3a58.38,58.38,0,0,0,.08,6.48c.1,1.85.19,3.73.34,5.59,0,.64,0,1.27,0,1.9,0,1.24,0,2.48,0,3.71C38.87,34.09,39.05,35.19,38.81,35.56Z" transform="translate(0 -1.82)"/>
  </g>
</svg>
