<svg id="레이어_1" data-name="레이어 1" xmlns="http://www.w3.org/2000/svg" viewBox="0 0 27.3 40">
  <defs>
    <style>
      .cls-1 {
        fill: #ebebeb;
      }

      .cls-2 {
        fill: #379bdb;
      }

      .cls-3 {
        fill: #313142;
      }

      .cls-4 {
        opacity: 0.1;
      }

      .cls-5 {
        fill: #fbfbfb;
      }

      .cls-6 {
        fill: #ed9d6c;
      }

      .cls-7 {
        fill: #4f2c1e;
      }

      .cls-8 {
        fill: #ffb97f;
      }

      .cls-9 {
        fill: #bf3c1b;
        opacity: 0.3;
      }

      .cls-10, .cls-12 {
        fill: #b54319;
      }

      .cls-10 {
        opacity: 0.35;
      }

      .cls-11 {
        fill: #693a27;
      }

      .cls-12, .cls-16 {
        opacity: 0.5;
      }

      .cls-13 {
        fill: #121b21;
      }

      .cls-14 {
        fill: #ffcb9e;
      }

      .cls-15 {
        fill: #7d8ba8;
      }

      .cls-16 {
        fill: #c20902;
      }
    </style>
  </defs>
  <title>1</title>
  <g>
    <g>
      <path class="cls-1" d="M14.38,31.64s-1.92.93-2.84,1.44c-1.42.8-2.11,1.18-2.1,2.8A34.68,34.68,0,0,1,9.19,40h5.12c.36-2,.58-3.66.58-3.66Z" transform="translate(-6.35 0)"/>
      <path class="cls-1" d="M28.63,33.08c-.91-.51-2.84-1.44-2.84-1.44l-.51,4.7S25.5,38,25.87,40H31a37,37,0,0,1-.24-4.12C30.74,34.26,30.06,33.88,28.63,33.08Z" transform="translate(-6.35 0)"/>
      <path class="cls-1" d="M25.42,31.84c-1.31-3.2-8.28-2.26-10.13-.71s-2.35,3.42.42,6.15A12.91,12.91,0,0,0,19.47,40h1.29C22,38.73,26.35,34.11,25.42,31.84Z" transform="translate(-6.35 0)"/>
      <path class="cls-2" d="M21.11,35.51l.61-1.27a1.6,1.6,0,0,0-1.82-.82,1.67,1.67,0,0,0-1.39,1.28l1,1L18.42,39.4l.31.6h3.48l.28-.78Z" transform="translate(-6.35 0)"/>
      <path class="cls-3" d="M28.8,33.06a25.39,25.39,0,0,0-3.95-2.42c.09.2.38.64.36.85-.38,4.06-4.68,8.32-4.68,8.32s-6.35-5.61-5.29-8.36a2.72,2.72,0,0,1,.34-.63c-1.47.63-4.17,1.92-4.4,2.4s1.37,3.65,1.89,6.74v0h14C27.42,37.74,29.12,33.4,28.8,33.06Z" transform="translate(-6.35 0)"/>
      <path class="cls-4" d="M22.51,31.61c-1.44-.76-7.26-.95-6.6,1.14a6.09,6.09,0,0,0,2.36,3.14L20.21,34l2.07,1.77a8.81,8.81,0,0,0,2.53-3.5A4.71,4.71,0,0,1,22.51,31.61Z" transform="translate(-6.35 0)"/>
      <path class="cls-5" d="M15.58,30.84c-1,2.48,2.54,4.49,2.54,4.49L20.21,34l1.95,1.24s3.86-2,2.4-4.9C23.25,27.76,16.7,28,15.58,30.84Z" transform="translate(-6.35 0)"/>
      <path class="cls-6" d="M18.69,27.38a2.92,2.92,0,0,0-2.16,2.69,2.27,2.27,0,0,0,.61,2,4.2,4.2,0,0,0,1.65.95c.46.14,1.26.69,1.4.69s.33-.23.76-.46a4.21,4.21,0,0,0,1.88-1.45c.51-1,1-3,0-3.77A5.6,5.6,0,0,0,18.69,27.38Z" transform="translate(-6.35 0)"/>
    </g>
    <g>
      <g>
        <path class="cls-7" d="M30.35,9.79C31,3.73,26.15-.63,17.63.12,2.76,1.43,5.44,22.17,9.67,21.23c3.13-.69,6.21-1.61,9.31-2.42,2.89-.75,6.1-.22,9.06,0,2.32.14,2.28-.85,2.37-2.74C30.6,12.5,30.2,11.21,30.35,9.79Z" transform="translate(-6.35 0)"/>
        <path class="cls-8" d="M18.19,4.53C12.73,5.65,9,13.58,10,21c.8,5.54,5.12,11.59,11.53,11.07s9.73-8.72,8.82-15.53C29.38,9.11,25.83,3,18.19,4.53Z" transform="translate(-6.35 0)"/>
        <path class="cls-8" d="M8.08,17.92c-2.67.76-1.56,4.69.64,5.46a5.18,5.18,0,0,0,2.17.22.16.16,0,0,0,0-.07c.32-.51-.28-3.13-.45-3.67C10.06,18.5,9.37,17.55,8.08,17.92Z" transform="translate(-6.35 0)"/>
        <path class="cls-9" d="M27.56,6.62a17.58,17.58,0,0,0-9-2c-2.18,0-5.44-.11-7.17,1.51C10,7.45,10,9.86,9.89,11.64c0,.67,0,5.83.41,4.71.69-2,2.32-2.81,2.25-4.94,3.17,1.38,7.91,1.21,12,.75,2.58-.29,4.66-.95,5.2,1.21C29.46,11.74,28,6.87,27.56,6.62Z" transform="translate(-6.35 0)"/>
        <path class="cls-10" d="M9,19.36c-.61-.28-2.11.24-1.39,1.42.37-1.1,1-.39.94.39-.06.53-.62.54-.06,1.21a1,1,0,0,0,1.22,0C10.72,21.77,9.78,19.69,9,19.36Z" transform="translate(-6.35 0)"/>
        <path class="cls-7" d="M32.92,1.38C29.45,4.25,23.69-1.89,15.76.62,4.92,4,9.14,15.55,9.21,17a6.82,6.82,0,0,0,1.16,3.16,2.47,2.47,0,0,0,1.46,0c-1-.91-1.41-3.39-.64-5.73.42-1.3,1.05-2.23.89-4,1,.86,7.82,2.07,16.34.16a8.17,8.17,0,0,0,5.23-3.68c-.71,0-1.23.15-2.08.27C32.8,5.83,32.92,3.26,32.92,1.38Z" transform="translate(-6.35 0)"/>
        <path class="cls-11" d="M23.92,1.22C20,.17,14,.14,11,3.39s-.35,6,10.07,5.72c9.5-.25,11.38-7,11.38-7C29.66,3.48,27.83,2.27,23.92,1.22Z" transform="translate(-6.35 0)"/>
        <path class="cls-7" d="M8.68,17.84c1,.05,1.1,1.89,1.78,2.35a2.36,2.36,0,0,0,1.37-.08c-.72-1-.93-3.7-.95-4.44C10.38,16.78,7.82,17.8,8.68,17.84Z" transform="translate(-6.35 0)"/>
      </g>
      <g>
        <path class="cls-12" d="M13.9,18.12c0,.44,1,.21,1.35.28-.26.28-1.05.29-1.37.48s-.3.34.11.32a7.57,7.57,0,0,0,1.78-.5C16.5,18.06,14.25,18,13.9,18.12Z" transform="translate(-6.35 0)"/>
        <path class="cls-12" d="M29.4,18.26c-.25-.18-.91-.19-1.11-.46.26-.07,1.08.15,1.15-.29-.28-.1-2.17,0-1.61.59a4.82,4.82,0,0,0,1.46.48C29.63,18.6,29.67,18.46,29.4,18.26Z" transform="translate(-6.35 0)"/>
        <path class="cls-13" d="M16.58,16.17c-1.42-.6-2.28,1.92-1.31,2.73a2,2,0,0,1,1.4.11A1.73,1.73,0,0,0,16.58,16.17Z" transform="translate(-6.35 0)"/>
        <path class="cls-10" d="M22.36,20.24c-.71,0-1-.24-1.49,0s.24,1.3,1.49,1.22,1.79-1.08,1.51-1.35S23.14,20.2,22.36,20.24Z" transform="translate(-6.35 0)"/>
        <path class="cls-14" d="M21.86,16.23c-.61,0-.7,1.72-.9,2.51s-.34,1.54,0,1.77a3,3,0,0,0,2.93-.27c.19-.18-.28-1-.65-1.79S22.56,16.18,21.86,16.23Z" transform="translate(-6.35 0)"/>
        <path class="cls-13" d="M27.91,16c-1.45-.75-2.54,2.33-.94,2.7a1.78,1.78,0,0,1,1.22-.37A1.63,1.63,0,0,0,27.91,16Z" transform="translate(-6.35 0)"/>
        <path class="cls-15" d="M16.18,16.53c-.57.2-.13,1.31.42.9C17,17.14,16.68,16.35,16.18,16.53Z" transform="translate(-6.35 0)"/>
        <path class="cls-15" d="M27.55,16.35c-.54.15-.21,1.21.33.87S28,16.22,27.55,16.35Z" transform="translate(-6.35 0)"/>
        <path class="cls-7" d="M27,13.43c-1.05-.11-1.82-.28-1.83-.25,0,.6.08,1.84.88,1.84A14,14,0,0,1,27.47,15a5.45,5.45,0,0,1,1.73.44c.35.16.48-.36.35-.52A3.31,3.31,0,0,0,27,13.43Z" transform="translate(-6.35 0)"/>
        <path class="cls-7" d="M16.3,13.59a3.52,3.52,0,0,0-2.54,1.8c-.11.18.12.68.47.48a5.49,5.49,0,0,1,1.8-.68c.5-.1,1.06-.09,1.57-.15.87-.1.79-1.35.63-1.94C18.22,13.07,17.41,13.34,16.3,13.59Z" transform="translate(-6.35 0)"/>
        <path class="cls-14" d="M29.53,20a2.14,2.14,0,0,0-2.09-.54c-.85.13-1.93.69-1,2,.5.7,3.94.69,3.33-1A1.61,1.61,0,0,0,29.53,20Z" transform="translate(-6.35 0)"/>
        <path class="cls-14" d="M16.88,20.28a2.27,2.27,0,0,0-2.21-.49c-.89.18-2,.81-1,2.15.54.72,4.16.57,3.47-1.2A1.84,1.84,0,0,0,16.88,20.28Z" transform="translate(-6.35 0)"/>
        <path class="cls-16" d="M27.06,23.83a.56.56,0,0,0-.74,0c-.17.18-4.3,4.23-10.2.12a.56.56,0,0,0-.73.07.45.45,0,0,0,.11.66,11.19,11.19,0,0,0,4.08,1.84,8.5,8.5,0,0,0,7.54-2.05A.44.44,0,0,0,27.06,23.83Z" transform="translate(-6.35 0)"/>
      </g>
    </g>
  </g>
</svg>
