<svg id="레이어_1" data-name="레이어 1" xmlns="http://www.w3.org/2000/svg" viewBox="0 0 31 40">
  <defs>
    <style>
      .cls-1 {
        fill: #e3ca95;
      }

      .cls-1, .cls-2, .cls-3 {
        fill-rule: evenodd;
      }

      .cls-2 {
        fill: #576d64;
      }
    </style>
  </defs>
  <title>1</title>
  <g>
    <polygon class="cls-1" points="6.16 6.63 0.68 7.19 0.68 37.3 3.12 39.12 23.72 39.17 24.96 38.02 24.96 33.85 29.86 32.96 29.86 31.7 30.14 10.54 25.9 4.78 21.48 0.88 6.81 0.64 6.21 1.96 6.16 6.63"/>
    <polygon class="cls-2" points="10.49 18.27 14.33 18.5 18.69 18.84 19.89 17.59 19.29 15.84 16.04 14.73 14.68 13.57 16.67 12.51 17.24 10.68 17.39 9.04 16.97 7.57 14.55 7.04 13 7.16 12.38 8.93 12.61 11.7 13.52 13.25 13.78 13.9 11.48 15.28 10.6 16.02 10.31 17.7 10.49 18.27"/>
    <path class="cls-2" d="M18.87,7.31l-.95,1.42a4.82,4.82,0,0,0-.82,1.42c-.09.4.41.86.79.57a4.62,4.62,0,0,0,1-1.33l1-1.54C20.24,7.23,19.27,6.72,18.87,7.31Z" transform="translate(-4.86)"/>
    <path class="cls-2" d="M20.7,7.44l-1.52,2.3a11.09,11.09,0,0,0-1.29,2.17c-.18.49.52.78.84.46a11.77,11.77,0,0,0,1.43-2.1c.49-.77,1-1.55,1.46-2.33C22,7.37,21.07,6.88,20.7,7.44Z" transform="translate(-4.86)"/>
    <path class="cls-2" d="M21.57,9.26C19.81,12.19,17.5,15,16,18.06c-.23.46.38,1,.75.56,2.3-2.53,3.93-6,5.6-8.92A.45.45,0,0,0,21.57,9.26Z" transform="translate(-4.86)"/>
    <path class="cls-2" d="M16.43,14.91a.52.52,0,0,0-.62.37,4.17,4.17,0,0,1-.35.74,1.88,1.88,0,0,0-.35.79.42.42,0,0,0,.53.39,1.41,1.41,0,0,0,.73-.73,5.68,5.68,0,0,0,.43-.94A.53.53,0,0,0,16.43,14.91Z" transform="translate(-4.86)"/>
    <path class="cls-2" d="M20.1,14.66c-.26.51-.53,1-.79,1.54a5.16,5.16,0,0,0-.66,1.48.48.48,0,0,0,.8.44,5.12,5.12,0,0,0,.81-1.4c.26-.52.51-1,.76-1.55S20.42,14.05,20.1,14.66Z" transform="translate(-4.86)"/>
    <path class="cls-2" d="M21.36,15.58a9,9,0,0,1-.59,1.35c-.22.41-.54.79-.72,1.22a.48.48,0,0,0,.76.56,6.49,6.49,0,0,0,1.56-2.88C22.59,15.19,21.57,15,21.36,15.58Z" transform="translate(-4.86)"/>
    <path class="cls-2" d="M23.18,16a4.21,4.21,0,0,1-.49,1.13c-.22.35-.59.61-.68,1a.5.5,0,0,0,.62.59c.49-.1.81-.66,1.05-1.06a5.09,5.09,0,0,0,.57-1.41A.55.55,0,0,0,23.18,16Z" transform="translate(-4.86)"/>
    <path class="cls-1" d="M7.3,7.07q-.45,1.2-1,2.37a13.71,13.71,0,0,0-.93,2,.47.47,0,0,0,.78.44A13.9,13.9,0,0,0,8.3,7.32C8.52,6.69,7.53,6.46,7.3,7.07Z" transform="translate(-4.86)"/>
    <path class="cls-1" d="M9.4,6.94Q7.73,10.8,5.94,14.61c-.25.52.55,1,.78.43C7.88,12.48,9,9.89,10,7.29,10.21,6.86,9.59,6.5,9.4,6.94Z" transform="translate(-4.86)"/>
    <path class="cls-1" d="M13.23.66C11,7.18,8.17,13.36,5.55,19.71c-.22.55.53,1,.84.46A113.14,113.14,0,0,0,14.07.87C14.24.33,13.4.13,13.23.66Z" transform="translate(-4.86)"/>
    <path class="cls-1" d="M15,1.53A207.37,207.37,0,0,1,5.59,25.11c-.28.62.65,1.14.93.52A211,211,0,0,0,15.78,1.74C16,1.22,15.14,1,15,1.53Z" transform="translate(-4.86)"/>
    <path class="cls-1" d="M17.14.94A219.35,219.35,0,0,1,5.45,29.6c-.32.66.65,1.21,1,.55a159.7,159.7,0,0,0,11.49-29C18.09.63,17.29.43,17.14.94Z" transform="translate(-4.86)"/>
    <path class="cls-1" d="M15,18.7a110,110,0,0,1-4.15,10.2C9.41,32,7.5,34.85,6.23,38c-.16.39.34.88.65.48C9,35.66,10.5,32.15,12,29s2.8-6.62,4-10c.2-.6-.74-.82-.94-.24Z" transform="translate(-4.86)"/>
    <path class="cls-1" d="M17,18.74c-2.53,6.7-5.72,13-8.58,19.58a.5.5,0,0,0,.88.48c3.57-6.19,6.15-13.13,8.57-19.84C18.08,18.41,17.21,18.21,17,18.74Z" transform="translate(-4.86)"/>
    <path class="cls-1" d="M18.83,18.83c-2.35,7-5.65,13.54-8.22,20.42-.18.5.6.76.85.33,3.71-6.2,6.07-13.67,8.28-20.53.18-.57-.72-.79-.91-.22Z" transform="translate(-4.86)"/>
    <path class="cls-1" d="M21.14,18.67c-2.48,6.9-5.7,13.48-8.27,20.33-.19.51.62.81.88.34,3.53-6.34,5.94-13.6,8.33-20.43C22.29,18.32,21.34,18.09,21.14,18.67Z" transform="translate(-4.86)"/>
    <path class="cls-1" d="M23.2,18.66a214.29,214.29,0,0,1-8.1,20.17c-.27.59.58,1.08.88.49a135,135,0,0,0,8-20.45C24.19,18.34,23.37,18.15,23.2,18.66Z" transform="translate(-4.86)"/>
    <path class="cls-1" d="M26.41,9.74c-.3,1.16-.62,2.31-1,3.45a21.17,21.17,0,0,0-1.05,3.43.41.41,0,0,0,.75.29C26.34,15,26.8,12.16,27.34,10A.48.48,0,0,0,26.41,9.74Z" transform="translate(-4.86)"/>
    <path class="cls-1" d="M21.3,1.36c-.32,1-.67,2-1.06,2.94a15.3,15.3,0,0,0-1,2.39c-.08.33.38.65.62.34C21,5.54,21.54,3.32,22.08,1.56,22.24,1.06,21.46.87,21.3,1.36Z" transform="translate(-4.86)"/>
    <path class="cls-1" d="M25.47,2.13c-1.21,3.93-2.82,8-3.59,12-.06.37.5.66.67.26,1.6-3.83,2.48-8.1,3.65-12.08C26.34,1.84,25.61,1.67,25.47,2.13Z" transform="translate(-4.86)"/>
    <path class="cls-1" d="M25.6,7.68c-.72,2.38-1.79,4.69-2.42,7.08a.34.34,0,0,0,.62.25,36.09,36.09,0,0,0,2.53-7.14C26.47,7.4,25.74,7.22,25.6,7.68Z" transform="translate(-4.86)"/>
    <path class="cls-1" d="M23.84,1.15c-.69,2.06-1.67,4-2.46,6-.17.44.52.65.74.29a25.91,25.91,0,0,0,2.47-6.05C24.74.86,24,.68,23.84,1.15Z" transform="translate(-4.86)"/>
    <path class="cls-1" d="M28.8,10.36A237.38,237.38,0,0,1,17.66,38.28c-.28.6.63,1.1.91.5A230.16,230.16,0,0,0,29.48,10.53C29.62,10.1,29,9.94,28.8,10.36Z" transform="translate(-4.86)"/>
    <path class="cls-1" d="M30.65,10.42a259.75,259.75,0,0,1-11.08,28c-.26.57.58,1,.86.47a202.14,202.14,0,0,0,11-28.24c.16-.5-.63-.69-.79-.19Z" transform="translate(-4.86)"/>
    <path class="cls-1" d="M32.63,10.65A167.52,167.52,0,0,1,21.9,38.81c-.31.63.64,1.15.94.52A165.12,165.12,0,0,0,33.38,10.84c.14-.49-.62-.67-.76-.19Z" transform="translate(-4.86)"/>
    <path class="cls-1" d="M34.21,11.28c-1.4,4.48-2.65,9-4.05,13.5-1.48,4.78-3.58,9.17-5.47,13.79a.41.41,0,0,0,.71.39c2.58-3.82,4-8.66,5.42-13,1.52-4.79,2.74-9.66,4.16-14.47C35.13,11,34.36,10.8,34.21,11.28Z" transform="translate(-4.86)"/>
    <path class="cls-1" d="M33.8,19.66q-1.32,4.89-3,9.66c-1.14,3.17-2.69,6.2-3.78,9.38-.15.43.51.65.73.28C31.08,33.3,33,26.21,34.56,19.85A.39.39,0,0,0,33.8,19.66Z" transform="translate(-4.86)"/>
    <path class="cls-1" d="M33.69,27.77A22.43,22.43,0,0,1,33,30.41c-.29.85-.73,1.67-.94,2.55a.4.4,0,0,0,.73.29A13.85,13.85,0,0,0,34.51,28C34.61,27.45,33.81,27.24,33.69,27.77Z" transform="translate(-4.86)"/>
    <path class="cls-1" d="M27.8,2.25c-.43,1.53-1.1,3-1.48,4.55a.4.4,0,0,0,.73.29,20.92,20.92,0,0,0,1.52-4.65.4.4,0,0,0-.77-.19Z" transform="translate(-4.86)"/>
    <path class="cls-1" d="M29.07,4.12c-.48,1.68-1.26,3.3-1.68,5a.35.35,0,0,0,.65.26,20.36,20.36,0,0,0,1.78-5A.39.39,0,0,0,29.07,4.12Z" transform="translate(-4.86)"/>
    <path class="cls-1" d="M30.27,5.61c-.43,1.26-1.08,2.5-1.42,3.79a.38.38,0,0,0,.7.28A18.62,18.62,0,0,0,31,5.8C31.2,5.31,30.43,5.13,30.27,5.61Z" transform="translate(-4.86)"/>
    <path class="cls-1" d="M31.59,6.9a11.15,11.15,0,0,1-.39,1.43c-.17.46-.43.89-.56,1.36a.33.33,0,0,0,.56.31,6.71,6.71,0,0,0,1.11-2.91C32.41,6.62,31.69,6.43,31.59,6.9Z" transform="translate(-4.86)"/>
    <path class="cls-1" d="M33,8.6a8.9,8.9,0,0,1-.47,1.6c-.11.32.37.47.54.21a4.2,4.2,0,0,0,.53-1.66C33.68,8.36,33.09,8.21,33,8.6Z" transform="translate(-4.86)"/>
    <path class="cls-3" d="M25.22,17.3A2.56,2.56,0,0,0,24,15c-.92-.55-2.23-.33-3-1,2.36-1.41,2.94-7.52-.06-7.47h0C19,6.16,17,6.2,16.69,8.46c-.22,1.63.3,4.08,1.72,5.23-.6,1-2.4.66-3.18,1.57a3.84,3.84,0,0,0-.67,2.85c.13.69.46.9,1.13.9s1.53-.17,2.32-.14,1.63.15,2.44.23a9.24,9.24,0,0,0,4-.1c.76-.28.78-1,.75-1.7ZM35.75,9.88a.46.46,0,0,1,0,.54,108,108,0,0,0-.53,10.94c0,3.4.25,7-.07,10.35a.3.3,0,0,1,0,.08c.75,1.66-1.29,2.15-2.46,2.31-.76.1-1.52.19-2.29.26,0,1.66.33,4.33-1.53,5.18a8.54,8.54,0,0,1-3.23.32c-1.46,0-2.92.08-4.38.1-2.55,0-5.11.06-7.66,0-1.27,0-2.55-.1-3.82-.19a14.25,14.25,0,0,1-3.12-.32c-1.62-.53-1.66-2.28-1.67-3.71,0-2.59,0-5.19-.06-7.78q-.06-7.7-.11-15.38c0-1.23,0-2.46,0-3.7,0-.63-.16-1.59.31-2.12s1.36-.51,2-.59A23.66,23.66,0,0,1,10.34,6c0-.29,0-.59,0-.87,0-1.55-.3-3.86,1.11-4.85a.41.41,0,0,1,.34-.2l0,0a.43.43,0,0,1,.4,0c4.56-.1,9.14.21,13.71.13A.62.62,0,0,1,26.3.08a.49.49,0,0,1,.49.11,54.18,54.18,0,0,1,9,9.69Zm-9-5.36c0,1.23-.23,2.78.55,3.82.93,1.23,3.1,1,4.51,1.15.81.08,1.62.15,2.43.25a63.53,63.53,0,0,0-7.45-8.19c0,1,0,2,0,3ZM29,38c-.63,1-3.3.68-4.36.71-2.55.06-5.11.12-7.66.1-2.37,0-4.74-.08-7.11-.24a12.07,12.07,0,0,1-2.41-.2c-.89-.27-1.06-.85-1.14-1.71-.13-1.21,0-2.5,0-3.73q0-7.5-.1-15c0-2.49,0-5-.07-7.48l0-1.59C6,7.72,6,7.45,7.21,7.27A27.46,27.46,0,0,1,10.35,7c0,2.49.15,5,.29,7.46a143.86,143.86,0,0,1,.24,18,.56.56,0,0,0-.11.91c1.59,1.26,4.07,1,6,1.07,2.67.12,5.35.21,8,.18,1.5,0,3-.08,4.5-.19,0,1,.23,2.64-.32,3.53Zm5.13-5.88a.48.48,0,0,0,0,.18c-.12.64-2.72.77-3.05.8-.91.09-1.83.16-2.75.21-1.93.11-3.87.13-5.8.11s-3.7-.09-5.54-.16c-1.56-.07-3.4.1-4.89-.48a95.74,95.74,0,0,0-.06-15.52c-.15-2.67-.32-5.34-.43-8,0-1.29-.08-2.58-.08-3.87,0-1-.44-3.6.66-4.25a99.55,99.55,0,0,0,13.49.11c0,1.53-.11,3.06-.09,4.59a5.31,5.31,0,0,0,.84,3.32c.84,1.1,2.08,1.21,3.36,1.36,1.64.2,3.28.44,4.92.55-.37,3.26-.51,6.53-.56,9.81,0,1.81,0,3.63-.06,5.44a53.62,53.62,0,0,0,0,5.81Zm-3.47-5.44c-5.08-.23-10.16-.47-15.24-.5-.77,0-.74,1.17,0,1.2,5.08.14,10.15.2,15.23.38.69,0,.66-1,0-1.08Zm.5-4.7A149.36,149.36,0,0,0,14.73,22a.57.57,0,0,0,0,1.14c5.47-.06,10.91-.28,16.39-.16.67,0,.64-1,0-1.05Zm.25-4.59a45.64,45.64,0,0,0-5.1,0c-.51.06-.69.84-.11,1a23.53,23.53,0,0,0,5.24.09.54.54,0,0,0,0-1.08Zm-.23-4.66a29.3,29.3,0,0,0-5-.31.53.53,0,0,0-.11,1,29.52,29.52,0,0,0,5.16.39c.72,0,.68-1.06,0-1.12Zm-13.5-3.6c0-1.82,1.32-1.95,2.73-1.73a.4.4,0,0,0,.28.14c2.92.35.24,8.13-2.09,4.74a5.43,5.43,0,0,1-.92-3.15ZM24,17.33c-.07.65-.51.58-1.13.65a15,15,0,0,1-2.91-.17A20.22,20.22,0,0,0,17,17.63a8.49,8.49,0,0,1-1.12.11c-.16.33-.2.27-.13-.2,0-.21,0-.43.05-.65.38-1.71,2.7-1.29,3.53-2.69l.25.06c.49,1.18,1.71,1.34,2.87,1.56C23.23,16,24.07,16.42,24,17.33Z" transform="translate(-4.86)"/>
  </g>
</svg>
