<svg id="레이어_1" data-name="레이어 1" xmlns="http://www.w3.org/2000/svg" xmlns:xlink="http://www.w3.org/1999/xlink" viewBox="0 0 34.11 40">
  <defs>
    <style>
      .cls-1 {
        fill: #912907;
      }

      .cls-2 {
        fill: #801a00;
      }

      .cls-3 {
        fill: #9ab5de;
      }

      .cls-4 {
        fill: url(#linear-gradient);
      }

      .cls-5 {
        fill: #b0c6e8;
      }

      .cls-6 {
        fill: #fab077;
      }

      .cls-7 {
        fill: #591702;
      }

      .cls-8 {
        fill: #f59a62;
      }

      .cls-9 {
        fill: #283b21;
      }

      .cls-10 {
        fill: #960800;
      }

      .cls-10, .cls-14 {
        opacity: 0.3;
      }

      .cls-11 {
        fill: #8f2f2b;
      }

      .cls-12 {
        fill: #fff2de;
      }

      .cls-13 {
        fill: #e8d3b5;
      }

      .cls-14 {
        fill: #bf3c1b;
      }

      .cls-15 {
        fill: #82a375;
      }

      .cls-16 {
        fill: #a61900;
        opacity: 0.2;
      }

      .cls-17 {
        fill: #ffbe8a;
      }

      .cls-18 {
        fill: #1f1a17;
      }

      .cls-19 {
        fill: #f7985c;
      }

      .cls-20 {
        fill: #e6864a;
      }

      .cls-21 {
        fill: #a8370a;
      }
    </style>
    <linearGradient id="linear-gradient" x1="21.15" y1="31.24" x2="21.15" y2="33.62" gradientUnits="userSpaceOnUse">
      <stop offset="0" stop-color="#e88958"/>
      <stop offset="0.34" stop-color="#f49d62"/>
      <stop offset="0.69" stop-color="#fcab69"/>
      <stop offset="1" stop-color="#ffb06b"/>
    </linearGradient>
  </defs>
  <title>1</title>
  <g>
    <g>
      <path class="cls-1" d="M35.54,22.44c2.23-1,1.28-5.8-1.23-4.26,1.71-.06.06,2.67-.9.61-.6-1.29.79-1.92,1.42-2.79a5,5,0,0,0,.88-3.6c-.3-3.52-3.53-5.74-5.38-8.45-2-3-4.88-4.85-8.56-3.52a6,6,0,0,0-2.3,1.71A3.68,3.68,0,0,0,18.32.52c-.06.53-.09,1.06-.1,1.6-2-1.23-5.13-.73-6.87.4C9,4.06,9.2,6.43,8.25,8.74c-.87,2.11-3.64,4.57-3.46,7C4.9,17.3,6,18.1,5.92,19.68c-.06,1.32-1.49,2-.84,3.32s3.34.85,2,3.07c-1.25,2-3.7-.37-2.17-.7-1.69-.83-2.4,1.38-2.15,2.69.35,1.84,2.9,1.88,4.28,1.5-3.58,6.59,6.61,8.22,11.65,3.85,2.16-1.87,3.9,3.06,6.51,3.3,3.53.31,5.39-2.23,4.67-4.51.6,1.91,2.7,2,4.29,1.34a4.1,4.1,0,0,0,2.37-4,2.57,2.57,0,0,1-2.9.59,2,2,0,0,1-.92-3.05c1-1.4,3.75-3.18,1-4.66A2,2,0,0,0,35.54,22.44Z" transform="translate(-2.68 0)"/>
      <path class="cls-2" d="M32.1,18.24c-.67-1.93-3.64-1.79-5.25-1.78A32.76,32.76,0,0,0,20,17a7,7,0,0,0-2.74,1.11c-.6.42-1.48,1.32-2.29,1.23-.4,0-.22-.26-.53-.4a9.29,9.29,0,0,0-1.76-.87,3.33,3.33,0,0,0-3.39,2.19c-.32,1.33.39,2.6.9,3.74a5.77,5.77,0,0,1-1.51,6.74c-1,.91-1.28,1.66.12,2.57,2.28,1.48,5.47,1.57,9.07.36,1.7-.57,7.24,2.5,9.13,1.51,1.52-.8,2-1.6,2.59-4.35.49.61,1.15,1.61,2,1.61-.84-1.6,0-3.44.23-5.09.25-1.8-.07-3.61,0-5.42C31.92,20.78,32.47,19.35,32.1,18.24Z" transform="translate(-2.68 0)"/>
    </g>
    <path class="cls-3" d="M25.22,32.67l-1.1,2.19c.34.18.67,1.78.84,2.63A19.49,19.49,0,0,0,25.58,40H28.2a13.44,13.44,0,0,1-.84-3C27,35.14,26.62,33.39,25.22,32.67Z" transform="translate(-2.68 0)"/>
    <path class="cls-3" d="M15.5,37a13.44,13.44,0,0,1-.84,3h2.62a19.49,19.49,0,0,0,.62-2.51c.17-.85.5-2.45.84-2.63l-1.1-2.19C16.24,33.39,15.88,35.14,15.5,37Z" transform="translate(-2.68 0)"/>
    <g>
      <path class="cls-3" d="M24.6,32.36a10.81,10.81,0,0,0-6.49,0c-1.44.62-1.9,1.62-.91,4.67A20.63,20.63,0,0,1,18,40h7a25.72,25.72,0,0,1,.57-2.66C26.22,34.59,26.3,32.92,24.6,32.36Z" transform="translate(-2.68 0)"/>
      <path class="cls-4" d="M23.27,29.51c.14-2.44-4-2.53-4,.13a6.69,6.69,0,0,1-.15,2.46c-1.68,2.63,5.74,2.95,4.17.12C22.9,31.59,23.21,30.58,23.27,29.51Z" transform="translate(-2.68 0)"/>
      <path class="cls-5" d="M23.11,35.55a7,7,0,0,1-3.85-.06c-.7-.18-1.09.62-.88,1.3.29.9,1.74,1.14,3,1.12,2.5,0,3.43-1,3-2.08C24.29,35.53,23.75,35.32,23.11,35.55Z" transform="translate(-2.68 0)"/>
    </g>
    <g>
      <path class="cls-6" d="M20.25,6.47c-5.59.72-10,5.25-9.3,13S16.92,32,22.56,32c4.33,0,9.55-7.15,9.26-15.2C31.54,9,25.84,5.75,20.25,6.47Z" transform="translate(-2.68 0)"/>
      <path class="cls-7" d="M29.63,13.52c-.86-.15-2.64.21-2.32,1.51.1.4.31.43.59.24s.29-.6.5-.79c1-1,2.74,0,3.25,1A2.47,2.47,0,0,0,29.63,13.52Z" transform="translate(-2.68 0)"/>
      <path class="cls-7" d="M15.24,14.2a2.43,2.43,0,0,0-1.88,2.26c.36-1.1,2.11-2.31,3.47-1.5.27.17.45.6.73.71s.59.09.62-.32C18.27,14,16.19,13.92,15.24,14.2Z" transform="translate(-2.68 0)"/>
      <path class="cls-8" d="M30.73,20.38a2.13,2.13,0,0,0-1.79-.85c-.81-.05-1.91.19-1.33,1.44.31.67,3.45,1.33,3.25-.18A1.31,1.31,0,0,0,30.73,20.38Z" transform="translate(-2.68 0)"/>
      <path class="cls-8" d="M16.83,20.23a2.36,2.36,0,0,0-2.12.07c-.79.32-1.72,1.06-.56,1.93.62.46,3.93-.41,3-1.69A1.18,1.18,0,0,0,16.83,20.23Z" transform="translate(-2.68 0)"/>
      <path class="cls-9" d="M16.57,16.43c-1.45-.54-2.29,2.07-1.09,3a1.28,1.28,0,0,1,1.3-.14A1.74,1.74,0,0,0,16.57,16.43Z" transform="translate(-2.68 0)"/>
      <g>
        <path class="cls-10" d="M22.8,23.61a19.37,19.37,0,0,1-3.14,0,7,7,0,0,1-2.83-1,10.84,10.84,0,0,0,.89,2.14,8.15,8.15,0,0,0,1.14,1.58A5.58,5.58,0,0,0,23,28.26c2.95,0,3.33-1.88,3.43-3.27.06-.85.91-1.43,1.32-2.19a1.79,1.79,0,0,0,.2-.59,6.38,6.38,0,0,1-2.21,1A28.41,28.41,0,0,1,22.8,23.61Z" transform="translate(-2.68 0)"/>
        <path class="cls-11" d="M17.82,23.7s1.32,3.42,4.81,3.22c3.14-.18,3.49-1.36,3.62-2.19a2.16,2.16,0,0,1,1-1.56A13.55,13.55,0,0,1,17.82,23.7Z" transform="translate(-2.68 0)"/>
        <path class="cls-12" d="M19,24a1.8,1.8,0,0,0,1.14,1.52,7.12,7.12,0,0,0,4.5.07c1.06-.3,1.64-2,1.64-2A15.78,15.78,0,0,1,19,24Z" transform="translate(-2.68 0)"/>
        <path class="cls-12" d="M23.38,25.65a10,10,0,0,1-3.48-.36c-.59-.21-.59.11-.47.39,0,0,.2,1.15,2.93,1.28,2.38.12,3.39-1.37,3.12-1.66S24.87,25.59,23.38,25.65Z" transform="translate(-2.68 0)"/>
        <path class="cls-13" d="M19,24a1.79,1.79,0,0,0,.29.87s5.31-.8,6.57-.38a4.6,4.6,0,0,0,.42-.9A17.45,17.45,0,0,1,19,24Z" transform="translate(-2.68 0)"/>
        <path class="cls-13" d="M20.21,25.29a6.9,6.9,0,0,0,4.94,0A10.49,10.49,0,0,1,20.21,25.29Z" transform="translate(-2.68 0)"/>
      </g>
      <path class="cls-14" d="M23.11,21c-.77,0-1.12-.22-1.62.05s.32,1.27,1.69,1.18,1.9-1.08,1.58-1.34S24,20.94,23.11,21Z" transform="translate(-2.68 0)"/>
      <path class="cls-9" d="M30.09,16c-1.49-.92-2.63,2.09-1.15,2.73a1.61,1.61,0,0,1,1.34.2A2.19,2.19,0,0,0,30.09,16Z" transform="translate(-2.68 0)"/>
      <path class="cls-15" d="M16.32,17.06c-.6,0-.52,1.22.14,1C16.93,17.9,16.86,17.05,16.32,17.06Z" transform="translate(-2.68 0)"/>
      <path class="cls-15" d="M29.54,16.7c-.6,0-.59,1.18.07,1C30.08,17.56,30.07,16.72,29.54,16.7Z" transform="translate(-2.68 0)"/>
      <path class="cls-6" d="M8.51,16.3c-2.67.95-1.5,4.84.71,5.48a5.17,5.17,0,0,0,2.18.07.16.16,0,0,0,0-.07c.31-.54-.32-3.14-.5-3.67C10.5,16.76,9.8,15.84,8.51,16.3Z" transform="translate(-2.68 0)"/>
      <path class="cls-16" d="M26.83,6.08a28.13,28.13,0,0,0-9.15.47c-2,.47-4.21,1.32-5.39,3.16C11.45,11,10,12.47,9.83,14.09s.84,2.68,1.47,3.95c.79,1.6.06,2.83.12,4.44,0,1.05.54,1.24,1.52,1.28-1.58-1.55-.11-3.39.19-5.11A17.48,17.48,0,0,0,12.92,16c0-.22,0-.43,0-.64a14.55,14.55,0,0,1,.58-2.45c-.33,2.87,3.81,1.3,5,.84a2.12,2.12,0,0,1,1.2-.23c-1.39,1.45.66,4,2.37,4,2.77,0,3.47-1.16,4.63-2.75a3.86,3.86,0,0,1,2.62-1.66c.71-.09,2.21.41,2.51-.45.45-1.27-.11-3.7-.75-4.86C30.32,6.32,28.25,6.23,26.83,6.08Z" transform="translate(-2.68 0)"/>
      <path class="cls-14" d="M10.18,17.75c-.7-.34-2.57,0-1.81,1.31.54-1.09,1.29-.29,1.1.5-.12.53-.8.49-.18,1.23a1.38,1.38,0,0,0,1.47.15C12,20.4,11.05,18.17,10.18,17.75Z" transform="translate(-2.68 0)"/>
      <path class="cls-1" d="M23.11,2.45A29.49,29.49,0,0,0,19.71,2a12.7,12.7,0,0,0-5.57,1.64c-2.56,1.37-4.22,4.49-5,7.25A11.11,11.11,0,0,0,8.85,16c.31,1.47,2.22,2,2.33,3.55.05.68-.55,1.2-.53,1.85a2.11,2.11,0,0,0,.65,1.47,3.76,3.76,0,0,0,1.6.49c-1.06-1.17,0-1.86.06-3a8.71,8.71,0,0,0-.39-3A4.7,4.7,0,0,1,14,11.85c.17,2.1,2.3,2,3.83,1.71.68-.13,2.68-.94,3,.1.22.65-.82,1.22-1.06.47,0,1.11,0,2,1.36,2.31a4.09,4.09,0,0,0,4.65-2,3.49,3.49,0,0,1,1.34-1.38,4.88,4.88,0,0,1,2.24-.41c1.74,0,2.34-1.3,2.26-3C31.41,5.13,27.1,2.81,23.11,2.45Z" transform="translate(-2.68 0)"/>
      <path class="cls-17" d="M23.1,21.55c1.12-.06,2.39-.36,1.37-1.72C22.69,17.47,19.23,21.77,23.1,21.55Z" transform="translate(-2.68 0)"/>
      <path class="cls-18" d="M15.56,16.46a3.71,3.71,0,0,1-2.83,1,2.6,2.6,0,0,0,3-.39,1.21,1.21,0,0,1,1.4-.12A1,1,0,0,0,15.56,16.46Z" transform="translate(-2.68 0)"/>
      <path class="cls-18" d="M30.25,16.1c-1.09-.8-1.74.5-1.74.5a1.17,1.17,0,0,1,1.39.12,2.62,2.62,0,0,0,3.05.39A3.35,3.35,0,0,1,30.25,16.1Z" transform="translate(-2.68 0)"/>
      <path class="cls-19" d="M22.53,18.44c-.32.06-.56.29-.53.5s.31.35.63.29.56-.28.53-.5S22.85,18.39,22.53,18.44Z" transform="translate(-2.68 0)"/>
      <path class="cls-19" d="M21.64,19.4a.46.46,0,0,0-.26.52c.08.15.32.16.54,0s.34-.37.26-.52S21.86,19.26,21.64,19.4Z" transform="translate(-2.68 0)"/>
      <path class="cls-19" d="M25.53,19c-.24-.09-.48,0-.53.13s.1.37.33.46.48,0,.53-.12S25.76,19.09,25.53,19Z" transform="translate(-2.68 0)"/>
      <path class="cls-19" d="M19.59,18.42c-.25.06-.4.24-.35.4s.29.25.54.19.4-.25.35-.41S19.84,18.35,19.59,18.42Z" transform="translate(-2.68 0)"/>
      <path class="cls-20" d="M16.82,19.93c-.26,0-.46.14-.46.31s.2.31.45.32.46-.14.46-.32S17.07,19.93,16.82,19.93Z" transform="translate(-2.68 0)"/>
      <path class="cls-20" d="M27.86,20c-.25,0-.46.14-.46.31s.2.31.46.32.46-.14.46-.32S28.11,20,27.86,20Z" transform="translate(-2.68 0)"/>
      <path class="cls-20" d="M14.76,19.86c-.31.11-.51.36-.44.57s.38.29.7.18.51-.36.44-.57S15.08,19.75,14.76,19.86Z" transform="translate(-2.68 0)"/>
      <path class="cls-20" d="M17.69,19.36c-.25,0-.43.18-.39.35s.27.28.52.25.44-.18.4-.35S18,19.33,17.69,19.36Z" transform="translate(-2.68 0)"/>
      <path class="cls-20" d="M30.6,19.86c-.23-.12-.46-.09-.53.07s.07.39.3.51.46.09.53-.07S30.83,20,30.6,19.86Z" transform="translate(-2.68 0)"/>
      <path class="cls-19" d="M21.46,18.22c-.17,0-.3.16-.28.28s.18.2.35.17.3-.16.29-.29S21.64,18.19,21.46,18.22Z" transform="translate(-2.68 0)"/>
      <path class="cls-20" d="M15.75,20.62c-.18,0-.3.16-.28.28s.17.2.35.17.3-.16.28-.29S15.92,20.59,15.75,20.62Z" transform="translate(-2.68 0)"/>
      <path class="cls-19" d="M26.17,18.55c-.17-.06-.34,0-.37.11s.07.27.24.33.34,0,.37-.11S26.34,18.61,26.17,18.55Z" transform="translate(-2.68 0)"/>
      <path class="cls-20" d="M29.49,20.22c-.17-.06-.33,0-.37.11s.08.27.25.33.33,0,.37-.11S29.66,20.28,29.49,20.22Z" transform="translate(-2.68 0)"/>
      <path class="cls-19" d="M25.19,18c-.21,0-.4.07-.41.22s.14.3.35.34.4-.07.42-.22S25.4,18,25.19,18Z" transform="translate(-2.68 0)"/>
      <path class="cls-19" d="M20.25,20.15c-.24.07-.41.27-.37.43s.27.25.52.18.41-.27.37-.44S20.5,20.08,20.25,20.15Z" transform="translate(-2.68 0)"/>
      <path class="cls-19" d="M23.85,18c-.3-.05-.57.08-.59.29s.18.42.48.47.57-.08.6-.28S24.15,18.09,23.85,18Z" transform="translate(-2.68 0)"/>
      <path class="cls-20" d="M27.19,19.07c-.3-.05-.56.08-.59.29s.19.42.49.47.56-.08.59-.29S27.49,19.12,27.19,19.07Z" transform="translate(-2.68 0)"/>
      <path class="cls-19" d="M18.18,20.21c-.3,0-.54.18-.53.39s.27.38.57.38.54-.18.53-.39S18.48,20.21,18.18,20.21Z" transform="translate(-2.68 0)"/>
      <path class="cls-20" d="M28.77,19.13c-.31,0-.55.18-.54.39s.27.38.57.38.54-.18.53-.39S29.07,19.13,28.77,19.13Z" transform="translate(-2.68 0)"/>
      <path class="cls-19" d="M24.42,19c-.28-.13-.57-.08-.64.11s.12.43.41.56.57.07.64-.11S24.71,19.14,24.42,19Z" transform="translate(-2.68 0)"/>
      <path class="cls-19" d="M19.29,19.33c-.34.05-.59.29-.56.52s.33.37.67.32.58-.28.56-.51S19.63,19.28,19.29,19.33Z" transform="translate(-2.68 0)"/>
      <path class="cls-19" d="M20.65,18.89c-.32.12-.53.4-.47.62s.38.3.71.19.53-.4.47-.62S21,18.78,20.65,18.89Z" transform="translate(-2.68 0)"/>
      <path class="cls-19" d="M26.3,19.83c-.33,0-.63.1-.66.34s.23.46.57.5.63-.1.66-.33S26.64,19.88,26.3,19.83Z" transform="translate(-2.68 0)"/>
      <path class="cls-21" d="M21.74,2.08a4.65,4.65,0,0,0-2.18,1.35,9.61,9.61,0,0,1,1.58,2.82,3.11,3.11,0,0,1-1.25,3c-1,.69-6.84,1.71-2.81,3.12,1.23.42,2.51-.38,3.73-.1,1,.22,1.6,1.65.59,2.31.87.42,2.23-.11,3-.58A10.26,10.26,0,0,1,26,13a8.25,8.25,0,0,0,3.3-2.39C30.45,9,30.48,7,28.76,4.54A7.26,7.26,0,0,0,21.74,2.08Z" transform="translate(-2.68 0)"/>
      <path class="cls-21" d="M15.42,3.11c-5.07.34-4.05,4.74-6.21,7.89-.74,1.07-1.44,2-.82,3.25a5.54,5.54,0,0,0,3.26,2.65,4.12,4.12,0,0,1-.35-2.69c.92-3.27,4.7-4.26,6.35-6.9C19,5.13,18,2.93,15.42,3.11Z" transform="translate(-2.68 0)"/>
    </g>
  </g>
</svg>
