<svg id="레이어_1" data-name="레이어 1" xmlns="http://www.w3.org/2000/svg" viewBox="0 0 40 33.22">
  <defs>
    <style>
      .cls-1 {
        fill: #ffda00;
      }

      .cls-1, .cls-2, .cls-3 {
        fill-rule: evenodd;
      }

      .cls-2 {
        fill: #e3ca95;
      }
    </style>
  </defs>
  <title>1</title>
  <g>
    <polygon class="cls-1" points="17.03 12.12 19.71 8.52 23.91 6.97 27.39 7.28 30.98 9.49 33.16 12.57 33.43 16.21 32.93 18.22 31.81 20.42 29.6 19.75 27.58 17.17 25.32 15.57 22.15 16.06 20.38 14.01 18.02 13 17.03 12.12"/>
    <path class="cls-2" d="M6,22.9,3.05,24,.74,27.36v3l1.86,3,4.54,1.23,8.64.55H27.92c.18,0,5.33-2.12,5.33-2.12l2-3.36-.76-3.3L33.16,24l-2.88-1.1-1-.68-1.73-2.37-3-1.15-2.7-.11L18.4,15.73,13,15,9.93,16.31,7.48,18.62,6.35,21.39Z" transform="translate(0 -2.68)"/>
    <path class="cls-1" d="M21.28,16.57a9.52,9.52,0,0,0-1.08-2L18.93,12.5c-.29-.48-1,0-.74.47l1.22,2.11A9.08,9.08,0,0,0,20.62,17,.4.4,0,0,0,21.28,16.57Z" transform="translate(0 -2.68)"/>
    <path class="cls-1" d="M25.32,18.24a23.05,23.05,0,0,0-2.05-3.57l-2.4-3.9a.49.49,0,0,0-.84.52c1.44,2.42,2.71,5.29,4.55,7.41A.45.45,0,0,0,25.32,18.24Z" transform="translate(0 -2.68)"/>
    <path class="cls-1" d="M26.83,16.32,22.72,9.85a.45.45,0,0,0-.77.48l2.79,4.58,1.2,2c.37.61,1.75,2.26,1.64,3a.46.46,0,0,0,.85.33C29.26,19,27.43,17.27,26.83,16.32Z" transform="translate(0 -2.68)"/>
    <path class="cls-1" d="M32.3,21.49C30.72,17.34,28,13.4,25.64,9.62a.48.48,0,0,0-.81.5c2.24,3.83,4.09,8.12,6.64,11.75C31.75,22.27,32.49,22,32.3,21.49Z" transform="translate(0 -2.68)"/>
    <path class="cls-1" d="M33.43,18.89a17.84,17.84,0,0,0-2.22-4.09q-1.34-2.23-2.69-4.45c-.3-.52-1.08,0-.78.49.85,1.51,1.69,3,2.55,4.53a22.65,22.65,0,0,0,2.42,4C33,19.68,33.55,19.29,33.43,18.89Z" transform="translate(0 -2.68)"/>
    <path class="cls-2" d="M4.44,32.76A14.29,14.29,0,0,0,3,30.3c-.52-.89-1-1.79-1.47-2.71-.27-.53-1,0-.78.48.44.94.9,1.85,1.39,2.76A10.43,10.43,0,0,0,3.7,33.22.45.45,0,0,0,4.44,32.76Z" transform="translate(0 -2.68)"/>
    <path class="cls-2" d="M7.71,34.47C6.2,31.3,4.39,28.25,2.83,25.09c-.24-.5-1,0-.72.45C3.6,28.71,5,32,6.8,35,7.16,35.64,8,35.08,7.71,34.47Z" transform="translate(0 -2.68)"/>
    <path class="cls-2" d="M11.09,34.47C8.86,30.86,6.7,27.23,4.61,23.54c-.29-.52-1.06,0-.78.48a126.35,126.35,0,0,0,6.25,11.05C10.41,35.7,11.52,35.17,11.09,34.47Z" transform="translate(0 -2.68)"/>
    <path class="cls-2" d="M13.79,34.21c-2.33-4.09-4.74-8.11-7-12.25-.28-.52-1.05,0-.78.48,2.15,4.17,4.32,8.37,6.77,12.36A.57.57,0,0,0,13.79,34.21Z" transform="translate(0 -2.68)"/>
    <path class="cls-2" d="M17,34.6c-1-2.66-3-5.08-4.42-7.53C11,24.34,9.4,21.57,7.88,18.78c-.26-.46-.93,0-.69.43q2.17,4.24,4.52,8.4c1.4,2.46,2.69,5.33,4.63,7.4A.41.41,0,0,0,17,34.6Z" transform="translate(0 -2.68)"/>
    <path class="cls-2" d="M21.47,34.71l0-.1a.52.52,0,0,0-.71-.16l-.07,0,0,0c.77-1-4.54-7.89-5.26-9l-5.82-9a.42.42,0,0,0-.71.44L15.74,28c1.15,1.84,2.29,3.69,3.45,5.54.42.66.78,1.84,1.64,2A.59.59,0,0,0,21.47,34.71Z" transform="translate(0 -2.68)"/>
    <path class="cls-2" d="M25.11,34.39c-3.85-6.52-8.38-12.73-12.68-19-.32-.45-1,0-.73.46,4.27,6.28,8.22,12.8,12.6,19A.48.48,0,0,0,25.11,34.39Z" transform="translate(0 -2.68)"/>
    <path class="cls-2" d="M29,33.61C25.08,27.14,20.5,21,16,14.93c-.31-.42-1,0-.7.44,4.43,6.16,8.48,12.57,12.78,18.82A.55.55,0,0,0,29,33.61Z" transform="translate(0 -2.68)"/>
    <path class="cls-2" d="M32,33.08a172.65,172.65,0,0,0-10.84-16c-.33-.44-1.05,0-.73.45,3.68,5.29,7,10.8,10.58,16.15A.58.58,0,0,0,32,33.08Z" transform="translate(0 -2.68)"/>
    <path class="cls-2" d="M34.37,31.21a141,141,0,0,0-8.53-12.62c-.32-.44-1,0-.73.45,2.85,4.2,5.42,8.6,8.32,12.75A.55.55,0,0,0,34.37,31.21Z" transform="translate(0 -2.68)"/>
    <path class="cls-2" d="M35.29,28.3a9.93,9.93,0,0,0-1.66-2.49C33,24.92,32.39,24,31.81,23.1a.43.43,0,0,0-.73.45c.58,1,1.18,2,1.81,2.94a7.66,7.66,0,0,0,1.79,2.3A.43.43,0,0,0,35.29,28.3Z" transform="translate(0 -2.68)"/>
    <path class="cls-3" d="M35.79,27.72a6.65,6.65,0,0,0-3.24-4.91A9.11,9.11,0,0,0,29.09,9.92c-4.18-2.2-11.24-.66-12.47,4.46a9.5,9.5,0,0,0-11.17,7.7c-2.18.24-3.94,2.5-4.87,4.31a5.39,5.39,0,0,0,1.28,6.44,9.83,9.83,0,0,0,7,2.69c1.24,0,2.48,0,3.72,0,2.48.15,5,.22,7.43.28,3.68.08,8,.56,11.46-.93a6.91,6.91,0,0,0,4.29-7.11Zm3.78-10.58h0c.66.08.52,1.17-.13,1.15s-1.59-.09-2.39-.11A6.68,6.68,0,0,1,35,18.1.57.57,0,0,1,35.08,17a19.85,19.85,0,0,1,4.49.16Zm-1.78,7.71c.48.42-.11,1.14-.64.87a37.57,37.57,0,0,1-3.64-2.41c-.6-.41-.06-1.4.55-1a38.16,38.16,0,0,1,3.73,2.53ZM37.15,10a.53.53,0,0,1,.56.91,26.6,26.6,0,0,1-3.64,2.06c-.61.31-1.16-.58-.56-.9,1.23-.65,2.4-1.44,3.64-2.07ZM31.68,5c.4-.51,1.2.13.89.66C31.84,6.89,31,8.08,30.35,9.38c-.33.64-1.29.1-1-.53A23.4,23.4,0,0,1,31.68,5ZM25.37,3.21a43.21,43.21,0,0,1-.09,4.41c0,.67-1.08.71-1.05,0,.06-1.48.06-2.94,0-4.41a.56.56,0,0,1,1.12,0ZM20.26,8.85h0c.28.66-.79,1-1.07.32-.54-1.3-1.38-2.53-1.86-3.84-.18-.48.53-.94.87-.53a15.94,15.94,0,0,1,2.06,4.05Zm-4,3.43h0c.67.2.41,1.24-.26,1.05a6.28,6.28,0,0,1-1.8-1l-2-1.28c-.63-.41,0-1.45.57-1l1.72,1.17a6.76,6.76,0,0,0,1.74,1.06Zm6.5-1.83a8,8,0,0,1,6.05.79,7.8,7.8,0,0,1,2.59,11,6.94,6.94,0,0,0-1.21-.32,7.08,7.08,0,0,0-5.45-4.17,15,15,0,0,0-1.9,0c-.88,0-1.14-.64-1.75-1.18a9.72,9.72,0,0,0-3.38-1.92c.6-2.2,3-3.68,5-4.22ZM34.4,29.37c-.55,3.32-3.63,4.68-6.66,5a60.59,60.59,0,0,1-8.31.15.74.74,0,0,0-.17,0h-.92C14.57,34.29,10.78,34,7,34a.43.43,0,0,0-.28.1,7.2,7.2,0,0,1-1.82-.6C3,32.55.76,30.44,1.31,28,1.74,26.14,4,23.27,6,23.38a.64.64,0,0,0,.62-.49,8.13,8.13,0,0,1,14-4.83c.77.81,1.16,1.15,2.28,1A5.73,5.73,0,0,1,29,22.72a.66.66,0,0,0,.48.46A5.42,5.42,0,0,1,34.4,29.37Z" transform="translate(0 -2.68)"/>
  </g>
</svg>
