<svg id="레이어_1" data-name="레이어 1" xmlns="http://www.w3.org/2000/svg" viewBox="0 0 27.48 40">
  <defs>
    <style>
      .cls-1 {
        fill: #313142;
      }

      .cls-2 {
        fill: #379bdb;
      }

      .cls-13, .cls-3, .cls-8, .cls-9 {
        opacity: 0.3;
      }

      .cls-4 {
        fill: #3a3a4a;
      }

      .cls-5 {
        fill: #f2b88e;
      }

      .cls-6 {
        fill: #4f3023;
      }

      .cls-7 {
        fill: #ffcb9e;
      }

      .cls-8 {
        fill: #bf3c1b;
      }

      .cls-9 {
        fill: #c94614;
      }

      .cls-10 {
        fill: #693a27;
      }

      .cls-11 {
        fill: #bf795c;
      }

      .cls-12 {
        fill: #ff8e69;
      }

      .cls-13 {
        fill: #b54d26;
      }

      .cls-14 {
        opacity: 0.5;
      }

      .cls-15 {
        fill: #94110c;
      }

      .cls-16 {
        fill: #224245;
      }

      .cls-17 {
        fill: #d4e6dd;
        opacity: 0.7;
      }

      .cls-18 {
        fill: #2b221c;
      }

      .cls-19 {
        fill: #ffdfc2;
      }
    </style>
  </defs>
  <title>1</title>
  <g>
    <path class="cls-1" d="M26.59,31.89c-1.47-3.59-9.86-2.65-11.92-.91-1.66,1.4-1.51,5.47-1,9h13C27.15,37.11,27.39,33.86,26.59,31.89Z" transform="translate(-6.26 0)"/>
    <path class="cls-2" d="M22,34.59a1.79,1.79,0,0,0-2-.91,1.87,1.87,0,0,0-1.56,1.43l1.13,1.14L18.4,40h3.93L21,36.14Z" transform="translate(-6.26 0)"/>
    <path class="cls-1" d="M27.86,32.06a19.37,19.37,0,0,0-2-1.13l.33,6.7A17.38,17.38,0,0,0,26.43,40h7C31.7,35.42,29.46,33.11,27.86,32.06Z" transform="translate(-6.26 0)"/>
    <path class="cls-1" d="M14.76,30.93a18.28,18.28,0,0,0-2,1.13c-1.61,1-3.84,3.36-5.59,7.94h7a17.38,17.38,0,0,0,.26-2.37Z" transform="translate(-6.26 0)"/>
    <path class="cls-3" d="M22.87,31.64c-1.61-.84-8.14-1.05-7.4,1.29a6.85,6.85,0,0,0,2.65,3.51l2.18-2.09,2.32,2a9.92,9.92,0,0,0,2.83-3.92A5.25,5.25,0,0,1,22.87,31.64Z" transform="translate(-6.26 0)"/>
    <path class="cls-4" d="M15.11,30.79c-1.09,2.77,2.85,5,2.85,5l2.34-1.47,2.18,1.38s4.33-2.25,2.69-5.49C23.7,27.34,16.36,27.57,15.11,30.79Z" transform="translate(-6.26 0)"/>
    <path class="cls-5" d="M18.59,26.91a3.29,3.29,0,0,0-2.43,3,2.56,2.56,0,0,0,.69,2.27,4.71,4.71,0,0,0,1.85,1.07c.51.16,1.41.77,1.57.77s.37-.26.85-.51a4.7,4.7,0,0,0,2.11-1.62c.57-1.13,1.08-3.36,0-4.24A6.27,6.27,0,0,0,18.59,26.91Z" transform="translate(-6.26 0)"/>
    <g>
      <path class="cls-6" d="M27.71.68C22.08-.77,12.5-.09,9.09,4.57A5.82,5.82,0,0,0,7.92,9.11c.35,1.71,1.53,2.88,3.42,2.41a3.73,3.73,0,0,1,2.56.23c1,.39,1.94,1,3,1.27,1.78.51,3.69.29,5.44.89a7.49,7.49,0,0,0,4.95.23c1.57-.47,3.32-.73,3.58-2.61a2.28,2.28,0,0,1,.25,1.79,6,6,0,0,0,2.14-2.51A7.52,7.52,0,0,0,33,4.94,8,8,0,0,0,27.71.68Z" transform="translate(-6.26 0)"/>
      <path class="cls-7" d="M18,4.64C12.56,5.7,8.73,13.54,9.73,20.9c.75,5.5,5,11.55,11.34,11.09S30.8,23.43,30,16.66C29.05,9.29,25.58,3.15,18,4.64Z" transform="translate(-6.26 0)"/>
      <path class="cls-8" d="M25.13,6a24.72,24.72,0,0,0-6.46-1c-1.94,0-4.05-.14-5.86.66-1,.44-2.22,1-2.6,2.12-.3.88-.66,2-.17,2.82,1,1.63,3.06.65,3.82.25,1.67-.86,9.23-.27,12.76-.28,1.47,0,3.59-.26,3-2.25C29.12,6.74,26.52,6.38,25.13,6Z" transform="translate(-6.26 0)"/>
      <path class="cls-7" d="M7.84,17.83c-2.67.74-1.6,4.65.58,5.43a5.09,5.09,0,0,0,2.15.24.43.43,0,0,0,0-.07c.32-.51-.13-3.35-.29-3.89C9.91,18.19,9.11,17.48,7.84,17.83Z" transform="translate(-6.26 0)"/>
      <path class="cls-9" d="M8.77,19.27c-.6-.28-2.09.22-1.39,1.4.37-1.09,1-.37.93.4-.07.52-.62.53-.07,1.19.3.37.9.23,1.21,0C10.42,21.68,9.5,19.61,8.77,19.27Z" transform="translate(-6.26 0)"/>
      <path class="cls-6" d="M27.9,3.25a5,5,0,0,0-1.33-.91,9.52,9.52,0,0,0-4.09-.83c-1.1,0-2.17-.23-3.28-.23a23,23,0,0,0-3.6.35,13.08,13.08,0,0,0-4.1,1.25c-1.08.59-1.51,2-2,3a4.47,4.47,0,0,0-.22,1.63,25.24,25.24,0,0,0,0,2.75c.07,1.61,2.23,1.85,3.14.7a3.78,3.78,0,0,1,3.1-1.29c2.06-.07,10.12-.45,12,.2,1,.35,2.42.9,2.62-.76a7.19,7.19,0,0,0-.55-2.95A7.29,7.29,0,0,0,27.9,3.25Z" transform="translate(-6.26 0)"/>
      <path class="cls-10" d="M29.31,2.48C26.61.94,23,.85,20,1a18.19,18.19,0,0,0-7.22,1.94A4.84,4.84,0,0,0,10,8a8.68,8.68,0,0,1,4.77-2.86c-.12.63-1.27,1.87-1.51,2.46,1-.56,5.7-2.68,6.94-2.67-.42.47-1.35,1.08-1.28,1.77,2-.34,4.25-1.52,6.36-1.37C24.6,6,23.57,6.09,23,6.87c2,0,4.28-.27,6.39-.29A8.52,8.52,0,0,0,27.48,7.7a21.41,21.41,0,0,1,5.32.36A6.93,6.93,0,0,0,29.31,2.48Z" transform="translate(-6.26 0)"/>
      <path class="cls-11" d="M8.67,10.76c-.74,1.2-.45,6.51-.27,7,1.27.15,2.84,1.88,2.84,1.88-.45-3.11,0-4.77.65-8.21A14,14,0,0,1,8.67,10.76Z" transform="translate(-6.26 0)"/>
    </g>
    <g>
      <path class="cls-12" d="M29.15,19.71a2.65,2.65,0,0,0-2.19-.6c-.92.07-2.13.48-1.25,1.67.47.64,4.16.84,3.66-.67A1.53,1.53,0,0,0,29.15,19.71Z" transform="translate(-6.26 0)"/>
      <path class="cls-12" d="M15.85,19.78a2.55,2.55,0,0,0-2.24-.31c-.88.19-2,.78-.9,1.89.58.59,4.2.29,3.43-1.19A1.47,1.47,0,0,0,15.85,19.78Z" transform="translate(-6.26 0)"/>
      <path class="cls-13" d="M26.35,26.56a1.28,1.28,0,0,1,1.59-1C27.12,24.16,25.51,25.14,26.35,26.56Z" transform="translate(-6.26 0)"/>
      <path class="cls-13" d="M14.38,27.08a1.27,1.27,0,0,1,1.67.85C16.76,26.44,15.07,25.62,14.38,27.08Z" transform="translate(-6.26 0)"/>
      <g class="cls-14">
        <path class="cls-15" d="M22.22,22.51c-2.72-.05-5.94,1.16-7,4a.41.41,0,0,0,.24.52.32.32,0,0,0,.14,0,.41.41,0,0,0,.38-.26c.88-2.39,3.74-3.46,6.07-3.46h.15c2.06,0,3.66.87,4.07,2.11a.41.41,0,0,0,.51.26.39.39,0,0,0,.25-.51C26.52,23.58,24.67,22.56,22.22,22.51Z" transform="translate(-6.26 0)"/>
      </g>
      <path class="cls-13" d="M12,17.7c.16.43,1.11.06,1.44.08-.19.31-1,.44-1.26.67s-.21.38.2.3A7.48,7.48,0,0,0,14.08,18C14.64,17.25,12.35,17.56,12,17.7Z" transform="translate(-6.26 0)"/>
      <path class="cls-16" d="M14,16.39c-1.14.46-1.08,1.42-.25,1.81a4.82,4.82,0,0,1,1.86.05C17.92,17.66,16.07,15.53,14,16.39Z" transform="translate(-6.26 0)"/>
      <path class="cls-17" d="M15.25,16.54c-.6,0-.81.58-.31.66C15.64,17.33,15.92,16.53,15.25,16.54Z" transform="translate(-6.26 0)"/>
      <path class="cls-18" d="M15.38,12.64c-1.91-.72-2.74-.2-3.26.14-.14.1.35.36.77.42a6.56,6.56,0,0,1,3.61,1.92c.78.74,1.38-.78,1-1.52A11,11,0,0,0,15.38,12.64Z" transform="translate(-6.26 0)"/>
      <path class="cls-13" d="M28.5,17c.26-.06,1.09.22,1.18-.22-.28-.11-2.2-.18-1.67.49a5.48,5.48,0,0,0,1.44.57c.35,0,.4-.09.14-.31S28.68,17.31,28.5,17Z" transform="translate(-6.26 0)"/>
      <path class="cls-16" d="M28,15.72c-1.82-.62-3.17,1.64-1.17,2a3.27,3.27,0,0,1,1.53-.23A1,1,0,0,0,28,15.72Z" transform="translate(-6.26 0)"/>
      <path class="cls-17" d="M27.67,16c-.56,0-.26.8.3.61S28.16,15.94,27.67,16Z" transform="translate(-6.26 0)"/>
      <path class="cls-18" d="M26.35,12.6a10.48,10.48,0,0,0-1.67,1.11c-.24.76.35,2.19.93,1.41A5.45,5.45,0,0,1,28.4,13c.34-.08.71-.38.59-.46C28.55,12.2,27.84,11.75,26.35,12.6Z" transform="translate(-6.26 0)"/>
      <path class="cls-13" d="M18.76,25.39a9.8,9.8,0,0,1,4.54-1C23.16,23.42,19.76,23.72,18.76,25.39Z" transform="translate(-6.26 0)"/>
      <path class="cls-13" d="M21.47,20.06c-.82,0-1.15-.36-1.72,0s.25,1.44,1.7,1.38,2.06-1,1.76-1.41S22.37,20.05,21.47,20.06Z" transform="translate(-6.26 0)"/>
      <path class="cls-19" d="M21.25,17c-1.53-.13-1.65,3.13-1.3,3.4.86.69,2.66.2,3.19-.35C23.34,19.82,22.72,17.11,21.25,17Z" transform="translate(-6.26 0)"/>
    </g>
  </g>
</svg>
