<svg id="레이어_1" data-name="레이어 1" xmlns="http://www.w3.org/2000/svg" viewBox="0 0 40 40">
  <defs>
    <style>
      .cls-1 {
        stroke: #000;
        stroke-miterlimit: 10;
        stroke-width: 0.75px;
      }
    </style>
  </defs>
  <title>1</title>
  <path d="M20,40A20,20,0,1,1,40,20,20,20,0,0,1,20,40ZM20,3.66A16.34,16.34,0,1,0,36.34,20,16.36,16.36,0,0,0,20,3.66Z"/>
  <path class="cls-1" d="M21.57,18.53a13.72,13.72,0,0,1-.42,3.57A7.92,7.92,0,0,1,20,24.72a5.1,5.1,0,0,1-1.89,1.61,5.43,5.43,0,0,1-2.47.55,5.4,5.4,0,0,1-2.47-.55,5.1,5.1,0,0,1-1.89-1.61A8.14,8.14,0,0,1,10,22.1a13.72,13.72,0,0,1-.42-3.57A13.69,13.69,0,0,1,10,15a8.14,8.14,0,0,1,1.21-2.62,5.1,5.1,0,0,1,1.89-1.61,5.4,5.4,0,0,1,2.47-.55,5.43,5.43,0,0,1,2.47.55A5.1,5.1,0,0,1,20,12.35,7.92,7.92,0,0,1,21.15,15,13.69,13.69,0,0,1,21.57,18.53Zm-3.13,0a9.79,9.79,0,0,0-.73-4.19,2.25,2.25,0,0,0-4.25,0,9.94,9.94,0,0,0-.73,4.19,10,10,0,0,0,.73,4.2,2.25,2.25,0,0,0,4.25,0A9.8,9.8,0,0,0,18.44,18.53ZM30.77,19.8H27.16V31.92H24.08V8.9h3.08v8.29h3.61Z"/>
</svg>
