<svg id="레이어_1" data-name="레이어 1" xmlns="http://www.w3.org/2000/svg" viewBox="0 0 39.22 40">
  <defs>
    <style>
      .cls-1 {
        fill: #576d64;
      }

      .cls-1, .cls-2, .cls-3 {
        fill-rule: evenodd;
      }

      .cls-2 {
        fill: #ec331e;
      }
    </style>
  </defs>
  <title>1</title>
  <g>
    <polygon class="cls-1" points="0.57 1.62 1.53 32.05 1.31 37.24 1.31 39.26 37.97 38.68 37.97 35.69 3.27 35.69 3.64 0.76 0.57 1.62"/>
    <polygon class="cls-2" points="6.76 30.27 9.2 32.05 18.62 22.13 28.49 21.89 33.6 12 37.63 16.91 38.39 16.43 38.29 1.62 24.87 7.41 30.06 10.18 26 17.7 16.28 17.34 6.76 30.27"/>
    <path class="cls-2" d="M9.09,28.27c-.25-.63-1.26-.34-1,.3a9.7,9.7,0,0,1,.49,1.73,14.78,14.78,0,0,0,.25,1.77.46.46,0,0,0,.87,0A6.3,6.3,0,0,0,9.09,28.27Z" transform="translate(-0.48)"/>
    <path class="cls-2" d="M10.82,26.83a.52.52,0,0,0-1,.31,10.34,10.34,0,0,1,.4,2.22,11.1,11.1,0,0,0,.07,1.91.44.44,0,0,0,.8.08C11.67,30,11.21,28.16,10.82,26.83Z" transform="translate(-0.48)"/>
    <path class="cls-2" d="M11.79,24.75a.46.46,0,0,0-.88.27,34.49,34.49,0,0,0,1.3,4.63c.18.44,1,.42.9-.14A36.13,36.13,0,0,0,11.79,24.75Z" transform="translate(-0.48)"/>
    <path class="cls-2" d="M13.35,23.8a.49.49,0,0,0-.93.28,14.32,14.32,0,0,1,.46,2,11.59,11.59,0,0,0,.24,1.77.41.41,0,0,0,.78,0A9,9,0,0,0,13.35,23.8Z" transform="translate(-0.48)"/>
    <path class="cls-2" d="M16.37,22.27c-.18-.83-.36-1.66-.55-2.49-.14-.65-1.1-.34-1,.3l.5,2.5a7.29,7.29,0,0,0,.59,2.22c.24.41.77.15.81-.24A7.53,7.53,0,0,0,16.37,22.27Z" transform="translate(-0.48)"/>
    <path class="cls-2" d="M16.91,18.35c-.15-.61-1.08-.33-.94.28a34.42,34.42,0,0,0,1,4.15c.18.45,1,.4.91-.15A33.56,33.56,0,0,0,16.91,18.35Z" transform="translate(-0.48)"/>
    <path class="cls-2" d="M19.11,20.05c-.21-.74-.45-1.47-.72-2.2s-1.25-.34-1,.31.48,1.47.68,2.21a8.71,8.71,0,0,0,.59,2c.25.46.83.16.87-.26A6.16,6.16,0,0,0,19.11,20.05Z" transform="translate(-0.48)"/>
    <path class="cls-2" d="M20.76,20c-.22-.77-.43-1.54-.65-2.31s-1.16-.35-1,.3l.59,2.33a8.25,8.25,0,0,0,.65,2.08.47.47,0,0,0,.87-.26A8.46,8.46,0,0,0,20.76,20Z" transform="translate(-0.48)"/>
    <path class="cls-2" d="M22.58,20.15l-.43-2.31c-.14-.7-1.19-.38-1.07.32l.39,2.17A5.77,5.77,0,0,0,22,22.26a.47.47,0,0,0,.84-.13A5.79,5.79,0,0,0,22.58,20.15Z" transform="translate(-0.48)"/>
    <path class="cls-2" d="M24.52,20l-.66-2.12a.56.56,0,0,0-1.08.32l.63,2.14a6.93,6.93,0,0,0,.7,1.94A.5.5,0,0,0,25,22,6.19,6.19,0,0,0,24.52,20Z" transform="translate(-0.48)"/>
    <path class="cls-2" d="M26.27,19.92c-.2-.69-.42-1.38-.65-2.07a.56.56,0,0,0-1.08.33c.21.64.4,1.29.58,1.95a5,5,0,0,0,.61,1.79.47.47,0,0,0,.85-.13A4,4,0,0,0,26.27,19.92Z" transform="translate(-0.48)"/>
    <path class="cls-2" d="M28,19.85c-.16-.77-.31-1.54-.44-2.32-.11-.6-1.16-.44-1.07.17a16.63,16.63,0,0,0,1,4.59c.22.46,1,.2.93-.28A13.6,13.6,0,0,0,28,19.85Z" transform="translate(-0.48)"/>
    <path class="cls-2" d="M29.79,20.31a17.7,17.7,0,0,0-.85-2.41c-.28-.81-.52-1.63-.74-2.46-.18-.67-1.2-.36-1,.31a15.35,15.35,0,0,0,1.71,5A.51.51,0,0,0,29.79,20.31Z" transform="translate(-0.48)"/>
    <path class="cls-2" d="M30.34,16.9c-.28-1-.6-1.93-.94-2.87-.24-.66-1.27-.36-1,.31.31.89.6,1.79.85,2.7A7.5,7.5,0,0,0,30,19.48a.43.43,0,0,0,.78-.12A5.69,5.69,0,0,0,30.34,16.9Z" transform="translate(-0.48)"/>
    <path class="cls-2" d="M31.78,16.29a15.76,15.76,0,0,1-1-4.06.54.54,0,0,0-1.07,0,8.68,8.68,0,0,0,1.08,4.47A.54.54,0,0,0,31.78,16.29Z" transform="translate(-0.48)"/>
    <path class="cls-2" d="M27.84,8.84c-.14-.24-.33-.43-.48-.67a2.77,2.77,0,0,1-.31-.73.52.52,0,0,0-1,.31,2.79,2.79,0,0,0,1.18,1.73A.46.46,0,0,0,27.84,8.84Z" transform="translate(-0.48)"/>
    <path class="cls-2" d="M29.06,7.63c-.2-.49-.4-1-.61-1.46s-1.23-.32-1,.3L28.1,8a4.35,4.35,0,0,0,.68,1.34A.45.45,0,0,0,29.53,9,4.21,4.21,0,0,0,29.06,7.63Z" transform="translate(-0.48)"/>
    <path class="cls-2" d="M32.75,13.7a39.47,39.47,0,0,1-2.42-8.3c-.07-.44-.85-.32-.78.12A30.51,30.51,0,0,0,32,14.05C32.19,14.47,32.92,14.15,32.75,13.7Z" transform="translate(-0.48)"/>
    <path class="cls-2" d="M31.58,4.76c-.21-.53-1-.28-.85.25.87,2.37,1.37,4.81,2.16,7.19.14.45.93.38.86-.14A32.1,32.1,0,0,0,31.58,4.76Z" transform="translate(-0.48)"/>
    <path class="cls-2" d="M35.78,13.39c-.69-3.27-1.53-6.5-2.31-9.75-.12-.51-.89-.27-.78.24.71,3.26,1.35,6.55,2.15,9.79C35,14.29,35.9,14,35.78,13.39Z" transform="translate(-0.48)"/>
    <path class="cls-2" d="M37.83,16.13c-1.73-4.07-1.35-8.56-3-12.61-.17-.42-.85-.22-.68.2,1.63,4.07.72,8.91,3,12.72C37.36,16.8,38,16.54,37.83,16.13Z" transform="translate(-0.48)"/>
    <path class="cls-2" d="M36.3,2.54c-.11-.47-.82-.26-.72.22.79,3.81,1.36,7.77,2.48,11.51.11.38.76.3.71-.12C38.25,10.25,37.14,6.37,36.3,2.54Z" transform="translate(-0.48)"/>
    <path class="cls-2" d="M37.64,2.21c-.2-.53-1-.28-.84.25a19.48,19.48,0,0,1,.83,4.14.4.4,0,0,0,.77,0A8.89,8.89,0,0,0,37.64,2.21Z" transform="translate(-0.48)"/>
    <path class="cls-1" d="M3.83,37.48c-.28-.59-.54-1.2-.77-1.81s-1.25-.34-1,.3.45,1.18.72,1.76a4.43,4.43,0,0,0,1,1.61c.26.22.82.08.76-.34A5.62,5.62,0,0,0,3.83,37.48Z" transform="translate(-0.48)"/>
    <path class="cls-1" d="M9.2,39.09a5.31,5.31,0,0,0-.7-1.46l-.84-1.5c-.32-.57-1.17,0-.86.53l.83,1.51a5.66,5.66,0,0,0,.87,1.35A.43.43,0,0,0,9.2,39.09Z" transform="translate(-0.48)"/>
    <path class="cls-1" d="M11.51,38.48a21.65,21.65,0,0,0-1.84-2.82c-.35-.52-1.17,0-.82.51a22.81,22.81,0,0,0,2,2.88C11.18,39.47,11.72,38.91,11.51,38.48Z" transform="translate(-0.48)"/>
    <path class="cls-1" d="M13.62,38.81A8.26,8.26,0,0,0,11.79,36c-.37-.44-1,.21-.61.65.67.8,1.15,1.76,1.84,2.54C13.27,39.46,13.72,39.14,13.62,38.81Z" transform="translate(-0.48)"/>
    <path class="cls-1" d="M18.69,38.79a4.07,4.07,0,0,0-.91-1.46c-.35-.47-.73-.91-1.12-1.34s-1,.21-.61.64.74.87,1.08,1.33a5.64,5.64,0,0,0,.95,1.21A.37.37,0,0,0,18.69,38.79Z" transform="translate(-0.48)"/>
    <path class="cls-1" d="M20.83,38.7a19.24,19.24,0,0,0-1.68-2.82.43.43,0,0,0-.73.45,19.44,19.44,0,0,0,1.77,2.77C20.44,39.39,21,39.06,20.83,38.7Z" transform="translate(-0.48)"/>
    <path class="cls-1" d="M23.21,38.61a7.93,7.93,0,0,0-.89-1.28l-.94-1.25c-.32-.43-1,0-.72.45l1,1.34a8.34,8.34,0,0,0,1,1.23C23,39.42,23.39,39,23.21,38.61Z" transform="translate(-0.48)"/>
    <path class="cls-1" d="M25.32,38.6a12.8,12.8,0,0,0-1.5-2.23c-.33-.46-1.08,0-.76.47s.53.75.79,1.12a5.94,5.94,0,0,0,.8,1C24.93,39.27,25.49,39,25.32,38.6Z" transform="translate(-0.48)"/>
    <path class="cls-1" d="M26.86,38.52a17.57,17.57,0,0,0-1.38-2.74c-.28-.53-1.07,0-.79.49a17.5,17.5,0,0,0,1.43,2.58C26.39,39.19,27,39,26.86,38.52Z" transform="translate(-0.48)"/>
    <path class="cls-1" d="M29.08,38.21a15.47,15.47,0,0,0-1.39-1.93c-.34-.47-1.11,0-.77.48a17.23,17.23,0,0,0,1.48,2C28.77,39.13,29.3,38.63,29.08,38.21Z" transform="translate(-0.48)"/>
    <path class="cls-1" d="M29.88,35.76c-.34-.51-1.16,0-.82.51s.55.86.79,1.31a6,6,0,0,0,.74,1.24.42.42,0,0,0,.7-.3A7.25,7.25,0,0,0,29.88,35.76Z" transform="translate(-0.48)"/>
    <path class="cls-1" d="M32.9,37.27l-1-1.53c-.36-.53-1.21,0-.86.53l1,1.54c.3.45.55,1,1,1.29a.42.42,0,0,0,.61-.37A3.28,3.28,0,0,0,32.9,37.27Z" transform="translate(-0.48)"/>
    <path class="cls-1" d="M35,37.12l-1-1.45c-.36-.53-1.2,0-.85.52L34,37.68a3.21,3.21,0,0,0,1,1.23.44.44,0,0,0,.65-.39A3.35,3.35,0,0,0,35,37.12Z" transform="translate(-0.48)"/>
    <path class="cls-1" d="M37.74,38.11A3.6,3.6,0,0,0,37.05,37l-.8-1.17c-.31-.46-1,0-.73.45l.84,1.25a3.27,3.27,0,0,0,.85,1.06C37.51,38.74,37.79,38.41,37.74,38.11Z" transform="translate(-0.48)"/>
    <path class="cls-1" d="M38.86,37.26a9.37,9.37,0,0,0-.78-1.55c-.24-.45-.92,0-.67.41a9.27,9.27,0,0,0,.9,1.48C38.54,37.87,39,37.56,38.86,37.26Z" transform="translate(-0.48)"/>
    <path class="cls-1" d="M5,35.6c-.55-.84-1.27-1.57-1.81-2.44a.42.42,0,0,0-.71.44,8.68,8.68,0,0,0,2,2.5C4.84,36.32,5.2,35.89,5,35.6Z" transform="translate(-0.48)"/>
    <path class="cls-1" d="M4.54,32.57a7.63,7.63,0,0,0-.9-1.43l-1-1.47c-.32-.46-1.06,0-.74.46l1,1.49a7.92,7.92,0,0,0,1,1.37C4.14,33.25,4.69,33,4.54,32.57Z" transform="translate(-0.48)"/>
    <path class="cls-1" d="M4.6,29.48a15.25,15.25,0,0,1-1.87-2.15c-.31-.46-1,0-.73.45a10,10,0,0,0,2,2.37A.46.46,0,0,0,4.6,29.48Z" transform="translate(-0.48)"/>
    <path class="cls-1" d="M4.62,26.92a13.85,13.85,0,0,0-.93-1.21q-.45-.62-.87-1.26a.52.52,0,0,0-.89.55c.3.46.59.9.91,1.34a7.24,7.24,0,0,0,1,1.22A.52.52,0,0,0,4.62,26.92Z" transform="translate(-0.48)"/>
    <path class="cls-1" d="M4.43,23.72a9.93,9.93,0,0,1-1.59-1.65c-.34-.45-1.09,0-.75.47a12,12,0,0,0,1.68,1.88C4.23,24.82,4.9,24.12,4.43,23.72Z" transform="translate(-0.48)"/>
    <path class="cls-1" d="M4.78,21.4C4.45,21,4,20.63,3.67,20.24S2.91,19.4,2.55,19s-1.15,0-.78.48a12.17,12.17,0,0,0,2.39,2.62C4.53,22.33,5.08,21.76,4.78,21.4Z" transform="translate(-0.48)"/>
    <path class="cls-1" d="M4.26,18.8a7.39,7.39,0,0,0-.85-1.43l-1-1.5c-.29-.45-1,0-.71.44l1,1.5a7,7,0,0,0,1,1.37A.37.37,0,0,0,4.26,18.8Z" transform="translate(-0.48)"/>
    <path class="cls-1" d="M4.85,15.77a10.84,10.84,0,0,0-1.22-1.32C3.2,14,2.78,13.52,2.38,13s-1,.21-.62.65.81,1,1.23,1.43a7,7,0,0,0,1.3,1.25A.43.43,0,0,0,4.85,15.77Z" transform="translate(-0.48)"/>
    <path class="cls-1" d="M4.45,13A8,8,0,0,0,3.4,11.67L2.26,10.34c-.37-.43-1,.21-.6.63l1.08,1.26a7.54,7.54,0,0,0,1.1,1.22A.4.4,0,0,0,4.45,13Z" transform="translate(-0.48)"/>
    <path class="cls-1" d="M4.5,10.66A5.35,5.35,0,0,0,3.39,9.54,11.46,11.46,0,0,1,2.24,8.28c-.33-.43-1.07,0-.73.45a14.63,14.63,0,0,0,1.21,1.4,3.44,3.44,0,0,0,1.4,1A.35.35,0,0,0,4.5,10.66Z" transform="translate(-0.48)"/>
    <path class="cls-1" d="M4.22,8.22a5.7,5.7,0,0,0-.86-1.11C3,6.74,2.72,6.39,2.38,6s-1,.23-.61.64.62.67.93,1a7.37,7.37,0,0,0,.91,1A.4.4,0,0,0,4.22,8.22Z" transform="translate(-0.48)"/>
    <path class="cls-1" d="M4.28,5.83a3.4,3.4,0,0,0-.92-1c-.36-.35-.74-.69-1.12-1s-.92.23-.54.56.73.64,1.08,1a4.33,4.33,0,0,0,1,.93C4,6.33,4.4,6.12,4.28,5.83Z" transform="translate(-0.48)"/>
    <path class="cls-1" d="M4.09,3.37a3.43,3.43,0,0,0-.7-.83l-.77-.81c-.32-.34-.82.18-.5.52l.77.81a3.75,3.75,0,0,0,.8.74A.31.31,0,0,0,4.09,3.37Z" transform="translate(-0.48)"/>
    <path class="cls-3" d="M37.82,39.34a.22.22,0,0,1,0,.08.62.62,0,0,0,1.22.14,7,7,0,0,0,.12-3.24.74.74,0,0,0-.5-1.26h0c-11.32,0-22.64-.06-34,0C5.3,23.64,4.93,12,4.54.58A.62.62,0,0,0,3.34.41,3.77,3.77,0,0,0,.82.85a.74.74,0,0,0-.34.63C.55,7.84.79,14.2,1,20.56l.25,9.38c0,1.45.09,2.91.1,4.36S1,37.26,1,38.74a.52.52,0,0,0,.12.36.65.65,0,0,0,.66.76M18.58,21.29A49.74,49.74,0,0,0,14,26.69c-1.29,1.67-2.74,3.17-4.13,4.74C9.21,31,8.62,30.51,8,30.08c1.53-2.21,3.35-4.17,5-6.28,1.45-1.86,2.81-3.78,4.11-5.74a.64.64,0,0,0,.35.12c3.13,0,6.45.25,9.53-.32a.54.54,0,0,0,.44-.71c1.37-2.22,2.58-4.56,3.86-6.83a.64.64,0,0,0-.81-.89A25.62,25.62,0,0,0,26,7.89c1.7-1.33,4.12-2.17,6-3.07S36,3,38,2.11c.05,2.3.1,4.61.16,6.91s0,4.65.2,6.93c-.38-.38-.77-.75-1.13-1.15a24,24,0,0,1-1.82-2.31.66.66,0,0,0-.46-.27c.19-.52-.64-1.08-1-.58a34.8,34.8,0,0,0-2.77,4.82c-.85,1.63-1.83,3.25-2.52,5a39.39,39.39,0,0,0-9.08.06.62.62,0,0,0-1-.2ZM6.77,29.44a49.53,49.53,0,0,1,4.46-5.66q2.73-3.37,5.13-7a.72.72,0,0,1,1.23.1c2.79-.6,5.75.17,8.59-.2,1.09-2.1,2.34-4.14,3.54-6.19-1.7-.57-3.49-1-5.13-1.64a.62.62,0,0,1-.06-1,.62.62,0,0,1,.17-.37c1.65-1.71,4.55-2.61,6.68-3.61s4.58-2.06,6.9-3a.42.42,0,0,1,.14-.06l.2-.08c.47-.19.76.31.62.7.09,2.53.18,5.07.25,7.6s.32,5.14.15,7.66a.59.59,0,0,1-.46.58.67.67,0,0,1-1,.44,16.94,16.94,0,0,1-3.89-4.49c-1.81,2.86-2.87,6.2-4.76,9a.4.4,0,0,1-.17.17.48.48,0,0,1-.55.33,48,48,0,0,0-9.44.13.58.58,0,0,1-.47-.15,65.11,65.11,0,0,0-4.22,5.14c-1.37,1.79-2.81,3.87-4.7,5.14a.56.56,0,0,1-.86-.38c-.93-.63-1.91-1.23-2.79-1.93-.49-.39-.11-1.11.4-1.19Zm-4.4,9.05c.93-2.12.44-5.11.38-7.29l-.27-10c-.17-6.43-.27-12.87-.54-19.29a1.91,1.91,0,0,1,1.39-.06c.1,5.39.14,10.79.15,16.19,0,5.8-.23,11.61-.18,17.41a.62.62,0,0,0,.39.6.65.65,0,0,0,.64.45c11.17.08,22.34,0,33.5,0,0,.37.05.73.05,1.1,0,.1,0,.21,0,.32C26.06,37.44,14.17,38,2.37,38.49Z" transform="translate(-0.48)"/>
  </g>
</svg>
