<svg id="레이어_1" data-name="레이어 1" xmlns="http://www.w3.org/2000/svg" viewBox="0 0 39.96 39.08">
  <defs>
    <style>
      .cls-1 {
        fill: #e3ca95;
      }

      .cls-1, .cls-2, .cls-3 {
        fill-rule: evenodd;
      }

      .cls-2 {
        fill: #576d64;
      }
    </style>
  </defs>
  <title>1</title>
  <g>
    <polygon class="cls-1" points="9.68 3.77 7.53 3.77 6.24 5.32 6.24 10.1 7.38 13.21 8.44 13.89 7.68 17.02 10.63 14.4 15.36 13.21 19.71 13.36 22.99 13.21 24.58 11.84 29.01 12.71 30.87 13.74 31.83 15.01 31.91 13.21 31.14 11.65 32.45 10.7 32.45 2.38 31.83 1.15 26.49 0.64 16.24 0.84 14.75 1.52 14.49 4.01 9.68 3.77"/>
    <polygon class="cls-2" points="29.97 29.25 29.85 31.31 27.58 32.21 25.23 33.11 24.42 34.3 24.26 37.15 25.18 38.23 37.52 38.41 39.39 36.99 38.61 34.22 36.85 32.49 33.27 31.48 32.97 29.59 34.62 26.37 34.96 21.99 33.9 19.91 30.68 19.46 29.13 20.07 27.89 21.37 27.99 26.57 29.45 28.97 29.97 29.25"/>
    <polygon class="cls-2" points="6.24 29.25 5.91 30.57 3.85 32.21 1.5 33.11 0.69 34.3 0.53 37.15 1.44 38.23 13.79 38.41 14.95 36.86 14.88 34.22 13.12 32.49 10.22 31.13 9.24 29.59 10.89 26.37 11.23 21.99 10.17 19.91 6.95 19.46 5.4 20.07 4.16 21.37 4.26 26.57 5.72 28.97 6.24 29.25"/>
    <path class="cls-2" d="M6.59,19.94a39.47,39.47,0,0,0-2.7,4.32c-.18.37.32.81.62.45a40.49,40.49,0,0,0,2.81-4.36C7.61,19.89,6.88,19.49,6.59,19.94Z" transform="translate(0 -0.3)"/>
    <path class="cls-2" d="M7.94,20.62c-1.3,1.83-2.54,3.71-3.71,5.62-.3.48.47.9.75.42,1.17-1.92,2.39-3.8,3.68-5.64C9,20.58,8.24,20.2,7.94,20.62Z" transform="translate(0 -0.3)"/>
    <path class="cls-2" d="M9.75,20.8C8.12,23,6.11,25.34,5.05,27.87c-.14.35.3.78.59.43a30.57,30.57,0,0,0,2.09-3.14c.85-1.28,1.73-2.53,2.64-3.78C10.68,21,10.08,20.36,9.75,20.8Z" transform="translate(0 -0.3)"/>
    <path class="cls-2" d="M10.75,22.22C9.27,24.56,7.37,26.65,5.94,29c-.23.38.3.74.61.45,2-1.86,3.49-4.55,4.91-6.83C11.74,22.17,11,21.78,10.75,22.22Z" transform="translate(0 -0.3)"/>
    <path class="cls-2" d="M10.55,25.63C7.31,29.69,4,33.66.78,37.75c-.31.4.24,1,.58.55,3.36-3.95,6.5-8.1,9.69-12.19C11.32,25.76,10.83,25.28,10.55,25.63Z" transform="translate(0 -0.3)"/>
    <path class="cls-2" d="M3.12,32.65a13.57,13.57,0,0,0-2.87,3c-.2.32.25.62.51.37,1-.94,1.83-2,2.87-2.93C4,32.83,3.46,32.36,3.12,32.65Z" transform="translate(0 -0.3)"/>
    <path class="cls-2" d="M9.3,30.19c-2.12,2.69-4.39,5.25-6.56,7.89-.31.36.2.86.53.51,2.34-2.49,4.45-5.22,6.55-7.91C10.1,30.32,9.59,29.82,9.3,30.19Z" transform="translate(0 -0.3)"/>
    <path class="cls-2" d="M9.89,31.88C8,34.08,6,36.23,4.33,38.58c-.25.36.3.73.59.44,2-2,3.69-4.43,5.5-6.64C10.71,32,10.2,31.52,9.89,31.88Z" transform="translate(0 -0.3)"/>
    <path class="cls-2" d="M13.12,32.79c-.59,1-1.21,2-1.86,2.9a31.84,31.84,0,0,0-2,2.79c-.19.34.25.61.51.38a13.47,13.47,0,0,0,2.05-2.63c.69-1,1.33-2,1.94-3.1C14,32.74,13.35,32.4,13.12,32.79Z" transform="translate(0 -0.3)"/>
    <path class="cls-2" d="M14.19,34.14a42.17,42.17,0,0,0-3,4.54c-.2.38.31.79.61.45a42.75,42.75,0,0,0,3.11-4.61C15.17,34.09,14.47,33.72,14.19,34.14Z" transform="translate(0 -0.3)"/>
    <path class="cls-2" d="M30.05,19.8l-1.24,1.85a9,9,0,0,0-1.06,1.76c-.14.38.39.58.63.35a8.75,8.75,0,0,0,1.21-1.68c.41-.62.82-1.24,1.22-1.86C31.13,19.75,30.36,19.33,30.05,19.8Z" transform="translate(0 -0.3)"/>
    <path class="cls-2" d="M31.67,20.34c-.68,1-1.38,1.92-2.06,2.87a17.92,17.92,0,0,0-2,2.92.37.37,0,0,0,.59.43,17.86,17.86,0,0,0,2.05-2.73l2.18-3.07C32.77,20.3,32,19.89,31.67,20.34Z" transform="translate(0 -0.3)"/>
    <path class="cls-2" d="M33.5,20.53a54.58,54.58,0,0,0-5.08,7.22c-.19.38.32.79.62.45,1.9-2.14,3.38-4.77,5.08-7.08C34.44,20.68,33.83,20.09,33.5,20.53Z" transform="translate(0 -0.3)"/>
    <path class="cls-2" d="M34.57,21.85c-1.6,2.5-3.32,4.91-4.91,7.4-.26.4.39.89.68.5,1.77-2.4,3.34-5,4.9-7.52C35.5,21.8,34.83,21.44,34.57,21.85Z" transform="translate(0 -0.3)"/>
    <path class="cls-2" d="M34.45,24.84c-3.09,4.57-6.44,8.94-9.78,13.32-.31.42.26,1,.61.58a167.19,167.19,0,0,0,9.79-13.56C35.32,24.8,34.71,24.47,34.45,24.84Z" transform="translate(0 -0.3)"/>
    <path class="cls-2" d="M26.85,32.65c-.37.46-.74.93-1.1,1.4a9.84,9.84,0,0,0-1,1.33.36.36,0,0,0,.57.42,10.86,10.86,0,0,0,1.05-1.3l1-1.33C27.68,32.79,27.15,32.27,26.85,32.65Z" transform="translate(0 -0.3)"/>
    <path class="cls-2" d="M32.33,30.52q-2.47,4-5.19,7.79c-.28.39.37.75.65.36q2.67-3.83,5.12-7.82C33.13,30.48,32.55,30.16,32.33,30.52Z" transform="translate(0 -0.3)"/>
    <path class="cls-2" d="M33.15,32.07c-1.33,2.08-2.72,4.13-4,6.25-.28.47.43.85.73.41,1.39-2,2.66-4.17,4-6.25C34.16,32,33.44,31.63,33.15,32.07Z" transform="translate(0 -0.3)"/>
    <path class="cls-2" d="M34.84,32.51l-1.82,3a15.27,15.27,0,0,0-1.53,2.69c-.11.3.32.51.52.29a14.53,14.53,0,0,0,1.68-2.61l1.78-3C35.72,32.46,35.08,32.12,34.84,32.51Z" transform="translate(0 -0.3)"/>
    <path class="cls-2" d="M36.55,32.89a48.7,48.7,0,0,0-3.44,5.44c-.15.33.27.71.54.4a49.71,49.71,0,0,0,3.55-5.47C37.46,32.85,36.81,32.5,36.55,32.89Z" transform="translate(0 -0.3)"/>
    <path class="cls-2" d="M37.93,33.59c-.84,1.65-2,3-2.91,4.63-.2.34.27.66.54.4a17.57,17.57,0,0,0,3-4.69C38.75,33.53,38.14,33.19,37.93,33.59Z" transform="translate(0 -0.3)"/>
    <path class="cls-2" d="M38.72,35.87a12.78,12.78,0,0,1-1,1.61c-.34.44-.73.83-1.05,1.3-.18.24.18.56.42.4a8.08,8.08,0,0,0,2.27-3c.21-.41-.42-.76-.63-.35Z" transform="translate(0 -0.3)"/>
    <path class="cls-1" d="M8.5,4.22a13.86,13.86,0,0,0-2,3.16c-.14.37.43.67.67.37.75-.94,1.29-2,2-3C9.45,4.32,8.78,3.83,8.5,4.22Z" transform="translate(0 -0.3)"/>
    <path class="cls-1" d="M10.39,4.57c-1.31,2-2.93,3.95-4.1,6a.42.42,0,0,0,.67.5A38.35,38.35,0,0,0,11.16,5c.3-.49-.47-.91-.77-.43Z" transform="translate(0 -0.3)"/>
    <path class="cls-1" d="M12.7,4.77c-1.54,2.72-3.45,5.3-4.89,8.07-.2.4.35.86.66.49a53.34,53.34,0,0,0,5-8.15A.43.43,0,0,0,12.7,4.77Z" transform="translate(0 -0.3)"/>
    <path class="cls-1" d="M16.9,1.59c-2.57,4.78-5.56,9.25-8.41,13.86-.26.43.42.94.72.53A105.4,105.4,0,0,0,17.55,2,.37.37,0,0,0,16.9,1.59Z" transform="translate(0 -0.3)"/>
    <path class="cls-1" d="M19.05,1.15c-2.34,4.36-5.14,8.43-7.6,12.71-.24.42.39.93.7.52a84.59,84.59,0,0,0,7.68-12.8A.45.45,0,0,0,19.05,1.15Z" transform="translate(0 -0.3)"/>
    <path class="cls-1" d="M24,1.14c-2,4-4.4,7.75-6.65,11.61-.34.58.53,1,.89.5A87.25,87.25,0,0,0,24.75,1.58C25,1.06,24.23.63,24,1.14Z" transform="translate(0 -0.3)"/>
    <path class="cls-1" d="M26.49,1c-2.11,4-4.62,7.81-6.71,11.83-.31.58.5,1,.86.48A84.65,84.65,0,0,0,27.26,1.37.44.44,0,0,0,26.49,1Z" transform="translate(0 -0.3)"/>
    <path class="cls-1" d="M28.69,1.14c-1,2-2,4-3.18,6A56.91,56.91,0,0,0,22,12.9a.41.41,0,0,0,.66.48c3-3.08,5-7.92,6.77-11.81C29.7,1.05,28.94.63,28.69,1.14Z" transform="translate(0 -0.3)"/>
    <path class="cls-1" d="M31.06,1.67c-1.7,3.35-4,6.46-5.58,9.84-.19.41.35.88.67.49,2.4-2.82,4-6.61,5.64-9.93C32,1.59,31.3,1.19,31.06,1.67Z" transform="translate(0 -0.3)"/>
    <path class="cls-1" d="M31.67,4.54c-.6,1.3-1.24,2.58-1.93,3.83s-1.58,2.41-2.17,3.69c-.18.41.33.86.66.49,1.86-2.09,3.08-5,4.21-7.58C32.67,4.46,31.91,4,31.67,4.54Z" transform="translate(0 -0.3)"/>
    <path class="cls-1" d="M31.61,9.19c-.4.73-.81,1.45-1.24,2.16a7.83,7.83,0,0,0-1.11,2c-.07.29.29.61.56.4A5.87,5.87,0,0,0,31.14,12c.45-.76.88-1.53,1.28-2.31A.46.46,0,0,0,31.61,9.19Z" transform="translate(0 -0.3)"/>
    <path class="cls-3" d="M15.35,36.29a4.51,4.51,0,0,0-1.58-3.69c-1.24-.92-3.36-1-4-2.59,1.32-1.23,1.8-3.69,2-5.26a5.69,5.69,0,0,0-.46-4.1A2.69,2.69,0,0,0,9,19.43c-1.37-.14-3.25-.24-4.36.74a4.6,4.6,0,0,0-1.15,3.67c.09,1.91.57,4.67,2.15,6.06a.42.42,0,0,0,0,.2c.08,1.41-1.85,1.53-2.81,2A5.63,5.63,0,0,0,1.16,33.2,4.15,4.15,0,0,0,.09,37c.25,1.36.65,2,2.07,2.13,2.07.14,4.17.09,6.24.13,1.81,0,3.88.31,5.63-.26,1.33-.43,1.37-1.49,1.32-2.74Zm4.4-27a94.72,94.72,0,0,0-10,.14.51.51,0,0,0,0,1c3.32,0,6.64-.26,10-.26a.45.45,0,0,0,0-.89ZM20.11,6a78.71,78.71,0,0,0-10.75.73c-.6.09-.61,1,0,1,3.59-.38,7.13-.81,10.74-.9a.4.4,0,0,0,0-.8Zm12.7-1a36.34,36.34,0,0,1,.26,5.8A1.69,1.69,0,0,1,32.49,12a3.21,3.21,0,0,1-1.12.11s1,1.71,1,1.92a4.56,4.56,0,0,1,.11,2,.54.54,0,0,1-1,.15,6.49,6.49,0,0,0-7-3.32c-.57,1.65-2.32,1.39-3.83,1.31-4.42-.2-9.37-.13-12.63,3.34a.1.1,0,0,0-.05,0c-.38.42-1.23.13-1-.48l.71-1.87c.25-.68.22-.56-.28-.85a2.82,2.82,0,0,1-1.26-1.75,20.65,20.65,0,0,1-.35-7.1C6,3.74,7.26,3.2,8.91,3.38a52.86,52.86,0,0,0,5.32.3.42.42,0,0,1-.12-.23c-.2-1.19-.07-2.27,1.2-2.71C16.92.18,19.07.41,20.75.35,22.88.28,25,.27,27.12.38c1,.06,2,.14,3,.25a4,4,0,0,1,1.77.43c1.15.76.81,2.77.87,4ZM22.14,13.19a32.93,32.93,0,0,1-3.84-.13c-3.28,0-6.68.51-9.33,2.41a1.47,1.47,0,0,0-.63-2C7.05,12.78,7.12,11.26,7,10,7,8.79,6.93,7.63,7,6.48c0-1,.09-2,1.33-2,.64,0,1.32.17,2,.22,1.15.1,2.3.11,3.46.12a51.72,51.72,0,0,0,7.47-.24,3.42,3.42,0,0,1,1.42-.07c.85.29.7.87.75,1.54.11,1.37.16,2.74.24,4.12s.41,2.8-1.46,3ZM32,10.4c-.14.8-.31.53-1,.66a1.1,1.1,0,0,0-.78,1.31,2.64,2.64,0,0,0,.54.93,4,4,0,0,1,.39.74,7.66,7.66,0,0,0-6.49-2.26c0-.56-.05-1.12-.08-1.66l-.21-3.86c-.08-1.4-.23-2.67-1.87-2.84a13,13,0,0,0-2.41.18c-1.25.11-2.51.11-3.77.1h-1.5a.39.39,0,0,0,.18-.39c-.2-1.33.6-1.65,1.63-1.71.76-.05,1.53-.09,2.29-.12,1.53-.07,3.06-.12,4.59-.13s3.06,0,4.58.15a9.68,9.68,0,0,1,2.7.27c.85.37.79,1.23.82,2.06.08,1.46.15,2.93.23,4.39A11.57,11.57,0,0,1,32,10.4ZM40,36.5A5.31,5.31,0,0,0,38.36,33a3.56,3.56,0,0,0-1.7-.85c-.92-.2-3.57.08-3.31-1.53a1.08,1.08,0,0,0,0-.18c1.75-1.47,2.35-4.92,2.41-6.79.11-3.43-2.65-4.75-5.77-4.25l-.1,0c-2.81.09-2.78,4.13-2.51,6.23a8.49,8.49,0,0,0,2,4.53.48.48,0,0,0,0,.29c.51,1.55-2.23,1.43-3,1.72a3.64,3.64,0,0,0-1.4.92A4.57,4.57,0,0,0,24,37c.28,1.51.72,2.27,2.28,2.27,2.15,0,4.27-.42,6.43-.36,1.06,0,2.1.11,3.15.19a8.25,8.25,0,0,0,2.62.08c1.27-.32,1.6-1.52,1.51-2.69ZM29.8,20.26a.43.43,0,0,0,.35.13c2.49-.25,4.67.33,4.56,3.24A9.81,9.81,0,0,1,33,29.05c-1.78,2.36-3.93-.67-4.41-2.45-.37-1.38-1-6.06,1.19-6.34Zm7.86,18a10.42,10.42,0,0,1-2.6-.21c-.89-.07-1.77-.13-2.66-.15a49.52,49.52,0,0,0-5,.29,4.65,4.65,0,0,1-1.18.06c-.7-.12-.9-.34-1.14-1.06a3.74,3.74,0,0,1,.29-2.91c1-1.65,2.68-1,4.06-1.86a2,2,0,0,0,1-1.52,2.62,2.62,0,0,0,1.72.15l.08,0a2.18,2.18,0,0,0,1.13,1.58c1.31.76,3,.12,4.2,1.07a3.77,3.77,0,0,1,1.25,2.11c.27,1.11.21,2.18-1.15,2.47ZM4.47,23.6c0-1.14.18-2.44,1.29-3a5,5,0,0,1,2.39-.38.52.52,0,0,0,.55.26c2.92-.55,2.21,3.83,1.84,5.39-.41,1.79-1.46,5-3.92,3.45C5,28.3,4.5,25.37,4.47,23.6Zm8,14.7a39.41,39.41,0,0,1-4.86,0c-1.67,0-3.33-.07-5-.13a2.74,2.74,0,0,1-.95-.06c-.45-.26-.58-1.24-.61-1.64a3,3,0,0,1,.74-2.35c1.24-1.37,4.7-1.41,4.81-3.56a3.45,3.45,0,0,0,.81.22A2.81,2.81,0,0,0,9,30.54c1,2.11,4.22,1.8,5.1,4a5.67,5.67,0,0,1,.3,2.13C14.38,38,13.67,38.19,12.49,38.3Z" transform="translate(0 -0.3)"/>
  </g>
</svg>
