<svg id="레이어_1" data-name="레이어 1" xmlns="http://www.w3.org/2000/svg" viewBox="0 0 40 40">
  <defs>
    <style>
      .cls-1 {
        stroke: #000;
        stroke-miterlimit: 10;
        stroke-width: 0.75px;
      }
    </style>
  </defs>
  <title>1</title>
  <path d="M20,40A20,20,0,1,1,40,20,20,20,0,0,1,20,40ZM20,3.66A16.34,16.34,0,1,0,36.34,20,16.36,16.36,0,0,0,20,3.66Z"/>
  <path class="cls-1" d="M11.72,23.25l-.25-9.16h3l.22,9.16h2.26l1.07,0,.12-9.12h3L21,23a28.35,28.35,0,0,0,3-.52V25a19.68,19.68,0,0,1-3.88.67q-2.13.18-4.2.18H9.26V23.25ZM9.53,13.34V10.81H23.34v2.53Zm21.81,6.24h-3.4V31.92H24.86V8.9h3.08v8h3.4Z"/>
</svg>
