<svg id="레이어_1" data-name="레이어 1" xmlns="http://www.w3.org/2000/svg" viewBox="0 0 26.65 40">
  <defs>
    <style>
      .cls-1 {
        fill: #1e1e29;
      }

      .cls-2 {
        fill: #e8e8e8;
      }

      .cls-3 {
        fill: #379bdb;
      }

      .cls-4 {
        fill: #313142;
      }

      .cls-5 {
        opacity: 0.1;
      }

      .cls-6 {
        fill: #f5f5f5;
      }

      .cls-7 {
        fill: #ed9d6c;
      }

      .cls-8 {
        fill: #4f2c1e;
      }

      .cls-9 {
        fill: #ffb97f;
      }

      .cls-10 {
        fill: #bf3c1b;
        opacity: 0.3;
      }

      .cls-11, .cls-13 {
        fill: #b54319;
      }

      .cls-11 {
        opacity: 0.35;
      }

      .cls-12 {
        fill: #693a27;
      }

      .cls-13 {
        opacity: 0.5;
      }

      .cls-14 {
        fill: #121b21;
      }

      .cls-15 {
        fill: #ffcb9e;
      }

      .cls-16 {
        fill: #7d8ba8;
      }

      .cls-17 {
        fill: #8f2724;
      }

      .cls-18 {
        fill: #fff9f0;
      }

      .cls-19 {
        fill: #e8dac5;
      }
    </style>
  </defs>
  <title>1</title>
  <g>
    <path class="cls-1" d="M8.88,40H14.2l.7-8.84C10.24,32.53,9.28,33.06,8.88,40Z" transform="translate(-6.68)"/>
    <path class="cls-1" d="M27.31,31.16,28,40h5.31C32.93,33.06,32,32.53,27.31,31.16Z" transform="translate(-6.68)"/>
    <path class="cls-2" d="M26.94,31.82c-1.47-3.59-9.3-2.54-11.36-.8s-2.64,3.84.46,6.9A18.69,18.69,0,0,0,18.54,40h4.1C24.55,37.92,27.81,34,26.94,31.82Z" transform="translate(-6.68)"/>
    <path class="cls-3" d="M22.78,34.51a1.78,1.78,0,0,0-2-.92A1.89,1.89,0,0,0,19.18,35l1.12,1.14L19.17,40h4.44l-1.5-4.06Z" transform="translate(-6.68)"/>
    <g>
      <path class="cls-1" d="M15.52,31.38a3.41,3.41,0,0,1,.37-.71c-1.64.71-3.22,1.79-3.64,3.31-.37,1.33.28,3.82.72,6h7.77C19,38.34,14.56,33.86,15.52,31.38Z" transform="translate(-6.68)"/>
      <path class="cls-1" d="M28.34,32a5.74,5.74,0,0,0-1.75-1.23,1.38,1.38,0,0,1,.11.69C26.37,35,23.37,38.58,22.06,40h6.43a2.7,2.7,0,0,0,0-.28C29.06,36.88,30.54,34.31,28.34,32Z" transform="translate(-6.68)"/>
    </g>
    <path class="cls-4" d="M28.29,37.22A17.17,17.17,0,0,0,26.92,35l2.4-1.35A10.3,10.3,0,0,0,26,30.16c.5,4.61-2.64,8.38-3.93,9.84h1.22c.39-.28.82-.58,1.28-.85C26.3,38.13,28.33,37.4,28.29,37.22Z" transform="translate(-6.68)"/>
    <path class="cls-4" d="M16,30.59a7.3,7.3,0,0,0-3.35,3.51l2.86,1.08a24.44,24.44,0,0,0-1.27,2.74c0,.24,2.14.16,4.82,1.55a7.17,7.17,0,0,1,.87.53h.91C19.45,38.76,16,35.56,16,30.59Z" transform="translate(-6.68)"/>
    <path class="cls-5" d="M23.67,31.56c-1.61-.85-8.14-1.06-7.41,1.28a6.85,6.85,0,0,0,2.65,3.52l2.18-2.09,2.32,2a10,10,0,0,0,2.84-3.92A5.37,5.37,0,0,1,23.67,31.56Z" transform="translate(-6.68)"/>
    <path class="cls-6" d="M15.9,30.7c-1.08,2.78,2.85,5,2.85,5l2.34-1.47,2.19,1.38s4.33-2.26,2.69-5.49C24.5,27.25,17.15,27.48,15.9,30.7Z" transform="translate(-6.68)"/>
    <path class="cls-7" d="M19.38,26.82a3.27,3.27,0,0,0-2.42,3,2.52,2.52,0,0,0,.69,2.27,4.59,4.59,0,0,0,1.84,1.07c.52.16,1.42.77,1.58.77s.36-.26.85-.51A4.72,4.72,0,0,0,24,31.81c.57-1.12,1.08-3.36,0-4.23A6.25,6.25,0,0,0,19.38,26.82Z" transform="translate(-6.68)"/>
    <g>
      <g>
        <path class="cls-8" d="M30.15,8.91c.21-6-4.93-10-13.29-8.59C2.26,2.74,6.46,23,10.57,21.78c3-.92,6-2.06,9-3.09,2.79-1,6-.68,9-.73,2.3,0,2.19-1,2.14-2.89C30.6,11.58,30.1,10.33,30.15,8.91Z" transform="translate(-6.68)"/>
        <path class="cls-9" d="M17.74,4.63c-5.31,1.52-8.46,9.65-6.84,16.88,1.2,5.42,5.92,11.08,12.22,10.08s9-9.35,7.55-16C29.15,8.32,25.17,2.51,17.74,4.63Z" transform="translate(-6.68)"/>
        <path class="cls-9" d="M8.75,18.63c-2.59,1-1.19,4.76,1,5.35A5.25,5.25,0,0,0,12,24,.43.43,0,0,0,12,24c.27-.53-.51-3.07-.72-3.59C10.75,19.06,10,18.17,8.75,18.63Z" transform="translate(-6.68)"/>
        <path class="cls-10" d="M27.15,6a17.35,17.35,0,0,0-9-1.28c-2.16.15-5.39.29-7,2C9.9,8.14,10,10.53,10.07,12.29c0,.67.47,5.76.76,4.63.53-2.06,2.08-3,1.85-5.06,3.24,1.13,7.91.6,11.94-.16,2.54-.48,4.54-1.3,5.23.79C29.41,10.91,27.6,6.21,27.15,6Z" transform="translate(-6.68)"/>
        <path class="cls-11" d="M9.81,20c-.62-.22-2.07.4-1.27,1.51.28-1.12,1-.46,1,.32,0,.52-.58.58,0,1.19.33.34.92.15,1.2-.07C11.65,22.24,10.56,20.25,9.81,20Z" transform="translate(-6.68)"/>
        <path class="cls-8" d="M32.06.42c-3.21,3.09-9.36-2.54-17,.53C4.59,5.16,9.62,16.21,9.8,17.59a6.84,6.84,0,0,0,1.37,3,2.51,2.51,0,0,0,1.45-.12c-1-.82-1.64-3.24-1.07-5.61.33-1.32.88-2.28.59-4,1,.78,7.88,1.46,16.16-1.08a8.13,8.13,0,0,0,4.9-4,17.84,17.84,0,0,0-2.05.42C32.27,4.82,32.2,2.27,32.06.42Z" transform="translate(-6.68)"/>
        <path class="cls-12" d="M23.15.93C19.2.19,13.31.62,10.57,4.05S10.68,10,21,8.94c9.37-1,10.73-7.79,10.73-7.79C29,2.73,27.1,1.67,23.15.93Z" transform="translate(-6.68)"/>
        <path class="cls-8" d="M9.34,18.51c.93,0,1.22,1.78,1.93,2.19a2.37,2.37,0,0,0,1.35-.19c-.79-1-1.19-3.58-1.27-4.31C10.94,17.34,8.48,18.53,9.34,18.51Z" transform="translate(-6.68)"/>
      </g>
      <g>
        <path class="cls-13" d="M14.52,18.39c.07.43,1,.13,1.35.17-.24.3-1,.37-1.31.58s-.28.36.12.31a7.06,7.06,0,0,0,1.72-.63C17.08,18.13,14.85,18.26,14.52,18.39Z" transform="translate(-6.68)"/>
        <path class="cls-13" d="M29.84,17.36c-.26-.16-.91-.12-1.13-.37.25-.09,1.09.06,1.12-.38-.29-.07-2.15.13-1.55.71a4.88,4.88,0,0,0,1.48.37C30.09,17.67,30.13,17.54,29.84,17.36Z" transform="translate(-6.68)"/>
        <path class="cls-14" d="M17,16.26c-1.45-.48-2.11,2.07-1.09,2.8a2,2,0,0,1,1.38,0A1.71,1.71,0,0,0,17,16.26Z" transform="translate(-6.68)"/>
        <path class="cls-11" d="M23,19.84c-.69.09-1-.16-1.46.15s.33,1.27,1.56,1.09,1.69-1.2,1.39-1.44S23.81,19.75,23,19.84Z" transform="translate(-6.68)"/>
        <path class="cls-15" d="M22.24,15.92c-.6.09-.57,1.75-.71,2.55s-.21,1.55.13,1.75a3,3,0,0,0,2.88-.49c.17-.18-.35-.95-.78-1.72S22.92,15.82,22.24,15.92Z" transform="translate(-6.68)"/>
        <path class="cls-14" d="M28.2,15.19c-1.49-.64-2.34,2.5-.73,2.74a1.79,1.79,0,0,1,1.18-.46A1.62,1.62,0,0,0,28.2,15.19Z" transform="translate(-6.68)"/>
        <path class="cls-16" d="M16.65,16.65c-.55.24,0,1.31.49.86S17.13,16.43,16.65,16.65Z" transform="translate(-6.68)"/>
        <path class="cls-16" d="M27.88,15.61c-.53.19-.12,1.22.39.84S28.34,15.45,27.88,15.61Z" transform="translate(-6.68)"/>
        <path class="cls-13" d="M27.77,21.61c-.24.07.22.12.82.22a.33.33,0,0,1,.24.13C26.08,23.06,20,24,16.1,23l.1-.09c.53-.37,1.34-.44,1.1-.54a4.76,4.76,0,0,0-1.86.4c-.46.33-.38,1.27,0,1.29s.29-.5.52-.88c.34,1,2,5,6.59,4.74,3.46-.17,4.47-1.37,4.5-3.07,0-.95,1.12-2.19,1.83-2.79.08.28-.11.71.17.72s.72-.6.43-1.08S27.77,21.61,27.77,21.61Z" transform="translate(-6.68)"/>
        <path class="cls-8" d="M27.09,12.76c-1,0-1.82-.13-1.82-.1,0,.6.21,1.82,1,1.75.47,0,1-.17,1.42-.17a5.06,5.06,0,0,1,1.74.31c.36.13.45-.4.31-.54A3.3,3.3,0,0,0,27.09,12.76Z" transform="translate(-6.68)"/>
        <path class="cls-8" d="M16.55,13.74a3.49,3.49,0,0,0-2.38,2c-.09.18.18.65.51.43a5.72,5.72,0,0,1,1.72-.81c.49-.14,1-.16,1.54-.26.85-.17.69-1.4.48-2C18.4,13.07,17.63,13.4,16.55,13.74Z" transform="translate(-6.68)"/>
        <path class="cls-17" d="M16.86,23.66s1.76,4.12,5.85,3.72c3.69-.36,4-1.82,4.13-2.84a2.66,2.66,0,0,1,1.09-1.95A22.33,22.33,0,0,1,16.86,23.66Z" transform="translate(-6.68)"/>
        <path class="cls-18" d="M19.67,25.81A8.18,8.18,0,0,0,25,25.7c1.22-.43,1.81-2.54,1.81-2.54a35.72,35.72,0,0,1-8.54.85A2.21,2.21,0,0,0,19.67,25.81Z" transform="translate(-6.68)"/>
        <path class="cls-18" d="M23.52,25.8a11.62,11.62,0,0,1-4.12-.28c-.7-.24-.68.15-.53.49,0,0,.32,1.39,3.53,1.43,2.81,0,3.91-1.82,3.57-2.17S25.27,25.66,23.52,25.8Z" transform="translate(-6.68)"/>
        <path class="cls-15" d="M30.09,18.84a2.45,2.45,0,0,0-2.1-.3c-.83.18-1.87.73-.87,1.75.54.55,3.95.28,3.23-1.1A1.33,1.33,0,0,0,30.09,18.84Z" transform="translate(-6.68)"/>
        <path class="cls-15" d="M17.59,20a2.57,2.57,0,0,0-2.21-.24c-.87.22-1.93.82-.85,1.86.58.56,4.15.16,3.36-1.26A1.31,1.31,0,0,0,17.59,20Z" transform="translate(-6.68)"/>
        <path class="cls-19" d="M18.23,24a2.12,2.12,0,0,0,.17.59s6.59-1.08,8.1-.64a3.26,3.26,0,0,0,.28-.78A41.55,41.55,0,0,1,18.23,24Z" transform="translate(-6.68)"/>
        <path class="cls-19" d="M19.77,25.51a7.84,7.84,0,0,0,5.81-.28A12.09,12.09,0,0,1,19.77,25.51Z" transform="translate(-6.68)"/>
      </g>
    </g>
  </g>
</svg>
