<svg id="레이어_1" data-name="레이어 1" xmlns="http://www.w3.org/2000/svg" viewBox="0 0 40 40">
  <defs>
    <style>
      .cls-1 {
        stroke: #000;
        stroke-miterlimit: 10;
        stroke-width: 0.75px;
      }
    </style>
  </defs>
  <title>1</title>
  <path d="M20,40A20,20,0,1,1,40,20,20,20,0,0,1,20,40ZM20,3.66A16.34,16.34,0,1,0,36.34,20,16.36,16.36,0,0,0,20,3.66Z"/>
  <path class="cls-1" d="M13.25,24H15a31,31,0,0,0,4.29-.28c1.35-.19,2.65-.43,3.88-.71v2.53c-.56.15-1.19.28-1.89.41s-1.44.23-2.2.32-1.56.16-2.38.22-1.62.09-2.42.09H10.15V17.16h7.13V13.32H10.13v-2.6H20.4v9H13.25Zm17.48-3.86H27.14V31.89H24.07v-23h3.07v8.62h3.59Z"/>
</svg>
