<svg id="레이어_1" data-name="레이어 1" xmlns="http://www.w3.org/2000/svg" viewBox="0 0 27.61 40">
  <defs>
    <style>
      .cls-1 {
        fill: #aedff4;
      }

      .cls-1, .cls-2 {
        fill-rule: evenodd;
      }
    </style>
  </defs>
  <title>1</title>
  <g>
    <path class="cls-1" d="M33,26.21A13,13,0,0,1,20.22,39.4,13,13,0,0,1,7.41,26.21c0-7.29,12.81-25.16,12.81-25.16S33,18.92,33,26.21Z" transform="translate(-6.19 0)"/>
    <path class="cls-1" d="M21,2.43c-1,1-1.89,1.95-2.79,3a18.69,18.69,0,0,0-2.42,3c-.41.72.57,1.38,1.15.84a34.93,34.93,0,0,0,2.45-3c.83-1,1.69-1.95,2.56-2.89A.66.66,0,0,0,21,2.43Z" transform="translate(-6.19 0)"/>
    <path class="cls-1" d="M22.44,4.63q-3.39,3.5-6.77,7c-2,2.09-4.44,4.11-6,6.55-.41.64.47,1.51,1.09,1,2.33-1.76,4.17-4.3,6.12-6.47l6.5-7.25C23.86,4.89,23,4.05,22.44,4.63Z" transform="translate(-6.19 0)"/>
    <path class="cls-1" d="M24.16,7.68C21.22,10.84,18.26,14,15.23,17c-2.69,2.72-6.05,5.28-8.14,8.49-.41.62.43,1.36,1,1,3.2-2.09,5.72-5.53,8.3-8.34q4.38-4.75,8.65-9.62C25.59,7.94,24.71,7.09,24.16,7.68Z" transform="translate(-6.19 0)"/>
    <path class="cls-1" d="M26.35,10.05c-6,6.55-12.86,12.89-18.19,20a.66.66,0,0,0,1,.91c6.56-6,12.17-13.45,18.06-20.13C27.68,10.3,26.86,9.51,26.35,10.05Z" transform="translate(-6.19 0)"/>
    <path class="cls-1" d="M28,13.76C21.88,20.23,15.21,26.58,9.83,33.64a.72.72,0,0,0,1,1c6.38-6.2,12-13.43,18-20C29.36,14,28.49,13.19,28,13.76Z" transform="translate(-6.19 0)"/>
    <path class="cls-1" d="M29.86,16.62C24.16,23.3,18.18,29.68,12.09,36c-.7.73.44,1.82,1.16,1.09,6.15-6.24,11.91-12.88,17.47-19.66C31.2,16.85,30.36,16,29.86,16.62Z" transform="translate(-6.19 0)"/>
    <path class="cls-1" d="M31.45,19.56c-5.08,6-10.75,11.57-15.79,17.63a.71.71,0,0,0,1,1c5.77-5.26,10.7-11.76,15.52-17.88C32.63,19.76,31.89,19,31.45,19.56Z" transform="translate(-6.19 0)"/>
    <path class="cls-1" d="M32.32,23c-3.85,5.32-8.1,10.22-12.44,15.13-.67.76.44,1.83,1.14,1.09A135.77,135.77,0,0,0,33.38,23.61C33.82,23,32.77,22.4,32.32,23Z" transform="translate(-6.19 0)"/>
    <path class="cls-1" d="M32.51,27.41c-1.31,1.84-2.67,3.64-4.06,5.42A37,37,0,0,0,25,37.31c-.35.62.46,1.13,1,.7a31.71,31.71,0,0,0,4.08-5.13c1.18-1.61,2.33-3.25,3.46-4.9C34,27.35,32.94,26.81,32.51,27.41Z" transform="translate(-6.19 0)"/>
    <path class="cls-2" d="M33,20.37a39.59,39.59,0,0,0-5-9.32C25.67,7.55,23.38,4,21.25.4A.88.88,0,0,0,20.07.11a6.3,6.3,0,0,0-2.64,3.05c-1,2-2,4.05-3.14,6l-.64,1.16c-1.37,2.13-2.73,4.25-4,6.42a22.21,22.21,0,0,0-3.36,8.59,13.43,13.43,0,0,0,7.56,13.4,14.34,14.34,0,0,0,15-2.17A15,15,0,0,0,33,20.37ZM30.35,32.16a12.6,12.6,0,0,1-13.81,5.75A11.84,11.84,0,0,1,7.82,26.24,15.56,15.56,0,0,1,9.6,20.07c2-2.83,3.73-5.84,5.48-8.79,1-1.65,1.83-3.36,2.71-5,.7-1.32,1.3-3.12,2.47-4.16,2.78,4.61,5.94,9,8.65,13.65C31.87,20.81,33.54,26.73,30.35,32.16Z" transform="translate(-6.19 0)"/>
  </g>
</svg>
