<svg id="레이어_1" data-name="레이어 1" xmlns="http://www.w3.org/2000/svg" viewBox="0 0 40 21.05">
  <defs>
    <style>
      .cls-1 {
        fill: #576d64;
      }

      .cls-1, .cls-2 {
        fill-rule: evenodd;
      }
    </style>
  </defs>
  <title>1</title>
  <g>
    <polygon class="cls-1" points="26 20.2 39.66 11.1 26.37 1.48 26.61 6.74 1.42 6.85 1.13 14.58 25.54 15.1 26.88 15.1 26 20.2"/>
    <path class="cls-1" d="M3.4,16.1c-.51.76-1,1.51-1.61,2.23A14.38,14.38,0,0,0,.32,20.18c-.19.34.23.79.57.54a9.32,9.32,0,0,0,1.75-2c.53-.72,1-1.45,1.52-2.2C4.47,16.05,3.71,15.64,3.4,16.1Z" transform="translate(0 -9.48)"/>
    <path class="cls-1" d="M10.72,16a71.23,71.23,0,0,1-5.27,7.39c-.43.54.33,1.27.77.74a55.49,55.49,0,0,0,5.29-7.69C11.81,15.91,11,15.49,10.72,16Z" transform="translate(0 -9.48)"/>
    <path class="cls-1" d="M14.77,15.74a77.05,77.05,0,0,0-4.7,7.5c-.22.45.39,1,.73.54a77.09,77.09,0,0,0,4.78-7.6C15.89,15.68,15.09,15.24,14.77,15.74Z" transform="translate(0 -9.48)"/>
    <path class="cls-1" d="M18.71,15.65a74.58,74.58,0,0,0-4.92,7.8c-.23.48.42,1,.79.58a74.13,74.13,0,0,0,4.93-7.94C19.82,15.59,19,15.16,18.71,15.65Z" transform="translate(0 -9.48)"/>
    <path class="cls-1" d="M22.06,16.32l-5,7.62c-.35.55.54,1,.89.5l4.85-7.71C23.08,16.26,22.35,15.87,22.06,16.32Z" transform="translate(0 -9.48)"/>
    <path class="cls-1" d="M27.48,12.36l-.75,1.45a7.2,7.2,0,0,0-.67,1.4c-.11.41.47.76.75.41a16,16,0,0,0,1.48-2.81C28.56,12.28,27.76,11.83,27.48,12.36Z" transform="translate(0 -9.48)"/>
    <path class="cls-1" d="M30.31,14.13c-1.88,3.23-3.86,6.44-5.6,9.74a.5.5,0,0,0,.88.49c1.94-3.19,3.68-6.54,5.5-9.8A.45.45,0,0,0,30.31,14.13Z" transform="translate(0 -9.48)"/>
    <path class="cls-1" d="M32.82,16.39a112.41,112.41,0,0,0-6.24,11.85c-.26.61.63,1.12.92.5,1.89-4.06,3.83-8,6.06-11.94C33.84,16.32,33.1,15.92,32.82,16.39Z" transform="translate(0 -9.48)"/>
    <path class="cls-1" d="M35.48,18c-.52,1.16-1.09,2.29-1.71,3.4s-1.43,2.12-1.94,3.26a.43.43,0,0,0,.69.51c1.74-1.75,2.8-4.5,3.68-6.77C36.4,17.9,35.7,17.49,35.48,18Z" transform="translate(0 -9.48)"/>
    <path class="cls-2" d="M26,30.4c4.57-3.14,9.12-6.31,13.67-9.47a.76.76,0,0,0,0-1.3,94.53,94.53,0,0,1-13.32-10,.73.73,0,0,0-1.22.53,32.73,32.73,0,0,0,.71,5.15c-8.21,0-16.43-.07-24.64-.06A.67.67,0,0,0,.5,16C.41,17.57.31,19.17.22,20.78c0,.89-.51,2.51.07,3.32.42.59,1.21.5,1.84.51,1.63,0,3.27,0,4.89,0l18.64.12c-.26,1.6-.53,3.2-.81,4.79-.11.61.55,1.24,1.13.84ZM1.8,23.34c-.66-.27-.42-.6-.37-1.39l.12-1.81.24-3.52c8.3.07,16.59.08,24.89.12a.7.7,0,0,0,.65-.9,30.9,30.9,0,0,1-.68-3.94A94.89,94.89,0,0,0,37.9,20.31Q32.26,24.2,26.63,28.1c.21-1.27.42-2.53.64-3.8A.79.79,0,0,0,26,23.58h0l-16.2-.16-4,0-1.83,0A7,7,0,0,1,1.8,23.34Z" transform="translate(0 -9.48)"/>
  </g>
</svg>
