<svg id="레이어_1" data-name="레이어 1" xmlns="http://www.w3.org/2000/svg" viewBox="0 0 38.82 40">
  <defs>
    <style>
      .cls-1 {
        fill: #e3ca95;
      }

      .cls-1, .cls-2, .cls-3 {
        fill-rule: evenodd;
      }

      .cls-2 {
        fill: #fff;
      }
    </style>
  </defs>
  <title>1</title>
  <g>
    <polygon class="cls-1" points="22.54 10.55 18.85 9.08 14.42 9.55 11.2 11.84 9.38 16.77 9.38 23.25 12.39 28.64 15.86 30.06 20.49 29.81 23.77 28 23.98 27.75 27.34 29.81 33.08 29.7 36.24 27.32 37.95 21.96 37.95 15.34 37.2 10.55 34.85 5.09 30.24 1.77 23.66 0.79 10.5 1.53 4.76 4.21 2.44 8.25 1.13 15 0.8 24.53 2.05 32.95 6.36 37.52 12.05 39.04 20.92 39.26 28.06 38.33 32.75 36.15 33.93 34.29 29.69 32.37 25.82 33.88 16.49 34.6 9.88 32.97 5.78 28.75 4.76 22.22 5.92 13.25 7.83 7.61 13.6 5.43 23.98 5.52 29.41 7.19 33.08 11.84 33.35 18.31 33.2 22.86 31.73 25.2 29.29 24.02 28.65 9.55 24.44 9.08 22.82 9.76 22.54 10.55"/>
    <polygon class="cls-2" points="17.8 13.97 15.51 15.97 14.42 21.7 16.49 24.77 19.93 25.62 22.82 22.65 23.27 17.7 21.88 15.23 19.47 14.16 17.8 13.97"/>
    <path class="cls-1" d="M8.35,2.64,4.68,7.28a30.91,30.91,0,0,0-3.22,4.28.53.53,0,0,0,.84.62A31.79,31.79,0,0,0,5.79,7.85L9.18,3.44C9.64,2.86,8.81,2.05,8.35,2.64Z" transform="translate(-0.59)"/>
    <path class="cls-1" d="M13.46,1C9.25,6,5,10.91,1.11,16.14c-.47.66.41,1.55.93.9,4.07-5.1,7.93-10.35,12-15.41.35-.43-.26-1-.62-.59Z" transform="translate(-0.59)"/>
    <path class="cls-1" d="M16,1.49c-.4.61-.8,1.23-1.21,1.83S13.89,4.37,13.86,5a.48.48,0,0,0,.6.43c.63-.25.93-.92,1.29-1.47s.84-1.3,1.24-2S16.39.88,16,1.49Z" transform="translate(-0.59)"/>
    <path class="cls-1" d="M19.81,1.25c-.38.63-.77,1.26-1.18,1.87A7.52,7.52,0,0,0,17.56,4.9a.48.48,0,0,0,.72.52,6,6,0,0,0,1.28-1.63c.43-.66.84-1.32,1.24-2S20.19.63,19.81,1.25Z" transform="translate(-0.59)"/>
    <path class="cls-1" d="M24.05,1c-.52.7-1,1.4-1.53,2.11A7.25,7.25,0,0,0,21.2,5.32c-.08.38.37.79.73.53A6.66,6.66,0,0,0,23.3,4.07c.53-.77,1.06-1.51,1.6-2.26S24.51.39,24.05,1Z" transform="translate(-0.59)"/>
    <path class="cls-1" d="M27.66,1.71a34.51,34.51,0,0,0-2.42,3c-.43.6.58,1.15,1,.56a35.23,35.23,0,0,1,2.23-2.78C29,2,28.14,1.17,27.66,1.71Z" transform="translate(-0.59)"/>
    <path class="cls-1" d="M31.22,2.27,29.75,3.93a11,11,0,0,0-1.34,1.62c-.25.42.31,1,.73.69a10.89,10.89,0,0,0,1.45-1.51l1.47-1.66C32.56,2.52,31.72,1.71,31.22,2.27Z" transform="translate(-0.59)"/>
    <path class="cls-1" d="M33.53,4.35c-.45.59-.93,1.16-1.43,1.72a5.78,5.78,0,0,0-1.26,1.58.48.48,0,0,0,.6.58A4.34,4.34,0,0,0,33,6.89c.5-.56,1-1.14,1.42-1.73S34,3.75,33.53,4.35Z" transform="translate(-0.59)"/>
    <path class="cls-1" d="M35.84,6.43c-.6.71-1.22,1.42-1.82,2.12a7.44,7.44,0,0,0-1.48,2c-.15.42.39.71.72.52A7.29,7.29,0,0,0,35,9.25l1.72-2C37.17,6.67,36.33,5.86,35.84,6.43Z" transform="translate(-0.59)"/>
    <path class="cls-1" d="M36.72,9.36c-.48.7-1,1.38-1.53,2.05a20.83,20.83,0,0,0-1.45,1.78c-.26.42.31,1,.72.69a16.21,16.21,0,0,0,3.23-4C38.09,9.3,37.12,8.77,36.72,9.36Z" transform="translate(-0.59)"/>
    <path class="cls-1" d="M37.63,12.83l-1.91,2.52A18.21,18.21,0,0,0,34,17.73a.53.53,0,0,0,.85.62A18.21,18.21,0,0,0,36.66,16c.59-.8,1.18-1.59,1.76-2.39C38.84,13,38.05,12.26,37.63,12.83Z" transform="translate(-0.59)"/>
    <path class="cls-1" d="M38.16,17a119,119,0,0,1-9.33,11.65c-.6.7.51,1.38.93.82a59.86,59.86,0,0,0,9.32-12C39.44,17,38.53,16.46,38.16,17Z" transform="translate(-0.59)"/>
    <path class="cls-1" d="M38.37,21.33c-1,1.29-2.07,2.57-3.16,3.82a28.27,28.27,0,0,0-2.93,3.45c-.24.4.29.95.69.66a19.87,19.87,0,0,0,3-3.37c1-1.28,2.06-2.58,3-3.91C39.41,21.5,38.75,20.85,38.37,21.33Z" transform="translate(-0.59)"/>
    <path class="cls-1" d="M29.08,23.25l-1.79,2.32a6,6,0,0,0-1.4,2.1.47.47,0,0,0,.69.52c.72-.39,1.17-1.31,1.65-2L29.88,24C30.3,23.46,29.52,22.68,29.08,23.25Z" transform="translate(-0.59)"/>
    <path class="cls-1" d="M28.93,19c-2.59,3.23-5.42,6.37-7.76,9.8-.37.54.5,1.17.94.68,2.72-3.06,5.05-6.54,7.53-9.81C30,19.14,29.33,18.46,28.93,19Z" transform="translate(-0.59)"/>
    <path class="cls-1" d="M29.07,14.35c-1.89,2.42-3.83,4.83-5.57,7.37-.39.57.57,1.29,1,.72C26.31,20,28,17.5,29.83,15.07,30.22,14.54,29.49,13.82,29.07,14.35Z" transform="translate(-0.59)"/>
    <path class="cls-1" d="M21.07,25c-.61.74-1.21,1.48-1.82,2.21s-1.32,1.28-1.43,2.06c0,.31.22.69.58.55.78-.28,1.22-1.16,1.72-1.79l1.75-2.25C22.31,25.18,21.53,24.41,21.07,25Z" transform="translate(-0.59)"/>
    <path class="cls-1" d="M28.67,10.34,26,13.79a12.05,12.05,0,0,0-2.07,3c-.2.5.56.87.89.49,1.67-1.93,3.12-4.12,4.66-6.15C29.86,10.54,29.1,9.79,28.67,10.34Z" transform="translate(-0.59)"/>
    <path class="cls-1" d="M17.62,25.45,16,27.25c-.47.51-1.11,1-1.18,1.69,0,.3.32.45.57.41.66-.14,1.1-.92,1.51-1.4l1.54-1.77C18.83,25.67,18.08,25,17.62,25.45Z" transform="translate(-0.59)"/>
    <path class="cls-1" d="M26,8.9c-1.31,1.82-2.9,3.48-4.13,5.36-.33.5.42,1,.82.6a32.93,32.93,0,0,0,4.18-5.48c.37-.53-.51-1-.87-.48Z" transform="translate(-0.59)"/>
    <path class="cls-1" d="M15.54,24.17c-.56.58-1.13,1.16-1.67,1.75a5.6,5.6,0,0,0-1.35,1.72c-.16.43.4.73.74.54a6.8,6.8,0,0,0,1.49-1.58c.51-.58,1-1.14,1.55-1.69A.53.53,0,0,0,15.54,24.17Z" transform="translate(-0.59)"/>
    <path class="cls-1" d="M21.48,9.6a19.41,19.41,0,0,1-1.56,2.16,16.25,16.25,0,0,0-1.53,1.79c-.26.42.27.87.67.64a7.2,7.2,0,0,0,1.83-1.9,22.27,22.27,0,0,0,1.5-2.19c.35-.57-.56-1.07-.92-.5Z" transform="translate(-0.59)"/>
    <path class="cls-1" d="M19,9c-1.51,2.07-3.1,4.1-4.75,6.07a62.38,62.38,0,0,0-4.18,4.89c-.32.47.36,1.15.82.78,3.61-2.92,6.44-7.41,9.09-11.2C20.38,8.92,19.4,8.41,19,9Z" transform="translate(-0.59)"/>
    <path class="cls-1" d="M14,20.7c-.5.64-1,1.28-1.52,1.91a9.33,9.33,0,0,0-1.35,1.85.51.51,0,0,0,.81.6,9.54,9.54,0,0,0,1.42-1.8l1.37-1.86C15.14,20.88,14.43,20.18,14,20.7Z" transform="translate(-0.59)"/>
    <path class="cls-1" d="M16,9.25a48.35,48.35,0,0,0-5,5.4c-.42.57.31,1.35.83.79,1.69-1.79,3.23-3.7,5-5.45C17.24,9.5,16.49,8.78,16,9.25Z" transform="translate(-0.59)"/>
    <path class="cls-1" d="M5.09,16.16,3.33,18a7.17,7.17,0,0,0-1.56,1.84.54.54,0,0,0,.75.71,7.22,7.22,0,0,0,1.7-1.7L5.92,17c.5-.56-.32-1.35-.83-.8Z" transform="translate(-0.59)"/>
    <path class="cls-1" d="M4.32,21.06a20.84,20.84,0,0,1-1.73,2c-.53.55-1.48,1.11-1.76,1.82a.49.49,0,0,0,.56.7c.8-.17,1.51-1.14,2-1.72a22,22,0,0,0,1.76-2.2C5.55,21.2,4.69,20.56,4.32,21.06Z" transform="translate(-0.59)"/>
    <path class="cls-1" d="M5,24.72c-.53.65-1.08,1.29-1.64,1.9a12,12,0,0,0-1.55,1.79c-.24.41.27.83.65.61a7.51,7.51,0,0,0,1.73-1.6c.56-.63,1.1-1.27,1.61-1.93s-.35-1.33-.81-.77Z" transform="translate(-0.59)"/>
    <path class="cls-1" d="M5.54,28c-.57.68-1.16,1.35-1.78,2S2.38,31,2.23,31.79c0,.25.15.62.46.57.82-.13,1.34-.91,1.87-1.48s1.23-1.4,1.81-2.13C6.83,28.17,6,27.37,5.54,28Z" transform="translate(-0.59)"/>
    <path class="cls-1" d="M6.93,31c-.61.53-1.2,1.08-1.76,1.65a6.3,6.3,0,0,0-1.49,1.77c-.2.46.26,1,.73.7a9.73,9.73,0,0,0,1.64-1.63c.56-.58,1.14-1.13,1.73-1.67S7.49,30.45,6.93,31Z" transform="translate(-0.59)"/>
    <path class="cls-1" d="M8.78,33.15,7.35,35A5.6,5.6,0,0,0,6.2,36.69c-.14.41.38.74.73.53a6.19,6.19,0,0,0,1.35-1.53c.45-.58.9-1.15,1.34-1.73S9.25,32.56,8.78,33.15Z" transform="translate(-0.59)"/>
    <path class="cls-1" d="M11.66,34.07c-.48.62-1,1.23-1.47,1.85a8.55,8.55,0,0,0-1.31,1.8c-.17.42.26,1,.73.69a7.44,7.44,0,0,0,1.44-1.67l1.46-1.86C13,34.29,12.13,33.48,11.66,34.07Z" transform="translate(-0.59)"/>
    <path class="cls-1" d="M14.83,34.8l-1.38,1.75a6.33,6.33,0,0,0-1.12,1.65c-.16.41.4.78.74.54a6.64,6.64,0,0,0,1.3-1.49c.43-.55.85-1.11,1.28-1.67S15.28,34.22,14.83,34.8Z" transform="translate(-0.59)"/>
    <path class="cls-1" d="M18.6,35c-.52.62-1,1.25-1.55,1.88s-1.12,1.1-1.24,1.78c-.05.32.23.71.59.57.68-.28,1.06-1,1.5-1.55l1.51-1.9C19.86,35.21,19.06,34.43,18.6,35Z" transform="translate(-0.59)"/>
    <path class="cls-1" d="M21.89,34.55c-.45.67-.92,1.32-1.4,2a7.57,7.57,0,0,0-1.12,1.68c-.16.41.42.8.77.56a6.85,6.85,0,0,0,1.38-1.65c.48-.66.93-1.32,1.38-2S22.3,34,21.89,34.55Z" transform="translate(-0.59)"/>
    <path class="cls-1" d="M25.42,34.12,24.2,36a7.4,7.4,0,0,0-1,1.81c-.16.5.51.79.85.46a7.88,7.88,0,0,0,1.16-1.74c.39-.64.78-1.28,1.16-1.92S25.78,33.57,25.42,34.12Z" transform="translate(-0.59)"/>
    <path class="cls-1" d="M28.19,33.66l-1.26,2.16a4,4,0,0,0-.88,1.94.43.43,0,0,0,.65.36,4.29,4.29,0,0,0,1.23-1.75c.41-.72.82-1.45,1.24-2.17A.56.56,0,0,0,28.19,33.66Z" transform="translate(-0.59)"/>
    <path class="cls-1" d="M31.29,32.84l-1.13,2.08a4.91,4.91,0,0,0-.81,1.9.46.46,0,0,0,.7.38,5,5,0,0,0,1.11-1.72c.36-.7.72-1.41,1.09-2.11S31.62,32.21,31.29,32.84Z" transform="translate(-0.59)"/>
    <path class="cls-3" d="M24.33,16.79a4.52,4.52,0,0,0-4.28-3.38.84.84,0,0,0-.19-.07,3.93,3.93,0,0,0-3.35.74l-.38.2a.68.68,0,0,0-.36.59,10.44,10.44,0,0,0-1.45,6c0,1.69.34,3.35,1.85,4.34a7.11,7.11,0,0,0,5,.77,3.94,3.94,0,0,0,3-3.4,13.73,13.73,0,0,0,.16-5.74ZM36.83,5.5c2.56,3.88,2.75,9.16,2.5,13.65-.21,4-.8,9.35-5,11.1-2.77,1.15-7.35,1-9.47-1.49C22.33,31,17.5,31.34,14.59,30.23,10.59,28.71,9,24.41,9,20.4s1-8.68,4.64-11a8.37,8.37,0,0,1,9.14.18,2,2,0,0,1,1.66-1.3c1.18-.21,3.92-.3,4.94.49s.72,3.36.78,4.54c.12,2.38.18,4.77.2,7.15a12.56,12.56,0,0,0,0,2.81c.29,1.15,1.57,1.16,2.2.2a4.54,4.54,0,0,0,.48-1.3,15.08,15.08,0,0,0,.2-5.76c-.39-3.64-1-8.14-5-9.42-3.88-1.25-8.67-1.12-12.71-.89A11.15,11.15,0,0,0,10.2,7.48C8.38,8.64,7.77,10.59,7.34,12.6c-.88,4.13-1.56,8.5-.88,12.72.36,2.23,1,4.54,2.84,6.05a12.3,12.3,0,0,0,4.84,2.19c4,1,8.15.32,12.16-.2a5.9,5.9,0,0,0,3-1.23,2.44,2.44,0,0,1,1.33-.54c1.47-.05,3.13,1.27,4.36,1.92a.71.71,0,0,1,.39.49.75.75,0,0,1,0,.78c-2.76,4.93-9.63,5-14.6,5.17s-11.22.24-15.46-2.8C1.86,34.65,1,30.31.8,26.28c-.32-5.4-.42-11,.82-16.34A11.3,11.3,0,0,1,9.71,1.11,28.9,28.9,0,0,1,16.94.19c2.78-.1,5.57-.28,8.34-.14,4.44.21,9,1.57,11.55,5.45Zm-.16,20.07a5.53,5.53,0,0,1-5.1,3.76c-2,.17-4.88-.2-6-2.17A.77.77,0,0,0,24.4,27c-1.92,2.4-6.89,2.8-9.56,1.65-3.23-1.4-4.38-5.06-4.37-8.32S11.1,13,14,10.85a7.18,7.18,0,0,1,9,.53.67.67,0,0,0,1.1-.51.6.6,0,0,0,.16-.7C24.08,9.69,28,9.69,28.3,10c.54.59.31,2.55.35,3.38.12,2.6.18,5.21.19,7.81,0,1.36-.19,3.11.79,4.22a2.41,2.41,0,0,0,3.39.08c2.83-2.42,2-7.8,1.55-11S33.13,7.58,29.87,6a16.47,16.47,0,0,0-5.51-1.18,60,60,0,0,0-7.7-.27c-3.35.09-7.28.53-9.31,3.57a13.83,13.83,0,0,0-1.74,5.22,50.2,50.2,0,0,0-1,7.43c-.15,3.95.32,9,3.56,11.74s8.33,3.46,12.55,3a56.35,56.35,0,0,0,7-.83,7.4,7.4,0,0,0,2.3-1.1c1-.61,1.25-.26,2.13.19.47.24.93.49,1.39.74-2.5,3.49-8,3.51-11.87,3.68s-8.23.2-12.08-.89-6.17-4-6.88-8A57,57,0,0,1,2.3,16.63c.21-3.92.56-9,3.69-11.84s7.62-2.95,11.59-3.08c4.28-.15,8.89-.68,13,.82s6.11,4.82,6.86,8.88a28.43,28.43,0,0,1-.76,14.16ZM21.53,24.2a4.93,4.93,0,0,1-3.55.16c-1.66-.46-2.15-1.7-2.21-3.29s.05-4.11,1.13-5.5h0c2-1.08,5.37-1.11,6,1.66C23.34,19.05,23.26,23.12,21.53,24.2Z" transform="translate(-0.59)"/>
  </g>
</svg>
