<svg id="레이어_1" data-name="레이어 1" xmlns="http://www.w3.org/2000/svg" viewBox="0 0 23.98 39.85">
  <defs>
    <style>
      .cls-1 {
        fill: #ebebeb;
      }

      .cls-2 {
        fill: #fbfbfb;
      }

      .cls-3 {
        fill: #ffb67d;
      }

      .cls-4 {
        fill: #1e1e29;
      }

      .cls-5 {
        fill: #3a3a4a;
      }

      .cls-6 {
        fill: #4f2619;
      }

      .cls-7 {
        fill: #ffcb9e;
      }

      .cls-8, .cls-9 {
        fill: #bf3c1b;
      }

      .cls-8 {
        opacity: 0.15;
      }

      .cls-12, .cls-9 {
        opacity: 0.3;
      }

      .cls-10 {
        fill: #ffa073;
      }

      .cls-11 {
        fill: #305d80;
      }

      .cls-12 {
        fill: #b54d26;
      }

      .cls-13 {
        fill: #ffdfc2;
      }

      .cls-14 {
        fill: #86bae3;
      }

      .cls-15 {
        fill: #f7a286;
      }

      .cls-16 {
        fill: #8f3935;
      }

      .cls-17 {
        fill: #fff9f0;
      }

      .cls-18 {
        fill: #e8dac5;
      }

      .cls-19 {
        fill: #784430;
      }
    </style>
  </defs>
  <title>1</title>
  <g>
    <g>
      <path class="cls-1" d="M15.46,31.43c-2.17,1.1-2.36,6.16-2,8.5h13.8c.42-2.43.28-7.8-1.85-8.7A14,14,0,0,0,15.46,31.43Z" transform="translate(-7.18 -0.07)"/>
      <path class="cls-2" d="M20.31,35.17c1.49,0,7.79-3.38,3.36-6.69-1.27-.95-3.76-1.1-5.28-.79a3.52,3.52,0,0,0-2.75,3.16C15.51,32.68,18.34,35.12,20.31,35.17Z" transform="translate(-7.18 -0.07)"/>
      <path class="cls-3" d="M20.37,33.91c1.21,0,6.35-2.75,2.73-5.45a6.2,6.2,0,0,0-4.3-.65,2.88,2.88,0,0,0-2.24,2.58C16.45,31.88,18.76,33.88,20.37,33.91Z" transform="translate(-7.18 -0.07)"/>
      <g>
        <path class="cls-4" d="M31.07,39.93a38.89,38.89,0,0,0,.05-4C31,34.31,29.89,32.56,27,31.63l-1.3,2.78c1.52.76,1.73,5.52,1.73,5.52Z" transform="translate(-7.18 -0.07)"/>
        <path class="cls-4" d="M25,31s2.9.83,3.17,1.38a57.81,57.81,0,0,1-.39,7.56H23.88C24,38.07,24.37,32.66,25,31Z" transform="translate(-7.18 -0.07)"/>
      </g>
      <path class="cls-5" d="M24.48,33.07c.33-.44,2.29,1.88,2.08,2.27-.06.12-2,4-2.18,4.59h-.6C23.9,38.34,24.14,33.53,24.48,33.07Z" transform="translate(-7.18 -0.07)"/>
      <path class="cls-5" d="M25,30.45a4.34,4.34,0,0,1,2.25,3.06c0,.4-3,.75-2.94.34C24.4,33.29,25,30.45,25,30.45Z" transform="translate(-7.18 -0.07)"/>
      <path class="cls-4" d="M15.7,31s-2.9.83-3.17,1.38a57.81,57.81,0,0,0,.39,7.56h3.93C16.7,38.07,16.36,32.66,15.7,31Z" transform="translate(-7.18 -0.07)"/>
      <path class="cls-4" d="M9.67,39.93a38.16,38.16,0,0,1-.06-4c.16-1.61,1.23-3.36,4.18-4.29l1.29,2.78c-1.52.76-1.73,5.52-1.73,5.52Z" transform="translate(-7.18 -0.07)"/>
      <path class="cls-5" d="M16.25,33.07c-.33-.44-2.29,1.88-2.08,2.27.06.12,2,4,2.18,4.59H17C16.83,38.34,16.59,33.53,16.25,33.07Z" transform="translate(-7.18 -0.07)"/>
      <path class="cls-5" d="M15.69,30.45a4.34,4.34,0,0,0-2.25,3.06c0,.4,3,.75,2.94.34C16.33,33.29,15.69,30.45,15.69,30.45Z" transform="translate(-7.18 -0.07)"/>
    </g>
    <g>
      <path class="cls-6" d="M29.33,1.92A4.43,4.43,0,0,0,28.16.07a5.45,5.45,0,0,1-5.53,2.6,1.29,1.29,0,0,0,.48-1c-.8.17-1.54.55-2.34.7-3.2.6-6.38.68-9.06,2.85-3.78,3.06-3.22,8-2.46,12.21a25.44,25.44,0,0,0,1.83,6.88c.76,1.5,1.52.87,2.64.27a13.43,13.43,0,0,1,5.18-1c1.66-.08,4.07-.22,5.61.51,1,.47,1.53.86,2.56.07a6.25,6.25,0,0,0,1.69-2.36,12.06,12.06,0,0,0,.76-4.21c.15-1.91.65-3.48.49-5.39-.05-.67-.86-3.22.62-5.39a11.89,11.89,0,0,0-1.56.29c1-.25.76-2.71.68-3.37A8.39,8.39,0,0,0,29.33,1.92Z" transform="translate(-7.18 -0.07)"/>
      <path class="cls-7" d="M10.43,22.19c.7,5.16,4.65,10.82,10.62,10.39s9.11-8,8.32-14.36C28.52,11.33,25.27,5.58,18.15,7,13.07,8,9.49,15.31,10.43,22.19Z" transform="translate(-7.18 -0.07)"/>
      <path class="cls-8" d="M18.89,12.5a8,8,0,0,0-4.43-.24c-1.8.66-2.09,3.12-2.86,4.65a3.94,3.94,0,0,1-1.06-1.8,15.25,15.25,0,0,1-.24-2.52,7.8,7.8,0,0,1,.17-2.77,4.16,4.16,0,0,1,2.47-2.08,12.78,12.78,0,0,1,5.6-.65,22.57,22.57,0,0,1,6.16,1c1.32.4,3.8.75,4.26,2.29.58,2-2.24,2.64-3.62,3-2.48.61-3.9-.06-6.19-.76Z" transform="translate(-7.18 -0.07)"/>
      <path class="cls-7" d="M9.2,24.41a4.76,4.76,0,0,0,2,.22l0-.06c.3-.48-.12-3.15-.27-3.65C10.6,19.66,9.85,19,8.66,19.33,6.16,20,7.16,23.68,9.2,24.41Z" transform="translate(-7.18 -0.07)"/>
      <path class="cls-9" d="M10.16,23.51c.91-.58.05-2.52-.63-2.84s-2,.21-1.3,1.31c.35-1,1-.35.87.38-.06.48-.58.49-.07,1.11A.92.92,0,0,0,10.16,23.51Z" transform="translate(-7.18 -0.07)"/>
      <path class="cls-6" d="M25.53,5.56a8,8,0,0,0-7.39-1.49c-1.64.38-3.52.61-4.89,1.67a13.19,13.19,0,0,0-3.1,3c-1.31,2-.65,9.93.21,11.1.1.12,1.14,1.43,1.63,1.39a24.25,24.25,0,0,1-.14-5.18c.17-2.31.7-4.8,3.32-5.21,1.48-.24,6.22,1.81,7.3,2,1.44.31,4.84-1.32,5.33-1.53,1.22-.5,1.14-1.9.57-2.86A12.15,12.15,0,0,0,25.53,5.56Z" transform="translate(-7.18 -0.07)"/>
      <g>
        <path class="cls-10" d="M29.05,21.61a1.36,1.36,0,0,1,0,.51c-.14,1.88-3.4,1.23-3.57.41-.33-1.53.93-1.91,1.79-1.88C28,20.66,28.84,20.83,29.05,21.61Z" transform="translate(-7.18 -0.07)"/>
        <path class="cls-10" d="M16.05,21.23a1.78,1.78,0,0,1,.2.48c.46,1.87-3,2.2-3.43,1.46C12,21.77,13.14,21,14,20.81,14.66,20.63,15.59,20.53,16.05,21.23Z" transform="translate(-7.18 -0.07)"/>
        <path class="cls-11" d="M15.38,20.24a1.83,1.83,0,0,0-1.3-.11c-.89-.77-.06-3.1,1.24-2.53A1.6,1.6,0,0,1,15.38,20.24Z" transform="translate(-7.18 -0.07)"/>
        <path class="cls-12" d="M23.34,22c-.32-.4-.78.05-1.63.05s-1.07-.34-1.6,0,.23,1.35,1.58,1.3S23.62,22.35,23.34,22Z" transform="translate(-7.18 -0.07)"/>
        <path class="cls-13" d="M21.46,18.24c-.8.11-1.5,3.85-1.17,4.11a2.76,2.76,0,0,0,3-.32C23.46,21.82,22.82,18,21.46,18.24Z" transform="translate(-7.18 -0.07)"/>
        <path class="cls-11" d="M27.93,17.7a1.9,1.9,0,0,1,.17,2.5,1.74,1.74,0,0,0-1.38,0C25.62,19.48,26.6,16.89,27.93,17.7Z" transform="translate(-7.18 -0.07)"/>
        <path class="cls-14" d="M14.86,18c.47-.16.76.57.39.84C14.73,19.21,14.33,18.17,14.86,18Z" transform="translate(-7.18 -0.07)"/>
        <path class="cls-14" d="M27.41,18c.46-.09.65.64.26.85C27.13,19.14,26.88,18.1,27.41,18Z" transform="translate(-7.18 -0.07)"/>
        <g>
          <path class="cls-15" d="M27.24,24.07c-.37-.26-.8-.46-1.17-.68a.68.68,0,0,0,.19.44c-1.55.09-3.12.21-4.68.28-1,.05-2.06.12-3.1.14-.75,0-2.19.16-2.78-.26a1.46,1.46,0,0,0,.54-.32,5.49,5.49,0,0,0-2.74,1.11c.57-.24,1.34-.58,1.86-.08a21.23,21.23,0,0,0,2.81,2.37c2.19,1.45,6.45,1.28,7.59-1.5.09-.24.6-1.06,1-1.14a3,3,0,0,1,1.17.31A1.89,1.89,0,0,0,27.24,24.07Z" transform="translate(-7.18 -0.07)"/>
          <path class="cls-16" d="M15.82,24.4a28.47,28.47,0,0,0,10.93-.32,2.8,2.8,0,0,0-1.41,1.32c-.41.87-1.9,1.5-4.17,1.51A6.79,6.79,0,0,1,15.82,24.4Z" transform="translate(-7.18 -0.07)"/>
          <path class="cls-17" d="M17.15,24.6s.12.77,1.38,1a14.42,14.42,0,0,0,5.17.09,2.61,2.61,0,0,0,1.79-1.4A30.57,30.57,0,0,1,17.15,24.6Z" transform="translate(-7.18 -0.07)"/>
          <path class="cls-17" d="M17.76,25.7c-.13-.2-.08-.52.5-.23a8.46,8.46,0,0,0,3.8.39c1.5-.07,2.26-.45,2.56-.23s-1,1.5-3.62,1.32S17.76,25.7,17.76,25.7Z" transform="translate(-7.18 -0.07)"/>
          <path class="cls-18" d="M17.48,25.14S23.55,24.61,25,25a2.33,2.33,0,0,0,.48-.68,35.18,35.18,0,0,1-8.34.27A1.1,1.1,0,0,0,17.48,25.14Z" transform="translate(-7.18 -0.07)"/>
          <path class="cls-18" d="M18.75,25.62a10.58,10.58,0,0,0,4.79.07A7.12,7.12,0,0,1,18.75,25.62Z" transform="translate(-7.18 -0.07)"/>
        </g>
        <path class="cls-6" d="M12.43,16.71c1.12-1.35,4.18-1.51,5.08.1C15.77,16.9,14.93,16.76,12.43,16.71Z" transform="translate(-7.18 -0.07)"/>
        <path class="cls-6" d="M29.55,16.77c-1-1.34-3.6-1.48-4.38.13C26.67,17,27.39,16.83,29.55,16.77Z" transform="translate(-7.18 -0.07)"/>
      </g>
      <path class="cls-19" d="M18,3.67a14.53,14.53,0,0,1,3.4-.35c2.19,0,5.17.22,6.67-1.75a5.32,5.32,0,0,1-.28,6.65h0a4.7,4.7,0,0,1,1.66-.35c.3,1.37-2.68,2.45-4.4,3.52a21.87,21.87,0,0,0,1.24-2.7,43.66,43.66,0,0,0-3.79,3c-.27-.29,3.91-5.23,4-5.68-.26.13-5.26,4.82-5.51,5.12-.48-.58,2.29-3.93,2.5-4.64-.24.07-5.29,3.19-5.28,3.23-.16-.57,1.64-2,2-2.54C20,7.17,16,8.85,16,9.08a2.81,2.81,0,0,1,.08-1.29,7.58,7.58,0,0,0-5.84,3c.14-.18,0-1.5.1-1.86a6.6,6.6,0,0,1,.72-1.74,5.25,5.25,0,0,1,2.62-2A22.68,22.68,0,0,1,18,3.67Z" transform="translate(-7.18 -0.07)"/>
    </g>
  </g>
</svg>
