<svg id="레이어_1" data-name="레이어 1" xmlns="http://www.w3.org/2000/svg" viewBox="0 0 40 40">
  <defs>
    <style>
      .cls-1 {
        stroke: #000;
        stroke-miterlimit: 10;
        stroke-width: 0.75px;
      }
    </style>
  </defs>
  <title>1</title>
  <path d="M20,40A20,20,0,1,1,40,20,20,20,0,0,1,20,40ZM20,3.66A16.34,16.34,0,1,0,36.34,20,16.36,16.36,0,0,0,20,3.66Z"/>
  <path class="cls-1" d="M23.81,22.6a33.41,33.41,0,0,0,3.75,2.28A40.67,40.67,0,0,0,32,26.82l-2,3.37Q27.4,29,25.21,27.77A33.79,33.79,0,0,1,21,24.91a39.91,39.91,0,0,1-10.64,5.28L8.42,26.75A43,43,0,0,0,13.8,24.9a33.49,33.49,0,0,0,4.08-2.09,23.5,23.5,0,0,0,3-2.19A19.69,19.69,0,0,0,23,18.46c-.25,0-.57,0-1,.06H10.84V14.72H23.7c1.36,0,2.76,0,4.21-.07a.57.57,0,0,1,.58.31,1,1,0,0,1,0,.75A13.78,13.78,0,0,1,26.7,19.3,19.53,19.53,0,0,1,23.81,22.6ZM25.86,8.75v3.77h-12V8.75Z"/>
</svg>
