<svg id="레이어_1" data-name="레이어 1" xmlns="http://www.w3.org/2000/svg" xmlns:xlink="http://www.w3.org/1999/xlink" viewBox="0 0 27.39 40">
  <defs>
    <style>
      .cls-1 {
        fill: #ffc38f;
      }

      .cls-2 {
        fill: #e8e8e8;
      }

      .cls-3 {
        fill: url(#linear-gradient);
      }

      .cls-4 {
        fill: #f5f5f5;
      }

      .cls-5 {
        fill: #379bdb;
      }

      .cls-6 {
        fill: #261b18;
      }

      .cls-7 {
        fill: #573d2f;
      }

      .cls-8 {
        fill: #bf3c1b;
      }

      .cls-8, .cls-9 {
        opacity: 0.3;
      }

      .cls-9 {
        fill: #b54d26;
      }

      .cls-10 {
        fill: #ff7752;
      }

      .cls-11 {
        fill: #1c5c57;
      }

      .cls-12 {
        fill: #6cd9d2;
        opacity: 0.7;
      }

      .cls-13 {
        fill: #161110;
      }

      .cls-14 {
        fill: #c20902;
        opacity: 0.5;
      }
    </style>
    <linearGradient id="linear-gradient" x1="21.14" y1="30.11" x2="21.14" y2="32.55" gradientUnits="userSpaceOnUse">
      <stop offset="0" stop-color="#ee996d"/>
      <stop offset="0.02" stop-color="#ee9a6e"/>
      <stop offset="0.37" stop-color="#f8b181"/>
      <stop offset="0.71" stop-color="#fdbf8d"/>
      <stop offset="1" stop-color="#ffc491"/>
    </linearGradient>
  </defs>
  <title>1</title>
  <g>
    <g>
      <path class="cls-1" d="M26.9,35.1l-2,.25c.06.53.1,1,.14,1.48A12.69,12.69,0,0,0,25.53,40h2.23a8.88,8.88,0,0,1-.71-3.34C27,36.17,27,35.65,26.9,35.1Z" transform="translate(-6.16 0)"/>
      <path class="cls-2" d="M25.33,31.58l-1.14,2.25c.1.05.37.35.72,2l2.45-.53C27,33.77,26.62,32.24,25.33,31.58Z" transform="translate(-6.16 0)"/>
    </g>
    <g>
      <path class="cls-1" d="M18,35.35l-2.06-.25q-.09.82-.15,1.56A8.69,8.69,0,0,1,15,40h2.23a13.16,13.16,0,0,0,.54-3.17C17.85,36.37,17.89,35.88,18,35.35Z" transform="translate(-6.16 0)"/>
      <path class="cls-2" d="M15.43,35.28l2.46.53c.35-1.63.62-1.93.72-2l-1.14-2.25C16.18,32.24,15.76,33.77,15.43,35.28Z" transform="translate(-6.16 0)"/>
    </g>
    <g>
      <path class="cls-2" d="M25.6,36.38c.75-2.83.83-4.55-.91-5.12a11.17,11.17,0,0,0-6.67,0c-1.48.64-1.95,1.67-.94,4.81A15.88,15.88,0,0,1,17.94,40h7A18.1,18.1,0,0,1,25.6,36.38Z" transform="translate(-6.16 0)"/>
      <path class="cls-3" d="M23.32,28.33c.15-2.5-4.16-2.6-4.15.14A6.71,6.71,0,0,1,19,31c-1.72,2.71,5.9,3,4.29.13C22.94,30.47,23.26,29.44,23.32,28.33Z" transform="translate(-6.16 0)"/>
      <path class="cls-4" d="M23.16,34.54a7.12,7.12,0,0,1-4-.07c-.72-.18-1.12.64-.9,1.34.29.93,1.78,1.18,3.09,1.16,2.56,0,3.53-1,3.09-2.15C24.36,34.52,23.81,34.31,23.16,34.54Z" transform="translate(-6.16 0)"/>
    </g>
    <g>
      <path class="cls-5" d="M24.68,34.7c.42-1.4.45-3.38-.89-4.34a.46.46,0,0,0-.64.11.47.47,0,0,0,.11.64c.88.63.91,2.13.54,3.33a14.8,14.8,0,0,1-1.62,3.23A8,8,0,0,0,21,40H22a10,10,0,0,1,1-1.85A15.45,15.45,0,0,0,24.68,34.7Z" transform="translate(-6.16 0)"/>
      <path class="cls-5" d="M18.7,34.29a3.06,3.06,0,0,1,.64-3.51.46.46,0,0,0-.63-.66,3.93,3.93,0,0,0-.86,4.51,18.21,18.21,0,0,0,1.89,3.29A11.68,11.68,0,0,1,21,40h.95a8.81,8.81,0,0,0-1.41-2.59A18.74,18.74,0,0,1,18.7,34.29Z" transform="translate(-6.16 0)"/>
    </g>
    <g>
      <path class="cls-6" d="M8.36,1.61A6,6,0,0,0,7.48,10c1.92,2.45,5.67,2.69,8.38.54s3.35-5.87,1.44-8.31S11.07-.54,8.36,1.61Z" transform="translate(-6.16 0)"/>
      <path class="cls-7" d="M8.87,2.06c-1.31,1-2.18,3-1.34,4.41.7,1.22,1.23-.11,1.44-.93.61,1.23,1.2-.29,1.23-1.06.53.56,1.42-.49,1.51-1,1.09-.21,1.94-1.36,2.93-1.76C13.58.07,10.21,1,8.87,2.06Z" transform="translate(-6.16 0)"/>
      <path class="cls-6" d="M28.94,2.61C21.38-3,10.91,1.23,9.27,8.14a13.47,13.47,0,0,0,2.86,12.08c1.31,1.56,2.23,3.4,3.5,5s2.76-1,3.84-1.56a7.55,7.55,0,0,1,4.79-.87c1.43.26,2.4,1.8,3.86,1.88,1.93.09,2.55-3.12,3-4.47s.79-2.55,1.11-3.84C33.7,10.53,32.88,5.55,28.94,2.61Z" transform="translate(-6.16 0)"/>
      <path class="cls-1" d="M20.41,4c-5.29.88-9.22,8.38-8.46,15.55.57,5.36,5.43,10.92,10.22,11.09,5.11.17,10.16-8,9.53-14.64C31,8.84,27.83,2.78,20.41,4Z" transform="translate(-6.16 0)"/>
      <path class="cls-8" d="M27.16,5.34a23.31,23.31,0,0,0-6.35-1.2c-1.92-.09-4-.26-5.82.51-1,.42-2.23,1-2.63,2.08a10.06,10.06,0,0,0-.14,4.47,12.09,12.09,0,0,0,1.29,4.45,18.92,18.92,0,0,1,.77-2.74,5.34,5.34,0,0,1,5-4.28,44.45,44.45,0,0,1,6,0c1,0,7,1.2,5.82-1.26C30.53,6.22,28.22,5.69,27.16,5.34Z" transform="translate(-6.16 0)"/>
      <path class="cls-1" d="M10.2,16.53c-2.61.64-1.53,4.75.56,5.57a2.15,2.15,0,0,0,1.93,0l.05-.07c.32-.48,0-3.26-.18-3.78C12.2,16.93,11.45,16.22,10.2,16.53Z" transform="translate(-6.16 0)"/>
      <path class="cls-9" d="M11.07,18c-.58-.28-2,.16-1.39,1.32.39-1,1-.33.89.42-.08.5-.62.49-.1,1.15.28.36.87.25,1.17.07C12.6,20.34,11.77,18.3,11.07,18Z" transform="translate(-6.16 0)"/>
      <path class="cls-6" d="M24.77,2a17.9,17.9,0,0,0-5.41-.32c-3,.27-6.63,1.59-7.67,4.73-.63,1.94-.4,4.21-.31,6.2.06,1.21-.49,3.53.51,4.47,1.16,1.1,1.68-.49,1.83-1.63a21.57,21.57,0,0,1,.51-3.94c1-3,2.62-3.56,7-3.77,2.28-.11,7.88-.38,8.9,1.68.38.76,3.73-1.36.86-4.76C29.73,3.16,26.59,2.39,24.77,2Z" transform="translate(-6.16 0)"/>
      <path class="cls-7" d="M17.1,1.33a9.37,9.37,0,0,0-3.84,2,8.72,8.72,0,0,0-1.93,2.29,5.42,5.42,0,0,0-.75,3.09c.05.72.62,2.28,1.73,1.89a19.68,19.68,0,0,0-.19-2.16c.23.16,1.25.89,1.57.72s.16-1.18.21-1.49c1.23,1.39,1.92-.62,1.86-1.69.52.33.88.93,1.43,1.21.78.41,1.64,0,2.54-.13a27.61,27.61,0,0,1,3.52-.35c1.22,0,1.44.14,1.95-1a1.15,1.15,0,0,0,.45.87,1.25,1.25,0,0,0,.71-1.12c0,1.25,2.72,2.06,3.67,1.79,1.47-.41-.1-2.7-1-3.62C26.09.57,21.1.37,17.1,1.33Z" transform="translate(-6.16 0)"/>
    </g>
    <g>
      <path class="cls-10" d="M30.81,20a1.93,1.93,0,0,0-1.92-.75c-.81.07-1.86.56-1.09,2,.42.77,3.65,1.06,3.2-.77A1.6,1.6,0,0,0,30.81,20Z" transform="translate(-6.16 0)"/>
      <path class="cls-10" d="M18.27,19.8a2,2,0,0,0-2-.59c-.8.12-2.21,1-1.08,2.12.81.78,3.82.66,3.27-1.07A1.8,1.8,0,0,0,18.27,19.8Z" transform="translate(-6.16 0)"/>
      <path class="cls-11" d="M17.9,15.87c-1.87-.56-3.12,1.51-1.85,2.24a4.15,4.15,0,0,1,1.86.16A1.22,1.22,0,0,0,17.9,15.87Z" transform="translate(-6.16 0)"/>
      <path class="cls-9" d="M23.34,19.48c-.47,0-.9-.22-1.33,0s.12,1,1.37.9,1.56-.78,1.31-1S23.87,19.45,23.34,19.48Z" transform="translate(-6.16 0)"/>
      <path class="cls-12" d="M17.72,17c-.58.15-.17,1.1.4.77C18.53,17.52,18.23,16.85,17.72,17Z" transform="translate(-6.16 0)"/>
      <path class="cls-11" d="M29.9,15.76C28,15.45,27,17.68,28.37,18.23a4.06,4.06,0,0,1,1.86-.1A1.21,1.21,0,0,0,29.9,15.76Z" transform="translate(-6.16 0)"/>
      <path class="cls-12" d="M29.81,16.92c-.54.22,0,1.11.5.71S30.3,16.72,29.81,16.92Z" transform="translate(-6.16 0)"/>
      <path class="cls-13" d="M17,15.26c-1,.21-2.34,1.24-4,0,0,0,.51,2,3.83.88a1.78,1.78,0,0,1,2.06,1S19,14.87,17,15.26Z" transform="translate(-6.16 0)"/>
      <path class="cls-13" d="M29.81,15.41c-1.84-.53-2,1.66-2,1.66a1.72,1.72,0,0,1,2.11-.74c2.94,1.2,3.65-.63,3.65-.63C31.89,16.77,30.76,15.68,29.81,15.41Z" transform="translate(-6.16 0)"/>
      <path class="cls-6" d="M29.36,12.39c-1.3.06-2.59.81-2.46,1.45s1.23-.06,2.51-.33a17.12,17.12,0,0,1,2.43-.11C31.72,12.91,30.55,12.33,29.36,12.39Z" transform="translate(-6.16 0)"/>
      <path class="cls-6" d="M17.42,12.31c-1.46-.18-3,.22-3.11.7-.05.31,1.16-.08,3.1.41,1.54.39,2.68,1.22,2.91.54S19,12.51,17.42,12.31Z" transform="translate(-6.16 0)"/>
      <path class="cls-14" d="M27.3,23.32c-.16.16-4.08,3.83-9.47-.1a.52.52,0,0,0-.68.05.41.41,0,0,0,.1.61A10.29,10.29,0,0,0,21,25.67a7.73,7.73,0,0,0,4-.07A7.52,7.52,0,0,0,28,23.92a.4.4,0,0,0,0-.61A.52.52,0,0,0,27.3,23.32Z" transform="translate(-6.16 0)"/>
    </g>
  </g>
</svg>
