<svg id="레이어_1" data-name="레이어 1" xmlns="http://www.w3.org/2000/svg" viewBox="0 0 40 25.82">
  <defs>
    <style>
      .cls-1, .cls-2 {
        fill: #e3ca95;
      }

      .cls-2, .cls-3 {
        fill-rule: evenodd;
      }
    </style>
  </defs>
  <title>1</title>
  <g>
    <path class="cls-1" d="M2.57.56h35.1a1.5,1.5,0,0,1,1.5,1.5V22.23A2.58,2.58,0,0,1,36.6,24.8h-34a1.5,1.5,0,0,1-1.5-1.5V2.07A1.5,1.5,0,0,1,2.57.56Z"/>
    <path class="cls-2" d="M4.12,7.79,2.05,10.56A9.67,9.67,0,0,0,.43,13a.41.41,0,0,0,.61.45,10.09,10.09,0,0,0,1.82-2.27l2-2.82C5.18,7.91,4.44,7.36,4.12,7.79Z" transform="translate(0 -6.75)"/>
    <path class="cls-2" d="M6.82,7.73q-1.68,2-3.31,4A29,29,0,0,0,.63,15.47a.5.5,0,0,0,.8.59,36.21,36.21,0,0,0,3.05-3.82c1-1.29,2-2.56,3.05-3.82C7.93,7.92,7.23,7.23,6.82,7.73Z" transform="translate(0 -6.75)"/>
    <path class="cls-2" d="M11.47,8c-3.24,4.66-7.2,8.88-10.31,13.6-.35.53.43,1,.86.63,4-3.84,7.27-9.11,10.35-13.73C12.75,7.89,11.84,7.41,11.47,8Z" transform="translate(0 -6.75)"/>
    <path class="cls-2" d="M14.65,8.16C10.14,13.62,5.07,18.92,1.09,24.78c-.37.56.49,1.15.93.68,4.87-5.07,9-11.11,13.35-16.62C15.76,8.35,15.06,7.66,14.65,8.16Z" transform="translate(0 -6.75)"/>
    <path class="cls-2" d="M17.46,8.45Q13.38,14,9.07,19.37,7,22,4.88,24.51A28.13,28.13,0,0,0,1,29.46c-.18.37.25.88.63.59,3.39-2.5,6-6.93,8.58-10.26q4.1-5.31,8-10.75C18.59,8.58,17.8,8,17.46,8.45Z" transform="translate(0 -6.75)"/>
    <path class="cls-2" d="M20.66,7.73A148.16,148.16,0,0,1,12,20.55c-2.74,3.6-6.35,6.87-8.73,10.69-.24.38.28.9.65.62,3.76-2.85,6.74-7.51,9.51-11.29a140,140,0,0,0,8.1-12.38A.47.47,0,0,0,20.66,7.73Z" transform="translate(0 -6.75)"/>
    <path class="cls-2" d="M23.48,7.76c-5.36,7.49-10.8,14.94-16,22.52-.45.65.61,1.22,1.06.59C13.86,23.38,19,15.76,24.24,8.18,24.56,7.72,23.8,7.31,23.48,7.76Z" transform="translate(0 -6.75)"/>
    <path class="cls-2" d="M26.21,7.6a225.91,225.91,0,0,1-15.7,22.88c-.47.62.37,1.47.89.86A147.55,147.55,0,0,0,27,8.05.46.46,0,0,0,26.21,7.6Z" transform="translate(0 -6.75)"/>
    <path class="cls-2" d="M29,7.67A225,225,0,0,1,13.69,30.33c-.49.65.42,1.56.94.9A175.61,175.61,0,0,0,29.81,8.12.46.46,0,0,0,29,7.67Z" transform="translate(0 -6.75)"/>
    <path class="cls-2" d="M32,7.45C27.19,15.38,21.92,23,16.65,30.58c-.42.61.62,1.39,1.07.78A239.22,239.22,0,0,0,32.78,7.89.45.45,0,0,0,32,7.45Z" transform="translate(0 -6.75)"/>
    <path class="cls-2" d="M34.87,8.1C30,15.94,24.26,23.24,19.33,31c-.38.6.54,1.29,1,.74,5.9-7,10.67-15.36,15.39-23.2C36.05,8,35.2,7.56,34.87,8.1Z" transform="translate(0 -6.75)"/>
    <path class="cls-2" d="M37.45,8.33c-2.59,4.73-5.35,9.35-8.33,13.84-1.44,2.17-2.92,4.33-4.45,6.45-.47.65-2.16,2.09-1.38,3.07a.53.53,0,0,0,.82.08l.12-.11a.51.51,0,0,0,.11-.45c.56-1.59,2.49-3.42,3.42-4.78,1.29-1.89,2.52-3.8,3.72-5.75q3.61-5.82,6.78-11.9A.46.46,0,0,0,37.45,8.33Z" transform="translate(0 -6.75)"/>
    <path class="cls-2" d="M38.88,10.43A143.62,143.62,0,0,1,25.49,31.26c-.47.64.38,1.52.92.88A103.94,103.94,0,0,0,39.77,10.93C40.06,10.34,39.17,9.85,38.88,10.43Z" transform="translate(0 -6.75)"/>
    <path class="cls-2" d="M38.63,15.66q-2.39,4.17-4.8,8.33c-1.44,2.47-3.28,4.93-4.24,7.62-.15.42.47.74.75.41,1.86-2.17,3.07-5,4.45-7.49,1.56-2.81,3.09-5.62,4.62-8.44A.45.45,0,0,0,38.63,15.66Z" transform="translate(0 -6.75)"/>
    <path class="cls-2" d="M38.73,20.66c-1.48,2.34-2.88,4.72-4.37,7.05-.66,1-2.36,2.72-2.34,4a.53.53,0,0,0,.8.43h0c1.23-.77,1.88-2.69,2.58-3.87,1.41-2.37,2.75-4.79,4.18-7.15C39.92,20.59,39.07,20.13,38.73,20.66Z" transform="translate(0 -6.75)"/>
    <path class="cls-3" d="M39.36,8c-1-1.33-3.28-1-4.75-1.07-4.88-.16-9.77-.21-14.66-.19-5.39,0-10.82-.09-16.19.19C2,7,.48,7.75.1,9.63a10.56,10.56,0,0,0,0,3c.1,1,.19,2,.3,3,.08,3,.13,5.93.12,8.9,0,1.11,0,2.23,0,3.34v.28a.51.51,0,0,0,0,.53,4.78,4.78,0,0,0,.26,2C1.34,32,2.81,32.24,4.13,32.3c9.77.43,19.64.25,29.42.06,1.59,0,3.65.23,5-.9,1.12-1,1.27-2.54,1.3-3.93.1-4.83.06-9.66.09-14.49,0-1.5.44-3.74-.54-5Zm-.9,19.38c-.34-.26-.72-.51-1-.76l-3-2.36-6-4.72,0,0,.77-.56c3.18-2.32,6.32-4.69,9.4-7.15,0,.24,0,.48,0,.7,0,3.85-.05,7.7-.07,11.55,0,1,.11,2.19.07,3.33ZM2.75,8.51a12.45,12.45,0,0,1,3.11-.17c4-.06,7.94-.13,11.9-.15s7.94,0,11.91.05c1.94,0,3.87.09,5.81.16,1.14,0,2.64-.28,3,1.18a4.58,4.58,0,0,1,.08.66c-2.95,2.35-6,4.62-9,6.84q-2.21,1.62-4.43,3.21l-2.23,1.6C22,22.51,21,23.5,19.94,23.4a5.7,5.7,0,0,1-2.64-1.49l-2.21-1.65L10.43,16.8,1.51,10.15A1.71,1.71,0,0,1,2.75,8.51Zm7.69,9.86,1.27.95C8.41,21.89,5,24.38,1.78,27V27c0-1.12,0-2.23,0-3.35,0-4-.1-7.94-.27-11.91l8.92,6.64ZM32.68,30.94c-8,.14-16,.07-23.94,0l-3.34,0c-.87,0-2.21.21-3-.31a2.18,2.18,0,0,1-.7-1.9c3.71-2.7,7.24-5.68,10.84-8.52a.56.56,0,0,0,.15-.16l3.07,2.29c1.15.85,2.52,2.25,4,2.43s3-1.27,4.21-2.12,2.23-1.59,3.33-2.4a.68.68,0,0,0,.17.21q2.93,2.26,5.83,4.55c1.66,1.29,3.42,2.52,5,3.94a4.5,4.5,0,0,1-.14.49C37.41,31.44,34.39,30.9,32.68,30.94Z" transform="translate(0 -6.75)"/>
  </g>
</svg>
