<svg id="레이어_1" data-name="레이어 1" xmlns="http://www.w3.org/2000/svg" viewBox="0 0 40 23.53">
  <defs>
    <style>
      .cls-1 {
        fill: #e3ca95;
      }

      .cls-1, .cls-2 {
        fill-rule: evenodd;
      }
    </style>
  </defs>
  <title>1</title>
  <g>
    <path class="cls-1" d="M6.53,16.57,3.19,17.82.56,21.62V25l2.12,3.37,5.16,1.4,9.84.62s13.61,0,13.81,0S37.56,28,37.56,28l2.34-3.8L39,20.47l-1.57-2.65-3.28-1.25-1.1-.76-2-2.68-3.42-1.3-3.07-.13-4-3.23-6.14-.79L11,9.13,8.23,11.74,6.94,14.88Z" transform="translate(0 -7.42)"/>
    <path class="cls-1" d="M5.92,28.52c-1.12-2.74-2.61-5.33-3.76-8.07-.26-.61-1.24-.33-1,.3A50,50,0,0,0,4.77,29C5.13,29.63,6.19,29.2,5.92,28.52Z" transform="translate(0 -7.42)"/>
    <path class="cls-1" d="M9.82,29c-1.46-3.73-3.47-7.32-5.21-10.93-.3-.62-1.17-.05-.9.56,1.64,3.61,3.08,7.41,5,10.88C9,30.12,10.08,29.66,9.82,29Z" transform="translate(0 -7.42)"/>
    <path class="cls-1" d="M13.9,29.26C12,25.14,9.62,21.19,7.62,17.09c-.31-.63-1.2-.05-.92.57A109.58,109.58,0,0,0,12.88,29.9C13.31,30.56,14.22,30,13.9,29.26Z" transform="translate(0 -7.42)"/>
    <path class="cls-1" d="M18.44,30.21C15.85,24.1,12,18.34,8.92,12.44c-.28-.53-1,0-.79.49,2.89,5.86,5.54,12.38,9.29,17.74C17.77,31.16,18.71,30.83,18.44,30.21Z" transform="translate(0 -7.42)"/>
    <path class="cls-1" d="M22.12,29.75c-3.19-6.86-7.3-13.42-11-20-.31-.56-1.14,0-.84.52C13.83,17,17,24,21,30.48,21.42,31.25,22.48,30.54,22.12,29.75Z" transform="translate(0 -7.42)"/>
    <path class="cls-1" d="M26.13,29.1c-3.89-6.92-7.88-13.77-11.91-20.6-.29-.5-1,0-.76.47q5.8,10.4,11.42,20.9C25.33,30.7,26.6,29.92,26.13,29.1Z" transform="translate(0 -7.42)"/>
    <path class="cls-1" d="M29.69,29.11C26.13,22,22.09,15.17,18,8.38c-.33-.56-1.18,0-.86.53,4,6.89,7.64,13.91,11.48,20.86C29,30.48,30,29.82,29.69,29.11Z" transform="translate(0 -7.42)"/>
    <path class="cls-1" d="M33.54,29.14c-3.4-6.44-7.17-12.7-11-18.87a.45.45,0,0,0-.76.47C25.48,17,29,23.41,32.44,29.83,32.84,30.57,33.93,29.88,33.54,29.14Z" transform="translate(0 -7.42)"/>
    <path class="cls-1" d="M36.68,28.19c-2.61-5.59-6-10.89-9.07-16.25-.27-.48-1,0-.72.44,2.88,5.46,5.51,11.2,8.82,16.41C36.12,29.43,37,28.84,36.68,28.19Z" transform="translate(0 -7.42)"/>
    <path class="cls-1" d="M38.75,26.76c-1.79-4.11-4.06-8.06-6.23-12-.29-.53-1.09,0-.8.51,2.1,3.93,3.93,8,6,11.93C38,27.77,39,27.35,38.75,26.76Z" transform="translate(0 -7.42)"/>
    <path class="cls-1" d="M38.55,21c-.56-1-1.15-2.06-1.75-3.08a.49.49,0,0,0-.83.51c.49.85,1,1.7,1.42,2.55.2.37.4.74.59,1.11s.73,1.09.7,1.37a.42.42,0,0,0,.3.5l.08,0a.5.5,0,0,0,.63-.5A6.5,6.5,0,0,0,38.55,21Z" transform="translate(0 -7.42)"/>
    <path class="cls-2" d="M39.89,22a7.23,7.23,0,0,0-1.59-3.67,7.72,7.72,0,0,0-3.83-2.18c-1.36-.48-1.9-2.24-3-3.16a7.56,7.56,0,0,0-3.95-1.71,7.07,7.07,0,0,0-1.78,0c-1.13.15-1.5-.37-2.28-1a12.06,12.06,0,0,0-3.63-2.09,10.08,10.08,0,0,0-9.25,1,9.49,9.49,0,0,0-4.1,7.18c-3.26-.19-6.1,3.13-6.4,6.37,0,0,0,0,0,0C-.4,25.6,1.48,28.06,4,29.44c3,1.64,6.59,1.53,9.9,1.5l12.52-.12c3.37,0,7.53.52,10.57-1.26C39.6,28,40.3,24.82,39.89,22ZM37,27.68c-2.35,2.16-6.35,1.6-9.28,1.63l-9.46.09c-4.52,0-12.22.93-15.63-2.79a.54.54,0,0,0-.14-.67c-3.07-2.77.54-9.22,4.47-8.22A.7.7,0,0,0,7.85,17c-.21-5.71,5.62-9.27,10.81-7.75a10.4,10.4,0,0,1,3.6,1.87c.84.68,1.49,1.8,2.69,1.74a9.09,9.09,0,0,1,3.37,0,6,6,0,0,1,3.3,2.45,4.6,4.6,0,0,0,2,2c1.48.65,2.75.73,3.77,2.14C38.93,21.66,39.07,25.8,37,27.68Z" transform="translate(0 -7.42)"/>
  </g>
</svg>
