<svg id="레이어_1" data-name="레이어 1" xmlns="http://www.w3.org/2000/svg" viewBox="0 0 31.36 40">
  <defs>
    <style>
      .cls-1 {
        fill: #1e1e29;
      }

      .cls-2 {
        fill: #ffcb9e;
      }

      .cls-3 {
        fill: #404048;
      }

      .cls-4 {
        fill: #141418;
      }

      .cls-11, .cls-27, .cls-28, .cls-5, .cls-6 {
        fill: #fff;
      }

      .cls-6 {
        opacity: 0.5;
      }

      .cls-7 {
        fill: #5e4684;
      }

      .cls-8 {
        fill: #121219;
      }

      .cls-9 {
        fill: #3a3a4a;
      }

      .cls-10, .cls-13, .cls-14, .cls-19, .cls-27 {
        opacity: 0.3;
      }

      .cls-11 {
        opacity: 0.25;
      }

      .cls-12 {
        fill: #4f3023;
      }

      .cls-13 {
        fill: #bf3c1b;
      }

      .cls-14 {
        fill: #c94614;
      }

      .cls-15 {
        fill: #693a27;
      }

      .cls-16 {
        fill: #bf795c;
      }

      .cls-17 {
        fill: #ffa073;
      }

      .cls-18 {
        fill: #224245;
      }

      .cls-19 {
        fill: #b54d26;
      }

      .cls-20 {
        fill: #ffdfc2;
      }

      .cls-21 {
        fill: #d4e6dd;
      }

      .cls-21, .cls-28 {
        opacity: 0.7;
      }

      .cls-22 {
        fill: #2b221c;
      }

      .cls-23 {
        fill: #f7a286;
      }

      .cls-24 {
        fill: #8f2724;
      }

      .cls-25 {
        fill: #fff9f0;
      }

      .cls-26 {
        fill: #e8dac5;
      }

      .cls-29 {
        fill: #c1c5c9;
      }
    </style>
  </defs>
  <title>1</title>
  <g>
    <path class="cls-1" d="M6.93,40h4.56L9.81,32.3C7.32,33.45,6.8,35.31,6.93,40Z" transform="translate(-4.94 0)"/>
    <g>
      <path class="cls-2" d="M29.23,25.26c-1.46,2.3.33,2.69,2.11,3.58.88.45,2,1.28,2.46-.19a20.49,20.49,0,0,0,.41-2.32,8,8,0,0,1,.73-2.3C36,22.33,33.76,18.12,29.23,25.26Z" transform="translate(-4.94 0)"/>
      <g>
        <path class="cls-3" d="M27.65,15.18a.68.68,0,0,0-1,.15l-3.44,4.43a.7.7,0,0,0,.09,1l7.85,6.16a.69.69,0,0,0,.95-.15l3.44-4.43a.68.68,0,0,0-.09-1Z" transform="translate(-4.94 0)"/>
        <path class="cls-4" d="M27.36,15a.67.67,0,0,0-.92.16l-3.37,4.34a.66.66,0,0,0,.08.93l7.48,5.87a.65.65,0,0,0,.92-.15l3.37-4.34a.68.68,0,0,0-.07-.94Z" transform="translate(-4.94 0)"/>
        <path class="cls-4" d="M27.36,15a.67.67,0,0,0-.92.16l-3.37,4.34a.66.66,0,0,0,.08.93l7.48,5.87a.65.65,0,0,0,.92-.15l3.37-4.34a.68.68,0,0,0-.07-.94Z" transform="translate(-4.94 0)"/>
        <path class="cls-5" d="M27.6,16.36a.49.49,0,0,0-.7.08l-2.46,3.17a.5.5,0,0,0,.09.7l5.79,4.54a.5.5,0,0,0,.7-.08l2.46-3.17a.5.5,0,0,0-.09-.7Z" transform="translate(-4.94 0)"/>
        <path class="cls-6" d="M26.44,15.14l-3.37,4.34a.66.66,0,0,0,.08.93l5.36,4.21a60,60,0,0,1,2.27-6.95L27.36,15A.67.67,0,0,0,26.44,15.14Z" transform="translate(-4.94 0)"/>
      </g>
      <path class="cls-2" d="M29.16,24.49c-.35-.28-1.32-.63-1.44,0-.09.38.56,1,.74,1.26.28.49,0,1.5.65,1.83s.86-.18,1-.63A2.4,2.4,0,0,0,29.16,24.49Z" transform="translate(-4.94 0)"/>
      <path class="cls-1" d="M31.11,29.13s1.65,3.51.75,4.5c-.74.81-1.06.46-3.37-.91-.61-.36-1.32,4.83-1.18,4.9,2.09,1.05,4.81,1.7,7.15-.35,4.15-3.63,0-10.89,0-10.89Z" transform="translate(-4.94 0)"/>
    </g>
    <g>
      <path class="cls-1" d="M10,32.2c-1.35.76.11,3.4,1,7.8H27c.71-3.3,2.31-7,1.14-7.89C24.8,29.77,13.33,30.27,10,32.2Z" transform="translate(-4.94 0)"/>
      <path class="cls-7" d="M14.17,30.68c-1,2.67,3.2,9.16,6,9.09s4.56-7.48,3.52-9.27S14.89,28.78,14.17,30.68Z" transform="translate(-4.94 0)"/>
      <path class="cls-8" d="M23.51,29.57c-.36.11.93,4.8-3.81,8.36A12.18,12.18,0,0,0,19.38,40h2.89a.12.12,0,0,1,.05,0,23.12,23.12,0,0,1,4.26-3c.06-.35-2.39-1.64-2.31-1.85s3.58-2,3.86-2.37S24.91,29.16,23.51,29.57Z" transform="translate(-4.94 0)"/>
      <path class="cls-9" d="M23.37,29.2c-.37.11.92,5-3.83,8.55A10.21,10.21,0,0,0,19.25,40h2.57c.08-.1.15-.2.23-.29a30.91,30.91,0,0,1,4.29-3.63c.06-.35-2.15-1-2.07-1.19s3.4-2.79,3.68-3.16S24.77,28.79,23.37,29.2Z" transform="translate(-4.94 0)"/>
      <path class="cls-8" d="M14.65,29.69c-1.76-.22-5,2.65-4.66,3.1s3.85,2.29,3.94,2.5-2.19,1.46-2.13,1.81c0,.15,3.16,1.29,5,2.9h3.8c-.11-.51-.23-1-.37-1.61C14.08,35.33,15,29.74,14.65,29.69Z" transform="translate(-4.94 0)"/>
      <path class="cls-9" d="M14.85,29.29c-1.76-.23-4.93,2-4.6,2.44s3.59,3,3.68,3.16-2.13.84-2.07,1.19a55.64,55.64,0,0,1,5.06,3.31l.67.61h3.52c-.1-.57-.22-1.19-.38-1.84C14.39,35.16,15.23,29.33,14.85,29.29Z" transform="translate(-4.94 0)"/>
      <path class="cls-10" d="M19.47,37.48a8.16,8.16,0,0,1,1.31.9A10.11,10.11,0,0,1,21.11,40h.11a5,5,0,0,0-.28-1.73A6,6,0,0,0,19.47,37.48Z" transform="translate(-4.94 0)"/>
      <path class="cls-10" d="M13.89,29.4c-.16,1.75,2.63,3.31,5.79,3.14s4.83-1.93,4.67-3.26S14,27.9,13.89,29.4Z" transform="translate(-4.94 0)"/>
      <path class="cls-11" d="M22.34,32.14a.76.76,0,0,0-.21,0c-.37.14-.69.42-1.06.57a6.29,6.29,0,0,1-3,.35c-.3,0-.59-.05-.89-.1-.46-.07-.82.21-.34.56a2,2,0,0,0,.5.26,2.67,2.67,0,0,0,.44.23c-.2,0-1.05-.16-.79.27.5.83,2.94.14,3.65-.09-.62.28-1.26.53-1.88.82-.8.37-.37.88.3,1A2.41,2.41,0,0,0,21,35.16a5,5,0,0,0,.83-1C22.05,33.87,23.24,32.17,22.34,32.14Z" transform="translate(-4.94 0)"/>
    </g>
    <g>
      <path class="cls-12" d="M25.57.47C19.91-.76,10.39.29,7.17,5.07a5.76,5.76,0,0,0-1,4.57c.41,1.69,1.63,2.82,3.49,2.27a3.74,3.74,0,0,1,2.57.13c1,.34,2,.89,3,1.15,1.67.41,3.44.2,5.11.56a8.84,8.84,0,0,1,3,1.62,8.52,8.52,0,0,1,2,1.74,3.91,3.91,0,0,0,1.32,1.36c.42.19,1.34.53,1.65.05a4.46,4.46,0,0,0,.14-1.47c0-.56,0-1.11.07-1.67.06-1.42.35-2.81.49-4.22a2.31,2.31,0,0,1,.32,1.78,6,6,0,0,0,2-2.59,7.5,7.5,0,0,0-.43-5.84A8,8,0,0,0,25.57.47Z" transform="translate(-4.94 0)"/>
      <path class="cls-2" d="M16,4.8C10.67,6.07,7.16,14,8.43,21.32c1,5.46,5.41,11.32,11.73,10.62S29.53,23,28.43,16.3C27.24,9,23.55,3,16,4.8Z" transform="translate(-4.94 0)"/>
      <path class="cls-13" d="M23.21,5.85a24.72,24.72,0,0,0-6.47-.74c-1.94,0-4,0-5.83.89-1,.48-2.17,1.13-2.5,2.21-.27.89-.58,2.07-.07,2.82,1.1,1.59,3.08.54,3.83.11,1.62-.93,9.19-.64,12.7-.78C26.33,10.3,28.44,10,27.75,8,27.21,6.46,24.61,6.2,23.21,5.85Z" transform="translate(-4.94 0)"/>
      <path class="cls-2" d="M6.43,18.34C3.8,19.18,5,23,7.22,23.73a5.39,5.39,0,0,0,2.15.15.43.43,0,0,1,0-.07c.3-.52-.26-3.34-.44-3.87C8.51,18.61,7.69,17.93,6.43,18.34Z" transform="translate(-4.94 0)"/>
      <path class="cls-14" d="M7.42,19.73c-.61-.25-2.08.31-1.34,1.45.33-1.1,1-.41,1,.36,0,.53-.6.55,0,1.2.31.35.91.19,1.21,0C9.15,22.07,8.16,20,7.42,19.73Z" transform="translate(-4.94 0)"/>
      <path class="cls-12" d="M25.86,3a5.06,5.06,0,0,0-1.35-.85,9.55,9.55,0,0,0-4.12-.67c-1.09,0-2.17-.15-3.27-.1a23.75,23.75,0,0,0-3.57.48,13.3,13.3,0,0,0-4,1.41c-1.06.63-1.43,2-1.89,3.1A4.52,4.52,0,0,0,7.46,8a24.89,24.89,0,0,0,.07,2.73c.14,1.6,2.29,1.77,3.15.58a3.79,3.79,0,0,1,3.05-1.4c2-.16,10.07-.85,12-.28,1.05.32,2.44.81,2.58-.86a7.29,7.29,0,0,0-.65-2.91A7.46,7.46,0,0,0,25.86,3Z" transform="translate(-4.94 0)"/>
      <path class="cls-15" d="M27.24,2.2C24.49.77,20.87.82,17.89,1.09A18.3,18.3,0,0,0,10.76,3.3,4.82,4.82,0,0,0,8.18,8.44a8.66,8.66,0,0,1,4.64-3c-.1.63-1.2,1.91-1.41,2.51C12.36,7.32,17,5,18.22,5c-.39.49-1.3,1.12-1.21,1.81,2-.42,4.18-1.67,6.29-1.61-.62.65-1.65.83-2.15,1.63,2-.06,4.26-.43,6.36-.54a8.61,8.61,0,0,0-1.89,1.19,21.38,21.38,0,0,1,5.31.16A7,7,0,0,0,27.24,2.2Z" transform="translate(-4.94 0)"/>
      <path class="cls-16" d="M7,11.26c-.7,1.22-.2,6.5,0,7C8.26,18.33,9.89,20,9.89,20c-.56-3.07-.15-4.75.33-8.2A14.5,14.5,0,0,1,7,11.26Z" transform="translate(-4.94 0)"/>
    </g>
    <g>
      <path class="cls-17" d="M28.18,19.59a2.42,2.42,0,0,0-2-.68c-.85,0-2,.35-1.17,1.55.42.63,3.81,1,3.37-.47A1.34,1.34,0,0,0,28.18,19.59Z" transform="translate(-4.94 0)"/>
      <path class="cls-17" d="M14.19,19.89A2.56,2.56,0,0,0,12,19.72c-.86.24-1.91.88-.79,1.88.59.54,4.14,0,3.31-1.35A1.37,1.37,0,0,0,14.19,19.89Z" transform="translate(-4.94 0)"/>
      <path class="cls-18" d="M13.46,16.32c-1.42-.55-2.2,2-1.22,2.75a2,2,0,0,1,1.39.06A1.71,1.71,0,0,0,13.46,16.32Z" transform="translate(-4.94 0)"/>
      <path class="cls-19" d="M20.26,20.53c-.82,0-1.15-.32-1.71,0s.3,1.42,1.74,1.31,2-1.12,1.7-1.48S21.16,20.49,20.26,20.53Z" transform="translate(-4.94 0)"/>
      <path class="cls-20" d="M19.92,17.46c-1.53-.07-1.52,3.18-1.16,3.45.88.65,2.66.09,3.16-.47C22.11,20.21,21.39,17.54,19.92,17.46Z" transform="translate(-4.94 0)"/>
      <path class="cls-18" d="M26.87,15.7c-1.45-.8-2.38,2-1.18,2.72a1.84,1.84,0,0,1,1.47-.06C27.7,17.71,27.65,16.13,26.87,15.7Z" transform="translate(-4.94 0)"/>
      <path class="cls-21" d="M12.81,17c-.55.21-.08,1.3.45.88S13.31,16.77,12.81,17Z" transform="translate(-4.94 0)"/>
      <path class="cls-21" d="M26.16,16.21c-.55.13-.24,1.22.32.89C26.88,16.86,26.65,16.09,26.16,16.21Z" transform="translate(-4.94 0)"/>
      <path class="cls-22" d="M16.74,13.3a12.52,12.52,0,0,0-3.29-.12c-1.69.17-2.82.72-2.68,1.08s1.36.2,3.27.28,3.08.42,3.33-.08A.75.75,0,0,0,16.74,13.3Z" transform="translate(-4.94 0)"/>
      <path class="cls-22" d="M26.07,12.75a10.32,10.32,0,0,0-2.92.29.76.76,0,0,0-.52,1.19c.24.48,1.39.08,3-.09s2.79-.09,2.9-.45S27.58,12.83,26.07,12.75Z" transform="translate(-4.94 0)"/>
      <g>
        <path class="cls-23" d="M15.23,23.68c-1.8.27-1.52.59-.86,1.51a7.23,7.23,0,0,0,7.53,2.44c1.87-.41,3.28-1.82,2.81-3.24l1.77-1.12A50.6,50.6,0,0,0,15.23,23.68Z" transform="translate(-4.94 0)"/>
        <path class="cls-24" d="M15.66,24c-1.09,0-1.49.21-.64,1.17a7.8,7.8,0,0,0,6.23,1.94c2.22-.27,3.39-1.79,3.09-3.07.23-.11.54-.32.85-.48C22.65,23.22,18.3,23.94,15.66,24Z" transform="translate(-4.94 0)"/>
        <path class="cls-25" d="M24.3,23.53a39.66,39.66,0,0,0-7.71.64c-.39.07-1.2.39-.73.66.85.48,7.59.2,7.9.07C24.25,24.68,24.91,23.55,24.3,23.53Z" transform="translate(-4.94 0)"/>
        <path class="cls-26" d="M24.42,23.47a71.6,71.6,0,0,0-9.08.53,1,1,0,0,0,.52.83,19.35,19.35,0,0,1,8.56-.65S25,23.5,24.42,23.47Z" transform="translate(-4.94 0)"/>
      </g>
    </g>
    <g>
      <path class="cls-19" d="M27.29,13.75a15,15,0,0,0-3,.51,13,13,0,0,0-2.58.76,3,3,0,0,1-1.85.6c-1.54,0-2.84-1-4.37-1.12a12.86,12.86,0,0,0-4.79.15c-.41.12-1.63.61-.79,1a7.34,7.34,0,0,0,2.92.28c.41,0,.83,0,1.24,0,1.46.11,3.69-.12,3.6,1.71a3,3,0,0,1-1.86,2.8,13.2,13.2,0,0,1-3,.35,5.08,5.08,0,0,1-2.17-.44c-.2-.08-.79-.45-1-.18-.32.45.87,1.18,1.19,1.32a7,7,0,0,0,2.23.47c1.9.17,3.86.05,4.9-1.72.61-1,.91-2.23,1.47-3.28.92-1.72,1.39.59,1.71,1.6A4.91,4.91,0,0,0,22,20.24a3.77,3.77,0,0,0,2.84,1.32,4.27,4.27,0,0,0,1.84-.27c.35-.15.49-.56.06-.72a3.6,3.6,0,0,0-.93,0,7.58,7.58,0,0,1-1.17-.08,3.4,3.4,0,0,1-1.42-.58,2.89,2.89,0,0,1-.74-.78A2.57,2.57,0,0,1,22.28,17c.33-1,1.39-1.07,2.27-1.16,1.06-.1,2.13-.1,3.19-.21a11.06,11.06,0,0,1,1.41,0c.61,0,1.91-.21,1.18-1.08S28.27,13.69,27.29,13.75Z" transform="translate(-4.94 0)"/>
      <path class="cls-9" d="M9.07,14.51c-1.24.13-2.33-.14-2.61.14s.39,1.42.39,1.42a2.09,2.09,0,0,0,1,.26c.14.87.26,3.13,2,4.43,1.42,1.09,5.79,1.12,7.09.33a5.31,5.31,0,0,0,2.4-4.16C19.75,13.09,10.83,14.33,9.07,14.51Zm7.85,5.55c-1.58,1.2-5.84,1-7-.28-.93-1-1.24-3.18-.74-3.53,1.51-1.07,7.49-1.14,8.94-.19C18.79,16.52,18.11,19.16,16.92,20.06Z" transform="translate(-4.94 0)"/>
      <path class="cls-9" d="M29.83,13.68c-1.59,0-9.71-.52-9,3.27a5.3,5.3,0,0,0,2.46,3.95c1.23.67,5.16.28,6.36-.93,1.43-1.44,1.37-3.7,1.44-4.57a1.88,1.88,0,0,0,.89-.35s.6-1.13.25-1.45S31,13.71,29.83,13.68ZM29.48,19c-1,1.38-4.8,1.93-6.31.87C22,19.07,21.23,16.5,21.83,16c1.24-1.07,6.62-1.5,8.06-.56C30.36,15.73,30.24,17.94,29.48,19Z" transform="translate(-4.94 0)"/>
      <path class="cls-27" d="M22.89,15.67c-.89.36.7.87,1,.93a12.1,12.1,0,0,0,3.84-.06c.67-.11,2.12-.69,1.72-1.07C28.92,14.94,23.87,15.27,22.89,15.67Z" transform="translate(-4.94 0)"/>
      <path class="cls-5" d="M26.84,15.53c-.48.07-.8.2-.67.42.25.44,3.07.26,3.27-.07S27.87,15.39,26.84,15.53Z" transform="translate(-4.94 0)"/>
      <path class="cls-28" d="M23.83,18.89c-.3,0-.51.05-.46.24.11.38,1.87.59,2,.36S24.47,18.9,23.83,18.89Z" transform="translate(-4.94 0)"/>
      <path class="cls-28" d="M10.83,19.39c-.31,0-.54,0-.49.22.08.38,1.91.7,2.09.48S11.51,19.45,10.83,19.39Z" transform="translate(-4.94 0)"/>
      <path class="cls-27" d="M17.41,15.89c-1.14-.32-6.71-.33-7.25.21-.38.38,1.3.84,2.06.9a15.31,15.31,0,0,0,4.2-.17C16.79,16.75,18.45,16.18,17.41,15.89Z" transform="translate(-4.94 0)"/>
      <path class="cls-5" d="M15,15.74c-.51.06-.85.18-.72.41.25.44,3.23.32,3.45,0S16.06,15.63,15,15.74Z" transform="translate(-4.94 0)"/>
      <path class="cls-9" d="M22,14.67a6.56,6.56,0,0,1-4,.14c-1.25-.33.67.75.82,1.38s0,2.7.41,1.54,1.2-1.23,1.76-.17.58-1.74.79-2S23.17,14.28,22,14.67Z" transform="translate(-4.94 0)"/>
      <path class="cls-29" d="M9.69,14.84c3.38-.08,6.09-.18,8.18.46C16.46,14.3,14.16,14.23,9.69,14.84Z" transform="translate(-4.94 0)"/>
      <path class="cls-29" d="M29.54,14c-4.13,0-6.06,0-7.19,1.06C24.16,14.22,26.46,14.34,29.54,14Z" transform="translate(-4.94 0)"/>
    </g>
  </g>
</svg>
