<svg xmlns="http://www.w3.org/2000/svg" xmlns:xlink="http://www.w3.org/1999/xlink" viewBox="0 0 40 40">
  <defs>
    <style>
      .cls-1 {
        isolation: isolate;
      }

      .cls-2 {
        fill: url(#linear-gradient);
      }

      .cls-3, .cls-4 {
        opacity: 0.25;
      }

      .cls-10, .cls-11, .cls-3, .cls-5 {
        mix-blend-mode: multiply;
      }

      .cls-3 {
        fill: url(#radial-gradient);
      }

      .cls-4 {
        fill: #fff;
      }

      .cls-5 {
        opacity: 0.35;
        fill: url(#linear-gradient-2);
      }

      .cls-10, .cls-11, .cls-6, .cls-7 {
        opacity: 0.5;
      }

      .cls-6, .cls-7 {
        mix-blend-mode: screen;
      }

      .cls-6 {
        fill: url(#radial-gradient-2);
      }

      .cls-7 {
        fill: url(#radial-gradient-3);
      }

      .cls-8 {
        fill: #5d4037;
      }

      .cls-9 {
        fill: #4e342e;
      }

      .cls-10 {
        fill: url(#linear-gradient-3);
      }

      .cls-11 {
        fill: url(#linear-gradient-4);
      }
    </style>
    <linearGradient id="linear-gradient" x1="20" y1="-0.67" x2="20" y2="40.75" gradientUnits="userSpaceOnUse">
      <stop offset="0" stop-color="#ffe082"/>
      <stop offset="1" stop-color="#ffbf66"/>
    </linearGradient>
    <radialGradient id="radial-gradient" cx="20" cy="20" r="20" gradientUnits="userSpaceOnUse">
      <stop offset="0.8" stop-color="#fff"/>
      <stop offset="1" stop-color="#ffbf66"/>
    </radialGradient>
    <linearGradient id="linear-gradient-2" x1="20" y1="17.63" x2="20" y2="40.41" xlink:href="#linear-gradient"/>
    <radialGradient id="radial-gradient-2" cx="30.46" cy="23.27" r="6.03" gradientUnits="userSpaceOnUse">
      <stop offset="0" stop-color="#fff"/>
      <stop offset="1"/>
    </radialGradient>
    <radialGradient id="radial-gradient-3" cx="-323.54" cy="23.27" r="6.03" gradientTransform="matrix(-1, 0, 0, 1, -314, 0)" xlink:href="#radial-gradient-2"/>
    <linearGradient id="linear-gradient-3" x1="22.84" y1="9.16" x2="31.59" y2="9.16" xlink:href="#linear-gradient"/>
    <linearGradient id="linear-gradient-4" x1="408.54" y1="9.16" x2="417.28" y2="9.16" gradientTransform="matrix(-1, 0, 0, 1, 425.81, 0)" xlink:href="#linear-gradient"/>
  </defs>
  <title>1</title>
  <g class="cls-1">
    <g id="레이어_1" data-name="레이어 1">
      <g>
        <g>
          <circle class="cls-2" cx="20" cy="20" r="20"/>
          <circle class="cls-3" cx="20" cy="20" r="20"/>
          <path class="cls-4" d="M36.5,15.12c0,7.43-7.39,0-16.5,0s-16.5,7.43-16.5,0S10.89,1.67,20,1.67,36.5,7.69,36.5,15.12Z"/>
          <path class="cls-5" d="M20,36A20,20,0,0,1,.1,18,18.86,18.86,0,0,0,0,20a20,20,0,0,0,40,0,18.86,18.86,0,0,0-.1-2A20,20,0,0,1,20,36Z"/>
          <circle class="cls-6" cx="30.46" cy="23.41" r="6.35"/>
          <circle class="cls-7" cx="9.54" cy="23.41" r="6.35"/>
        </g>
        <g>
          <g>
            <path class="cls-4" d="M15.41,21.74A2,2,0,0,1,14,21.15l-.95-.94-1,.94a2,2,0,0,1-2.82,0,2,2,0,0,1,0-2.83l.94-.94-.94-.95a2,2,0,0,1,2.83-2.83l.94,1,.95-1a2,2,0,0,1,2.82,2.83l-.94.95.94.94a2,2,0,0,1,0,2.83A2,2,0,0,1,15.41,21.74Z"/>
            <path class="cls-8" d="M14.94,17.38,16.35,16a1.33,1.33,0,0,0-1.88-1.88l-1.42,1.41-1.42-1.41A1.33,1.33,0,0,0,9.75,16l1.41,1.42L9.75,18.8a1.33,1.33,0,1,0,1.88,1.88l1.42-1.42,1.42,1.42a1.33,1.33,0,1,0,1.88-1.88Z"/>
            <path class="cls-9" d="M9.75,18.8a1.32,1.32,0,0,0-.21,1.6,1.31,1.31,0,0,1,.21-.27l1.41-1.42-.66-.66Zm6.6-3.39a1.14,1.14,0,0,1,.21.28,1.33,1.33,0,0,0-2.09-1.61l-1.42,1.41-1.42-1.41a1.33,1.33,0,0,0-2.09,1.61,1.14,1.14,0,0,1,.21-.28,1.33,1.33,0,0,1,1.88,0l1.42,1.42,1.42-1.42A1.33,1.33,0,0,1,16.35,15.41Zm-.75,2.64-.66.66,1.41,1.42a1.31,1.31,0,0,1,.21.27,1.32,1.32,0,0,0-.21-1.6Z"/>
          </g>
          <g>
            <path class="cls-4" d="M24.59,21.74A2,2,0,0,0,26,21.15l.95-.94.95.94a2,2,0,0,0,2.82,0,2,2,0,0,0,0-2.83l-.94-.94.94-.95a2,2,0,0,0-2.83-2.83l-.94,1-.95-1a2,2,0,0,0-2.82,2.83l.94.95-.94.94a2,2,0,0,0,0,2.83A2,2,0,0,0,24.59,21.74Z"/>
            <path class="cls-8" d="M25.06,17.38,23.65,16a1.33,1.33,0,1,1,1.88-1.88L27,15.49l1.42-1.41A1.33,1.33,0,1,1,30.25,16l-1.41,1.42,1.41,1.42a1.33,1.33,0,1,1-1.88,1.88L27,19.26l-1.42,1.42a1.33,1.33,0,1,1-1.88-1.88Z"/>
            <path class="cls-9" d="M29.5,18.05l-.66.66,1.41,1.42a1.31,1.31,0,0,1,.21.27,1.32,1.32,0,0,0-.21-1.6Zm-4-2.64L27,16.83l1.42-1.42a1.33,1.33,0,0,1,1.88,0,1.14,1.14,0,0,1,.21.28,1.33,1.33,0,0,0-2.09-1.61L27,15.49l-1.42-1.41a1.33,1.33,0,0,0-2.09,1.61,1.14,1.14,0,0,1,.21-.28A1.33,1.33,0,0,1,25.53,15.41ZM23.65,18.8a1.32,1.32,0,0,0-.21,1.6,1.31,1.31,0,0,1,.21-.27l1.41-1.42-.66-.66Z"/>
          </g>
        </g>
        <g>
          <path class="cls-4" d="M20,34a4.61,4.61,0,0,1-4.79-4.37A4.61,4.61,0,0,1,20,25.3a4.61,4.61,0,0,1,4.79,4.37A4.61,4.61,0,0,1,20,34Z"/>
          <ellipse class="cls-8" cx="19.98" cy="29.67" rx="4.13" ry="3.7"/>
          <path class="cls-9" d="M20,27.3a4.1,4.1,0,0,1,4.06,3,3.51,3.51,0,0,0,.07-.66A4,4,0,0,0,20,26a4,4,0,0,0-4.13,3.7,3.51,3.51,0,0,0,.07.66A4.1,4.1,0,0,1,20,27.3Z"/>
        </g>
        <g>
          <g>
            <path class="cls-10" d="M24.42,7c2.67.72,5.73,1.72,7.17,4.3-1.6-1.52-3.95-1.9-6.07-1.88-.77,0-2,.27-2.49-.52A1.28,1.28,0,0,1,24.42,7C27.06,7.75,23.47,6.78,24.42,7Z"/>
            <path class="cls-8" d="M24.42,6.37c2.67.72,5.73,1.72,7.17,4.3C30,9.15,27.64,8.78,25.52,8.79c-.77,0-2,.27-2.49-.51a1.28,1.28,0,0,1,1.39-1.91C27.06,7.08,23.47,6.11,24.42,6.37Z"/>
          </g>
          <g>
            <path class="cls-11" d="M15.7,7C13,7.76,10,8.76,8.53,11.34c1.59-1.52,3.94-1.9,6.06-1.88.78,0,2,.27,2.49-.52A1.27,1.27,0,0,0,15.7,7C13.06,7.75,16.64,6.78,15.7,7Z"/>
            <path class="cls-8" d="M15.7,6.37C13,7.09,10,8.09,8.53,10.67c1.59-1.52,3.94-1.89,6.06-1.88.78,0,2,.27,2.49-.51A1.28,1.28,0,0,0,15.7,6.37C13.06,7.08,16.64,6.11,15.7,6.37Z"/>
          </g>
        </g>
      </g>
    </g>
  </g>
</svg>
