<svg xmlns="http://www.w3.org/2000/svg" xmlns:xlink="http://www.w3.org/1999/xlink" viewBox="0 0 40 40">
  <defs>
    <style>
      .cls-1 {
        isolation: isolate;
      }

      .cls-2 {
        fill: url(#linear-gradient);
      }

      .cls-3, .cls-4, .cls-9 {
        opacity: 0.25;
      }

      .cls-10, .cls-11, .cls-3, .cls-5, .cls-9 {
        mix-blend-mode: multiply;
      }

      .cls-3 {
        fill: url(#radial-gradient);
      }

      .cls-4 {
        fill: #fff;
      }

      .cls-5 {
        opacity: 0.35;
        fill: url(#linear-gradient-2);
      }

      .cls-6 {
        fill: #5d4037;
      }

      .cls-7 {
        fill: #4e342e;
      }

      .cls-8, .cls-9 {
        fill: #d95957;
      }

      .cls-10, .cls-11 {
        opacity: 0.5;
      }

      .cls-10 {
        fill: url(#linear-gradient-3);
      }

      .cls-11 {
        fill: url(#linear-gradient-4);
      }
    </style>
    <linearGradient id="linear-gradient" x1="20" y1="-0.67" x2="20" y2="40.75" gradientUnits="userSpaceOnUse">
      <stop offset="0" stop-color="#ffe082"/>
      <stop offset="1" stop-color="#ffbf66"/>
    </linearGradient>
    <radialGradient id="radial-gradient" cx="20" cy="20" r="20" gradientUnits="userSpaceOnUse">
      <stop offset="0.8" stop-color="#fff"/>
      <stop offset="1" stop-color="#ffbf66"/>
    </radialGradient>
    <linearGradient id="linear-gradient-2" x1="20" y1="17.63" x2="20" y2="40.41" xlink:href="#linear-gradient"/>
    <linearGradient id="linear-gradient-3" x1="410" y1="9.49" x2="418.75" y2="9.49" gradientTransform="matrix(-1, 0, 0, 1, 425.81, 0)" xlink:href="#linear-gradient"/>
    <linearGradient id="linear-gradient-4" x1="344" y1="9.49" x2="352.75" y2="9.49" gradientTransform="translate(-319.81)" xlink:href="#linear-gradient"/>
  </defs>
  <title>1</title>
  <g class="cls-1">
    <g id="레이어_1" data-name="레이어 1">
      <g>
        <g>
          <circle class="cls-2" cx="20" cy="20" r="20"/>
          <circle class="cls-3" cx="20" cy="20" r="20"/>
          <path class="cls-4" d="M36.5,15.12c0,7.43-7.39,0-16.5,0s-16.5,7.43-16.5,0S10.89,1.67,20,1.67,36.5,7.69,36.5,15.12Z"/>
          <path class="cls-5" d="M20,36A20,20,0,0,1,.1,18,18.86,18.86,0,0,0,0,20a20,20,0,0,0,40,0,18.86,18.86,0,0,0-.1-2A20,20,0,0,1,20,36Z"/>
        </g>
        <g>
          <path class="cls-4" d="M30.16,18.52a18.41,18.41,0,0,1-2.48-.19,11.41,11.41,0,0,1-2.8-.41c-1.81-.47-2.53-.9-2.61-1.55a1,1,0,0,1,.59-1,8.27,8.27,0,0,1,3.85-.89,10.71,10.71,0,0,1,4.35.95l.08,0A3.36,3.36,0,0,1,33,16.87a1,1,0,0,1,0,.95,1.61,1.61,0,0,1-1.33.62A14.21,14.21,0,0,1,30.16,18.52Z"/>
          <path class="cls-6" d="M23.18,16a8.94,8.94,0,0,1,7.6.09c.44.2,1.36.6,1.57,1.09s-.56.61-.88.64a15.43,15.43,0,0,1-3.78-.12c.09,0,0,0,0,0a10.5,10.5,0,0,1-2.67-.38C24.84,17.22,22.09,16.57,23.18,16Z"/>
          <path class="cls-4" d="M10,18.52a11.06,11.06,0,0,1-1.56-.1c-.09,0-1.08-.13-1.31-.86a1,1,0,0,1,.37-1.09,7.62,7.62,0,0,1,2.36-1.34,9,9,0,0,1,3.33-.6h.41a9.56,9.56,0,0,1,2.88.48c.51.18,1.38.59,1.42,1.3a1,1,0,0,1-.63,1,12,12,0,0,1-4.78,1A17.46,17.46,0,0,1,10,18.52Z"/>
          <path class="cls-6" d="M16.94,16.69a11.42,11.42,0,0,1-4.54,1s0,0,0,0a14.94,14.94,0,0,1-3.95.1c-.39,0-1.12-.32-.58-.79a6.84,6.84,0,0,1,2.15-1.22,8.64,8.64,0,0,1,3.48-.54,8.59,8.59,0,0,1,2.67.44C16.51,15.75,17.75,16.27,16.94,16.69Z"/>
          <path class="cls-7" d="M31.56,17.77c-.28-.16-.59-.3-.79-.39A9.25,9.25,0,0,0,24,17c-.73-.26-1.44-.63-.79-1a8.92,8.92,0,0,1,7.59.09c.44.2,1.37.6,1.59,1.08S31.92,17.73,31.56,17.77Z"/>
          <path class="cls-7" d="M16.94,16.69l-.71.29h0a8.59,8.59,0,0,0-2.67-.44,8.57,8.57,0,0,0-3.47.54,8.75,8.75,0,0,0-1.45.69H8.49c-.37,0-1.11-.32-.57-.79a6.68,6.68,0,0,1,2.16-1.22,8.57,8.57,0,0,1,3.47-.54,8.3,8.3,0,0,1,2.67.44C16.51,15.75,17.75,16.27,16.94,16.69Z"/>
        </g>
        <g>
          <path class="cls-4" d="M20,33.48a13.18,13.18,0,0,1-9.36-3.62l-.14-.14c-.71-.68-2-1.95-1.91-3.16a1.62,1.62,0,0,1,.76-1.19,1.64,1.64,0,0,1,.88-.26,2.75,2.75,0,0,1,1.3.43l.36.19a16.16,16.16,0,0,0,2,1,15.79,15.79,0,0,0,6,1.18h.15a15.81,15.81,0,0,0,6-1.17,17.25,17.25,0,0,0,2-1l.32-.17a2.85,2.85,0,0,1,1.34-.45,1.61,1.61,0,0,1,.87.26,1.56,1.56,0,0,1,.76,1.19c.12,1.21-1.2,2.48-1.9,3.16l-.14.14a13.15,13.15,0,0,1-9.3,3.62Z"/>
          <path class="cls-6" d="M30.27,25.93c-.75-.48-1.75.34-2.4.68a17,17,0,0,1-3,1.24,17.11,17.11,0,0,1-6.12.67,16.41,16.41,0,0,1-6-1.57,8.29,8.29,0,0,0-2.46-1.17,1,1,0,0,0-1,1.19c.24,1.08,1.35,2,2.14,2.71A11.93,11.93,0,0,0,16,32.24a13.71,13.71,0,0,0,10.3-1c.87-.47,6-4,4-5.34Z"/>
          <path class="cls-7" d="M9.71,27.27c.53-.34,1-.05,1.53.21a20.88,20.88,0,0,0,2.42,1.19A16.31,16.31,0,0,0,20,29.89a16.38,16.38,0,0,0,6.33-1.22,21.7,21.7,0,0,0,2.42-1.19c.48-.26,1-.55,1.53-.21a1.21,1.21,0,0,1,.24.2c.3-.58.36-1.15-.24-1.54s-1.05,0-1.53.22a21.7,21.7,0,0,1-2.42,1.19,17,17,0,0,1-12.66,0,20.88,20.88,0,0,1-2.42-1.19c-.48-.26-1-.56-1.53-.22s-.55,1-.24,1.54A1,1,0,0,1,9.71,27.27Z"/>
          <path class="cls-8" d="M20,32.81a13.48,13.48,0,0,0,5.07-1c-.7-1.23-2.7-2.12-5.07-2.12s-4.37.89-5.08,2.12A13.57,13.57,0,0,0,20,32.81Z"/>
          <path class="cls-9" d="M24.54,31.21A11.69,11.69,0,0,1,20,32.34a11.65,11.65,0,0,1-4.55-1.13,2.86,2.86,0,0,0-.53.64,13.89,13.89,0,0,0,10.15,0A2.81,2.81,0,0,0,24.54,31.21Z"/>
        </g>
        <g>
          <path class="cls-10" d="M14.23,7.36c-2.67.72-5.73,1.72-7.17,4.3,1.6-1.52,4-1.89,6.07-1.88.78,0,2,.27,2.49-.51a1.28,1.28,0,0,0-1.39-1.91C11.59,8.07,15.18,7.1,14.23,7.36Z"/>
          <path class="cls-6" d="M14.23,6.69C11.56,7.41,8.5,8.42,7.06,11c1.6-1.52,4-1.9,6.07-1.89.78,0,2,.28,2.49-.51a1.28,1.28,0,0,0-1.39-1.91C11.59,7.4,15.18,6.44,14.23,6.69Z"/>
        </g>
        <g>
          <path class="cls-11" d="M25.77,7.36c2.67.72,5.73,1.72,7.17,4.3-1.6-1.52-3.95-1.89-6.07-1.88-.78,0-2,.27-2.49-.51a1.28,1.28,0,0,1,1.39-1.91C28.41,8.07,24.82,7.1,25.77,7.36Z"/>
          <path class="cls-6" d="M25.77,6.69c2.67.72,5.73,1.73,7.17,4.31C31.34,9.48,29,9.1,26.87,9.11c-.78,0-2,.28-2.49-.51a1.28,1.28,0,0,1,1.39-1.91C28.41,7.4,24.82,6.44,25.77,6.69Z"/>
        </g>
      </g>
    </g>
  </g>
</svg>
