<svg id="레이어_1" data-name="레이어 1" xmlns="http://www.w3.org/2000/svg" viewBox="0 0 40 40">
  <defs>
    <style>
      .cls-1 {
        stroke: #000;
        stroke-miterlimit: 10;
        stroke-width: 0.75px;
      }
    </style>
  </defs>
  <title>1</title>
  <path d="M20,40A20,20,0,1,1,40,20,20,20,0,0,1,20,40ZM20,3.66A16.34,16.34,0,1,0,36.34,20,16.36,16.36,0,0,0,20,3.66Z"/>
  <path class="cls-1" d="M13.84,26.83a8,8,0,0,0,2.78,1.53,11.26,11.26,0,0,0,3.13.4,4.92,4.92,0,0,0,1.75-.36,4.11,4.11,0,0,0,1.37-.93,4,4,0,0,0,.9-1.38,4.74,4.74,0,0,0,.32-1.75,3.53,3.53,0,0,0-1.37-3,6.18,6.18,0,0,0-3.84-1.05,19,19,0,0,0-4.76.62L14.8,9.67H26.42v2.77H17.79l-.36,5.43h.08c.38-.06.78-.1,1.21-.14s.87-.06,1.34-.06a9.68,9.68,0,0,1,3.11.47,6.82,6.82,0,0,1,2.34,1.3,5.77,5.77,0,0,1,1.48,2,6.37,6.37,0,0,1,.52,2.61A7.63,7.63,0,0,1,27,27a6.87,6.87,0,0,1-1.55,2.36,7.14,7.14,0,0,1-2.47,1.56,8.61,8.61,0,0,1-3.24.58A12.22,12.22,0,0,1,16.38,31a9.43,9.43,0,0,1-2.93-1.41V27a.23.23,0,0,1,.13-.24A.22.22,0,0,1,13.84,26.83Z"/>
</svg>
