<svg id="레이어_1" data-name="레이어 1" xmlns="http://www.w3.org/2000/svg" viewBox="0 0 27.12 39.92">
  <defs>
    <style>
      .cls-1 {
        fill: #313142;
      }

      .cls-2 {
        fill: #379bdb;
      }

      .cls-3 {
        fill: #1e1e29;
      }

      .cls-4 {
        fill: #3c3c4d;
      }

      .cls-5 {
        fill: #f7b07c;
      }

      .cls-6 {
        fill: #f06799;
      }

      .cls-7 {
        fill: #f5f5f5;
      }

      .cls-8 {
        fill: #4f2c1e;
      }

      .cls-9 {
        fill: #ffcb9e;
      }

      .cls-10 {
        fill: #bf3c1b;
        opacity: 0.3;
      }

      .cls-11 {
        fill: #693a27;
      }

      .cls-12 {
        fill: #121b21;
      }

      .cls-13 {
        fill: #ffdfc2;
      }

      .cls-14 {
        fill: #7d8ba8;
      }

      .cls-15 {
        fill: #ffa073;
      }

      .cls-16 {
        fill: #c20902;
        opacity: 0.5;
      }
    </style>
  </defs>
  <title>1</title>
  <g>
    <path class="cls-1" d="M16,33.71,15.72,30c-5.25,1.22-7,5.42-7.34,9.91h5.44C13.93,38.5,14.4,34.47,16,33.71Z" transform="translate(-6.44)"/>
    <path class="cls-1" d="M24.36,30l-.28,3.7c1.6.76,2.07,4.79,2.18,6.21H31.7C31.36,35.43,29.61,31.23,24.36,30Z" transform="translate(-6.44)"/>
    <path class="cls-1" d="M26.93,31.7c-1.52-3.48-10.94-3.85-13.74-.11-1.29,1.74-.87,5.31-.17,8.33H26.74C27.38,37.08,27.81,33.74,26.93,31.7Z" transform="translate(-6.44)"/>
    <path class="cls-2" d="M21.69,33.94a1.73,1.73,0,0,0-2-.89,1.82,1.82,0,0,0-1.51,1.39l1.09,1.11-.89,4.37h3.53l-1.3-4.35Z" transform="translate(-6.44)"/>
    <path class="cls-3" d="M15.1,31.77a6.62,6.62,0,0,0,2.89,4L20,33.58l2.18,2c2.08-2,2.54-2.44,2.7-4.21S14.53,29.32,15.1,31.77Z" transform="translate(-6.44)"/>
    <path class="cls-4" d="M15.16,29.91c-1,2.86,2.68,5.19,2.68,5.19L20,33.58,22.09,35s4.07-2.32,2.53-5.65C23.24,26.35,16.34,26.59,15.16,29.91Z" transform="translate(-6.44)"/>
    <path class="cls-5" d="M18.4,26.5a3.16,3.16,0,0,0-2.34,2.92,2.45,2.45,0,0,0,.66,2.19,4.53,4.53,0,0,0,1.79,1c.5.15,1.37.74,1.52.74s.35-.25.82-.49a4.54,4.54,0,0,0,2-1.57c.56-1.09,1.05-3.25,0-4.1A6.06,6.06,0,0,0,18.4,26.5Z" transform="translate(-6.44)"/>
    <path class="cls-6" d="M22.23,35.66c-.29,0-.32,3.24.09,3.34a46.57,46.57,0,0,0,5-.06,6.53,6.53,0,0,0,0-3.2A39,39,0,0,0,22.23,35.66Z" transform="translate(-6.44)"/>
    <path class="cls-7" d="M27,36.22c-.24-.09-4.45,0-4.45,0-.26,0-.28,1.25.07,1.28s4.16,0,4.37,0S27.24,36.3,27,36.22Z" transform="translate(-6.44)"/>
    <g>
      <g>
        <path class="cls-8" d="M30.28,9.72C31,3.71,26.11-.63,17.65.12,2.88,1.42,5.54,22,9.74,21.09c3.11-.69,6.17-1.61,9.25-2.41,2.86-.74,6.06-.22,9-.05,2.3.14,2.26-.84,2.35-2.72C30.52,12.41,30.13,11.14,30.28,9.72Z" transform="translate(-6.44)"/>
        <path class="cls-9" d="M18.2,4.5c-5.42,1.11-9.18,9-8.11,16.34.8,5.51,5.08,11.52,11.45,11s9.66-8.66,8.76-15.43C29.32,9.05,25.79,2.94,18.2,4.5Z" transform="translate(-6.44)"/>
        <path class="cls-9" d="M8.17,17.79c-2.66.77-1.56,4.67.63,5.43a5.09,5.09,0,0,0,2.15.22.21.21,0,0,0,0-.06c.32-.52-.28-3.12-.44-3.65C10.12,18.38,9.44,17.43,8.17,17.79Z" transform="translate(-6.44)"/>
        <path class="cls-10" d="M18.61,4.61c-2.17,0-5.41-.11-7.12,1.5C10.11,7.4,10,9.8,10,11.56c0,.67,0,5.8.41,4.68.68-2,2.3-2.8,2.23-4.9,3.15,1.37,7.86,1.2,12,.74,2.57-.29,4.62-.95,5.16,1.2-.32-1.62-1.77-6.45-2.21-6.7A17.41,17.41,0,0,0,18.61,4.61Z" transform="translate(-6.44)"/>
        <path class="cls-10" d="M9.12,19.23c-.61-.27-2.1.24-1.38,1.41.36-1.1,1-.39.93.39-.06.52-.62.53-.06,1.2.3.36.91.22,1.21,0C10.78,21.63,9.85,19.56,9.12,19.23Z" transform="translate(-6.44)"/>
        <path class="cls-8" d="M32.83,1.37c-3.44,2.85-9.16-3.25-17-.76C5,4,9.22,15.45,9.29,16.83A6.82,6.82,0,0,0,10.43,20a2.57,2.57,0,0,0,1.46,0c-1-.9-1.4-3.36-.64-5.69.42-1.29,1.05-2.21.88-3.95,1,.86,7.77,2.06,16.23.16a8.13,8.13,0,0,0,5.2-3.65,17.88,17.88,0,0,0-2.07.27C32.71,5.79,32.83,3.24,32.83,1.37Z" transform="translate(-6.44)"/>
        <path class="cls-11" d="M23.89,1.21C20,.17,14.08.14,11.09,3.37s-.34,6,10,5.68c9.44-.25,11.3-7,11.3-7C29.59,3.46,27.78,2.25,23.89,1.21Z" transform="translate(-6.44)"/>
        <path class="cls-8" d="M8.76,17.72c.94.05,1.09,1.88,1.77,2.34A2.43,2.43,0,0,0,11.89,20c-.72-1-.93-3.67-1-4.4C10.45,16.67,7.9,17.68,8.76,17.72Z" transform="translate(-6.44)"/>
      </g>
      <g>
        <path class="cls-12" d="M15.48,16.06c-1.4-.59-2.26,1.91-1.3,2.72a2,2,0,0,1,1.39.1A1.71,1.71,0,0,0,15.48,16.06Z" transform="translate(-6.44)"/>
        <path class="cls-10" d="M21.92,20.1c-.71,0-1-.24-1.48,0s.23,1.29,1.47,1.21,1.79-1.07,1.5-1.33S22.69,20.06,21.92,20.1Z" transform="translate(-6.44)"/>
        <path class="cls-13" d="M21.42,16.12c-.61.05-.7,1.71-.9,2.49s-.33,1.53,0,1.76a2.93,2.93,0,0,0,2.9-.27c.19-.17-.27-1-.64-1.77S22.11,16.07,21.42,16.12Z" transform="translate(-6.44)"/>
        <path class="cls-12" d="M28.12,15.84c-1.45-.75-2.53,2.32-.94,2.68a1.89,1.89,0,0,1,1.22-.37A1.62,1.62,0,0,0,28.12,15.84Z" transform="translate(-6.44)"/>
        <path class="cls-14" d="M15.08,16.42c-.56.2-.12,1.3.43.9S15.59,16.24,15.08,16.42Z" transform="translate(-6.44)"/>
        <path class="cls-14" d="M27.76,16.24c-.54.14-.21,1.21.33.87S28.24,16.12,27.76,16.24Z" transform="translate(-6.44)"/>
        <path class="cls-8" d="M27.19,13.34c-1-.11-1.81-.28-1.81-.24-.06.59.08,1.82.87,1.82a13.79,13.79,0,0,1,1.43-.06,5.11,5.11,0,0,1,1.72.44c.34.15.48-.36.35-.52A3.31,3.31,0,0,0,27.19,13.34Z" transform="translate(-6.44)"/>
        <path class="cls-8" d="M15.21,13.5a3.52,3.52,0,0,0-2.53,1.79c-.1.17.13.67.48.47a5.81,5.81,0,0,1,1.78-.68c.5-.1,1.05-.08,1.56-.14.86-.1.79-1.35.63-1.92C17.11,13,16.31,13.25,15.21,13.5Z" transform="translate(-6.44)"/>
        <path class="cls-15" d="M29,19.9A2.15,2.15,0,0,0,27,19.35c-.84.14-1.92.7-1,2,.49.7,3.92.69,3.31-1A1.43,1.43,0,0,0,29,19.9Z" transform="translate(-6.44)"/>
        <path class="cls-15" d="M16.47,20.14a2.27,2.27,0,0,0-2.2-.48c-.88.18-2,.8-1,2.14.53.71,4.13.56,3.44-1.2A1.84,1.84,0,0,0,16.47,20.14Z" transform="translate(-6.44)"/>
        <path class="cls-16" d="M25.85,23.69c-.17.18-4.28,4.2-10.14.12a.55.55,0,0,0-.72.07.44.44,0,0,0,.12.65,10.9,10.9,0,0,0,4.05,1.83,8.41,8.41,0,0,0,4.23-.17,8.2,8.2,0,0,0,3.25-1.87.42.42,0,0,0-.06-.65A.56.56,0,0,0,25.85,23.69Z" transform="translate(-6.44)"/>
      </g>
    </g>
  </g>
</svg>
