<svg id="레이어_1" data-name="레이어 1" xmlns="http://www.w3.org/2000/svg" viewBox="0 0 40 35.16">
  <defs>
    <style>
      .cls-1 {
        fill: #576d64;
      }

      .cls-1, .cls-2, .cls-3, .cls-4 {
        fill-rule: evenodd;
      }

      .cls-2 {
        fill: #ff9500;
      }

      .cls-3 {
        fill: #fff;
      }
    </style>
  </defs>
  <title>1</title>
  <g>
    <polygon class="cls-1" points="1.46 4.7 1.31 1.38 2.17 0.52 3.06 0.53 3.5 1.44 3.62 3.98 1.46 4.7"/>
    <polygon class="cls-1" points="2.44 17.31 1.44 17.31 1.46 33.38 2.56 34.48 3.78 32.8 3.78 18.7 2.92 17.35 2.44 17.31"/>
    <polygon class="cls-2" points="5.33 3.77 1.14 5.32 0.64 9.93 1.66 16.52 4.28 19.63 8.44 20.97 11.84 20.97 18.23 18.7 20.83 18.48 23.82 19.38 27.08 20.7 30.17 21.37 34.72 20.47 37.65 18.24 38.91 14.12 39.22 7.35 38.91 4.75 28.91 3.08 16.55 2.52 5.33 3.77"/>
    <polygon class="cls-3" points="4.28 9.5 7.67 12.62 10.81 13.13 15.2 11.31 16.55 10.6 15.66 9.28 7.89 7.57 4.28 9.5"/>
    <polygon class="cls-3" points="23.64 10.73 26.59 8.38 30.59 7.73 34.57 8.98 34.72 10.3 31.52 12.55 28.65 12.89 25.31 11.93 23.64 10.73"/>
    <path class="cls-2" d="M3.82,6.67C2.71,8.3,1.58,9.92.5,11.58c-.45.7.67,1.29,1.13.62C2.74,10.57,3.8,8.9,4.88,7.25,5.31,6.59,4.25,6,3.82,6.67Z" transform="translate(0 -2.41)"/>
    <path class="cls-2" d="M7.63,6.15C5.08,9.31,2.13,12.89.68,16.71c-.25.67.73.91,1.08.42,1.11-1.58,1.9-3.39,2.92-5C5.81,10.28,7,8.52,8.33,6.82c.37-.49-.3-1.16-.7-.67Z" transform="translate(0 -2.41)"/>
    <path class="cls-2" d="M11,5.75C10.3,6.87,9.51,8,8.87,9.14c-.37.68.61,1.17,1,.57.78-1.08,1.43-2.26,2.13-3.39C12.43,5.68,11.42,5.13,11,5.75Z" transform="translate(0 -2.41)"/>
    <path class="cls-2" d="M5.92,14.64c-.63.87-1.24,1.75-1.82,2.66A7.39,7.39,0,0,0,2.74,20a.56.56,0,0,0,.95.52,10.41,10.41,0,0,0,1.57-2.54C5.8,17,6.38,16.11,7,15.23,7.44,14.57,6.38,14,5.92,14.64Z" transform="translate(0 -2.41)"/>
    <path class="cls-2" d="M15.63,5.18c-.46.9-1,1.79-1.48,2.65a27.59,27.59,0,0,0-1.64,2.55.5.5,0,0,0,.8.58c1.42-1.35,2.35-3.54,3.19-5.3.27-.57-.59-1-.88-.48Z" transform="translate(0 -2.41)"/>
    <path class="cls-2" d="M9.7,15.71,7.46,19.19a16,16,0,0,0-1.89,3.24c-.2.55.58.89.94.52A15.87,15.87,0,0,0,8.58,19.8l2.14-3.53C11.11,15.62,10.1,15.08,9.7,15.71Z" transform="translate(0 -2.41)"/>
    <path class="cls-2" d="M22.82,5c-2.52,5.61-5.44,11-8.14,16.53a.58.58,0,0,0,1,.56A137,137,0,0,0,23.6,5.46C23.83,4.93,23.06,4.48,22.82,5Z" transform="translate(0 -2.41)"/>
    <path class="cls-2" d="M26.44,5.55c-2.45,4.94-5.2,9.7-7.8,14.56a.58.58,0,0,0,1,.57A153.24,153.24,0,0,0,27.24,6C27.49,5.46,26.7,5,26.44,5.55Z" transform="translate(0 -2.41)"/>
    <path class="cls-2" d="M30,5.76c-.4.73-.8,1.46-1.21,2.19a4.34,4.34,0,0,0-.84,2,.42.42,0,0,0,.63.35c.61-.38.85-1.16,1.18-1.77L31,6.27A.53.53,0,0,0,30,5.76Z" transform="translate(0 -2.41)"/>
    <path class="cls-2" d="M25.94,14.8a55.22,55.22,0,0,0-3.33,6,.54.54,0,0,0,.95.52,55.9,55.9,0,0,0,3.32-6,.54.54,0,0,0-.94-.52Z" transform="translate(0 -2.41)"/>
    <path class="cls-2" d="M33.7,6.36a16,16,0,0,0-1.62,3.43.46.46,0,0,0,.77.42,15.49,15.49,0,0,0,1.8-3.33C35,6.26,34,5.73,33.7,6.36Z" transform="translate(0 -2.41)"/>
    <path class="cls-2" d="M29.63,15.65a41.58,41.58,0,0,0-3.29,6.78c-.22.61.77,1,1.05.41,1.07-2.23,2-4.51,3.14-6.7A.51.51,0,0,0,29.63,15.65Z" transform="translate(0 -2.41)"/>
    <path class="cls-2" d="M37.27,7.08c-2.54,5.26-5.64,10.52-7.58,16-.21.62.71.92,1,.41,3-5,5-10.68,7.45-15.94C38.45,7,37.56,6.48,37.27,7.08Z" transform="translate(0 -2.41)"/>
    <path class="cls-2" d="M38.24,12.44c-1.56,3.34-3.58,6.65-4.81,10.12-.21.59.66.84,1,.38,2-3,3.3-6.7,4.78-10C39.45,12.34,38.53,11.82,38.24,12.44Z" transform="translate(0 -2.41)"/>
    <path class="cls-1" d="M2.73,3.11c-.25.31-.49.62-.74.92a4.66,4.66,0,0,0-.7,1c-.18.4.25.95.68.64a4.32,4.32,0,0,0,.79-.86l.74-.91C3.92,3.32,3.16,2.59,2.73,3.11Z" transform="translate(0 -2.41)"/>
    <path class="cls-1" d="M3.72,4.8A.46.46,0,0,0,3.11,5c-.25.34-.57.63-.84.95a.41.41,0,0,0,.5.63A3.49,3.49,0,0,0,3.89,5.42.46.46,0,0,0,3.72,4.8Z" transform="translate(0 -2.41)"/>
    <path class="cls-1" d="M2.65,21.28a7.27,7.27,0,0,0-1.17,1.48.43.43,0,0,0,.59.56A7,7,0,0,0,3.41,22C3.86,21.5,3.11,20.77,2.65,21.28Z" transform="translate(0 -2.41)"/>
    <path class="cls-1" d="M3.3,23.25,2.22,24.5a4.31,4.31,0,0,0-.88,1.24c-.14.38.35.65.65.48A4.45,4.45,0,0,0,3,25.15L4,24C4.46,23.46,3.73,22.75,3.3,23.25Z" transform="translate(0 -2.41)"/>
    <path class="cls-1" d="M3.32,26.49l-1.27,1.3c-.37.38-.93.78-1.06,1.32a.5.5,0,0,0,.61.59c.54-.16.91-.74,1.28-1.13s.83-.88,1.25-1.31A.56.56,0,0,0,3.32,26.49Z" transform="translate(0 -2.41)"/>
    <path class="cls-1" d="M3.1,29.63a18.81,18.81,0,0,0-1.85,1.83c-.34.43.14,1.19.66.81a20.78,20.78,0,0,0,2-1.87C4.42,29.9,3.62,29.14,3.1,29.63Z" transform="translate(0 -2.41)"/>
    <path class="cls-1" d="M3.07,32.65A12.2,12.2,0,0,0,1.35,34.3c-.31.43.1,1.08.62.77a12.44,12.44,0,0,0,1.91-1.64C4.41,32.93,3.6,32.18,3.07,32.65Z" transform="translate(0 -2.41)"/>
    <path class="cls-1" d="M3.78,35.21a.52.52,0,0,0-.72,0,7.48,7.48,0,0,0-1.05,1,.44.44,0,0,0,.55.68,7.62,7.62,0,0,0,1.24-1A.53.53,0,0,0,3.78,35.21Z" transform="translate(0 -2.41)"/>
    <path class="cls-4" d="M39.25,6.37a4.33,4.33,0,0,0-1.91-.56c-1-.18-1.91-.36-2.87-.51-2.18-.35-4.38-.62-6.58-.81a87,87,0,0,0-12.81-.15c-2.52.16-5,.42-7.54.8-1,.16-2.21.25-3.34.44,0-1.42,0-3.5-1.81-3.13C.29,2.89,1.18,5.36.88,6.78a.53.53,0,0,0,0,.12C.05,7.82.07,9.26,0,10.51a28.46,28.46,0,0,0,.3,5.29A11.75,11.75,0,0,0,1.07,19a.41.41,0,0,0,0,.16C.75,22.69.66,26.29.71,29.87c0,1.8.08,3.59.19,5.38,0,.81,0,1.8.92,2.16,2.52,1,2.49-2.92,2.51-4.26.06-3.32.11-6.65.17-10a9.23,9.23,0,0,0,8,.66c1.92-.62,3.73-1.56,5.69-2A7.55,7.55,0,0,1,24.57,23a11.36,11.36,0,0,0,10,.89c2.91-1.13,4.54-4.05,5.09-7a28.57,28.57,0,0,0,.3-5.7c0-1.25.47-3.86-.66-4.77ZM35.64,11.8c.29.86-.54,1.48-1.11,1.94a9.77,9.77,0,0,1-3.44,2,7.13,7.13,0,0,1-3.64,0C26.1,15.4,25,14.3,23.7,14.07a.57.57,0,0,1-.51-.49.61.61,0,0,1,0-.83,8.87,8.87,0,0,1,6.65-3.28,9,9,0,0,1,3.51.68c.72.3,2,.81,2.32,1.65ZM31.94,14a5.51,5.51,0,0,1-3.08.67c-1.63-.13-2.75-1.26-4.18-1.76a7.65,7.65,0,0,1,3.9-2.05,7.48,7.48,0,0,1,3,.08c.6.14,2.43.58,2.52,1.27S32.47,13.71,31.94,14ZM11,9.6c1.57.28,6.34.8,6.28,3.17,0,.86-.6,1.26-1.4,1.36-1.58.21-2.78,1.53-4.44,1.84a5.67,5.67,0,0,1-3.57-.24,21.85,21.85,0,0,1-3.65-2.8.56.56,0,0,1-.19-.26.63.63,0,0,1-.25-.9C5.38,9.37,8.41,9.15,11,9.61Zm4.26,3.17a6.45,6.45,0,0,1-.91.29,8.1,8.1,0,0,0-.84.55,6.17,6.17,0,0,1-2.77,1.08C8.48,15,7,13.43,5.32,12.12c1.48-1.35,3.34-1.52,5.36-1.18.9.15,1.79.38,2.68.61.61.16,2.52.52,1.92,1.22Zm-13.06-9a.61.61,0,0,1,.51-.21c.37.09.27.6.28.9,0,.46,0,.94,0,1.4a8.46,8.46,0,0,0-1,.35c0-.28,0-.55,0-.83,0-.48-.12-1.23.26-1.61Zm1,26.14c0,1.2,0,2.4-.08,3.6a5.81,5.81,0,0,1-.08,2C1.94,37.28,2,34.67,2,34.33c-.18-4.48-.1-9,.12-13.44a8.34,8.34,0,0,0,1.32,1.48c0,2.5-.11,5-.17,7.51Zm35-15.94c-.12,3.13-1,7-4.24,8.33a11.66,11.66,0,0,1-4.55.6,8.74,8.74,0,0,1-4.71-1.73,9.1,9.1,0,0,0-7.85-.72c-3.46,1.07-7.13,3.52-10.8,1.8-3.13-1.47-4.61-4.74-4.67-8,0-.66,0-1.32.07-2C1.64,10.57,1.25,8,3.2,7.56A70.78,70.78,0,0,1,14,6.05a85.8,85.8,0,0,1,21,1,18.36,18.36,0,0,1,2.58.49c.87.29.72.48.73,1.43C38.27,10.6,38.34,12.27,38.28,13.94Z" transform="translate(0 -2.41)"/>
  </g>
</svg>
