<svg id="레이어_1" data-name="레이어 1" xmlns="http://www.w3.org/2000/svg" xmlns:xlink="http://www.w3.org/1999/xlink" viewBox="0 0 33.39 40">
  <defs>
    <style>
      .cls-1 {
        fill: #fdd281;
      }

      .cls-2 {
        fill: #f4bb6e;
      }

      .cls-3 {
        fill: #ffcb9e;
      }

      .cls-4 {
        fill: #313142;
      }

      .cls-5 {
        fill: url(#linear-gradient);
      }

      .cls-6 {
        fill: #fff;
        opacity: 0.07;
      }

      .cls-7 {
        fill: #eb5088;
      }

      .cls-8, .cls-9 {
        fill: #bf3c1b;
      }

      .cls-8 {
        opacity: 0.15;
      }

      .cls-9 {
        opacity: 0.2;
      }

      .cls-10 {
        fill: #ffe8bd;
      }

      .cls-11 {
        fill: #ffb387;
      }

      .cls-12 {
        fill: #a16b43;
      }

      .cls-13 {
        opacity: 0.5;
      }

      .cls-14 {
        fill: #f04d4d;
      }

      .cls-15 {
        fill: #8f3935;
      }

      .cls-16 {
        fill: #fff9f0;
      }

      .cls-17 {
        fill: #e8dac5;
      }

      .cls-18 {
        fill: #305d80;
      }

      .cls-19 {
        fill: #86bae3;
      }

      .cls-20 {
        fill: #121b21;
      }
    </style>
    <linearGradient id="linear-gradient" x1="21.38" y1="30.58" x2="21.38" y2="32.91" gradientUnits="userSpaceOnUse">
      <stop offset="0" stop-color="#eea17a"/>
      <stop offset="0" stop-color="#eea17a"/>
      <stop offset="0.36" stop-color="#f7b88e"/>
      <stop offset="0.7" stop-color="#fdc69a"/>
      <stop offset="1" stop-color="#ffcb9e"/>
    </linearGradient>
  </defs>
  <title>1</title>
  <g>
    <g>
      <path class="cls-1" d="M35.47,22c2.18-1,1.26-5.68-1.2-4.17,1.67-.06,0,2.61-.88.6-.59-1.27.77-1.89,1.38-2.74a4.84,4.84,0,0,0,.86-3.52c-.29-3.45-3.45-5.62-5.26-8.28C28.39,1,25.59-.88,22,.42a5.9,5.9,0,0,0-2.25,1.67A3.58,3.58,0,0,0,18.61.51c-.05.52-.08,1-.1,1.56-2-1.2-5-.71-6.72.4-2.32,1.5-2.1,3.82-3,6.08C7.9,10.62,5.19,13,5.37,15.43c.1,1.51,1.17,2.28,1.1,3.83-.06,1.29-1.45,2-.82,3.25s3.27.84,1.93,3c-1.23,2-3.63-.36-2.12-.68C3.8,24,3.11,26.18,3.35,27.47c.34,1.8,2.84,1.84,4.19,1.47C4,35.39,14,37,19,32.71c2.11-1.83,3.81,3,6.37,3.22,3.45.31,5.27-2.18,4.57-4.41.59,1.87,2.65,2,4.2,1.31a4,4,0,0,0,2.32-3.93,2.5,2.5,0,0,1-2.84.57,1.92,1.92,0,0,1-.9-3c.95-1.37,3.67-3.11,1-4.56A2,2,0,0,0,35.47,22Z" transform="translate(-3.3)"/>
      <path class="cls-2" d="M32.51,19.07c-.32-1.33.72-2.37.75-3.63s-3.24-7-4.6-4.95c-.32.47,1.49,3.24,1.09,3.67A4.14,4.14,0,0,1,28,15.1a54,54,0,0,1-7.79,1.45c-1.61.24-3.18.66-4.78.91a8.58,8.58,0,0,1-3.19.13c-1.2-.28-1.21-1.45-2.21-2-1.91-1-3.45,1-3.17,2.85a5.37,5.37,0,0,0,1.27,2.37c.86,1,1.92,1.34,2.5,2.63a5.66,5.66,0,0,1-1.48,6.6c-1,.9-1.25,1.63.12,2.52,2.22,1.45,5.35,1.54,8.87.35,1.67-.56,7.09,2.45,8.94,1.47,1.48-.78,1.94-1.56,2.53-4.25.48.6,1.13,1.58,2,1.58-.68-1.29-.48-3-.31-4.35s1.11-2.35,1.14-3.68c0-.47-.26-1.43-.09-1.84s1-.95,1.39-1.31A2.27,2.27,0,0,1,32.51,19.07Z" transform="translate(-3.3)"/>
    </g>
    <g>
      <path class="cls-3" d="M26.87,35.33l-2,.24c.06.5.1,1,.14,1.41a12.4,12.4,0,0,0,.51,3h2.12A8.51,8.51,0,0,1,27,36.82C27,36.35,26.94,35.86,26.87,35.33Z" transform="translate(-3.3)"/>
      <path class="cls-4" d="M25.37,32l-1.08,2.15c.09,0,.35.32.68,1.88l2.34-.51C27,34.07,26.6,32.61,25.37,32Z" transform="translate(-3.3)"/>
    </g>
    <g>
      <path class="cls-3" d="M18.35,35.57l-2-.24c-.07.53-.11,1-.15,1.49A8.32,8.32,0,0,1,15.57,40H17.7a12.4,12.4,0,0,0,.51-3C18.25,36.54,18.28,36.07,18.35,35.57Z" transform="translate(-3.3)"/>
      <path class="cls-4" d="M16,35.5l2.34.51c.33-1.56.59-1.83.68-1.88L17.89,32C16.66,32.61,16.26,34.07,16,35.5Z" transform="translate(-3.3)"/>
    </g>
    <g>
      <path class="cls-4" d="M25.63,36.55c.71-2.69.79-4.33-.87-4.88a10.67,10.67,0,0,0-6.35,0c-1.41.61-1.86,1.59-.9,4.58a14.68,14.68,0,0,1,.82,3.7H25A17.47,17.47,0,0,1,25.63,36.55Z" transform="translate(-3.3)"/>
      <path class="cls-5" d="M23.46,28.89c.14-2.39-4-2.48-4,.13a6.16,6.16,0,0,1-.15,2.4c-1.64,2.58,5.62,2.89,4.09.13C23.09,30.92,23.4,29.94,23.46,28.89Z" transform="translate(-3.3)"/>
      <path class="cls-6" d="M23.3,34.8a6.81,6.81,0,0,1-3.77-.06c-.68-.17-1.07.61-.85,1.27.27.89,1.7,1.12,2.94,1.1,2.44,0,3.36-1,2.94-2C24.45,34.78,23.93,34.58,23.3,34.8Z" transform="translate(-3.3)"/>
    </g>
    <g>
      <path class="cls-7" d="M24.75,35c.41-1.34.43-3.23-.84-4.14a.44.44,0,0,0-.51.71c.84.6.87,2,.52,3.17a14.34,14.34,0,0,1-1.55,3.08A7.75,7.75,0,0,0,21.29,40h.89a9.8,9.8,0,0,1,.94-1.77A15.13,15.13,0,0,0,24.75,35Z" transform="translate(-3.3)"/>
      <path class="cls-7" d="M19.06,34.56a2.9,2.9,0,0,1,.61-3.34.43.43,0,0,0,0-.61.42.42,0,0,0-.61,0,3.74,3.74,0,0,0-.82,4.29A17.69,17.69,0,0,0,20,38a10.38,10.38,0,0,1,1.16,2h.9a8.22,8.22,0,0,0-1.33-2.47A16.07,16.07,0,0,1,19.06,34.56Z" transform="translate(-3.3)"/>
    </g>
    <g>
      <path class="cls-3" d="M20.5,6.34C15,7,10.68,11.47,11.4,19.1s5.84,12.23,11.36,12.18c4.24,0,9.35-7,9.07-14.87C31.55,8.85,26,5.63,20.5,6.34Z" transform="translate(-3.3)"/>
      <path class="cls-3" d="M9,16c-2.62.93-1.47,4.74.7,5.37a4.94,4.94,0,0,0,2.13.07.43.43,0,0,0,0-.07c.3-.53-.32-3.07-.49-3.6C11,16.41,10.27,15.51,9,16Z" transform="translate(-3.3)"/>
      <path class="cls-8" d="M26.94,6a27.52,27.52,0,0,0-9,.45c-2,.46-4.11,1.29-5.27,3.1-.83,1.29-2.22,2.7-2.41,4.29S8,15.57,10.57,18c1.28,1.2-.06,1.59.2,4.13.1,1,1.72,1.93,3.25,1.08-1.55-1.51-.33-2.65,0-4.33.15-.9-.67-2.35-.66-3.27,0-.21,0-.42,0-.63a14.06,14.06,0,0,1,.56-2.39c-.32,2.81,3.74,1.27,4.88.82A2,2,0,0,1,20,13.21c-1.37,1.42.64,3.88,2.31,3.88,2.71,0,3.4-1.13,4.54-2.69a3.77,3.77,0,0,1,2.56-1.63c.7-.08,2.16.4,2.45-.43a7.46,7.46,0,0,0-.72-4.76C30.36,6.19,28.33,6.1,26.94,6Z" transform="translate(-3.3)"/>
      <path class="cls-9" d="M10.65,17.38c-.69-.34-2.52,0-1.78,1.28.54-1.07,1.27-.28,1.08.49-.12.52-.78.47-.18,1.2a1.35,1.35,0,0,0,1.44.15C12.42,20,11.49,17.79,10.65,17.38Z" transform="translate(-3.3)"/>
      <path class="cls-1" d="M23.3,2.4A28.38,28.38,0,0,0,20,2a12.42,12.42,0,0,0-5.46,1.6C12,5,10.39,8,9.66,10.7a10.91,10.91,0,0,0-.32,5c.31,1.44,2.17,2,2.28,3.48.05.67-.53,1.17-.52,1.81a2.07,2.07,0,0,0,.64,1.43,3.37,3.37,0,0,0,1.57.48c-1-1.14,0-1.81.06-2.93A8.85,8.85,0,0,0,13,17a4.59,4.59,0,0,1,1.36-5.37c.17,2.06,2.26,2,3.75,1.68.67-.14,2.63-.93,3,.09.21.64-.8,1.19-1,.46,0,1.09,0,2,1.32,2.26a4,4,0,0,0,4.56-2,3.47,3.47,0,0,1,1.31-1.35,4.77,4.77,0,0,1,2.19-.39c1.7,0,2.29-1.28,2.21-2.92C31.42,5,27.21,2.75,23.3,2.4Z" transform="translate(-3.3)"/>
      <path class="cls-10" d="M22,2a4.62,4.62,0,0,0-2.14,1.33,9.11,9.11,0,0,1,1.55,2.76,3,3,0,0,1-1.22,3c-1,.68-6.69,1.68-2.75,3.05,1.21.42,2.46-.36,3.65-.09.94.22,1.57,1.61.58,2.26a3.45,3.45,0,0,0,2.89-.57,11.09,11.09,0,0,1,1.56-1,7.89,7.89,0,0,0,3.23-2.34c1.17-1.57,1.21-3.58-.48-6A7.11,7.11,0,0,0,22,2Z" transform="translate(-3.3)"/>
      <path class="cls-10" d="M15.78,3c-5,.34-4,4.64-6.09,7.72-.72,1.05-1.41,2-.8,3.19a5.48,5.48,0,0,0,3.19,2.59,4.07,4.07,0,0,1-.34-2.63c.9-3.2,4.61-4.17,6.22-6.75C19.29,5,18.34,2.87,15.78,3Z" transform="translate(-3.3)"/>
    </g>
    <g>
      <path class="cls-11" d="M30.17,21a1.77,1.77,0,0,0-1.48-.69c-.65-.05-1.56.14-1.08,1.17.26.54,2.84,1.09,2.67-.14A1.13,1.13,0,0,0,30.17,21Z" transform="translate(-3.3)"/>
      <path class="cls-11" d="M17.53,20.89a1.83,1.83,0,0,0-1.74-.47c-.73.1-1.69.54-1,1.61.37.57,3.31.61,2.91-.78A1,1,0,0,0,17.53,20.89Z" transform="translate(-3.3)"/>
      <path class="cls-12" d="M26.44,15.62c1.44.14,2.64-.29,4.8-.11C30.45,14.52,27.52,14.5,26.44,15.62Z" transform="translate(-3.3)"/>
      <path class="cls-9" d="M23.25,21.44c-.49,0-.69-.2-1,0s.4.86,1,.81,1.25-.63,1.07-.83S23.79,21.44,23.25,21.44Z" transform="translate(-3.3)"/>
      <path class="cls-12" d="M13.62,15.32c2.7.06,3.61.18,5.48.13C18.12,14.18,14.81,14.27,13.62,15.32Z" transform="translate(-3.3)"/>
      <g>
        <g class="cls-13">
          <path class="cls-14" d="M22.87,23.14c-1.93,0-4.77.59-6.28-.31,2.48,4.28,4,5.08,6,5.23,2.48.19,3.35-1.54,3.74-2.83A7.61,7.61,0,0,1,28.26,23C26.72,23.32,25.2,23.1,22.87,23.14Z" transform="translate(-3.3)"/>
        </g>
        <path class="cls-15" d="M17.75,23.59a5.77,5.77,0,0,0,4.56,3c2,.06,3.29-.59,3.67-1.55a2.69,2.69,0,0,1,1.26-1.42A19.32,19.32,0,0,1,17.75,23.59Z" transform="translate(-3.3)"/>
        <path class="cls-16" d="M18.89,23.86a1.54,1.54,0,0,0,1.17,1.21,9.92,9.92,0,0,0,4.49.26c1.05-.15,1.59-1.5,1.59-1.5A20.51,20.51,0,0,1,18.89,23.86Z" transform="translate(-3.3)"/>
        <path class="cls-16" d="M23.12,25.43a5.8,5.8,0,0,1-3.28-.57c-.5-.34-.55,0-.45.25,0,0,.44,1.19,2.78,1.49s3.43-1.1,3.17-1.35S24.42,25.4,23.12,25.43Z" transform="translate(-3.3)"/>
        <path class="cls-17" d="M18.89,23.86a1.54,1.54,0,0,0,.27.61s5.29-.39,6.54.11a2.67,2.67,0,0,0,.44-.75A23.65,23.65,0,0,1,18.89,23.86Z" transform="translate(-3.3)"/>
        <path class="cls-17" d="M20.25,25a4.9,4.9,0,0,0,4.16.25A7.24,7.24,0,0,1,20.25,25Z" transform="translate(-3.3)"/>
      </g>
      <path class="cls-18" d="M16.79,16.7c-1.42-.54-2.14,2.09-1.15,2.87a1.88,1.88,0,0,1,1.38,0C17.92,19,17.85,17.09,16.79,16.7Z" transform="translate(-3.3)"/>
      <path class="cls-19" d="M17,17.56c-.58.09-.36,1.3.25,1C17.7,18.34,17.54,17.49,17,17.56Z" transform="translate(-3.3)"/>
      <path class="cls-18" d="M29.29,16.72c-1.43-.91-2.68,2.44-1.1,2.92a1.69,1.69,0,0,1,1.25-.2C30,18.73,30.05,17.21,29.29,16.72Z" transform="translate(-3.3)"/>
      <path class="cls-19" d="M29.2,17.44c-.56,0-.48,1.26.13,1C29.77,18.31,29.7,17.42,29.2,17.44Z" transform="translate(-3.3)"/>
      <path class="cls-20" d="M29.33,16.65c-1.31-.5-1.74,1.05-1.74,1.05a1.2,1.2,0,0,1,1.52-.28,2.68,2.68,0,0,0,3.32-.25C30.83,17.71,30,16.92,29.33,16.65Z" transform="translate(-3.3)"/>
      <path class="cls-20" d="M15.84,16.77a4.22,4.22,0,0,1-3.34.59,3,3,0,0,0,3.48.13,1.35,1.35,0,0,1,1.58.12S17.21,16.07,15.84,16.77Z" transform="translate(-3.3)"/>
    </g>
  </g>
</svg>
