<svg id="레이어_1" data-name="레이어 1" xmlns="http://www.w3.org/2000/svg" viewBox="0 0 39.98 30.72">
  <defs>
    <style>
      .cls-1 {
        fill: #ec331e;
      }

      .cls-1, .cls-2, .cls-4, .cls-5 {
        fill-rule: evenodd;
      }

      .cls-2 {
        fill: #576d64;
      }

      .cls-3, .cls-4 {
        fill: #fff;
      }
    </style>
  </defs>
  <title>1</title>
  <g>
    <polygon class="cls-1" points="8.93 3.3 8.65 18.77 8.55 26.84 31.63 26.68 31.47 3 8.93 3.3"/>
    <polygon class="cls-2" points="31.54 0.95 31.54 29.82 39.35 29.62 39.35 0.57 31.54 0.95"/>
    <rect class="cls-3" x="33.49" y="23.34" width="3.87" height="3.12"/>
    <rect class="cls-3" x="33.88" y="16.61" width="3.21" height="3.21"/>
    <rect class="cls-3" x="33.67" y="10.15" width="3.8" height="3.06"/>
    <rect class="cls-3" x="33.67" y="3.35" width="3.8" height="3.02"/>
    <path class="cls-2" d="M.75,5V34.2a66,66,0,0,1,7.41.2L8.87,5.66Z" transform="translate(0.01 -4.38)"/>
    <rect class="cls-3" x="2.83" y="23" width="3.58" height="3.17"/>
    <rect class="cls-3" x="2.83" y="16.61" width="3.58" height="3.21"/>
    <polygon class="cls-4" points="2.3 3.58 2.6 6.37 6.83 6.73 6.12 3.35 2.3 3.58"/>
    <rect class="cls-3" x="2.83" y="10.15" width="4" height="3.12"/>
    <path class="cls-2" d="M2.57,5c-.43.51-.85,1-1.28,1.52S.36,7.39.35,8a.54.54,0,0,0,.69.5C1.62,8.4,2,7.74,2.29,7.3L3.45,5.81c.49-.62-.37-1.46-.88-.85Z" transform="translate(0.01 -4.38)"/>
    <path class="cls-2" d="M5.39,5.15c-.34.38-.69.75-1,1.13S3.61,7,3.6,7.51A.48.48,0,0,0,4.08,8c.53-.08.8-.48,1.14-.86L6.24,6C6.75,5.39,5.9,4.58,5.39,5.15Z" transform="translate(0.01 -4.38)"/>
    <path class="cls-2" d="M8,6.23A13,13,0,0,1,7,7.58a4.61,4.61,0,0,0-.9,1.29.5.5,0,0,0,.63.6A3.25,3.25,0,0,0,8,8.31a18,18,0,0,0,1-1.5C9.46,6.15,8.43,5.59,8,6.23Z" transform="translate(0.01 -4.38)"/>
    <path class="cls-2" d="M2.41,9.59a.6.6,0,0,0-.83,0l-.75.89c-.25.3-.61.65-.56,1.07a.49.49,0,0,0,.49.47c.45-.05.68-.38.94-.71s.49-.61.73-.92A.6.6,0,0,0,2.41,9.59Z" transform="translate(0.01 -4.38)"/>
    <path class="cls-2" d="M3.67,11.25q-.84.86-1.62,1.77A6.67,6.67,0,0,0,.8,14.77c-.17.48.48.69.78.43A11,11,0,0,0,2.9,13.5c.45-.56.93-1.1,1.42-1.63A.45.45,0,0,0,3.67,11.25Z" transform="translate(0.01 -4.38)"/>
    <path class="cls-2" d="M8.2,9.11,6.38,11.36l-.85,1.07L5.1,13l-.22.26a.33.33,0,0,0-.06.08c-.61.28-.41,1.39.33,1.31s1.31-1.19,1.77-1.8c.71-1,1.42-1.93,2.14-2.89C9.5,9.32,8.69,8.5,8.2,9.11Z" transform="translate(0.01 -4.38)"/>
    <path class="cls-2" d="M2.14,16.5l-.87.85a4.39,4.39,0,0,0-.83.89.51.51,0,0,0,.71.67A4.94,4.94,0,0,0,2,18.07l.85-.88C3.32,16.72,2.6,16,2.14,16.5Z" transform="translate(0.01 -4.38)"/>
    <path class="cls-2" d="M8.34,13c-.43.62-.88,1.22-1.35,1.82a3.2,3.2,0,0,0-1,1.57.46.46,0,0,0,.59.43c.63-.19,1-.91,1.35-1.42s.89-1.25,1.31-1.88S8.73,12.4,8.34,13Z" transform="translate(0.01 -4.38)"/>
    <path class="cls-2" d="M4.37,17.32c-.6.74-1.23,1.47-1.88,2.17S1.07,20.6,1.08,21.4a.44.44,0,0,0,.44.42c.8,0,1.36-.95,1.84-1.5C4,19.6,4.6,18.86,5.18,18.09,5.61,17.53,4.83,16.76,4.37,17.32Z" transform="translate(0.01 -4.38)"/>
    <path class="cls-2" d="M8.27,16.56c-.62.6-1.23,1.21-1.82,1.84A5.94,5.94,0,0,0,5,20.22c-.14.41.37.7.69.51A8.26,8.26,0,0,0,7.3,19c.54-.62,1.11-1.21,1.69-1.8S8.73,16.13,8.27,16.56Z" transform="translate(0.01 -4.38)"/>
    <path class="cls-2" d="M2.2,23.43c-.29.42-.59.83-.91,1.23a3.51,3.51,0,0,0-.8,1.15.45.45,0,0,0,.57.54,2.88,2.88,0,0,0,1.1-1.09c.33-.43.64-.88.94-1.33S2.57,22.89,2.2,23.43Z" transform="translate(0.01 -4.38)"/>
    <path class="cls-2" d="M8.66,19.53a.47.47,0,0,0-.24.17L7.33,21.09a6.74,6.74,0,0,0-1,1.38c-.18.43.28,1.08.75.71a6.22,6.22,0,0,0,1.09-1.3l.19-.26A9.58,9.58,0,0,1,8.66,19.53Z" transform="translate(0.01 -4.38)"/>
    <path class="cls-2" d="M4.52,24.07c-.73.78-1.44,1.58-2.11,2.41A8.37,8.37,0,0,0,.79,28.83c-.21.59.57.83,1,.52A14,14,0,0,0,3.5,27.08c.6-.76,1.21-1.49,1.85-2.21C5.85,24.32,5,23.53,4.52,24.07Z" transform="translate(0.01 -4.38)"/>
    <path class="cls-2" d="M8.06,23.5a18.59,18.59,0,0,1-1.33,1.71,6.7,6.7,0,0,0-1.32,1.51c-.14.37.13.88.58.72a4.58,4.58,0,0,0,1.64-1.52A20,20,0,0,0,9,24C9.42,23.43,8.45,22.92,8.06,23.5Z" transform="translate(0.01 -4.38)"/>
    <path class="cls-2" d="M2.5,30.68c-.67.88-1.43,1.73-2,2.67A.57.57,0,0,0,1.4,34c.73-.83,1.33-1.8,2-2.69C3.75,30.83,2.89,30.19,2.5,30.68Z" transform="translate(0.01 -4.38)"/>
    <path class="cls-2" d="M8,27.47l-1.1,1.15A3,3,0,0,0,6,29.82a.4.4,0,0,0,.51.48,2.87,2.87,0,0,0,1.12-1l1.08-1.17C9.18,27.69,8.45,27,8,27.47Z" transform="translate(0.01 -4.38)"/>
    <path class="cls-2" d="M5,30.75,3.81,32.34c-.34.45-.92,1-1,1.54,0,.32.23.74.61.58.57-.24.87-.82,1.23-1.31l1.2-1.61C6.29,31,5.49,30.17,5,30.75Z" transform="translate(0.01 -4.38)"/>
    <path class="cls-2" d="M7.61,30.68,6.46,32.15a7.39,7.39,0,0,0-1,1.46c-.2.46.3,1.19.81.78A7.27,7.27,0,0,0,7.38,33c.39-.53.78-1.06,1.16-1.6S8,30.15,7.61,30.68Z" transform="translate(0.01 -4.38)"/>
    <path class="cls-2" d="M34.19,5.08c-.56.58-1.1,1.17-1.62,1.79S31.44,8,31.48,8.64a.47.47,0,0,0,.6.44c.64-.15,1-1,1.43-1.48s1-1.17,1.5-1.73A.57.57,0,0,0,34.19,5.08Z" transform="translate(0.01 -4.38)"/>
    <path class="cls-2" d="M37,5.11c-.37.37-.72.75-1.08,1.12s-.8.69-.92,1.16a.47.47,0,0,0,.58.55c.46-.15.77-.64,1.09-1l1.06-1.14C38.12,5.33,37.39,4.64,37,5.11Z" transform="translate(0.01 -4.38)"/>
    <path class="cls-2" d="M33,10.18l-1,1.17c-.31.36-.79.74-.88,1.23a.53.53,0,0,0,.66.63c.49-.17.77-.64,1.09-1s.68-.79,1-1.2C34.28,10.41,33.45,9.61,33,10.18Z" transform="translate(0.01 -4.38)"/>
    <path class="cls-2" d="M38.79,6.25l-1,1.24c-.29.36-.76.76-.71,1.26a.39.39,0,0,0,.39.37c.52,0,.79-.51,1.1-.89l1-1.25C40,6.45,39.22,5.72,38.79,6.25Z" transform="translate(0.01 -4.38)"/>
    <path class="cls-2" d="M35.1,10.92c-1.17,1.32-2.38,2.62-3.5,4-.47.57.34,1.37.85.8,1.18-1.31,2.27-2.72,3.39-4.08C36.26,11.12,35.54,10.42,35.1,10.92Z" transform="translate(0.01 -4.38)"/>
    <path class="cls-2" d="M38.49,9.59a24.4,24.4,0,0,1-1.81,2.25c-.51.57-1.38,1.13-1.55,1.89a.47.47,0,0,0,.58.56c.82-.16,1.5-1.23,2-1.83a28.29,28.29,0,0,0,1.76-2.32C39.91,9.53,38.91,9,38.49,9.59Z" transform="translate(0.01 -4.38)"/>
    <path class="cls-2" d="M38.88,13.29l-1.13,1.13c-.33.34-.84.69-.7,1.22a.41.41,0,0,0,.29.27c.52.13.88-.4,1.2-.74L39.65,14A.53.53,0,0,0,38.88,13.29Z" transform="translate(0.01 -4.38)"/>
    <path class="cls-2" d="M34.21,17.77c-.42.5-.84,1-1.28,1.46a6,6,0,0,0-1.22,1.41c-.14.33.13.87.56.69a4.54,4.54,0,0,0,1.39-1.27c.46-.5.89-1,1.32-1.55s-.33-1.28-.78-.74Z" transform="translate(0.01 -4.38)"/>
    <path class="cls-2" d="M32.94,16.59l-.95.92a6.25,6.25,0,0,0-.89,1c-.31.48.33,1,.78.75a5.93,5.93,0,0,0,1-.89l.92-.94C34.31,16.86,33.47,16.07,32.94,16.59Z" transform="translate(0.01 -4.38)"/>
    <path class="cls-2" d="M38.8,16.21c-.66.74-1.33,1.48-2,2.19s-1.46,1.12-1.49,2a.48.48,0,0,0,.48.46c.84,0,1.41-1,1.93-1.56s1.32-1.48,2-2.24C40.14,16.45,39.31,15.64,38.8,16.21Z" transform="translate(0.01 -4.38)"/>
    <path class="cls-2" d="M33,22.8a7.66,7.66,0,0,1-.87.93c-.31.29-.68.52-1,.81s.15,1,.63.78a6.55,6.55,0,0,0,2-1.82C34.12,23,33.4,22.29,33,22.8Z" transform="translate(0.01 -4.38)"/>
    <path class="cls-2" d="M39.22,19.82l0,0-1.3,1.38c-.38.41-.92.8-.92,1.4a.44.44,0,0,0,.45.43c.6,0,.94-.6,1.31-1l.46-.51A10.86,10.86,0,0,1,39.22,19.82Z" transform="translate(0.01 -4.38)"/>
    <path class="cls-2" d="M34.8,24.35c-.61.56-1.22,1.12-1.82,1.7s-1.29,1-1.44,1.7a.47.47,0,0,0,.59.56c.69-.16,1.21-1,1.7-1.45S35,25.7,35.62,25.13,35.34,23.87,34.8,24.35Z" transform="translate(0.01 -4.38)"/>
    <path class="cls-2" d="M38.92,23.19c-.63.68-1.28,1.35-2,2s-1.56,1-1.71,1.79a.47.47,0,0,0,.46.57c.8,0,1.48-.92,2-1.44a28.78,28.78,0,0,0,2-2.14C40.19,23.42,39.41,22.66,38.92,23.19Z" transform="translate(0.01 -4.38)"/>
    <path class="cls-2" d="M32.78,29.54l-1.09,1.07c-.36.36-.8.66-.83,1.2a.5.5,0,0,0,.51.49c.53,0,.84-.51,1.18-.87l1.06-1.1C34.12,29.8,33.3,29,32.78,29.54Z" transform="translate(0.01 -4.38)"/>
    <path class="cls-2" d="M39.17,26.49l-1.28,1.23c-.44.43-.34.58-.6,1.15-.2.41-.46,1-.06.85a5.58,5.58,0,0,0,1.41-1.29c.24-.23.47-.47.7-.71A10.39,10.39,0,0,1,39.17,26.49Z" transform="translate(0.01 -4.38)"/>
    <path class="cls-2" d="M34.38,30.88c-.5.46-1,.93-1.51,1.41s-1.08.86-1.23,1.46a.49.49,0,0,0,.61.59c.59-.18,1-.84,1.44-1.27s1-1,1.48-1.44S34.9,30.42,34.38,30.88Z" transform="translate(0.01 -4.38)"/>
    <path class="cls-2" d="M38.9,29.68l-2.13,2.08c-.6.59-1.46,1.17-1.72,2a.51.51,0,0,0,.63.61c.81-.26,1.4-1.15,2-1.74l2.08-2.13C40.26,29.94,39.43,29.16,38.9,29.68Z" transform="translate(0.01 -4.38)"/>
    <path class="cls-2" d="M38.82,32.94a3.5,3.5,0,0,1-.5.44,1,1,0,0,0-.47.54.39.39,0,0,0,.28.47c.52.11,1-.46,1.36-.81S39.24,32.52,38.82,32.94Z" transform="translate(0.01 -4.38)"/>
    <path class="cls-1" d="M10.82,8c-.36.39-.71.8-1.05,1.21S9,10,8.92,10.5s.24.77.64.61.74-.68,1.06-1.08.68-.82,1-1.23S11.32,7.45,10.82,8Z" transform="translate(0.01 -4.38)"/>
    <path class="cls-1" d="M14.1,7.72c-1.14,1.29-2.24,2.61-3.27,4-.82,1.09-2,2.34-2.28,3.71-.06.38.36.79.73.53,1.09-.77,1.7-2.16,2.46-3.24,1-1.43,2.1-2.81,3.23-4.16C15.47,8,14.62,7.14,14.1,7.72Z" transform="translate(0.01 -4.38)"/>
    <path class="cls-1" d="M17.85,7.37c-1.69,2.39-3.24,4.56-5,6.88A47.49,47.49,0,0,0,8.57,20a.51.51,0,0,0,.81.6,35.52,35.52,0,0,0,4.79-6c1.66-2.27,3.1-4.4,4.68-6.72C19.27,7.31,18.27,6.78,17.85,7.37Z" transform="translate(0.01 -4.38)"/>
    <path class="cls-1" d="M21.31,7.83,19.09,11a10.2,10.2,0,0,0-1.86,3,.49.49,0,0,0,.73.53,9.75,9.75,0,0,0,2.1-2.77l2.3-3.43C22.79,7.76,21.74,7.19,21.31,7.83Z" transform="translate(0.01 -4.38)"/>
    <path class="cls-1" d="M25.86,7.44a26.27,26.27,0,0,0-2.78,3.82c-.47.71-.93,1.43-1.44,2.12a11.46,11.46,0,0,0-1.47,1.95c-.15.36.15.93.6.74,1.29-.54,2.09-2,2.81-3.16a36.54,36.54,0,0,1,3.14-4.66C27.22,7.68,26.38,6.87,25.86,7.44Z" transform="translate(0.01 -4.38)"/>
    <path class="cls-1" d="M29.45,7.9a45.75,45.75,0,0,1-2.71,4.57c-1,1.43-2.37,2.75-3.1,4.3-.21.46.28,1.06.76.73a13.92,13.92,0,0,0,3.17-3.85,47,47,0,0,0,3-5.14C30.92,7.78,29.82,7.17,29.45,7.9Z" transform="translate(0.01 -4.38)"/>
    <path class="cls-1" d="M31,11.49q-1.16,1.92-2.38,3.79a16.45,16.45,0,0,0-2.16,3.45c-.2.57.55.81.91.51a13.94,13.94,0,0,0,2.37-3.34c.79-1.27,1-2.44,1.76-3.73C31.92,11.51,31.43,10.84,31,11.49Z" transform="translate(0.01 -4.38)"/>
    <path class="cls-1" d="M30.79,17.81C29.5,20,28.15,22.12,26.73,24.2s-3.27,4-4.24,6.24c-.16.4.26,1,.69.66,1.76-1.4,3-3.59,4.22-5.45q2.34-3.55,4.42-7.26a.6.6,0,0,0-1-.58Z" transform="translate(0.01 -4.38)"/>
    <path class="cls-1" d="M31,22.77c-.82,1.36-1.67,2.7-2.58,4a26.47,26.47,0,0,0-2.71,3.88c-.2.42.29,1.08.74.71a15.58,15.58,0,0,0,2.75-3.53c1-1.47,1.51-2.89,2.39-4.43C31.93,22.77,31.35,22.16,31,22.77Z" transform="translate(0.01 -4.38)"/>
    <path class="cls-1" d="M30.84,28.22q-.69.77-1.32,1.59c-.34.47-.87,1-.81,1.64a.46.46,0,0,0,.59.42c.57-.2.82-.78,1.16-1.25a18.68,18.68,0,0,1,1.26-1.56c.51-.59-.35-1.42-.88-.84Z" transform="translate(0.01 -4.38)"/>
    <path class="cls-1" d="M25.53,20.88c-2.19,3.18-4.86,6.62-6.17,10.27-.19.53.64,1,1,.55,2.34-3.17,4-6.95,6.17-10.27C26.93,20.82,25.94,20.29,25.53,20.88Z" transform="translate(0.01 -4.38)"/>
    <path class="cls-1" d="M21,22.83l-2.76,4.23a25.64,25.64,0,0,0-2.69,4.13c-.23.55.43,1.16.89.66A23.87,23.87,0,0,0,19.15,28L22,23.39C22.4,22.75,21.39,22.21,21,22.83Z" transform="translate(0.01 -4.38)"/>
    <path class="cls-1" d="M14.35,25.78c-.54.91-1.09,1.8-1.67,2.67A18,18,0,0,0,10.91,31a.55.55,0,0,0,.87.64,11.28,11.28,0,0,0,1.82-2.5c.6-.93,1.17-1.89,1.71-2.86A.55.55,0,0,0,14.35,25.78Z" transform="translate(0.01 -4.38)"/>
    <path class="cls-1" d="M13.87,19.14c-.95,1.5-1.94,3-3,4.42-.9,1.26-2.23,2.51-2.71,4a.46.46,0,0,0,.68.5c1.26-.79,2.12-2.44,3-3.65,1-1.54,2-3.13,3-4.73C15.19,19.06,14.24,18.55,13.87,19.14Z" transform="translate(0.01 -4.38)"/>
    <path class="cls-2" d="M16.15,14.11l-1.1,1.63a3.35,3.35,0,0,0-.78,1.52c0,.34.39.47.64.34.51-.26.76-.89,1.06-1.35l1-1.65C17.37,14.05,16.5,13.58,16.15,14.11Z" transform="translate(0.01 -4.38)"/>
    <path class="cls-2" d="M18.27,14.87c-.77,1-1.53,2-2.27,3-.54.73-1.59,1.65-1.4,2.61a.42.42,0,0,0,.62.23c.78-.41,1.24-1.61,1.72-2.32.68-1,1.38-2,2.1-3C19.35,15,18.61,14.44,18.27,14.87Z" transform="translate(0.01 -4.38)"/>
    <path class="cls-2" d="M20,15.93c-2,2.93-4.23,5.68-6.09,8.66a.5.5,0,0,0,.8.59,72.1,72.1,0,0,0,6-8.87C20.94,15.88,20.26,15.52,20,15.93Z" transform="translate(0.01 -4.38)"/>
    <path class="cls-2" d="M21.9,16.45c-.81,1.37-1.63,2.73-2.49,4.07-.74,1.15-1.89,2.36-2.17,3.71a.37.37,0,0,0,.55.41c1.12-.77,1.73-2.22,2.41-3.36.87-1.45,1.68-2.92,2.48-4.4a.45.45,0,0,0-.78-.43Z" transform="translate(0.01 -4.38)"/>
    <path class="cls-2" d="M23.71,17.64c-.46.79-.92,1.58-1.39,2.37a10,10,0,0,0-1.17,2.22.44.44,0,0,0,.74.41,9.78,9.78,0,0,0,1.3-2.15l1.32-2.41A.46.46,0,0,0,23.71,17.64Z" transform="translate(0.01 -4.38)"/>
    <path class="cls-2" d="M25.65,18.81,25,20a2.34,2.34,0,0,0-.44,1.17.44.44,0,0,0,.67.36,2.13,2.13,0,0,0,.67-1l.58-1.23c.26-.56-.56-1-.86-.47Z" transform="translate(0.01 -4.38)"/>
    <path class="cls-5" d="M39.69,5.12a.57.57,0,0,0-.58-.55l-7.81.22a.58.58,0,0,0-.54.42,1.35,1.35,0,0,0-.1.65.51.51,0,0,0,.29.48v.57c-3.62,0-7.25.08-10.87.13-3.45.06-7.07-.18-10.52.18a9.9,9.9,0,0,0-.14-1.11C9.18,4.77,7.9,4.87,6.76,4.73A53.57,53.57,0,0,0,.69,4.38.65.65,0,0,0,.06,5Q.35,19.66,0,34.28c0,.45.43.64.8.58A18.72,18.72,0,0,1,8,35.08a.58.58,0,0,0,.72-.58c0-.88.08-1.75.11-2.63a184.33,184.33,0,0,0,22,0c0,.74.08,1.48.14,2.22a.58.58,0,0,0,.58.56c2.55-.11,5.09-.11,7.64,0a.58.58,0,0,0,.56-.58q.36-14.47-.13-28.95ZM38,29.51h0c.08.66.22,1.47-.56,1.75a6.53,6.53,0,0,1-1.33.15l-1.49.16c-.62.06-1.35.24-1.64-.5a4.61,4.61,0,0,1-.09-1.34,11.22,11.22,0,0,1,0-1.64c.14-1.2,1.74-1.23,3-1.05a1.29,1.29,0,0,1,1.4.26A3.28,3.28,0,0,1,38,29.51Zm-1.14.57c0,.17.09.07-.33.09s-.89.1-1.34.15c-.27,0-.78.16-1.15.17a7.89,7.89,0,0,1,0-1.08c0-.2,0-.4,0-.6,0,0-.05-.65-.12-.54.13-.2,1-.19,1.22-.2a5,5,0,0,1,.55,0,.52.52,0,0,0,.35,0h0l.41.08c.3.24.32.87.36,1.19a1.81,1.81,0,0,1,.07.68Zm1.25-6.35a1,1,0,0,1-.8,1.19,11.65,11.65,0,0,1-2.7-.1c-1.52-.18-1.43-1.46-1.26-2.64-.11-.57-.2-1.27.29-1.63s1.67-.24,2.32-.28,1.42-.09,1.67.71a15.82,15.82,0,0,1,.48,2.75Zm-2,0a7.28,7.28,0,0,1-1.32,0c-.44-.09-.54-.35-.51-.79l0-.28a.44.44,0,0,0,.06-.16c0-.21.08-.42.1-.64s0-.18,0-.27l1.64-.09.34,0,0,.08a4.3,4.3,0,0,1,.16.87c0,.23.22.95.26,1.33-.27,0-.57,0-.81,0ZM38,17.08a1.27,1.27,0,0,1-.51.94,1.67,1.67,0,0,1-.52.24,4.23,4.23,0,0,1-1.84.06,4.68,4.68,0,0,1-1.06,0c-1-.19-.94-1.52-1-2.33s-.3-2,.78-2.23a7.84,7.84,0,0,1,1.81.05,7.78,7.78,0,0,1,1.6.09c1,.26.75,1.49.77,2.24a5.92,5.92,0,0,1,0,.95ZM35.81,15a4.39,4.39,0,0,0,1,.07c0,.17,0,.34,0,.51s0,.6,0,.89c0,.5,0,.69-.54.75a7.9,7.9,0,0,1-2-.1s0,0,0,0a2.69,2.69,0,0,1-.09-.81,5.69,5.69,0,0,1-.1-1.39,8.21,8.21,0,0,1,1.73.12Zm2.13-4.78c0,.53,0,1-.57,1.18a10.6,10.6,0,0,1-2.4.32,1.93,1.93,0,0,1-1.49-.15c-.48-.39-.38-1.22-.43-1.77A5.62,5.62,0,0,1,33,7.66,1.11,1.11,0,0,1,34.09,7c.78,0,1.57,0,2.35,0l.15,0,.57,0a.62.62,0,0,1,.62.6c0,.86.11,1.72.16,2.58Zm-3,.34-.6.08c-.17.05-.21,0-.13-.07a4.72,4.72,0,0,1,0-.94c0-.29-.06-.58-.08-.88-.05-.53-.14-.6.41-.65a9.91,9.91,0,0,1,1.09,0,.52.52,0,0,0,.31.19,3.5,3.5,0,0,0,.72,0l.06.94a10.88,10.88,0,0,1,.13,1.09,14.69,14.69,0,0,1-1.87.23Zm-28,16.74c.34.41.19,1.21,0,1.83a3.43,3.43,0,0,1-.13,1.74c-.32.58-1.14.44-1.68.44s-1,0-1.58,0a1.32,1.32,0,0,1-.76-.12c-.56-.37-.38-1.55-.41-2.13S2,27.36,2.69,27a5.44,5.44,0,0,1,2.48-.15c.61,0,1.33-.07,1.75.46Zm-1.14,3a4.06,4.06,0,0,1-1.15,0c-.24,0-.79,0-1.13,0,0-.37,0-.77,0-1.12a7.31,7.31,0,0,0,0-.81,2.53,2.53,0,0,1,0-.28c-.16-.07-.15-.09,0-.06A4,4,0,0,1,4.8,28a8.07,8.07,0,0,1,1,0,4.45,4.45,0,0,0-.14,1.4.62.62,0,0,0,.2.36,1.77,1.77,0,0,1,0,.46.15.15,0,0,0,0,.08ZM7.06,23h0c0,.57.29,1.47-.35,1.79a2.21,2.21,0,0,1-1,.11l-1.4,0c-.56,0-1.56.24-1.89-.39a3,3,0,0,1-.12-1.27c0-.49,0-1,0-1.48,0-.66-.07-1.26.68-1.4a11.82,11.82,0,0,1,2.79-.09h.05a.81.81,0,0,1,.89.24A1.44,1.44,0,0,1,7,21.4c0,.52.07,1.05.11,1.58Zm-1.47.74-.85,0c-.25,0-.92.1-1.28.09,0-.4,0-.83,0-1.21s-.1-.86-.08-1.28a8.56,8.56,0,0,1,1.09-.05h.74a.48.48,0,0,0,.58.22l0,0c0,.25,0,.55.06.8s.05.58.06.87,0,.37,0,.55l-.36,0Zm1.47-7.6c.05.57.34,1.57-.28,1.94a1.88,1.88,0,0,1-1,.09L4.4,18.09c-.64,0-1.62.14-1.92-.6a6.62,6.62,0,0,1-.24-2.55,1,1,0,0,1,1-1.11,11.38,11.38,0,0,1,2.33.11.81.81,0,0,1,.92,0c.65.41.5,1.54.54,2.19Zm-2.27.82c-.4,0-.87,0-1.29,0a5.69,5.69,0,0,1-.1-1,5,5,0,0,1,0-.95,5.08,5.08,0,0,1,1.16,0l.93.06a.71.71,0,0,0,.36.17c0,.14,0,.29,0,.44s0,.39,0,.59,0,.55.05.79a10.81,10.81,0,0,0-1.15,0ZM7.13,9.51a3.82,3.82,0,0,1,.14,1.57c-.28,1-1.69.66-2.44.63s-2.24.18-2.76-.59a2.17,2.17,0,0,1-.19-1.23c0-.63,0-1.25,0-1.87a.58.58,0,0,1,.41-.56A12.92,12.92,0,0,1,5.84,7.3l.08,0a.62.62,0,0,1,.91.34l.3,1.92ZM5,10.5l-1,0-.65,0c-.3.09-.41,0-.32-.27a3.22,3.22,0,0,1,0-.93c0-.26,0-.52,0-.78a10.22,10.22,0,0,1,2.47-.13.57.57,0,0,0,.21.13C5.81,9,5.9,9.49,6,10c0,.17,0,.34.07.5A4.34,4.34,0,0,0,5,10.5ZM15,22.88a74.3,74.3,0,0,0,.14-8.7l11.41,5.53c-3.88,1.69-7.72,3.45-11.5,5.32,0-.71,0-1.43-.06-2.15ZM7.61,33.81a19.91,19.91,0,0,0-6.35-.26c.26-9.29.31-18.6.09-27.89,1.4,0,2.8.09,4.19.23.36,0,2.27.05,2.59.37s.1,2.12.11,2.47l.18,3.42C8.28,19.36,8,26.6,7.61,33.81ZM8.9,30.63c.14-3.86.2-7.72.23-11.57a.36.36,0,0,0,.11-.24c.09-2.19.26-4.37.28-6.57,0-1.22.11-2.53.1-3.82,3.45.23,7-.15,10.49-.21l10.83-.17-.07,12c0,3.53-.13,7.09,0,10.63-7.34.18-14.63.2-22-.08ZM38.7,33.5c-2.19-.08-4.38-.09-6.56,0-.31-4.47-.17-9-.14-13.44L32.09,5.9l6.49-.18Q39,19.61,38.7,33.5ZM28.52,19.14a.7.7,0,0,1-.14,1.26c-4.57,2-9.11,4-13.61,6.13-.38.18-1,0-.93-.51,0-.2,0-.4,0-.6a.41.41,0,0,1,0-.11c0-4.08,0-8.15-.13-12.23a.69.69,0,0,1,1-.61l13.79,6.67Z" transform="translate(0.01 -4.38)"/>
    <polygon class="cls-4" points="15.13 9.76 14.91 18.68 15.06 20.65 26.56 15.33 15.13 9.76"/>
  </g>
</svg>
