<svg id="레이어_1" data-name="레이어 1" xmlns="http://www.w3.org/2000/svg" viewBox="0 0 26.26 40.07">
  <defs>
    <style>
      .cls-1 {
        fill: #313142;
      }

      .cls-10, .cls-2, .cls-7 {
        opacity: 0.3;
      }

      .cls-3 {
        fill: #3e3e4f;
      }

      .cls-4 {
        fill: #f7be8c;
      }

      .cls-5 {
        fill: #cfa078;
      }

      .cls-6 {
        fill: #ffcb9e;
      }

      .cls-7 {
        fill: #c94614;
      }

      .cls-8 {
        fill: #ffa073;
      }

      .cls-9 {
        fill: #305d80;
      }

      .cls-10 {
        fill: #b54d26;
      }

      .cls-11 {
        fill: #ffdfc2;
      }

      .cls-12 {
        fill: #86bae3;
      }

      .cls-13 {
        fill: #94110c;
        opacity: 0.5;
      }

      .cls-14 {
        fill: #693a27;
      }
    </style>
  </defs>
  <title>1</title>
  <g>
    <g>
      <path class="cls-1" d="M28.1,33.44c-1.61-3.55-11.64-4.34-14.62-.52-1.25,1.61-1.27,4.4-.89,7.08h16.1A12.77,12.77,0,0,0,28.1,33.44Z" transform="translate(-6.76 0.07)"/>
      <path class="cls-2" d="M20.46,35.93c5.74,0,7.4-9.6-.49-9.6C14.3,26.33,14.32,35.93,20.46,35.93Z" transform="translate(-6.76 0.07)"/>
      <path class="cls-3" d="M20.45,35.1c6.13,0,7.9-9.09-.52-9.09C13.88,26,13.9,35.1,20.45,35.1Z" transform="translate(-6.76 0.07)"/>
      <path class="cls-1" d="M15.56,31.36l-.63,2.42c-.6.67-.86,3.58-1,6.22H9.1C9.47,34.89,12.66,32,15.56,31.36Z" transform="translate(-6.76 0.07)"/>
      <path class="cls-1" d="M25.35,31.36,26,33.78c.6.67.86,3.58,1,6.22H31.8C31.43,34.89,28.24,32,25.35,31.36Z" transform="translate(-6.76 0.07)"/>
    </g>
    <g>
      <path class="cls-4" d="M31.63,16.75c-1.12-.48-1.82.28-2.17,1.79-.14.6-.52,3.81-.24,4.4l0,.08a3.58,3.58,0,0,0,1.89-.14C33.05,22.11,34,17.74,31.63,16.75Z" transform="translate(-6.76 0.07)"/>
      <path class="cls-5" d="M8.82,7.48c-.74,3.54-.91,8.23.78,11.61.89,1.76,3,.59,4.49.22,1.83-.46,3.67-.88,5.51-1.28,3-.68,6.35,0,9.43.29,2.4.23,2.58,1.36,2.58-.61,0-2.44.63-6.46,0-9.14C28.62-4.45,10.62-1,8.82,7.48Z" transform="translate(-6.76 0.07)"/>
      <path class="cls-6" d="M19.32,3.15C10.73,4.32,9.38,12.22,10.21,20c.63,5.79,4.89,12.24,11.57,12s10.44-8.7,9.75-15.82C30.78,8.34,29.13,1.81,19.32,3.15Z" transform="translate(-6.76 0.07)"/>
      <path class="cls-6" d="M8.32,16.66c-2.8.56-1.37,5.13.76,6.18a1.49,1.49,0,0,0,2.17-.66c.46-.62.15-2.37-.35-3.88A2.11,2.11,0,0,0,8.32,16.66Z" transform="translate(-6.76 0.07)"/>
      <path class="cls-7" d="M9.25,18.22c-.62-.31-2.19.17-1.49,1.42.42-1.13,1.09-.36,1,.45-.08.54-.67.53-.11,1.25.3.39.94.26,1.27.07C10.91,20.79,10,18.59,9.25,18.22Z" transform="translate(-6.76 0.07)"/>
      <path class="cls-5" d="M20.16,1.64c-7-.06-11.92,5-11.46,15A1.74,1.74,0,0,1,10,17a3.38,3.38,0,0,1,.72,1.51c.07.16.15.42.7.39-1-3.36-.43-8.09.7-9.62,2.83-3.8,9.17,1.34,11.27,1.26,1.58-.06,5.4-4.85,6.92-1.25C31.36,11.79,31.33,1.73,20.16,1.64Z" transform="translate(-6.76 0.07)"/>
    </g>
    <g>
      <path class="cls-8" d="M30.29,18.82a2.49,2.49,0,0,0-2-.81c-.87,0-2,.27-1.28,1.53.4.67,3.86,1.23,3.48-.31A1.38,1.38,0,0,0,30.29,18.82Z" transform="translate(-6.76 0.07)"/>
      <path class="cls-8" d="M16,18.42a2.62,2.62,0,0,0-2.26-.29c-.89.21-2,.8-.91,1.89.59.58,4.24.25,3.46-1.22A1.59,1.59,0,0,0,16,18.42Z" transform="translate(-6.76 0.07)"/>
      <path class="cls-9" d="M15.38,14.73C14,14.09,13,16.63,14,17.48a2,2,0,0,1,1.42.13A1.75,1.75,0,0,0,15.38,14.73Z" transform="translate(-6.76 0.07)"/>
      <path class="cls-10" d="M22.13,19.38c-.84,0-1.17-.38-1.75,0s.23,1.47,1.71,1.43,2.13-1.05,1.82-1.43S23.06,19.38,22.13,19.38Z" transform="translate(-6.76 0.07)"/>
      <path class="cls-11" d="M21.94,16.22c-1.57-.15-1.72,3.18-1.36,3.47.87.71,2.71.23,3.26-.32C24.05,19.15,23.44,16.37,21.94,16.22Z" transform="translate(-6.76 0.07)"/>
      <path class="cls-9" d="M29.15,14.77c-1.45-.9-2.55,1.91-1.35,2.72a1.85,1.85,0,0,1,1.51,0C29.9,16.86,29.92,15.24,29.15,14.77Z" transform="translate(-6.76 0.07)"/>
      <path class="cls-12" d="M14.68,15.34c-.58.2-.15,1.34.42.93C15.51,16,15.2,15.17,14.68,15.34Z" transform="translate(-6.76 0.07)"/>
      <path class="cls-12" d="M28.39,15.25c-.57.11-.31,1.24.28.92C29.1,16,28.9,15.15,28.39,15.25Z" transform="translate(-6.76 0.07)"/>
      <path class="cls-13" d="M26.82,20.62a1.19,1.19,0,0,0,.25,1.21,5.89,5.89,0,0,1-5.71,3.35A6,6,0,0,1,15.94,22a1.12,1.12,0,0,0,0-1.27,1.44,1.44,0,0,1-1.92.75,1.44,1.44,0,0,0,1.09.83,6.92,6.92,0,0,0,6,3.63h.24a6.71,6.71,0,0,0,6.54-3.85,1.13,1.13,0,0,0,.95-.91A1.61,1.61,0,0,1,26.82,20.62Z" transform="translate(-6.76 0.07)"/>
      <path class="cls-14" d="M17.22,12a9.73,9.73,0,0,0-2.95.1c-1.51.28-2.48.93-2.34,1.28s1.23.12,3,.07,2.78.22,3-.31S17.77,12,17.22,12Z" transform="translate(-6.76 0.07)"/>
      <path class="cls-14" d="M29.27,12.06a9,9,0,0,0-2.79-.1c-.52.06-.84.48-.64,1.14s1.31.27,2.8.31,2.64.28,2.79-.07S30.68,12.35,29.27,12.06Z" transform="translate(-6.76 0.07)"/>
    </g>
  </g>
</svg>
