<svg xmlns="http://www.w3.org/2000/svg" xmlns:xlink="http://www.w3.org/1999/xlink" viewBox="0 0 37.38 39.94">
  <defs>
    <style>
      .cls-1 {
        isolation: isolate;
      }

      .cls-2 {
        fill: url(#linear-gradient);
      }

      .cls-3, .cls-4 {
        opacity: 0.25;
      }

      .cls-3, .cls-5, .cls-6 {
        mix-blend-mode: multiply;
      }

      .cls-3 {
        fill: url(#radial-gradient);
      }

      .cls-4 {
        fill: #fff;
      }

      .cls-10, .cls-11, .cls-5 {
        opacity: 0.35;
      }

      .cls-5 {
        fill: url(#linear-gradient-2);
      }

      .cls-6 {
        opacity: 0.5;
        fill: url(#linear-gradient-3);
      }

      .cls-7 {
        fill: #5d4037;
      }

      .cls-8 {
        fill: #4e342e;
      }

      .cls-9 {
        fill: #80cbc4;
      }

      .cls-10, .cls-11 {
        mix-blend-mode: screen;
      }

      .cls-10 {
        fill: url(#linear-gradient-4);
      }

      .cls-11 {
        fill: url(#linear-gradient-5);
      }
    </style>
    <linearGradient id="linear-gradient" x1="18.69" y1="1.94" x2="18.69" y2="40.64" gradientUnits="userSpaceOnUse">
      <stop offset="0" stop-color="#ffe082"/>
      <stop offset="1" stop-color="#ffbf66"/>
    </linearGradient>
    <radialGradient id="radial-gradient" cx="20" cy="21.25" r="18.69" gradientUnits="userSpaceOnUse">
      <stop offset="0.8" stop-color="#fff"/>
      <stop offset="1" stop-color="#ffbf66"/>
    </radialGradient>
    <linearGradient id="linear-gradient-2" x1="20" y1="19.04" x2="20" y2="40.33" xlink:href="#linear-gradient"/>
    <linearGradient id="linear-gradient-3" x1="10.23" y1="4.95" x2="10.23" y2="15.52" xlink:href="#linear-gradient"/>
    <linearGradient id="linear-gradient-4" x1="10.23" y1="1.56" x2="10.23" y2="12.47" gradientUnits="userSpaceOnUse">
      <stop offset="0" stop-color="#fff"/>
      <stop offset="0.5"/>
      <stop offset="1" stop-color="#fff"/>
    </linearGradient>
    <linearGradient id="linear-gradient-5" x1="10.23" y1="1.56" x2="10.23" y2="12.47" gradientUnits="userSpaceOnUse">
      <stop offset="0" stop-color="#fff"/>
      <stop offset="0.5"/>
    </linearGradient>
  </defs>
  <title>1</title>
  <g class="cls-1">
    <g id="레이어_1" data-name="레이어 1">
      <g>
        <g>
          <circle class="cls-2" cx="18.69" cy="21.25" r="18.69"/>
          <path class="cls-3" d="M38.69,21.25A18.69,18.69,0,1,1,7.83,7.07a18.2,18.2,0,0,1,3.81-2.54A18.7,18.7,0,0,1,38.69,21.25Z" transform="translate(-1.31)"/>
          <path class="cls-4" d="M35.42,16.69c0,6.94-6.9,0-15.42,0s-15.42,6.94-15.42,0S11.48,4.12,20,4.12,35.42,9.75,35.42,16.69Z" transform="translate(-1.31)"/>
          <path class="cls-5" d="M20,36.2A18.69,18.69,0,0,1,1.4,19.38c-.06.62-.09,1.24-.09,1.87a18.69,18.69,0,0,0,37.38,0c0-.63,0-1.25-.09-1.87A18.69,18.69,0,0,1,20,36.2Z" transform="translate(-1.31)"/>
        </g>
        <path class="cls-6" d="M13.69,12a3.46,3.46,0,0,1-6.91,0,13.55,13.55,0,0,1,1-4.95,18.2,18.2,0,0,1,3.81-2.54A17.82,17.82,0,0,1,13.69,12Z" transform="translate(-1.31)"/>
        <g>
          <path class="cls-4" d="M17.26,20.13a2.14,2.14,0,0,1-.92-.29,5.54,5.54,0,0,0-2.65-.62,5.54,5.54,0,0,0-2.65.62,2.14,2.14,0,0,1-.92.29,1,1,0,0,1-.83-.42,2.15,2.15,0,0,1,0-2.25,4.76,4.76,0,0,1,4.37-2.61,4.76,4.76,0,0,1,4.37,2.61,2.15,2.15,0,0,1,0,2.25,1,1,0,0,1-.83.42Z" transform="translate(-1.31)"/>
          <path class="cls-7" d="M13.69,15.48c-3.22,0-4.57,3-3.91,3.85.54.67,1.16-.73,3.91-.73s3.37,1.4,3.91.73C18.26,18.49,16.9,15.48,13.69,15.48Z" transform="translate(-1.31)"/>
          <path class="cls-8" d="M13.69,16.72a4.09,4.09,0,0,1,3.93,2.56c.6-.88-.76-3.8-3.93-3.8s-4.53,2.92-3.93,3.8A4.09,4.09,0,0,1,13.69,16.72Z" transform="translate(-1.31)"/>
        </g>
        <g>
          <path class="cls-4" d="M29.88,20.13a2.14,2.14,0,0,1-.92-.29,6,6,0,0,0-5.3,0,2.14,2.14,0,0,1-.92.29,1,1,0,0,1-.83-.42,2.15,2.15,0,0,1,0-2.25,5,5,0,0,1,8.74,0,2.15,2.15,0,0,1,0,2.25A1,1,0,0,1,29.88,20.13Z" transform="translate(-1.31)"/>
          <path class="cls-7" d="M26.31,15.48c3.22,0,4.57,3,3.91,3.85-.54.67-1.16-.73-3.91-.73s-3.37,1.4-3.91.73C21.74,18.49,23.1,15.48,26.31,15.48Z" transform="translate(-1.31)"/>
          <path class="cls-8" d="M26.31,16.72a4.09,4.09,0,0,1,3.93,2.56c.6-.88-.76-3.8-3.93-3.8s-4.53,2.92-3.93,3.8A4.09,4.09,0,0,1,26.31,16.72Z" transform="translate(-1.31)"/>
        </g>
        <g>
          <path class="cls-4" d="M25.82,33.4a9.4,9.4,0,0,1-1-.07l-.38,0-.55,0c-1.1-.05-2.23-.1-3.34-.1H19.43c-1.11,0-2.24,0-3.34.1l-.55,0-.38,0a9.4,9.4,0,0,1-1,.07,1.77,1.77,0,0,1-1.53-.61,1.37,1.37,0,0,1,0-1.37c1.27-2.63,5-3.81,7.31-3.81s6,1.18,7.31,3.81a1.37,1.37,0,0,1,0,1.37,1.76,1.76,0,0,1-1.52.61Z" transform="translate(-1.31)"/>
          <path class="cls-7" d="M26.75,31.69c-1.12-2.31-4.56-3.46-6.75-3.46s-5.63,1.15-6.75,3.46c-.73,1.51,1.54,1,2.26,1,1.49-.07,3-.14,4.49-.12s3,0,4.49.12C25.21,32.71,27.48,33.2,26.75,31.69Z" transform="translate(-1.31)"/>
          <path class="cls-8" d="M13.41,32.65c1.25-2.12,4.49-3.18,6.59-3.18s5.34,1.06,6.59,3.18c.3-.14.42-.42.16-1-1.12-2.31-4.56-3.46-6.75-3.46s-5.63,1.15-6.75,3.46C13,32.23,13.11,32.51,13.41,32.65Z" transform="translate(-1.31)"/>
        </g>
        <g>
          <path class="cls-9" d="M13.69,9.6a3.46,3.46,0,0,1-6.91,0c0-5,3.69-9.6,3.69-9.6S13.69,4.89,13.69,9.6Z" transform="translate(-1.31)"/>
          <path class="cls-10" d="M10.23,12.43A2.83,2.83,0,0,1,7.4,9.6c0-3.58,2-7,3-8.47.87,1.54,2.65,5.09,2.65,8.47A2.84,2.84,0,0,1,10.23,12.43Z" transform="translate(-1.31)"/>
          <path class="cls-11" d="M10.23,12.43A2.83,2.83,0,0,1,7.4,9.6c0-3.58,2-7,3-8.47.87,1.54,2.65,5.09,2.65,8.47A2.84,2.84,0,0,1,10.23,12.43Z" transform="translate(-1.31)"/>
        </g>
      </g>
    </g>
  </g>
</svg>
