<svg id="레이어_1" data-name="레이어 1" xmlns="http://www.w3.org/2000/svg" viewBox="0 0 24.24 39.94">
  <defs>
    <style>
      .cls-1 {
        fill: #1e1e29;
      }

      .cls-2 {
        fill: #9ab5de;
      }

      .cls-3 {
        fill: #313142;
      }

      .cls-4 {
        opacity: 0.1;
      }

      .cls-5 {
        fill: #b0c6e8;
      }

      .cls-6 {
        fill: #2b221c;
      }

      .cls-7 {
        fill: #ffcb9e;
      }

      .cls-8 {
        fill: #bf3c1b;
      }

      .cls-17, .cls-8, .cls-9 {
        opacity: 0.3;
      }

      .cls-9 {
        fill: #c94614;
      }

      .cls-10 {
        fill: #45362e;
      }

      .cls-11 {
        fill: #f7a286;
      }

      .cls-12 {
        fill: #8f3935;
      }

      .cls-13 {
        fill: #fff9f0;
      }

      .cls-14 {
        fill: #e8dac5;
      }

      .cls-15 {
        fill: #ffa073;
      }

      .cls-16 {
        fill: #261b18;
      }

      .cls-17 {
        fill: #b54d26;
      }

      .cls-18 {
        fill: #ffdfc2;
      }

      .cls-19 {
        fill: #e6d2c3;
        opacity: 0.7;
      }
    </style>
  </defs>
  <title>1</title>
  <g>
    <path class="cls-1" d="M10.29,35.81c-.12,1.24.05,4,.05,4.19H14s.21-5,1.73-5.77l-1.29-2.9C11.53,32.3,10.45,34.13,10.29,35.81Z" transform="translate(-7.88 -0.06)"/>
    <path class="cls-1" d="M27,31.33l-1.3,2.9C27.22,35,27.42,40,27.42,40h3.7a41.7,41.7,0,0,0,.06-4.19C31,34.13,29.94,32.3,27,31.33Z" transform="translate(-7.88 -0.06)"/>
    <g>
      <path class="cls-2" d="M26,30.84a11.57,11.57,0,0,0-10.4.27c-2.74,1.78-2.47,4.62-1.8,8.89H27.63C28.36,35.8,28.68,32.28,26,30.84Z" transform="translate(-7.88 -0.06)"/>
      <g>
        <path class="cls-1" d="M25.87,30.53c-.71,2.34-1.59,6-2.33,9.47H28c.59-3.49,1.32-7.09,1.11-7.64C28.82,31.63,25.87,30.53,25.87,30.53Z" transform="translate(-7.88 -0.06)"/>
        <path class="cls-3" d="M25.79,30s-.5,3.32-.61,3.77,4.35-.89,4.39-1.34S28.57,30.2,25.79,30Z" transform="translate(-7.88 -0.06)"/>
        <path class="cls-3" d="M25.42,32.5a44.36,44.36,0,0,0-2,7.5h2.69c1.29-2.57,2.42-4.76,2.5-5C28.76,34.48,25.77,31.9,25.42,32.5Z" transform="translate(-7.88 -0.06)"/>
      </g>
      <g>
        <path class="cls-1" d="M12.31,32.36c-.21.55.51,4.15,1.11,7.64h4.44c-.73-3.5-1.61-7.13-2.33-9.47C15.53,30.53,12.59,31.63,12.31,32.36Z" transform="translate(-7.88 -0.06)"/>
        <path class="cls-3" d="M11.84,32.43c0,.45,4.5,1.8,4.39,1.34S15.61,30,15.61,30C12.84,30.2,11.8,32,11.84,32.43Z" transform="translate(-7.88 -0.06)"/>
        <path class="cls-3" d="M12.84,35c.08.23,1.21,2.42,2.5,5H18a43.72,43.72,0,0,0-2-7.5C15.64,31.9,12.65,34.48,12.84,35Z" transform="translate(-7.88 -0.06)"/>
      </g>
      <path class="cls-4" d="M20.18,26.42c-6.18,0-6.16,9,.53,9C27,35.38,28.77,26.42,20.18,26.42Z" transform="translate(-7.88 -0.06)"/>
      <path class="cls-5" d="M20.14,26.11c-6.59,0-6.58,8.5.56,8.5C27.38,34.61,29.31,26.11,20.14,26.11Z" transform="translate(-7.88 -0.06)"/>
    </g>
    <g>
      <path class="cls-6" d="M30,3.44C26.64-.44,20.9-1,14.36,1.75a12.22,12.22,0,0,0,3.37-.08c-3.44,1.52-7.51,3.52-8.46,7.54-1.09,4.59-.33,10,2.23,10.38,2.18.32,5-4.5,6.45-4,3.14,1,11,.09,13.27-3.16a7.06,7.06,0,0,0,.58-5.66A8.2,8.2,0,0,0,30,3.44Z" transform="translate(-7.88 -0.06)"/>
      <path class="cls-7" d="M19.68,5.43c-5.35.94-9.25,8.58-8.41,15.83.64,5.42,4.68,11.44,11,11.11s9.72-8.24,9-14.91C30.47,10.2,27.17,4.1,19.68,5.43Z" transform="translate(-7.88 -0.06)"/>
      <path class="cls-8" d="M26.68,6.87a24.21,24.21,0,0,0-6.33-1.09,13.74,13.74,0,0,0-5.78.54c-1,.42-2.2,1-2.58,2-.32.86-.7,2-.23,2.77,1,1.62,3,.7,3.76.32,1.65-.82,9.08-.1,12.55,0,1.44,0,3.53-.19,3-2.16C30.59,7.7,28,7.3,26.68,6.87Z" transform="translate(-7.88 -0.06)"/>
      <path class="cls-7" d="M9.47,18.21c-2.63.68-1.65,4.54.47,5.35a5.08,5.08,0,0,0,2.11.27.16.16,0,0,0,0-.07c.33-.49-.06-3.3-.21-3.83C11.5,18.6,10.73,17.89,9.47,18.21Z" transform="translate(-7.88 -0.06)"/>
      <path class="cls-9" d="M10.36,19.64C9.78,19.36,8.3,19.82,9,21c.38-1.06,1-.35.91.41-.08.51-.63.51-.1,1.17.29.36.89.24,1.19.06C11.94,22,11.07,20,10.36,19.64Z" transform="translate(-7.88 -0.06)"/>
      <path class="cls-6" d="M28.1,3.52c-4-2.2-10.19-1.76-13.63.7S10,11.32,9.93,15.44a3.94,3.94,0,0,0,1.37,3.37c1.23,1.1,1.17-2.16,1.31-3.4.31-2.77,1.49-5,4.51-5.05,2,0,10-.27,11.81.41,1,.37,2.36.93,2.59-.7a6.06,6.06,0,0,0-1.38-5A7.62,7.62,0,0,0,28.1,3.52Z" transform="translate(-7.88 -0.06)"/>
      <path class="cls-10" d="M29,4.22a10,10,0,0,0-5.67-2.88,10.94,10.94,0,0,0-4.26.32,13.72,13.72,0,0,1,1.51.65,22.44,22.44,0,0,0-4.34,1.34c-.43.19-4,2.52-4,2.52a4.46,4.46,0,0,0,3.18.16,10.83,10.83,0,0,1,4.84,0c1.5.37,2.84,1.15,4.33,1.53.06-.68-.58-1.28-.85-1.75.85,0,4.09,2.15,4.76,2.71a23.4,23.4,0,0,1-1-2.43c.83.14,2.7,1.87,3.25,2.86a7.15,7.15,0,0,0-.18-2.46A5.78,5.78,0,0,0,29,4.22Z" transform="translate(-7.88 -0.06)"/>
    </g>
    <g>
      <g>
        <path class="cls-11" d="M26.93,23.72c-1.16.09-2.44.11-4.07.16a43.44,43.44,0,0,1-5.15.13c-.78-.07-1.28.56-.93,1,2.25,2.79,3.74,3.05,5.71,3.14,2.83.14,3.94-1.15,4.37-2.44a4,4,0,0,1,.83-1.11C28.17,24.09,27.66,23.66,26.93,23.72Z" transform="translate(-7.88 -0.06)"/>
        <path class="cls-12" d="M17,24.25a6.61,6.61,0,0,0,5.28,2.85c2.26,0,3.74-.64,4.16-1.6a2.86,2.86,0,0,1,1.42-1.43A25.33,25.33,0,0,1,17,24.25Z" transform="translate(-7.88 -0.06)"/>
        <path class="cls-13" d="M18.32,24.49s.11.86,1.37,1.18a13.12,13.12,0,0,0,5.13.17,2.68,2.68,0,0,0,1.8-1.52A27.16,27.16,0,0,1,18.32,24.49Z" transform="translate(-7.88 -0.06)"/>
        <path class="cls-13" d="M23.18,26a7.7,7.7,0,0,1-3.76-.49c-.58-.33-.63,0-.5.25,0,0,.52,1.17,3.2,1.42S26,26,25.73,25.74,24.68,25.9,23.18,26Z" transform="translate(-7.88 -0.06)"/>
        <path class="cls-14" d="M18.32,24.49a1.3,1.3,0,0,0,.32.6s6-.49,7.48,0a2.67,2.67,0,0,0,.5-.75A31.52,31.52,0,0,1,18.32,24.49Z" transform="translate(-7.88 -0.06)"/>
        <path class="cls-14" d="M19.9,25.64a6.38,6.38,0,0,0,4.76.16A9.53,9.53,0,0,1,19.9,25.64Z" transform="translate(-7.88 -0.06)"/>
      </g>
      <path class="cls-15" d="M30.19,20.59a2.42,2.42,0,0,0-1.94-.79c-.83,0-1.95.24-1.24,1.46.38.65,3.7,1.22,3.35-.27A1.31,1.31,0,0,0,30.19,20.59Z" transform="translate(-7.88 -0.06)"/>
      <path class="cls-15" d="M17.71,20.19a2.52,2.52,0,0,0-2.17-.29c-.86.18-1.93.75-.89,1.81.56.56,4.08.26,3.34-1.15A1.34,1.34,0,0,0,17.71,20.19Z" transform="translate(-7.88 -0.06)"/>
      <path class="cls-16" d="M16.5,16.62c-1.36-.62-2.27,1.82-1.35,2.64a1.94,1.94,0,0,1,1.36.14A1.69,1.69,0,0,0,16.5,16.62Z" transform="translate(-7.88 -0.06)"/>
      <path class="cls-17" d="M23,21.15c-.8,0-1.11-.37-1.68,0s.21,1.42,1.64,1.39,2.05-1,1.76-1.36S23.84,21.16,23,21.15Z" transform="translate(-7.88 -0.06)"/>
      <path class="cls-18" d="M22.8,18.12c-1.51-.16-1.68,3-1.34,3.32a2.88,2.88,0,0,0,3.13-.28C24.8,21,24.23,18.27,22.8,18.12Z" transform="translate(-7.88 -0.06)"/>
      <path class="cls-16" d="M29.73,16.78c-1.38-.87-2.46,1.82-1.32,2.61a1.81,1.81,0,0,1,1.46,0C30.44,18.8,30.48,17.24,29.73,16.78Z" transform="translate(-7.88 -0.06)"/>
      <path class="cls-19" d="M15.83,17.21c-.56.18-.16,1.28.39.89S16.33,17.05,15.83,17.21Z" transform="translate(-7.88 -0.06)"/>
      <path class="cls-19" d="M29,17.23c-.55.1-.31,1.2.26.9C29.68,17.91,29.5,17.14,29,17.23Z" transform="translate(-7.88 -0.06)"/>
      <path class="cls-6" d="M18,14.18a6.24,6.24,0,0,0-3.26-.54,1.3,1.3,0,0,0-1.14,1.78c.09.32.27-.44,1.91-.47s2.91,1.06,3.17.57S18.42,14.4,18,14.18Z" transform="translate(-7.88 -0.06)"/>
      <path class="cls-6" d="M30.1,13.93a6.15,6.15,0,0,0-3.28.42c-.47.19-1,.68-.73,1.31s1.68-.53,3.19-.45,1.79.86,1.89.53A1.29,1.29,0,0,0,30.1,13.93Z" transform="translate(-7.88 -0.06)"/>
    </g>
  </g>
</svg>
