<svg id="레이어_1" data-name="레이어 1" xmlns="http://www.w3.org/2000/svg" viewBox="0 0 40 40">
  <defs>
    <style>
      .cls-1 {
        stroke: #000;
        stroke-miterlimit: 10;
        stroke-width: 0.75px;
      }
    </style>
  </defs>
  <title>1</title>
  <path d="M20,40A20,20,0,1,1,40,20,20,20,0,0,1,20,40ZM20,3.66A16.34,16.34,0,1,0,36.34,20,16.36,16.36,0,0,0,20,3.66Z"/>
  <path class="cls-1" d="M17.29,18.78c-.65.09-1.29.14-1.94.18s-1.29.06-1.93.07h-3V16.47H14c.77,0,1.51,0,2.22,0s1.48-.09,2.32-.17a12.41,12.41,0,0,0,.6-2.88c-.68,0-1.51.05-2.49.05h-6V10.83h7.84c1.22,0,2.53,0,3.94,0a21.62,21.62,0,0,1-.76,5,15.64,15.64,0,0,1-2,4.32,17.27,17.27,0,0,1-3.32,3.68A25.92,25.92,0,0,1,11.58,27L9.49,24.82A21.56,21.56,0,0,0,14.22,22,14.75,14.75,0,0,0,17.29,18.78ZM31.1,20.05H27.5V31.92H24.42V8.9H27.5v8.52h3.6Z"/>
</svg>
