<svg id="레이어_1" data-name="레이어 1" xmlns="http://www.w3.org/2000/svg" viewBox="0 0 39.92 39.4">
  <defs>
    <style>
      .cls-1 {
        fill: #ff9500;
      }

      .cls-1, .cls-2, .cls-3 {
        fill-rule: evenodd;
      }

      .cls-2 {
        fill: #ec331e;
      }
    </style>
  </defs>
  <title>1</title>
  <g>
    <polygon class="cls-1" points="18.55 4.2 18.98 0.71 20.07 0.71 20.78 1.95 20.78 3.31 20.52 3.89 18.55 4.2"/>
    <polygon class="cls-1" points="11.67 32.99 12.95 35.57 15.29 36.61 17.12 35.82 18.18 32.81 18.74 22.93 18.27 17.6 21.12 17.83 21.06 29.01 20.52 35.04 18.74 37.49 15.86 38.49 11.97 38.49 9.86 36.47 9.57 33.7 10.8 33.22 11.67 32.99"/>
    <polygon class="cls-2" points="0.52 20.28 1.06 16.47 3.85 10.92 10.17 5.99 18.55 4.2 24.99 4.58 32.57 8.62 36.81 13.54 39.16 20.28 35.45 18.77 32.65 18.4 29.47 19.7 26.55 19.07 21.36 17.83 17.9 17.83 13.88 18.4 11.16 19.24 7.56 18.29 5.14 18.29 2.81 18.91 0.52 20.28"/>
    <path class="cls-1" d="M20.45,1.25a.5.5,0,0,0-.7-.16,3,3,0,0,0-.82.76.46.46,0,0,0,.53.66A2.54,2.54,0,0,0,20.29,2,.53.53,0,0,0,20.45,1.25Z" transform="translate(0 -0.3)"/>
    <path class="cls-1" d="M20.78,2.25a.52.52,0,0,0-.72,0,5.92,5.92,0,0,0-.91,1.33.48.48,0,0,0,.7.52A4.82,4.82,0,0,0,20.8,3,.54.54,0,0,0,20.78,2.25Z" transform="translate(0 -0.3)"/>
    <path class="cls-1" d="M20.28,18.23a7.28,7.28,0,0,0-1.42,1.1c-.29.33,0,1,.47.78a6.74,6.74,0,0,0,1.53-.95C21.43,18.76,20.86,17.83,20.28,18.23Z" transform="translate(0 -0.3)"/>
    <path class="cls-1" d="M20.12,20.66a10.47,10.47,0,0,0-1.18.78.49.49,0,0,0,.39.88,11.29,11.29,0,0,0,1.41-.65C21.41,21.3,20.79,20.29,20.12,20.66Z" transform="translate(0 -0.3)"/>
    <path class="cls-1" d="M20.28,23c-.37.23-.72.47-1.08.73a.51.51,0,0,0,.53.86c.39-.2.76-.41,1.13-.64A.56.56,0,0,0,20.28,23Z" transform="translate(0 -0.3)"/>
    <path class="cls-1" d="M20.65,26.22a.59.59,0,0,0-.8-.19c-.36.2-.7.4-1.05.63s-.14,1.07.4.88.85-.33,1.26-.52A.58.58,0,0,0,20.65,26.22Z" transform="translate(0 -0.3)"/>
    <path class="cls-1" d="M20.54,28.1l-.94.52a3.47,3.47,0,0,0-.91.59.52.52,0,0,0,.52.84,3.63,3.63,0,0,0,1-.49l.94-.55C21.71,28.66,21.15,27.76,20.54,28.1Z" transform="translate(0 -0.3)"/>
    <path class="cls-1" d="M20.41,30.68l-1.1.46a2.79,2.79,0,0,0-1,.55.46.46,0,0,0,.34.78,3,3,0,0,0,1-.33l1-.45C21.33,31.43,21,30.41,20.41,30.68Z" transform="translate(0 -0.3)"/>
    <path class="cls-1" d="M20.61,32.84a.54.54,0,0,0-.73-.17,16.91,16.91,0,0,0-1.76.87.48.48,0,0,0,.39.87c.66-.24,1.29-.54,1.92-.84A.53.53,0,0,0,20.61,32.84Z" transform="translate(0 -0.3)"/>
    <path class="cls-1" d="M19.3,34.83A47,47,0,0,1,13,37.65a.59.59,0,0,0,.34,1.13,21.51,21.51,0,0,0,6.58-3A.57.57,0,0,0,19.3,34.83Z" transform="translate(0 -0.3)"/>
    <path class="cls-1" d="M12.45,35.38a5.77,5.77,0,0,1-1,.36,2.67,2.67,0,0,0-1,.28.46.46,0,0,0,0,.8,1.86,1.86,0,0,0,1.23,0,7.21,7.21,0,0,0,1.2-.45C13.4,36.07,13,35.14,12.45,35.38Z" transform="translate(0 -0.3)"/>
    <path class="cls-1" d="M12.13,34a.53.53,0,0,0-.64-.35l-1,.42a.53.53,0,0,0-.34.64.51.51,0,0,0,.64.33l1-.41A.52.52,0,0,0,12.13,34Z" transform="translate(0 -0.3)"/>
    <path class="cls-2" d="M13.26,5.34c-4.11,2.94-9,6.26-12.1,10.32-.31.42.13,1.16.64.78,1.91-1.4,3.53-3.22,5.31-4.78C9.28,9.77,11.52,8,13.84,6.28,14.4,5.87,13.84,4.93,13.26,5.34Z" transform="translate(0 -0.3)"/>
    <path class="cls-2" d="M18.08,4.48C12.7,9.1,7.2,13.62,1.93,18.38c-.59.53.29,1.32.88.83,5.45-4.53,10.7-9.33,16-14C19.36,4.76,18.6,4,18.08,4.48Z" transform="translate(0 -0.3)"/>
    <path class="cls-2" d="M22.37,4.64C17.3,9.15,12,13.53,7.17,18.26c-.54.52.28,1.25.83.79,5.2-4.36,10.09-9.14,15.11-13.71C23.6,4.9,22.86,4.2,22.37,4.64Z" transform="translate(0 -0.3)"/>
    <path class="cls-2" d="M25.63,5c-4.41,4.5-9,8.91-13.24,13.56-.51.55.35,1.27.81.77C17.73,15,22,10.3,26.4,5.77A.53.53,0,0,0,25.63,5Z" transform="translate(0 -0.3)"/>
    <path class="cls-2" d="M28.49,6.47c-3.23,3.56-6.61,7-9.94,10.45a.49.49,0,0,0-.15.14l-.15.2c-.45.61.53,1.25,1,.76,3.5-3.42,6.79-7.09,10-10.76C29.8,6.71,29,5.93,28.49,6.47Z" transform="translate(0 -0.3)"/>
    <path class="cls-2" d="M31,8.27c-1.53,1.43-3,2.89-4.47,4.4a22.18,22.18,0,0,0-3.76,4.4c-.23.45.31,1.08.77.73a33.6,33.6,0,0,0,3.93-4.23q2.15-2.3,4.4-4.47C32.46,8.56,31.58,7.74,31,8.27Z" transform="translate(0 -0.3)"/>
    <path class="cls-2" d="M35.33,13.13c-.87.92-1.75,1.83-2.65,2.72a10.91,10.91,0,0,0-2.43,2.56c-.15.33.13.81.53.65a8.84,8.84,0,0,0,2.64-2.25c.94-.94,1.86-1.89,2.77-2.87A.59.59,0,0,0,35.33,13.13Z" transform="translate(0 -0.3)"/>
    <path class="cls-2" d="M37,15.12c-.48.6-1,1.19-1.51,1.76s-1.16,1-1.33,1.62a.46.46,0,0,0,.58.55c.65-.15,1.14-.9,1.57-1.39s1-1.18,1.48-1.79S37.4,14.57,37,15.12Z" transform="translate(0 -0.3)"/>
    <path class="cls-3" d="M39.91,20.64A20.16,20.16,0,0,0,21.17,3.84a6.28,6.28,0,0,0,0-2.12A1.63,1.63,0,0,0,20,.34C18.17,0,18.43,2.71,18.35,3.77v.06A21.64,21.64,0,0,0,5.56,8.72c-3.27,2.79-6.4,7.53-5.35,12a.68.68,0,0,0,1,.38c2.35-1.37,4.67-2.56,7.35-1.34a7.37,7.37,0,0,0,1.53.57.6.6,0,0,0,.83.3l.5-.23a3.47,3.47,0,0,0,1.19-.46.45.45,0,0,0,.13-.1A19.55,19.55,0,0,1,18,18.65a83,83,0,0,1-.13,11.26,15.13,15.13,0,0,1-.8,5,2.09,2.09,0,0,1-2.79,1.23,3.24,3.24,0,0,1-1.79-2.76.66.66,0,0,0-1-.53l0,0c-1.12,0-2-.06-2.34,1.22A4.24,4.24,0,0,0,10,37.71C11.88,40,15.45,40.17,18,39c3-1.47,3.61-4.53,3.63-7.63,0-4.2,0-8.42,0-12.63a18.26,18.26,0,0,1,4,.93,13.3,13.3,0,0,0,3.09,1.12c1.05.08,1.83-.51,2.78-.83a7.67,7.67,0,0,1,7.29,1.4.68.68,0,0,0,1.12-.68ZM19.55,2.38c0-.24,0-1.28.4-.7a2.32,2.32,0,0,1,.11,1.11c0,.34-.06.67-.09,1h-.56s0,0,0-.06c0-.45.08-.91.13-1.36ZM10.18,19c-.59-.26-1.16-.59-1.62-.78A5.74,5.74,0,0,0,6,17.8a10.72,10.72,0,0,0-4.61,1.65C1,15.36,4.43,11.12,7.5,8.9A20.38,20.38,0,0,1,17.82,5.23c-4.24,3.6-6.44,8.34-7.64,13.79ZM20,34.2a5.15,5.15,0,0,1-5.24,4.13,4.74,4.74,0,0,1-3.88-1.65A3.2,3.2,0,0,1,10.25,35c0-.8.46-1,1-1a4.19,4.19,0,0,0,3,3.49,3.42,3.42,0,0,0,4-2.19c1-2.29.85-5.29,1-7.74a76.73,76.73,0,0,0-.15-9c.38,0,.76,0,1.15,0,0,2.62,0,5.24,0,7.86s.28,5.26-.23,7.74Zm5.47-16A19.58,19.58,0,0,0,11.53,19a26.67,26.67,0,0,1,2.58-7.55,20.44,20.44,0,0,1,5.46-6.21,22.91,22.91,0,0,1,8,13.74c-.68-.23-1.35-.56-2.08-.79Zm8,0A9.25,9.25,0,0,0,30.2,19a2.91,2.91,0,0,1-1.31.27A21.86,21.86,0,0,0,21.25,5.2a18.81,18.81,0,0,1,17,14.13A8.89,8.89,0,0,0,33.47,18.18Z" transform="translate(0 -0.3)"/>
  </g>
</svg>
