<svg id="레이어_1" data-name="레이어 1" xmlns="http://www.w3.org/2000/svg" viewBox="0 0 39.97 39.8">
  <defs>
    <style>
      .cls-1 {
        fill: #ffda00;
      }

      .cls-1, .cls-2, .cls-3, .cls-4 {
        fill-rule: evenodd;
      }

      .cls-2 {
        fill: #576d64;
      }

      .cls-3 {
        fill: #2b2722;
      }
    </style>
  </defs>
  <title>1</title>
  <g>
    <polygon class="cls-1" points="22.46 20.45 22.94 29.41 25.14 29.71 24.89 38.75 32.49 25.83 28.48 25.75 31.06 20.3 23.8 19.9 22.46 20.45"/>
    <polygon class="cls-2" points="22.42 23.1 9.28 22.76 5.01 22.05 1.56 19.9 0.78 15.16 2.45 12.11 5.01 9.41 6.24 8.28 8.69 4.26 11.1 2.09 14.14 1.19 17.92 1.19 22.07 2.86 24.71 4.75 28.88 5.34 30.93 6.87 32.62 8.77 36.33 10.69 37.93 12.37 39.22 16.36 39 18.89 38.12 20.72 35.71 22.48 31.68 23.31 29.21 23.49 30.93 20.3 22.79 20.3 22.46 21.58 22.42 23.1"/>
    <path class="cls-1" d="M27,35.23l-.69-1.48a.4.4,0,0,0-.54-.12.4.4,0,0,0-.13.54c.23.49.45,1,.68,1.48S27.19,35.7,27,35.23Z"/>
    <path class="cls-1" d="M28.24,33.53c-.74-.94-1.54-1.8-2.23-2.78-.34-.48-1.12,0-.78.48a16.36,16.36,0,0,0,2.3,2.87C27.9,34.43,28.57,34,28.24,33.53Z"/>
    <path class="cls-1" d="M29.18,32a7.37,7.37,0,0,0-2.35-2.62l-3.39-3.06c-.37-.33-.89.22-.53.56.95.89,1.89,1.79,2.83,2.69a12.31,12.31,0,0,1,2.59,2.81C28.58,32.85,29.38,32.5,29.18,32Z"/>
    <path class="cls-1" d="M30.1,29.23c-2.06-2-4.35-3.73-6.52-5.57-.34-.29-.83.21-.48.52,2.11,1.9,4.16,3.93,6.38,5.7C29.92,30.23,30.51,29.64,30.1,29.23Z"/>
    <path class="cls-1" d="M31.1,27c-.75-1.15-2.37-2-3.44-2.9l-4.07-3.32c-.37-.3-.89.23-.52.54l3.58,3,1.68,1.43c.33.29,1.83,1.26,1.89,1.64a.41.41,0,0,0,.69.27l.13-.1A.5.5,0,0,0,31.1,27Z"/>
    <path class="cls-1" d="M29.63,23.2a14,14,0,0,0-1.87-1.55l-1.91-1.51c-.36-.29-.87.23-.5.54l2,1.64a13.81,13.81,0,0,0,1.87,1.48C29.58,24,29.91,23.51,29.63,23.2Z"/>
    <path class="cls-2" d="M4.35,17.38q-1-2.32-1.83-4.68c-.22-.59-1.13-.33-.93.28q.76,2.38,1.63,4.74A14.22,14.22,0,0,0,5,21.84c.26.34,1,.28.91-.27A17.59,17.59,0,0,0,4.35,17.38Z"/>
    <path class="cls-2" d="M10,22.11A49.6,49.6,0,0,0,7.58,16.2c-.82-2-1.57-4-2.3-6-.22-.61-1.2-.33-1,.3,1.34,3.89,2.5,8.54,4.7,12A.56.56,0,0,0,10,22.11Z"/>
    <path class="cls-2" d="M14.29,22.59c-2-5.41-4.31-10.71-6.48-16-.23-.56-1.15-.3-.92.28,2.07,5.37,4,10.82,6.28,16.11C13.46,23.6,14.55,23.31,14.29,22.59Z"/>
    <path class="cls-2" d="M17.89,22.34a157.67,157.67,0,0,0-7.8-19.28c-.2-.43-1-.09-.78.36,2.76,6.32,5.11,12.77,7.36,19.29A.64.64,0,0,0,17.89,22.34Z"/>
    <path class="cls-2" d="M22.42,23.1A178,178,0,0,0,13,1.43c-.28-.56-1.07-.05-.81.5C15.5,9,18.36,16.2,21.21,23.46,21.5,24.21,22.69,23.87,22.42,23.1Z"/>
    <path class="cls-2" d="M25,19.51C22.67,13,19.3,6.78,16.3.59c-.27-.55-1.05,0-.8.5C18.33,7.35,20.73,13.91,23.86,20A.62.62,0,0,0,25,19.51Z"/>
    <path class="cls-2" d="M29.49,19.75A117.31,117.31,0,0,0,21.64,2c-.25-.49-1,0-.72.44,2.84,5.76,5,11.7,7.5,17.62C28.69,20.73,29.71,20.45,29.49,19.75Z"/>
    <path class="cls-2" d="M34,23.49l.51-.36a1.35,1.35,0,0,1,.49-.22A147.84,147.84,0,0,0,26.88,4.47c-.25-.48-.94,0-.7.43A165.27,165.27,0,0,1,34,23.37.45.45,0,0,0,34,23.49Z"/>
    <path class="cls-2" d="M37.65,21C36.14,16.25,33.87,11.68,32,7.11c-.18-.43-.88-.23-.71.21,1.81,4.65,3.35,9.56,5.55,14C37,21.83,37.81,21.47,37.65,21Z"/>
    <path class="cls-2" d="M37.15,11c-.2-.48-1-.27-.79.24.81,2.17,1.3,4.56,2.25,6.67.19.42,1,.42.91-.15A31,31,0,0,0,37.15,11Z"/>
    <path class="cls-3" d="M38.51,12a7.88,7.88,0,0,0-1.93-1.89A21.5,21.5,0,0,0,34.23,9c-1-.54-1.52-1.88-2.37-2.67a8.25,8.25,0,0,0-7.23-2A10.63,10.63,0,0,0,14.18.19a10.74,10.74,0,0,0-5.64,3.1A11.19,11.19,0,0,0,6.77,5.84C6.47,6.41,6.26,7,6,7.58A3.4,3.4,0,0,1,4.44,9.14C1.07,11.25-1.21,15.5.69,19.35c2.05,4.17,8,4.23,12,4.31l6.92.14c.78.05,1.56.07,2.35.08.08,1.92.19,3.84.28,5.76a.67.67,0,0,0,.67.65l1.43-.07c0,3,0,6-.17,9a.66.66,0,0,0,1.23.31q3.78-6.72,7.7-13.33a.67.67,0,0,0-.59-1,19.59,19.59,0,0,0-3.25,0c.17-.4.36-.79.55-1.17a26.54,26.54,0,0,0,3-.05,7.81,7.81,0,0,0,7.15-6.79A7.56,7.56,0,0,0,38.51,12Zm-28,13.43c.34-.65,1.34-.1,1,.56a77.44,77.44,0,0,1-5.57,9.42c-.44.64-1.51,0-1.06-.59a84.81,84.81,0,0,0,5.63-9.39Zm8.2.1h0c.35-.66,1.35-.1,1,.56a80.56,80.56,0,0,1-5.19,9c-.44.65-1.49.11-1.08-.59,1.75-3,3.64-5.87,5.25-8.93Zm3.18-3-7.27-.13c-4.43-.09-13.73.3-13.19-6.41A6.9,6.9,0,0,1,3.16,12a16.1,16.1,0,0,1,3-2.25A5,5,0,0,0,7.58,7.46,10.75,10.75,0,0,1,9.89,4,9.17,9.17,0,0,1,23.76,5.42a.7.7,0,0,0,.78.29,6.91,6.91,0,0,1,5.25.77,6.52,6.52,0,0,1,2.07,1.91,6.09,6.09,0,0,0,1,1.41,10.24,10.24,0,0,0,2.21.93,6.44,6.44,0,0,1,3.52,6.68,6.68,6.68,0,0,1-2.84,4.27,8.41,8.41,0,0,1-5.32,1.06c.32-.58.65-1.16,1-1.73.1-.18.2-.35.31-.51a.57.57,0,0,0-.5-.84c-1.8-.06-3.59-.07-5.38-.13-1,0-2.83-.44-3.63.42a3.29,3.29,0,0,0-.41,2.53ZM23.2,21c.41-.6,3-.23,3.78-.23l3.2,0a22.72,22.72,0,0,0-2.57,5,.67.67,0,0,0,.65.82,18.73,18.73,0,0,1,3.17-.18q-3,5-5.82,10,.12-3.47.05-6.94a.66.66,0,0,0-.67-.64l-1.46.07-.18-3.83c0-.75-.08-1.5-.13-2.25C23.2,22.41,22.94,21.35,23.2,21Z"/>
    <path class="cls-1" d="M27,35.23l-.69-1.48a.4.4,0,0,0-.54-.12.4.4,0,0,0-.13.54c.23.49.45,1,.68,1.48S27.19,35.7,27,35.23Z"/>
    <path class="cls-1" d="M28.24,33.53c-.74-.94-1.54-1.8-2.23-2.78-.34-.48-1.12,0-.78.48a16.36,16.36,0,0,0,2.3,2.87C27.9,34.43,28.57,34,28.24,33.53Z"/>
    <path class="cls-1" d="M29.18,32a7.37,7.37,0,0,0-2.35-2.62l-3.39-3.06c-.37-.33-.89.22-.53.56.95.89,1.89,1.79,2.83,2.69a12.31,12.31,0,0,1,2.59,2.81C28.58,32.85,29.38,32.5,29.18,32Z"/>
    <path class="cls-1" d="M30.1,29.23c-2.06-2-4.35-3.73-6.52-5.57-.34-.29-.83.21-.48.52,2.11,1.9,4.16,3.93,6.38,5.7C29.92,30.23,30.51,29.64,30.1,29.23Z"/>
    <path class="cls-1" d="M31.1,27c-.75-1.15-2.37-2-3.44-2.9l-4.07-3.32c-.37-.3-.89.23-.52.54l3.58,3,1.68,1.43c.33.29,1.83,1.26,1.89,1.64a.41.41,0,0,0,.69.27l.13-.1A.5.5,0,0,0,31.1,27Z"/>
    <path class="cls-1" d="M29.63,23.2a14,14,0,0,0-1.87-1.55l-1.91-1.51c-.36-.29-.87.23-.5.54l2,1.64a13.81,13.81,0,0,0,1.87,1.48C29.58,24,29.91,23.51,29.63,23.2Z"/>
    <path class="cls-2" d="M4.35,17.38q-1-2.32-1.83-4.68c-.22-.59-1.13-.33-.93.28q.76,2.38,1.63,4.74A14.22,14.22,0,0,0,5,21.84c.26.34,1,.28.91-.27A17.59,17.59,0,0,0,4.35,17.38Z"/>
    <path class="cls-2" d="M10,22.11A49.6,49.6,0,0,0,7.58,16.2c-.82-2-1.57-4-2.3-6-.22-.61-1.2-.33-1,.3,1.34,3.89,2.5,8.54,4.7,12A.56.56,0,0,0,10,22.11Z"/>
    <path class="cls-2" d="M14.29,22.59c-2-5.41-4.31-10.71-6.48-16-.23-.56-1.15-.3-.92.28,2.07,5.37,4,10.82,6.28,16.11C13.46,23.6,14.55,23.31,14.29,22.59Z"/>
    <path class="cls-2" d="M17.89,22.34a157.67,157.67,0,0,0-7.8-19.28c-.2-.43-1-.09-.78.36,2.76,6.32,5.11,12.77,7.36,19.29A.64.64,0,0,0,17.89,22.34Z"/>
    <path class="cls-2" d="M22.42,23.1A178,178,0,0,0,13,1.43c-.28-.56-1.07-.05-.81.5C15.5,9,18.36,16.2,21.21,23.46,21.5,24.21,22.69,23.87,22.42,23.1Z"/>
    <path class="cls-2" d="M25,19.51C22.67,13,19.3,6.78,16.3.59c-.27-.55-1.05,0-.8.5C18.33,7.35,20.73,13.91,23.86,20A.62.62,0,0,0,25,19.51Z"/>
    <path class="cls-2" d="M29.49,19.75A117.31,117.31,0,0,0,21.64,2c-.25-.49-1,0-.72.44,2.84,5.76,5,11.7,7.5,17.62C28.69,20.73,29.71,20.45,29.49,19.75Z"/>
    <path class="cls-2" d="M34,23.49l.51-.36a1.35,1.35,0,0,1,.49-.22A147.84,147.84,0,0,0,26.88,4.47c-.25-.48-.94,0-.7.43A165.27,165.27,0,0,1,34,23.37.45.45,0,0,0,34,23.49Z"/>
    <path class="cls-2" d="M37.65,21C36.14,16.25,33.87,11.68,32,7.11c-.18-.43-.88-.23-.71.21,1.81,4.65,3.35,9.56,5.55,14C37,21.83,37.81,21.47,37.65,21Z"/>
    <path class="cls-2" d="M37.15,11c-.2-.48-1-.27-.79.24.81,2.17,1.3,4.56,2.25,6.67.19.42,1,.42.91-.15A31,31,0,0,0,37.15,11Z"/>
    <path class="cls-4" d="M38.51,12a7.88,7.88,0,0,0-1.93-1.89A21.5,21.5,0,0,0,34.23,9c-1-.54-1.52-1.88-2.37-2.67a8.25,8.25,0,0,0-7.23-2A10.63,10.63,0,0,0,14.18.19a10.74,10.74,0,0,0-5.64,3.1A11.19,11.19,0,0,0,6.77,5.84C6.47,6.41,6.26,7,6,7.58A3.4,3.4,0,0,1,4.44,9.14C1.07,11.25-1.21,15.5.69,19.35c2.05,4.17,8,4.23,12,4.31l6.92.14c.78.05,1.56.07,2.35.08.08,1.92.19,3.84.28,5.76a.67.67,0,0,0,.67.65l1.43-.07c0,3,0,6-.17,9a.66.66,0,0,0,1.23.31q3.78-6.72,7.7-13.33a.67.67,0,0,0-.59-1,19.59,19.59,0,0,0-3.25,0c.17-.4.36-.79.55-1.17a26.54,26.54,0,0,0,3-.05,7.81,7.81,0,0,0,7.15-6.79A7.56,7.56,0,0,0,38.51,12Zm-28,13.43c.34-.65,1.34-.1,1,.56a77.44,77.44,0,0,1-5.57,9.42c-.44.64-1.51,0-1.06-.59a84.81,84.81,0,0,0,5.63-9.39Zm8.2.1h0c.35-.66,1.35-.1,1,.56a80.56,80.56,0,0,1-5.19,9c-.44.65-1.49.11-1.08-.59,1.75-3,3.64-5.87,5.25-8.93Zm3.18-3-7.27-.13c-4.43-.09-13.73.3-13.19-6.41A6.9,6.9,0,0,1,3.16,12a16.1,16.1,0,0,1,3-2.25A5,5,0,0,0,7.58,7.46,10.75,10.75,0,0,1,9.89,4,9.17,9.17,0,0,1,23.76,5.42a.7.7,0,0,0,.78.29,6.91,6.91,0,0,1,5.25.77,6.52,6.52,0,0,1,2.07,1.91,6.09,6.09,0,0,0,1,1.41,10.24,10.24,0,0,0,2.21.93,6.44,6.44,0,0,1,3.52,6.68,6.68,6.68,0,0,1-2.84,4.27,8.41,8.41,0,0,1-5.32,1.06c.32-.58.65-1.16,1-1.73.1-.18.2-.35.31-.51a.57.57,0,0,0-.5-.84c-1.8-.06-3.59-.07-5.38-.13-1,0-2.83-.44-3.63.42a3.29,3.29,0,0,0-.41,2.53ZM23.2,21c.41-.6,3-.23,3.78-.23l3.2,0a22.72,22.72,0,0,0-2.57,5,.67.67,0,0,0,.65.82,18.73,18.73,0,0,1,3.17-.18q-3,5-5.82,10,.12-3.47.05-6.94a.66.66,0,0,0-.67-.64l-1.46.07-.18-3.83c0-.75-.08-1.5-.13-2.25C23.2,22.41,22.94,21.35,23.2,21Z"/>
  </g>
</svg>
