<svg id="레이어_1" data-name="레이어 1" xmlns="http://www.w3.org/2000/svg" viewBox="0 0 25.01 40">
  <defs>
    <style>
      .cls-1 {
        fill: #8d573e;
      }

      .cls-2 {
        fill: #ebebeb;
      }

      .cls-3 {
        fill: #3a3a4a;
      }

      .cls-4 {
        fill: #a1664c;
      }

      .cls-5 {
        opacity: 0.1;
      }

      .cls-6 {
        fill: #fbfbfb;
      }

      .cls-7 {
        fill: #ed9d6c;
      }

      .cls-8 {
        fill: #ba9552;
      }

      .cls-9 {
        fill: #ffcb9e;
      }

      .cls-10, .cls-11 {
        fill: #bf3c1b;
      }

      .cls-10 {
        opacity: 0.15;
      }

      .cls-11, .cls-14, .cls-23 {
        opacity: 0.3;
      }

      .cls-12 {
        fill: #ffa073;
      }

      .cls-13 {
        fill: #305d80;
      }

      .cls-14 {
        fill: #b54d26;
      }

      .cls-15 {
        fill: #ffdfc2;
      }

      .cls-16 {
        fill: #86bae3;
      }

      .cls-17 {
        fill: #f7a286;
      }

      .cls-18 {
        fill: #8f3935;
      }

      .cls-19 {
        fill: #fff9f0;
      }

      .cls-20 {
        fill: #e8dac5;
      }

      .cls-21 {
        fill: #a16b43;
      }

      .cls-22 {
        fill: #f0d197;
      }

      .cls-23, .cls-25, .cls-26 {
        fill: #fff;
      }

      .cls-24 {
        fill: #c1c5c9;
      }

      .cls-26 {
        opacity: 0.7;
      }
    </style>
  </defs>
  <title>1</title>
  <g>
    <path class="cls-1" d="M9.47,40h4.75L11.6,33.63C10.76,34.33,9.51,35.7,9.47,40Z" transform="translate(-8.14)"/>
    <path class="cls-1" d="M29.34,33.45,26.76,40h5C31.75,35.7,30.18,34.14,29.34,33.45Z" transform="translate(-8.14)"/>
    <g>
      <path class="cls-2" d="M15.78,31.59c-1.92,1.62-2.45,3.57.44,6.41a17.14,17.14,0,0,0,2.41,2h3.66c1.77-1.91,4.88-5.66,4.06-7.67C25,29,17.71,30,15.78,31.59Z" transform="translate(-8.14)"/>
      <path class="cls-3" d="M22.49,34.83A1.66,1.66,0,0,0,20.58,34a1.76,1.76,0,0,0-1.45,1.33l1.05,1.07L19.11,40h4.17l-1.42-3.84Z" transform="translate(-8.14)"/>
      <g>
        <path class="cls-1" d="M15.73,31.93a3,3,0,0,1,.35-.67c-1.53.66-4.34,2-4.59,2.51s1.17,3.28,1.82,6.23h6C17.49,37.54,15,33.77,15.73,31.93Z" transform="translate(-8.14)"/>
        <path class="cls-1" d="M25.75,31.08c.09.21.39.66.37.88-.23,2.59-2,5.86-3.33,8h5.42c.48-2.47,1.49-6.17,1.2-6.49A21.73,21.73,0,0,0,25.75,31.08Z" transform="translate(-8.14)"/>
      </g>
      <g>
        <path class="cls-4" d="M25.19,30.79c.35,3.45-1.45,7-2.75,9.21h2a35,35,0,0,0,2.77-2.65A16.23,16.23,0,0,0,26,35.3L28.12,34A9.28,9.28,0,0,0,25.19,30.79Z" transform="translate(-8.14)"/>
        <path class="cls-4" d="M13.53,34.45l2.51,1A24,24,0,0,0,14.92,38a22.14,22.14,0,0,0,2.41,2h2.36c-1.37-2-3.22-5.17-3.22-8.81A6.61,6.61,0,0,0,13.53,34.45Z" transform="translate(-8.14)"/>
      </g>
      <path class="cls-5" d="M16.42,33.29a6.39,6.39,0,0,0,2.47,3.26l2-1.94,2.15,1.84c2.07-1.84,2.47-3,2.64-3.65C26.25,30.76,15.53,30.42,16.42,33.29Z" transform="translate(-8.14)"/>
      <path class="cls-6" d="M16.08,31.29c-1,2.58,2.66,4.69,2.66,4.69l2.18-1.37,2,1.28s4-2.09,2.5-5.1C24.08,28.08,17.25,28.3,16.08,31.29Z" transform="translate(-8.14)"/>
      <path class="cls-7" d="M19.32,27.68a3.06,3.06,0,0,0-2.25,2.81,2.37,2.37,0,0,0,.64,2.11,4.44,4.44,0,0,0,1.72,1c.48.14,1.32.71,1.46.71s.34-.24.79-.47a4.4,4.4,0,0,0,2-1.52c.54-1,1-3.12,0-3.93A5.82,5.82,0,0,0,19.32,27.68Z" transform="translate(-8.14)"/>
    </g>
    <g>
      <path class="cls-8" d="M29.9,7c1-.25.75-2.69.68-3.34a9,9,0,0,0-.42-1.87A4.37,4.37,0,0,0,29,0,5.4,5.4,0,0,1,23.5,2.58a1.29,1.29,0,0,0,.48-1c-.8.17-1.53.55-2.33.7-3.17.59-6.34.68-9,2.84-3.75,3-3.19,8-2.44,12.13A25.51,25.51,0,0,0,12,24.12c.76,1.48,1.51.86,2.62.27a13.3,13.3,0,0,1,5.16-1c1.64-.08,4-.21,5.57.51,1,.47,1.52.85,2.54.07a6.2,6.2,0,0,0,1.68-2.34,12,12,0,0,0,.76-4.2c.15-1.89.64-3.45.49-5.35-.05-.66-.86-3.2.61-5.35A10.29,10.29,0,0,0,29.9,7Z" transform="translate(-8.14)"/>
      <path class="cls-9" d="M19.05,6.86c-5.05,1-8.6,8.28-7.68,15.12.7,5.13,4.63,10.75,10.56,10.33S31,24.34,30.2,18C29.35,11.18,26.12,5.47,19.05,6.86Z" transform="translate(-8.14)"/>
      <path class="cls-10" d="M25.55,7.94a22.61,22.61,0,0,0-6.12-1c-1.84,0-3.84-.14-5.56.65a4.17,4.17,0,0,0-2.46,2.06,7.74,7.74,0,0,0-.16,2.76,14,14,0,0,0,.23,2.5,3.86,3.86,0,0,0,1.06,1.79c.76-1.52,1.05-4,2.84-4.62a7.9,7.9,0,0,1,4.4.24l.26.08c2.28.7,3.69,1.36,6.15.75,1.38-.34,4.18-1,3.6-3C29.34,8.68,26.87,8.33,25.55,7.94Z" transform="translate(-8.14)"/>
      <path class="cls-9" d="M9.61,19.13c-2.48.69-1.48,4.33.54,5.06a5.06,5.06,0,0,0,2,.22l0-.07c.3-.47-.11-3.12-.27-3.62C11.54,19.46,10.8,18.8,9.61,19.13Z" transform="translate(-8.14)"/>
      <path class="cls-11" d="M10.48,20.47c-.56-.26-2,.21-1.29,1.3.34-1,1-.35.86.37-.06.49-.58.5-.06,1.12.27.33.84.21,1.12,0C12,22.72,11.16,20.79,10.48,20.47Z" transform="translate(-8.14)"/>
      <path class="cls-8" d="M26.39,5.45A8,8,0,0,0,19,4c-1.64.38-3.5.6-4.87,1.66a13.37,13.37,0,0,0-3.07,3c-1.31,2-.65,9.87.21,11,.09.13,1.13,1.42,1.62,1.38a23.86,23.86,0,0,1-.14-5.14c.16-2.29.69-4.77,3.29-5.18,1.48-.24,6.18,1.8,7.26,2,1.44.3,4.81-1.32,5.3-1.52,1.21-.51,1.14-1.89.57-2.85A12.76,12.76,0,0,0,26.39,5.45Z" transform="translate(-8.14)"/>
      <g>
        <path class="cls-12" d="M28.15,20.33c-.86,0-2.11.35-1.78,1.87.17.82,3.42,1.46,3.55-.41a1.37,1.37,0,0,0,0-.51C29.68,20.51,28.8,20.34,28.15,20.33Z" transform="translate(-8.14)"/>
        <path class="cls-12" d="M17,21c-.45-.7-1.38-.6-2-.42-.86.23-2,.95-1.17,2.34.43.74,3.86.41,3.41-1.44A1.65,1.65,0,0,0,17,21Z" transform="translate(-8.14)"/>
        <path class="cls-13" d="M16.24,17.51C14.94,17,14.12,19.27,15,20a1.88,1.88,0,0,1,1.28.11A1.58,1.58,0,0,0,16.24,17.51Z" transform="translate(-8.14)"/>
        <path class="cls-14" d="M22.59,21.84c-.77,0-1.07-.33-1.6,0s.23,1.34,1.58,1.29,1.92-1,1.64-1.32S23.43,21.84,22.59,21.84Z" transform="translate(-8.14)"/>
        <path class="cls-15" d="M22.34,18.05c-.8.11-1.49,3.83-1.16,4.09a2.73,2.73,0,0,0,3-.32C24.33,21.62,23.69,17.86,22.34,18.05Z" transform="translate(-8.14)"/>
        <path class="cls-13" d="M28.76,17.42c-1.32-.8-2.29,1.77-1.2,2.49a1.7,1.7,0,0,1,1.38,0A1.9,1.9,0,0,0,28.76,17.42Z" transform="translate(-8.14)"/>
        <path class="cls-16" d="M15.78,17.91c-.53.19-.13,1.22.38.84S16.25,17.76,15.78,17.91Z" transform="translate(-8.14)"/>
        <path class="cls-16" d="M28.25,17.7c-.52.11-.27,1.14.26.84S28.71,17.61,28.25,17.7Z" transform="translate(-8.14)"/>
        <g>
          <path class="cls-17" d="M28.08,23.84c-.36-.25-.8-.45-1.16-.67a.68.68,0,0,0,.19.44c-1.55.09-3.1.21-4.65.28-1,.05-2.05.12-3.08.14-.75,0-2.18.16-2.77-.26a1.59,1.59,0,0,0,.54-.31,5.34,5.34,0,0,0-2.73,1.1c.58-.24,1.34-.58,1.85-.09a20.35,20.35,0,0,0,2.8,2.36c2.17,1.45,6.41,1.27,7.54-1.49.1-.24.6-1.05.95-1.14a3,3,0,0,1,1.17.32A1.91,1.91,0,0,0,28.08,23.84Z" transform="translate(-8.14)"/>
          <path class="cls-18" d="M16.74,24.17a6.72,6.72,0,0,0,5.31,2.5c2.26,0,3.74-.63,4.15-1.5a2.77,2.77,0,0,1,1.4-1.31A28.2,28.2,0,0,1,16.74,24.17Z" transform="translate(-8.14)"/>
          <path class="cls-19" d="M18.05,24.37s.12.77,1.38,1a14.71,14.71,0,0,0,5.14.09,2.64,2.64,0,0,0,1.78-1.39A30.54,30.54,0,0,1,18.05,24.37Z" transform="translate(-8.14)"/>
          <path class="cls-19" d="M22.93,25.63a8.48,8.48,0,0,1-3.77-.39c-.58-.29-.63,0-.5.23,0,0,.54,1,3.22,1.24s3.89-1.1,3.59-1.31S24.43,25.55,22.93,25.63Z" transform="translate(-8.14)"/>
          <path class="cls-20" d="M18.05,24.37a1.19,1.19,0,0,0,.33.54s6-.53,7.48-.12a2.7,2.7,0,0,0,.49-.68A35.14,35.14,0,0,1,18.05,24.37Z" transform="translate(-8.14)"/>
          <path class="cls-20" d="M19.64,25.39a7.1,7.1,0,0,0,4.76.07A10.63,10.63,0,0,1,19.64,25.39Z" transform="translate(-8.14)"/>
        </g>
        <path class="cls-21" d="M13.36,15.93c2.49.05,3.32.19,5.05.1C17.52,14.43,14.47,14.59,13.36,15.93Z" transform="translate(-8.14)"/>
        <path class="cls-21" d="M26,16.12c1.48.08,2.2-.07,4.34-.12C29.43,14.66,26.8,14.52,26,16.12Z" transform="translate(-8.14)"/>
      </g>
      <path class="cls-22" d="M28.64,8.1v0h0S28.63,8.11,28.64,8.1Z" transform="translate(-8.14)"/>
      <path class="cls-22" d="M28.65,8.08v0s0,0,0,0h0a5.3,5.3,0,0,0,.27-6.6c-1.5,2-4.45,1.77-6.63,1.74a14.41,14.41,0,0,0-3.38.36,22.4,22.4,0,0,0-4.27,1.49,5.23,5.23,0,0,0-2.6,2,6.8,6.8,0,0,0-.72,1.74c-.09.35,0,1.66-.1,1.84a7.55,7.55,0,0,1,5.81-3A2.91,2.91,0,0,0,17,9c0-.23,4-1.89,4.08-1.9-.31.48-2.11,2-1.94,2.51,0,0,5-3.14,5.24-3.2-.21.7-2.95,4-2.48,4.6.25-.3,5.22-5,5.48-5.08,0,.45-4.2,5.36-3.94,5.64a43.16,43.16,0,0,1,3.77-3,21.06,21.06,0,0,1-1.23,2.69c1.71-1.07,4.66-2.14,4.37-3.5A4.86,4.86,0,0,0,28.65,8.08Z" transform="translate(-8.14)"/>
    </g>
    <g>
      <path class="cls-5" d="M29.11,20.59A18.53,18.53,0,0,1,26,20.47c-1.37-.25-1.61-2.56-.26-3s2.76.49,4.1,0c.47-.18.56-.38.44-.58A3.54,3.54,0,0,0,28.42,16a28.4,28.4,0,0,0-3.69.05c-3.86,0-7.77-.4-11.72.4-1.5.3-.15,1.6.7,1.69a22.13,22.13,0,0,0,2.8-.28c1,0,3.6-.45,3.48,1.19a1.75,1.75,0,0,1-1.64,1.74,13.51,13.51,0,0,1-2.84.16c-.39,0-3.11-.54-2.78.44.17.5,1.54.6,2,.67a13.16,13.16,0,0,0,2.8-.11c1.21-.07,2.17-.19,2.9-1.23.59-.83.88-1.83,1.43-2.68.89-1.41,1.71.56,2,1.42a4.1,4.1,0,0,0,1.28,1.89,3.37,3.37,0,0,0,1.92.5c.87.11,2.17.39,2.87-.29C30.85,20.68,30,20.61,29.11,20.59Z" transform="translate(-8.14)"/>
      <path class="cls-3" d="M33.1,16.26c-.54-.68-21.39-.68-22,0l-.06.07c0,.13.09,1,.09,1s.15.2.67.2a6.2,6.2,0,0,0,1.41,3.31c1.2,1,5.31.69,6.52.15,1.47-.64,1.2-3.71,2.86-3.73,1.2,0,1.19,2.69,2.35,3.36s5.68,1,6.64,0c.68-.7.62-2.23.76-3.25a1.34,1.34,0,0,0,.8-.3,5.36,5.36,0,0,0,0-.79Zm-13.45,4c-1.07.74-5.33.72-6.12.17s-1.17-2.72-.7-3,6.92-.71,7.64-.34S20.34,19.84,19.65,20.31Zm11.23.06c-.76.5-4.83.45-5.84-.25-.66-.45-1.38-2.63-.74-2.93s6.84.19,7.28.43S31.63,19.87,30.88,20.37Z" transform="translate(-8.14)"/>
      <path class="cls-23" d="M24.93,17.19c-.93.26.6.92.94,1a12,12,0,0,0,3.82.35c.68,0,2.18-.45,1.82-.87C31,17.11,26,16.9,24.93,17.19Z" transform="translate(-8.14)"/>
      <path class="cls-24" d="M13.6,16.35l17.47,0A109.5,109.5,0,0,0,13.6,16.35Z" transform="translate(-8.14)"/>
      <path class="cls-25" d="M28.87,17.48c-.48,0-.81.11-.71.34.21.45,3,.57,3.26.27S29.9,17.45,28.87,17.48Z" transform="translate(-8.14)"/>
      <path class="cls-26" d="M25.5,19.61c-.3,0-.51,0-.46.23.09.37,1.84.63,2,.41S26.14,19.65,25.5,19.61Z" transform="translate(-8.14)"/>
      <path class="cls-26" d="M14.07,19.93c-.3,0-.51,0-.46.23.09.37,1.84.63,2,.41S14.71,20,14.07,19.93Z" transform="translate(-8.14)"/>
      <path class="cls-23" d="M20,17.32c-1.09-.29-6.38-.23-6.87.3-.36.38,1.25.81,2,.87a14.45,14.45,0,0,0,4-.23C19.43,18.18,21,17.59,20,17.32Z" transform="translate(-8.14)"/>
      <path class="cls-25" d="M17.7,17.21c-.48.06-.8.19-.68.41.25.43,3.07.27,3.27,0S18.72,17.08,17.7,17.21Z" transform="translate(-8.14)"/>
    </g>
  </g>
</svg>
