<svg id="레이어_1" data-name="레이어 1" xmlns="http://www.w3.org/2000/svg" viewBox="0 0 40 40">
  <defs>
    <style>
      .cls-1 {
        stroke: #000;
        stroke-miterlimit: 10;
        stroke-width: 0.75px;
      }
    </style>
  </defs>
  <title>1</title>
  <path d="M20,40A20,20,0,1,1,40,20,20,20,0,0,1,20,40ZM20,3.66A16.34,16.34,0,1,0,36.34,20,16.36,16.36,0,0,0,20,3.66Z"/>
  <path class="cls-1" d="M14.93,26.33H10.46V10.71H21.19v2.56H13.51v3.92h7.38v2.56H13.51v4h2.12a29.87,29.87,0,0,0,3.72-.24c1.28-.16,2.67-.4,4.18-.73v2.51a33.49,33.49,0,0,1-4.2.77A39.86,39.86,0,0,1,14.93,26.33ZM31.1,19.85H27.5V31.92H24.42V8.9H27.5v8.34h3.6Z"/>
</svg>
