<svg id="레이어_1" data-name="레이어 1" xmlns="http://www.w3.org/2000/svg" viewBox="0 0 39.7 40">
  <defs>
    <style>
      .cls-1 {
        fill: #576d64;
      }

      .cls-1, .cls-2 {
        fill-rule: evenodd;
      }
    </style>
  </defs>
  <title>1</title>
  <g>
    <polygon class="cls-1" points="21.93 5.02 0.93 0.97 4.16 22.12 8.85 17 32.04 40 39.51 33.06 17.61 10.19 16.39 8.97 21.93 5.02"/>
    <path class="cls-1" d="M3.52,1.63c-.58,4.85-1.15,9.72-1.47,14.59-.06,1,1.41.9,1.5,0C4,11.37,4.28,6.57,4.74,1.77,4.8,1.08,3.61.94,3.52,1.63Z"/>
    <path class="cls-1" d="M7.81,2.27A52.71,52.71,0,0,1,6.48,13c-.34,1.42-1.7,3.73-.9,5.12a.78.78,0,0,0,1.21.13l.14-.17a.76.76,0,0,0,0-1.05c.1-.77.82-2.72.91-3.1.3-1.32.55-2.66.74-4a55.34,55.34,0,0,0,.55-7.72C9.08,1.42,7.83,1.46,7.81,2.27Z"/>
    <path class="cls-1" d="M13,4a115.09,115.09,0,0,0-1.52,15c0,.95,1.42.91,1.46,0a139.2,139.2,0,0,1,1.24-14.7C14.25,3.5,13.07,3.19,13,4Z"/>
    <path class="cls-1" d="M16.7,10.13a1.15,1.15,0,0,1-.12-.25c-.59,4.19-1.07,8.41-1.27,12.62,0,.9,1.29.82,1.37,0,.38-3.83.69-7.67,1.07-11.49A2.27,2.27,0,0,1,16.7,10.13Z"/>
    <path class="cls-1" d="M18.17,7.17c.07-.59.13-1.18.2-1.77s-1-1-1.1-.27S17,6.88,16.88,7.77A1.83,1.83,0,0,1,18.17,7.17Z"/>
    <path class="cls-1" d="M20.66,14.86c-.47,4-1.43,8.28-1.28,12.29a.72.72,0,0,0,1.41.15c1-3.9.9-8.29,1.26-12.29C22.11,14.23,20.75,14.07,20.66,14.86Z"/>
    <path class="cls-1" d="M30.8,22.46a.58.58,0,0,0-1.15,0c0,5-.5,10.12-.14,15.11,0,.69,1.21.92,1.3.14C31.39,32.73,30.94,27.49,30.8,22.46Z"/>
    <path class="cls-1" d="M34.94,27.1c-.09-.81-1.34-.81-1.29,0a40.14,40.14,0,0,1,0,5.26c-.11,1.74-.54,3.5-.48,5.23a.68.68,0,0,0,1.34.15C35.75,34.62,35.3,30.37,34.94,27.1Z"/>
    <path class="cls-2" d="M1,0Q11.29,1.56,21.43,4.08A1,1,0,0,1,21.62,6L17.26,8.81c1.75,1.9,3.55,3.77,5.37,5.61l10.12,9.73q2,1.94,4,3.85c.91.88,2.22,1.79,2.76,3,1,2.22-1.69,4.41-2.91,5.91-1.51,1.87-3.13,4-5.75,2.58a17.14,17.14,0,0,1-3.39-3c-1.31-1.26-2.6-2.53-3.89-3.8q-7.6-7.49-15-15.13a30.66,30.66,0,0,1-3.7,4.72,1,1,0,0,1-1.5-.22C2,19.16,1.93,15.56,1.51,12.41L0,1.2C-.06.67.28-.09,1,0ZM4.49,19.84a27.69,27.69,0,0,0,3-4.29A1,1,0,0,1,9,15.39q6.23,6.42,12.57,12.74Q24.76,31.28,28,34.4a29.81,29.81,0,0,0,3.32,3.14c1.74,1.23,2.79-.48,3.81-1.71.9-1.07,2.44-2.34,2.43-3.76s-1.63-2.44-2.62-3.4L28.1,22q-5-4.92-10-9.88L14.93,9.33a1.05,1.05,0,0,1,.24-1.62l3.45-2.23q-8.22-2-16.57-3.37.62,4.53,1.21,9.07C3.62,13.9,3.63,17.13,4.49,19.84Z"/>
  </g>
</svg>
