<svg id="레이어_1" data-name="레이어 1" xmlns="http://www.w3.org/2000/svg" viewBox="0 0 27.05 40.03">
  <defs>
    <style>
      .cls-1 {
        fill: #918fa0;
      }

      .cls-2 {
        fill: #1f1f26;
      }

      .cls-3, .cls-8 {
        opacity: 0.2;
      }

      .cls-4 {
        fill: #a7a5b2;
      }

      .cls-5 {
        fill: #f7b07c;
      }

      .cls-6 {
        fill: #303030;
      }

      .cls-7 {
        fill: #ffb97f;
      }

      .cls-8 {
        fill: #bf3c1b;
      }

      .cls-15, .cls-9 {
        fill: #b54319;
      }

      .cls-9 {
        opacity: 0.35;
      }

      .cls-10 {
        fill: #595655;
        opacity: 0.7;
      }

      .cls-11 {
        fill: #9e8f88;
      }

      .cls-12, .cls-14 {
        opacity: 0.3;
      }

      .cls-13 {
        fill: #ffcb9e;
      }

      .cls-14 {
        fill: #6e2210;
      }

      .cls-15 {
        opacity: 0.5;
      }

      .cls-16 {
        fill: #121b21;
      }

      .cls-17 {
        fill: #ffd2ab;
      }

      .cls-18 {
        fill: #7d8ba8;
      }
    </style>
  </defs>
  <title>1</title>
  <g>
    <path class="cls-1" d="M27.64,31.62c-1.53-3.53-11.09-3.9-13.93-.11-1.32,1.77-.88,5.44-.15,8.52h14.1C28.21,37.16,28.56,33.72,27.64,31.62Z" transform="translate(-6.88 0)"/>
    <path class="cls-2" d="M21.67,35.29l.66-1.4a1.75,1.75,0,0,0-2-.9,1.85,1.85,0,0,0-1.53,1.41l1.11,1.12-1.2,4L19,40h3.87l.3-.66Z" transform="translate(-6.88 0)"/>
    <path class="cls-1" d="M14.27,34.82l.55-4.37s-5.25,2.49-5,9.58H13A11.92,11.92,0,0,1,14.27,34.82Z" transform="translate(-6.88 0)"/>
    <path class="cls-1" d="M26.5,30.45l.55,4.37A12,12,0,0,1,28.36,40h3.12C31.74,32.94,26.5,30.45,26.5,30.45Z" transform="translate(-6.88 0)"/>
    <path class="cls-3" d="M15.65,31.7a6.69,6.69,0,0,0,2.93,4l2.08-2.18,2.21,2.06c2.11-2.06,2.57-2.47,2.74-4.26S15.07,29.21,15.65,31.7Z" transform="translate(-6.88 0)"/>
    <path class="cls-4" d="M15.71,29.8c-1,2.9,2.72,5.26,2.72,5.26l2.23-1.53L22.74,35s4.12-2.35,2.56-5.74C23.9,26.19,16.9,26.44,15.71,29.8Z" transform="translate(-6.88 0)"/>
    <path class="cls-5" d="M19,26.34a3.22,3.22,0,0,0-2.37,3,2.48,2.48,0,0,0,.67,2.23,4.58,4.58,0,0,0,1.81,1c.51.16,1.39.75,1.55.76s.36-.26.83-.5a4.55,4.55,0,0,0,2.07-1.6c.56-1.11,1.07-3.29,0-4.15A6.16,6.16,0,0,0,19,26.34Z" transform="translate(-6.88 0)"/>
    <g>
      <g>
        <path class="cls-6" d="M18.22.09C3.52,1.17,5.87,21.67,10.06,20.81c3.1-.64,6.15-1.5,9.22-2.25,2.86-.7,6-.14,9,.08,2.29.17,2.25-.81,2.38-2.67.23-3.48-.15-4.75,0-6.15C31.39,3.85,26.63-.53,18.22.09Z" transform="translate(-6.88 0)"/>
        <path class="cls-7" d="M18.7,4.45c-5.4,1-9.25,8.8-8.29,16.12.71,5.49,4.88,11.52,11.22,11.11s9.73-8.47,8.93-15.21C29.69,9.14,26.27,3,18.7,4.45Z" transform="translate(-6.88 0)"/>
        <path class="cls-7" d="M8.54,17.52c-2.66.72-1.61,4.61.55,5.4a5.38,5.38,0,0,0,2.14.25.43.43,0,0,0,0-.07c.32-.5-.23-3.09-.39-3.63C10.48,18.13,9.81,17.17,8.54,17.52Z" transform="translate(-6.88 0)"/>
        <path class="cls-8" d="M28.13,6.53a24.58,24.58,0,0,0-9-2C17,4.52,13.74,4.37,12,6c-1.39,1.27-1.51,3.64-1.6,5.4,0,.66-.05,5.76.34,4.66.71-2,2.33-2.75,2.29-4.85,3.11,1.41,7.79,1.31,11.86.92,2.56-.25,4.61-.88,5.12,1.26C30.36,11.47,30.17,7.35,28.13,6.53Z" transform="translate(-6.88 0)"/>
        <path class="cls-9" d="M9.46,19c-.59-.28-2.08.21-1.39,1.39.38-1.09,1-.37.93.4-.08.52-.63.52-.08,1.19.29.36.9.23,1.2,0C11.09,21.36,10.19,19.29,9.46,19Z" transform="translate(-6.88 0)"/>
        <path class="cls-6" d="M33.28,1.56c-3.45,2.77-9-3.37-16.91-1-10.75,3.23-6.75,14.65-6.7,16a6.89,6.89,0,0,0,1.09,3.14,2.58,2.58,0,0,0,1.45,0c-1-.91-1.34-3.37-.56-5.67.44-1.28,1.08-2.18.94-3.91.93.86,7.69,2.16,16.13.39A8.06,8.06,0,0,0,33.93,7a19.62,19.62,0,0,0-2.06.23C33.1,5.94,33.26,3.41,33.28,1.56Z" transform="translate(-6.88 0)"/>
        <path class="cls-10" d="M24.41,1.27C20.56.18,14.67.06,11.65,3.22S11.23,9.13,21.51,9c9.38-.11,11.33-6.76,11.33-6.76C30,3.58,28.25,2.36,24.41,1.27Z" transform="translate(-6.88 0)"/>
        <path class="cls-11" d="M9.13,17.45c.93.06,1,1.88,1.72,2.35a2.39,2.39,0,0,0,1.36-.06c-.7-1-.87-3.67-.88-4.4C10.83,16.43,8.28,17.39,9.13,17.45Z" transform="translate(-6.88 0)"/>
        <path class="cls-10" d="M8.6,7.27A10.35,10.35,0,0,0,7.86,10c-.15,1.11-.25,2.68.57,3.57a1.7,1.7,0,0,0,2.87-.74C12.44,9.34,8.6,7.27,8.6,7.27Z" transform="translate(-6.88 0)"/>
      </g>
      <g>
        <path class="cls-6" d="M30.45,15.66c.52,11.13-2.94,6.94-2.94,6.94L26.45,23c.39,2.71-2.42,3.86-2.88,2l-2.63.15c-.72,2.68-3.52-.29-3.45-1.9s-1.28-.39-1.28-.39c-1.74,1.71-4.13-2.55-4.35-3.47l-1.33-.1s.05,15,12.93,13.84c11-1,7.19-18.06,7.19-18.06Z" transform="translate(-6.88 0)"/>
        <path class="cls-12" d="M19.05,24.48c.84,2.08,5.22,2,5.86.27C23.43,25.28,20.2,25.53,19.05,24.48Z" transform="translate(-6.88 0)"/>
        <path class="cls-13" d="M23,23.4a12.75,12.75,0,0,1-3.3-.18.83.83,0,0,0-.82,1.41c.88,1,2.59,1,3.71.91.89-.05,2.75-.24,2.89-1.68C25.64,22.61,23.54,23.35,23,23.4Z" transform="translate(-6.88 0)"/>
        <path class="cls-14" d="M15.93,23.09c3.6,1.77,10,1.61,12.28-.38C25.36,23.27,18.72,23.66,15.93,23.09Z" transform="translate(-6.88 0)"/>
        <path class="cls-15" d="M14.28,17.8c0,.44,1,.23,1.32.3-.26.27-1,.27-1.35.45s-.3.33.1.32a7.24,7.24,0,0,0,1.76-.47C16.84,17.78,14.62,17.71,14.28,17.8Z" transform="translate(-6.88 0)"/>
        <path class="cls-15" d="M29.57,18.17c-.24-.19-.89-.2-1.08-.48.25-.06,1.06.17,1.14-.27-.28-.09-2.15-.06-1.6.56a5,5,0,0,0,1.43.5C29.79,18.5,29.84,18.37,29.57,18.17Z" transform="translate(-6.88 0)"/>
        <path class="cls-16" d="M17,15.91c-1.39-.6-2.28,1.87-1.33,2.69a2,2,0,0,1,1.37.12A1.71,1.71,0,0,0,17,15.91Z" transform="translate(-6.88 0)"/>
        <path class="cls-6" d="M22.62,20.47l-1.05,0a6.94,6.94,0,0,0-3.62.78A6.86,6.86,0,0,0,15.66,23a22.85,22.85,0,0,0,11,.31,4.65,4.65,0,0,0,1.85-.74,9,9,0,0,0-4.83-2.24A3.85,3.85,0,0,0,22.62,20.47Z" transform="translate(-6.88 0)"/>
        <path class="cls-17" d="M22.16,16.05c-.61,0-.72,1.69-.93,2.46s-.35,1.52,0,1.75A2.94,2.94,0,0,0,24.1,20c.18-.17-.27-1-.62-1.78S22.85,16,22.16,16.05Z" transform="translate(-6.88 0)"/>
        <path class="cls-16" d="M28.14,15.86c-1.43-.76-2.54,2.27-1,2.65a1.8,1.8,0,0,1,1.21-.34A1.62,1.62,0,0,0,28.14,15.86Z" transform="translate(-6.88 0)"/>
        <path class="cls-18" d="M16.55,16.27c-.57.19-.15,1.29.41.89C17.35,16.87,17.05,16.1,16.55,16.27Z" transform="translate(-6.88 0)"/>
        <path class="cls-18" d="M27.78,16.25c-.54.14-.23,1.2.31.87S28.26,16.14,27.78,16.25Z" transform="translate(-6.88 0)"/>
        <path class="cls-6" d="M26.91,13.34c-1.26,0-2.19,0-2.19,0,0,.59.27,1.8,1.21,1.68.57-.07,1.15-.23,1.71-.26a7.1,7.1,0,0,1,2.1.19.36.36,0,0,0,.37-.57A4.12,4.12,0,0,0,26.91,13.34Z" transform="translate(-6.88 0)"/>
        <path class="cls-6" d="M16.92,13.5a4.55,4.55,0,0,0-3.45,1.2c-.17.15,0,.68.47.56A8.33,8.33,0,0,1,16.26,15c.63,0,1.3.14,1.94.19,1.07.09,1.24-1.14,1.17-1.74C19.36,13.39,18.32,13.49,16.92,13.5Z" transform="translate(-6.88 0)"/>
        <path class="cls-17" d="M29.69,19.58a2.24,2.24,0,0,0-2.06-.52c-.84.11-1.92.62-1,1.85.47.66,3.88.68,3.31-.91A1.69,1.69,0,0,0,29.69,19.58Z" transform="translate(-6.88 0)"/>
        <path class="cls-17" d="M17.27,19.68a2.25,2.25,0,0,0-2.18-.5c-.88.16-2,.75-1,2.06.52.7,4.1.6,3.44-1.11A1.39,1.39,0,0,0,17.27,19.68Z" transform="translate(-6.88 0)"/>
        <path class="cls-10" d="M23.86,21.13a3.54,3.54,0,0,1-1.73.47A12.45,12.45,0,0,0,20,21.12a7.29,7.29,0,0,0-2.5,1.3c3.12.69,7.15.92,9.41-.27C26.15,21.52,24.67,20.75,23.86,21.13Z" transform="translate(-6.88 0)"/>
        <path class="cls-10" d="M27.51,26.53c-.94-1.14-1.94-.16-1.89,1a2.25,2.25,0,0,0-4,.65c-.79-2.16-3-2-2.82-.52-.34-1.29-2.17-3-3.55-2.74-2.42.43-.36,3.6.45,4.7,2.93,3.92,14.84,3.53,14-4.08C29.47,23.62,27.23,24.1,27.51,26.53Z" transform="translate(-6.88 0)"/>
      </g>
    </g>
  </g>
</svg>
