<svg id="레이어_1" data-name="레이어 1" xmlns="http://www.w3.org/2000/svg" xmlns:xlink="http://www.w3.org/1999/xlink" viewBox="0 0 31.74 40">
  <defs>
    <style>
      .cls-1 {
        fill: #1e1e29;
      }

      .cls-2 {
        fill: #e8e8e8;
      }

      .cls-3 {
        fill: #313142;
      }

      .cls-4 {
        fill: url(#linear-gradient);
      }

      .cls-5 {
        fill: #c93712;
      }

      .cls-6 {
        fill: #fff9f0;
      }

      .cls-7 {
        fill: #ffc38f;
      }

      .cls-8 {
        fill: #d14f2e;
        opacity: 0.4;
      }

      .cls-9 {
        fill: #bf3c1b;
        opacity: 0.2;
      }

      .cls-10 {
        fill: #e85216;
      }

      .cls-11 {
        fill: #ff7752;
      }

      .cls-12 {
        fill: #1c5c57;
      }

      .cls-13 {
        fill: #6cd9d2;
        opacity: 0.7;
      }

      .cls-14 {
        fill: #121b21;
      }

      .cls-15 {
        fill: #f04d4d;
      }
    </style>
    <linearGradient id="linear-gradient" x1="21.15" y1="29.77" x2="21.15" y2="31.93" gradientUnits="userSpaceOnUse">
      <stop offset="0" stop-color="#ee996d"/>
      <stop offset="0.02" stop-color="#ee9a6e"/>
      <stop offset="0.37" stop-color="#f8b181"/>
      <stop offset="0.71" stop-color="#fdbf8d"/>
      <stop offset="1" stop-color="#ffc491"/>
    </linearGradient>
  </defs>
  <title>1</title>
  <g>
    <path class="cls-1" d="M17.81,34.23l-1.09-2.17c-1.48.76-1.86,2.49-2.26,4.31-.13.6-.5,2.18-.87,3.63h2.49c.32-1.29.63-2.65.73-3.1C17.07,35.7,17.35,34.47,17.81,34.23Z" transform="translate(-4.13 0)"/>
    <path class="cls-1" d="M25.89,32.06,24.8,34.23c.47.24.74,1.47,1,2.67.1.45.41,1.81.72,3.1H29c-.38-1.45-.74-3-.87-3.63C27.75,34.55,27.37,32.82,25.89,32.06Z" transform="translate(-4.13 0)"/>
    <g>
      <path class="cls-1" d="M25.73,36.05c.54-2,.37-4.11-1.2-5.34a6,6,0,0,0-7.32.32c-1.16.87-1.72,2.19-.66,4.76A8.66,8.66,0,0,1,17.46,40H25A17.79,17.79,0,0,1,25.73,36.05Z" transform="translate(-4.13 0)"/>
      <path class="cls-2" d="M23.59,30.4c-.85-.41-4.68-.45-5.2.08-1.4,1.43-1.23,6,3,7C24.89,36.65,25.19,31.16,23.59,30.4Z" transform="translate(-4.13 0)"/>
      <path class="cls-3" d="M21.24,38.35a.4.4,0,1,0,.43.4A.41.41,0,0,0,21.24,38.35Z" transform="translate(-4.13 0)"/>
      <path class="cls-4" d="M23.53,30.33c-.4-.26-.63-1.61-.57-2.67.13-2.4-4-2.49-4,.13,0,1.16,0,2.15-.29,2.47-.6.62-.24,1.62,2.72,2.84C23,32.28,24.54,31,23.53,30.33Z" transform="translate(-4.13 0)"/>
    </g>
    <g>
      <path class="cls-3" d="M23.35,30c1,2.32,1,5.72-1.85,7.47a8.73,8.73,0,0,0,5.42-2.63s-.69-.81-1.16-1.24a4.06,4.06,0,0,1,1.69-.54C27,32,24.69,30.44,23.35,30Z" transform="translate(-4.13 0)"/>
      <path class="cls-3" d="M18.78,30.12c-1.26.41-3.18,1.62-3.58,2.83a4.05,4.05,0,0,1,1.72.53c-.43.47-1.07,1.36-1.07,1.36A8.91,8.91,0,0,0,21.4,37.5,6.51,6.51,0,0,1,18.78,30.12Z" transform="translate(-4.13 0)"/>
    </g>
    <g>
      <path class="cls-5" d="M33.48,14.79c1.66-.44,3.54-4.08.72-3.88.76,1.15-1.05,1.68-1.64.81a.42.42,0,0,1-.09-.21c-.1-1.43-1.57-2.42-2.68-3.3a15.39,15.39,0,0,0-5.85-2.83c-3.66-.84-8-.64-11,1.8-1.18,1-2.2,3-3.83,3.42-2,.48-3.1,2.52-1.52,3.8a1.16,1.16,0,0,1-1.75-.87c-1.73,1.21-2.37,3.53,0,4.59-2.79,1.44-2.09,4.39.88,5.66-1.39,1.31-.68,3.52.72,4.39-.1-.92.75-3,2.34-1.92,1,.64.46,2.37-.87,1.5-.35,1.56,2.28,2.53,3,1.24-.09,1.17.71,1.62,1.79,1.55C15.4,30.44,16,29.35,17,29a16.68,16.68,0,0,1,4.4-.47c2.66-.05,4.95,2.59,7.61,1.45a1.94,1.94,0,0,0,1.41-2.1c-.73.51-2.62-.24-1.08-1.45.78-.61,1.92-.05,2.71-.51s.55-2.49.61-2.53c.67-.42,1.77-.45,1.84.72,1.37-2.72.07-3.47-1.41-3.68C36.39,19.94,37,15.43,33.48,14.79Z" transform="translate(-4.13 0)"/>
      <path class="cls-6" d="M30.75,22.46a.94.94,0,0,0-.91,1,.89.89,0,0,0,.93.89.94.94,0,0,0,.91-.95A.92.92,0,0,0,30.75,22.46Z" transform="translate(-4.13 0)"/>
      <path class="cls-7" d="M20.36,5.08c-5.41.5-9.61,5.13-9.28,12.45S16.69,30.68,22.42,30c4.75-.53,8.79-6.47,7.89-14.49C29.51,8.38,25.77,4.59,20.36,5.08Z" transform="translate(-4.13 0)"/>
      <path class="cls-7" d="M9.68,16.37c-2.35,1.08-1.26,5.15.71,5.75a3.94,3.94,0,0,0,1.93,0,.25.25,0,0,0,0-.07c.27-.58-.34-3.3-.5-3.86C11.45,16.8,10.81,15.85,9.68,16.37Z" transform="translate(-4.13 0)"/>
      <path class="cls-8" d="M11,17.79c-.63-.34-2.27.11-1.58,1.44.47-1.17,1.14-.35,1,.49-.1.56-.7.53-.14,1.3.3.41,1,.3,1.3.11C12.67,20.52,11.79,18.21,11,17.79Z" transform="translate(-4.13 0)"/>
      <path class="cls-9" d="M18.35,7.93a15.44,15.44,0,0,0-4.13,1.38c-1.92,1-2,2-3,3.84-.47.93-1.62,1.87-.52,2.85a1.57,1.57,0,0,0-.76.7,2.57,2.57,0,0,0-.19,1.94c.22.72.83,1,.51,1.89a2.14,2.14,0,0,0-.06,1.63c.67,1.61,4.2,2.06,4.28-.16,0-.19,0-.59-.17-.72s-.53,0-.75,0a.85.85,0,0,1-.87-.64c-.1-.48.32-.73.64-1A1.44,1.44,0,0,0,14,18.63c0-.68-.48-.77-.89-1.12-.69-.59-.48-.48-.11-1.1s.74-1.76-.18-2.35c.45-.05.91-.25,1-.73.79.42,1.72-.42,2-1.13-.08.22.87-.2.93-.24a2.74,2.74,0,0,0,.72-1.14c.07,1,1.1,1.67,1.9.89.51,1.24,1.56,1.2,2.7.92.4,1.42-.8.84-1.21,1.55-.67,1.18,1.75,1.7,2.4,1.46a1.86,1.86,0,0,0,1.14-1.88c.1.92,1.42.49,1.89.15a1.35,1.35,0,0,0,2.42.68c.17,2.15,3,2.12,2.4-.38C29.76,8.43,23.65,6.94,18.35,7.93Z" transform="translate(-4.13 0)"/>
      <path class="cls-5" d="M31.74,5.6c1.19-2.49-3.71-4.4-5.57-3C25.88-.52,22-.7,20.18,1.48A3.7,3.7,0,0,0,17.74.06a3.09,3.09,0,0,0-2.9.85c1,0,2.76,2-.33,1.68-1.28-.11-2-.61-3.32.09-1,.56-1.74,1.55-.76,2.51,0,0-2.3-.13-2.64,1.94C7.65,8,8,8.2,7.15,8.84a2,2,0,0,1-1.91.45,3.43,3.43,0,0,0,1.17,2.19,2.34,2.34,0,0,0,2.52.07c-.08.52,1.48,5,2.16,4.51-1.13.78-1.61,2.35-.5,3.08a2.45,2.45,0,0,0,.65.27c-1.32,1.24-.88,2.69-.25,3.13a3.09,3.09,0,0,0,2.77.25,1.11,1.11,0,0,0,.71-1.15c-.6.12-1.19.32-1.69-.19-1.39-1.4,1.48-2.57.1-3.67-.31-.25-.83-.27-.86-.75s.52-.64.72-.92c.71-1-.39-2.19-1.29-2.55.58,0,2.22.25,2-.86.91.8,2.24-.32,1.88-1.4.17.49,1,.33,1.33.13.54-.36.49-1.08.76-1.62a1.89,1.89,0,0,0,.79,1.47,1,1,0,0,0,1.47-.38c.34,1.2,1.51,2.17,2.56,1a1.54,1.54,0,0,1,0,1.55c-.5.68-1.16,0-1.59.29s.44,1.24.79,1.35a2.1,2.1,0,0,0,2.1-.71,2.76,2.76,0,0,0,.28-1.58c.58.94,1.55,1.57,2.51.59.7.88,1.38,1.3,2.38.43.48.8.4,1.87,1.55,2,1.34.2,1.26-1.36,1-2.26-.3-1.12-.71-3.33.58-4.31.81-.62,2-.22,1.62.84a2.12,2.12,0,0,0,.78-2.93A3.41,3.41,0,0,0,31.74,5.6Z" transform="translate(-4.13 0)"/>
      <path class="cls-6" d="M11.25,22.8a.86.86,0,0,0-.84.87.82.82,0,0,0,.85.83.85.85,0,0,0,.84-.87A.82.82,0,0,0,11.25,22.8Z" transform="translate(-4.13 0)"/>
      <path class="cls-10" d="M31.22,11.64A7.9,7.9,0,0,0,31.09,10c-.2-.86-.7-1.09-1.5-1.06a2.41,2.41,0,0,1,3.84-.47c.43-1.55-1.45-2.92-3-2.52.32-.9.59-2-.3-2.71A3.19,3.19,0,0,0,26.69,3c-.84.51-1.77,1.52-3,.78.71.44,2.4-2,.4-2.84C22.88.42,21.8,1.13,21,2a2.9,2.9,0,0,0-.67.89C19.42,1.23,18.12.24,16.06.73c1.57,0,2.22,2.47.81,3.16-.82.4-1.58-.47-2.24-.77a3.67,3.67,0,0,0-2.22-.21,2.85,2.85,0,0,0-1.69,1.36c1.12-.14,1.76,2.06,4.2,1.37a2.81,2.81,0,0,1-3.08.51A2.39,2.39,0,0,0,9.69,6c-1,.58-.77,2-1.28,2.94s-.9.91-1.75,1.15a3.13,3.13,0,0,0,2.5.53c-.74.08-1.17,1.12-1.24,1.7-.08.74.56,1.33.45,2s-.88,1-1.42.95a1.3,1.3,0,0,0,1.45.24c.62-.21.76-1,1.28-1.15.71-.16,1.44,1,1.43,1.58,1.06-.51-.2-2.16-.82-2.64.7,0,2.62-.08,2.49-1.07.08.6,1.35,0,1.51-.32A1.15,1.15,0,0,0,14,10.5c.39.05,1.13.43,1.44.06s-.05-1-.23-1.32c3.2,1.24,2.29-2.09.33-2,1.48-.12,1.88-.35,2.06-2.63v0h0v0c.1,1.32-.25,2.66,2,2.45-3.23,1.15-1.95,3.77,1.28,3-.5.12-.53,1.05.2,1.58a1.6,1.6,0,0,0,1.61-.1c.57.89.75,1.67.06,2.45.78,0,1.07-1.12,1.18-1.69.59.36,1.12.9,1.85.61.55-.22.84-.82,1.2-1.24,0,1,.38,1.7,1,1.83a1.78,1.78,0,0,0,1.78-.62,2.55,2.55,0,0,0,.76,2,1.74,1.74,0,0,0,2.18.36.85.85,0,0,1-.8-.49c1.37-.13,2.43-.85,2.31-2.26C33.19,12.85,31.29,13.07,31.22,11.64Z" transform="translate(-4.13 0)"/>
      <path class="cls-10" d="M17.56,4.55v0Z" transform="translate(-4.13 0)"/>
      <path class="cls-5" d="M25.32,9.74c.61,2.18,2.48,2.77,3.59,1C27.75,11.77,25.85,10.88,25.32,9.74Z" transform="translate(-4.13 0)"/>
      <path class="cls-5" d="M10.92,12.19c1.31,1.11,2.88,0,2.22-1.56A1.93,1.93,0,0,1,10.92,12.19Z" transform="translate(-4.13 0)"/>
      <path class="cls-5" d="M29,11.51c-.8,1.5.67,2.68,2.14,1.66C30.07,13.3,28.91,12.34,29,11.51Z" transform="translate(-4.13 0)"/>
      <path class="cls-5" d="M27.21,8.05a3,3,0,0,0,3.71.82l-.05-1A4.63,4.63,0,0,1,27.21,8.05Z" transform="translate(-4.13 0)"/>
      <path class="cls-5" d="M27.91,5.13a2.28,2.28,0,0,0,2.83.75l.17-1.14A2.86,2.86,0,0,1,27.91,5.13Z" transform="translate(-4.13 0)"/>
      <path class="cls-5" d="M7.72,10.66l.31,1a2.94,2.94,0,0,0,3.16-2A4.49,4.49,0,0,1,7.72,10.66Z" transform="translate(-4.13 0)"/>
      <path class="cls-10" d="M5.64,14.9l0-.64c-.67.74-1.16,1.57-.67,2.49.33.6,1.22,1.24,2,.73.29-.21.38-.75.45-1.07l0,0C6.39,16.47,5.44,15.78,5.64,14.9Z" transform="translate(-4.13 0)"/>
      <path class="cls-10" d="M6.6,18.41l-.54.32c-1.29,0-1.95,2.18-1.39,3.1A2.62,2.62,0,0,0,6.4,22.92a3.16,3.16,0,0,1-.68-2.45C5.91,19.74,6.58,19.2,6.6,18.41Z" transform="translate(-4.13 0)"/>
      <path class="cls-10" d="M34.43,15.88a3.21,3.21,0,0,0-1.16-.48v.22c1.15,1.48.93,2.6.29,4.12,0,0,0,.05.06,0C35.22,19.12,36,17,34.43,15.88Z" transform="translate(-4.13 0)"/>
      <path class="cls-10" d="M33.62,21.1,33.08,21c-.24,1.27,1.35,1,1.54,1.9C34.89,22.08,34.76,21,33.62,21.1Z" transform="translate(-4.13 0)"/>
      <path class="cls-10" d="M6.83,24.53A2,2,0,0,0,7,27.21c0-.41.29-.73.29-1.14S7,25.39,7,25Z" transform="translate(-4.13 0)"/>
    </g>
    <g>
      <path class="cls-11" d="M29.62,20.35a1.75,1.75,0,0,0-1.48-.7c-.66,0-1.57.15-1.09,1.17.26.55,2.86,1.1,2.68-.13A1.13,1.13,0,0,0,29.62,20.35Z" transform="translate(-4.13 0)"/>
      <path class="cls-11" d="M17.42,20.15a1.85,1.85,0,0,0-1.75-.47c-.74.1-1.7.54-1,1.62.38.58,3.33.61,2.93-.78A1.16,1.16,0,0,0,17.42,20.15Z" transform="translate(-4.13 0)"/>
      <path class="cls-5" d="M25.87,15c1.45.13,2.66-.3,4.83-.11C29.9,13.85,27,13.83,25.87,15Z" transform="translate(-4.13 0)"/>
      <path class="cls-8" d="M22.66,20.82c-.49,0-.69-.2-1,0s.4.86,1,.81,1.25-.63,1.07-.83S23.21,20.81,22.66,20.82Z" transform="translate(-4.13 0)"/>
      <path class="cls-5" d="M13,14.66c2.72.06,3.63.18,5.51.13C17.49,13.52,14.17,13.6,13,14.66Z" transform="translate(-4.13 0)"/>
      <path class="cls-12" d="M16.16,16C14.74,15.5,14,18.15,15,18.93a2,2,0,0,1,1.39,0A1.83,1.83,0,0,0,16.16,16Z" transform="translate(-4.13 0)"/>
      <path class="cls-13" d="M16.39,16.92c-.6.09-.37,1.31.24,1C17.08,17.7,16.91,16.84,16.39,16.92Z" transform="translate(-4.13 0)"/>
      <path class="cls-12" d="M28.73,16.07C27.3,15.15,26,18.52,27.63,19a1.72,1.72,0,0,1,1.26-.21C29.44,18.09,29.5,16.56,28.73,16.07Z" transform="translate(-4.13 0)"/>
      <path class="cls-13" d="M28.65,16.79c-.57,0-.49,1.27.12,1C29.22,17.67,29.15,16.78,28.65,16.79Z" transform="translate(-4.13 0)"/>
      <path class="cls-14" d="M28.77,16C27.46,15.49,27,17.06,27,17.06a1.21,1.21,0,0,1,1.53-.29,2.7,2.7,0,0,0,3.34-.25C30.29,17.07,29.48,16.27,28.77,16Z" transform="translate(-4.13 0)"/>
      <path class="cls-14" d="M15.21,16.12a4.28,4.28,0,0,1-3.36.6,3,3,0,0,0,3.49.12,1.38,1.38,0,0,1,1.6.13S16.58,15.42,15.21,16.12Z" transform="translate(-4.13 0)"/>
      <path class="cls-15" d="M27.06,21.5a1.09,1.09,0,0,0,.24,1.1,5.37,5.37,0,0,1-5.19,3.11,5.47,5.47,0,0,1-5-2.82,1,1,0,0,0,0-1.15,1.31,1.31,0,0,1-1.74.69,1.27,1.27,0,0,0,1,.75,6.32,6.32,0,0,0,5.55,3.27h.22a6.11,6.11,0,0,0,5.93-3.57A1,1,0,0,0,29,22,1.48,1.48,0,0,1,27.06,21.5Z" transform="translate(-4.13 0)"/>
    </g>
  </g>
</svg>
