<svg id="레이어_1" data-name="레이어 1" xmlns="http://www.w3.org/2000/svg" viewBox="0 0 40 40">
  <defs>
    <style>
      .cls-1 {
        stroke: #000;
        stroke-miterlimit: 10;
        stroke-width: 0.75px;
      }
    </style>
  </defs>
  <title>1&amp;apos;</title>
  <path d="M20,40A20,20,0,1,1,40,20,20,20,0,0,1,20,40ZM20,3.66A16.34,16.34,0,1,0,36.34,20,16.36,16.36,0,0,0,20,3.66Z"/>
  <path class="cls-1" d="M10.37,27.1,8.14,25.32A19.46,19.46,0,0,0,11,22.73a13.47,13.47,0,0,0,2.15-3.23,15.86,15.86,0,0,0,1.27-4.08,23,23,0,0,0,.22-5.16H17.8a27.07,27.07,0,0,1-.09,3.16,27.52,27.52,0,0,1-.41,2.85A16.91,16.91,0,0,0,19.84,21a16.91,16.91,0,0,0,3.9,3.6l-2.07,2.09A17.89,17.89,0,0,1,16,20.25a15.73,15.73,0,0,1-2.38,3.8A18.78,18.78,0,0,1,10.37,27.1Zm20.4-7.37H27.11V31.92H24V8.9h3.08v8.19h3.66Z"/>
</svg>
