<svg id="레이어_1" data-name="레이어 1" xmlns="http://www.w3.org/2000/svg" viewBox="0 0 40 36.41">
  <defs>
    <style>
      .cls-1 {
        fill: #86bcb6;
      }

      .cls-1, .cls-2 {
        fill-rule: evenodd;
      }
    </style>
  </defs>
  <title>1</title>
  <g>
    <polygon class="cls-1" points="6.36 8.83 2.52 11.66 0.79 16.73 2.84 21.26 8.83 22.78 32.73 23.46 37.03 21.48 39.55 16.34 37.6 11.57 33.62 9.78 31.02 6.37 27.07 5.06 24.22 5.06 20.67 1.93 14.11 0.68 10.06 2.51 7.43 5.95 6.36 8.83"/>
    <path class="cls-1" d="M6.3,23.38c-1.41-3-2.83-6-4.24-9-.3-.64-1.22-.06-.93.57,1.42,3,2.84,6,4.25,9C5.68,24.58,6.6,24,6.3,23.38Z" transform="translate(0 -1.8)"/>
    <path class="cls-1" d="M11,23.94C9.58,19.73,7.05,15.7,4.87,11.85c-.36-.63-1.31,0-1,.59,2.12,3.91,3.78,8.16,6,12A.58.58,0,0,0,11,23.94Z" transform="translate(0 -1.8)"/>
    <path class="cls-1" d="M16.06,24.08A129.57,129.57,0,0,1,8.11,8.51c-.27-.63-1.31-.33-1,.32a127.55,127.55,0,0,0,7.84,16C15.35,25.55,16.55,24.8,16.06,24.08Z" transform="translate(0 -1.8)"/>
    <path class="cls-1" d="M20.21,24.4c-2.83-6.73-6.38-13.23-9.59-19.79-.33-.69-1.32-.06-1,.61C12.72,11.78,15.54,18.58,19,25,19.36,25.6,20.51,25.11,20.21,24.4Z" transform="translate(0 -1.8)"/>
    <path class="cls-1" d="M24.85,24.11c-1.13-3.33-3.05-6.47-4.56-9.65Q17.63,8.82,15.15,3.09c-.26-.61-1.26-.32-1,.31,1.49,3.58,3,7.15,4.62,10.68s3,7.32,5.11,10.47C24.21,25,25.06,24.71,24.85,24.11Z" transform="translate(0 -1.8)"/>
    <path class="cls-1" d="M30,24.52C26.61,17.19,22.89,10,19.32,2.74c-.3-.62-1.2-.05-.91.57,3.48,7.3,6.82,14.69,10.45,21.93C29.26,26,30.38,25.3,30,24.52Z" transform="translate(0 -1.8)"/>
    <path class="cls-1" d="M33.77,24.11c-2.6-5.66-5.46-11.21-8-16.9-.28-.63-1.31-.34-1,.31,2.5,5.79,5,11.68,8,17.24C33.11,25.47,34.09,24.81,33.77,24.11Z" transform="translate(0 -1.8)"/>
    <path class="cls-1" d="M37.27,22.54c-1.87-5-4.43-9.7-6.35-14.66-.23-.58-1.18-.31-1,.29,1.82,5,3.56,10.28,6.24,14.84A.59.59,0,0,0,37.27,22.54Z" transform="translate(0 -1.8)"/>
    <path class="cls-1" d="M39.55,18.14c-1-1.93-2-3.85-3-5.77-.32-.62-1.21,0-.92.56,1,2,1.9,3.91,2.86,5.86C38.85,19.5,39.91,18.85,39.55,18.14Z" transform="translate(0 -1.8)"/>
    <path class="cls-2" d="M38.54,13.78a8.25,8.25,0,0,0-1.93-1.89,22.55,22.55,0,0,0-2.36-1.07c-1-.54-1.52-1.88-2.37-2.67a8.24,8.24,0,0,0-2.12-1.43,8.42,8.42,0,0,0-5.11-.63A10.62,10.62,0,0,0,14.19,2a10.74,10.74,0,0,0-5.64,3.1A11.8,11.8,0,0,0,6.77,7.64c-.29.57-.5,1.17-.77,1.75a3.44,3.44,0,0,1-1.56,1.55C1.08,13.05-1.21,17.31.69,21.16c2.06,4.17,8,4.23,12,4.31l6.92.14c1.52.09,3.05.09,4.58.06.93,0,1.86,0,2.79,0a48.9,48.9,0,0,0,5.8.08A7.83,7.83,0,0,0,40,19a7.64,7.64,0,0,0-1.42-5.19ZM27.26,27.4q-1.32,2.49-2.74,4.92c-.95,1.61-2.08,3.15-2.92,4.81-.28.54.48,1.17.89.66,2.35-2.9,4.07-6.53,5.77-9.83.34-.66-.66-1.22-1-.56ZM19,27.4C18,29,17,30.63,16,32.26a43.85,43.85,0,0,0-2.79,5c-.21.5.45,1.14.85.62A41.2,41.2,0,0,0,17,33c1-1.71,2-3.42,3-5.1.38-.62-.6-1.16-1-.54Zm-8.29,0a59.58,59.58,0,0,1-5.79,10c-.44.63.59,1.18,1,.57a54.38,54.38,0,0,0,5.76-10c.3-.66-.69-1.22-1-.55Zm28-8.19a6.68,6.68,0,0,1-2.84,4.27c-1.68,1.13-3.57,1.14-5.52,1.06-.2,0-.4,0-.61,0-5-.23-10.06-.28-15.09-.37-4.43-.09-13.73.3-13.19-6.41a6.83,6.83,0,0,1,1.77-3.93,16.44,16.44,0,0,1,3-2.25A4.92,4.92,0,0,0,7.58,9.26,10.77,10.77,0,0,1,9.9,5.78,9.17,9.17,0,0,1,23.77,7.21a.73.73,0,0,0,.79.3,7,7,0,0,1,5.25.77,6.55,6.55,0,0,1,2.08,1.91,5.56,5.56,0,0,0,1,1.41,10.16,10.16,0,0,0,2.2.93A6.16,6.16,0,0,1,37,14,6.31,6.31,0,0,1,38.64,19.22Z" transform="translate(0 -1.8)"/>
  </g>
</svg>
