<svg id="레이어_1" data-name="레이어 1" xmlns="http://www.w3.org/2000/svg" viewBox="0 0 39.23 40">
  <defs>
    <style>
      .cls-1, .cls-8 {
        fill: #e3ca95;
      }

      .cls-2, .cls-7 {
        fill: #ec331e;
      }

      .cls-3, .cls-5 {
        fill: #ff9500;
      }

      .cls-4, .cls-6 {
        fill: #518c21;
      }

      .cls-5, .cls-6, .cls-7, .cls-8, .cls-9 {
        fill-rule: evenodd;
      }
    </style>
  </defs>
  <title>1</title>
  <g>
    <circle class="cls-1" cx="19.61" cy="20" r="18.86"/>
    <ellipse class="cls-2" cx="21.71" cy="31.39" rx="3.02" ry="2.56"/>
    <ellipse class="cls-3" cx="9.84" cy="18.06" rx="2.22" ry="2.67"/>
    <circle class="cls-4" cx="27.77" cy="11.06" r="2.61"/>
    <path class="cls-5" d="M9.66,15.88c-.59.92-1.21,1.84-1.78,2.78-.34.55.51,1,.86.48.62-.91,1.2-1.85,1.79-2.78C10.88,15.82,10,15.34,9.66,15.88Z" transform="translate(-0.39 0)"/>
    <path class="cls-5" d="M11.23,17.77c-.06.09-.11.18-.17.26a15.85,15.85,0,0,0,.73-1.5c.21-.48-.52-.89-.73-.4a23.11,23.11,0,0,1-1.84,3.11c-.24.4.33.79.64.47a4,4,0,0,0,.49-.58c-.13.22-.26.45-.37.68s.29.73.56.41a19.1,19.1,0,0,0,1.41-2C12.24,17.73,11.51,17.33,11.23,17.77Z" transform="translate(-0.39 0)"/>
    <path class="cls-6" d="M27.54,9.13a15.36,15.36,0,0,0-1.31,2.29c-.15.38.43.67.68.38a14.43,14.43,0,0,0,1.41-2.23C28.62,9.07,27.84,8.65,27.54,9.13Z" transform="translate(-0.39 0)"/>
    <path class="cls-6" d="M28.9,9.31a20.17,20.17,0,0,0-2.18,3.39c-.26.53.55,1,.81.45a19.58,19.58,0,0,1,2-3.23c.35-.45-.29-1.07-.65-.61Z" transform="translate(-0.39 0)"/>
    <path class="cls-6" d="M29.6,10.29a19.23,19.23,0,0,0-1.55,2.94.41.41,0,0,0,.69.38,19,19,0,0,0,1.64-2.88.45.45,0,0,0-.78-.44Z" transform="translate(-0.39 0)"/>
    <path class="cls-7" d="M21.48,29a16.82,16.82,0,0,1-.87,1.62,12.5,12.5,0,0,0-1,1.54.34.34,0,0,0,.54.4,5.62,5.62,0,0,0,1-1.48c.33-.57.63-1.14.9-1.73.19-.42-.42-.76-.62-.35Z" transform="translate(-0.39 0)"/>
    <path class="cls-7" d="M22.58,29.32A32.58,32.58,0,0,0,20.77,33c-.12.37.41.53.6.24a29.88,29.88,0,0,0,1.8-3.63c.19-.38-.39-.72-.59-.32Z" transform="translate(-0.39 0)"/>
    <path class="cls-7" d="M23.6,30.07c-.46,1.11-1.12,2.1-1.62,3.18-.18.37.31.8.61.45a12.75,12.75,0,0,0,1.7-3.25c.19-.46-.49-.84-.69-.38Z" transform="translate(-0.39 0)"/>
    <path class="cls-8" d="M7.71,6.82c-2,3.71-4.49,7.34-6.3,11.17a.43.43,0,0,0,.75.42C4.58,15,6.43,10.93,8.43,7.21A.41.41,0,0,0,7.71,6.82Z" transform="translate(-0.39 0)"/>
    <path class="cls-8" d="M11.63,4Q8.89,8.77,6.27,13.62c-1.55,2.88-3.41,5.8-4.44,8.92-.16.49.53.67.78.31C4.56,20,5.86,16.65,7.44,13.6s3.24-6.15,4.91-9.2A.41.41,0,0,0,11.63,4Z" transform="translate(-0.39 0)"/>
    <path class="cls-8" d="M14.84,1.71c-2.09,4.31-4.3,8.59-6.22,13-.23.54.54,1,.82.45,2.16-4.28,4-8.71,6-13.07C15.68,1.64,15.05,1.28,14.84,1.71Z" transform="translate(-0.39 0)"/>
    <path class="cls-8" d="M6.92,17.7c-1.07,3.06-3.15,5.6-4.36,8.58a.41.41,0,0,0,.71.39,35.1,35.1,0,0,0,4.41-8.78C7.84,17.41,7.08,17.23,6.92,17.7Z" transform="translate(-0.39 0)"/>
    <path class="cls-8" d="M7.84,21.21c-1.17,2.72-2.72,5.22-3.94,7.9a.45.45,0,0,0,.78.43,38.81,38.81,0,0,0,4-7.89C8.85,21.12,8.07,20.67,7.84,21.21Z" transform="translate(-0.39 0)"/>
    <path class="cls-8" d="M16.89,1.84C15,6.15,13,10.33,11,14.56c-.27.56.56,1,.86.47,2.16-4.14,4-8.48,5.78-12.8.19-.47-.5-.86-.7-.38Z" transform="translate(-0.39 0)"/>
    <path class="cls-8" d="M19.76,1.16c-2.57,5-5.3,10-7.56,15.17-.26.58.57,1.06.88.48,2.65-5,4.94-10.18,7.4-15.25C20.72,1.08,20,.68,19.76,1.16Z" transform="translate(-0.39 0)"/>
    <path class="cls-8" d="M9.9,21.43a42.33,42.33,0,0,1-3,6c-.47.81-2.06,2.66-1.91,3.62a.46.46,0,0,0,.9.09c.43-1.59,1.87-3.31,2.66-4.76a37.1,37.1,0,0,0,2.18-4.76c.19-.52-.63-.71-.82-.21Z" transform="translate(-0.39 0)"/>
    <path class="cls-8" d="M22,.83q-3.78,9.48-8.31,18.64c-1.46,3-3,5.91-4.61,8.81C8.36,29.53,6,32.05,6.53,33.52a.59.59,0,0,0,.87.33l.14-.1a.53.53,0,0,0,.2-.63c.17-.29.34-.58.5-.87a15.14,15.14,0,0,0,1.1-1.92q1.21-2.17,2.38-4.36,2.2-4.16,4.21-8.39c2.55-5.37,4.78-10.87,6.8-16.45C22.9.69,22.14.39,22,.83Z" transform="translate(-0.39 0)"/>
    <path class="cls-8" d="M24,1.52C19.33,12.8,14.7,24.14,8.43,34.66c-.39.67.65,1.25,1.05.59,6.27-10.59,10.92-22,15.37-33.4C25,1.38,24.22,1.06,24,1.52Z" transform="translate(-0.39 0)"/>
    <path class="cls-8" d="M27,2.19C22,13.75,16.44,25,10.36,36a.61.61,0,0,0,1.07.59A242.58,242.58,0,0,0,27.76,2.49C27.93,2.05,27.18,1.76,27,2.19Z" transform="translate(-0.39 0)"/>
    <path class="cls-8" d="M29.32,3.28a38.45,38.45,0,0,0-2,4.86.47.47,0,0,0,.87.34,38.11,38.11,0,0,0,1.88-4.9c.16-.43-.59-.73-.76-.3Z" transform="translate(-0.39 0)"/>
    <path class="cls-8" d="M31.4,6C31,7,30.45,8,30,9.09c-.2.52.48.95.78.44a22.17,22.17,0,0,0,1.43-3.36C32.43,5.64,31.59,5.45,31.4,6Z" transform="translate(-0.39 0)"/>
    <path class="cls-8" d="M33.78,7.44c-3.07,7.13-6.61,14-10.27,20.87a.56.56,0,0,0,1,.54,188,188,0,0,0,10-21C34.62,7.36,34,7,33.78,7.44Z" transform="translate(-0.39 0)"/>
    <path class="cls-8" d="M25,13.33q-5.8,12-12.48,23.51c-.36.61.61,1.15,1,.53q6.65-11.55,12.28-23.62C26,13.25,25.25,12.83,25,13.33Z" transform="translate(-0.39 0)"/>
    <path class="cls-8" d="M27.15,14.45C24.9,19.27,22.22,23.88,20,28.68a.5.5,0,0,0,.87.48,110.18,110.18,0,0,0,7.07-14.28c.23-.52-.54-1-.78-.43Z" transform="translate(-0.39 0)"/>
    <path class="cls-8" d="M18.17,31.88c-.46,1.06-1,2.1-1.5,3.13a18.56,18.56,0,0,0-1.45,2.8.47.47,0,0,0,.8.43,10.7,10.7,0,0,0,1.6-2.71c.51-1,1-2.1,1.41-3.17C19.27,31.78,18.43,31.29,18.17,31.88Z" transform="translate(-0.39 0)"/>
    <path class="cls-8" d="M20.84,34.1c-.43.73-.86,1.47-1.25,2.23a9,9,0,0,0-1,2.14.44.44,0,0,0,.81.31,14.62,14.62,0,0,0,1.07-2.13c.36-.72.74-1.42,1.13-2.11a.45.45,0,0,0-.79-.44Z" transform="translate(-0.39 0)"/>
    <path class="cls-8" d="M35,10.75A297.58,297.58,0,0,1,21.63,38.23a.54.54,0,0,0,.95.53A282.3,282.3,0,0,0,35.64,11.11c.18-.44-.47-.8-.65-.36Z" transform="translate(-0.39 0)"/>
    <path class="cls-8" d="M36.29,12.87A175.79,175.79,0,0,1,24.54,37.3a.54.54,0,0,0,.94.52A144,144,0,0,0,37,13.06c.17-.47-.57-.64-.75-.19Z" transform="translate(-0.39 0)"/>
    <path class="cls-8" d="M37.25,15.28C34.71,22.5,31.19,29.09,28,36a.58.58,0,0,0,1,.56c4-6.43,6.66-13.94,9-21.09C38.22,15,37.43,14.79,37.25,15.28Z" transform="translate(-0.39 0)"/>
    <path class="cls-8" d="M38.47,18.84c-1.85,5-4.77,9.82-6.34,14.9-.15.5.53.68.79.31,3-4.27,4.62-10.12,6.32-15C39.42,18.54,38.64,18.36,38.47,18.84Z" transform="translate(-0.39 0)"/>
    <path class="cls-9" d="M39.18,15.75C37.34,7,29.53-.25,20.41,0A20.55,20.55,0,0,0,5.84,6.88a.71.71,0,0,0-.41.28c-.31.42-.59.84-.87,1.26A20.64,20.64,0,0,0,1.25,15a18.51,18.51,0,0,0-.86,5A19.49,19.49,0,0,0,4.52,32.64,19.69,19.69,0,0,0,28,38.23,20.27,20.27,0,0,0,39.18,15.75Zm-31.8,5c-.69,1.36-1.33,2.72-1.9,4.1a22.37,22.37,0,0,1-2.89-.9.54.54,0,0,0-.27,0A16.8,16.8,0,0,1,2,21.23,17.19,17.19,0,0,1,3.15,14.3a22.3,22.3,0,0,1,1.36-2.67,32.23,32.23,0,0,1,4.61,0,20.79,20.79,0,0,0,.11,3c-2.24.67-2.94,4-1.75,5.92l-.11.18ZM5,26.16c-.33.91-.63,1.83-.87,2.77a17.85,17.85,0,0,1-1.43-3.54,19.4,19.4,0,0,0,2.3.77Zm.24,4.56a13.56,13.56,0,0,1,.48-1.88,22.7,22.7,0,0,1,.73-2.34,29.9,29.9,0,0,0,7.45.39,20.32,20.32,0,0,0,1.85,2c.64.59,2.23,1.41,2.59,2.18a.47.47,0,0,0,.06.09A3.69,3.69,0,0,0,18.59,33a16.74,16.74,0,0,1-7.5,2.67H10.9l-.2,0-.08,0a17.63,17.63,0,0,1-3.17-2.4,16.66,16.66,0,0,1-2.24-2.59ZM7,25.15c.51-1.21,1.09-2.39,1.67-3.57a3.13,3.13,0,0,0,1.45.3,5,5,0,0,0,.69-.1,22.2,22.2,0,0,0,2.1,3.79A30,30,0,0,1,7,25.15ZM35.39,10.66a11.61,11.61,0,0,0-3.87-.43,4.1,4.1,0,0,0-.39-1.08A3.36,3.36,0,0,0,27.6,7.59a.49.49,0,0,0-.07-.19C26.16,5,23.66,3.17,21.15,1.76a17.32,17.32,0,0,1,14.24,8.9Zm-3.84,1a12.34,12.34,0,0,1,4.8.95c.17.37.32.75.46,1.14a17.9,17.9,0,0,1,.76,2.85,18.14,18.14,0,0,1-5.3,4.84c-.82-.83-1.68-1.62-2.57-2.37.21-1.66.3-3.32.39-4.9v-.08a3.45,3.45,0,0,0,1.46-2.43ZM24.7,10.37a14.85,14.85,0,0,0-7.13,1.79,33.75,33.75,0,0,0-6.86-1.56l0-.58a15.75,15.75,0,0,1,.59-5.42s0,0,0,0a18.91,18.91,0,0,1,6.07-2.46c.38-.08.76-.15,1.14-.2,2.88,1.44,6.26,3.29,7.89,6.18a3.8,3.8,0,0,0-1.67,2.28ZM16.09,13a32,32,0,0,0-3.6,2.47,2,2,0,0,0-1.91-.93,9.8,9.8,0,0,0,.19-2.66A32.26,32.26,0,0,1,16.09,13Zm-2.92,3.71A25.73,25.73,0,0,1,18,13.59a32.9,32.9,0,0,1,5.28,2.47,34,34,0,0,1,4.95,3.49,23.82,23.82,0,0,1-.48,2.52c-.12.46-.25.92-.4,1.37-1.77.48-3.61.77-5.42,1.09a66.28,66.28,0,0,1-7.33,1,19.54,19.54,0,0,1-2.55-4.35,4.11,4.11,0,0,0,1.36-3.44,3.88,3.88,0,0,0-.24-1Zm6.4-3.76a16.28,16.28,0,0,1,5.08-1.1,2.62,2.62,0,0,0,.09.38,3.63,3.63,0,0,0,3.93,2.39c-.06,1.15-.14,2.3-.25,3.44a38.31,38.31,0,0,0-8.85-5.11ZM9.15,10.45a33.47,33.47,0,0,0-3.88,0A20.66,20.66,0,0,1,9.46,5.87a17.52,17.52,0,0,0-.29,3.32c0,.41,0,.84,0,1.26ZM12.9,36.86a16.51,16.51,0,0,0,6.46-2.72.22.22,0,0,0,.09-.07,4.58,4.58,0,0,0,4.78.11,3.34,3.34,0,0,0,.75-.7.2.2,0,0,0,.08,0,16.48,16.48,0,0,0,5.6,1.12c-.37.29-.77.56-1.17.82a18,18,0,0,1-16.59,1.4Zm19.46-3.68a25,25,0,0,1-6.74-.92,3.53,3.53,0,0,0-.26-2.64,13.6,13.6,0,0,0,3.15-5.18,20.28,20.28,0,0,0,3.41-1.34,54.89,54.89,0,0,1,4.08,5,18.29,18.29,0,0,1-3.64,5.1Zm4.26-6.53a37.94,37.94,0,0,0-3.43-4.27,19.64,19.64,0,0,0,4.61-4.06,19,19,0,0,1-1.18,8.33Zm-13,6a2.7,2.7,0,0,1-3.13.18A1.84,1.84,0,0,1,20.53,30a.69.69,0,0,0,.64,0c.54-.29.81-.73,1.5-.61a1.75,1.75,0,0,1,1,.59,1.9,1.9,0,0,1-.06,2.69Zm2.69-6.75c-.52.95-1.22,1.77-1.81,2.67a3.34,3.34,0,0,0-1.57-.76,2.44,2.44,0,0,0-2.08.54H20.7a2.61,2.61,0,0,0-1.77,1.21c-.92-.77-1.9-1.42-2.75-2.28-.18-.17-.35-.35-.51-.53,2.34-.23,4.67-.62,6.92-1,1.41-.25,2.81-.49,4.19-.82a10.1,10.1,0,0,1-.49,1ZM29,23c.2-.76.36-1.53.49-2.31.52.48,1,1,1.51,1.48A17.69,17.69,0,0,1,29,23ZM28.1,13a2,2,0,0,1-1.27-3.53.72.72,0,0,0,.71,0c.44-.21.76-.47,1.28-.34a1.63,1.63,0,0,1,1.09,1.23A1.93,1.93,0,0,1,28.09,13ZM9.54,16a.88.88,0,0,0,1,.24c1.18-.54,1.23,2,1.07,2.57a1.68,1.68,0,0,1-2.13,1.26C7.84,19.41,8.1,16.66,9.54,16Z" transform="translate(-0.39 0)"/>
  </g>
</svg>
