<svg id="레이어_1" data-name="레이어 1" xmlns="http://www.w3.org/2000/svg" viewBox="0 0 35.74 40.02">
  <defs>
    <style>
      .cls-1 {
        fill: #e3ca95;
      }

      .cls-1, .cls-2, .cls-3, .cls-4 {
        fill-rule: evenodd;
      }

      .cls-2 {
        fill: #aedff4;
      }

      .cls-3 {
        fill: #518c21;
      }
    </style>
  </defs>
  <title>1</title>
  <g>
    <path class="cls-1" d="M5.48,1.63l-1.91,2L3.23,37.22,4,38.49l4.05-.65,1.41,1.3,2.11-1,1.88.66,1.8-.73,2,.68,2.28-.61,2.32.66,2.4-1.19,1.63,1.19,1.58-.94,1.81.8,1.9-.22,1.06-2.1,4.91-6.09S35.21,1.49,35.32,1.63A16,16,0,0,1,33.63.85Z" transform="translate(-2.13 0.02)"/>
    <polygon class="cls-2" points="7.52 15.92 8.03 12.99 13.51 12.77 18.37 12.86 19.43 15.92 19.07 17.15 15.87 15.4 12.9 17.39 10.03 14.84 7.64 16.38 7.52 15.92"/>
    <polygon class="cls-3" points="7.64 16.08 7.84 18.22 10.21 19.11 18.25 19.67 19.22 17.32 15.87 15.35 13.08 17.41 11.28 15.95 10.21 14.87 7.64 16.08"/>
    <path class="cls-3" d="M11.24,15.91c-.44.78-.91,1.56-1.27,2.38a.32.32,0,0,0,.57.31c.5-.74.89-1.56,1.32-2.35A.35.35,0,0,0,11.24,15.91Z" transform="translate(-2.13 0.02)"/>
    <path class="cls-3" d="M12.8,15.67c-.64,1.09-1.34,2.16-1.92,3.28a.34.34,0,0,0,.6.33c.69-1.06,1.29-2.18,1.93-3.27C13.64,15.62,13,15.28,12.8,15.67Z" transform="translate(-2.13 0.02)"/>
    <path class="cls-3" d="M13.51,16.92c-.37.58-.77,1.15-1.1,1.76-.14.26.23.57.43.32.46-.56.85-1.17,1.25-1.76C14.33,16.89,13.75,16.57,13.51,16.92Z" transform="translate(-2.13 0.02)"/>
    <path class="cls-3" d="M14.33,17.32c-.32.55-.67,1.09-.94,1.66a.31.31,0,0,0,.54.29c.36-.51.66-1.09,1-1.63C15.12,17.28,14.54,17,14.33,17.32Z" transform="translate(-2.13 0.02)"/>
    <path class="cls-3" d="M15.76,16.85a7.85,7.85,0,0,1-.59,1.2c-.21.36-.5.69-.68,1.07a.32.32,0,0,0,.51.38A6,6,0,0,0,16.46,17C16.64,16.59,15.93,16.42,15.76,16.85Z" transform="translate(-2.13 0.02)"/>
    <path class="cls-3" d="M17.35,15.82c-.52,1.21-1.11,2.4-1.55,3.64-.13.38.48.61.66.26.58-1.14,1-2.37,1.51-3.55C18.15,15.75,17.53,15.4,17.35,15.82Z" transform="translate(-2.13 0.02)"/>
    <path class="cls-3" d="M18.66,16.07l-.8,1.62a6,6,0,0,0-.66,1.51c0,.29.31.53.53.29a5.18,5.18,0,0,0,.79-1.44c.26-.55.52-1.08.77-1.63S18.86,15.65,18.66,16.07Z" transform="translate(-2.13 0.02)"/>
    <path class="cls-3" d="M19.3,16.94a5.8,5.8,0,0,1-.75,2,.34.34,0,0,0,.55.4A4.12,4.12,0,0,0,20,16.93C20.07,16.47,19.35,16.49,19.3,16.94Z" transform="translate(-2.13 0.02)"/>
    <path class="cls-2" d="M11.44,13.24l-.73,1a3.85,3.85,0,0,0-.6,1c-.07.22.22.45.41.3a3.6,3.6,0,0,0,.74-.91L12,13.55C12.24,13.21,11.68,12.91,11.44,13.24Z" transform="translate(-2.13 0.02)"/>
    <path class="cls-2" d="M12.67,13.15c-.32.6-.72,1.16-1.05,1.76-.18.33.28.69.54.4a9.24,9.24,0,0,0,1.15-1.81C13.52,13.08,12.89,12.73,12.67,13.15Z" transform="translate(-2.13 0.02)"/>
    <path class="cls-2" d="M14,13a17.42,17.42,0,0,0-1.12,2,.32.32,0,0,0,.57.31,21,21,0,0,0,1.14-2A.34.34,0,0,0,14,13Z" transform="translate(-2.13 0.02)"/>
    <path class="cls-2" d="M15.1,13.3a10.46,10.46,0,0,0-1.74,2.9c-.12.36.4.52.59.23.57-.88,1-1.83,1.62-2.68C15.82,13.42,15.35,13,15.1,13.3Z" transform="translate(-2.13 0.02)"/>
    <path class="cls-2" d="M16.11,13.43a12.53,12.53,0,0,0-1.56,3.1c-.07.29.34.57.55.3a9.72,9.72,0,0,0,.78-1.46c.27-.54.55-1.08.84-1.6A.35.35,0,0,0,16.11,13.43Z" transform="translate(-2.13 0.02)"/>
    <path class="cls-2" d="M17.19,13.43c-.44,1-1,2-1.37,3-.13.38.41.53.61.24a16,16,0,0,0,1.37-2.94C18,13.36,17.37,13,17.19,13.43Z" transform="translate(-2.13 0.02)"/>
    <path class="cls-2" d="M18.52,13.22a18.63,18.63,0,0,0-.84,2,.34.34,0,0,0,.63.25,15.49,15.49,0,0,0,.83-1.86C19.32,13.15,18.71,12.8,18.52,13.22Z" transform="translate(-2.13 0.02)"/>
    <path class="cls-2" d="M19.56,13.27c-.15.35-.31.68-.48,1a9.2,9.2,0,0,0-.54,1c-.15.36.27.74.57.42a6.05,6.05,0,0,0,1.12-2.13C20.37,13.16,19.72,12.89,19.56,13.27Z" transform="translate(-2.13 0.02)"/>
    <path class="cls-2" d="M20,14.78a11.74,11.74,0,0,0-.48,1.56c-.08.34.43.57.59.23A15.65,15.65,0,0,0,20.73,15C20.89,14.5,20.16,14.32,20,14.78Z" transform="translate(-2.13 0.02)"/>
    <path class="cls-1" d="M6.33,1.86A43.79,43.79,0,0,0,2.51,9.71c-.14.46.54.7.77.3C4.72,7.55,5.76,4.81,7.12,2.3A.45.45,0,0,0,6.33,1.86Z" transform="translate(-2.13 0.02)"/>
    <path class="cls-1" d="M9.26,1.88A94.18,94.18,0,0,0,3.47,13.36c-.19.49.59.77.83.33C6.33,10,8,6.05,10,2.31A.45.45,0,0,0,9.26,1.88Z" transform="translate(-2.13 0.02)"/>
    <path class="cls-1" d="M12.57,1.34c-3.28,6.55-7.16,13-10,19.79a.42.42,0,0,0,.73.4C7.16,15.3,10,8.28,13.23,1.7,13.45,1.27,12.79.9,12.57,1.34Z" transform="translate(-2.13 0.02)"/>
    <path class="cls-1" d="M15.35,1.42c-4.41,8.36-9,16.64-13.17,25.13a.42.42,0,0,0,.73.4c4.58-8.26,8.7-16.8,13-25.21A.33.33,0,0,0,15.35,1.42Z" transform="translate(-2.13 0.02)"/>
    <path class="cls-1" d="M18.05,1.38c-1.55,3.8-3.34,7.45-5.17,11.12a.52.52,0,0,0,0,.5l.17.21a.48.48,0,0,0,.86-.13A.49.49,0,0,0,14,13a.38.38,0,0,0-.11-.4C14,11.73,16,8.29,16.29,7.7c.89-1.95,1.71-3.92,2.49-5.91C19,1.29,18.25.87,18.05,1.38Z" transform="translate(-2.13 0.02)"/>
    <path class="cls-1" d="M20.82,1.46C19.29,5,17.13,8.36,15.83,12c-.11.31.38.59.58.32,2.26-3,3.67-7,5.12-10.41C21.73,1.38,21,1,20.82,1.46Z" transform="translate(-2.13 0.02)"/>
    <path class="cls-1" d="M23.41,1.46C21.84,5,19.72,8.3,18.3,11.84c-.13.31.29.73.53.39,2.25-3.06,3.74-6.93,5.26-10.39C24.3,1.37,23.61,1,23.41,1.46Z" transform="translate(-2.13 0.02)"/>
    <path class="cls-1" d="M27,1.05c-2,3.62-4.26,7.24-5.91,11a.39.39,0,0,0,.68.38c2.25-3.47,4-7.37,5.91-11C27.93,1,27.24.6,27,1.05Z" transform="translate(-2.13 0.02)"/>
    <path class="cls-1" d="M9.45,19c-2.17,3.62-4.34,7.29-6.18,11.09-.23.48.48.88.73.41C6,26.75,8,23,10.1,19.34,10.35,18.92,9.69,18.56,9.45,19Z" transform="translate(-2.13 0.02)"/>
    <path class="cls-1" d="M11.57,19.76C8.86,24.93,5.77,29.88,3,35a.45.45,0,0,0,.79.43,149.88,149.88,0,0,0,8.51-15.28A.41.41,0,0,0,11.57,19.76Z" transform="translate(-2.13 0.02)"/>
    <path class="cls-1" d="M14.33,19.77c-2.84,6.08-6.1,11.88-9.43,17.71-.28.5.48.9.78.43A150.89,150.89,0,0,0,15,20.14C15.2,19.69,14.54,19.32,14.33,19.77Z" transform="translate(-2.13 0.02)"/>
    <path class="cls-1" d="M17.12,20.06A205.75,205.75,0,0,1,7.75,38.42a.49.49,0,0,0,.86.47,198.14,198.14,0,0,0,9.16-18.47C18,20,17.32,19.63,17.12,20.06Z" transform="translate(-2.13 0.02)"/>
    <path class="cls-1" d="M29.24,1.2C26.34,6.45,23.39,11.67,20.56,17a.45.45,0,0,0,.79.44c2.9-5.24,5.7-10.55,8.54-15.82A.37.37,0,0,0,29.24,1.2Z" transform="translate(-2.13 0.02)"/>
    <path class="cls-1" d="M19.73,19.37C16.7,25.7,13.07,31.73,10,38a.42.42,0,0,0,.73.4c3.81-5.81,6.73-12.4,9.65-18.7C20.59,19.3,19.94,18.93,19.73,19.37Z" transform="translate(-2.13 0.02)"/>
    <path class="cls-1" d="M30.93,2Q22,19.86,13.12,37.81c-.26.52.53,1,.79.44q8.84-18,17.57-36C31.65,1.92,31.11,1.62,30.93,2Z" transform="translate(-2.13 0.02)"/>
    <path class="cls-1" d="M33.32,1.25q-9.09,18.38-18.06,36.8c-.26.55.57,1,.84.46Q25.07,20.08,34,1.6C34.15,1.18,33.53.83,33.32,1.25Z" transform="translate(-2.13 0.02)"/>
    <path class="cls-1" d="M35,2c-5,12.3-10.77,24.21-16.9,36-.29.56.56,1,.86.48A321.64,321.64,0,0,0,35.6,2.36C35.77,1.93,35.14,1.57,35,2Z" transform="translate(-2.13 0.02)"/>
    <path class="cls-1" d="M36.07,4.77A233.15,233.15,0,0,1,20.66,38.82a.5.5,0,0,0,.88.48A172.38,172.38,0,0,0,36.65,4.92C36.78,4.54,36.19,4.41,36.07,4.77Z" transform="translate(-2.13 0.02)"/>
    <path class="cls-1" d="M35.77,10.78c-3.33,9.18-7.37,18-11.53,26.81-.23.49.48.89.74.41A194.46,194.46,0,0,0,36.44,10.94C36.59,10.52,35.92,10.36,35.77,10.78Z" transform="translate(-2.13 0.02)"/>
    <path class="cls-1" d="M35.88,15.31C33.18,23.06,29.61,30.4,26.66,38c-.16.42.51.66.73.29,3.94-7.07,6.62-15.17,9.19-22.82C36.73,15,36,14.88,35.88,15.31Z" transform="translate(-2.13 0.02)"/>
    <path class="cls-1" d="M36.35,19.91C33.94,26,31.5,32.07,29.12,38.17c-.24.62.76.86,1,.25,2.36-6.06,4.66-12.14,7-18.22C37.27,19.77,36.53,19.48,36.35,19.91Z" transform="translate(-2.13 0.02)"/>
    <path class="cls-1" d="M36.9,25.54c-1.29,3-2.91,6-3.89,9.06-.15.47.57.74.8.31a95.68,95.68,0,0,0,3.8-9C37.81,25.46,37.11,25.06,36.9,25.54Z" transform="translate(-2.13 0.02)"/>
    <path class="cls-4" d="M37.47,14.26q-.19-4.06-.53-8.13c-.13-1.58.05-3.89-1.1-5.19S31.91.08,30.25.08c-2.72,0-5.46,0-8.18.05C16.61.2,11.16.39,5.7.64a.54.54,0,0,0-.28.08.68.68,0,0,0-.26.07A6.28,6.28,0,0,0,4,1.72,3.54,3.54,0,0,0,2.86,3.5c-.67,2.14-.38,4.77-.44,7q-.1,4-.14,8.11-.07,9.51.32,19a.57.57,0,0,0,.43.54c.72,1.84,2.89,1.5,4.52.66A2.16,2.16,0,0,0,9.15,40a3,3,0,0,0,2.51-1,3.15,3.15,0,0,0,3.79-.15,3.1,3.1,0,0,0,4.06,0,3.39,3.39,0,0,0,4.24-.13,3,3,0,0,0,3.79.15,3.4,3.4,0,0,0,3.48.23,2.2,2.2,0,0,0,1.22-1.73l.08-.05a17.51,17.51,0,0,0,2.53-2.63c.87-1,1.75-2,2.63-3a.84.84,0,0,0,.19-.68.67.67,0,0,0,.18-.47c.08-5.44-.1-10.88-.38-16.3Zm-4.9,13.59a.62.62,0,0,1,0,1.23c-7.42,0-14.84.05-22.26.07a.55.55,0,0,1,0-1.1c7.42-.24,14.84-.26,22.26-.2Zm0-4.9c.77,0,.81,1.21,0,1.21-3.78.05-7.58-.1-11.35-.16a77.88,77.88,0,0,0-10.91.2c-.69.09-.69-1,0-1.07a73.59,73.59,0,0,1,10.91-.31c3.78,0,7.57,0,11.35.13Zm0-5.42c.74,0,.78,1.15,0,1.15a83.81,83.81,0,0,0-9.24.43c-.69.07-.69-1,0-1.07a51.82,51.82,0,0,1,9.23-.51Zm0-4.93a.57.57,0,0,1,0,1.13c-3.14.26-6.39.17-9.54.18a.54.54,0,0,1,0-1.07,70.74,70.74,0,0,1,9.54-.24ZM21.66,17.36a3.65,3.65,0,0,1-.24,1.73C20.78,20.23,19.1,20,18,20c-2.28,0-4.64.13-6.91-.08-1.13-.11-1.71-.46-1.84-1.63s-.54-3.68.18-4.84c.84-1.35,2.84-1.11,4.18-1.11,2.14,0,4.28,0,6.42,0a.49.49,0,0,1,.33.12c.82.05,1.23.78,1.31,1.7a28.87,28.87,0,0,1-.05,3.22ZM12,13.5c.45,0,.91,0,1.36,0q3.09,0,6.17-.1a.6.6,0,0,0,.66.27c.23-.06.28,1.51.28,2.64-.86-.77-2-1.78-3.05-1.38-.69.27-1,1.21-1.7,1.48-1.1.45-2.3-1.16-2.82-1.92a.62.62,0,0,0-.85-.2l-1.63,1c.08-1,.43-1.7,1.58-1.78Zm6,5.2-3.77-.05c-.83,0-2.8.3-3.42-.23a2.71,2.71,0,0,1-.42-1.76l.07,0,1.74-1c.76,1,2.12,2.57,3.24,2.46.65-.06,1.17-.76,1.61-1.18s.58-.7,1.11-.7,1.48,1.08,1.91,1.41a.71.71,0,0,0,.28.13c-.32,1.13-1.2,1-2.35,1ZM34.67,8.4c1.17,2.72-4,3.48-5.57,3.16a.76.76,0,0,1,.17-1.49,8.21,8.21,0,0,0,2.52-.24c.38-.11,2.07-.7,1-1s-2.11.4-3.09-.43a1.87,1.87,0,0,1,0-2.73c.91-1,2.28-.76,3.47-.78a.73.73,0,0,1,0,1.46c-.58,0-2-.22-2.39.39-.52.85,1,.53,1.4.51A2.39,2.39,0,0,1,34.67,8.4Zm-7.2-3.71c.46-.67,1.78-.31,1.44.57a28,28,0,0,0-1.56,5.68.78.78,0,0,1-1.42.21L24.16,7.36c-.14.4-.27.8-.38,1.22-.15.61-.17,1.29-.38,1.89a1.33,1.33,0,0,1-1.48,1c-.93-.21-1-1.24-1.07-2-.24-1.48-.46-3-.67-4.45-.13-.83,1.3-1,1.44-.23.06.33.38,2.63.6,4.07.1-.54.16-1.09.26-1.43a16.72,16.72,0,0,1,1-2.36.79.79,0,0,1,1.36,0c.5,1.07,1,2.15,1.49,3.22a26.45,26.45,0,0,1,.81-2.62.57.57,0,0,1,.06-.52l.3-.44Zm-7.79,5.39c.65.27.44,1.24-.15,1.42-1.12.34-2.68.39-3.49-.62a2.93,2.93,0,0,1-.42-2.15,6.63,6.63,0,0,0-.56-2.91s0,0,0-.06A24,24,0,0,1,14.68,11a.74.74,0,0,1-1.07.47,6.13,6.13,0,0,1-2.26-2.65,19.27,19.27,0,0,1-.52-1.94l-.21,3.27c-.06.89-1.46.94-1.4,0,.11-1.81.21-3.63.33-5.44,0-.49.57-1,1.06-.64a3.93,3.93,0,0,1,1.57,2.39,7.87,7.87,0,0,0,1.2,2.8c.08-1.5,0-3,.2-4.47.07-.67,1.14-1,1.3-.2a6.17,6.17,0,0,1,.1.62.81.81,0,0,1,.72-.6l2.89-.46C19.51,4,20,5.43,19,5.6L16.8,6a7.19,7.19,0,0,1,.3,1.15L18,7.1a2.23,2.23,0,0,1,1.33.16.66.66,0,0,1,0,1.13A2.29,2.29,0,0,1,18,8.64l-.82,0c0,.59-.12,1.21.56,1.43a1.63,1.63,0,0,0,.7,0,.63.63,0,0,1,.82-.24,2.14,2.14,0,0,0,.4.2ZM30.75,37.55c-.6.91-2.18.39-2.76-.19a.72.72,0,0,0-1,0,1.53,1.53,0,0,1-2.59-.16.73.73,0,0,0-1.24,0,2,2,0,0,1-3.08.19.73.73,0,0,0-1.24,0,1.64,1.64,0,0,1-2.73,0,.72.72,0,0,0-1.23,0,1.78,1.78,0,0,1-2.77,0,.7.7,0,0,0-1,0,2.51,2.51,0,0,1-.53.55c-.49.56-1.1.44-1.85-.37a.69.69,0,0,0-1.05-.58c-.88.64-3.21,2.15-3.55.07a.51.51,0,0,0-.35-.41c-.15-6-.23-11.94-.19-17.91,0-3.12.08-6.24.17-9.36A35.45,35.45,0,0,1,4,4.58c.07-.45.25-1.5.72-1.71,1.23-.55,1.37.91,1.43,1.56.29,3,0,6.07,0,9,0,3.14,0,6.29,0,9.42,0,3-.17,6,0,9,.11,1.92.59,3.73,2.27,4.83a.69.69,0,0,0,.72,0l2.14-1.58,1.49,1.27a.73.73,0,0,0,1,0A8.91,8.91,0,0,1,15.35,35a12.14,12.14,0,0,0,1.42,1.45.73.73,0,0,0,.87.09l2-1.38a3.64,3.64,0,0,0,4.75-.27,2.52,2.52,0,0,0,2.75.58,2.43,2.43,0,0,0,3.47-.63c.15.71.5,2.2.15,2.73Zm3-3.92c-.43.49-.91,1-1.36,1.47,0-.6-.07-1.21-.1-1.81a4.55,4.55,0,0,1-.06-1.1c.1-.45,0-.32.49-.35a11.28,11.28,0,0,0,1.42,0,7.92,7.92,0,0,1,1.54-.31l-1.93,2.15Zm1.49-3.57c-.55.07-1.07.3-1.63.35s-1.07-.18-1.6-.09a1.3,1.3,0,0,0-1.11,1.28,9.58,9.58,0,0,0,.14,2.18,1,1,0,0,0-.33.25.71.71,0,0,0-1.23,0,1.08,1.08,0,0,1-1.76.08.69.69,0,0,0-.86-.09,1.13,1.13,0,0,1-1.77-.58.71.71,0,0,0-1.3-.14,2.17,2.17,0,0,1-3.61.43.69.69,0,0,0-.86-.09l-2,1.4a9.63,9.63,0,0,1-1.2-1.34.73.73,0,0,0-1-.23,10.71,10.71,0,0,0-2,1.44l-1.43-1.22a.73.73,0,0,0-.87-.09L8.67,35.16C7,33.67,7.45,30.5,7.46,28.52l0-8.17c0-2.83,0-5.65,0-8.48A58.74,58.74,0,0,0,7.46,4a3.72,3.72,0,0,0-.93-2.16q6.84-.24,13.68-.34c2.41,0,4.83-.06,7.24-.07,1.15,0,2.31,0,3.46,0s3-.39,3.85.33.64,2.51.71,3.45c.09,1.14.16,2.29.24,3.44.16,2.5.3,5,.4,7.51.2,4.64.23,9.28.28,13.93A3.08,3.08,0,0,0,35.25,30.06Z" transform="translate(-2.13 0.02)"/>
  </g>
</svg>
