<svg xmlns="http://www.w3.org/2000/svg" xmlns:xlink="http://www.w3.org/1999/xlink" viewBox="0 0 40 40">
  <defs>
    <style>
      .cls-1 {
        isolation: isolate;
      }

      .cls-2 {
        fill: url(#linear-gradient);
      }

      .cls-3, .cls-4 {
        opacity: 0.25;
      }

      .cls-11, .cls-12, .cls-3, .cls-5, .cls-6 {
        mix-blend-mode: multiply;
      }

      .cls-3 {
        fill: url(#radial-gradient);
      }

      .cls-4, .cls-9 {
        fill: #fff;
      }

      .cls-5 {
        opacity: 0.35;
        fill: url(#linear-gradient-2);
      }

      .cls-12, .cls-6 {
        opacity: 0.5;
      }

      .cls-6 {
        fill: url(#linear-gradient-3);
      }

      .cls-7 {
        fill: #5d4037;
      }

      .cls-8 {
        fill: #4e342e;
      }

      .cls-10 {
        fill: #f5f5f5;
      }

      .cls-11 {
        fill: #cfd8dc;
      }

      .cls-13 {
        fill: url(#linear-gradient-4);
      }
    </style>
    <linearGradient id="linear-gradient" x1="20" y1="-0.67" x2="20" y2="40.75" gradientUnits="userSpaceOnUse">
      <stop offset="0" stop-color="#ffe082"/>
      <stop offset="1" stop-color="#ffbf66"/>
    </linearGradient>
    <radialGradient id="radial-gradient" cx="20" cy="20" r="20" gradientUnits="userSpaceOnUse">
      <stop offset="0.8" stop-color="#fff"/>
      <stop offset="1" stop-color="#ffbf66"/>
    </radialGradient>
    <linearGradient id="linear-gradient-2" x1="20" y1="17.63" x2="20" y2="40.41" xlink:href="#linear-gradient"/>
    <linearGradient id="linear-gradient-3" x1="365.62" y1="-64.18" x2="374.36" y2="-64.18" gradientTransform="matrix(-0.99, 0.16, 0.16, 0.99, 387.44, 10.73)" xlink:href="#linear-gradient"/>
    <linearGradient id="linear-gradient-4" x1="21.83" y1="11.25" x2="30.58" y2="11.25" xlink:href="#linear-gradient"/>
  </defs>
  <title>1</title>
  <g class="cls-1">
    <g id="레이어_1" data-name="레이어 1">
      <g>
        <g>
          <circle class="cls-2" cx="20" cy="20" r="20"/>
          <circle class="cls-3" cx="20" cy="20" r="20"/>
          <path class="cls-4" d="M36.5,15.12c0,7.43-7.39,0-16.5,0s-16.5,7.43-16.5,0S10.89,1.67,20,1.67,36.5,7.69,36.5,15.12Z"/>
          <path class="cls-5" d="M20,36A20,20,0,0,1,.1,18,18.86,18.86,0,0,0,0,20a20,20,0,0,0,40,0,18.86,18.86,0,0,0-.1-2A20,20,0,0,1,20,36Z"/>
        </g>
        <g>
          <g>
            <path class="cls-6" d="M14.36,4.51C11.84,5.65,9,7.14,8,9.92c1.33-1.76,3.59-2.51,5.68-2.84.77-.12,2,0,2.38-.91a1.28,1.28,0,0,0-1.68-1.66C11.87,5.64,15.25,4.11,14.36,4.51Z"/>
            <path class="cls-7" d="M14.26,3.85C11.73,5,8.87,6.48,7.87,9.26,9.2,7.5,11.46,6.75,13.56,6.42c.76-.12,2,0,2.37-.91a1.28,1.28,0,0,0-1.67-1.66Z"/>
          </g>
          <g>
            <path class="cls-4" d="M13.11,20.75c-2.94,0-5.34-.41-5.34-3.37a5.34,5.34,0,1,1,10.68,0C18.45,20.34,16.06,20.75,13.11,20.75Z"/>
            <path class="cls-7" d="M17.79,17.38c0,2.55-2.12,2.71-4.68,2.71s-4.67-.16-4.67-2.71a4.68,4.68,0,1,1,9.35,0Z"/>
            <path class="cls-8" d="M13.11,14a4.68,4.68,0,0,1,4.62,4.05,3.71,3.71,0,0,0,.06-.67,4.68,4.68,0,1,0-9.35,0,4.91,4.91,0,0,0,.05.67A4.69,4.69,0,0,1,13.11,14Z"/>
            <path class="cls-9" d="M17.11,17.38c0,2.22-1.79,2-4,2s-4,.19-4-2a4,4,0,1,1,8,0Z"/>
            <path class="cls-10" d="M13.11,18.74c-1.83,0-3.33.49-3.33-1.36a3.34,3.34,0,1,1,6.67,0C16.45,19.23,15,18.74,13.11,18.74Z"/>
            <path class="cls-9" d="M16.87,16.8c0,1.7-1.68,0-3.76,0s-3.75,1.7-3.75,0a3.66,3.66,0,0,1,3.75-3.32A3.66,3.66,0,0,1,16.87,16.8Z"/>
            <path class="cls-7" d="M16.71,17.38a1.6,1.6,0,0,1-3.19,0A1.6,1.6,0,0,1,16.71,17.38Z"/>
            <path class="cls-11" d="M13.11,14a4,4,0,0,1,4,3.69c0-.11,0-.22,0-.33a4,4,0,1,0-8,0c0,.11,0,.22,0,.33A4,4,0,0,1,13.11,14Z"/>
          </g>
          <g>
            <path class="cls-4" d="M27.13,20.75c-2.95,0-5.34-.41-5.34-3.37a5.34,5.34,0,1,1,10.68,0C32.47,20.34,30.07,20.75,27.13,20.75Z"/>
            <path class="cls-7" d="M31.8,17.38c0,2.55-2.11,2.71-4.67,2.71s-4.68-.16-4.68-2.71a4.68,4.68,0,1,1,9.35,0Z"/>
            <path class="cls-8" d="M27.13,14a4.69,4.69,0,0,1,4.62,4.05,4.91,4.91,0,0,0,.05-.67,4.68,4.68,0,1,0-9.35,0,3.71,3.71,0,0,0,.06.67A4.68,4.68,0,0,1,27.13,14Z"/>
            <path class="cls-9" d="M31.13,17.38c0,2.22-1.79,2-4,2s-4,.19-4-2a4,4,0,1,1,8,0Z"/>
            <path class="cls-10" d="M27.13,18.74c-1.84,0-3.34.49-3.34-1.36a3.34,3.34,0,1,1,6.67,0C30.46,19.23,29,18.74,27.13,18.74Z"/>
            <path class="cls-9" d="M30.88,16.8c0,1.7-1.68,0-3.75,0s-3.76,1.7-3.76,0a3.78,3.78,0,0,1,7.51,0Z"/>
            <path class="cls-7" d="M30.72,17.38a1.6,1.6,0,0,1-3.19,0A1.6,1.6,0,0,1,30.72,17.38Z"/>
            <path class="cls-11" d="M27.13,14a4,4,0,0,1,4,3.69c0-.11,0-.22,0-.33a4,4,0,1,0-8,0c0,.11,0,.22,0,.33A4,4,0,0,1,27.13,14Z"/>
          </g>
          <path class="cls-4" d="M20.26,32.76a7.67,7.67,0,0,1-4.39-1.59,1.67,1.67,0,0,1,1-3,1.63,1.63,0,0,1,1,.3,4.43,4.43,0,0,0,2.48,1c1.19,0,2.17-.87,3.41-2s3-2.65,5.19-2.65a5.89,5.89,0,0,1,2.82.79,1.65,1.65,0,0,1,.79,1,1.62,1.62,0,0,1-.14,1.27,1.66,1.66,0,0,1-1.46.86,1.59,1.59,0,0,1-.8-.21,2.53,2.53,0,0,0-1.21-.37c-.88,0-1.75.72-3,1.81S22.73,32.76,20.26,32.76Z"/>
          <path class="cls-7" d="M20.26,32.1a6.94,6.94,0,0,1-4-1.48A1,1,0,1,1,17.41,29c3.1,2.18,4.69.76,6.71-1,1.79-1.58,4-3.56,7.24-1.78a1,1,0,0,1-1,1.76c-1.91-1.05-3.07-.16-4.95,1.52C24.12,30.63,22.48,32.1,20.26,32.1Z"/>
          <path class="cls-8" d="M17.41,30.32c3.1,2.18,4.69.77,6.71-1,1.79-1.59,4-3.56,7.24-1.78a.78.78,0,0,1,.26.21,1.33,1.33,0,0,0,.14-.19,1,1,0,0,0-.4-1.36c-3.23-1.78-5.45.2-7.24,1.78-2,1.79-3.61,3.21-6.71,1a1,1,0,0,0-1.4.24,1,1,0,0,0,.08,1.24A1,1,0,0,1,17.41,30.32Z"/>
          <g class="cls-12">
            <path class="cls-13" d="M30.58,9.12c-4,0-4.19,1.21-6.16,1.61-.76.16-1.9,0-2.4.78-.59.94.21,2.26,1.73,1.76C26.35,12.41,27,10.26,30.58,9.12Z"/>
          </g>
          <path class="cls-7" d="M30.58,8.45c-4,0-4.19,1.21-6.16,1.62-.76.15-1.9,0-2.4.78-.59.94.21,2.25,1.73,1.75C26.35,11.75,27,9.6,30.58,8.45Z"/>
        </g>
      </g>
    </g>
  </g>
</svg>
