<svg xmlns="http://www.w3.org/2000/svg" xmlns:xlink="http://www.w3.org/1999/xlink" viewBox="0 0 40 40">
  <defs>
    <style>
      .cls-1 {
        isolation: isolate;
      }

      .cls-2 {
        fill: url(#linear-gradient);
      }

      .cls-3, .cls-4, .cls-9 {
        opacity: 0.25;
      }

      .cls-10, .cls-11, .cls-3, .cls-5, .cls-9 {
        mix-blend-mode: multiply;
      }

      .cls-3 {
        fill: url(#radial-gradient);
      }

      .cls-4 {
        fill: #fff;
      }

      .cls-10, .cls-11, .cls-5 {
        opacity: 0.35;
      }

      .cls-5 {
        fill: url(#linear-gradient-2);
      }

      .cls-6 {
        fill: #5d4037;
      }

      .cls-7 {
        fill: #4e342e;
      }

      .cls-8, .cls-9 {
        fill: #d95957;
      }

      .cls-10 {
        fill: url(#linear-gradient-3);
      }

      .cls-11 {
        fill: url(#linear-gradient-4);
      }
    </style>
    <linearGradient id="linear-gradient" x1="20" y1="-0.67" x2="20" y2="40.75" gradientUnits="userSpaceOnUse">
      <stop offset="0" stop-color="#ffe082"/>
      <stop offset="1" stop-color="#ffbf66"/>
    </linearGradient>
    <radialGradient id="radial-gradient" cx="20" cy="20" r="20" gradientUnits="userSpaceOnUse">
      <stop offset="0.8" stop-color="#fff"/>
      <stop offset="1" stop-color="#ffbf66"/>
    </radialGradient>
    <linearGradient id="linear-gradient-2" x1="20" y1="17.63" x2="20" y2="40.41" xlink:href="#linear-gradient"/>
    <linearGradient id="linear-gradient-3" x1="-27.22" y1="18.11" x2="-19.04" y2="18.11" gradientTransform="translate(29.53 -14.22) rotate(-14.55)" xlink:href="#linear-gradient"/>
    <linearGradient id="linear-gradient-4" x1="-118.21" y1="-5.51" x2="-110.02" y2="-5.51" gradientTransform="matrix(-0.97, -0.25, -0.25, 0.97, -83.53, -14.22)" xlink:href="#linear-gradient"/>
  </defs>
  <title>1</title>
  <g class="cls-1">
    <g id="레이어_1" data-name="레이어 1">
      <g>
        <g>
          <circle class="cls-2" cx="20" cy="20" r="20"/>
          <circle class="cls-3" cx="20" cy="20" r="20"/>
          <path class="cls-4" d="M36.5,15.12c0,7.43-7.39,0-16.5,0s-16.5,7.43-16.5,0S10.89,1.67,20,1.67,36.5,7.69,36.5,15.12Z"/>
          <path class="cls-5" d="M20,36A20,20,0,0,1,.1,18,18.86,18.86,0,0,0,0,20a20,20,0,0,0,40,0,18.86,18.86,0,0,0-.1-2A20,20,0,0,1,20,36Z"/>
        </g>
        <g>
          <path class="cls-4" d="M30.09,18.45a18.41,18.41,0,0,1-2.48-.19,11.48,11.48,0,0,1-2.8-.41C23,17.38,22.28,17,22.2,16.3a1,1,0,0,1,.59-1,8.27,8.27,0,0,1,3.85-.89,10.68,10.68,0,0,1,4.35.95l.08,0A3.52,3.52,0,0,1,32.9,16.8a1.05,1.05,0,0,1,0,.95,1.64,1.64,0,0,1-1.34.62A14.21,14.21,0,0,1,30.09,18.45Z"/>
          <path class="cls-6" d="M23.12,15.89a8.92,8.92,0,0,1,7.59.09c.44.2,1.36.6,1.57,1.09s-.55.61-.88.64a15.43,15.43,0,0,1-3.78-.12h.05A11.05,11.05,0,0,1,25,17.21C24.77,17.15,22,16.5,23.12,15.89Z"/>
          <path class="cls-4" d="M9.9,18.45a12.85,12.85,0,0,1-1.56-.09c-.09,0-1.07-.14-1.3-.86a1,1,0,0,1,.37-1.1,7.39,7.39,0,0,1,2.36-1.34,8.94,8.94,0,0,1,3.32-.6h.41a9.56,9.56,0,0,1,2.88.48c.51.19,1.38.6,1.43,1.3a1,1,0,0,1-.64,1,12,12,0,0,1-4.78,1.05A17.46,17.46,0,0,1,9.9,18.45Z"/>
          <path class="cls-6" d="M16.87,16.62a11.6,11.6,0,0,1-4.53,1s-.05,0,0,0a14.52,14.52,0,0,1-4,.1c-.38,0-1.12-.32-.58-.79A7,7,0,0,1,10,15.68a8.64,8.64,0,0,1,3.48-.54,8.59,8.59,0,0,1,2.67.44C16.44,15.68,17.68,16.21,16.87,16.62Z"/>
          <path class="cls-7" d="M31.49,17.71c-.28-.17-.58-.3-.78-.4a9.27,9.27,0,0,0-6.81-.43c-.73-.25-1.43-.63-.79-1a8.94,8.94,0,0,1,7.6.09c.44.2,1.36.61,1.58,1.09S31.85,17.67,31.49,17.71Z"/>
          <path class="cls-7" d="M16.87,16.62a5,5,0,0,1-.71.29h0a8.89,8.89,0,0,0-2.67-.44A8.57,8.57,0,0,0,10,17a8.33,8.33,0,0,0-1.44.7l-.14,0c-.38,0-1.12-.32-.58-.79A6.78,6.78,0,0,1,10,15.68a8.57,8.57,0,0,1,3.47-.54,8.59,8.59,0,0,1,2.67.44C16.44,15.69,17.68,16.21,16.87,16.62Z"/>
        </g>
        <g>
          <path class="cls-4" d="M20,33.2a12.43,12.43,0,0,1-3-.46,8.49,8.49,0,0,1-3.72-2.12c-.88-.88-2.23-2.55-1.53-3.78a1.25,1.25,0,0,1,1.11-.67,2.46,2.46,0,0,1,1.09.34l.07,0a18.37,18.37,0,0,0,1.77.64,17,17,0,0,0,4.11.49h.26a17,17,0,0,0,4.11-.49c.57-.17,1.14-.38,1.81-.65l0,0a2.46,2.46,0,0,1,1.09-.34,1.25,1.25,0,0,1,1.11.67c.7,1.23-.65,2.9-1.53,3.78A8.49,8.49,0,0,1,23,32.74a12.43,12.43,0,0,1-3,.46h0Z"/>
          <path class="cls-6" d="M27.7,27.17c-.34-.6-.95-.25-1.4,0a17.37,17.37,0,0,1-1.87.68,18.78,18.78,0,0,1-8.86,0,17.37,17.37,0,0,1-1.87-.68c-.45-.22-1.06-.57-1.4,0-.5.88.88,2.44,1.42,3a7.69,7.69,0,0,0,3.43,1.94,12,12,0,0,0,2.85.45,12,12,0,0,0,2.85-.45,7.69,7.69,0,0,0,3.43-1.94C26.82,29.61,28.2,28.05,27.7,27.17Z"/>
          <path class="cls-7" d="M13.7,28.47a17.37,17.37,0,0,0,1.87.68,18.78,18.78,0,0,0,8.86,0,17.37,17.37,0,0,0,1.87-.68c.41-.2.95-.5,1.3-.09a1.32,1.32,0,0,0,.1-1.21c-.34-.6-.95-.25-1.4,0a17.37,17.37,0,0,1-1.87.68,18.78,18.78,0,0,1-8.86,0,17.37,17.37,0,0,1-1.87-.68c-.45-.22-1.06-.57-1.4,0a1.32,1.32,0,0,0,.1,1.21C12.75,28,13.29,28.27,13.7,28.47Z"/>
          <path class="cls-8" d="M24.7,31.34A6.42,6.42,0,0,0,20,29.66a6.42,6.42,0,0,0-4.7,1.68,8.65,8.65,0,0,0,1.85.75,11.71,11.71,0,0,0,2.82.45H20a11.71,11.71,0,0,0,2.82-.45A8.65,8.65,0,0,0,24.7,31.34Z"/>
          <path class="cls-9" d="M22.85,31.43a12.22,12.22,0,0,1-2.82.44H20a12.22,12.22,0,0,1-2.82-.44,9.21,9.21,0,0,1-1.37-.53,3.39,3.39,0,0,0-.48.44,8.65,8.65,0,0,0,1.85.75,11.71,11.71,0,0,0,2.82.45H20a11.71,11.71,0,0,0,2.82-.45,8.65,8.65,0,0,0,1.85-.75,3.39,3.39,0,0,0-.48-.44A9.21,9.21,0,0,1,22.85,31.43Z"/>
        </g>
        <path class="cls-10" d="M14.53,8.15c-2.36.91-5,2.13-6.12,4.63.23-2.26,2-4.51,3.73-5.86.59-.47,1.33-1.34,2.17-1.18A1.27,1.27,0,0,1,14.53,8.15Z"/>
        <path class="cls-6" d="M14.37,7.5C12,8.42,9.31,9.64,8.25,12.14c.25-2.49,2-4.45,3.86-6,.72-.61,1.89-1.69,2.75-.65a1.28,1.28,0,0,1-.49,2C12,8.41,15.51,7.05,14.37,7.5Z"/>
        <path class="cls-11" d="M25.47,8.15c2.36.91,5.05,2.13,6.12,4.63-.23-2.26-2-4.51-3.73-5.86-.59-.47-1.33-1.34-2.17-1.18A1.27,1.27,0,0,0,25.47,8.15Z"/>
        <path class="cls-6" d="M25.63,7.5c2.39.92,5.06,2.14,6.12,4.64-.25-2.49-2-4.45-3.86-6-.72-.61-1.89-1.69-2.75-.65a1.28,1.28,0,0,0,.49,2C28,8.41,24.49,7.05,25.63,7.5Z"/>
      </g>
    </g>
  </g>
</svg>
