<svg xmlns="http://www.w3.org/2000/svg" xmlns:xlink="http://www.w3.org/1999/xlink" viewBox="0 0 40 40">
  <defs>
    <style>
      .cls-1 {
        isolation: isolate;
      }

      .cls-2 {
        fill: url(#linear-gradient);
      }

      .cls-3 {
        opacity: 0.5;
        fill: url(#linear-gradient-2);
      }

      .cls-11, .cls-3, .cls-4, .cls-6 {
        mix-blend-mode: multiply;
      }

      .cls-4, .cls-5 {
        opacity: 0.25;
      }

      .cls-4 {
        fill: url(#radial-gradient);
      }

      .cls-5 {
        fill: #fff;
      }

      .cls-6 {
        opacity: 0.35;
        fill: url(#linear-gradient-3);
      }

      .cls-7 {
        fill: #5d4037;
      }

      .cls-8 {
        fill: #4e342e;
      }

      .cls-9 {
        fill: #f5f5f5;
      }

      .cls-10, .cls-11 {
        fill: #cfd8dc;
      }
    </style>
    <linearGradient id="linear-gradient" x1="20" y1="-0.67" x2="20" y2="40.75" gradientUnits="userSpaceOnUse">
      <stop offset="0" stop-color="#ffe082"/>
      <stop offset="1" stop-color="#ffbf66"/>
    </linearGradient>
    <linearGradient id="linear-gradient-2" x1="20" y1="-0.67" x2="20" y2="40.75" gradientUnits="userSpaceOnUse">
      <stop offset="0.15" stop-color="#ff7043"/>
      <stop offset="0.5" stop-color="#fff"/>
    </linearGradient>
    <radialGradient id="radial-gradient" cx="20" cy="20" r="20" gradientUnits="userSpaceOnUse">
      <stop offset="0.8" stop-color="#fff"/>
      <stop offset="1" stop-color="#ffbf66"/>
    </radialGradient>
    <linearGradient id="linear-gradient-3" x1="20" y1="17.63" x2="20" y2="40.41" xlink:href="#linear-gradient"/>
  </defs>
  <title>1</title>
  <g class="cls-1">
    <g id="레이어_1" data-name="레이어 1">
      <g>
        <g>
          <circle class="cls-2" cx="20" cy="20" r="20"/>
          <circle class="cls-3" cx="20" cy="20" r="20"/>
          <circle class="cls-4" cx="20" cy="20" r="20"/>
          <path class="cls-5" d="M36.5,15.12c0,7.43-7.39,0-16.5,0s-16.5,7.43-16.5,0S10.89,1.67,20,1.67,36.5,7.69,36.5,15.12Z"/>
          <path class="cls-6" d="M20,36A20,20,0,0,1,.1,18,18.86,18.86,0,0,0,0,20a20,20,0,0,0,40,0,18.86,18.86,0,0,0-.1-2A20,20,0,0,1,20,36Z"/>
        </g>
        <path class="cls-5" d="M17.63,18c-.5,0-.79-.38-1.08-.73a3.21,3.21,0,0,0-2.84-1.43,3.2,3.2,0,0,0-2.83,1.42c-.29.36-.59.74-1.08.74a.89.89,0,0,1-.5-.15c-.39-.25-.67-.75-.09-2.74.07-.24,1.77-5.93,4.52-5.93,2.18,0,3.84,3.7,4.48,5.88s.31,2.54-.09,2.79a.88.88,0,0,1-.49.15Z"/>
        <path class="cls-7" d="M13.73,9.81c-.89,0-1.59.84-2.06,1.5a13.12,13.12,0,0,0-1.54,3.09,7.24,7.24,0,0,0-.58,2.5c0,.69.55.23.78-.06a4.15,4.15,0,0,1,2.46-1.63,4.21,4.21,0,0,1,3.65.9c.23.21.9,1.33,1.28,1.16s0-1.4,0-1.68a14.38,14.38,0,0,0-1.53-3.72C15.64,11.05,14.83,9.81,13.73,9.81Z"/>
        <path class="cls-5" d="M30.2,18c-.49,0-.79-.38-1.08-.74a3.2,3.2,0,0,0-2.83-1.42,3.21,3.21,0,0,0-2.84,1.43c-.29.35-.58.73-1.08.73a.88.88,0,0,1-.49-.15c-.4-.25-.68-.76-.09-2.79.64-2.19,2.3-5.88,4.48-5.88,2.75,0,4.45,5.69,4.52,5.93.58,2,.3,2.49-.09,2.74a.89.89,0,0,1-.5.15Z"/>
        <path class="cls-7" d="M26.27,9.81c.89,0,1.59.84,2.06,1.5a13.12,13.12,0,0,1,1.54,3.09,7.24,7.24,0,0,1,.58,2.5c0,.69-.55.23-.78-.06a4.15,4.15,0,0,0-2.46-1.63,4.21,4.21,0,0,0-3.65.9c-.23.21-.9,1.33-1.28,1.16s0-1.4,0-1.68a14.38,14.38,0,0,1,1.53-3.72C24.36,11.05,25.17,9.81,26.27,9.81Z"/>
        <path class="cls-8" d="M9.68,17.25c.48-2.14,2.23-6.11,4.05-6.11s3.55,4,4,6.11h0c.64-.4-1.61-7.43-4-7.43s-4.71,7-4.07,7.43Z"/>
        <path class="cls-8" d="M22.25,17.25c.47-2.15,2.2-6.11,4-6.11s3.57,4,4.05,6.11h0c.64-.4-1.64-7.43-4.07-7.43s-4.68,7-4,7.43Z"/>
        <path class="cls-5" d="M12.55,32.81c-2.77,0-4.77-1.41-5.33-3.76-.61-2.54.91-5.15,3.69-6.35,1.72-.74,5.82-1,9.09-1s7.37.26,9.08,1c2.78,1.2,4.3,3.81,3.69,6.35s-2.35,3.76-5.33,3.76L20,32.9Z"/>
        <path class="cls-7" d="M32.13,28.89a3.94,3.94,0,0,1-2.35,2.89,7.67,7.67,0,0,1-2.69.36l-5.72.08c-2.89,0-5.78,0-8.67-.08a5.81,5.81,0,0,1-3-.73A4.12,4.12,0,0,1,7.76,27.6c.2-2.7,2.71-4.31,5.15-4.75a40.89,40.89,0,0,1,7.42-.48,35.46,35.46,0,0,1,7.2.57c2.7.56,5.31,3,4.6,5.95Z"/>
        <path class="cls-8" d="M11.17,24.65c2.94-1.27,14.71-1.27,17.65,0a5.41,5.41,0,0,1,3.37,3.92c.36-2.26-1.16-4.3-3.37-5.26-2.94-1.26-14.71-1.26-17.65,0-2.21,1-3.72,3-3.36,5.26A5.42,5.42,0,0,1,11.17,24.65Z"/>
        <path class="cls-9" d="M30.51,25.3a5.75,5.75,0,0,0-2-1.37C27.3,23.38,23.94,23,20,23s-7.3.35-8.56.9A5.57,5.57,0,0,0,9.49,25.3a2.74,2.74,0,0,0,1.7,2.31c-.69.61-.93,2.08-1,3.33a5.29,5.29,0,0,0,2.38.53l7.43.1,7.44-.1A5.35,5.35,0,0,0,29.81,31c0-1.26-.3-2.79-1-3.41A2.74,2.74,0,0,0,30.51,25.3Z"/>
        <path class="cls-10" d="M20,23c-3.94,0-7.3.35-8.56.9A5.57,5.57,0,0,0,9.49,25.3q0,.18.09.33a6.42,6.42,0,0,1,1.59-1c2.94-1.27,14.71-1.27,17.65,0a6.22,6.22,0,0,1,1.6,1c0-.11.06-.21.09-.34a5.75,5.75,0,0,0-2-1.37C27.3,23.38,23.94,23,20,23Z"/>
        <path class="cls-11" d="M10.73,28.27a63.35,63.35,0,0,0,9.27.66,63.53,63.53,0,0,0,9.27-.66,1.94,1.94,0,0,0-.46-.66,55.6,55.6,0,0,1-8.81.67,53.15,53.15,0,0,1-8.81-.67A2.09,2.09,0,0,0,10.73,28.27Z"/>
      </g>
    </g>
  </g>
</svg>
