<svg id="레이어_1" data-name="레이어 1" xmlns="http://www.w3.org/2000/svg" viewBox="0 0 27.28 40">
  <defs>
    <style>
      .cls-1 {
        fill: #1e1e29;
      }

      .cls-2 {
        fill: #379bdb;
      }

      .cls-3 {
        fill: #313142;
      }

      .cls-4 {
        opacity: 0.1;
      }

      .cls-5 {
        fill: #43acf0;
      }

      .cls-6 {
        fill: #ed9d6c;
      }

      .cls-7 {
        fill: #4f2c1e;
      }

      .cls-8 {
        fill: #ffb97f;
      }

      .cls-9 {
        fill: #bf3c1b;
      }

      .cls-18, .cls-9 {
        opacity: 0.3;
      }

      .cls-10 {
        fill: #a82807;
        opacity: 0.4;
      }

      .cls-11 {
        fill: #693a27;
      }

      .cls-12 {
        fill: #121b21;
      }

      .cls-13 {
        fill: #ffcb9e;
      }

      .cls-14 {
        fill: #7d8ba8;
      }

      .cls-15 {
        fill: #4f3023;
      }

      .cls-16 {
        fill: #94110c;
        opacity: 0.5;
      }

      .cls-17 {
        fill: #3a3a4a;
      }

      .cls-18, .cls-20, .cls-21 {
        fill: #fff;
      }

      .cls-19 {
        fill: #c1c5c9;
      }

      .cls-21 {
        opacity: 0.7;
      }
    </style>
  </defs>
  <title>1</title>
  <g>
    <g>
      <path class="cls-1" d="M14.73,31.38s-2,1-3,1.49c-1.51.82-2.23,1.21-2.23,2.88A36.74,36.74,0,0,1,9.23,40h5.42c.39-2.09.62-3.77.62-3.77Z" transform="translate(-6.65)"/>
      <path class="cls-1" d="M29.56,32.87c-1-.53-3-1.49-3-1.49L26,36.23s.23,1.68.62,3.77h5.42a34.64,34.64,0,0,1-.26-4.25C31.79,34.08,31.07,33.69,29.56,32.87Z" transform="translate(-6.65)"/>
      <path class="cls-2" d="M25.85,31.83c-1.31-3.2-8.29-2.26-10.13-.71s-2.36,3.43.41,6.16A13.25,13.25,0,0,0,19.89,40h1.3C22.44,38.73,26.78,34.11,25.85,31.83Z" transform="translate(-6.65)"/>
      <path class="cls-3" d="M21.54,35.51l.61-1.28a1.59,1.59,0,0,0-1.83-.81,1.68,1.68,0,0,0-1.39,1.27l1,1L18.85,39.4l.31.6h3.48l.28-.78Z" transform="translate(-6.65)"/>
      <path class="cls-1" d="M29.24,33.05a26,26,0,0,0-4-2.42c.09.2.38.64.36.85C25.26,35.55,21,39.81,21,39.81s-6.35-5.61-5.29-8.37a2.72,2.72,0,0,1,.34-.63c-1.47.63-4.17,1.92-4.41,2.4S13,36.87,13.49,40v0h14C27.85,37.73,29.55,33.39,29.24,33.05Z" transform="translate(-6.65)"/>
      <path class="cls-3" d="M27.06,36.65a15.11,15.11,0,0,0-1.22-2L28,33.48a9.24,9.24,0,0,0-3-3.13c.55,5-3.81,9-4,9.33A.54.54,0,0,0,21,40h.51a15.15,15.15,0,0,1,2.24-1.62C25.28,37.46,27.1,36.81,27.06,36.65Z" transform="translate(-6.65)"/>
      <path class="cls-3" d="M21,39.62c-.2-.36-4.85-3.43-4.85-8.89a6.52,6.52,0,0,0-3,3.14l2.55,1a22.71,22.71,0,0,0-1.13,2.45c0,.21,1.91.14,4.3,1.38A7.38,7.38,0,0,1,20.64,40H21A.69.69,0,0,0,21,39.62Z" transform="translate(-6.65)"/>
      <path class="cls-4" d="M22.93,31.6c-1.43-.76-7.26-1-6.6,1.15a6,6,0,0,0,2.36,3.13L20.64,34l2.07,1.76a8.82,8.82,0,0,0,2.53-3.49A4.71,4.71,0,0,1,22.93,31.6Z" transform="translate(-6.65)"/>
      <path class="cls-5" d="M16,30.84c-1,2.47,2.55,4.49,2.55,4.49L20.64,34l1.95,1.23s3.86-2,2.4-4.9C23.68,27.75,17.12,28,16,30.84Z" transform="translate(-6.65)"/>
      <path class="cls-6" d="M19.11,27.37A2.92,2.92,0,0,0,17,30.06a2.27,2.27,0,0,0,.61,2,4.28,4.28,0,0,0,1.65,1c.46.14,1.27.68,1.41.68s.32-.23.76-.45a4.28,4.28,0,0,0,1.88-1.45c.51-1,1-3,0-3.78A5.63,5.63,0,0,0,19.11,27.37Z" transform="translate(-6.65)"/>
    </g>
    <g>
      <path class="cls-7" d="M18.16.07C3.35,1.06,5.57,21.71,9.8,20.88c3.12-.63,6.19-1.47,9.29-2.21,2.89-.68,6.07-.09,9,.15,2.3.18,2.27-.8,2.41-2.67.26-3.5-.11-4.78.07-6.19C31.38,4,26.63-.49,18.16.07Z" transform="translate(-6.65)"/>
      <path class="cls-8" d="M18.61,4.47c-5.45,1-9.37,8.79-8.46,16.17.67,5.52,4.83,11.63,11.21,11.25s9.85-8.45,9.1-15.24C29.64,9.26,26.24,3.07,18.61,4.47Z" transform="translate(-6.65)"/>
      <path class="cls-8" d="M8.29,17.55c-2.68.7-1.66,4.63.51,5.44a5.29,5.29,0,0,0,2.15.27l.05-.07c.32-.51-.22-3.12-.37-3.66C10.23,18.18,9.58,17.21,8.29,17.55Z" transform="translate(-6.65)"/>
      <path class="cls-9" d="M28.09,6.63a24.92,24.92,0,0,0-9.07-2c-2.17-.06-5.4-.23-7.16,1.34-1.41,1.27-1.54,3.66-1.64,5.42,0,.67-.1,5.8.31,4.69.72-2,2.36-2.74,2.33-4.86,3.12,1.44,7.83,1.38,11.94,1,2.57-.23,4.64-.85,5.13,1.31C30.29,11.62,30.13,7.47,28.09,6.63Z" transform="translate(-6.65)"/>
      <path class="cls-10" d="M9.21,19c-.6-.28-2.1.2-1.41,1.38.38-1.08,1-.36.92.41-.07.52-.63.52-.08,1.2.29.37.9.24,1.21.05C10.83,21.44,9.93,19.35,9.21,19Z" transform="translate(-6.65)"/>
      <path class="cls-7" d="M33.31,1.66c-3.5,2.77-9.09-3.45-17-1.13C5.44,3.7,9.39,15.22,9.43,16.61a6.87,6.87,0,0,0,1.08,3.17,2.52,2.52,0,0,0,1.46,0c-1-.92-1.33-3.4-.53-5.71.46-1.28,1.1-2.19,1-3.93.94.87,7.73,2.23,16.24.51a8.13,8.13,0,0,0,5.27-3.54c-.71,0-1.22.12-2.08.22C33.09,6.07,33.27,3.53,33.31,1.66Z" transform="translate(-6.65)"/>
      <path class="cls-11" d="M24.37,1.3C20.51.18,14.58,0,11.52,3.19s-.47,5.94,9.88,5.89c9.45,0,11.46-6.73,11.46-6.73C30,3.67,28.24,2.43,24.37,1.3Z" transform="translate(-6.65)"/>
    </g>
    <g>
      <path class="cls-10" d="M14.07,17.87c0,.44,1,.24,1.32.31-.26.27-1,.27-1.36.45s-.31.33.09.32a6.85,6.85,0,0,0,1.78-.46C16.65,17.87,14.41,17.78,14.07,17.87Z" transform="translate(-6.65)"/>
      <path class="cls-10" d="M29.46,18.35c-.25-.19-.91-.2-1.1-.48.26-.07,1.08.17,1.15-.26-.28-.11-2.16-.09-1.61.55a4.93,4.93,0,0,0,1.44.51C29.67,18.69,29.72,18.56,29.46,18.35Z" transform="translate(-6.65)"/>
      <path class="cls-12" d="M16.76,16c-1.39-.63-2.3,1.86-1.36,2.68a2,2,0,0,1,1.39.14A1.71,1.71,0,0,0,16.76,16Z" transform="translate(-6.65)"/>
      <path class="cls-10" d="M22.42,20.16c-.7,0-1-.26-1.48,0s.21,1.3,1.45,1.24,1.81-1,1.53-1.3S23.2,20.14,22.42,20.16Z" transform="translate(-6.65)"/>
      <path class="cls-13" d="M22,16.17c-.61,0-.74,1.69-1,2.47s-.37,1.53,0,1.76a2.94,2.94,0,0,0,2.91-.2c.19-.17-.26-1-.61-1.79S22.7,16.14,22,16.17Z" transform="translate(-6.65)"/>
      <path class="cls-12" d="M28,16c-1.42-.79-2.57,2.26-1,2.65a1.84,1.84,0,0,1,1.22-.34A1.6,1.6,0,0,0,28,16Z" transform="translate(-6.65)"/>
      <path class="cls-14" d="M16.35,16.35c-.57.18-.15,1.3.41.9C17.17,17,16.86,16.18,16.35,16.35Z" transform="translate(-6.65)"/>
      <path class="cls-14" d="M27.66,16.41c-.54.14-.24,1.2.31.88S28.14,16.3,27.66,16.41Z" transform="translate(-6.65)"/>
      <path class="cls-15" d="M27.22,13.13c-1-.13-1.8-.32-1.81-.28-.07.59,0,1.83.83,1.84.48,0,1-.07,1.44,0a5.13,5.13,0,0,1,1.71.48c.34.16.48-.35.36-.51A3.32,3.32,0,0,0,27.22,13.13Z" transform="translate(-6.65)"/>
      <path class="cls-15" d="M16.14,13.16a3.5,3.5,0,0,0-2.56,1.74c-.11.17.11.67.46.48a5.69,5.69,0,0,1,1.8-.64c.5-.09,1.05-.06,1.57-.11.86-.08.81-1.33.66-1.91C18.06,12.68,17.25,12.94,16.14,13.16Z" transform="translate(-6.65)"/>
      <path class="cls-13" d="M29.56,19.85a2.46,2.46,0,0,0-2.07-.5c-.85.09-1.94.54-1,1.66.49.59,3.91.66,3.34-.78A1.43,1.43,0,0,0,29.56,19.85Z" transform="translate(-6.65)"/>
      <path class="cls-13" d="M17,19.78a2.57,2.57,0,0,0-2.19-.45c-.88.13-2,.63-1,1.77.52.61,4.12.56,3.46-.93A1.3,1.3,0,0,0,17,19.78Z" transform="translate(-6.65)"/>
      <path class="cls-16" d="M23.94,23.58a8.07,8.07,0,0,0-4.09-.11A10.74,10.74,0,0,0,16,25.3a.42.42,0,0,0-.1.63.53.53,0,0,0,.7.06c5.6-4,9.62-.2,9.79,0a.54.54,0,0,0,.7,0,.43.43,0,0,0,.05-.64A8.13,8.13,0,0,0,23.94,23.58Z" transform="translate(-6.65)"/>
    </g>
    <g>
      <path class="cls-4" d="M29.16,19.43a21.36,21.36,0,0,1-3.39-.13c-1.47-.28-1.72-2.75-.27-3.2s2.95.53,4.39,0c.5-.19.6-.41.47-.62a3.82,3.82,0,0,0-1.94-.94,30.64,30.64,0,0,0-4,.06c-4.14,0-8.34-.42-12.57.42-1.61.33-.16,1.72.75,1.82a25.37,25.37,0,0,0,3-.29c1.11,0,3.86-.49,3.73,1.27a1.87,1.87,0,0,1-1.76,1.86,14.79,14.79,0,0,1-3,.18c-.42,0-3.33-.59-3,.46.18.54,1.65.65,2.13.72a13.71,13.71,0,0,0,3-.11c1.3-.08,2.33-.21,3.12-1.32.63-.9.94-2,1.52-2.88,1-1.5,1.84.6,2.16,1.52a4.25,4.25,0,0,0,1.38,2A3.65,3.65,0,0,0,27,20.8c.94.11,2.33.42,3.07-.31C31,19.52,30.08,19.45,29.16,19.43Z" transform="translate(-6.65)"/>
      <path class="cls-17" d="M33.43,14.78c-.58-.73-22.93-.73-23.61.06l-.07.07c0,.14.1,1.06.1,1.06s.17.22.71.22c.16.83.55,2.71,1.52,3.55,1.29,1.11,5.69.73,7,.16,1.57-.69,1.28-4,3.07-4,1.29,0,1.28,2.88,2.51,3.61s6.1,1,7.12,0c.74-.75.67-2.39.82-3.49a1.35,1.35,0,0,0,.86-.32,4.86,4.86,0,0,0,0-.84ZM19,19.13c-1.15.78-5.72.77-6.56.18s-1.26-2.92-.75-3.18,7.41-.76,8.18-.37S19.76,18.62,19,19.13Zm12,.06c-.81.54-5.17.48-6.26-.27-.7-.48-1.47-2.82-.79-3.14s7.33.2,7.81.46S31.87,18.66,31.05,19.19Z" transform="translate(-6.65)"/>
      <path class="cls-18" d="M24.67,15.78c-1,.28.66,1,1,1.09a13.12,13.12,0,0,0,4.09.38c.73,0,2.34-.49,1.95-.93C31.19,15.69,25.77,15.47,24.67,15.78Z" transform="translate(-6.65)"/>
      <path class="cls-19" d="M12.53,14.89l18.73,0A117.28,117.28,0,0,0,12.53,14.89Z" transform="translate(-6.65)"/>
      <path class="cls-20" d="M28.9,16.09c-.52,0-.87.12-.76.36.22.49,3.25.61,3.5.3S30,16.06,28.9,16.09Z" transform="translate(-6.65)"/>
      <path class="cls-21" d="M25.29,18.37c-.33,0-.55.05-.5.25.11.4,2,.68,2.15.44S26,18.41,25.29,18.37Z" transform="translate(-6.65)"/>
      <path class="cls-21" d="M13,18.72c-.32,0-.54,0-.49.24.1.4,2,.68,2.15.45S13.72,18.76,13,18.72Z" transform="translate(-6.65)"/>
      <path class="cls-18" d="M19.4,15.92c-1.17-.32-6.84-.25-7.37.32-.38.41,1.34.87,2.11.93a15,15,0,0,0,4.27-.25C18.78,16.84,20.46,16.21,19.4,15.92Z" transform="translate(-6.65)"/>
      <path class="cls-20" d="M16.92,15.8c-.51.07-.85.21-.72.44.27.46,3.29.3,3.51,0S18,15.66,16.92,15.8Z" transform="translate(-6.65)"/>
    </g>
  </g>
</svg>
