<svg xmlns="http://www.w3.org/2000/svg" xmlns:xlink="http://www.w3.org/1999/xlink" viewBox="0 0 40 40">
  <defs>
    <style>
      .cls-1 {
        isolation: isolate;
      }

      .cls-2 {
        fill: url(#linear-gradient);
      }

      .cls-11, .cls-3, .cls-4 {
        opacity: 0.25;
      }

      .cls-11, .cls-14, .cls-15, .cls-16, .cls-3, .cls-5, .cls-6, .cls-7 {
        mix-blend-mode: multiply;
      }

      .cls-3 {
        fill: url(#radial-gradient);
      }

      .cls-12, .cls-4 {
        fill: #fff;
      }

      .cls-5 {
        opacity: 0.35;
        fill: url(#linear-gradient-2);
      }

      .cls-15, .cls-16, .cls-6, .cls-7 {
        opacity: 0.5;
      }

      .cls-6 {
        fill: url(#radial-gradient-2);
      }

      .cls-7 {
        fill: url(#radial-gradient-3);
      }

      .cls-8 {
        fill: #5d4037;
      }

      .cls-9 {
        fill: #4e342e;
      }

      .cls-10, .cls-11 {
        fill: #d95957;
      }

      .cls-13 {
        fill: #f5f5f5;
      }

      .cls-14 {
        fill: #cfd8dc;
      }

      .cls-15 {
        fill: url(#linear-gradient-3);
      }

      .cls-16 {
        fill: url(#linear-gradient-4);
      }
    </style>
    <linearGradient id="linear-gradient" x1="20" y1="-0.67" x2="20" y2="40.75" gradientUnits="userSpaceOnUse">
      <stop offset="0" stop-color="#ffe082"/>
      <stop offset="1" stop-color="#ffbf66"/>
    </linearGradient>
    <radialGradient id="radial-gradient" cx="20" cy="20" r="20" gradientUnits="userSpaceOnUse">
      <stop offset="0.8" stop-color="#fff"/>
      <stop offset="1" stop-color="#ffbf66"/>
    </radialGradient>
    <linearGradient id="linear-gradient-2" x1="20" y1="17.63" x2="20" y2="40.41" xlink:href="#linear-gradient"/>
    <radialGradient id="radial-gradient-2" cx="30.46" cy="23.27" r="6.03" gradientUnits="userSpaceOnUse">
      <stop offset="0" stop-color="#ff7043"/>
      <stop offset="1" stop-color="#fff"/>
    </radialGradient>
    <radialGradient id="radial-gradient-3" cx="-323.54" cy="23.27" r="6.03" gradientTransform="matrix(-1, 0, 0, 1, -314, 0)" xlink:href="#radial-gradient-2"/>
    <linearGradient id="linear-gradient-3" x1="22.84" y1="9.16" x2="31.59" y2="9.16" xlink:href="#linear-gradient"/>
    <linearGradient id="linear-gradient-4" x1="408.54" y1="9.16" x2="417.28" y2="9.16" gradientTransform="matrix(-1, 0, 0, 1, 425.81, 0)" xlink:href="#linear-gradient"/>
  </defs>
  <title>1</title>
  <g class="cls-1">
    <g id="레이어_1" data-name="레이어 1">
      <g>
        <g>
          <circle class="cls-2" cx="20" cy="20" r="20"/>
          <circle class="cls-3" cx="20" cy="20" r="20"/>
          <path class="cls-4" d="M36.5,15.12c0,7.43-7.39,0-16.5,0s-16.5,7.43-16.5,0S10.89,1.67,20,1.67,36.5,7.69,36.5,15.12Z"/>
          <path class="cls-5" d="M20,36A20,20,0,0,1,.1,18,18.86,18.86,0,0,0,0,20a20,20,0,0,0,40,0,18.86,18.86,0,0,0-.1-2A20,20,0,0,1,20,36Z"/>
          <circle class="cls-6" cx="30.46" cy="23.41" r="6.35"/>
          <circle class="cls-7" cx="9.54" cy="23.41" r="6.35"/>
        </g>
        <g>
          <path class="cls-4" d="M20,34a12.46,12.46,0,0,1-3-.47,8.45,8.45,0,0,1-3.72-2.11c-.88-.88-2.23-2.55-1.53-3.78A1.23,1.23,0,0,1,12.83,27a2.45,2.45,0,0,1,1.09.33l.07,0a15.87,15.87,0,0,0,1.77.63,17,17,0,0,0,4.11.5h.26a17,17,0,0,0,4.11-.5,15.55,15.55,0,0,0,1.81-.65l0,0A2.45,2.45,0,0,1,27.17,27a1.23,1.23,0,0,1,1.11.67c.7,1.23-.65,2.9-1.53,3.78A8.45,8.45,0,0,1,23,33.55,12.46,12.46,0,0,1,20,34h0Z"/>
          <path class="cls-8" d="M27.7,28c-.34-.6-.95-.25-1.4,0a19.76,19.76,0,0,1-1.87.67,17.84,17.84,0,0,1-4.43.53,17.84,17.84,0,0,1-4.43-.53A19.76,19.76,0,0,1,13.7,28c-.45-.22-1.06-.57-1.4,0-.5.87.88,2.44,1.42,3a7.78,7.78,0,0,0,3.43,1.94,11.47,11.47,0,0,0,2.85.44,11.47,11.47,0,0,0,2.85-.44A7.78,7.78,0,0,0,26.28,31C26.82,30.43,28.2,28.86,27.7,28Z"/>
          <path class="cls-9" d="M13.7,29.29a19.82,19.82,0,0,0,1.87.68,17.83,17.83,0,0,0,4.43.52A17.83,17.83,0,0,0,24.43,30a19.82,19.82,0,0,0,1.87-.68c.41-.2.95-.5,1.3-.1a1.31,1.31,0,0,0,.1-1.2c-.34-.6-.95-.25-1.4,0a19.76,19.76,0,0,1-1.87.67,17.84,17.84,0,0,1-4.43.53,17.84,17.84,0,0,1-4.43-.53A19.76,19.76,0,0,1,13.7,28c-.45-.22-1.06-.57-1.4,0a1.31,1.31,0,0,0,.1,1.2C12.75,28.79,13.29,29.09,13.7,29.29Z"/>
          <path class="cls-10" d="M24.7,32.15A6.46,6.46,0,0,0,20,30.47a6.46,6.46,0,0,0-4.7,1.68,8.69,8.69,0,0,0,1.85.76,12.22,12.22,0,0,0,2.82.44H20a12.22,12.22,0,0,0,2.82-.44A8.69,8.69,0,0,0,24.7,32.15Z"/>
          <path class="cls-11" d="M22.85,32.24a11.23,11.23,0,0,1-2.82.44H20a11.23,11.23,0,0,1-2.82-.44,9.15,9.15,0,0,1-1.37-.52,4.06,4.06,0,0,0-.48.43,8.69,8.69,0,0,0,1.85.76,12.22,12.22,0,0,0,2.82.44H20a12.22,12.22,0,0,0,2.82-.44,8.69,8.69,0,0,0,1.85-.76,4.06,4.06,0,0,0-.48-.43A9.15,9.15,0,0,1,22.85,32.24Z"/>
        </g>
        <g>
          <path class="cls-4" d="M13,22.75a5.38,5.38,0,1,1,5.34-5.37A5.36,5.36,0,0,1,13,22.75Z"/>
          <path class="cls-8" d="M17.7,17.38A4.74,4.74,0,0,1,13,22.09a4.71,4.71,0,0,1,0-9.42A4.74,4.74,0,0,1,17.7,17.38Z"/>
          <path class="cls-9" d="M13,14a4.68,4.68,0,0,1,4.62,4.05,4.91,4.91,0,0,0,.05-.67,4.67,4.67,0,1,0-9.34,0,4.91,4.91,0,0,0,.05.67A4.68,4.68,0,0,1,13,14Z"/>
          <path class="cls-12" d="M17,17.38a4,4,0,1,1-4-4A4,4,0,0,1,17,17.38Z"/>
          <path class="cls-13" d="M13,20.74a3.36,3.36,0,1,1,3.33-3.36A3.35,3.35,0,0,1,13,20.74Z"/>
          <path class="cls-12" d="M16.79,16.8c0,1.7-1.69,0-3.76,0s-3.75,1.7-3.75,0A3.66,3.66,0,0,1,13,13.48,3.67,3.67,0,0,1,16.79,16.8Z"/>
          <path class="cls-8" d="M14.62,15.38a1.59,1.59,0,0,1-3.18,0A1.59,1.59,0,0,1,14.62,15.38Z"/>
          <path class="cls-14" d="M13,14a4,4,0,0,1,4,3.69c0-.11,0-.22,0-.33a4,4,0,1,0-8,0c0,.11,0,.22,0,.33A4,4,0,0,1,13,14Z"/>
        </g>
        <g>
          <path class="cls-4" d="M27,22.75a5.38,5.38,0,1,1,5.34-5.37A5.36,5.36,0,0,1,27,22.75Z"/>
          <path class="cls-8" d="M31.72,17.38A4.68,4.68,0,1,1,27,12.67,4.74,4.74,0,0,1,31.72,17.38Z"/>
          <path class="cls-9" d="M27,14a4.68,4.68,0,0,1,4.62,4.05,3.71,3.71,0,0,0,.06-.67,4.68,4.68,0,1,0-9.35,0,4.91,4.91,0,0,0,.05.67A4.69,4.69,0,0,1,27,14Z"/>
          <path class="cls-12" d="M31,17.38a4,4,0,1,1-4-4A4,4,0,0,1,31,17.38Z"/>
          <path class="cls-13" d="M27,20.74a3.36,3.36,0,1,1,3.34-3.36A3.35,3.35,0,0,1,27,20.74Z"/>
          <path class="cls-12" d="M30.8,16.8c0,1.7-1.68,0-3.76,0s-3.75,1.7-3.75,0a3.78,3.78,0,0,1,7.51,0Z"/>
          <path class="cls-8" d="M28.64,15.38a1.6,1.6,0,0,1-3.19,0A1.6,1.6,0,0,1,28.64,15.38Z"/>
          <path class="cls-14" d="M27,14a4,4,0,0,1,4,3.69c0-.11,0-.22,0-.33a4,4,0,1,0-8,0c0,.11,0,.22,0,.33A4,4,0,0,1,27,14Z"/>
        </g>
        <g>
          <g>
            <path class="cls-15" d="M24.42,7c2.67.72,5.73,1.72,7.17,4.3-1.6-1.52-3.95-1.9-6.07-1.88-.77,0-2,.27-2.49-.52A1.28,1.28,0,0,1,24.42,7C27.06,7.75,23.47,6.78,24.42,7Z"/>
            <path class="cls-8" d="M24.42,6.37c2.67.72,5.73,1.72,7.17,4.3C30,9.15,27.64,8.78,25.52,8.79c-.77,0-2,.27-2.49-.51a1.28,1.28,0,0,1,1.39-1.91C27.06,7.08,23.47,6.11,24.42,6.37Z"/>
          </g>
          <g>
            <path class="cls-16" d="M15.7,7C13,7.76,10,8.76,8.53,11.34c1.59-1.52,3.94-1.9,6.06-1.88.78,0,2,.27,2.49-.52A1.27,1.27,0,0,0,15.7,7C13.06,7.75,16.64,6.78,15.7,7Z"/>
            <path class="cls-8" d="M15.7,6.37C13,7.09,10,8.09,8.53,10.67c1.59-1.52,3.94-1.89,6.06-1.88.78,0,2,.27,2.49-.51A1.28,1.28,0,0,0,15.7,6.37C13.06,7.08,16.64,6.11,15.7,6.37Z"/>
          </g>
        </g>
      </g>
    </g>
  </g>
</svg>
