<svg id="레이어_1" data-name="레이어 1" xmlns="http://www.w3.org/2000/svg" xmlns:xlink="http://www.w3.org/1999/xlink" viewBox="0 0 29.9 40">
  <defs>
    <style>
      .cls-1 {
        fill: #1e1e29;
      }

      .cls-2 {
        fill: #f0f0f0;
      }

      .cls-3 {
        fill: #535361;
      }

      .cls-4 {
        opacity: 0.1;
      }

      .cls-5 {
        fill: #fbfbfb;
      }

      .cls-6 {
        fill: url(#linear-gradient);
      }

      .cls-7 {
        fill: #261b18;
      }

      .cls-8 {
        fill: #573d2f;
      }

      .cls-9 {
        fill: #ffc38f;
      }

      .cls-10 {
        fill: #bf3c1b;
      }

      .cls-10, .cls-11, .cls-21 {
        opacity: 0.3;
      }

      .cls-11 {
        fill: #b54d26;
      }

      .cls-12 {
        fill: #ff7752;
      }

      .cls-13 {
        fill: #1c5c57;
      }

      .cls-14 {
        fill: #6cd9d2;
      }

      .cls-14, .cls-23 {
        opacity: 0.7;
      }

      .cls-15 {
        fill: #e64e4e;
        opacity: 0.6;
      }

      .cls-16 {
        fill: #8f3935;
      }

      .cls-17 {
        fill: #fff7ea;
      }

      .cls-18 {
        fill: #ecdcc4;
      }

      .cls-19 {
        fill: #161110;
      }

      .cls-20 {
        fill: #f06799;
      }

      .cls-21, .cls-22, .cls-23 {
        fill: #fff;
      }

      .cls-24 {
        fill: #ffd1e2;
      }
    </style>
    <linearGradient id="linear-gradient" x1="20.61" y1="28.87" x2="20.61" y2="32.37" gradientUnits="userSpaceOnUse">
      <stop offset="0" stop-color="#ee996d"/>
      <stop offset="0.02" stop-color="#ee9a6e"/>
      <stop offset="0.37" stop-color="#f8b181"/>
      <stop offset="0.71" stop-color="#fdbf8d"/>
      <stop offset="1" stop-color="#ffc491"/>
    </linearGradient>
  </defs>
  <title>1</title>
  <g>
    <path class="cls-1" d="M15.38,33.09,13.91,30.9C11.74,32.1,11,35.52,11,40h2.53C13.19,36.79,13.94,34,15.38,33.09Z" transform="translate(-5.05)"/>
    <path class="cls-1" d="M26.74,30.9l-1.46,2.19c1.43.9,2.19,3.7,1.88,6.9H29.7C29.69,35.52,28.92,32.1,26.74,30.9Z" transform="translate(-5.05)"/>
    <g>
      <path class="cls-2" d="M24.82,29.76a9.4,9.4,0,0,0-8.73.23c-2.73,1.85-1.9,5-1.17,10H25.78C26.58,35.38,27.51,31.27,24.82,29.76Z" transform="translate(-5.05)"/>
      <g>
        <g>
          <polygon class="cls-1" points="12.27 40 12.27 39.99 9.74 39.99 12.27 40"/>
          <path class="cls-1" d="M16.51,29.92s-2.91.8-3.15,1.46.74,5,1.25,8.61h2.71A36.37,36.37,0,0,0,16.51,29.92Z" transform="translate(-5.05)"/>
        </g>
        <polygon class="cls-3" points="12.28 40 12.28 39.99 11.9 39.99 12.28 40"/>
        <path class="cls-3" d="M17.08,31.48c-.15-.41-2.72.59-2.67.95s1.65,4.82,2.42,7.56h.5A43.72,43.72,0,0,0,17.08,31.48Z" transform="translate(-5.05)"/>
        <path class="cls-3" d="M14.34,30.71c0,.3,2.86,1.81,2.85,1.51s-.08-3.54-.08-3.54A10.36,10.36,0,0,0,14.34,30.71Z" transform="translate(-5.05)"/>
      </g>
      <g>
        <g>
          <polygon class="cls-1" points="18.3 39.99 21.2 39.99 18.3 39.99 18.3 39.99"/>
          <path class="cls-1" d="M27.24,31.23a13,13,0,0,0-3-1.72A38.32,38.32,0,0,0,23.35,40h2.9C26.4,35.16,27.55,31.63,27.24,31.23Z" transform="translate(-5.05)"/>
        </g>
        <polygon class="cls-3" points="18.27 39.99 18.52 39.99 18.27 39.99 18.27 39.99"/>
        <path class="cls-3" d="M26.25,32.43c.05-.36-2.52-1.36-2.67-.95A43.41,43.41,0,0,0,23.32,40h.5C24.59,37.25,26.21,32.7,26.25,32.43Z" transform="translate(-5.05)"/>
        <path class="cls-3" d="M23.55,28.68s-.07,3.24-.08,3.54,2.89-1.21,2.85-1.51A10.55,10.55,0,0,0,23.55,28.68Z" transform="translate(-5.05)"/>
      </g>
      <path class="cls-4" d="M16.59,31.51A6.06,6.06,0,0,0,19,34.75l1.33-1.66,1.74,1.65A5.09,5.09,0,0,0,24.42,31C24.43,30,16.05,29.43,16.59,31.51Z" transform="translate(-5.05)"/>
      <path class="cls-5" d="M16.61,29c-1.49,2.28,2.26,5.17,2.26,5.17l1.46-1.32L22,34.27s3.39-2.14,2.19-5C23.09,26.7,18.1,26.74,16.61,29Z" transform="translate(-5.05)"/>
      <path class="cls-6" d="M19.43,26.32A2.84,2.84,0,0,0,17.84,29c-.08,1.54,1.56,3.59,2.71,3.63.85,0,4.51-2.84,1.94-5.63A3.27,3.27,0,0,0,19.43,26.32Z" transform="translate(-5.05)"/>
      <path class="cls-5" d="M20.31,35.27a.38.38,0,1,0,.38.38A.38.38,0,0,0,20.31,35.27Z" transform="translate(-5.05)"/>
      <path class="cls-5" d="M20.31,37.43a.38.38,0,1,0,.38.38A.38.38,0,0,0,20.31,37.43Z" transform="translate(-5.05)"/>
    </g>
    <g>
      <path class="cls-7" d="M7.25,1.61A6,6,0,0,0,6.37,10c1.91,2.45,5.66,2.69,8.37.54s3.36-5.87,1.44-8.31S10-.54,7.25,1.61Z" transform="translate(-5.05)"/>
      <path class="cls-8" d="M7.75,2.06c-1.31,1-2.17,3-1.34,4.41.7,1.21,1.24-.11,1.45-.93.6,1.23,1.2-.29,1.23-1.06.52.56,1.41-.49,1.51-1,1.08-.21,1.94-1.35,2.92-1.76C12.46.07,9.1,1,7.75,2.06Z" transform="translate(-5.05)"/>
      <path class="cls-7" d="M27.82,2.61C20.26-3,9.79,1.23,8.15,8.13A13.46,13.46,0,0,0,11,20.21c1.31,1.56,2.23,3.41,3.5,5s2.75-1,3.84-1.55a7.52,7.52,0,0,1,4.78-.87c1.43.25,2.4,1.8,3.87,1.87,1.92.1,2.55-3.11,3-4.47s.79-2.55,1.11-3.84C32.58,10.53,31.76,5.55,27.82,2.61Z" transform="translate(-5.05)"/>
      <path class="cls-9" d="M19.3,4c-5.3.88-9.23,8.38-8.46,15.54.57,5.37,5.42,10.92,10.21,11.09,5.11.17,10.16-8,9.53-14.63C29.9,8.84,26.71,2.78,19.3,4Z" transform="translate(-5.05)"/>
      <path class="cls-10" d="M26,5.33a23.61,23.61,0,0,0-6.35-1.19c-1.92-.09-4-.26-5.82.51a4.32,4.32,0,0,0-2.62,2.08,9.91,9.91,0,0,0-.15,4.47,12.29,12.29,0,0,0,1.3,4.45,19.41,19.41,0,0,1,.77-2.75,5.34,5.34,0,0,1,5-4.28,44.61,44.61,0,0,1,6,0c1,0,7,1.2,5.81-1.26C29.41,6.22,27.1,5.69,26,5.33Z" transform="translate(-5.05)"/>
      <path class="cls-9" d="M9.09,16.53c-2.61.64-1.54,4.75.55,5.57a2.2,2.2,0,0,0,1.94,0l0-.06c.32-.49,0-3.26-.17-3.79C11.09,16.93,10.34,16.22,9.09,16.53Z" transform="translate(-5.05)"/>
      <path class="cls-11" d="M10,18c-.57-.29-2,.16-1.39,1.32.39-1.05,1-.34.89.41-.08.5-.61.49-.1,1.16.28.36.87.24,1.18.06C11.48,20.34,10.65,18.3,10,18Z" transform="translate(-5.05)"/>
      <path class="cls-7" d="M23.65,2a17.88,17.88,0,0,0-5.41-.32c-3,.27-6.63,1.59-7.66,4.73-.64,1.94-.4,4.2-.31,6.2.06,1.21-.49,3.53.51,4.47,1.16,1.09,1.68-.49,1.83-1.63a20.73,20.73,0,0,1,.51-3.94c1-3,2.61-3.56,7-3.77C22.38,7.61,28,7.34,29,9.39c.38.77,3.73-1.35.86-4.75C28.61,3.16,25.47,2.39,23.65,2Z" transform="translate(-5.05)"/>
      <path class="cls-8" d="M16,1.33a9.44,9.44,0,0,0-3.83,2,9.17,9.17,0,0,0-1.94,2.3,5.38,5.38,0,0,0-.74,3.08c0,.73.61,2.28,1.73,1.9,0-.7-.11-1.46-.2-2.16.23.16,1.26.89,1.57.72s.16-1.19.22-1.49C14,9.08,14.7,7.07,14.64,6c.53.33.88.93,1.43,1.21.78.41,1.64,0,2.54-.14a27.59,27.59,0,0,1,3.52-.34c1.22,0,1.44.14,1.95-1a1.15,1.15,0,0,0,.45.87,1.25,1.25,0,0,0,.71-1.13c0,1.26,2.72,2.06,3.67,1.8,1.47-.41-.1-2.7-1-3.62C25,.57,20,.37,16,1.33Z" transform="translate(-5.05)"/>
    </g>
    <g>
      <path class="cls-12" d="M29.69,19.8a2.19,2.19,0,0,0-1.92-.58c-.81.05-1.86.43-1.08,1.56.41.6,3.64.82,3.19-.6A1,1,0,0,0,29.69,19.8Z" transform="translate(-5.05)"/>
      <path class="cls-12" d="M17.16,19.66a2.33,2.33,0,0,0-2-.47c-.8.1-2.2.81-1.08,1.66.81.62,3.82.52,3.27-.83A1.28,1.28,0,0,0,17.16,19.66Z" transform="translate(-5.05)"/>
      <path class="cls-13" d="M16.78,15.87c-1.87-.57-3.11,1.51-1.85,2.23a4.15,4.15,0,0,1,1.86.16A1.21,1.21,0,0,0,16.78,15.87Z" transform="translate(-5.05)"/>
      <path class="cls-11" d="M22.22,19.47c-.47,0-.89-.22-1.32,0s.11,1,1.36.9,1.56-.78,1.31-1S22.75,19.44,22.22,19.47Z" transform="translate(-5.05)"/>
      <path class="cls-14" d="M16.6,17c-.57.14-.16,1.1.4.77S17.12,16.85,16.6,17Z" transform="translate(-5.05)"/>
      <path class="cls-13" d="M28.78,15.76c-1.92-.31-2.88,1.91-1.53,2.46a4.19,4.19,0,0,1,1.86-.09A1.21,1.21,0,0,0,28.78,15.76Z" transform="translate(-5.05)"/>
      <path class="cls-14" d="M28.7,16.92c-.55.22,0,1.11.49.71C29.55,17.34,29.18,16.72,28.7,16.92Z" transform="translate(-5.05)"/>
      <g>
        <path class="cls-15" d="M27.76,22.5c-3.25-.65-8.37-.07-11.35-.08-.24,0-.44.07-.34.33.42,1.12,2,5.24,6.11,5.34,3.41.08,3.81-2.3,4-3.56.11-.61,1.06-1.33,1.79-1.77C28.23,22.62,28.05,22.56,27.76,22.5Z" transform="translate(-5.05)"/>
        <path class="cls-16" d="M16.53,22.83a5.41,5.41,0,0,0,5.2,3.37c3.59,0,4.1-1.18,4.31-2a2.39,2.39,0,0,1,1.29-1.49A26,26,0,0,1,16.53,22.83Z" transform="translate(-5.05)"/>
        <path class="cls-17" d="M17.81,23.2A1.67,1.67,0,0,0,19,24.74a9.39,9.39,0,0,0,5.13.27c1.23-.25,2-1.9,2-1.9A42.23,42.23,0,0,1,17.81,23.2Z" transform="translate(-5.05)"/>
        <path class="cls-17" d="M22.7,25a13.23,13.23,0,0,1-3.94-.51c-.65-.24-.68.08-.58.35,0,0,.14,1.14,3.24,1.39,2.7.22,4-1.19,3.7-1.49S24.4,25,22.7,25Z" transform="translate(-5.05)"/>
        <path class="cls-18" d="M17.81,23.19a1.47,1.47,0,0,0,.09.48s6.49-.41,7.89,0a2.82,2.82,0,0,0,.36-.61A49.56,49.56,0,0,1,17.81,23.19Z" transform="translate(-5.05)"/>
        <path class="cls-18" d="M19.11,24.5a9.14,9.14,0,0,0,5.64.18A14,14,0,0,1,19.11,24.5Z" transform="translate(-5.05)"/>
      </g>
      <path class="cls-19" d="M15.84,15.26c-1,.2-2.34,1.24-4,0,0,0,.51,2,3.84.88,1.35-.45,2.06,1,2.06,1S17.84,14.87,15.84,15.26Z" transform="translate(-5.05)"/>
      <path class="cls-19" d="M28.69,15.4c-1.84-.53-2,1.67-2,1.67a1.72,1.72,0,0,1,2.11-.75c2.94,1.2,3.65-.62,3.65-.62C30.77,16.77,29.64,15.67,28.69,15.4Z" transform="translate(-5.05)"/>
      <path class="cls-7" d="M28.24,12.39c-1.3.06-2.59.8-2.46,1.45s1.23-.06,2.51-.33a15.34,15.34,0,0,1,2.43-.11C30.6,12.9,29.43,12.33,28.24,12.39Z" transform="translate(-5.05)"/>
      <path class="cls-7" d="M16.3,12.3c-1.45-.18-3,.23-3.11.71,0,.31,1.17-.08,3.1.41,1.55.39,2.68,1.21,2.92.54S17.89,12.5,16.3,12.3Z" transform="translate(-5.05)"/>
    </g>
    <g>
      <path class="cls-11" d="M29.82,14a15,15,0,0,0-3.13.38A12.32,12.32,0,0,0,24,15a3.13,3.13,0,0,1-2,.53c-1.59-.12-2.89-1.17-4.47-1.39a18.75,18.75,0,0,0-3.73-.28c-.74,0-2.18.4-1.1,1.31.55.47,1.32.31,2,.36.43,0,.86,0,1.28.11,1.51.19,3.84.07,3.65,2a3.13,3.13,0,0,1-2.07,2.81,13.11,13.11,0,0,1-3.12.21,5.41,5.41,0,0,1-2.24-.56c-.2-.11-.79-.52-1-.25-.35.46.86,1.28,1.17,1.44a7.66,7.66,0,0,0,2.3.6c2,.28,4,.25,5.18-1.53.68-1,1.05-2.27,1.69-3.33,1-1.74,1.41.68,1.69,1.75A5.39,5.39,0,0,0,24,20.47,4,4,0,0,0,26.85,22a4.44,4.44,0,0,0,1.92-.19c.38-.14.54-.56.11-.74a3.47,3.47,0,0,0-1-.07,8.15,8.15,0,0,1-1.21-.14,3.75,3.75,0,0,1-1.44-.68,2.82,2.82,0,0,1-.73-.85,2.62,2.62,0,0,1-.08-2.24c.4-1,1.5-1,2.41-1.08,1.11-.06,2.23,0,3.33-.06.66,0,.9-.2,1.07-.9C31.49,14,30.6,14,29.82,14Z" transform="translate(-5.05)"/>
      <path class="cls-20" d="M11,13.33c-1.3,0-2.4-.4-2.72-.15s.25,1.52.25,1.52a2.19,2.19,0,0,0,1,.38c0,.91-.07,3.26,1.54,4.8C12.44,21.16,17,21.67,18.38,21a5.46,5.46,0,0,0,2.94-4C22.21,13.05,12.86,13.33,11,13.33ZM18.51,20c-1.76,1.05-6.14.38-7.23-1.08-.85-1.13-.92-3.42-.37-3.73,1.68-.94,7.86-.35,9.26.8C20.84,16.5,19.85,19.14,18.51,20Z" transform="translate(-5.05)"/>
      <path class="cls-20" d="M32.38,13.7C30.72,13.64,22.29,13.06,23,17a5.5,5.5,0,0,0,2.51,4.12c1.28.71,5.37.35,6.62-.89,1.51-1.49,1.47-3.84,1.55-4.74a2,2,0,0,0,.92-.35s.64-1.17.28-1.51S33.56,13.74,32.38,13.7ZM32,19.23c-1,1.42-5,1.95-6.57.84-1.17-.85-2-3.53-1.35-4.06,1.29-1.1,6.9-1.5,8.38-.5C32.91,15.84,32.76,18.13,32,19.23Z" transform="translate(-5.05)"/>
      <path class="cls-21" d="M25.14,15.69c-.93.37.72.91,1.08,1a12.37,12.37,0,0,0,4,0c.7-.11,2.22-.7,1.8-1.1C31.42,15,26.17,15.29,25.14,15.69Z" transform="translate(-5.05)"/>
      <path class="cls-22" d="M29.25,15.6c-.5.06-.83.19-.7.42.25.46,3.19.3,3.4,0S30.32,15.46,29.25,15.6Z" transform="translate(-5.05)"/>
      <path class="cls-23" d="M26,19.16c-.32,0-.53,0-.49.23.1.4,1.91.71,2.08.48S26.63,19.21,26,19.16Z" transform="translate(-5.05)"/>
      <path class="cls-23" d="M12.3,18.57c-.32-.06-.56,0-.54.18.05.4,1.91.93,2.12.73S13,18.71,12.3,18.57Z" transform="translate(-5.05)"/>
      <path class="cls-21" d="M19.49,15.69c-1.15-.46-6.91-1.09-7.52-.6-.44.35,1.25,1,2,1.17a15.89,15.89,0,0,0,4.36.28C18.74,16.5,20.53,16.1,19.49,15.69Z" transform="translate(-5.05)"/>
      <path class="cls-22" d="M17,15.26c-.53,0-.9.1-.79.34.21.48,3.3.7,3.56.39S18.12,15.26,17,15.26Z" transform="translate(-5.05)"/>
      <path class="cls-20" d="M24.14,14.68a5,5,0,0,1-4.07-.1c-1.25-.49.64.85.77,1.52s-.17,2.68.32,1.49,1.36-1.23,1.89-.11.59-1.83.83-2.09S25.36,14.16,24.14,14.68Z" transform="translate(-5.05)"/>
      <path class="cls-24" d="M11.62,13.74c3.51.3,6.31.49,8.41,1.39C18.68,13.94,16.3,13.61,11.62,13.74Z" transform="translate(-5.05)"/>
      <path class="cls-24" d="M32.07,14c-4.29,0-6.29,0-7.48,1C26.47,14.2,28.87,14.35,32.07,14Z" transform="translate(-5.05)"/>
    </g>
  </g>
</svg>
