<svg id="레이어_1" data-name="레이어 1" xmlns="http://www.w3.org/2000/svg" viewBox="0 0 21.04 40">
  <defs>
    <style>
      .cls-1 {
        fill: #576d64;
      }

      .cls-1, .cls-2 {
        fill-rule: evenodd;
      }
    </style>
  </defs>
  <title>1</title>
  <g>
    <polygon class="cls-1" points="20.1 14.39 11.01 0.73 1.39 14.02 6.65 13.79 6.76 38.98 14.49 39.27 15.01 14.86 15.01 13.52 20.1 14.39"/>
    <path class="cls-1" d="M21,2.44c-2.19,3.24-5,6.69-6.42,10.36-.16.41.47.73.74.4A41,41,0,0,0,18.4,8.31q1.68-2.73,3.44-5.41C22.17,2.39,21.35,2,21,2.44Z" transform="translate(-9.48 0)"/>
    <path class="cls-1" d="M22.66,4.8a62,62,0,0,1-3.85,7c-.61,1-1.22,2-1.75,3.07S16.25,17,15.69,18a.66.66,0,0,0-.27.64l0,.12c.08.46.69.5,1,.23a5.25,5.25,0,0,0,1-2.05,34.5,34.5,0,0,1,2.16-4.24A67.44,67.44,0,0,0,23.5,5.26C23.73,4.7,22.91,4.23,22.66,4.8Z" transform="translate(-9.48 0)"/>
    <path class="cls-1" d="M25.42,8.27,20,17c-1.37,2.21-3.32,4.52-4,7.06a.64.64,0,0,0,1.24.31c.65-2.74,2.88-5.39,4.32-7.78l4.67-7.8C26.61,8.2,25.75,7.73,25.42,8.27Z" transform="translate(-9.48 0)"/>
    <path class="cls-1" d="M27.38,11.52l-.82.9a2.53,2.53,0,0,0-.67,1,.41.41,0,0,0,.52.49,2.6,2.6,0,0,0,.9-.75l.81-.9C28.56,11.74,27.82,11,27.38,11.52Z" transform="translate(-9.48 0)"/>
    <path class="cls-1" d="M23.71,17.24c-2.63,4-5.37,8-7.87,12-.42.67.62,1.21,1.05.58,2.69-4,5.17-8.07,7.73-12.11C25,17.17,24.08,16.69,23.71,17.24Z" transform="translate(-9.48 0)"/>
    <path class="cls-1" d="M23.6,23.45a64.78,64.78,0,0,0-8.24,11.63.59.59,0,0,0,1,.57,76.82,76.82,0,0,1,7.92-11.51C24.74,23.65,24,23,23.6,23.45Z" transform="translate(-9.48 0)"/>
    <path class="cls-1" d="M23.65,28.93c-2,3.15-4.57,6.09-6.38,9.35a.58.58,0,0,0,.93.68c2.58-2.7,4.5-6.31,6.42-9.48C25,28.86,24,28.33,23.65,28.93Z" transform="translate(-9.48 0)"/>
    <path class="cls-1" d="M23.36,35.3,22,37a5.37,5.37,0,0,0-1.16,1.65c-.13.43.38.72.73.53a5.55,5.55,0,0,0,1.34-1.47l1.32-1.63C24.66,35.52,23.83,34.73,23.36,35.3Z" transform="translate(-9.48 0)"/>
    <path class="cls-2" d="M30.4,14C27.26,9.45,24.09,4.9,20.93.35a.76.76,0,0,0-1.3,0,94.62,94.62,0,0,1-10,13.33.72.72,0,0,0,.54,1.21,33.06,33.06,0,0,0,5.15-.71c0,8.21-.08,16.43-.07,24.64a.67.67,0,0,0,.68.65l4.82.28c.89,0,2.51.51,3.32-.06.59-.43.5-1.22.52-1.85,0-1.63,0-3.26,0-4.89l.12-18.64c1.6.27,3.2.53,4.8.81.6.11,1.23-.55.83-1.13Zm-7,24.18c-.28.66-.61.43-1.4.37l-1.8-.12-3.53-.24c.07-8.29.08-16.59.12-24.89a.7.7,0,0,0-.89-.66,31.39,31.39,0,0,1-3.95.69A94.08,94.08,0,0,0,20.31,2.1q3.89,5.64,7.8,11.27l-3.81-.64A.79.79,0,0,0,23.58,14a0,0,0,0,0,0,0q-.08,8.1-.16,16.2c0,1.33,0,2.65,0,4,0,.61,0,1.22,0,1.84A7.23,7.23,0,0,1,23.35,38.2Z" transform="translate(-9.48 0)"/>
  </g>
</svg>
