<svg id="레이어_1" data-name="레이어 1" xmlns="http://www.w3.org/2000/svg" viewBox="0 0 39.9 25">
  <defs>
    <style>
      .cls-1, .cls-4 {
        fill: #576d64;
      }

      .cls-2, .cls-3 {
        fill: #aedff4;
      }

      .cls-3, .cls-4, .cls-5 {
        fill-rule: evenodd;
      }
    </style>
  </defs>
  <title>1</title>
  <rect class="cls-1" x="3.96" y="0.72" width="31" height="19.95"/>
  <rect class="cls-2" x="6.34" y="2.81" width="26.04" height="15.2"/>
  <rect class="cls-1" x="0.74" y="20.99" width="38.74" height="3.43"/>
  <path class="cls-3" d="M7.64,9.47l-.79,1.4a5.9,5.9,0,0,0-.68,1.35.41.41,0,0,0,.68.38,5.88,5.88,0,0,0,.79-1.29l.77-1.42A.44.44,0,0,0,7.64,9.47Z" transform="translate(-0.1 -6.46)"/>
  <path class="cls-3" d="M9.58,9.66l-1.84,3A13.45,13.45,0,0,0,6.2,15.36c-.13.38.39.62.65.36a12.66,12.66,0,0,0,1.73-2.64c.61-1,1.2-2,1.8-3,.31-.51-.49-.94-.8-.44Z" transform="translate(-0.1 -6.46)"/>
  <path class="cls-3" d="M11.9,9.54,9,14.13a32.64,32.64,0,0,0-2.82,4.66c-.15.36.29.77.6.43A29.87,29.87,0,0,0,9.59,14.9L12.67,10C13,9.48,12.2,9.07,11.9,9.54Z" transform="translate(-0.1 -6.46)"/>
  <path class="cls-3" d="M14,9.69c-2.59,4-5.73,8.09-7.8,12.43-.18.38.34.82.63.46,3-3.77,5.35-8.37,7.89-12.49C15,9.63,14.32,9.24,14,9.69Z" transform="translate(-0.1 -6.46)"/>
  <path class="cls-3" d="M16.06,9.57C13.2,14.49,9.75,19.13,7,24.1c-.23.41.37.9.68.51C11.23,20.19,14,14.87,16.76,10A.4.4,0,0,0,16.06,9.57Z" transform="translate(-0.1 -6.46)"/>
  <path class="cls-3" d="M18.16,9.54c-2.94,5-6.39,9.68-9.24,14.69-.23.41.37.88.68.5,3.57-4.51,6.41-9.82,9.24-14.81A.39.39,0,0,0,18.16,9.54Z" transform="translate(-0.1 -6.46)"/>
  <path class="cls-3" d="M20.46,9.67c-2.83,5-6.23,9.56-9.4,14.36-.25.39.36.84.66.48C15.44,20.2,18.39,15,21.11,10A.37.37,0,0,0,20.46,9.67Z" transform="translate(-0.1 -6.46)"/>
  <path class="cls-3" d="M22.47,9.46c-2.6,5.1-5.88,9.62-8.92,14.44a.44.44,0,0,0,.7.5c3.67-4.24,6.45-9.55,8.88-14.58C23.34,9.39,22.69,9,22.47,9.46Z" transform="translate(-0.1 -6.46)"/>
  <path class="cls-3" d="M24.44,9.81c-2.87,4.78-5.94,9.5-8.6,14.4a.41.41,0,0,0,.72.41c3-4.69,5.71-9.63,8.55-14.44C25.36,9.75,24.69,9.39,24.44,9.81Z" transform="translate(-0.1 -6.46)"/>
  <path class="cls-3" d="M26.26,9.69c-2.54,5-5.68,9.62-8.27,14.56-.2.39.36.85.65.48C22,20.31,24.49,15,26.93,10.06,27.14,9.62,26.49,9.25,26.26,9.69Z" transform="translate(-0.1 -6.46)"/>
  <path class="cls-3" d="M28.3,9.78c-1.18,2.47-2.42,4.91-3.72,7.3s-3,4.67-4,7.13c-.15.34.29.75.56.41a43.27,43.27,0,0,0,4-6.8c1.35-2.52,2.62-5.09,3.83-7.69C29.13,9.71,28.5,9.36,28.3,9.78Z" transform="translate(-0.1 -6.46)"/>
  <path class="cls-3" d="M30.25,9.68l-4.12,7.43A46.14,46.14,0,0,0,22.52,24a.37.37,0,0,0,.63.35A46.47,46.47,0,0,0,27,17.58l4-7.48A.43.43,0,0,0,30.25,9.68Z" transform="translate(-0.1 -6.46)"/>
  <path class="cls-3" d="M32,10c-2.44,4.6-5.25,9.17-7.27,14a.43.43,0,0,0,.75.41c2.75-4.41,4.86-9.35,7.21-14C32.93,9.9,32.24,9.52,32,10Z" transform="translate(-0.1 -6.46)"/>
  <path class="cls-3" d="M31.71,14.08c-1.7,3.39-3.8,6.72-5.24,10.22a.4.4,0,0,0,.69.39c2.11-3.12,3.62-6.84,5.24-10.23C32.62,14,31.94,13.62,31.71,14.08Z" transform="translate(-0.1 -6.46)"/>
  <path class="cls-3" d="M31.73,17.9l-1.92,3.41a18.3,18.3,0,0,0-1.62,3.14.4.4,0,0,0,.67.37,17.85,17.85,0,0,0,1.74-3.07l1.83-3.47A.4.4,0,0,0,31.73,17.9Z" transform="translate(-0.1 -6.46)"/>
  <path class="cls-3" d="M31.69,21.88l-.88,1.39a2.89,2.89,0,0,0-.64,1.3.37.37,0,0,0,.56.3,2.91,2.91,0,0,0,.86-1.17l.85-1.4C32.72,21.82,32,21.42,31.69,21.88Z" transform="translate(-0.1 -6.46)"/>
  <path class="cls-4" d="M5.29,7.6a11.61,11.61,0,0,0-1.2,1.89.3.3,0,0,0,.48.35A12.77,12.77,0,0,0,5.9,7.93C6.15,7.56,5.54,7.22,5.29,7.6Z" transform="translate(-0.1 -6.46)"/>
  <path class="cls-4" d="M9.33,7.3l-.7.86A5.39,5.39,0,0,0,8,9a.31.31,0,0,0,.49.36,5.14,5.14,0,0,0,.68-.8l.66-.82C10.08,7.43,9.6,7,9.33,7.3Z" transform="translate(-0.1 -6.46)"/>
  <path class="cls-4" d="M10.85,7.46l-.5.7a1.6,1.6,0,0,0-.41.71.28.28,0,0,0,.41.31c.26-.12.41-.42.57-.65l.54-.74C11.72,7.43,11.11,7.1,10.85,7.46Z" transform="translate(-0.1 -6.46)"/>
  <path class="cls-4" d="M12.81,7.35l-.55.72a2.05,2.05,0,0,0-.49.72.32.32,0,0,0,.48.35,1.93,1.93,0,0,0,.56-.61l.53-.67C13.62,7.49,13.1,7,12.81,7.35Z" transform="translate(-0.1 -6.46)"/>
  <path class="cls-4" d="M14.44,7.35a15,15,0,0,0-1,1.35c-.2.34.28.68.56.41a15.36,15.36,0,0,0,1-1.26C15.25,7.49,14.73,7,14.44,7.35Z" transform="translate(-0.1 -6.46)"/>
  <path class="cls-4" d="M16.58,7.22a19.27,19.27,0,0,0-1.2,1.65.34.34,0,0,0,.55.4,19.82,19.82,0,0,0,1.21-1.64C17.37,7.32,16.82,6.91,16.58,7.22Z" transform="translate(-0.1 -6.46)"/>
  <path class="cls-4" d="M18.22,7.15l-.46.62a3.08,3.08,0,0,0-.42.64.31.31,0,0,0,.5.36,3.46,3.46,0,0,0,.47-.6l.45-.63C19,7.24,18.44,6.84,18.22,7.15Z" transform="translate(-0.1 -6.46)"/>
  <path class="cls-4" d="M19.57,7.37c-.15.23-.31.44-.46.66a2.9,2.9,0,0,0-.4.68c-.1.31.3.44.5.27a2.68,2.68,0,0,0,.49-.62l.45-.67C20.39,7.34,19.81,7,19.57,7.37Z" transform="translate(-0.1 -6.46)"/>
  <path class="cls-4" d="M21,7.28l-.53.84A3.81,3.81,0,0,0,20,9c-.09.33.33.5.55.3a3.94,3.94,0,0,0,.54-.79c.17-.28.34-.56.52-.84S21.27,6.9,21,7.28Z" transform="translate(-0.1 -6.46)"/>
  <path class="cls-4" d="M22.33,7.51,22,8.08a1.19,1.19,0,0,0-.25.63.31.31,0,0,0,.48.26,1.18,1.18,0,0,0,.44-.52L23,7.88C23.26,7.46,22.59,7.09,22.33,7.51Z" transform="translate(-0.1 -6.46)"/>
  <path class="cls-4" d="M24.23,7.21c-.29.52-.61,1-.86,1.56a.34.34,0,0,0,.6.33c.33-.49.6-1,.88-1.54A.36.36,0,0,0,24.23,7.21Z" transform="translate(-0.1 -6.46)"/>
  <path class="cls-4" d="M26,7.36c-.2.27-.39.55-.58.82S25,8.7,25,9a.3.3,0,0,0,.37.27c.32-.07.48-.45.65-.7l.61-.88C26.9,7.32,26.27,7,26,7.36Z" transform="translate(-0.1 -6.46)"/>
  <path class="cls-4" d="M27.78,7.6A2.79,2.79,0,0,0,27,8.86a.33.33,0,0,0,.55.31,3.53,3.53,0,0,0,.38-.57,5.17,5.17,0,0,1,.42-.51C28.62,7.76,28.1,7.27,27.78,7.6Z" transform="translate(-0.1 -6.46)"/>
  <path class="cls-4" d="M29.68,7.52c-.18.28-.35.56-.52.84s-.37.49-.3.82a.3.3,0,0,0,.36.2c.31-.09.43-.41.59-.66l.51-.84C30.57,7.47,29.93,7.12,29.68,7.52Z" transform="translate(-0.1 -6.46)"/>
  <path class="cls-4" d="M31.4,7.68c-.14.24-.29.47-.44.71a1.62,1.62,0,0,0-.32.72.29.29,0,0,0,.44.24,1.61,1.61,0,0,0,.49-.63L32,8C32.22,7.63,31.63,7.31,31.4,7.68Z" transform="translate(-0.1 -6.46)"/>
  <path class="cls-4" d="M33.35,7.63a5.23,5.23,0,0,0-.64.77,1.74,1.74,0,0,0-.42.86c0,.27.32.34.49.19a3.43,3.43,0,0,0,.45-.71,4.63,4.63,0,0,1,.55-.69A.3.3,0,0,0,33.35,7.63Z" transform="translate(-0.1 -6.46)"/>
  <path class="cls-4" d="M34.56,7.92a28.69,28.69,0,0,0-2.06,2.73.35.35,0,0,0,.56.41,29,29,0,0,0,2-2.66C35.33,8,34.84,7.56,34.56,7.92Z" transform="translate(-0.1 -6.46)"/>
  <path class="cls-4" d="M34.64,10.17a12.19,12.19,0,0,0-2.39,3.45c-.11.29.34.52.54.29a18.11,18.11,0,0,0,1-1.55q.61-.88,1.32-1.71C35.43,10.32,34.94,9.84,34.64,10.17Z" transform="translate(-0.1 -6.46)"/>
  <path class="cls-4" d="M34.34,12.65c-.39.54-.77,1.08-1.13,1.63a7.54,7.54,0,0,0-.91,1.58.34.34,0,0,0,.57.32,10.38,10.38,0,0,0,1-1.53c.36-.56.73-1.1,1.11-1.63S34.62,12.27,34.34,12.65Z" transform="translate(-0.1 -6.46)"/>
  <path class="cls-4" d="M34.08,15.68a10.23,10.23,0,0,0-1.82,2.85.32.32,0,0,0,.54.29,8,8,0,0,0,.84-1.22c.31-.48.64-.94,1-1.39S34.37,15.3,34.08,15.68Z" transform="translate(-0.1 -6.46)"/>
  <path class="cls-4" d="M34.05,18l-1,1.49A4.92,4.92,0,0,0,32.23,21c0,.2.2.42.38.28a4.74,4.74,0,0,0,1-1.28l1-1.59c.23-.36-.35-.68-.59-.32Z" transform="translate(-0.1 -6.46)"/>
  <path class="cls-4" d="M34.35,20.17a10,10,0,0,0-2.09,2.7.34.34,0,0,0,.59.33,16.53,16.53,0,0,1,2-2.59C35.11,20.32,34.65,19.88,34.35,20.17Z" transform="translate(-0.1 -6.46)"/>
  <path class="cls-4" d="M34.45,22.21c-1.55,1.67-3.1,3.35-4.63,5-.7.76-1.41,1.52-2.1,2.29-.28.31-.63.56-.61,1a.4.4,0,0,0,.59.31l.08,0a.32.32,0,0,0,.15-.37l0-.07a.35.35,0,0,0-.18-.18l.56-.11.42-.46c.3-.27.55-.63.83-.93l1.86-2.09,3.5-4C35.15,22.34,34.71,21.92,34.45,22.21Z" transform="translate(-0.1 -6.46)"/>
  <path class="cls-4" d="M34.68,24c-1.89,2.13-3.83,4.25-5.58,6.5-.25.32.19.77.47.45,1.9-2.14,3.66-4.39,5.51-6.56C35.32,24.12,34.92,23.73,34.68,24Z" transform="translate(-0.1 -6.46)"/>
  <path class="cls-4" d="M34.66,26.08c-1.18,1.39-2.54,2.69-3.61,4.16-.24.34.29.66.56.41a37.48,37.48,0,0,0,3.53-4.11C35.4,26.21,34.93,25.76,34.66,26.08Z" transform="translate(-0.1 -6.46)"/>
  <path class="cls-4" d="M35.87,27.07l-1.8,2.21c-.28.35-1.09,1-.93,1.5a.36.36,0,0,0,.44.23l0,0a.32.32,0,0,0,.18-.46c.17.24.54-.42.63-.54l.65-.81,1.29-1.63C36.65,27.2,36.16,26.72,35.87,27.07Z" transform="translate(-0.1 -6.46)"/>
  <path class="cls-4" d="M37.61,27.16c-.4.53-.81,1.06-1.23,1.56a18.12,18.12,0,0,0-1.22,1.41c-.17.27.21.64.46.44a13.58,13.58,0,0,0,2.53-3C38.37,27.25,37.84,26.85,37.61,27.16Z" transform="translate(-0.1 -6.46)"/>
  <path class="cls-4" d="M39,27.56c-.69.93-1.45,1.82-2.16,2.74-.25.32.18.77.47.45a31.9,31.9,0,0,0,2.21-2.82C39.74,27.64,39.23,27.27,39,27.56Z" transform="translate(-0.1 -6.46)"/>
  <path class="cls-4" d="M30.27,24.65c-1.84,1.88-3.63,3.81-5.35,5.8-.27.31.2.75.47.44q2.53-3,5.26-5.88C30.88,24.77,30.5,24.41,30.27,24.65Z" transform="translate(-0.1 -6.46)"/>
  <path class="cls-4" d="M27.84,24.63q-1.48,1.55-2.93,3.13a22.41,22.41,0,0,0-2.52,3c-.2.32.25.6.5.37a32.36,32.36,0,0,0,2.68-3c.89-1,1.8-2,2.72-3A.31.31,0,0,0,27.84,24.63Z" transform="translate(-0.1 -6.46)"/>
  <path class="cls-4" d="M20.42,24.77c-1,1-1.89,2-2.82,3.07a21.28,21.28,0,0,0-2.46,2.91c-.21.33.25.6.51.37a29.27,29.27,0,0,0,2.61-2.95c.87-1,1.74-2,2.63-3C21.16,24.91,20.7,24.47,20.42,24.77Z" transform="translate(-0.1 -6.46)"/>
  <path class="cls-4" d="M18.09,24.92l-2.64,3a16.79,16.79,0,0,0-2.36,2.77.29.29,0,0,0,.4.38A15.21,15.21,0,0,0,16,28.43c.87-1,1.73-2,2.59-3.05C18.86,25.05,18.37,24.59,18.09,24.92Z" transform="translate(-0.1 -6.46)"/>
  <path class="cls-4" d="M10.65,24.82l-2.21,3a14.67,14.67,0,0,0-1.91,2.79A.31.31,0,0,0,7,31a14.24,14.24,0,0,0,2-2.7l2.15-3.05C11.43,24.91,10.88,24.5,10.65,24.82Z" transform="translate(-0.1 -6.46)"/>
  <path class="cls-4" d="M8.21,25a64.63,64.63,0,0,0-4,5.58.36.36,0,0,0,.58.42,66.88,66.88,0,0,0,4.07-5.65C9.11,25,8.48,24.62,8.21,25Z" transform="translate(-0.1 -6.46)"/>
  <path class="cls-4" d="M2.25,27.24c-.34.39-.67.77-1,1.17a6,6,0,0,0-.85,1.16A.33.33,0,0,0,.93,30a9.76,9.76,0,0,0,.88-1.13c.3-.38.61-.75.92-1.11S2.54,26.92,2.25,27.24Z" transform="translate(-0.1 -6.46)"/>
  <path class="cls-4" d="M5.55,22.8q-.4.59-.87,1.14a3.8,3.8,0,0,0-.76,1,.3.3,0,0,0,.38.36,3,3,0,0,0,1-1,14.38,14.38,0,0,0,.86-1.19C6.39,22.76,5.79,22.44,5.55,22.8Z" transform="translate(-0.1 -6.46)"/>
  <path class="cls-4" d="M5.52,20.31c-.33.4-.63.81-.94,1.22a3.7,3.7,0,0,0-.78,1.3.27.27,0,0,0,.41.29A3.57,3.57,0,0,0,5,22.07c.31-.44.63-.87,1-1.3S5.79,20,5.52,20.31Z" transform="translate(-0.1 -6.46)"/>
  <path class="cls-4" d="M5.42,17.63c-.27.4-.55.79-.86,1.18a7.35,7.35,0,0,0-.81,1c-.14.28.19.65.47.44a4.44,4.44,0,0,0,1-1.1c.3-.39.59-.79.86-1.21S5.68,17.25,5.42,17.63Z" transform="translate(-0.1 -6.46)"/>
  <path class="cls-4" d="M5.31,15.32c-.26.37-.53.75-.81,1.11a5,5,0,0,0-.73,1c-.11.27.15.61.44.42a3.8,3.8,0,0,0,.9-1.05c.28-.38.54-.76.8-1.15S5.56,15,5.31,15.32Z" transform="translate(-0.1 -6.46)"/>
  <path class="cls-4" d="M5.36,12.73c-.23.36-.48.71-.74,1a3.47,3.47,0,0,0-.63.93c-.08.28.24.43.45.33a2.56,2.56,0,0,0,.86-.9c.25-.34.49-.69.71-1.05S5.61,12.33,5.36,12.73Z" transform="translate(-0.1 -6.46)"/>
  <path class="cls-5" d="M23.82,31.19q5.78,0,11.53.18l2.78.08c.55,0,1.17.07,1.57-.4A1.94,1.94,0,0,0,40,29.66h0c-.05-.88-.18-1.76-.28-2.64a.5.5,0,0,0-.5-.48l-3.68.09a.43.43,0,0,0,.07-.32,106.83,106.83,0,0,1-.06-13.39c.07-1.11.16-2.23.26-3.33.06-.7.27-1.5-.21-2.1a2,2,0,0,0-1.44-.61c-1-.11-2-.08-3-.11-9-.27-18-.53-27,0a.52.52,0,0,0-.5.53c0,6.44,0,12.89,0,19.34a.41.41,0,0,0,.05.19l-2.6,0a.44.44,0,0,0-.76.28C.24,28.37.17,29.66.1,30.94a.45.45,0,0,0,.45.44M33,9.46q-.13,6.91-.28,13.83c0,.55.17,1.47-.27,1.9s-1,.15-1.49.09a38.71,38.71,0,0,0-6.28-.12c-4.09.1-8.19.2-12.28.18L9.2,25.29a13.31,13.31,0,0,1-2.68-.11c-1.41-.36-.88-2.69-.88-3.74q0-6.09,0-12.18a.54.54,0,0,1,.8-.46c4.29-.12,8.57-.11,12.86-.15A116.3,116.3,0,0,1,32.45,9a.52.52,0,0,1,.53.5ZM31.74,20.17c0,.84,0,1.68,0,2.51a5.3,5.3,0,0,1,0,1.26c-.18.52-.57.33-1.09.27a39.32,39.32,0,0,0-5.09-.1c-3.6.09-7.21.19-10.81.2-1.76,0-3.53,0-5.29,0-.56,0-2.27.21-2.63-.21S6.67,22,6.67,21.41c0-3.88,0-7.77,0-11.65,4.2,0,8.41,0,12.61-.08a124.48,124.48,0,0,1,12.67.26q-.09,5.12-.2,10.23Zm3.44,8.24c.51.06.39.9-.1.89-4.56-.11-9-.32-13.61-.06-.56,0-.58-.83,0-.87a70,70,0,0,1,13.73,0ZM4.52,26.61c.07-6.28.09-12.55.15-18.82,8,0,16-.17,23.94,0q1.59,0,3.18.09c.69,0,2.74-.27,3,.59a4.07,4.07,0,0,1-.1,1.1c-.05.56-.1,1.11-.14,1.67-.08,1-.14,2-.18,2.92a104.41,104.41,0,0,0,.12,12.13.54.54,0,0,0,.12.32q-15.06.3-30.14.18a.43.43,0,0,0,.06-.22Zm34,3.87a4.69,4.69,0,0,1-1.49,0q-2.57-.07-5.13-.12-5.22-.11-10.46-.12-10.23,0-20.45.28c.05-.9.09-1.8.13-2.69Q20,28,38.79,27.53L39,29.31C39,29.77,39.06,30.25,38.53,30.48Z" transform="translate(-0.1 -6.46)"/>
</svg>
