<svg id="레이어_1" data-name="레이어 1" xmlns="http://www.w3.org/2000/svg" viewBox="0 0 30.83 40">
  <defs>
    <style>
      .cls-1 {
        fill: #2b2722;
      }

      .cls-1, .cls-2, .cls-3, .cls-4, .cls-5 {
        fill-rule: evenodd;
      }

      .cls-2 {
        fill: #e3ca95;
      }

      .cls-3 {
        fill: #576d64;
      }

      .cls-4 {
        fill: #ec331e;
      }
    </style>
  </defs>
  <title>1</title>
  <g>
    <polygon class="cls-1" points="7.72 13 9.17 11.29 10.19 7.54 10.78 6.06 12.73 6.67 14.87 7.91 16.7 7.75 18.91 6.89 20.79 6.2 21.95 7.79 22.26 9.53 22.48 11.55 23.2 12.74 23.72 7.28 22.74 3.76 20.08 1.48 16.33 0.42 12.45 0.95 9.17 2.33 7.72 4.87 7.72 8.71 7.72 13"/>
    <polygon class="cls-2" points="12.62 21.52 11.69 24.46 14.03 28.07 17.8 27.77 19.41 25.05 18.49 22.04 19.84 20.91 22.37 17.05 23.2 12.74 22.48 10.78 21.95 7.79 20.5 6.54 19.58 6.4 17.82 7.18 15.98 7.82 13.85 7.54 11.61 6.67 10.16 6.06 9.17 9.66 7.88 12.5 8.7 16.1 9.85 18.69 11.42 21.01 12.62 21.52"/>
    <polygon class="cls-3" points="8.86 25.68 5.47 27.34 2.1 29.4 0.82 32.8 0.35 36.87 1.95 39.02 9.26 39.15 15.41 39.27 12.24 34.92 10.71 32.27 9.49 29.07 8.86 25.68"/>
    <polygon class="cls-4" points="14.03 28.07 14.87 30.76 14.03 37.23 15.37 38.7 17.16 36.38 16.33 30.42 17.57 27.9 14.87 27.77 14.03 28.07"/>
    <polygon class="cls-3" points="22.06 25.87 25.55 27.07 28.82 28.65 30.01 32.54 30.01 36.87 28.41 39.02 21.1 39.15 14.96 39.27 18.12 34.92 19.65 32.27 20.87 29.07 22.06 25.87"/>
    <path class="cls-2" d="M16.47,6.38a31.41,31.41,0,0,0-3.38,5.78.4.4,0,0,0,.67.37,20.34,20.34,0,0,0,1.62-2.74c.57-1,1.16-2,1.75-3C17.38,6.32,16.73,6,16.47,6.38Z" transform="translate(-4.65 0)"/>
    <path class="cls-2" d="M17.47,7.1a43,43,0,0,1-2,4A40.69,40.69,0,0,0,13.14,15a.38.38,0,0,0,.6.44c2.11-1.92,3.38-5.3,4.42-7.9C18.35,7,17.67,6.63,17.47,7.1Z" transform="translate(-4.65 0)"/>
    <path class="cls-2" d="M18.73,8c-1.64,3-3.64,6.07-4.88,9.29-.18.48.54.67.78.31,1.93-2.8,3.29-6.17,4.83-9.19A.42.42,0,0,0,18.73,8Z" transform="translate(-4.65 0)"/>
    <path class="cls-2" d="M20.28,8c-1.83,3.64-3.74,7.25-5.42,11-.24.53.53,1,.8.44,1.89-3.61,3.55-7.35,5.28-11C21.14,7.92,20.5,7.55,20.28,8Z" transform="translate(-4.65 0)"/>
    <path class="cls-2" d="M21.88,7.43a127.65,127.65,0,0,1-6,13,.48.48,0,0,0,.84.47A78.9,78.9,0,0,0,22.56,7.6C22.71,7.16,22,7,21.88,7.43Z" transform="translate(-4.65 0)"/>
    <path class="cls-2" d="M23.42,6.84c-1.91,4.82-4.05,9.53-6.17,14.26-.24.54.54,1,.81.45A128.41,128.41,0,0,0,24,7.08C24.16,6.73,23.56,6.49,23.42,6.84Z" transform="translate(-4.65 0)"/>
    <path class="cls-2" d="M24.92,6.79C23.05,11.94,21,17,18.73,22c-.26.56.57,1,.83.47a139.57,139.57,0,0,0,6-15.5C25.74,6.53,25.07,6.37,24.92,6.79Z" transform="translate(-4.65 0)"/>
    <path class="cls-2" d="M17.11,22.22a7.83,7.83,0,0,0-.73,1.65.33.33,0,0,0,.6.24,8.56,8.56,0,0,0,.71-1.57C17.86,22.16,17.29,21.83,17.11,22.22Z" transform="translate(-4.65 0)"/>
    <path class="cls-2" d="M18.46,23.08l-.84,1.53a5.46,5.46,0,0,0-.72,1.45.37.37,0,0,0,.62.35A5.33,5.33,0,0,0,18.33,25l.8-1.55A.38.38,0,0,0,18.46,23.08Z" transform="translate(-4.65 0)"/>
    <path class="cls-2" d="M25.92,8.25q-3.62,9.36-8,18.4c-.26.53.55,1,.81.45A201,201,0,0,0,26.56,8.41C26.7,8,26.07,7.87,25.92,8.25Z" transform="translate(-4.65 0)"/>
    <path class="cls-2" d="M26.43,10.32a161.86,161.86,0,0,1-7.36,16.61c-.27.54.56,1,.83.46a138.16,138.16,0,0,0,7.21-16.9C27.26,10.06,26.59,9.91,26.43,10.32Z" transform="translate(-4.65 0)"/>
    <path class="cls-2" d="M27,12.49a37.68,37.68,0,0,0-1.46,3.88c-.48,1.42-1.23,2.78-1.64,4.21a.34.34,0,0,0,.58.32c1.88-2,2.15-5.55,3.2-8C27.87,12.42,27.22,12,27,12.49Z" transform="translate(-4.65 0)"/>
    <path class="cls-2" d="M22.76,22.72a33.88,33.88,0,0,0-1.9,4.59.38.38,0,0,0,.69.27A35.39,35.39,0,0,0,23.41,23C23.55,22.6,22.91,22.35,22.76,22.72Z" transform="translate(-4.65 0)"/>
    <path class="cls-4" d="M19.56,28.2a9.3,9.3,0,0,0-.69,1.33c-.14.37.45.68.69.37a8.64,8.64,0,0,0,.78-1.27A.45.45,0,0,0,19.56,28.2Z" transform="translate(-4.65 0)"/>
    <path class="cls-4" d="M21.05,28.09c-.29.49-.56,1-.83,1.49a5,5,0,0,0-.63,1.47c0,.33.37.65.63.34A6.46,6.46,0,0,0,21,30c.25-.51.52-1,.79-1.51S21.32,27.65,21.05,28.09Z" transform="translate(-4.65 0)"/>
    <path class="cls-4" d="M20.74,31.37c-.29.37-.57.74-.84,1.12a4,4,0,0,0-.68,1.22.36.36,0,0,0,.61.33,5.65,5.65,0,0,0,.68-1c.24-.38.51-.74.78-1.1S21.05,31,20.74,31.37Z" transform="translate(-4.65 0)"/>
    <path class="cls-4" d="M20.75,33.6l-1,1.1a5.89,5.89,0,0,0-.88,1.11c-.16.31.2.74.53.51a5.93,5.93,0,0,0,1-1l.94-1.14C21.65,33.75,21.09,33.21,20.75,33.6Z" transform="translate(-4.65 0)"/>
    <path class="cls-4" d="M21,35.7,19.86,37A3.52,3.52,0,0,0,19,38.19a.35.35,0,0,0,.52.38,3.66,3.66,0,0,0,1-1.07l1-1.22C21.91,35.87,21.31,35.3,21,35.7Z" transform="translate(-4.65 0)"/>
    <path class="cls-3" d="M8.52,28.28Q7.26,30.41,6,32.54c-.46.77-1.39,1.73-.8,2.63a.36.36,0,0,0,.67-.2c0-1,1.16-2.38,1.69-3.27l1.74-3C9.57,28.21,8.81,27.8,8.52,28.28Z" transform="translate(-4.65 0)"/>
    <path class="cls-3" d="M10.64,27.31C9,30.41,6.8,33.5,5.5,36.76c-.15.38.33.86.64.47,2.18-2.78,3.69-6.34,5.32-9.47A.47.47,0,0,0,10.64,27.31Z" transform="translate(-4.65 0)"/>
    <path class="cls-3" d="M12.49,26.82c-2.24,4-4.55,8-6.38,12.2-.23.53.51,1,.8.44,2.17-4,4.14-8.18,6.37-12.2A.45.45,0,0,0,12.49,26.82Z" transform="translate(-4.65 0)"/>
    <path class="cls-3" d="M13.69,27.89c-1.89,3.74-4,7.44-5.64,11.3a.43.43,0,0,0,.76.41c2.1-3.61,3.79-7.54,5.64-11.29C14.7,27.81,13.94,27.39,13.69,27.89Z" transform="translate(-4.65 0)"/>
    <path class="cls-3" d="M14.29,30.14a99.06,99.06,0,0,0-4.35,8.91c-.23.55.55,1,.84.46,1.49-2.94,2.8-6,4.3-8.93C15.35,30.06,14.56,29.62,14.29,30.14Z" transform="translate(-4.65 0)"/>
    <path class="cls-3" d="M14.64,32.48l-2.16,4.9c-.33.74-1.14,1.74-.48,2.45.27.29.66,0,.6-.37s.44-1.24.62-1.66c.25-.58.49-1.16.74-1.73l1.37-3.2C15.53,32.41,14.84,32,14.64,32.48Z" transform="translate(-4.65 0)"/>
    <path class="cls-3" d="M15.51,33.51c-.37,1-.77,2-1.19,2.92a14.75,14.75,0,0,0-1,2.38c-.08.33.39.64.62.34,1.16-1.49,1.76-3.67,2.4-5.43C16.5,33.21,15.69,33,15.51,33.51Z" transform="translate(-4.65 0)"/>
    <path class="cls-3" d="M16.22,35.43a26.09,26.09,0,0,0-1.64,3.76c-.17.52.63.7.81.2a29.48,29.48,0,0,1,1.55-3.56C17.18,35.36,16.46,35,16.22,35.43Z" transform="translate(-4.65 0)"/>
    <path class="cls-3" d="M17,36.79c-.16.43-.34.86-.51,1.29a7.34,7.34,0,0,0-.44,1.24.38.38,0,0,0,.7.28,7.2,7.2,0,0,0,.51-1.21c.16-.44.33-.87.5-1.31S17.19,36.35,17,36.79Z" transform="translate(-4.65 0)"/>
    <path class="cls-3" d="M18.33,37.43a.51.51,0,0,0,0,1A.51.51,0,0,0,18.33,37.43Z" transform="translate(-4.65 0)"/>
    <path class="cls-3" d="M27.49,26.55c-1.73,4.08-3.77,8-5.49,12.12-.19.46.44.84.7.38a113.67,113.67,0,0,0,5.49-12.11C28.39,26.47,27.7,26.08,27.49,26.55Z" transform="translate(-4.65 0)"/>
    <path class="cls-3" d="M28.64,26.79c-1.62,3.88-3.5,7.75-4.82,11.74a.4.4,0,0,0,.73.29c1.86-3.73,3.24-7.77,4.81-11.63C29.56,26.7,28.84,26.3,28.64,26.79Z" transform="translate(-4.65 0)"/>
    <path class="cls-3" d="M31,28.11c-1.37,3.66-2.92,7.32-4.07,11.06-.13.43.56.71.74.29,1.57-3.63,2.78-7.44,4.13-11.15C32,27.8,31.21,27.61,31,28.11Z" transform="translate(-4.65 0)"/>
    <path class="cls-3" d="M32.13,28.52c-1.29,3.43-2.75,6.83-3.94,10.31-.15.43.56.71.75.29,1.5-3.38,2.68-6.94,3.95-10.41C33.07,28.23,32.31,28.05,32.13,28.52Z" transform="translate(-4.65 0)"/>
    <path class="cls-3" d="M33.1,29.33a91.11,91.11,0,0,0-3.25,9.23c-.08.37.47.61.64.25a88.51,88.51,0,0,0,3.34-9.29C34,29.06,33.27,28.89,33.1,29.33Z" transform="translate(-4.65 0)"/>
    <path class="cls-3" d="M34.3,33.52c-.48,1.65-1.28,3.14-1.83,4.75-.14.42.45.57.68.26a15.6,15.6,0,0,0,2-4.81C35.27,33.19,34.45,33,34.3,33.52Z" transform="translate(-4.65 0)"/>
    <path class="cls-1" d="M14.21,2.34C13.46,4.42,12.53,6.52,12,8.66c-.11.43.55.72.75.29.94-2,1.55-4.28,2.29-6.4C15.19,2,14.39,1.85,14.21,2.34Z" transform="translate(-4.65 0)"/>
    <path class="cls-1" d="M16.23,1.56C15,4.75,13.38,8,12.59,11.36a.38.38,0,0,0,.69.27C14.9,8.58,15.86,5,17.07,1.77,17.27,1.24,16.43,1.05,16.23,1.56Z" transform="translate(-4.65 0)"/>
    <path class="cls-1" d="M19.62.68a51.77,51.77,0,0,0-2.23,6.45c-.09.39.51.67.69.27C19,5.31,19.57,3,20.33.86,20.49.41,19.78.24,19.62.68Z" transform="translate(-4.65 0)"/>
    <path class="cls-1" d="M21.23.58c-.81,2-2,4.26-2.24,6.42,0,.32.44.37.58.14a14.53,14.53,0,0,0,1.05-2.73Q21.24,2.67,21.91,1C22.1.5,21.41.11,21.23.58Z" transform="translate(-4.65 0)"/>
    <path class="cls-1" d="M22.18,1.06a35,35,0,0,0-2,6.17c-.06.43.55.76.77.3.9-2,1.37-4.22,2.09-6.26C23.21.74,22.37.55,22.18,1.06Z" transform="translate(-4.65 0)"/>
    <path class="cls-1" d="M23.53,1.46A41.74,41.74,0,0,0,21.7,7.07c-.08.4.49.68.69.28a43.37,43.37,0,0,0,2-5.68C24.55,1.14,23.71.94,23.53,1.46Z" transform="translate(-4.65 0)"/>
    <path class="cls-1" d="M24.84,1.79c-.4,1.45-1,2.85-1.37,4.31-.12.44.56.72.76.3A24.35,24.35,0,0,0,25.64,2,.41.41,0,0,0,24.84,1.79Z" transform="translate(-4.65 0)"/>
    <path class="cls-1" d="M26.12,2.89c-.29,1-.72,2-1,3a.39.39,0,0,0,.71.28A12.3,12.3,0,0,0,27,3.11.47.47,0,0,0,26.12,2.89Z" transform="translate(-4.65 0)"/>
    <path class="cls-1" d="M27,4.82a21.12,21.12,0,0,1-.76,2.33c-.15.44.5.64.72.28A7.28,7.28,0,0,0,27.82,5C27.94,4.49,27.11,4.28,27,4.82Z" transform="translate(-4.65 0)"/>
    <path class="cls-1" d="M27.83,7a28.89,28.89,0,0,0-.94,3.3c-.07.42.55.74.74.29a30.73,30.73,0,0,0,1.05-3.38C28.84,6.63,28,6.43,27.83,7Z" transform="translate(-4.65 0)"/>
    <path class="cls-5" d="M35.45,33.61a7.69,7.69,0,0,0-2.25-5.84c-1.72-1.5-4-1.85-6.22-2.16a.55.55,0,0,0-.38,0l-.1,0a3.45,3.45,0,0,1-2.73-3.38.5.5,0,0,0-.09-.25c2.64-1.8,4.23-5.41,4.52-8.47a.51.51,0,0,0,.09-.18c1-3.79,1.05-9.71-2.71-12.07h0A10.63,10.63,0,0,0,19.14.05C17.07.19,14.87.7,13.43,2.3s-1.54,3.89-1.61,5.9a22.5,22.5,0,0,0,.9,7.16,13.32,13.32,0,0,0,3.74,6.35A4,4,0,0,1,13,25.4a.47.47,0,0,0-.35.21C9,26.86,5.43,28.66,4.78,32.82A13.1,13.1,0,0,0,4.71,36a5.84,5.84,0,0,0,.6,2.8c1.1,1.59,4.05,1.1,5.67,1.13C14,40,17,40,20,40h.22c2.59,0,5.18-.05,7.77-.12,1.32,0,2.65-.07,4-.13a3.24,3.24,0,0,0,2.63-.83c1.06-1.26.9-3.76.86-5.3ZM24.54,28.8a10.25,10.25,0,0,0-1.4-1.14,11.31,11.31,0,0,0,1.1-2,4.78,4.78,0,0,0,1.87.9s0,0,0,0a10.28,10.28,0,0,1-1.08,2.78,4.69,4.69,0,0,0-.53-.6Zm-2.28-1.56-.06,0a3.59,3.59,0,0,0-1.56-.07,9,9,0,0,0-1.71.16,29.39,29.39,0,0,1-2.24-3.07l-.05-.06a4.53,4.53,0,0,0,.76-1.86,5.45,5.45,0,0,0,3.45.69,6.25,6.25,0,0,0,1.82-.52,3.81,3.81,0,0,0,.8,2.37c-.43.76-.78,1.57-1.21,2.34Zm.43,1.41a7.1,7.1,0,0,1,.67.56c.33.29.61.68.94,1a.53.53,0,0,0,.28.21c-.44.93-.91,1.84-1.4,2.75-.37.69-.76,1.37-1.15,2-.09-.52-.2-1-.26-1.55-.12-1-.18-1.91-.21-2.86v-.07c.29-.52.58-1,.87-1.56a4.74,4.74,0,0,0,.26-.5Zm-6.77-3.6A11,11,0,0,0,18,27.82,15.39,15.39,0,0,0,15.12,30c-.39-1.27-.69-2.56-1-3.85a5.32,5.32,0,0,0,1.78-1.07Zm-.46,6,.15-.1c.83-.73,1.7-1.39,2.6-2.05l.18.41c.22.54.44,1.07.68,1.6-.24,1.75-.57,3.54-.7,5.31a18.72,18.72,0,0,1-2-3,20.12,20.12,0,0,1-.93-2.2Zm3.4-9c-3.57-1.11-5.19-5.23-5.82-9a1.1,1.1,0,0,0,.18-.14c1.32-1.44,1.57-3.24,1.91-5.09.11-.58.09-1.29,1.13-1.1.4.07,1,.71,1.35.93a5.23,5.23,0,0,0,2.1.86A3.83,3.83,0,0,0,22,8c1.11-.56,2.71-1.95,3.8-.49s.39,3.73,1.56,5.32l0,.06c0,.06,0,.12,0,.19a.5.5,0,0,0,.07.39c-.47,4.11-3.72,10.05-8.53,8.55Zm-6-10.57c-.06-.64-.1-1.26-.12-1.83-.06-2.42-.1-5.69,2-7.29C16.63.93,19.36.82,21.61,1c2.59.23,4.77,1.46,5.61,4a14.24,14.24,0,0,1,.46,6c-.4-1.56-.11-3.37-1.39-4.59-2-1.92-3.9.73-5.89.9-1.43.13-2.46-1-3.59-1.65a1.58,1.58,0,0,0-2.06,0,4.31,4.31,0,0,0-.87,2.42,9.18,9.18,0,0,1-1.05,3.35Zm-.55,27.22c-1.25,0-2.48,0-3.72-.08-.54,0-1.44.09-1.89-.25C6.06,37.88,6.06,36.67,6,36c-.2-2.34,0-4.77,1.78-6.5a14.61,14.61,0,0,1,5.55-2.89c1,4.43,2.49,8.67,5.49,12.11q-3.29,0-6.54,0Zm7.81-.21c-.27-.38-.55-.75-.83-1.12a53.64,53.64,0,0,0,.81-6.2.54.54,0,0,0,.17-.61c-.23-.58-.48-1.14-.73-1.7,0-.1-.08-.2-.13-.3l.12,0a4,4,0,0,0,.91-.09c.29,0,.6-.08.9-.1s.27-.07.2.19a3.89,3.89,0,0,1-.46.88c-.18.33-.35.67-.52,1a.51.51,0,0,0,0,.46,17.18,17.18,0,0,0,.73,5.71l-1.14,1.92Zm14.06-2.94A7.8,7.8,0,0,1,34,37.25c-.37,1.17-1,1.18-2,1.23-1.24.05-2.48.07-3.72.11-2.31,0-4.63.09-6.95.1a64.35,64.35,0,0,0,3.32-5.89C25.49,31,26.8,29,27.15,26.93c2,.21,4.22.62,5.61,2.15C34.32,30.8,34.3,33.33,34.15,35.51Z" transform="translate(-4.65 0)"/>
  </g>
</svg>
