<svg id="레이어_1" data-name="레이어 1" xmlns="http://www.w3.org/2000/svg" viewBox="0 0 27.51 39.7">
  <defs>
    <style>
      .cls-1 {
        fill: #8d573e;
      }

      .cls-2 {
        fill: #93b7f5;
      }

      .cls-3 {
        fill: #2f58a1;
      }

      .cls-4 {
        fill: #a1664c;
      }

      .cls-5 {
        opacity: 0.1;
      }

      .cls-6 {
        fill: #ed9d6c;
      }

      .cls-7 {
        fill: #c9beb7;
      }

      .cls-8 {
        fill: #ffb97f;
      }

      .cls-13, .cls-9 {
        fill: #bf3c1b;
      }

      .cls-9 {
        opacity: 0.2;
      }

      .cls-10, .cls-16 {
        fill: #b54319;
      }

      .cls-10 {
        opacity: 0.35;
      }

      .cls-11 {
        fill: #f0eae6;
      }

      .cls-11, .cls-25 {
        opacity: 0.7;
      }

      .cls-12 {
        fill: #9e8f88;
      }

      .cls-13, .cls-15, .cls-18, .cls-23 {
        opacity: 0.3;
      }

      .cls-14 {
        fill: #ffcb9e;
      }

      .cls-15 {
        fill: #6e2210;
      }

      .cls-16 {
        opacity: 0.5;
      }

      .cls-17 {
        fill: #121b21;
      }

      .cls-18 {
        fill: #a67663;
      }

      .cls-19 {
        fill: #ffd2ab;
      }

      .cls-20 {
        fill: #7d8ba8;
      }

      .cls-21 {
        fill: #4f2c1e;
      }

      .cls-22 {
        fill: #3a3a4a;
      }

      .cls-23, .cls-24, .cls-25 {
        fill: #fff;
      }

      .cls-26 {
        fill: #c1c5c9;
      }
    </style>
  </defs>
  <title>1</title>
  <g>
    <path class="cls-1" d="M7.94,39.86H13l-2.79-6.77C9.32,33.83,8,35.29,7.94,39.86Z" transform="translate(-6.51 -0.16)"/>
    <path class="cls-1" d="M29.09,32.89l-2.75,7h5.35C31.65,35.29,30,33.63,29.09,32.89Z" transform="translate(-6.51 -0.16)"/>
    <g>
      <path class="cls-2" d="M14.67,30.92c-2.05,1.73-2.61,3.8.46,6.82a16.7,16.7,0,0,0,2.57,2.12h3.89c1.88-2,5.19-6,4.31-8.15C24.45,28.15,16.71,29.19,14.67,30.92Z" transform="translate(-6.51 -0.16)"/>
      <path class="cls-3" d="M21.8,34.37a1.77,1.77,0,0,0-2-.91,1.87,1.87,0,0,0-1.54,1.42L19.34,36l-1.13,3.85h4.43l-1.51-4.08Z" transform="translate(-6.51 -0.16)"/>
      <g>
        <path class="cls-1" d="M14.61,31.27a3.6,3.6,0,0,1,.37-.7c-1.63.7-4.62,2.14-4.88,2.67s1.24,3.48,1.93,6.62h6.43C16.48,37.24,13.85,33.23,14.61,31.27Z" transform="translate(-6.51 -0.16)"/>
        <path class="cls-1" d="M25.27,30.37c.09.23.42.71.4.94-.26,2.75-2.13,6.24-3.55,8.55h5.77c.51-2.63,1.58-6.56,1.27-6.9A23.67,23.67,0,0,0,25.27,30.37Z" transform="translate(-6.51 -0.16)"/>
      </g>
      <g>
        <path class="cls-4" d="M24.67,30.06c.37,3.68-1.54,7.48-2.93,9.8h2.15A35.42,35.42,0,0,0,26.83,37a18,18,0,0,0-1.27-2.17l2.23-1.34A10,10,0,0,0,24.67,30.06Z" transform="translate(-6.51 -0.16)"/>
        <path class="cls-4" d="M12.27,34,14.93,35a26.31,26.31,0,0,0-1.18,2.72,21.45,21.45,0,0,0,2.56,2.12h2.51c-1.45-2.09-3.43-5.5-3.43-9.37A7,7,0,0,0,12.27,34Z" transform="translate(-6.51 -0.16)"/>
      </g>
      <path class="cls-5" d="M15.35,32.72A6.73,6.73,0,0,0,18,36.19l2.15-2.06,2.3,1.95c2.2-1.95,2.62-3.17,2.81-3.87C25.8,30,14.39,29.68,15.35,32.72Z" transform="translate(-6.51 -0.16)"/>
      <path class="cls-2" d="M15,30.6c-1.07,2.75,2.82,5,2.82,5l2.31-1.45,2.17,1.37s4.28-2.24,2.66-5.44C23.49,27.18,16.23,27.42,15,30.6Z" transform="translate(-6.51 -0.16)"/>
      <path class="cls-6" d="M18.43,26.76a3.25,3.25,0,0,0-2.39,3A2.5,2.5,0,0,0,16.71,32a4.68,4.68,0,0,0,1.83,1.06c.51.16,1.4.76,1.56.76s.36-.25.84-.5A4.75,4.75,0,0,0,23,31.7c.56-1.12,1.07-3.32,0-4.19A6.21,6.21,0,0,0,18.43,26.76Z" transform="translate(-6.51 -0.16)"/>
    </g>
    <g>
      <g>
        <path class="cls-7" d="M17.76.25C3.18,1.32,5.5,21.66,9.66,20.8c3.08-.63,6.1-1.49,9.15-2.23,2.83-.7,6-.13,8.87.08,2.27.17,2.24-.8,2.36-2.65.23-3.44-.14-4.71,0-6.1C30.82,4,26.1-.37,17.76.25Z" transform="translate(-6.51 -0.16)"/>
        <path class="cls-8" d="M18.24,4.57c-5.37,1-9.18,8.74-8.24,16,.71,5.44,4.85,11.43,11.14,11S30.79,23.18,30,16.5C29.13,9.22,25.74,3.14,18.24,4.57Z" transform="translate(-6.51 -0.16)"/>
        <path class="cls-8" d="M8.15,17.54c-2.63.71-1.6,4.57.55,5.36a5.09,5.09,0,0,0,2.12.24l0-.06c.32-.5-.23-3.07-.39-3.6C10.07,18.14,9.42,17.19,8.15,17.54Z" transform="translate(-6.51 -0.16)"/>
        <path class="cls-9" d="M27.59,6.64a24.66,24.66,0,0,0-8.95-1.95c-2.14-.05-5.33-.19-7,1.38C10.21,7.32,10.1,9.68,10,11.41c0,.66,0,5.72.34,4.63.7-2,2.31-2.73,2.27-4.81,3.08,1.4,7.73,1.3,11.76.91,2.54-.25,4.58-.87,5.08,1.25C29.8,11.54,29.61,7.45,27.59,6.64Z" transform="translate(-6.51 -0.16)"/>
        <path class="cls-10" d="M9.07,19c-.59-.27-2.07.21-1.38,1.37.37-1.07,1-.36.91.4-.07.52-.61.52-.07,1.18.29.36.89.23,1.19,0C10.68,21.35,9.79,19.3,9.07,19Z" transform="translate(-6.51 -0.16)"/>
        <path class="cls-7" d="M32.7,1.7c-3.43,2.76-9-3.33-16.78-1-10.67,3.2-6.7,14.53-6.65,15.9a6.75,6.75,0,0,0,1.09,3.11,2.43,2.43,0,0,0,1.43,0c-.95-.9-1.33-3.34-.55-5.62.43-1.27,1.07-2.17.93-3.88.93.85,7.63,2.14,16,.38A8,8,0,0,0,33.34,7.1a19.52,19.52,0,0,0-2,.24C32.52,6.06,32.68,3.55,32.7,1.7Z" transform="translate(-6.51 -0.16)"/>
        <path class="cls-11" d="M23.89,1.42C20.07.33,14.24.22,11.24,3.36S10.82,9.22,21,9.1C30.32,9,32.26,2.39,32.26,2.39,29.48,3.71,27.71,2.5,23.89,1.42Z" transform="translate(-6.51 -0.16)"/>
        <path class="cls-12" d="M8.74,17.47c.92.06,1,1.87,1.71,2.33a2.32,2.32,0,0,0,1.34-.06c-.7-1-.86-3.64-.87-4.36C10.42,16.46,7.89,17.41,8.74,17.47Z" transform="translate(-6.51 -0.16)"/>
        <path class="cls-11" d="M8.21,7.37A10.21,10.21,0,0,0,7.47,10c-.14,1.1-.24,2.66.58,3.54a1.68,1.68,0,0,0,2.84-.73C12,9.43,8.21,7.37,8.21,7.37Z" transform="translate(-6.51 -0.16)"/>
      </g>
      <g>
        <path class="cls-5" d="M15,30.83c1.08,4.07,9.92,5.15,11.82.6C28.25,28.05,14.19,27.7,15,30.83Z" transform="translate(-6.51 -0.16)"/>
        <path class="cls-7" d="M29.89,15.69c.51,11-2.92,6.89-2.92,6.89L25.91,23c.39,2.7-2.39,3.83-2.85,2l-2.61.14c-.71,2.66-3.49-.28-3.42-1.87s-1.27-.39-1.27-.39c-1.73,1.7-4.09-2.54-4.31-3.45l-1.32-.1s0,14.93,12.82,13.73c10.93-1,7.14-17.92,7.14-17.92Z" transform="translate(-6.51 -0.16)"/>
        <path class="cls-13" d="M18.58,24.45c.83,2.05,5.18,1.95,5.81.26C22.92,25.24,19.72,25.48,18.58,24.45Z" transform="translate(-6.51 -0.16)"/>
        <path class="cls-14" d="M22.53,23.37a13.08,13.08,0,0,1-3.28-.17.82.82,0,0,0-.81,1.39c.88,1,2.57,1,3.68.91.88-.05,2.73-.24,2.87-1.67C25.11,22.59,23,23.33,22.53,23.37Z" transform="translate(-6.51 -0.16)"/>
        <path class="cls-15" d="M15.48,23.06c3.57,1.76,9.93,1.6,12.18-.37C24.83,23.24,18.25,23.63,15.48,23.06Z" transform="translate(-6.51 -0.16)"/>
        <path class="cls-16" d="M13.85,17.81c0,.44,1,.23,1.31.3-.26.27-1,.27-1.35.45s-.3.33.1.32a7.16,7.16,0,0,0,1.75-.47C16.39,17.8,14.18,17.72,13.85,17.81Z" transform="translate(-6.51 -0.16)"/>
        <path class="cls-16" d="M29,18.18c-.25-.18-.89-.2-1.08-.47.25-.06,1.06.16,1.13-.27-.28-.09-2.13-.06-1.58.56a4.71,4.71,0,0,0,1.41.49C29.23,18.51,29.28,18.38,29,18.18Z" transform="translate(-6.51 -0.16)"/>
        <path class="cls-17" d="M16.49,16c-1.37-.61-2.25,1.85-1.32,2.66a2,2,0,0,1,1.37.12A1.68,1.68,0,0,0,16.49,16Z" transform="translate(-6.51 -0.16)"/>
        <path class="cls-7" d="M22.12,20.46l-1,0a6.83,6.83,0,0,0-3.59.77A7,7,0,0,0,15.21,23a22.64,22.64,0,0,0,10.92.31A4.49,4.49,0,0,0,28,22.56a8.9,8.9,0,0,0-4.78-2.23A4.22,4.22,0,0,0,22.12,20.46Z" transform="translate(-6.51 -0.16)"/>
        <path class="cls-18" d="M22.1,20c-.69,0-1-.22-1.46,0s.22,1.11,1.44,1.06,1.77-.89,1.5-1.12S22.87,20,22.1,20Z" transform="translate(-6.51 -0.16)"/>
        <path class="cls-19" d="M21.67,16.08c-.61,0-.72,1.68-.93,2.45s-.35,1.5,0,1.73A2.91,2.91,0,0,0,23.59,20c.18-.17-.26-1-.61-1.76S22.35,16,21.67,16.08Z" transform="translate(-6.51 -0.16)"/>
        <path class="cls-17" d="M27.59,15.9c-1.41-.76-2.52,2.25-1,2.62a1.83,1.83,0,0,1,1.2-.34A1.59,1.59,0,0,0,27.59,15.9Z" transform="translate(-6.51 -0.16)"/>
        <path class="cls-20" d="M16.09,16.3c-.56.18-.14,1.28.41.89C16.9,16.9,16.59,16.13,16.09,16.3Z" transform="translate(-6.51 -0.16)"/>
        <path class="cls-20" d="M27.24,16.28c-.54.14-.23,1.19.31.86S27.71,16.17,27.24,16.28Z" transform="translate(-6.51 -0.16)"/>
        <path class="cls-21" d="M26.37,13c-1.24,0-2.16,0-2.17,0,0,.59.27,1.78,1.21,1.66.56-.07,1.14-.22,1.69-.25a6.62,6.62,0,0,1,2.08.19.36.36,0,0,0,.37-.56A4.08,4.08,0,0,0,26.37,13Z" transform="translate(-6.51 -0.16)"/>
        <path class="cls-21" d="M16.47,13.11A4.54,4.54,0,0,0,13,14.3c-.17.14,0,.67.47.55a9.08,9.08,0,0,1,2.3-.28c.63,0,1.29.15,1.93.2C18.8,14.85,19,13.63,18.9,13,18.89,13,17.86,13.1,16.47,13.11Z" transform="translate(-6.51 -0.16)"/>
        <path class="cls-19" d="M29.13,19.59a2.23,2.23,0,0,0-2-.53c-.83.12-1.9.62-1,1.84.47.65,3.85.68,3.28-.9A1.25,1.25,0,0,0,29.13,19.59Z" transform="translate(-6.51 -0.16)"/>
        <path class="cls-19" d="M16.81,19.68a2.22,2.22,0,0,0-2.16-.49c-.87.15-2,.74-1,2,.52.69,4.06.6,3.41-1.11A1.44,1.44,0,0,0,16.81,19.68Z" transform="translate(-6.51 -0.16)"/>
        <path class="cls-11" d="M23.35,21.12a3.57,3.57,0,0,1-1.71.47,11.64,11.64,0,0,0-2.13-.48A7.36,7.36,0,0,0,17,22.4c3.1.68,7.09.91,9.33-.26C25.62,21.51,24.16,20.75,23.35,21.12Z" transform="translate(-6.51 -0.16)"/>
        <path class="cls-11" d="M27,26.47c-.93-1.13-1.92-.15-1.88,1a2.22,2.22,0,0,0-4,.65c-.79-2.15-2.95-2-2.8-.52-.34-1.29-2.15-3-3.53-2.72-2.39.43-.35,3.58.46,4.66,2.91,3.89,14.72,3.51,13.88-4C28.91,23.59,26.69,24.06,27,26.47Z" transform="translate(-6.51 -0.16)"/>
      </g>
    </g>
    <g>
      <path class="cls-18" d="M26.42,15.89c.57,0,1.14-.05,1.71-.06a4.14,4.14,0,0,0,1.45-.12c.6-.25.48-1.09.11-1.51s-1-.3-1.47-.24a13.6,13.6,0,0,0-2,.35,12,12,0,0,0-2.52.69,3.06,3.06,0,0,1-1.86.56c-1.56-.06-2.88-1-4.43-1.18a13.13,13.13,0,0,0-4.88.11c-.41.12-1.67.61-.81,1a7.2,7.2,0,0,0,3,.31l1.26.06c1.48.13,3.76-.09,3.65,1.77a3.09,3.09,0,0,1-1.91,2.84,13.7,13.7,0,0,1-3,.33,5.25,5.25,0,0,1-2.21-.46c-.2-.09-.8-.47-1-.2-.32.46.89,1.21,1.2,1.35a7.11,7.11,0,0,0,2.28.5c1.93.19,3.92.08,5-1.71.63-1,.93-2.26,1.51-3.32.95-1.75,1.36.63,1.63,1.66a5.37,5.37,0,0,0,.7,1.65,3.69,3.69,0,0,0,2.72,1.43,11.93,11.93,0,0,0,3.1-.33c.34-.14.52-.72.12-.89a21.49,21.49,0,0,0-2.24.22,7.22,7.22,0,0,1-1.14-.11A3.42,3.42,0,0,1,25,20a2.85,2.85,0,0,1-.69-.81,2.7,2.7,0,0,1-.1-2.19C24.53,16,25.56,16,26.42,15.89Z" transform="translate(-6.51 -0.16)"/>
      <path class="cls-22" d="M10.87,14.34c-1.27.12-2.38-.16-2.66.11s.38,1.46.38,1.46a2.23,2.23,0,0,0,1,.27c.15.88.24,3.18,2,4.53,1.43,1.11,5.88,1.17,7.21.39a5.37,5.37,0,0,0,2.47-4.21C21.74,13,12.66,14.16,10.87,14.34Zm7.93,5.71c-1.61,1.2-5.94,1-7.15-.34-.93-1-1.23-3.25-.72-3.6C12.48,15,18.56,15,20,16,20.74,16.47,20,19.14,18.8,20.05Z" transform="translate(-6.51 -0.16)"/>
      <path class="cls-22" d="M31.62,13.9c-1.55-.09-9.41-.85-8.88,3A5.44,5.44,0,0,0,25,21c1.17.72,5,.45,6.2-.74,1.44-1.42,1.46-3.72,1.56-4.6a1.78,1.78,0,0,0,.87-.32s.62-1.13.29-1.48S32.72,14,31.62,13.9Zm-.52,5.4c-1,1.37-4.73,1.81-6.15.68-1.08-.85-1.78-3.49-1.18-4,1.24-1.05,6.48-1.31,7.85-.31C32.07,16,31.88,18.24,31.1,19.3Z" transform="translate(-6.51 -0.16)"/>
      <path class="cls-23" d="M24.81,15.69c-.88.34.65.91,1,1a11,11,0,0,0,3.72.07c.66-.09,2.09-.63,1.71-1C30.69,15.15,25.78,15.32,24.81,15.69Z" transform="translate(-6.51 -0.16)"/>
      <path class="cls-24" d="M28.65,15.69c-.47.05-.78.18-.66.4.23.45,3,.36,3.18,0S29.65,15.58,28.65,15.69Z" transform="translate(-6.51 -0.16)"/>
      <path class="cls-25" d="M25.62,19c-.3,0-.5,0-.45.23.09.39,1.79.66,1.95.43S26.24,19,25.62,19Z" transform="translate(-6.51 -0.16)"/>
      <path class="cls-25" d="M12.62,19.32c-.32,0-.55,0-.51.22.09.39,2,.73,2.13.51S13.31,19.39,12.62,19.32Z" transform="translate(-6.51 -0.16)"/>
      <path class="cls-23" d="M19.34,15.81c-1.16-.33-6.83-.39-7.38.15-.39.39,1.32.87,2.09.94a15.45,15.45,0,0,0,4.27-.15C18.7,16.68,20.39,16.11,19.34,15.81Z" transform="translate(-6.51 -0.16)"/>
      <path class="cls-24" d="M16.87,15.64c-.52,0-.87.18-.74.4.25.45,3.29.36,3.51,0S18,15.53,16.87,15.64Z" transform="translate(-6.51 -0.16)"/>
      <path class="cls-22" d="M23.94,14.65a6.91,6.91,0,0,1-4.05.07c-1.27-.35.67.76.82,1.41s0,2.75.4,1.56,1.23-1.23,1.74-.13.61-1.76.83-2S25.13,14.29,23.94,14.65Z" transform="translate(-6.51 -0.16)"/>
      <path class="cls-26" d="M11.49,14.68c3.45,0,6.2-.13,8.32.54C18.39,14.19,16,14.09,11.49,14.68Z" transform="translate(-6.51 -0.16)"/>
      <path class="cls-26" d="M24.31,15c1.78-.76,4-.57,7-.84C27.31,14.1,25.44,14,24.31,15Z" transform="translate(-6.51 -0.16)"/>
    </g>
  </g>
</svg>
