<svg id="레이어_1" data-name="레이어 1" xmlns="http://www.w3.org/2000/svg" viewBox="0 0 29.98 39.92">
  <defs>
    <style>
      .cls-1 {
        fill: #8d573e;
      }

      .cls-2 {
        fill: #e8e8e8;
      }

      .cls-3 {
        fill: #a1664c;
      }

      .cls-4 {
        opacity: 0.1;
      }

      .cls-5 {
        fill: #f5f5f5;
      }

      .cls-6 {
        fill: #ffb67d;
      }

      .cls-7 {
        fill: #2b2521;
      }

      .cls-8 {
        fill: #ffcb9e;
      }

      .cls-9 {
        fill: #211011;
      }

      .cls-10 {
        fill: #94110c;
        opacity: 0.5;
      }

      .cls-11 {
        fill: #b54d26;
      }

      .cls-11, .cls-15 {
        opacity: 0.3;
      }

      .cls-12 {
        fill: #ffd8b5;
      }

      .cls-13 {
        fill: #a89191;
      }

      .cls-14, .cls-15, .cls-16 {
        fill: #fff;
      }

      .cls-14 {
        opacity: 0.7;
      }

      .cls-17 {
        fill: #423833;
      }
    </style>
  </defs>
  <title>1</title>
  <g>
    <path class="cls-1" d="M29.1,32.33l-1.86,3A5.5,5.5,0,0,1,29.57,40h3.48A9,9,0,0,0,29.1,32.33Z" transform="translate(-5.38 -0.04)"/>
    <path class="cls-1" d="M9.3,40h3.49a5.48,5.48,0,0,1,2.33-4.66l-1.86-3A9,9,0,0,0,9.3,40Z" transform="translate(-5.38 -0.04)"/>
    <g>
      <path class="cls-2" d="M26.74,31.37A12,12,0,0,0,16,31.65C13.32,33.37,13.38,36,14,40H28.57C29.2,36,29.31,32.76,26.74,31.37Z" transform="translate(-5.38 -0.04)"/>
      <g>
        <path class="cls-1" d="M26.33,31A36.77,36.77,0,0,0,25,40h3.75c.58-3.31,1.19-6.48,1-7C29.47,32.19,26.33,31,26.33,31Z" transform="translate(-5.38 -0.04)"/>
        <path class="cls-3" d="M26.34,30.51s-.52,3.44-.64,3.9,3,.2,3.08-.27A5.18,5.18,0,0,0,26.34,30.51Z" transform="translate(-5.38 -0.04)"/>
        <path class="cls-3" d="M25.82,34c-.44.74-.72,3.31-.82,6h1.59c.58-1.4,1.13-2.61,1.22-2.84C28,36.57,26.18,33.32,25.82,34Z" transform="translate(-5.38 -0.04)"/>
      </g>
      <g>
        <path class="cls-1" d="M12.63,33c-.2.53.41,3.7,1,7h3.7A38.06,38.06,0,0,0,16,31.06S12.92,32.19,12.63,33Z" transform="translate(-5.38 -0.04)"/>
        <path class="cls-3" d="M13.61,34.14c0,.47,3.2.75,3.08.27s-.64-3.9-.64-3.9A5.18,5.18,0,0,0,13.61,34.14Z" transform="translate(-5.38 -0.04)"/>
        <path class="cls-3" d="M14.58,37.12c.09.23.64,1.44,1.22,2.84h1.59c-.1-2.7-.39-5.27-.82-6S14.37,36.57,14.58,37.12Z" transform="translate(-5.38 -0.04)"/>
      </g>
      <path class="cls-4" d="M16,33.34a7.43,7.43,0,0,0,3.32,3.72l2.21-2.12,2.35,2c1.42-1,2.91-2.61,2.93-4.21C26.85,31.58,15.27,31,16,33.34Z" transform="translate(-5.38 -0.04)"/>
      <path class="cls-5" d="M16.05,30.51c-2.05,2.61,3.12,5.92,3.12,5.92l2.38-1.49,2.22,1.4s4.39-2.29,2.73-5.57C25,27.82,18.11,27.87,16.05,30.51Z" transform="translate(-5.38 -0.04)"/>
      <path class="cls-6" d="M24.5,28.16a6.58,6.58,0,0,0-4.82-.77,3.34,3.34,0,0,0-2.5,3.06c-.13,1.76,2.46,4.12,4.26,4.17C22.79,34.64,28.54,31.35,24.5,28.16Z" transform="translate(-5.38 -0.04)"/>
      <path class="cls-5" d="M21.12,37.43a.46.46,0,0,0-.46.46.45.45,0,0,0,.46.46.46.46,0,0,0,.46-.46A.47.47,0,0,0,21.12,37.43Z" transform="translate(-5.38 -0.04)"/>
    </g>
    <g>
      <path class="cls-7" d="M33.69,10.42c-.7-.8-1.38,5.66-1.84,6.3-1.08,1.46-.85,4,.94,4.75.15.06,2,.33,1.78-.13C33.28,17.79,36.33,13.46,33.69,10.42Z" transform="translate(-5.38 -0.04)"/>
      <path class="cls-7" d="M18.74.3C3.23,3.23,5.94,21.11,10.47,20.37s19.68-4.15,21.06-4.52,3-.57,2.12-6.44C32.72,3,25.14-.91,18.74.3Z" transform="translate(-5.38 -0.04)"/>
      <path class="cls-8" d="M21,3.75c-6.68.19-11.91,7-11.67,15.13s5.83,14.63,12.5,14.44,11.9-7,11.67-15.13S27.68,3.56,21,3.75Z" transform="translate(-5.38 -0.04)"/>
      <path class="cls-9" d="M18.38,15.71c-1.46-.71-2.52,1.9-1.54,2.82a2.14,2.14,0,0,1,1.47.19A1.82,1.82,0,0,0,18.38,15.71Z" transform="translate(-5.38 -0.04)"/>
      <path class="cls-10" d="M29.67,23.19a.55.55,0,0,0-.71.08c-.15.18-3.87,4.44-9.92.89a.55.55,0,0,0-.7.13.43.43,0,0,0,.16.63,10.89,10.89,0,0,0,4.11,1.48,8.21,8.21,0,0,0,4.13-.5,8.06,8.06,0,0,0,3-2.07A.42.42,0,0,0,29.67,23.19Z" transform="translate(-5.38 -0.04)"/>
      <path class="cls-11" d="M24.29,19.48c-.75,0-1.05-.31-1.57,0s.17,1.38,1.5,1.37,2-1,1.67-1.34S25.12,19.49,24.29,19.48Z" transform="translate(-5.38 -0.04)"/>
      <path class="cls-12" d="M24.22,17.93c-1.32,0-2,1.14-1.32,1.66a2.75,2.75,0,0,0,2.87,0C26.16,19.23,25.79,17.9,24.22,17.93Z" transform="translate(-5.38 -0.04)"/>
      <path class="cls-9" d="M30.18,15.3c-1.56-.76-2.62,2.54-.92,2.88a2,2,0,0,1,1.29-.42A1.74,1.74,0,0,0,30.18,15.3Z" transform="translate(-5.38 -0.04)"/>
      <path class="cls-13" d="M17.94,16.07c-.62.18-.21,1.38.4,1C18.78,16.76,18.48,15.91,17.94,16.07Z" transform="translate(-5.38 -0.04)"/>
      <path class="cls-13" d="M29.81,15.74c-.57.16-.19,1.29.38.91C30.6,16.38,30.32,15.59,29.81,15.74Z" transform="translate(-5.38 -0.04)"/>
      <path class="cls-8" d="M7.47,17.29c-3.33.7-2.29,4.9.34,5.81a7.13,7.13,0,0,0,2.64.33l.05-.07c.43-.53-.09-3.33-.25-3.91C9.83,18,9.07,17,7.47,17.29Z" transform="translate(-5.38 -0.04)"/>
      <path class="cls-11" d="M29.1,8.08a29.48,29.48,0,0,0-9.6-.39C17,8,14.37,8.87,13.06,11.22a12,12,0,0,0-1.23,3.83c-.3,1.64,0,3.47.35,3.61.29-2,1.49-1.89,1.9-3.84.35-1.69,2.22-2.82,2.32-2.92a4.68,4.68,0,0,0-.6,2.16c.64-1,2.87-2.48,7.74-2a26,26,0,0,0,5.71.06A5.21,5.21,0,0,0,32.42,10C33.13,8.71,29.83,8.22,29.1,8.08Z" transform="translate(-5.38 -0.04)"/>
      <path class="cls-7" d="M27.29,5C23,2.32,19,2.86,15.54,4.28c-4.53,1.85-7.33,9.09-7,13.48.2,2.49,3.63,2.66,3.63,1.25,0-4.29.7-7.32,7-8.81,5-1.19,10.94-.53,12.43.51S31.62,7.66,27.29,5Z" transform="translate(-5.38 -0.04)"/>
      <path class="cls-11" d="M9.15,18.91c-.83-.44-3.12-.26-2.32,1.17.76-1.08,1.59-.16,1.29.65-.21.54-1,.42-.35,1.26a1.91,1.91,0,0,0,1.77.33C11.09,21.89,10.15,19.45,9.15,18.91Z" transform="translate(-5.38 -0.04)"/>
      <path class="cls-7" d="M26.65.77c-3.95-1.08-8.23-1.12-11.78,1-2.56,1.48-3,4.25-2.12,7.12.29.95.86,2.3,2,2.49a6.85,6.85,0,0,0,2.9-1,3.94,3.94,0,0,0-.54,1.82c4.83-2.89,13.05,1.36,17.57-2C36.85,8.56,33.55,2.65,26.65.77Z" transform="translate(-5.38 -0.04)"/>
      <path class="cls-7" d="M11.45,16.39c-.79-.48-2-.09-2.85-.6.41.25.07,2,.06,2.36a3.74,3.74,0,0,0,3.44,4.16l.33,0c.1-1.44-.2-2.83-.18-4.32C12.26,17,12.17,16.84,11.45,16.39Z" transform="translate(-5.38 -0.04)"/>
      <path class="cls-7" d="M17.48.55c-2.28.46-4.76.94-6.62-.2a2.08,2.08,0,0,0,.88,2,2.81,2.81,0,0,1-2.92-.11C10,6.07,14.79,5.2,16.91,4,17.91,3.41,19.17.21,17.48.55Z" transform="translate(-5.38 -0.04)"/>
      <path class="cls-7" d="M31.1,12.44a4.46,4.46,0,0,0-1.58-.24c-.32,0-1.51-.21-1.74.05-.89,1,2.73,1,3,1C31.66,13.23,31.93,12.81,31.1,12.44Z" transform="translate(-5.38 -0.04)"/>
      <path class="cls-7" d="M17.63,12.51a4.38,4.38,0,0,0-1.55.4c-.78.45-.48.84.36.79.32,0,3.91-.44,2.93-1.31C19.11,12.16,17.94,12.47,17.63,12.51Z" transform="translate(-5.38 -0.04)"/>
      <g>
        <path class="cls-7" d="M26.36,14.71c-.67.8-.46,4,.13,4.73s5.41.46,6.44,0,1.2-4.09.3-5.14S27.36,13.52,26.36,14.71Zm6.41,3.89c-.84.39-4.92.74-5.47.22s-.92-2.8-.4-3.39c.78-.88,5-1.26,5.82-.53S33.61,18.22,32.77,18.6Z" transform="translate(-5.38 -0.04)"/>
        <path class="cls-7" d="M13.43,14.87c-.81.84-.54,4.26.17,5.07s6.46.66,7.69.16,1.41-4.35.34-5.51S14.61,13.63,13.43,14.87Zm7.68,4.32c-1,.37-5.87.6-6.53,0s-1.13-2.94-.51-3.54C15,14.8,20,14.55,21,15.34S22.11,18.81,21.11,19.19Z" transform="translate(-5.38 -0.04)"/>
        <path class="cls-7" d="M23,16.3c-.15.06-1.47,1-1,1.15.12,0,.84-.44,1-.49a4.6,4.6,0,0,1,1.42-.24,2.45,2.45,0,0,1,1.43.43c.26.14.75.37.39-.24C25.57,15.84,23.92,15.89,23,16.3Z" transform="translate(-5.38 -0.04)"/>
        <path class="cls-7" d="M12.29,16.21c-.44.06-2.42.08-2.65.49s.46.7.77.78a18.93,18.93,0,0,0,2,.36c.94.15.95-.12.92-1S13.08,16.11,12.29,16.21Z" transform="translate(-5.38 -0.04)"/>
        <path class="cls-14" d="M15.06,18.4c-.26,0-.45,0-.41.23.07.39,1.58.73,1.73.51S15.62,18.47,15.06,18.4Z" transform="translate(-5.38 -0.04)"/>
        <path class="cls-15" d="M20.65,15.49c-.94-.33-5.54-.39-6,.16-.32.39,1.07.88,1.69,1a10.23,10.23,0,0,0,3.47-.15C20.13,16.38,21.5,15.8,20.65,15.49Z" transform="translate(-5.38 -0.04)"/>
        <path class="cls-16" d="M18.27,15.16c-.49.06-.81.2-.69.47.23.53,3.1.42,3.31,0S19.31,15,18.27,15.16Z" transform="translate(-5.38 -0.04)"/>
        <path class="cls-14" d="M27.66,18.19c-.24,0-.41,0-.37.24.08.39,1.46.68,1.59.45S28.17,18.24,27.66,18.19Z" transform="translate(-5.38 -0.04)"/>
        <path class="cls-15" d="M32.61,15.08c-.87-.3-5-.19-5.42.37s1,.84,1.57.89a8.34,8.34,0,0,0,3.14-.27C32.17,16,33.4,15.36,32.61,15.08Z" transform="translate(-5.38 -0.04)"/>
        <path class="cls-16" d="M30.44,14.83c-.44.08-.73.24-.61.5.24.52,2.83.31,3-.07S31.38,14.67,30.44,14.83Z" transform="translate(-5.38 -0.04)"/>
      </g>
      <path class="cls-17" d="M31.7,4C29,1.73,25,1,21.4,1.05c-2.88,0-7.69.91-8.9,4-.82,2.11,1.33,3.34,3.09,3.83a12.08,12.08,0,0,0,3.88.32c-.32.42-.6.88-.91,1.28,4.3-.46,9.19.72,13.36-.58C35.63,8.75,33.51,5.54,31.7,4Z" transform="translate(-5.38 -0.04)"/>
    </g>
  </g>
</svg>
