<svg id="레이어_1" data-name="레이어 1" xmlns="http://www.w3.org/2000/svg" viewBox="0 0 39.91 37.55">
  <defs>
    <style>
      .cls-1 {
        fill: #e3ca95;
      }

      .cls-1, .cls-2, .cls-3 {
        fill-rule: evenodd;
      }

      .cls-2 {
        fill: #576d64;
      }
    </style>
  </defs>
  <title>1</title>
  <g>
    <polygon class="cls-1" points="3.54 9.72 35.42 0.71 37.6 6.46 7.29 14.6 3.54 9.72"/>
    <polygon class="cls-2" points="25.44 3.64 30.59 8.06 35.42 6.93 30.18 2.43 25.44 3.64"/>
    <polygon class="cls-2" points="8.23 15.44 11.75 19.06 12.02 20.53 39.29 20.05 38.94 14.59 7.99 15.2 8.23 15.44"/>
    <polygon class="cls-1" points="36.46 14.7 33.06 20.17 39.43 20.17 39.16 14.95 36.46 14.7"/>
    <polygon class="cls-2" points="17.16 5.87 20.81 10.15 25.44 9.04 21.1 4.81 17.16 5.87"/>
    <polygon class="cls-1" points="26.33 14.77 23.05 20.5 27.96 20.35 30.7 15.09 26.33 14.77"/>
    <polygon class="cls-1" points="16.51 14.7 13.52 20.5 18.59 20.5 21.1 14.77 16.51 14.7"/>
    <polygon class="cls-1" points="8.47 15.44 12.09 15.36 10.86 18.23 8.47 15.44"/>
    <polygon class="cls-2" points="1.32 9.25 0.59 19.78 1.91 20.66 11.74 20.38 11.92 19.08 2.25 9.52 1.32 9.25"/>
    <polygon class="cls-2" points="7.52 8.84 11.74 12.83 16.51 11.71 12.01 7.33 7.52 8.84"/>
    <polygon class="cls-1" points="2.27 20.69 2.06 33.19 3.43 36.34 4.97 36.91 36.94 36.34 38.04 34.78 37.6 20.22 2.27 20.69"/>
    <path class="cls-2" d="M9.35,8.9a9.89,9.89,0,0,1-.69,1.43c-.24.39-.63,1.11,0,1.37s.94-.38,1.16-.81a10.93,10.93,0,0,0,.65-1.54C10.7,8.7,9.61,8.26,9.35,8.9Z" transform="translate(0 -1.01)"/>
    <path class="cls-2" d="M11.33,8.5c-.29.65-.57,1.32-.84,2A4.5,4.5,0,0,0,10,12.34a.58.58,0,0,0,1,.39,4.4,4.4,0,0,0,.72-1.64q.36-1,.75-2C12.72,8.37,11.66,7.76,11.33,8.5Z" transform="translate(0 -1.01)"/>
    <path class="cls-2" d="M12.72,9.74l-.76,2c-.22.57-.63,1.18-.39,1.78a.52.52,0,0,0,.76.29c.59-.31.67-1,.86-1.63s.47-1.4.7-2.11S13,9,12.72,9.74Z" transform="translate(0 -1.01)"/>
    <path class="cls-2" d="M14.74,10.89a.65.65,0,0,0-.77.47,7.17,7.17,0,0,0-.44,1.43.6.6,0,0,0,.36.7.61.61,0,0,0,.75-.27,8.46,8.46,0,0,0,.57-1.55A.65.65,0,0,0,14.74,10.89Z" transform="translate(0 -1.01)"/>
    <path class="cls-2" d="M18.86,6.51c-.13.32-.26.64-.4,1a2.33,2.33,0,0,0-.31,1,.52.52,0,0,0,.89.34,2.35,2.35,0,0,0,.45-.94l.37-1C20.07,6.34,19.1,6,18.86,6.51Z" transform="translate(0 -1.01)"/>
    <path class="cls-2" d="M20.82,6.24c-.25.5-.49,1-.72,1.52a5.27,5.27,0,0,0-.59,1.51.56.56,0,0,0,1,.41,6.93,6.93,0,0,0,.61-1.46c.2-.49.41-1,.62-1.46S21.13,5.6,20.82,6.24Z" transform="translate(0 -1.01)"/>
    <path class="cls-2" d="M21.85,7.64c-.22.58-.45,1.15-.7,1.71a3,3,0,0,0-.49,1.51.53.53,0,0,0,.79.43,3,3,0,0,0,.89-1.55c.24-.6.46-1.2.67-1.81S22.12,6.93,21.85,7.64Z" transform="translate(0 -1.01)"/>
    <path class="cls-2" d="M24,8.89a.6.6,0,0,0-.79.23,4,4,0,0,0-.53,1.52.52.52,0,0,0,.88.34,3.69,3.69,0,0,0,.67-1.29A.62.62,0,0,0,24,8.89Z" transform="translate(0 -1.01)"/>
    <path class="cls-2" d="M27.39,4.2q-.16.46-.36.93a2.07,2.07,0,0,0-.29,1,.48.48,0,0,0,.71.38,1.93,1.93,0,0,0,.61-.94c.14-.36.27-.73.39-1.1C28.67,3.78,27.62,3.54,27.39,4.2Z" transform="translate(0 -1.01)"/>
    <path class="cls-2" d="M29.09,3.57c-.26.73-.51,1.45-.76,2.18s-.56,1.19-.23,1.82a.49.49,0,0,0,.65.16c.6-.29.68-1.08.87-1.66.23-.73.47-1.46.7-2.19S29.35,2.81,29.09,3.57Z" transform="translate(0 -1.01)"/>
    <path class="cls-2" d="M30.48,4.65a12.25,12.25,0,0,0-1.1,3.56.66.66,0,0,0,1.22.3,8.74,8.74,0,0,0,.56-1.73c.19-.61.38-1.21.59-1.81C32,4.16,30.78,3.88,30.48,4.65Z" transform="translate(0 -1.01)"/>
    <path class="cls-2" d="M32.13,6c-.18.46-.35.92-.53,1.39s-.44.9-.12,1.33a.52.52,0,0,0,.58.22c.55-.13.63-.69.78-1.15l.5-1.49C33.59,5.54,32.4,5.27,32.13,6Z" transform="translate(0 -1.01)"/>
    <path class="cls-2" d="M33.35,7.24c-.13.42-.47,1.07-.16,1.47a.48.48,0,0,0,.51.19c.54-.18.59-.91.73-1.38C34.64,6.82,33.55,6.55,33.35,7.24Z" transform="translate(0 -1.01)"/>
    <path class="cls-2" d="M14.19,16.09a18.19,18.19,0,0,0-2.44,4,.67.67,0,0,0,1.12.62,12,12,0,0,0,1.14-2c.39-.69.8-1.37,1.23-2S14.62,15.47,14.19,16.09Z" transform="translate(0 -1.01)"/>
    <path class="cls-2" d="M12.21,16.15a15.64,15.64,0,0,1-.92,1.59,3.45,3.45,0,0,0-.82,1.51.6.6,0,0,0,.77.56,2.72,2.72,0,0,0,1.17-1.33,16.56,16.56,0,0,0,.9-1.72C13.64,16,12.58,15.42,12.21,16.15Z" transform="translate(0 -1.01)"/>
    <path class="cls-2" d="M22.6,15.74a29.65,29.65,0,0,0-1.85,2.63c-.48.78-1.2,1.62-1,2.56a.51.51,0,0,0,.74.29c.75-.39,1-1.5,1.41-2.22a30.39,30.39,0,0,1,1.6-2.61C23.83,15.88,23,15.25,22.6,15.74Z" transform="translate(0 -1.01)"/>
    <path class="cls-2" d="M24.23,15.9c-.6.83-1.19,1.69-1.75,2.56a5.53,5.53,0,0,0-1.17,2.41.52.52,0,0,0,.8.43,6.42,6.42,0,0,0,1.47-2.23c.52-.89,1.06-1.77,1.63-2.63C25.62,15.83,24.64,15.32,24.23,15.9Z" transform="translate(0 -1.01)"/>
    <path class="cls-2" d="M32.42,16C31.3,17.54,30.11,19.09,29,20.7c-.5.77.74,1.43,1.25.69,1.09-1.59,2.07-3.26,3.1-4.89.39-.61-.56-1.1-1-.54Z" transform="translate(0 -1.01)"/>
    <path class="cls-2" d="M34.42,15.85c-.61.91-1.22,1.83-1.85,2.73A10,10,0,0,0,31,21.16c-.13.42.44.91.82.6a9,9,0,0,0,1.75-2.43l1.84-3C35.73,15.77,34.8,15.29,34.42,15.85Z" transform="translate(0 -1.01)"/>
    <path class="cls-2" d="M2.73,11,1.59,12.61a5.5,5.5,0,0,0-1,1.64c-.12.47.46,1,.9.65a5.57,5.57,0,0,0,1.16-1.55l1.14-1.8C4.25,10.87,3.17,10.3,2.73,11Z" transform="translate(0 -1.01)"/>
    <path class="cls-2" d="M4,12.17,2,15a9.45,9.45,0,0,0-1.7,2.67.54.54,0,0,0,.79.58A9.25,9.25,0,0,0,3,15.73l2-3c.4-.59-.55-1.09-1-.53Z" transform="translate(0 -1.01)"/>
    <path class="cls-2" d="M5.23,13.36C3.58,15.65,1.75,17.88.29,20.28c-.41.66.62,1.45,1.11.82,1.77-2.26,3.23-4.8,4.82-7.19C6.63,13.29,5.64,12.78,5.23,13.36Z" transform="translate(0 -1.01)"/>
    <path class="cls-2" d="M6.55,14.69c-.67,1.09-1.37,2.17-2.12,3.22A30.79,30.79,0,0,0,2.18,21a.66.66,0,0,0,1,.77,15.37,15.37,0,0,0,2.25-3.06c.74-1.14,1.43-2.31,2.08-3.5A.57.57,0,0,0,6.55,14.69Z" transform="translate(0 -1.01)"/>
    <path class="cls-2" d="M7.93,16.39c-.61.81-1.2,1.63-1.75,2.49A5.62,5.62,0,0,0,5,21.4a.47.47,0,0,0,.71.39,6.88,6.88,0,0,0,1.44-2.2c.52-.88,1.09-1.73,1.69-2.55C9.17,16.53,8.31,15.89,7.93,16.39Z" transform="translate(0 -1.01)"/>
    <path class="cls-2" d="M8.81,17.94c-.22.49-.47,1-.73,1.43a6.53,6.53,0,0,0-.76,1.36.53.53,0,0,0,.79.57A3.76,3.76,0,0,0,9.05,20a16.57,16.57,0,0,0,.76-1.52C10.11,17.83,9.12,17.27,8.81,17.94Z" transform="translate(0 -1.01)"/>
    <path class="cls-2" d="M10.86,19.25a.57.57,0,0,0-.78.22,8.11,8.11,0,0,0-.83,1.39.46.46,0,0,0,.74.54A9,9,0,0,0,11.08,20,.57.57,0,0,0,10.86,19.25Z" transform="translate(0 -1.01)"/>
    <path class="cls-1" d="M5.93,9.91a.69.69,0,0,0-.8.48c-.23.62-.52,1.26-.7,1.9s.91,1.18,1.24.49.5-1.39.75-2.07A.67.67,0,0,0,5.93,9.91Z" transform="translate(0 -1.01)"/>
    <path class="cls-1" d="M7.08,10.63a15.48,15.48,0,0,0-1,3.15c-.08.71,1,.84,1.27.31a7.34,7.34,0,0,0,.55-1.53L8.44,11C8.72,10.1,7.37,9.78,7.08,10.63Z" transform="translate(0 -1.01)"/>
    <path class="cls-1" d="M8.6,11.43c-.25.65-.5,1.3-.72,2s-.59,1.29-.17,1.84a.6.6,0,0,0,.65.25c.68-.25.72-.88.91-1.5s.44-1.35.68-2-1-1.3-1.35-.53Z" transform="translate(0 -1.01)"/>
    <path class="cls-1" d="M9.84,13.14l-.19.68a.52.52,0,0,0,.95.37l.3-.63A.57.57,0,1,0,9.84,13.14Z" transform="translate(0 -1.01)"/>
    <path class="cls-1" d="M13.65,8c-.11.43-.23.85-.38,1.27s-.37.85-.09,1.25a.58.58,0,0,0,.61.23c.5-.09.65-.65.79-1.07A13,13,0,0,0,15,8.29.67.67,0,0,0,13.65,8Z" transform="translate(0 -1.01)"/>
    <path class="cls-1" d="M15.8,7.55c-.25.7-.49,1.41-.73,2.11s-.55,1.19-.23,1.83a.57.57,0,0,0,.75.18c.6-.3.67-1.07.86-1.66s.45-1.42.68-2.13-1.05-1.16-1.34-.33Z" transform="translate(0 -1.01)"/>
    <path class="cls-1" d="M17.49,8.05,16.78,10a6,6,0,0,0-.54,1.88c0,.49.73.84,1.05.41A5.82,5.82,0,0,0,18,10.46c.23-.7.45-1.4.67-2.1S17.76,7.31,17.49,8.05Z" transform="translate(0 -1.01)"/>
    <path class="cls-1" d="M18.32,10.05l-.2,1a1.17,1.17,0,0,0,.06,1.05.56.56,0,0,0,.74.18c.35-.19.41-.55.48-.91s.13-.64.2-1C19.77,9.54,18.49,9.21,18.32,10.05Z" transform="translate(0 -1.01)"/>
    <path class="cls-1" d="M22.51,5.66c-.11.38-.22.77-.31,1.17a.59.59,0,0,0,1.15.28c.13-.38.24-.77.36-1.16C23.94,5.19,22.71,4.88,22.51,5.66Z" transform="translate(0 -1.01)"/>
    <path class="cls-1" d="M24.45,5.13c-.14.55-.31,1.09-.49,1.63a4,4,0,0,0-.47,1.57.65.65,0,0,0,1.11.43,3.3,3.3,0,0,0,.76-1.53c.2-.58.36-1.16.5-1.75A.73.73,0,0,0,24.45,5.13Z" transform="translate(0 -1.01)"/>
    <path class="cls-1" d="M26.24,6.05c-.18.54-.35,1.08-.5,1.63a4.41,4.41,0,0,0-.28,1.63.65.65,0,0,0,1.21.3A5.33,5.33,0,0,0,27.13,8c.13-.56.28-1.1.45-1.65C27.84,5.52,26.51,5.21,26.24,6.05Z" transform="translate(0 -1.01)"/>
    <path class="cls-1" d="M27.6,7.22l-.33,1.22c-.12.45-.28.81,0,1.24a.61.61,0,0,0,.81.2c.42-.25.46-.67.56-1.1s.21-.82.31-1.23A.68.68,0,0,0,27.6,7.22Z" transform="translate(0 -1.01)"/>
    <path class="cls-1" d="M32.22,2.6c-.41-.05-.66.26-.71.65s-.17.76-.2,1.16.61.65.9.35a2.39,2.39,0,0,0,.56-1.38A.64.64,0,0,0,32.22,2.6Z" transform="translate(0 -1.01)"/>
    <path class="cls-1" d="M33.45,2.16c-.17.56-.35,1.11-.54,1.67a3.53,3.53,0,0,0-.42,1.6.56.56,0,0,0,1,.37,3,3,0,0,0,.68-1.55c.18-.6.33-1.2.48-1.8a.6.6,0,0,0-1.16-.29Z" transform="translate(0 -1.01)"/>
    <path class="cls-1" d="M34.87,2.31,34.25,4.6a10.64,10.64,0,0,0-.5,1.9c0,.5.54.66.9.49.66-.31.74-1.09.9-1.75.2-.86.41-1.74.61-2.61A.66.66,0,0,0,34.87,2.31Z" transform="translate(0 -1.01)"/>
    <path class="cls-1" d="M36.64,4.88a.7.7,0,0,0-.85.51,6.42,6.42,0,0,1-.2,1,1.79,1.79,0,0,0-.08,1,.53.53,0,0,0,.78.3c.64-.36.76-1.29.85-2a.71.71,0,0,0-.5-.84Z" transform="translate(0 -1.01)"/>
    <path class="cls-1" d="M17.3,16.37c-.5.78-1,1.58-1.4,2.41a5.34,5.34,0,0,0-.86,2.3.63.63,0,0,0,1.07.42,7.45,7.45,0,0,0,1.12-2.17c.39-.79.81-1.55,1.26-2.3S17.76,15.64,17.3,16.37Z" transform="translate(0 -1.01)"/>
    <path class="cls-1" d="M19.1,16.44l-1.14,2a8.63,8.63,0,0,0-1,1.93.69.69,0,0,0,1.16.64A8.74,8.74,0,0,0,19.2,19.1l1.05-2A.66.66,0,0,0,19.1,16.44Z" transform="translate(0 -1.01)"/>
    <path class="cls-1" d="M26.38,16c-.35.75-.73,1.49-1.14,2.2a8.53,8.53,0,0,0-1.15,2.06c-.13.55.54,1.13,1,.76a5.58,5.58,0,0,0,1.38-2c.42-.76.79-1.55,1.14-2.35S26.78,15.15,26.38,16Z" transform="translate(0 -1.01)"/>
    <path class="cls-1" d="M26.35,20.09Z" transform="translate(0 -1.01)"/>
    <path class="cls-1" d="M28.65,16.14l-1.26,2.18-.59,1c-.1.17-.2.34-.29.51a1,1,0,0,1-.16.23l.14-.14A.73.73,0,0,0,27,21.17c.77.06,1.12-1.07,1.4-1.6.5-.91,1-1.82,1.48-2.73a.72.72,0,0,0-1.26-.7Z" transform="translate(0 -1.01)"/>
    <path class="cls-1" d="M36.83,16.13l-1.28,2.15a7.79,7.79,0,0,0-1.1,2.07.64.64,0,0,0,1.07.59,7.59,7.59,0,0,0,1.23-2c.41-.73.81-1.46,1.21-2.19A.64.64,0,0,0,36.83,16.13Z" transform="translate(0 -1.01)"/>
    <path class="cls-1" d="M38.49,16.91l-.91,1.71A3,3,0,0,0,37,20.29a.63.63,0,0,0,1,.51c.55-.3.71-.93,1-1.47s.55-1.16.83-1.75C40.09,16.78,38.91,16.11,38.49,16.91Z" transform="translate(0 -1.01)"/>
    <path class="cls-3" d="M11.47,16.19l-.71,1.39c-.24.46-.59.91-.4,1.44a.65.65,0,0,0,.78.42c.56-.19.68-.66.9-1.15l.64-1.43C13,16.06,11.88,15.39,11.47,16.19Z" transform="translate(0 -1.01)"/>
    <path class="cls-1" d="M10.87,16.45a.65.65,0,0,0-.88.25l-.36.76a1.91,1.91,0,0,0-.29.89.62.62,0,0,0,1.06.41,1.78,1.78,0,0,0,.41-.72c.1-.24.21-.47.31-.71A.67.67,0,0,0,10.87,16.45Z" transform="translate(0 -1.01)"/>
    <path class="cls-3" d="M39.76,16.6c-.07-.82-.23-1.25-1.07-1.38a32.1,32.1,0,0,0-4.6,0H29c-6.8,0-13.61,0-20.4.53a152.11,152.11,0,0,1,16.84-4.89.48.48,0,0,0,.51-.12c1.62-.38,3.24-.74,4.86-1.1a.54.54,0,0,0,.63-.13l4.08-.87a.48.48,0,0,0,.42-.09l1.8-.38a.6.6,0,0,0,.4-.75q-1.14-3-2.08-6a.61.61,0,0,0-.75-.4C24.86,4.65,14,7.18,3.39,10a2.26,2.26,0,0,0-2.21-.56,1.14,1.14,0,0,0-.6,1,31.82,31.82,0,0,0-.21,3.66C.3,15.49.22,16.88.14,18.27A9,9,0,0,0,.11,21a1.88,1.88,0,0,0,1.66,1.31c0,2.21-.08,4.41-.11,6.62a29.76,29.76,0,0,0,.15,6.47c.31,1.46,1,2.88,2.62,3.06a57.35,57.35,0,0,0,6.81-.09l15.05-.28L33.66,38c1.25,0,3.92.53,4.75-.75a5.8,5.8,0,0,0,.37-2.83c0-1.38,0-2.78,0-4.17,0-2.78-.14-5.57-.34-8.35h.79a.69.69,0,0,0,.65-.68c0-1.51,0-3.06-.15-4.57ZM35,16.52h.47c-.94,1.19-1.87,2.4-2.69,3.66a.51.51,0,0,0-.09.41l-3.92,0q1.5-2,2.83-4.11Zm-8.26,0h3.49c-.83,1.28-1.72,2.53-2.64,3.76a.6.6,0,0,0-.13.37l-3.32,0a22.18,22.18,0,0,0,2.58-4.12s0,0,0-.05Zm-1.29,0c-.82,1.43-1.8,2.7-2.71,4.08a.36.36,0,0,0,0,.09l-3.48,0a14.73,14.73,0,0,1,1.16-1.93,8.56,8.56,0,0,0,1.28-2.26l3.79,0Zm-5,0C19.71,18,18.2,19.16,18,20.75l-3.45,0c.37-.58.65-1.23,1-1.82.46-.8.94-1.57,1.45-2.33l3.44-.06Zm-4.85.1a13.67,13.67,0,0,0-2.2,4,.38.38,0,0,0,0,.1h-.51v-.22a2.77,2.77,0,0,0-1.1-1.66c-.71-.67-1.42-1.32-2.12-2q3-.17,5.93-.24ZM36.75,7.16l-1.24.26a28.71,28.71,0,0,1-4.36-3.75c1.31-.42,2.62-.84,3.93-1.29q.77,2.42,1.67,4.78ZM30,4c1.31,1.21,2.59,2.62,4,3.71l-3.16.68L26.74,5,30,4ZM25.6,5.34a.28.28,0,0,0,.09.1L29.6,8.69c-1.35.3-2.71.6-4.06.92-1.13-1.11-2.28-2.19-3.42-3.29,1.16-.32,2.32-.64,3.48-1ZM21,6.63a.67.67,0,0,0,.11.14c1.07,1,2.15,2.09,3.23,3.12l-3.18.79a2.91,2.91,0,0,0-.73-.76,6.19,6.19,0,0,1-1.21-1.24,8.52,8.52,0,0,0-1.1-1.28L21,6.63ZM16.88,7.74c.8.32,1.24,1.15,1.75,1.8a5.27,5.27,0,0,0,.78.86c.22.19.5.34.71.55-1.24.33-2.48.66-3.71,1a1.31,1.31,0,0,0-.12-.11,22.34,22.34,0,0,1-3.37-3.09l4-1ZM11.76,9.07s0,0,0,0l2.09,2.08a12.3,12.3,0,0,0,1.23,1.16c-1,.29-2,.6-3,.92A49.64,49.64,0,0,0,8.38,10l3.38-.88ZM7.19,10.26C8.44,11.37,9.66,12.6,11,13.65c-1.09.36-2.18.74-3.26,1.14C6.81,13.66,6,12.49,5,11.45L4.48,11l2.71-.71ZM1.4,20.41a6.67,6.67,0,0,1,.12-2.17l.27-4.76c0-.31-.09-2.22.13-2.37.45-.32,1.05.38,1.44.73a19.87,19.87,0,0,1,2.51,2.9c.8,1,1.63,2,2.52,2.94.51.53,1,1,1.55,1.53.27.25.54.49.82.72a1.06,1.06,0,0,1,.49.84A58.43,58.43,0,0,0,4,21c-.73,0-2.2.27-2.62-.6ZM37.49,35.9c-.39,1-1,.78-1.79.79L19.77,37l-7.67.12L8,37.14c-1.08,0-3.19.43-4.07-.2-1.65-1.17-1-5.47-.95-7.17q.07-3.69.14-7.38l1-.05a56.57,56.57,0,0,1,7-.32,1.13,1.13,0,0,0,.74.07.69.69,0,0,0,.25,0q12.62-.12,25.22-.26c.18,2.68.3,5.38.32,8.07,0,1.29,0,2.59,0,3.88a7.23,7.23,0,0,1-.06,2.08Zm1-16.85c0,.49,0,1,0,1.48l-4.69,0c.89-1.23,1.77-2.47,2.7-3.67a.59.59,0,0,0,.13-.39h1.35c.58-.18.71-.05.41.38A8.46,8.46,0,0,1,38.52,19.05Z" transform="translate(0 -1.01)"/>
    <path class="cls-2" d="M7.52,9.56" transform="translate(0 -1.01)"/>
  </g>
</svg>
