<svg id="레이어_1" data-name="레이어 1" xmlns="http://www.w3.org/2000/svg" viewBox="0 0 39.67 39.93">
  <defs>
    <style>
      .cls-1, .cls-5 {
        fill: #576d64;
      }

      .cls-2, .cls-6 {
        fill: #ec331e;
      }

      .cls-3, .cls-7 {
        fill: #ff9500;
      }

      .cls-4, .cls-8 {
        fill: #518c21;
      }

      .cls-5, .cls-6, .cls-7, .cls-8, .cls-9 {
        fill-rule: evenodd;
      }
    </style>
  </defs>
  <title>1</title>
  <g>
    <rect class="cls-1" x="0.96" y="35.75" width="37.85" height="3.04" rx="0.18"/>
    <rect class="cls-2" x="2.66" y="19.11" width="8.93" height="14.31" rx="2.19"/>
    <rect class="cls-3" x="15.31" y="1.26" width="9.07" height="32.54" rx="2.12"/>
    <rect class="cls-4" x="28.46" y="10.21" width="8.76" height="23.93" rx="2.2"/>
    <path class="cls-5" d="M2.43,36l-.69,1c-.21.3-.56.61-.61,1a.4.4,0,0,0,.59.43c.35-.16.56-.62.76-.93s.47-.71.7-1.07S2.73,35.5,2.43,36Z" transform="translate(-0.16)"/>
    <path class="cls-5" d="M4.07,36.3a14.1,14.1,0,0,0-1,1.65c-.17.38.32.81.63.45A12.69,12.69,0,0,0,4.8,36.71C5.1,36.25,4.36,35.85,4.07,36.3Z" transform="translate(-0.16)"/>
    <path class="cls-5" d="M6.41,35.92a11.37,11.37,0,0,0-1.32,1.93c-.18.38.32.81.62.46.48-.56.85-1.22,1.29-1.82C7.31,36.07,6.73,35.51,6.41,35.92Z" transform="translate(-0.16)"/>
    <path class="cls-5" d="M8.29,36.22A13.4,13.4,0,0,0,7.22,38.1c-.14.36.3.81.6.44A15.13,15.13,0,0,0,9,36.6.4.4,0,0,0,8.29,36.22Z" transform="translate(-0.16)"/>
    <path class="cls-5" d="M10.46,36.06a19.26,19.26,0,0,0-1.11,1.85c-.16.36.32.79.6.44a19.62,19.62,0,0,0,1.2-1.9C11.41,36,10.72,35.64,10.46,36.06Z" transform="translate(-0.16)"/>
    <path class="cls-5" d="M12.23,36.36a13.17,13.17,0,0,0-.86,1.45c-.16.37.32.81.62.45a13.79,13.79,0,0,0,1-1.51C13.23,36.3,12.5,35.9,12.23,36.36Z" transform="translate(-0.16)"/>
    <path class="cls-5" d="M14.52,36.11a13.18,13.18,0,0,0-1.21,1.8.38.38,0,0,0,.6.44A13.29,13.29,0,0,0,15.2,36.5C15.49,36.08,14.8,35.7,14.52,36.11Z" transform="translate(-0.16)"/>
    <path class="cls-5" d="M16.52,36.15c-.37.67-.84,1.28-1.19,2a.38.38,0,0,0,.6.44,7.85,7.85,0,0,0,1.31-2A.41.41,0,0,0,16.52,36.15Z" transform="translate(-0.16)"/>
    <path class="cls-5" d="M18.57,36.12c-.4.63-.88,1.26-1.22,1.93-.17.36.32.78.59.44a22.18,22.18,0,0,0,1.31-2C19.51,36.07,18.84,35.71,18.57,36.12Z" transform="translate(-0.16)"/>
    <path class="cls-5" d="M20.43,36.26c-.35.68-.83,1.28-1.18,2a.37.37,0,0,0,.59.44,6.7,6.7,0,0,0,1.3-2C21.37,36.18,20.67,35.78,20.43,36.26Z" transform="translate(-0.16)"/>
    <path class="cls-5" d="M22.48,36.22c-.2.32-.4.64-.59,1a3.78,3.78,0,0,0-.51,1,.35.35,0,0,0,.59.33,4,4,0,0,0,.62-.9c.19-.32.38-.65.58-1S22.74,35.79,22.48,36.22Z" transform="translate(-0.16)"/>
    <path class="cls-5" d="M24.46,36.27c-.38.68-.88,1.27-1.29,1.92-.25.39.31.76.62.46a8.47,8.47,0,0,0,1.35-2A.39.39,0,0,0,24.46,36.27Z" transform="translate(-0.16)"/>
    <path class="cls-5" d="M26.36,36.31c-.33.59-.77,1.11-1.1,1.7-.23.38.3.74.61.44a6.92,6.92,0,0,0,1.21-1.75A.41.41,0,0,0,26.36,36.31Z" transform="translate(-0.16)"/>
    <path class="cls-5" d="M28.3,36.21q-.3.54-.63,1a3.89,3.89,0,0,0-.61,1,.34.34,0,0,0,.5.36,2.68,2.68,0,0,0,.78-.92A11.19,11.19,0,0,0,29,36.6.4.4,0,0,0,28.3,36.21Z" transform="translate(-0.16)"/>
    <path class="cls-5" d="M30.22,36.55A14.46,14.46,0,0,0,29,38.45a.36.36,0,0,0,.58.43,14.73,14.73,0,0,0,1.37-1.94C31.21,36.51,30.51,36.13,30.22,36.55Z" transform="translate(-0.16)"/>
    <path class="cls-5" d="M32.29,36.26c-.5.71-1.07,1.4-1.5,2.16-.24.42.38.91.7.51.57-.7,1-1.51,1.54-2.27C33.33,36.21,32.6,35.82,32.29,36.26Z" transform="translate(-0.16)"/>
    <path class="cls-5" d="M33.91,36.45a12.85,12.85,0,0,0-1,1.64c-.16.38.32.83.63.46a13.53,13.53,0,0,0,1.09-1.69C35,36.39,34.2,36,33.91,36.45Z" transform="translate(-0.16)"/>
    <path class="cls-5" d="M36,36.46a11.51,11.51,0,0,0-1.15,1.81c-.14.35.27.72.57.41a11.73,11.73,0,0,0,1.26-1.84C36.92,36.42,36.24,36.05,36,36.46Z" transform="translate(-0.16)"/>
    <path class="cls-6" d="M5.65,20.09c-.45.66-.92,1.29-1.42,1.91a15.4,15.4,0,0,0-1.35,1.65c-.24.4.3,1,.69.66a9,9,0,0,0,1.59-1.78c.49-.63,1-1.27,1.4-1.94S6,19.55,5.65,20.09Z" transform="translate(-0.16)"/>
    <path class="cls-6" d="M7.77,20q-1.24,1.76-2.56,3.45A23.33,23.33,0,0,0,3,26.31c-.2.39.28,1,.66.63a16.67,16.67,0,0,0,2.63-3.11c.82-1.09,1.62-2.21,2.39-3.34C9.06,19.94,8.15,19.45,7.77,20Z" transform="translate(-0.16)"/>
    <path class="cls-6" d="M9.46,20.5,6.24,24.72a29.86,29.86,0,0,0-2.84,3.9.51.51,0,0,0,.81.59c2.33-2.25,4.12-5.34,6.05-7.94C10.69,20.7,9.89,19.93,9.46,20.5Z" transform="translate(-0.16)"/>
    <path class="cls-6" d="M11,21.33c-2.4,3.42-5.39,6.7-7.4,10.36a.47.47,0,0,0,.75.55c2.93-3,5.15-7,7.49-10.45C12.19,21.28,11.36,20.84,11,21.33Z" transform="translate(-0.16)"/>
    <path class="cls-6" d="M10.77,24.65c-1,1.53-2.07,3-3.19,4.48-.93,1.2-2,2.32-2.83,3.61-.31.49.39.9.77.56,2.46-2.15,4.4-5.41,6.17-8.14C12.06,24.59,11.13,24.09,10.77,24.65Z" transform="translate(-0.16)"/>
    <path class="cls-6" d="M11,27.73c-1.37,1.74-3,3.34-4.26,5.14-.36.51.42,1,.82.61a33.63,33.63,0,0,0,4.23-5C12.25,27.94,11.46,27.17,11,27.73Z" transform="translate(-0.16)"/>
    <path class="cls-6" d="M10.86,30.89a22,22,0,0,0-2.17,2.55c-.31.46.36.82.72.53a22.35,22.35,0,0,0,2.2-2.36C12.06,31.11,11.31,30.39,10.86,30.89Z" transform="translate(-0.16)"/>
    <path class="cls-7" d="M18.49,1.53A31,31,0,0,0,15.2,6.76c-.19.47.37,1,.76.57a49.13,49.13,0,0,0,3.53-5.25C19.9,1.47,18.9.92,18.49,1.53Z" transform="translate(-0.16)"/>
    <path class="cls-7" d="M21.11,1.14,17.79,5.76a14.49,14.49,0,0,0-2.44,3.88.46.46,0,0,0,.78.43,30.47,30.47,0,0,0,2.74-3.72L22.14,1.7C22.58,1.08,21.55.54,21.11,1.14Z" transform="translate(-0.16)"/>
    <path class="cls-7" d="M23.07,2c-2.68,3.41-6,7-8,10.88-.22.46.37.93.73.54a46.56,46.56,0,0,0,3.56-4.8c1.44-2,2.91-4,4.41-5.9C24.22,2.21,23.48,1.49,23.07,2Z" transform="translate(-0.16)"/>
    <path class="cls-7" d="M23.57,4.35c-2.4,3.51-5.35,6.7-7.62,10.27-.29.46.37.88.73.54,3.05-2.88,5.46-6.85,7.78-10.31C24.83,4.3,23.94,3.82,23.57,4.35Z" transform="translate(-0.16)"/>
    <path class="cls-7" d="M23.9,7.5c-2.88,3.59-6,7.08-8.65,10.88-.32.47.42,1,.8.58,3.09-3.35,5.76-7.18,8.59-10.75C25.05,7.69,24.31,7,23.9,7.5Z" transform="translate(-0.16)"/>
    <path class="cls-7" d="M24.11,10.78c-2.71,3.74-5.85,7.15-8.55,10.87-.31.43.36.86.71.52C19.58,19,22.3,15,25,11.26,25.35,10.74,24.48,10.28,24.11,10.78Z" transform="translate(-0.16)"/>
    <path class="cls-7" d="M23.87,14.36c-2.8,3.28-5.85,6.46-8.4,9.93-.38.51.27,1.19.74.7,3-3.09,5.62-6.63,8.39-9.93C25,14.56,24.29,13.86,23.87,14.36Z" transform="translate(-0.16)"/>
    <path class="cls-7" d="M23.84,17.67q-2.4,2.52-4.73,5.14a28.64,28.64,0,0,0-4,4.93c-.25.46.33.81.69.51a43.93,43.93,0,0,0,4.37-4.95q2.19-2.49,4.46-4.89A.54.54,0,0,0,23.84,17.67Z" transform="translate(-0.16)"/>
    <path class="cls-7" d="M23.86,20.79c-2.83,3.09-6,6.06-8.51,9.38a.49.49,0,0,0,.71.68c3.05-2.87,5.7-6.27,8.5-9.39C25,21,24.28,20.33,23.86,20.79Z" transform="translate(-0.16)"/>
    <path class="cls-7" d="M23.75,23.79c-1.28,1.52-2.6,3-4,4.43a28.18,28.18,0,0,0-3.77,4c-.25.38.25.77.59.57a18,18,0,0,0,4-3.76c1.35-1.45,2.65-3,3.9-4.5C24.89,24,24.17,23.3,23.75,23.79Z" transform="translate(-0.16)"/>
    <path class="cls-7" d="M23.76,26.36l-3.07,3.39A19.82,19.82,0,0,0,18,33c-.25.43.29,1,.72.68a19.77,19.77,0,0,0,2.88-3l3-3.43C25.1,26.61,24.27,25.81,23.76,26.36Z" transform="translate(-0.16)"/>
    <path class="cls-7" d="M23.89,29.05c-.65.81-1.32,1.59-2,2.35a15.56,15.56,0,0,0-2,2.15c-.29.46.3.93.73.69a8.88,8.88,0,0,0,2.12-2c.69-.77,1.35-1.57,2-2.39C25.14,29.26,24.34,28.48,23.89,29.05Z" transform="translate(-0.16)"/>
    <path class="cls-8" d="M32.12,10.51l-2.07,2.28A14.94,14.94,0,0,0,28.19,15c-.25.43.31,1,.74.7a15.6,15.6,0,0,0,2-2.08l2-2.3C33.44,10.75,32.61,10,32.12,10.51Z" transform="translate(-0.16)"/>
    <path class="cls-8" d="M36.05,11.44c-1.33,1.5-2.67,3-4,4.47A36.73,36.73,0,0,0,28.34,20c-.29.44.33,1.06.76.73a30,30,0,0,0,3.82-4q2-2.25,4-4.53C37.37,11.68,36.55,10.89,36.05,11.44Z" transform="translate(-0.16)"/>
    <path class="cls-8" d="M37,13.34c-1.32,1.51-2.67,3-4.05,4.45S30,20.56,28.73,22.12c-.32.41.14,1.15.64.78,3.17-2.34,5.82-5.82,8.37-8.8C38.2,13.56,37.42,12.8,37,13.34Z" transform="translate(-0.16)"/>
    <path class="cls-8" d="M37.76,15.59c-2.79,2.88-6,5.68-8.44,8.89a.51.51,0,0,0,.74.71c3.09-2.56,5.71-6,8.45-8.88A.52.52,0,0,0,37.76,15.59Z" transform="translate(-0.16)"/>
    <path class="cls-8" d="M37.76,18.47c-3.06,3.34-6.64,6.23-9.63,9.6-.37.42.15,1.15.65.79,3.65-2.58,6.77-6.34,9.72-9.67C39,18.69,38.21,18,37.76,18.47Z" transform="translate(-0.16)"/>
    <path class="cls-8" d="M37.68,21.4c-1.5,1.63-3,3.22-4.65,4.75s-3.45,2.84-4.9,4.46a.54.54,0,0,0,.67.83,29.44,29.44,0,0,0,4.86-4.21c1.69-1.61,3.29-3.3,4.84-5C39,21.64,38.18,20.86,37.68,21.4Z" transform="translate(-0.16)"/>
    <path class="cls-8" d="M37.15,24.76q-1.9,1.88-3.92,3.65c-1.33,1.17-2.85,2.19-4.07,3.47a.52.52,0,0,0,.65.8c3-1.73,5.7-4.7,8.14-7.16C38.45,25,37.65,24.26,37.15,24.76Z" transform="translate(-0.16)"/>
    <path class="cls-8" d="M37.12,26.84c-2.07,2.22-4.51,4.1-6.55,6.33a.55.55,0,0,0,.68.84A36.46,36.46,0,0,0,38,27.66C38.5,27.1,37.64,26.28,37.12,26.84Z" transform="translate(-0.16)"/>
    <path class="cls-8" d="M36.66,30.27a29.2,29.2,0,0,0-2.83,2.95c-.3.4.13,1.14.63.77a31,31,0,0,0,3-2.91C38,30.54,37.19,29.73,36.66,30.27Z" transform="translate(-0.16)"/>
    <path class="cls-9" d="M39.28,35.48q-9.56-.18-19.1-.27c-6.36-.07-12.75-.33-19.1-.19a.58.58,0,0,0-.59.65.58.58,0,0,0-.28.74,2.38,2.38,0,0,1,.12.92,7.89,7.89,0,0,0-.17,1,.63.63,0,0,0,1,.45C7.45,39,13.75,39,20,39.05c6.06.1,12.13.23,18.2.23a.51.51,0,0,0,.17.43s0,0,.07,0a.63.63,0,0,0,.59.14c.6-.25.62-.74.62-1.32s0-1.4,0-2.1a.58.58,0,0,0-.38-1ZM38.81,18.7c-.07,3.32-.17,6.65-.23,10,0,1.76.28,4.15-1.2,5.45s-4.35,1.07-6.15.7c-5.39-1.14-3.7-7.43-3.58-11.42.08-2.84,0-5.65,0-8.48,0-1.8.29-3.81,2-4.79s4.49-.86,6.26-.3a3.82,3.82,0,0,1,2.58,2.42c.88,1.89.41,4.5.37,6.44Zm-1.6,0c0-2.11.51-4.72-.41-6.69,0,0,0-.09,0-.13-1.44-1.37-4.95-1.32-6.38-.5-1.84,1.05-1.2,4.3-1.15,6,.06,2.49,0,5-.05,7.49-.06,1.95-.67,4.51-.06,6.4.51,1.61,2.26,2,3.74,2.08a6.48,6.48,0,0,0,3-.24c1.18-.62,1.05-2,1.08-3.17s.06-2.57.09-3.87q.06-3.69.14-7.4ZM25,2.06c.67,1.79.45,3.78.44,5.66s0,3.86,0,5.79q0,6.12-.08,12.24c0,1.78,0,3.58,0,5.36a3.38,3.38,0,0,1-.93,2.45c-1.66,1.64-4.59,1.21-6.69,1-2.45-.29-3.13-2.27-3.15-4.48,0-3.35.11-6.71.17-10l.18-10.69c0-2.39-.66-6.19,1.3-8C17.85-.28,20.8-.21,22.9.41A3.17,3.17,0,0,1,24.67,1.7a.66.66,0,0,1,.31.36ZM24,7.75a22.42,22.42,0,0,0-.21-5.18,2.5,2.5,0,0,0-1.87-1c-1.49-.19-3.38-.39-4.6.65s-.94,3.54-1,5.15,0,3.22-.08,4.83c-.1,6.07-.51,12.23-.28,18.3a3.08,3.08,0,0,0,.64,2.16c.67.65,1.87.48,2.73.53,1.66.09,4.16.43,4.47-1.81a32.16,32.16,0,0,0,0-4.28c0-1.72,0-3.43,0-5.15,0-3.22,0-6.44.06-9.66l0-4.51ZM12.56,21.21c-.17-1.54-1.27-2.85-2.91-2.46l-.06,0c-1.83-.06-4.67-.59-6.14.64-1.27,1.06-1.25,2.93-1.24,4.45,0,2.75,0,5.5.06,8.25,0,1.84.89,2.3,2.62,2.34,1.35,0,2.72,0,4.08,0a5.35,5.35,0,0,0,2.29-.3c1.72-.91,1.23-3.76,1.25-5.3a66.46,66.46,0,0,0,.05-7.6ZM10.88,32c-.49,1.08-1.58.84-2.53.87l-1.75,0c-.48,0-1.94.23-2.34,0-.86-.57-.42-3.12-.43-4.13,0-1.63,0-3.26,0-4.89,0-1.43-.24-3.14,1.56-3.58a17.85,17.85,0,0,1,4-.12.61.61,0,0,0,.52.16c1.73-.22,1.13,3.93,1.11,4.86,0,1.45,0,2.89-.05,4.34a7.73,7.73,0,0,1-.07,2.5Zm-9.34,4.3c6.21.25,12.46.13,18.67.19s12.14.12,18.2.14c0,.37,0,.75,0,1.12V38c-6.14-.2-12.29-.27-18.43-.37s-12.2-.36-18.3-.3A4.1,4.1,0,0,0,1.54,36.28Z" transform="translate(-0.16)"/>
  </g>
</svg>
