<svg id="레이어_1" data-name="레이어 1" xmlns="http://www.w3.org/2000/svg" viewBox="0 0 26.62 40">
  <defs>
    <style>
      .cls-1 {
        fill: #1e1e29;
      }

      .cls-2 {
        fill: #e8e8e8;
      }

      .cls-3 {
        fill: #e62628;
      }

      .cls-4 {
        fill: #313142;
      }

      .cls-5 {
        opacity: 0.1;
      }

      .cls-6 {
        fill: #f5f5f5;
      }

      .cls-7 {
        fill: #ed5a39;
      }

      .cls-8 {
        fill: #4f3023;
      }

      .cls-9 {
        fill: #ff875d;
      }

      .cls-10, .cls-16 {
        fill: #cf2400;
      }

      .cls-10, .cls-15 {
        opacity: 0.4;
      }

      .cls-11 {
        fill: #693a27;
      }

      .cls-12 {
        fill: #121b21;
      }

      .cls-13 {
        fill: #ffa180;
      }

      .cls-14 {
        fill: #7d8ba8;
      }

      .cls-17 {
        fill: #8f1c18;
      }

      .cls-18 {
        fill: #fff9f0;
      }

      .cls-19 {
        fill: #e8dac5;
      }
    </style>
  </defs>
  <title>1</title>
  <g>
    <path class="cls-1" d="M8.41,40h5.25l.7-8.74C9.76,32.62,8.8,33.14,8.41,40Z" transform="translate(-6.37 0)"/>
    <path class="cls-1" d="M26.61,31.26l.7,8.74h5.25C32.17,33.14,31.22,32.62,26.61,31.26Z" transform="translate(-6.37 0)"/>
    <path class="cls-2" d="M26.25,31.92c-1.45-3.55-9.18-2.51-11.23-.79s-2.6,3.79.46,6.82A18.15,18.15,0,0,0,18,40H22C23.89,38,27.11,34,26.25,31.92Z" transform="translate(-6.37 0)"/>
    <path class="cls-3" d="M22.14,34.58a1.76,1.76,0,0,0-2-.91,1.87,1.87,0,0,0-1.54,1.42l1.11,1.13L18.58,40H23l-1.49-4Z" transform="translate(-6.37 0)"/>
    <g>
      <path class="cls-1" d="M15,31.49a3,3,0,0,1,.37-.71c-1.63.7-3.18,1.77-3.6,3.27-.36,1.31.27,3.78.71,6h7.67C18.38,38.36,14,33.94,15,31.49Z" transform="translate(-6.37 0)"/>
      <path class="cls-1" d="M27.63,32.05a5.72,5.72,0,0,0-1.72-1.21,1.47,1.47,0,0,1,.1.69C25.69,35,22.73,38.59,21.43,40h6.35c0-.09,0-.19,0-.27C28.35,36.92,29.81,34.38,27.63,32.05Z" transform="translate(-6.37 0)"/>
    </g>
    <path class="cls-4" d="M27.59,37.25a18.35,18.35,0,0,0-1.36-2.17l2.37-1.34a10.16,10.16,0,0,0-3.31-3.46c.5,4.55-2.61,8.28-3.88,9.72h1.21c.38-.28.81-.57,1.26-.84C25.61,38.15,27.63,37.43,27.59,37.25Z" transform="translate(-6.37 0)"/>
    <path class="cls-4" d="M15.46,30.7a7.23,7.23,0,0,0-3.32,3.47L15,35.23A24.09,24.09,0,0,0,13.71,38c0,.23,2.11.15,4.77,1.52a9.57,9.57,0,0,1,.85.53h.91C18.85,38.78,15.46,35.61,15.46,30.7Z" transform="translate(-6.37 0)"/>
    <path class="cls-5" d="M23,31.66c-1.59-.84-8-1.05-7.32,1.27a6.73,6.73,0,0,0,2.62,3.47l2.15-2.06,2.3,1.95a9.79,9.79,0,0,0,2.8-3.87A5.17,5.17,0,0,1,23,31.66Z" transform="translate(-6.37 0)"/>
    <path class="cls-6" d="M15.34,30.82c-1.07,2.74,2.82,5,2.82,5l2.31-1.45,2.17,1.36s4.27-2.23,2.65-5.42C23.84,27.4,16.58,27.63,15.34,30.82Z" transform="translate(-6.37 0)"/>
    <path class="cls-7" d="M18.78,27a3.24,3.24,0,0,0-2.39,3,2.51,2.51,0,0,0,.68,2.24,4.54,4.54,0,0,0,1.83,1.06c.5.16,1.39.76,1.55.76s.36-.25.84-.5a4.67,4.67,0,0,0,2.08-1.61c.57-1.11,1.08-3.32,0-4.18A6.21,6.21,0,0,0,18.78,27Z" transform="translate(-6.37 0)"/>
    <g>
      <path class="cls-8" d="M30.22,15.31c0-3.48-.43-4.73-.34-6.14.38-6-4.63-10.08-13-8.94-14.61,2-11,22.32-6.88,21.19,3.06-.82,6-1.88,9.07-2.82,2.81-.88,6-.51,8.93-.48C30.31,18.15,30.22,17.18,30.22,15.31Z" transform="translate(-6.37 0)"/>
      <path class="cls-9" d="M10.34,21.17c1.05,5.43,5.59,11.19,11.89,10.38s9.19-9.06,8-15.74C28.89,8.55,25.1,2.64,17.64,4.55,12.31,5.92,9,13.92,10.34,21.17Z" transform="translate(-6.37 0)"/>
      <path class="cls-9" d="M9.17,23.59a5.06,5.06,0,0,0,2.15.11l0-.06c.29-.53-.42-3.08-.61-3.6-.49-1.32-1.21-2.23-2.46-1.81C5.69,19.12,7,22.94,9.17,23.59Z" transform="translate(-6.37 0)"/>
      <path class="cls-10" d="M29.47,12.72c-.63-2.1-2.64-1.35-5.18-.94-4,.65-8.71,1-11.89-.17.17,2.09-1.41,2.94-2,5-.33,1.12-.62-4-.63-4.63,0-1.76,0-4.14,1.27-5.49,1.63-1.68,4.85-1.74,7-1.82,3.22-.13,4.73.55,7.74,1.56C27.87,6.91,29.7,10.84,29.47,12.72Z" transform="translate(-6.37 0)"/>
      <path class="cls-10" d="M10.14,22.57c.93-.66-.09-2.67-.84-3S7.23,20,8,21.08c.31-1.11,1-.44.94.34,0,.52-.59.56,0,1.19C9.26,23,9.85,22.78,10.14,22.57Z" transform="translate(-6.37 0)"/>
      <path class="cls-8" d="M28,10c-8.31,2.29-15.13,1.42-16.12.61.25,1.72-.33,2.66-.69,4-.65,2.34-.12,4.77.9,5.62a2.53,2.53,0,0,1-1.45.07,6.83,6.83,0,0,1-1.28-3.06C9.23,15.85,4.53,4.7,15.07.81,22.77-2,28.73,3.75,32,.76c.09,1.85.09,4.39-1.06,5.75.84-.16,1.34-.29,2-.36A8.07,8.07,0,0,1,28,10Z" transform="translate(-6.37 0)"/>
      <path class="cls-11" d="M31.61,1.47s-1.54,6.77-10.9,7.46c-10.25.77-13-1.81-10.19-5.16S19.22.17,23.13,1,28.9,3,31.61,1.47Z" transform="translate(-6.37 0)"/>
    </g>
    <g>
      <path class="cls-10" d="M15.7,18.36c.74-.62-1.49-.7-1.83-.6,0,.44,1,.22,1.32.3-.26.27-1,.27-1.35.45s-.3.33.1.32A7.24,7.24,0,0,0,15.7,18.36Z" transform="translate(-6.37 0)"/>
      <path class="cls-10" d="M27.77,17.48c-.58-.59,1.28-.74,1.56-.66,0,.44-.86.26-1.12.34.21.26.86.24,1.12.41s.24.32-.1.32A5.1,5.1,0,0,1,27.77,17.48Z" transform="translate(-6.37 0)"/>
      <path class="cls-12" d="M17.13,18.77a5,5,0,0,0-1.77-.19c-1.27-.62-.34-2.17,1.48-1.65C18.2,17.31,18.29,18.54,17.13,18.77Z" transform="translate(-6.37 0)"/>
      <path class="cls-10" d="M24.13,19.64c.34.25-.26,1.26-1.7,1.42s-2.3-.8-1.76-1.1.9-.06,1.71-.13S23.73,19.35,24.13,19.64Z" transform="translate(-6.37 0)"/>
      <path class="cls-13" d="M24.15,19.74c.21-.19-.13-.67-.26-.83-.32-.4-.72-.38-1.25-.54.19.06.95-.5,1-.66.05-.33-1-.26-1.3-.23a.22.22,0,0,0,0-.4c-.22-.16-.71,0-.94,0-.67.2-.56.47-.06.72-.25,0-.95,0-1,.28s.6.44.84.54c-.2.27-.51.31-.61.67s-.05.71.25.87A4,4,0,0,0,24.15,19.74Z" transform="translate(-6.37 0)"/>
      <path class="cls-12" d="M27.57,15.94a1,1,0,0,1,.54,1.68,3.2,3.2,0,0,0-1.45.39C24.68,17.9,25.74,15.52,27.57,15.94Z" transform="translate(-6.37 0)"/>
      <path class="cls-14" d="M16.84,17.25c.48-.09.82.43.44.6S16.3,17.35,16.84,17.25Z" transform="translate(-6.37 0)"/>
      <path class="cls-14" d="M27.52,16.22c.48-.1.75.39.37.57S27,16.34,27.52,16.22Z" transform="translate(-6.37 0)"/>
      <g class="cls-15">
        <path class="cls-16" d="M27.92,21.87a3,3,0,0,0-1.17-.48,17.18,17.18,0,0,0-7.42.33c-3.8,1-4.95,4.78-2.66,6.79s8.28,3.19,9.93-.6c.75-1.72.42-5.56.34-5.54C27.17,22.32,28,22,27.92,21.87Z" transform="translate(-6.37 0)"/>
      </g>
      <path class="cls-8" d="M28.27,14.36c.32-.12.66-.46.53-.52-.47-.24-1.21-.6-2.6.41a10.11,10.11,0,0,0-1.53,1.29c-.15.77.59,2.11,1.08,1.28A5.33,5.33,0,0,1,28.27,14.36Z" transform="translate(-6.37 0)"/>
      <path class="cls-8" d="M14.84,16.27a3,3,0,0,1-1.22-2c.92.38.92,1,2.69,1.48a9.44,9.44,0,0,0,2.46.09,1.35,1.35,0,0,1-1.38,1.29A4.39,4.39,0,0,1,14.84,16.27Z" transform="translate(-6.37 0)"/>
      <path class="cls-17" d="M16.86,23.51c2.49-1.58,7.87-2.19,10.23-1.52a1.09,1.09,0,0,1-.56.15,14.48,14.48,0,0,1,.18,3.77c-.11,2.47-1.32,3.72-3.49,4s-5.13-.1-6.7-2.09C15.64,26.69,15.86,24.15,16.86,23.51Z" transform="translate(-6.37 0)"/>
      <path class="cls-18" d="M16.86,23.51a1.62,1.62,0,0,0,1.78,1.09A30.21,30.21,0,0,1,24.58,24c1.29,0,.94-2.22.94-2.22S20.36,21.26,16.86,23.51Z" transform="translate(-6.37 0)"/>
      <path class="cls-18" d="M18,28.86c-.16-.28.07-.65.77-.47a13.28,13.28,0,0,0,4.05.11c1.71-.18,2.2-.69,2.55-.41s-.83,1.79-3.59,1.85C18.64,30,18,28.86,18,28.86Z" transform="translate(-6.37 0)"/>
      <path class="cls-10" d="M29.46,19a1.38,1.38,0,0,1,.26.36c.67,1.39-2.73,1.56-3.25,1-1-1,.07-1.56.91-1.71A2.41,2.41,0,0,1,29.46,19Z" transform="translate(-6.37 0)"/>
      <path class="cls-10" d="M17,19.74a1.17,1.17,0,0,1,.28.37c.75,1.43-2.81,1.73-3.37,1.16-1.06-1.06,0-1.64.89-1.83A2.55,2.55,0,0,1,17,19.74Z" transform="translate(-6.37 0)"/>
      <path class="cls-19" d="M17.27,24.16S22.84,21,25.56,22.6a3.54,3.54,0,0,0,0-.86s-5.28-.53-8.66,1.77A1.4,1.4,0,0,0,17.27,24.16Z" transform="translate(-6.37 0)"/>
      <path class="cls-19" d="M18.8,28.56a13.56,13.56,0,0,0,6.1-.39A6.44,6.44,0,0,1,18.8,28.56Z" transform="translate(-6.37 0)"/>
    </g>
  </g>
</svg>
