<svg xmlns="http://www.w3.org/2000/svg" xmlns:xlink="http://www.w3.org/1999/xlink" viewBox="0 0 40 40">
  <defs>
    <style>
      .cls-1 {
        isolation: isolate;
      }

      .cls-2 {
        fill: url(#linear-gradient);
      }

      .cls-11, .cls-3, .cls-4 {
        opacity: 0.25;
      }

      .cls-11, .cls-16, .cls-3, .cls-5, .cls-6, .cls-8, .cls-9 {
        mix-blend-mode: multiply;
      }

      .cls-3 {
        fill: url(#radial-gradient);
      }

      .cls-14, .cls-4 {
        fill: #fff;
      }

      .cls-12, .cls-5 {
        opacity: 0.35;
      }

      .cls-5 {
        fill: url(#linear-gradient-2);
      }

      .cls-6, .cls-8, .cls-9 {
        opacity: 0.5;
      }

      .cls-6 {
        fill: url(#linear-gradient-3);
      }

      .cls-7 {
        fill: #4e342e;
      }

      .cls-8 {
        fill: url(#linear-gradient-4);
      }

      .cls-9 {
        fill: url(#linear-gradient-5);
      }

      .cls-10, .cls-11 {
        fill: #d95957;
      }

      .cls-12 {
        mix-blend-mode: screen;
        fill: url(#linear-gradient-6);
      }

      .cls-13 {
        fill: #5d4037;
      }

      .cls-15 {
        fill: #f5f5f5;
      }

      .cls-16 {
        fill: #cfd8dc;
      }
    </style>
    <linearGradient id="linear-gradient" x1="20" y1="-0.67" x2="20" y2="40.75" gradientUnits="userSpaceOnUse">
      <stop offset="0" stop-color="#ffe082"/>
      <stop offset="1" stop-color="#ffbf66"/>
    </linearGradient>
    <radialGradient id="radial-gradient" cx="20" cy="20" r="20" gradientUnits="userSpaceOnUse">
      <stop offset="0.8" stop-color="#fff"/>
      <stop offset="1" stop-color="#ffbf66"/>
    </radialGradient>
    <linearGradient id="linear-gradient-2" x1="20" y1="17.63" x2="20" y2="40.41" xlink:href="#linear-gradient"/>
    <linearGradient id="linear-gradient-3" x1="-231.2" y1="47.85" x2="-223.82" y2="47.85" gradientTransform="matrix(-0.98, 0.2, 0.2, 0.98, -220.59, 6.09)" xlink:href="#linear-gradient"/>
    <linearGradient id="linear-gradient-4" x1="174.42" y1="-34.99" x2="181.8" y2="-34.99" gradientTransform="translate(-153.41 6.09) rotate(11.54)" xlink:href="#linear-gradient"/>
    <linearGradient id="linear-gradient-5" x1="13.88" y1="29.03" x2="26.12" y2="29.03" xlink:href="#linear-gradient"/>
    <linearGradient id="linear-gradient-6" x1="20" y1="25.98" x2="20" y2="28.85" gradientUnits="userSpaceOnUse">
      <stop offset="0" stop-color="#fff"/>
      <stop offset="1"/>
    </linearGradient>
  </defs>
  <title>1</title>
  <g class="cls-1">
    <g id="레이어_1" data-name="레이어 1">
      <g>
        <g>
          <circle class="cls-2" cx="20" cy="20" r="20"/>
          <circle class="cls-3" cx="20" cy="20" r="20"/>
          <path class="cls-4" d="M36.5,15.12c0,7.43-7.39,0-16.5,0s-16.5,7.43-16.5,0S10.89,1.67,20,1.67,36.5,7.69,36.5,15.12Z"/>
          <path class="cls-5" d="M20,36A20,20,0,0,1,.1,18,18.86,18.86,0,0,0,0,20a20,20,0,0,0,40,0,18.86,18.86,0,0,0-.1-2A20,20,0,0,1,20,36Z"/>
        </g>
        <g>
          <g>
            <path class="cls-6" d="M14.51,5.63c-2.8-.24-5.68,1-5.91,4.09a3.62,3.62,0,0,1,4.31-2.35c.73.14,1.54.76,2.23.16A1.1,1.1,0,0,0,14.51,5.63Z"/>
            <path class="cls-7" d="M14.37,5c-2.79-.24-5.68,1-5.91,4.1a3.64,3.64,0,0,1,4.32-2.36c.72.15,1.54.77,2.22.17A1.1,1.1,0,0,0,14.37,5Z"/>
          </g>
          <g>
            <path class="cls-8" d="M25.49,5.63c2.8-.24,5.68,1,5.91,4.09a3.62,3.62,0,0,0-4.31-2.35c-.73.14-1.55.76-2.23.16A1.09,1.09,0,0,1,25.49,5.63Z"/>
            <path class="cls-7" d="M25.63,5c2.79-.24,5.68,1,5.91,4.1a3.64,3.64,0,0,0-4.32-2.36c-.72.15-1.54.77-2.22.17A1.1,1.1,0,0,1,25.63,5Z"/>
          </g>
        </g>
        <path class="cls-9" d="M20,33.6a7.08,7.08,0,0,1-4.68-4.08H14L13.93,29a5,5,0,0,1,0-.62,3.87,3.87,0,0,1,3.87-3.87,3,3,0,0,1,2.07.76l.18.14.18-.14a3,3,0,0,1,2.07-.76,3.87,3.87,0,0,1,3.87,3.87,5,5,0,0,1-.05.62l-.08.57H24.68A7.08,7.08,0,0,1,20,33.6Z"/>
        <g>
          <path class="cls-10" d="M25.45,28.33a3.21,3.21,0,0,0-3.2-3.21c-1.48,0-1.66.92-2.25.92s-.77-.92-2.25-.92a3.21,3.21,0,0,0-3.2,3.21,4.38,4.38,0,0,0,0,.52H25.41A4.38,4.38,0,0,0,25.45,28.33Z"/>
          <path class="cls-10" d="M20,32.93c.59,0,3.83-1.77,4.17-4.13H15.83C16.17,31.16,19.41,32.93,20,32.93Z"/>
          <path class="cls-11" d="M20,32.27a6.76,6.76,0,0,1-4-3.47h-.18c.34,2.36,3.58,4.13,4.17,4.13s3.83-1.77,4.17-4.13H24A6.76,6.76,0,0,1,20,32.27Z"/>
          <path class="cls-11" d="M24,29.46a2.93,2.93,0,0,0,.18-.66H15.83a2.93,2.93,0,0,0,.18.66Z"/>
          <path class="cls-12" d="M22.25,25.79a1.6,1.6,0,0,0-1.22.46,1.38,1.38,0,0,1-2.06,0,1.6,1.6,0,0,0-1.22-.46,2.53,2.53,0,0,0-2.53,2.4v.66h9.56v-.66A2.53,2.53,0,0,0,22.25,25.79Z"/>
        </g>
        <g>
          <g>
            <path class="cls-4" d="M13,21.42c-2.94,0-5.34-1.08-5.34-4a5.34,5.34,0,1,1,10.68,0C18.33,20.34,15.94,21.42,13,21.42Z"/>
            <path class="cls-13" d="M10.4,14l1.32-.72c0-.15-.28-.35-.36-.49a3.78,3.78,0,0,1-.41-.86,5.59,5.59,0,0,1-.23-1.68A5.79,5.79,0,0,0,10.21,12,3.51,3.51,0,0,0,10.4,14Zm-1.89-.55a3.68,3.68,0,0,0,.79,1.83l1-1.09c-.08-.13-.37-.25-.49-.35a3.58,3.58,0,0,1-.65-.7,5.7,5.7,0,0,1-.74-1.53A6.31,6.31,0,0,0,8.51,13.44Zm3.73-2.1a3.55,3.55,0,0,0-.21,2l1.43-.43c0-.15-.2-.4-.25-.55a3.73,3.73,0,0,1-.23-.93,5.36,5.36,0,0,1,.12-1.69A5.87,5.87,0,0,0,12.24,11.34Z"/>
            <path class="cls-13" d="M17.67,17.38c0,2.55-2.12,3.37-4.68,3.37s-4.67-.82-4.67-3.37A4.74,4.74,0,0,1,13,12.67,4.74,4.74,0,0,1,17.67,17.38Z"/>
            <path class="cls-7" d="M13,14a4.68,4.68,0,0,1,4.62,4.05,3.71,3.71,0,0,0,.06-.67,4.68,4.68,0,1,0-9.35,0,4.91,4.91,0,0,0,0,.67A4.69,4.69,0,0,1,13,14Z"/>
            <path class="cls-14" d="M17,17.38c0,2.22-1.79,2.69-4,2.69s-4-.47-4-2.69a4,4,0,1,1,8,0Z"/>
            <path class="cls-15" d="M13,19.41c-1.83,0-3.33-.18-3.33-2a3.34,3.34,0,1,1,6.67,0C16.33,19.23,14.83,19.41,13,19.41Z"/>
            <path class="cls-14" d="M16.75,16.8c0,1.7-1.68,0-3.76,0s-3.75,1.7-3.75,0A3.66,3.66,0,0,1,13,13.48,3.66,3.66,0,0,1,16.75,16.8Z"/>
            <path class="cls-13" d="M15.92,16.05a1.6,1.6,0,0,1-3.19,0A1.6,1.6,0,0,1,15.92,16.05Z"/>
            <path class="cls-16" d="M13,14a4,4,0,0,1,4,3.69c0-.11,0-.22,0-.33a4,4,0,1,0-8,0c0,.11,0,.22,0,.33A4,4,0,0,1,13,14Z"/>
          </g>
          <g>
            <path class="cls-4" d="M27,21.42c-3,0-5.34-1.08-5.34-4a5.34,5.34,0,1,1,10.68,0C32.35,20.34,30,21.42,27,21.42Z"/>
            <path class="cls-13" d="M31.68,17.38c0,2.55-2.11,3.37-4.67,3.37s-4.68-.82-4.68-3.37a4.68,4.68,0,1,1,9.35,0Z"/>
            <path class="cls-7" d="M27,14a4.69,4.69,0,0,1,4.62,4.05,4.91,4.91,0,0,0,.05-.67,4.68,4.68,0,1,0-9.35,0,3.71,3.71,0,0,0,.06.67A4.68,4.68,0,0,1,27,14Z"/>
            <path class="cls-14" d="M31,17.38c0,2.22-1.79,2.69-4,2.69s-4-.47-4-2.69a4,4,0,1,1,8,0Z"/>
            <path class="cls-15" d="M27,19.41c-1.84,0-3.34-.18-3.34-2a3.34,3.34,0,1,1,6.67,0C30.34,19.23,28.84,19.41,27,19.41Z"/>
            <path class="cls-14" d="M30.76,16.8c0,1.7-1.68,0-3.75,0s-3.76,1.7-3.76,0a3.78,3.78,0,0,1,7.51,0Z"/>
            <path class="cls-13" d="M29.93,16.05a1.59,1.59,0,0,1-3.18,0A1.59,1.59,0,0,1,29.93,16.05Z"/>
            <path class="cls-16" d="M27,14a4,4,0,0,1,4,3.69c0-.11,0-.22,0-.33a4,4,0,1,0-8,0c0,.11,0,.22,0,.33A4,4,0,0,1,27,14Z"/>
          </g>
        </g>
        <path class="cls-13" d="M29.79,12a5.79,5.79,0,0,0-.51-1.77,5.59,5.59,0,0,1-.23,1.68,3.78,3.78,0,0,1-.41.86c-.08.14-.32.34-.36.49L29.6,14A3.51,3.51,0,0,0,29.79,12Zm1.75-.41a5.42,5.42,0,0,1-.74,1.53,3.58,3.58,0,0,1-.65.7c-.12.1-.41.22-.49.35l1,1.09a3.68,3.68,0,0,0,.79-1.83A6.31,6.31,0,0,0,31.54,11.6ZM26.9,9.72A5.36,5.36,0,0,1,27,11.41a3.73,3.73,0,0,1-.23.93c-.05.15-.24.4-.25.55l1.43.43a3.55,3.55,0,0,0-.21-2A5.87,5.87,0,0,0,26.9,9.72Z"/>
      </g>
    </g>
  </g>
</svg>
