<svg xmlns="http://www.w3.org/2000/svg" xmlns:xlink="http://www.w3.org/1999/xlink" viewBox="0 0 40 40">
  <defs>
    <style>
      .cls-1 {
        isolation: isolate;
      }

      .cls-2 {
        fill: url(#linear-gradient);
      }

      .cls-11, .cls-3, .cls-4 {
        opacity: 0.25;
      }

      .cls-11, .cls-3, .cls-5, .cls-6, .cls-7 {
        mix-blend-mode: multiply;
      }

      .cls-3 {
        fill: url(#radial-gradient);
      }

      .cls-4 {
        fill: #fff;
      }

      .cls-5 {
        opacity: 0.35;
        fill: url(#linear-gradient-2);
      }

      .cls-6, .cls-7 {
        opacity: 0.5;
      }

      .cls-6 {
        fill: url(#radial-gradient-2);
      }

      .cls-7 {
        fill: url(#radial-gradient-3);
      }

      .cls-8 {
        fill: #5d4037;
      }

      .cls-9 {
        fill: #4e342e;
      }

      .cls-10, .cls-11 {
        fill: #d95957;
      }
    </style>
    <linearGradient id="linear-gradient" x1="20" y1="-0.67" x2="20" y2="40.75" gradientUnits="userSpaceOnUse">
      <stop offset="0" stop-color="#ffe082"/>
      <stop offset="1" stop-color="#ffbf66"/>
    </linearGradient>
    <radialGradient id="radial-gradient" cx="20" cy="20" r="20" gradientUnits="userSpaceOnUse">
      <stop offset="0.8" stop-color="#fff"/>
      <stop offset="1" stop-color="#ffbf66"/>
    </radialGradient>
    <linearGradient id="linear-gradient-2" x1="20" y1="17.63" x2="20" y2="40.41" xlink:href="#linear-gradient"/>
    <radialGradient id="radial-gradient-2" cx="30.46" cy="23.02" r="6.03" gradientTransform="translate(45.92 -11.84) rotate(76.56)" gradientUnits="userSpaceOnUse">
      <stop offset="0" stop-color="#ff7043"/>
      <stop offset="1" stop-color="#fff"/>
    </radialGradient>
    <radialGradient id="radial-gradient-3" cx="-323.54" cy="23.02" r="6.03" gradientTransform="matrix(-0.97, -0.23, -0.23, 0.97, -300.02, -73.71)" xlink:href="#radial-gradient-2"/>
  </defs>
  <title>1</title>
  <g class="cls-1">
    <g id="레이어_1" data-name="레이어 1">
      <g>
        <g>
          <circle class="cls-2" cx="20" cy="20" r="20"/>
          <circle class="cls-3" cx="20" cy="20" r="20"/>
          <path class="cls-4" d="M36.5,15.12c0,7.43-7.39,0-16.5,0s-16.5,7.43-16.5,0S10.89,1.67,20,1.67,36.5,7.69,36.5,15.12Z"/>
          <path class="cls-5" d="M20,36A20,20,0,0,1,.1,18,18.86,18.86,0,0,0,0,20a20,20,0,0,0,40,0,18.86,18.86,0,0,0-.1-2A20,20,0,0,1,20,36Z"/>
        </g>
        <g>
          <circle class="cls-6" cx="30.46" cy="23.17" r="6.35" transform="translate(0.85 47.41) rotate(-76.56)"/>
          <circle class="cls-7" cx="9.54" cy="23.17" r="6.35" transform="translate(-5.07 2.81) rotate(-13.28)"/>
          <g>
            <path class="cls-4" d="M19.93,31.86a9.56,9.56,0,0,1-4.46-1.14,6,6,0,0,1-2.6-2.58,1.38,1.38,0,0,1,0-1.39,1.77,1.77,0,0,1,1.53-.62,9,9,0,0,1,1,.07l.36,0,.61,0c1,.05,2.07.1,3.1.1h1.22c1,0,2.05-.05,3.06-.1l.47,0h.21l.33,0a9,9,0,0,1,.95-.07,1.77,1.77,0,0,1,1.53.62,1.38,1.38,0,0,1,0,1.39,6,6,0,0,1-2.64,2.6,9.57,9.57,0,0,1-4.42,1.12Z"/>
            <path class="cls-8" d="M26.53,27.85c-1.28,2.64-4.88,3.61-7.57,3.28a8.15,8.15,0,0,1-4.22-1.71c-.41-.33-2.14-2.05-1.09-2.51a5.32,5.32,0,0,1,2.14,0c1.84.08,3.67.14,5.51.11,1.32,0,2.64-.11,4-.2.73,0,1.74.06,1.27,1S27.23,26.39,26.53,27.85Z"/>
            <path class="cls-9" d="M13.7,28.23a5.79,5.79,0,0,1,2,0h.14c1.4.06,2.81.14,4.21.11s2.79-.05,4.17-.11h.18a6,6,0,0,1,1.95,0c.08-.12.16-.24.23-.37.7-1.46-1.49-1-2.18-1h-.18C22.79,27,21.39,27,20,27s-2.81-.05-4.21-.11h-.14c-.69,0-2.88-.5-2.18,1C13.54,28,13.62,28.1,13.7,28.23Z"/>
            <path class="cls-10" d="M24.17,26.9v5.35a4.19,4.19,0,0,1-8.38,0V26.9C17.19,27,18.6,27,20,27S22.79,27,24.17,26.9Z"/>
            <path class="cls-11" d="M20,35.11a4.2,4.2,0,0,1-4.19-4.19v1.33a4.19,4.19,0,0,0,8.38,0V30.92A4.2,4.2,0,0,1,20,35.11Z"/>
            <path class="cls-11" d="M20,27c-1.4,0-2.81-.05-4.21-.11v1.33c1.4.06,2.81.14,4.21.11s2.79-.05,4.17-.11V26.9C22.79,27,21.39,27,20,27Z"/>
            <path class="cls-11" d="M20,33.36a.53.53,0,0,1-.53-.52V27c.14,0,1,0,1.06,0v5.82A.53.53,0,0,1,20,33.36Z"/>
          </g>
        </g>
        <g>
          <path class="cls-4" d="M13,12a4.68,4.68,0,0,0-4.67,4.67c0,.86,0,.91.07,1a1.53,1.53,0,0,0,1.4,1A1.65,1.65,0,0,0,11,18.19,3.24,3.24,0,0,1,13,17.33a3.24,3.24,0,0,1,2.05.86,1.65,1.65,0,0,0,1.15.52,1.53,1.53,0,0,0,1.4-1c0-.12.07-.17.07-1A4.68,4.68,0,0,0,13,12Zm14,0a4.68,4.68,0,0,0-4.67,4.67c0,.86,0,.91.07,1a1.53,1.53,0,0,0,1.4,1A1.65,1.65,0,0,0,25,18.19,3.24,3.24,0,0,1,27,17.33a3.24,3.24,0,0,1,2.05.86,1.65,1.65,0,0,0,1.15.52,1.53,1.53,0,0,0,1.4-1c0-.12.07-.17.07-1A4.68,4.68,0,0,0,27,12Z"/>
          <path class="cls-8" d="M27,12.67a4.09,4.09,0,0,0-4,4.39.84.84,0,0,0,1.48.65,3.78,3.78,0,0,1,2.52-1,3.74,3.74,0,0,1,2.49,1c.58.54,1.48.36,1.51-.5C31.05,14.83,29.54,12.67,27,12.67Zm-14,0a4.09,4.09,0,0,0-4,4.39.84.84,0,0,0,1.48.65,3.78,3.78,0,0,1,2.52-1,3.74,3.74,0,0,1,2.49,1c.58.54,1.48.36,1.51-.5C17.05,14.83,15.54,12.67,13,12.67Z"/>
          <path class="cls-9" d="M27,12.67a4,4,0,0,0-4,4,5.18,5.18,0,0,0,0,.77l0,0a4,4,0,0,1,7.92,0l0,0a5.18,5.18,0,0,0,0-.77A4,4,0,0,0,27,12.67Zm-14,0a4,4,0,0,0-4,4,5.18,5.18,0,0,0,0,.77l0,0a4,4,0,0,1,7.92,0l0,0a5.18,5.18,0,0,0,0-.77A4,4,0,0,0,13,12.67Z"/>
        </g>
      </g>
    </g>
  </g>
</svg>
