<svg id="레이어_1" data-name="레이어 1" xmlns="http://www.w3.org/2000/svg" xmlns:xlink="http://www.w3.org/1999/xlink" viewBox="0 0 33.85 40.19">
  <defs>
    <style>
      .cls-1 {
        fill: #fdd281;
      }

      .cls-2 {
        fill: #f4bb6e;
      }

      .cls-3 {
        fill: #ffcb9e;
      }

      .cls-4 {
        fill: #1e1e29;
      }

      .cls-5 {
        fill: #e8e8e8;
      }

      .cls-6 {
        fill: url(#linear-gradient);
      }

      .cls-7 {
        fill: #f5f5f5;
      }

      .cls-8 {
        fill: #535361;
      }

      .cls-10, .cls-9 {
        fill: #bf3c1b;
      }

      .cls-9 {
        opacity: 0.15;
      }

      .cls-10 {
        opacity: 0.2;
      }

      .cls-11 {
        fill: #ffe8bd;
      }

      .cls-12 {
        fill: #ffb387;
      }

      .cls-13 {
        fill: #a16b43;
      }

      .cls-14 {
        fill: #305d80;
      }

      .cls-15 {
        fill: #86bae3;
      }

      .cls-16 {
        fill: #121b21;
      }

      .cls-17 {
        fill: #f04d4d;
        opacity: 0.8;
      }
    </style>
    <linearGradient id="linear-gradient" x1="3353.5" y1="31" x2="3353.5" y2="33.36" gradientTransform="translate(-3332.04)" gradientUnits="userSpaceOnUse">
      <stop offset="0" stop-color="#eea17a"/>
      <stop offset="0" stop-color="#eea17a"/>
      <stop offset="0.36" stop-color="#f7b88e"/>
      <stop offset="0.7" stop-color="#fdc69a"/>
      <stop offset="1" stop-color="#ffcb9e"/>
    </linearGradient>
  </defs>
  <title>1</title>
  <g>
    <g>
      <path class="cls-1" d="M7.42,29.33C3.87,35.87,14,37.48,19,33.15c2.15-1.85,3.87,3,6.46,3.27,3.5.32,5.35-2.21,4.63-4.47.6,1.89,2.69,2,4.26,1.33a4.06,4.06,0,0,0,2.35-4,2.55,2.55,0,0,1-2.88.58,1.94,1.94,0,0,1-.91-3c1-1.39,3.73-3.16,1-4.62a2,2,0,0,0,1.8,0c2.21-1,1.27-5.76-1.22-4.23,1.69-.06.06,2.65-.89.61-.6-1.29.78-1.91,1.4-2.77a5,5,0,0,0,.88-3.58c-.3-3.49-3.5-5.69-5.34-8.38C28.55,1,25.72-.89,22.06.43a6,6,0,0,0-2.28,1.69A3.58,3.58,0,0,0,18.64.52c-.05.52-.08,1.05-.1,1.58-2-1.22-5.09-.73-6.82.4C9.38,4,9.6,6.38,8.65,8.67c-.86,2.1-3.61,4.54-3.43,7,.11,1.53,1.19,2.32,1.12,3.89-.06,1.31-1.48,2-.83,3.29s3.31.85,2,3.05c-1.24,2-3.67-.37-2.15-.7-1.68-.82-2.38,1.37-2.14,2.68C3.52,29.67,6.06,29.71,7.42,29.33Z" transform="translate(-3.13 0)"/>
      <path class="cls-2" d="M9.08,30.49c-1,.91-1.27,1.65.12,2.56,2.26,1.46,5.43,1.55,9,.35,1.7-.57,7.19,2.48,9.07,1.49,1.5-.79,2-1.58,2.56-4.31.49.61,1.14,1.6,2,1.6-.68-1.3-.47-3-.3-4.4s1.12-2.39,1.14-3.74c0-.47-.25-1.45-.08-1.86s1.07-1,1.41-1.33a2.34,2.34,0,0,1-1.29-1.52c-.32-1.35.73-2.4.76-3.68s-3.28-7.07-4.66-5c-.32.47,1.51,3.28,1.11,3.71a4.05,4.05,0,0,1-1.75,1,54.17,54.17,0,0,1-7.9,1.48c-1.63.24-3.22.66-4.85.92a8.74,8.74,0,0,1-3.22.13C11,17.55,11,16.36,10,15.84c-1.94-1-3.5,1.05-3.22,2.89a5.62,5.62,0,0,0,1.29,2.4c.87,1,1.94,1.36,2.53,2.68A5.71,5.71,0,0,1,9.08,30.49Z" transform="translate(-3.13 0)"/>
    </g>
    <g>
      <path class="cls-3" d="M29.07,40.19c-.09-.54-.45-3.82-.58-4.43l-2.25.49c.13.57.35,3.32.42,3.94Z" transform="translate(-3.13 0)"/>
      <path class="cls-4" d="M24.78,37.1c-.28-1.32-.68-1.77-.79-1.78l.38-4.19c1.3.12,3.61.94,4.5,5.08Z" transform="translate(-3.13 0)"/>
      <path class="cls-3" d="M14,40.19c.09-.54.45-3.82.58-4.43l2.25.49c-.12.57-.35,3.32-.42,3.94Z" transform="translate(-3.13 0)"/>
      <path class="cls-4" d="M18.24,37.1c.28-1.32.69-1.77.79-1.78l-.38-4.19c-1.29.12-3.61.94-4.5,5.08Z" transform="translate(-3.13 0)"/>
      <path class="cls-5" d="M25.12,40.19a21,21,0,0,1,.63-3.14c.73-2.73.81-4.39-.87-4.94a10.81,10.81,0,0,0-6.44,0c-1.43.61-1.89,1.6-.91,4.64a17.6,17.6,0,0,1,.81,3.38Z" transform="translate(-3.13 0)"/>
      <path class="cls-6" d="M23.54,32c-.35-.63,0-1.63,0-2.7.14-2.42-4-2.51-4,.13a6.59,6.59,0,0,1-.15,2.44C17.73,34.47,25.09,34.78,23.54,32Z" transform="translate(-3.13 0)"/>
      <path class="cls-7" d="M18.71,36.16c.28.9,1.72,1.13,3,1.11,2.48,0,3.41-1,3-2.06-.12-.3-.65-.5-1.28-.28a6.9,6.9,0,0,1-3.82-.06C18.88,34.69,18.49,35.49,18.71,36.16Z" transform="translate(-3.13 0)"/>
      <g>
        <path class="cls-4" d="M19.49,31.26s-3,.67-3.34,1.13c-1.42,1.9,1,4.85.66,7.8h3.43A56.33,56.33,0,0,0,19.49,31.26Z" transform="translate(-3.13 0)"/>
        <path class="cls-8" d="M19.57,30.31c-1.67.67-3.84,1.47-3.88,1.76s4.24,2,4.2,1.66S19.57,30.31,19.57,30.31Z" transform="translate(-3.13 0)"/>
      </g>
      <g>
        <path class="cls-4" d="M23.53,31.26s3,.67,3.34,1.13c1.42,1.9-1,4.85-.66,7.8H22.78A56.33,56.33,0,0,1,23.53,31.26Z" transform="translate(-3.13 0)"/>
        <path class="cls-8" d="M23.45,30.31c1.67.67,3.84,1.47,3.88,1.76s-4.24,2-4.2,1.66S23.45,30.31,23.45,30.31Z" transform="translate(-3.13 0)"/>
      </g>
    </g>
    <g>
      <path class="cls-3" d="M32,16.63C31.76,9,26.11,5.71,20.56,6.42s-9.95,5.21-9.22,12.94,5.91,12.39,11.51,12.35C27.14,31.67,32.33,24.62,32,16.63Z" transform="translate(-3.13 0)"/>
      <path class="cls-3" d="M9.62,21.61a5.08,5.08,0,0,0,2.16.07.43.43,0,0,0,0-.07c.31-.53-.32-3.11-.5-3.64-.44-1.34-1.13-2.25-2.41-1.8C6.26,17.11,7.42,21,9.62,21.61Z" transform="translate(-3.13 0)"/>
      <path class="cls-9" d="M13.32,15.21c0,.21,0,.42,0,.63,0,.94.82,2.41.66,3.32-.29,1.7-1.53,2.86.05,4.39-1.56.85-3.19-.06-3.3-1.09-.26-2.58,1.09-3-.2-4.2C7.87,15.79,10,15.49,10.22,14s1.6-3.05,2.44-4.35C13.83,7.81,16,7,18,6.5A28,28,0,0,1,27.09,6c1.41.15,3.46.23,4.23,1.64a7.61,7.61,0,0,1,.74,4.83c-.3.84-1.78.35-2.49.44A3.84,3.84,0,0,0,27,14.6c-1.15,1.58-1.85,2.72-4.6,2.72-1.69,0-3.73-2.49-2.34-3.93a2.08,2.08,0,0,0-1.2.22c-1.15.46-5.26,2-4.94-.83A13.41,13.41,0,0,0,13.32,15.21Z" transform="translate(-3.13 0)"/>
      <path class="cls-10" d="M11.14,20.78c1.22-.54.29-2.75-.57-3.17-.7-.34-2.55,0-1.8,1.3.54-1.08,1.28-.28,1.1.5-.13.53-.8.48-.19,1.22A1.36,1.36,0,0,0,11.14,20.78Z" transform="translate(-3.13 0)"/>
      <path class="cls-1" d="M27.38,12.94a4.91,4.91,0,0,1,2.22-.39c1.72,0,2.32-1.3,2.24-3-.21-4.5-4.48-6.8-8.44-7.16A29.23,29.23,0,0,0,20,2,12.6,12.6,0,0,0,14.5,3.65C12,5,10.31,8.11,9.56,10.85a11,11,0,0,0-.31,5c.31,1.47,2.2,2,2.31,3.53,0,.68-.54,1.19-.53,1.83a2.12,2.12,0,0,0,.64,1.46,3.49,3.49,0,0,0,1.6.48c-1-1.16,0-1.83.06-3a8.87,8.87,0,0,0-.39-3,4.67,4.67,0,0,1,1.38-5.44c.17,2.08,2.29,2,3.8,1.7.69-.14,2.67-.94,3,.1.22.64-.81,1.2-1,.46,0,1.1,0,2,1.34,2.29a4.07,4.07,0,0,0,4.62-2A3.47,3.47,0,0,1,27.38,12.94Z" transform="translate(-3.13 0)"/>
      <path class="cls-11" d="M29.49,10.55a8.15,8.15,0,0,1-3.28,2.37,10.5,10.5,0,0,0-1.58,1,3.53,3.53,0,0,1-2.93.58c1-.66.37-2.07-.59-2.29-1.21-.28-2.47.52-3.7.09-4-1.39,1.78-2.41,2.79-3.09a3.09,3.09,0,0,0,1.24-3,9.37,9.37,0,0,0-1.57-2.8A4.69,4.69,0,0,1,22,2.06a7.18,7.18,0,0,1,7,2.45C30.71,6.92,30.68,9,29.49,10.55Z" transform="translate(-3.13 0)"/>
      <path class="cls-11" d="M11.68,14.1A4.12,4.12,0,0,0,12,16.77a5.55,5.55,0,0,1-3.23-2.63c-.62-1.24.08-2.16.81-3.23,2.14-3.12,1.13-7.49,6.17-7.83,2.59-.17,3.56,2,2.21,4.18C16.35,9.87,12.59,10.86,11.68,14.1Z" transform="translate(-3.13 0)"/>
    </g>
    <g>
      <path class="cls-12" d="M30.36,21.26a1.13,1.13,0,0,1,.11.34c.18,1.25-2.44.69-2.7.14-.49-1,.43-1.23,1.09-1.19A1.8,1.8,0,0,1,30.36,21.26Z" transform="translate(-3.13 0)"/>
      <path class="cls-12" d="M17.55,21.17a1.41,1.41,0,0,1,.18.37c.4,1.41-2.57,1.37-3,.79-.71-1.09.26-1.53,1-1.63A1.86,1.86,0,0,1,17.55,21.17Z" transform="translate(-3.13 0)"/>
      <path class="cls-13" d="M31.44,15.73c-.8-1-3.77-1-4.86.11C28,16,29.26,15.54,31.44,15.73Z" transform="translate(-3.13 0)"/>
      <path class="cls-10" d="M24.4,21.7c.19.21-.38.78-1.08.84s-1.36-.63-1-.82.55,0,1,0S24.19,21.46,24.4,21.7Z" transform="translate(-3.13 0)"/>
      <path class="cls-13" d="M13.59,15.52c1.2-1.06,4.55-1.14,5.55.14C17.24,15.71,16.32,15.59,13.59,15.52Z" transform="translate(-3.13 0)"/>
      <path class="cls-14" d="M17,19.87a2,2,0,0,0-1.4,0c-1-.79-.27-3.45,1.17-2.91A1.84,1.84,0,0,1,17,19.87Z" transform="translate(-3.13 0)"/>
      <path class="cls-15" d="M17,17.8c.53-.08.7.79.25,1C16.65,19.12,16.43,17.9,17,17.8Z" transform="translate(-3.13 0)"/>
      <path class="cls-14" d="M29.46,17c.78.5.71,2,.16,2.75a1.71,1.71,0,0,0-1.26.21C26.75,19.42,28,16,29.46,17Z" transform="translate(-3.13 0)"/>
      <path class="cls-15" d="M29.38,17.67c.5,0,.57.89.13,1.06C28.89,19,28.81,17.69,29.38,17.67Z" transform="translate(-3.13 0)"/>
      <path class="cls-16" d="M32.65,17.41a2.72,2.72,0,0,1-3.36.24,1.24,1.24,0,0,0-1.55.29s.44-1.57,1.76-1.06C30.21,17.15,31,18,32.65,17.41Z" transform="translate(-3.13 0)"/>
      <path class="cls-16" d="M12.45,17.6a3,3,0,0,0,3.52.13,1.38,1.38,0,0,1,1.61.12s-.36-1.56-1.74-.85A4.25,4.25,0,0,1,12.45,17.6Z" transform="translate(-3.13 0)"/>
      <path class="cls-17" d="M29.11,23.57A1.49,1.49,0,0,1,27.2,23a1.1,1.1,0,0,0,.24,1.11,5.43,5.43,0,0,1-5.24,3.12,5.52,5.52,0,0,1-5-2.86,1,1,0,0,0,0-1.16,1.34,1.34,0,0,1-1.77.7,1.3,1.3,0,0,0,1,.75A6.37,6.37,0,0,0,22,28h.23a6.19,6.19,0,0,0,6-3.59A1,1,0,0,0,29.11,23.57Z" transform="translate(-3.13 0)"/>
    </g>
  </g>
</svg>
