<svg xmlns="http://www.w3.org/2000/svg" xmlns:xlink="http://www.w3.org/1999/xlink" viewBox="0 0 40 40">
  <defs>
    <style>
      .cls-1 {
        isolation: isolate;
      }

      .cls-2 {
        fill: url(#linear-gradient);
      }

      .cls-3, .cls-4 {
        opacity: 0.25;
      }

      .cls-3, .cls-5, .cls-8 {
        mix-blend-mode: multiply;
      }

      .cls-3 {
        fill: url(#radial-gradient);
      }

      .cls-4 {
        fill: #fff;
      }

      .cls-5, .cls-8 {
        opacity: 0.35;
      }

      .cls-5 {
        fill: url(#linear-gradient-2);
      }

      .cls-6 {
        fill: #5d4037;
      }

      .cls-7, .cls-8 {
        fill: #80cbc4;
      }

      .cls-9 {
        fill: #4e342e;
      }
    </style>
    <linearGradient id="linear-gradient" x1="20" y1="-0.67" x2="20" y2="40.75" gradientUnits="userSpaceOnUse">
      <stop offset="0" stop-color="#ffe082"/>
      <stop offset="1" stop-color="#ffbf66"/>
    </linearGradient>
    <radialGradient id="radial-gradient" cx="20" cy="20" r="20" gradientUnits="userSpaceOnUse">
      <stop offset="0.8" stop-color="#fff"/>
      <stop offset="1" stop-color="#ffbf66"/>
    </radialGradient>
    <linearGradient id="linear-gradient-2" x1="20" y1="17.63" x2="20" y2="40.41" xlink:href="#linear-gradient"/>
  </defs>
  <title>1</title>
  <g class="cls-1">
    <g id="레이어_1" data-name="레이어 1">
      <g>
        <g>
          <circle class="cls-2" cx="20" cy="20" r="20"/>
          <path class="cls-3" d="M40,20a20,20,0,0,1-9.08,16.75,19.46,19.46,0,0,1-6.57,2.77,20,20,0,0,1-8.7,0,19.46,19.46,0,0,1-6.57-2.77A20,20,0,1,1,40,20Z"/>
          <path class="cls-4" d="M36.5,15.12c0,7.43-7.39,0-16.5,0s-16.5,7.43-16.5,0S10.89,1.67,20,1.67,36.5,7.69,36.5,15.12Z"/>
          <path class="cls-5" d="M20,36A20,20,0,0,1,.1,18,18.86,18.86,0,0,0,0,20a20,20,0,0,0,40,0,18.86,18.86,0,0,0-.1-2A20,20,0,0,1,20,36Z"/>
        </g>
        <path class="cls-4" d="M20,34.37c-2.67,0-3.87-3.14-3.87-5.37s1.2-5.37,3.87-5.37,3.87,3.14,3.87,5.37S22.65,34.37,20,34.37Z"/>
        <path class="cls-6" d="M23.18,29c0,1.84-.93,4.71-3.2,4.71s-3.2-2.87-3.2-4.71.93-4.71,3.2-4.71S23.18,27.16,23.18,29Z"/>
        <path class="cls-7" d="M9.08,17.38V36.75a19.46,19.46,0,0,0,6.57,2.77V17.38Zm15.27,0V39.52a19.46,19.46,0,0,0,6.57-2.77V17.38Z"/>
        <path class="cls-8" d="M9.08,36.75a19.46,19.46,0,0,0,6.57,2.77v-4a19.46,19.46,0,0,1-6.57-2.77Zm15.27-1.23v4a19.46,19.46,0,0,0,6.57-2.77v-4A19.46,19.46,0,0,1,24.35,35.52Z"/>
        <path class="cls-4" d="M30.92,20.48a1.1,1.1,0,1,0-2.19,0h0v.66a1.1,1.1,0,0,1-2.19,0v-.67a1.1,1.1,0,1,0-2.19,0h0v2a1.1,1.1,0,0,1,2.19,0h0v.68a1.1,1.1,0,1,0,2.19,0v-.68h0a1.1,1.1,0,0,1,2.19,0v-2Z"/>
        <path class="cls-4" d="M9.08,20.48a1.1,1.1,0,1,1,2.19,0h0v.66a1.1,1.1,0,0,0,2.19,0v-.67a1.1,1.1,0,1,1,2.19,0h0v2a1.1,1.1,0,0,0-2.19,0h0v.68a1.1,1.1,0,1,1-2.19,0v-.68h0a1.1,1.1,0,0,0-2.19,0v-2Z"/>
        <path class="cls-4" d="M30.92,27.14a1.1,1.1,0,0,0-2.19,0v.67a1.1,1.1,0,1,1-2.19,0v-.67a1.1,1.1,0,0,0-2.19,0h0v2a1.1,1.1,0,0,1,2.19,0h0v.68a1.1,1.1,0,1,0,2.19,0v-.68h0a1.1,1.1,0,0,1,2.19,0v-2h0Z"/>
        <path class="cls-4" d="M9.08,27.14a1.1,1.1,0,0,1,2.19,0v.67a1.1,1.1,0,1,0,2.19,0v-.67a1.1,1.1,0,0,1,2.19,0h0v2a1.1,1.1,0,0,0-2.19,0h0v.68a1.1,1.1,0,1,1-2.19,0v-.68h0a1.1,1.1,0,0,0-2.19,0v-2h0Z"/>
        <g>
          <path class="cls-4" d="M23.44,18.05a1,1,0,0,1-.86-.43,2,2,0,0,1,.09-1.78,5,5,0,0,1,3.22-2.9,5.63,5.63,0,0,1,1.65-.25h.15a5.65,5.65,0,0,1,1.66.25,5,5,0,0,1,3.21,2.87,2,2,0,0,1,.1,1.81,1,1,0,0,1-.86.43Z"/>
          <path class="cls-6" d="M31.94,16.06a4.34,4.34,0,0,0-2.79-2.48,5.43,5.43,0,0,0-3.06,0,4.31,4.31,0,0,0-2.79,2.48c-.13.33-.54,1.32.14,1.32H31.8C32.47,17.38,32.07,16.39,31.94,16.06Z"/>
          <path class="cls-9" d="M23.32,17.35a4.35,4.35,0,0,1,2.77-2.44,5.68,5.68,0,0,1,3.06,0,4.35,4.35,0,0,1,2.77,2.44c.48-.13.14-1,0-1.29a4.34,4.34,0,0,0-2.79-2.48,5.43,5.43,0,0,0-3.06,0,4.31,4.31,0,0,0-2.79,2.48C23.18,16.36,22.84,17.22,23.32,17.35Z"/>
        </g>
        <g>
          <path class="cls-4" d="M16.52,18.05a1,1,0,0,0,.86-.43,2,2,0,0,0-.09-1.78,5,5,0,0,0-3.22-2.9,5.58,5.58,0,0,0-1.65-.25h-.15a5.65,5.65,0,0,0-1.66.25A5,5,0,0,0,7.4,15.81c-.17.45-.49,1.24-.1,1.81a1,1,0,0,0,.86.43Z"/>
          <path class="cls-6" d="M8,16.06a4.34,4.34,0,0,1,2.79-2.48,4.65,4.65,0,0,1,1.53-.22,4.65,4.65,0,0,1,1.53.22,4.31,4.31,0,0,1,2.79,2.48c.13.33.54,1.32-.14,1.32H8.16C7.49,17.38,7.89,16.39,8,16.06Z"/>
          <path class="cls-9" d="M16.64,17.35a4.35,4.35,0,0,0-2.77-2.44,4.92,4.92,0,0,0-1.53-.21,4.92,4.92,0,0,0-1.53.21A4.37,4.37,0,0,0,8,17.35c-.48-.13-.14-1,0-1.29a4.34,4.34,0,0,1,2.79-2.48,4.65,4.65,0,0,1,1.53-.22,4.65,4.65,0,0,1,1.53.22,4.31,4.31,0,0,1,2.79,2.48C16.78,16.36,17.13,17.22,16.64,17.35Z"/>
        </g>
      </g>
    </g>
  </g>
</svg>
