<svg id="레이어_1" data-name="레이어 1" xmlns="http://www.w3.org/2000/svg" viewBox="0 0 40 40">
  <defs>
    <style>
      .cls-1 {
        stroke: #000;
        stroke-miterlimit: 10;
        stroke-width: 0.75px;
      }
    </style>
  </defs>
  <title>1</title>
  <path d="M20,40A20,20,0,1,1,40,20,20,20,0,0,1,20,40ZM20,3.66A16.34,16.34,0,1,0,36.34,20,16.36,16.36,0,0,0,20,3.66Z"/>
  <path class="cls-1" d="M13.76,25.66a10.84,10.84,0,0,0,3,2.05,8,8,0,0,0,3.14.61,4.2,4.2,0,0,0,1.47-.25,3.6,3.6,0,0,0,1.2-.71,3.34,3.34,0,0,0,.82-1.11,3.54,3.54,0,0,0,.29-1.45,3.53,3.53,0,0,0-1.12-2.89A6.11,6.11,0,0,0,18.77,21h-.7V18.22h.79a9.78,9.78,0,0,0,1.7-.2,4,4,0,0,0,1.38-.55,2.53,2.53,0,0,0,.91-1,4,4,0,0,0,.32-1.73,2.77,2.77,0,0,0-1-2.34,4,4,0,0,0-2.47-.74,8.36,8.36,0,0,0-1.34.11,6.58,6.58,0,0,0-1.3.38,7.5,7.5,0,0,0-1.33.71,12.58,12.58,0,0,0-1.43,1.12.22.22,0,0,1-.27,0,.24.24,0,0,1-.12-.23V11a8.46,8.46,0,0,1,2.45-1.48,9.19,9.19,0,0,1,3.46-.67,7.92,7.92,0,0,1,5.05,1.45,5,5,0,0,1,1.83,4.12,4.86,4.86,0,0,1-.32,1.79,5.11,5.11,0,0,1-.88,1.5,4.84,4.84,0,0,1-1.32,1.1,4.9,4.9,0,0,1-1.65.62v.06a6.36,6.36,0,0,1,3.38,1.75,4.77,4.77,0,0,1,1.3,3.48,6.07,6.07,0,0,1-1.92,4.45A6.85,6.85,0,0,1,23,30.59a8.27,8.27,0,0,1-3.09.53,11,11,0,0,1-3.65-.6,7.62,7.62,0,0,1-2.9-1.75V25.86a.26.26,0,0,1,.12-.24A.25.25,0,0,1,13.76,25.66Z"/>
</svg>
