<svg id="레이어_1" data-name="레이어 1" xmlns="http://www.w3.org/2000/svg" viewBox="0 0 40 37.22">
  <defs>
    <style>
      .cls-1 {
        fill: #e3ca95;
      }

      .cls-1, .cls-2, .cls-3, .cls-4, .cls-5 {
        fill-rule: evenodd;
      }

      .cls-2 {
        fill: #ec331e;
      }

      .cls-3 {
        fill: #ff9500;
      }

      .cls-4 {
        fill: #2b2722;
      }
    </style>
  </defs>
  <title>1</title>
  <g>
    <polygon class="cls-1" points="14.14 0.62 14.64 14.29 13.74 24.43 21.14 22.42 29.32 20.19 33.15 18.61 33.15 6.3 14.14 0.62"/>
    <polygon class="cls-2" points="20.36 2.95 20.46 22.6 26.66 21.11 26.46 4.62 20.36 2.95"/>
    <polygon class="cls-2" points="32.93 6.23 32.93 18.7 39.55 17.18 39 8.81 35.83 7.08 32.93 6.23"/>
    <polygon class="cls-3" points="0.43 8.77 1.44 6.3 3.91 7.08 3.91 11.22 4.24 35.54 2.53 36.92 1.05 35.81 0.58 33.7 0.43 8.77"/>
    <g>
      <path class="cls-1" d="M15.9,3.13A11.36,11.36,0,0,0,14.51,4.6a3.15,3.15,0,0,0-.88,1.7.55.55,0,0,0,.84.45c.5-.29.76-.93,1.11-1.38A11.51,11.51,0,0,1,16.84,4C17.47,3.46,16.52,2.57,15.9,3.13Z" transform="translate(0 -1.27)"/>
      <path class="cls-1" d="M19,3.45c-1,1-1.91,2-2.81,3-.72.86-1.79,1.83-2.07,2.94A.55.55,0,0,0,15,10c1-.58,1.65-1.87,2.38-2.74s1.73-2,2.63-2.9C20.58,3.75,19.63,2.85,19,3.45Z" transform="translate(0 -1.27)"/>
      <path class="cls-1" d="M19.63,6.85c-.95,1.2-1.92,2.39-2.87,3.59a17.35,17.35,0,0,0-2.54,3.39c-.22.48.32,1.2.85.8a17.18,17.18,0,0,0,2.72-3.21L20.63,7.8C21.17,7.11,20.19,6.15,19.63,6.85Z" transform="translate(0 -1.27)"/>
      <path class="cls-1" d="M20,20.33c-.7.71-1.41,1.41-2.14,2.09a8.67,8.67,0,0,0-2,2c-.22.42.18,1,.67.83a7,7,0,0,0,2.19-1.81q1.13-1.1,2.19-2.25A.62.62,0,0,0,20,20.33Z" transform="translate(0 -1.27)"/>
      <path class="cls-1" d="M28.21,6.28A23.64,23.64,0,0,0,26,8.58c-.35.46.14,1.28.7.86a25.8,25.8,0,0,0,2.4-2.28C29.71,6.58,28.79,5.7,28.21,6.28Z" transform="translate(0 -1.27)"/>
      <path class="cls-1" d="M30.79,7.37,28.39,9.7A12,12,0,0,0,26.21,12c-.34.57.36,1.15.89.85a12.09,12.09,0,0,0,2.32-2.15c.79-.79,1.57-1.58,2.37-2.37C32.41,7.69,31.43,6.76,30.79,7.37Z" transform="translate(0 -1.27)"/>
      <path class="cls-1" d="M31.86,10.12c-1,1-1.91,2-2.87,3.05C28.2,14,27.05,14.88,26.7,16a.59.59,0,0,0,.73.7c1.11-.44,1.88-1.62,2.67-2.48L33,11.16C33.61,10.45,32.52,9.41,31.86,10.12Z" transform="translate(0 -1.27)"/>
      <path class="cls-1" d="M31.73,14.48q-1.56,1.79-3.28,3.42c-.55.52-1.11,1-1.69,1.51-.42.36-.9.62-1,1.19-.07.4.2.91.68.85a.84.84,0,0,0,.59-.27.57.57,0,0,0,.13-.36c.1.08.23-.16.42-.33l.77-.68q.76-.69,1.5-1.41,1.45-1.45,2.79-3C33.2,14.74,32.27,13.84,31.73,14.48Z" transform="translate(0 -1.27)"/>
      <path class="cls-1" d="M31.7,18l-1.39,1.58a6.69,6.69,0,0,0-1.26,1.6.63.63,0,0,0,.87.83,7.18,7.18,0,0,0,1.42-1.44L32.72,19C33.31,18.28,32.3,17.3,31.7,18Z" transform="translate(0 -1.27)"/>
      <path class="cls-2" d="M22.27,4.43,21.19,5.62a3.25,3.25,0,0,0-.9,1.27.54.54,0,0,0,.68.65,3.43,3.43,0,0,0,1.18-1l1.09-1.19C23.81,4.72,22.86,3.8,22.27,4.43Z" transform="translate(0 -1.27)"/>
      <path class="cls-2" d="M25,5.31c-.81.79-1.61,1.58-2.4,2.4a13.12,13.12,0,0,0-2.08,2.39c-.27.47.32,1.07.78.75A17,17,0,0,0,23.55,8.6c.77-.83,1.56-1.64,2.36-2.43C26.47,5.6,25.58,4.75,25,5.31Z" transform="translate(0 -1.27)"/>
      <path class="cls-2" d="M25.55,8.53c-1,1-1.92,2-2.8,3a11.18,11.18,0,0,0-2.06,2.93c-.23.61.61.88,1,.55A22.31,22.31,0,0,0,24,12.14c.78-.94,1.62-1.85,2.48-2.72C27.05,8.83,26.13,8,25.55,8.53Z" transform="translate(0 -1.27)"/>
      <path class="cls-2" d="M26.21,11.84A19.9,19.9,0,0,0,23.07,15c-.95,1.14-2,2.23-2.9,3.43-.4.56.43,1.32,1,.93A16.79,16.79,0,0,0,24,16.11,20.73,20.73,0,0,1,27,12.81C27.55,12.36,26.77,11.39,26.21,11.84Z" transform="translate(0 -1.27)"/>
      <path class="cls-2" d="M26.28,15.74c-1.12,1-2.2,2.07-3.24,3.17a12.67,12.67,0,0,0-2.64,3.3c-.2.48.28,1.13.81.77a19.46,19.46,0,0,0,2.85-3.09c1-1.12,2.09-2.19,3.19-3.22C27.88,16.08,26.91,15.17,26.28,15.74Z" transform="translate(0 -1.27)"/>
      <path class="cls-2" d="M26.08,19.9a18.87,18.87,0,0,0-2.36,2.37c-.38.52.14,1.39.78,1a19.92,19.92,0,0,0,2.58-2.37C27.72,20.23,26.72,19.29,26.08,19.9Z" transform="translate(0 -1.27)"/>
      <path class="cls-2" d="M34.42,8.88a13.3,13.3,0,0,1-1.33,1.27.58.58,0,0,0,0,.78.61.61,0,0,0,.77.13A7.21,7.21,0,0,0,35.4,9.82C36,9.19,35,8.24,34.42,8.88Z" transform="translate(0 -1.27)"/>
      <path class="cls-2" d="M37,9.36c-.75.64-1.48,1.31-2.19,2a9.65,9.65,0,0,0-1.9,2.09.63.63,0,0,0,.87.84,15.75,15.75,0,0,0,2-2c.69-.7,1.41-1.38,2.15-2S37.64,8.83,37,9.36Z" transform="translate(0 -1.27)"/>
      <path class="cls-2" d="M38.27,11.82c-1,.85-2,1.73-2.89,2.66A10.71,10.71,0,0,0,33,17.3c-.23.53.3,1.15.84.81a16.11,16.11,0,0,0,2.62-2.6c.92-.94,1.88-1.84,2.86-2.7C40,12.2,39,11.22,38.27,11.82Z" transform="translate(0 -1.27)"/>
      <path class="cls-3" d="M2.76,8.21,1.41,9.37c-.4.35-1,.7-1.19,1.19a.43.43,0,0,0,.49.62c.54-.13,1-.68,1.37-1L3.48,8.9C4,8.47,3.24,7.8,2.76,8.21Z" transform="translate(0 -1.27)"/>
      <path class="cls-3" d="M2.91,11.13l-1.2,1A5.26,5.26,0,0,0,.64,13.27c-.2.34.17.86.55.69A4.87,4.87,0,0,0,2.46,13l1.27-1.11C4.28,11.43,3.46,10.65,2.91,11.13Z" transform="translate(0 -1.27)"/>
      <path class="cls-3" d="M3.34,14.23A15.83,15.83,0,0,0,1.7,15.41c-.46.36-1.13.78-1.26,1.37a.47.47,0,0,0,.58.56c.54-.12.94-.71,1.34-1.06a15.28,15.28,0,0,1,1.53-1.15C4.45,14.75,3.91,13.87,3.34,14.23Z" transform="translate(0 -1.27)"/>
      <path class="cls-3" d="M3.54,17.3q-.82.72-1.65,1.47c-.45.42-1.18.88-1.3,1.51a.44.44,0,0,0,.55.52c.62-.1,1.12-.85,1.55-1.27s1.07-1,1.62-1.5S4.05,16.85,3.54,17.3Z" transform="translate(0 -1.27)"/>
      <path class="cls-3" d="M3.67,21c-.64.48-1.26,1-1.87,1.49S.48,23.41.28,24.12a.45.45,0,0,0,.56.53c.63-.16,1.11-.83,1.58-1.25s1.18-1,1.79-1.52S4.21,20.59,3.67,21Z" transform="translate(0 -1.27)"/>
      <path class="cls-3" d="M3.49,24.85,1.86,26.2A5.86,5.86,0,0,0,.38,27.57a.55.55,0,0,0,.63.78,5.92,5.92,0,0,0,1.63-1.24c.56-.49,1.12-1,1.69-1.46S4.06,24.39,3.49,24.85Z" transform="translate(0 -1.27)"/>
      <path class="cls-3" d="M3.43,28.64c-1.06.81-2.19,1.58-3.17,2.47-.48.42.17,1.22.7.87C2,31.26,3,30.38,4,29.59,4.56,29.15,4,28.21,3.43,28.64Z" transform="translate(0 -1.27)"/>
      <path class="cls-3" d="M3.62,32.2c-.58.47-1.17.94-1.77,1.39A7.57,7.57,0,0,0,.27,34.87c-.28.37,0,1,.52.84a6.78,6.78,0,0,0,1.86-1.3c.6-.48,1.18-1,1.77-1.46S4.16,31.76,3.62,32.2Z" transform="translate(0 -1.27)"/>
      <path class="cls-4" d="M4.78,33.29c0-1.52,0-3.05-.07-4.57q-.11-7.2-.22-14.4a35.09,35.09,0,0,1,4.84,5.22c.61.92,1.12,1.89,1.66,2.84a18.37,18.37,0,0,1,1.8,3.15.64.64,0,0,0,.45.74.81.81,0,0,0,1,.2,19.53,19.53,0,0,1,6.63-2,28.87,28.87,0,0,0,5.91-1.15c1.94-.68,3.75-1.66,5.69-2.35a31.77,31.77,0,0,1,6.8-1.55.76.76,0,0,0,.73-.76l-.06-4.71c0-1.19.32-3-.25-4-.47-.91-1.72-1.21-2.6-1.56-1.37-.56-2.77-1.06-4.17-1.53C26.78,4.77,20.54,3,14.34,1.29a.73.73,0,0,0-.9.72l0,.2a.55.55,0,0,0-.33.15C11.51,4,10.2,6,8.73,7.71S5.91,11,4.46,12.57l0-1.13a4.81,4.81,0,0,0,0-3,.61.61,0,0,0,0-.14.44.44,0,0,0-.34-.44,2.82,2.82,0,0,0-.67-.61,2.09,2.09,0,0,0-3.16.82A8,8,0,0,0,0,11v4.54q0,4.55,0,9.09c0,2.92,0,5.85,0,8.77,0,1.75-.12,4.18,1.86,4.95,1.45.57,2.56-.51,2.83-1.88a15.15,15.15,0,0,0,.07-3.16ZM10.65,19a33.69,33.69,0,0,0-5.33-5.61c1.53-1.67,3-3.35,4.48-5.08a51.56,51.56,0,0,0,3.68-4.48,150.82,150.82,0,0,1-.13,19.6c-.27-.39-.53-.75-.7-1.05-.66-1.12-1.28-2.29-2-3.38Zm9.25,4.09-.11,0a20.77,20.77,0,0,0-5.15,1.58,132.58,132.58,0,0,0,.07-21.37c0-.14,0-.28,0-.42,1.68.51,3.36,1,5,1.49.25,3.12.4,6.25.41,9.39s-.38,6.23-.31,9.31Zm1.31-.19a59.52,59.52,0,0,0,.24-8.85c0-3.11-.19-6.22-.46-9.32l5,1.45q0,3.94,0,7.89c0,2.59-.19,5.3.07,7.88a26.78,26.78,0,0,1-4.86.95Zm6-1.38c.17-2.46-.05-5-.08-7.48s-.07-5-.11-7.54l3,.91,2.28.73a76.66,76.66,0,0,0,0,11.24c-1.76.61-3.43,1.45-5.16,2.14ZM38.48,18a32.41,32.41,0,0,0-4.89,1c.14-3.47-.11-7-.07-10.47l.36.12,1.59.58a9.53,9.53,0,0,1,2.45,1c1,.86.53,3.13.53,4.29s0,2.3,0,3.45ZM3.57,36.57c-1,1-1.8.91-2.24-.34a4.2,4.2,0,0,1-.19-1.16c-.17-2.46,0-5,0-7.46s0-5.05,0-7.57,0-5,0-7.57c0-1-.32-2.52,0-3.41.63-1.72,1.91-.9,2.23.15,0,.57,0,1.15,0,1.72-.06.35-.13.7-.19,1a.48.48,0,0,0,.21.51l.12,11.11.09,7.91c0,1.22.07,2.44,0,3.66A3.14,3.14,0,0,1,3.57,36.57Z" transform="translate(0 -1.27)"/>
    </g>
    <g>
      <path class="cls-1" d="M15.9,3.13A11.36,11.36,0,0,0,14.51,4.6a3.15,3.15,0,0,0-.88,1.7.55.55,0,0,0,.84.45c.5-.29.76-.93,1.11-1.38A11.51,11.51,0,0,1,16.84,4C17.47,3.46,16.52,2.57,15.9,3.13Z" transform="translate(0 -1.27)"/>
      <path class="cls-1" d="M19,3.45c-1,1-1.91,2-2.81,3-.72.86-1.79,1.83-2.07,2.94A.55.55,0,0,0,15,10c1-.58,1.65-1.87,2.38-2.74s1.73-2,2.63-2.9C20.58,3.75,19.63,2.85,19,3.45Z" transform="translate(0 -1.27)"/>
      <path class="cls-1" d="M19.63,6.85c-.95,1.2-1.92,2.39-2.87,3.59a17.35,17.35,0,0,0-2.54,3.39c-.22.48.32,1.2.85.8a17.18,17.18,0,0,0,2.72-3.21L20.63,7.8C21.17,7.11,20.19,6.15,19.63,6.85Z" transform="translate(0 -1.27)"/>
      <path class="cls-1" d="M20,20.33c-.7.71-1.41,1.41-2.14,2.09a8.67,8.67,0,0,0-2,2c-.22.42.18,1,.67.83a7,7,0,0,0,2.19-1.81q1.13-1.1,2.19-2.25A.62.62,0,0,0,20,20.33Z" transform="translate(0 -1.27)"/>
      <path class="cls-1" d="M28.21,6.28A23.64,23.64,0,0,0,26,8.58c-.35.46.14,1.28.7.86a25.8,25.8,0,0,0,2.4-2.28C29.71,6.58,28.79,5.7,28.21,6.28Z" transform="translate(0 -1.27)"/>
      <path class="cls-1" d="M30.79,7.37,28.39,9.7A12,12,0,0,0,26.21,12c-.34.57.36,1.15.89.85a12.09,12.09,0,0,0,2.32-2.15c.79-.79,1.57-1.58,2.37-2.37C32.41,7.69,31.43,6.76,30.79,7.37Z" transform="translate(0 -1.27)"/>
      <path class="cls-1" d="M31.86,10.12c-1,1-1.91,2-2.87,3.05C28.2,14,27.05,14.88,26.7,16a.59.59,0,0,0,.73.7c1.11-.44,1.88-1.62,2.67-2.48L33,11.16C33.61,10.45,32.52,9.41,31.86,10.12Z" transform="translate(0 -1.27)"/>
      <path class="cls-1" d="M31.73,14.48q-1.56,1.79-3.28,3.42c-.55.52-1.11,1-1.69,1.51-.42.36-.9.62-1,1.19-.07.4.2.91.68.85a.84.84,0,0,0,.59-.27.57.57,0,0,0,.13-.36c.1.08.23-.16.42-.33l.77-.68q.76-.69,1.5-1.41,1.45-1.45,2.79-3C33.2,14.74,32.27,13.84,31.73,14.48Z" transform="translate(0 -1.27)"/>
      <path class="cls-1" d="M31.7,18l-1.39,1.58a6.69,6.69,0,0,0-1.26,1.6.63.63,0,0,0,.87.83,7.18,7.18,0,0,0,1.42-1.44L32.72,19C33.31,18.28,32.3,17.3,31.7,18Z" transform="translate(0 -1.27)"/>
      <path class="cls-2" d="M22.27,4.43,21.19,5.62a3.25,3.25,0,0,0-.9,1.27.54.54,0,0,0,.68.65,3.43,3.43,0,0,0,1.18-1l1.09-1.19C23.81,4.72,22.86,3.8,22.27,4.43Z" transform="translate(0 -1.27)"/>
      <path class="cls-2" d="M25,5.31c-.81.79-1.61,1.58-2.4,2.4a13.12,13.12,0,0,0-2.08,2.39c-.27.47.32,1.07.78.75A17,17,0,0,0,23.55,8.6c.77-.83,1.56-1.64,2.36-2.43C26.47,5.6,25.58,4.75,25,5.31Z" transform="translate(0 -1.27)"/>
      <path class="cls-2" d="M25.55,8.53c-1,1-1.92,2-2.8,3a11.18,11.18,0,0,0-2.06,2.93c-.23.61.61.88,1,.55A22.31,22.31,0,0,0,24,12.14c.78-.94,1.62-1.85,2.48-2.72C27.05,8.83,26.13,8,25.55,8.53Z" transform="translate(0 -1.27)"/>
      <path class="cls-2" d="M26.21,11.84A19.9,19.9,0,0,0,23.07,15c-.95,1.14-2,2.23-2.9,3.43-.4.56.43,1.32,1,.93A16.79,16.79,0,0,0,24,16.11,20.73,20.73,0,0,1,27,12.81C27.55,12.36,26.77,11.39,26.21,11.84Z" transform="translate(0 -1.27)"/>
      <path class="cls-2" d="M26.08,19.9a18.87,18.87,0,0,0-2.36,2.37c-.38.52.14,1.39.78,1a19.92,19.92,0,0,0,2.58-2.37C27.72,20.23,26.72,19.29,26.08,19.9Z" transform="translate(0 -1.27)"/>
      <path class="cls-2" d="M34.42,8.88a13.3,13.3,0,0,1-1.33,1.27.58.58,0,0,0,0,.78.61.61,0,0,0,.77.13A7.21,7.21,0,0,0,35.4,9.82C36,9.19,35,8.24,34.42,8.88Z" transform="translate(0 -1.27)"/>
      <path class="cls-2" d="M37,9.36c-.75.64-1.48,1.31-2.19,2a9.65,9.65,0,0,0-1.9,2.09.63.63,0,0,0,.87.84,15.75,15.75,0,0,0,2-2c.69-.7,1.41-1.38,2.15-2S37.64,8.83,37,9.36Z" transform="translate(0 -1.27)"/>
      <path class="cls-2" d="M38.27,11.82c-1,.85-2,1.73-2.89,2.66A10.71,10.71,0,0,0,33,17.3c-.23.53.3,1.15.84.81a16.11,16.11,0,0,0,2.62-2.6c.92-.94,1.88-1.84,2.86-2.7C40,12.2,39,11.22,38.27,11.82Z" transform="translate(0 -1.27)"/>
      <path class="cls-3" d="M2.76,8.21,1.41,9.37c-.4.35-1,.7-1.19,1.19a.43.43,0,0,0,.49.62c.54-.13,1-.68,1.37-1L3.48,8.9C4,8.47,3.24,7.8,2.76,8.21Z" transform="translate(0 -1.27)"/>
      <path class="cls-3" d="M2.91,11.13l-1.2,1A5.26,5.26,0,0,0,.64,13.27c-.2.34.17.86.55.69A4.87,4.87,0,0,0,2.46,13l1.27-1.11C4.28,11.43,3.46,10.65,2.91,11.13Z" transform="translate(0 -1.27)"/>
      <path class="cls-3" d="M3.34,14.23A15.83,15.83,0,0,0,1.7,15.41c-.46.36-1.13.78-1.26,1.37a.47.47,0,0,0,.58.56c.54-.12.94-.71,1.34-1.06a15.28,15.28,0,0,1,1.53-1.15C4.45,14.75,3.91,13.87,3.34,14.23Z" transform="translate(0 -1.27)"/>
      <path class="cls-3" d="M3.54,17.3q-.82.72-1.65,1.47c-.45.42-1.18.88-1.3,1.51a.44.44,0,0,0,.55.52c.62-.1,1.12-.85,1.55-1.27s1.07-1,1.62-1.5S4.05,16.85,3.54,17.3Z" transform="translate(0 -1.27)"/>
      <path class="cls-3" d="M3.67,21c-.64.48-1.26,1-1.87,1.49S.48,23.41.28,24.12a.45.45,0,0,0,.56.53c.63-.16,1.11-.83,1.58-1.25s1.18-1,1.79-1.52S4.21,20.59,3.67,21Z" transform="translate(0 -1.27)"/>
      <path class="cls-3" d="M3.49,24.85,1.86,26.2A5.86,5.86,0,0,0,.38,27.57a.55.55,0,0,0,.63.78,5.92,5.92,0,0,0,1.63-1.24c.56-.49,1.12-1,1.69-1.46S4.06,24.39,3.49,24.85Z" transform="translate(0 -1.27)"/>
      <path class="cls-3" d="M3.43,28.64c-1.06.81-2.19,1.58-3.17,2.47-.48.42.17,1.22.7.87C2,31.26,3,30.38,4,29.59,4.56,29.15,4,28.21,3.43,28.64Z" transform="translate(0 -1.27)"/>
      <path class="cls-3" d="M3.62,32.2c-.58.47-1.17.94-1.77,1.39A7.57,7.57,0,0,0,.27,34.87c-.28.37,0,1,.52.84a6.78,6.78,0,0,0,1.86-1.3c.6-.48,1.18-1,1.77-1.46S4.16,31.76,3.62,32.2Z" transform="translate(0 -1.27)"/>
      <path class="cls-5" d="M4.78,33.29c0-1.52,0-3.05-.07-4.57q-.11-7.2-.22-14.4a35.09,35.09,0,0,1,4.84,5.22c.61.92,1.12,1.89,1.66,2.84a18.37,18.37,0,0,1,1.8,3.15.64.64,0,0,0,.45.74.81.81,0,0,0,1,.2,19.53,19.53,0,0,1,6.63-2,28.87,28.87,0,0,0,5.91-1.15c1.94-.68,3.75-1.66,5.69-2.35a31.77,31.77,0,0,1,6.8-1.55.76.76,0,0,0,.73-.76l-.06-4.71c0-1.19.32-3-.25-4-.47-.91-1.72-1.21-2.6-1.56-1.37-.56-2.77-1.06-4.17-1.53C26.78,4.77,20.54,3,14.34,1.29a.73.73,0,0,0-.9.72l0,.2a.55.55,0,0,0-.33.15C11.51,4,10.2,6,8.73,7.71S5.91,11,4.46,12.57l0-1.13a4.81,4.81,0,0,0,0-3,.61.61,0,0,0,0-.14.44.44,0,0,0-.34-.44,2.82,2.82,0,0,0-.67-.61,2.09,2.09,0,0,0-3.16.82A8,8,0,0,0,0,11v4.54q0,4.55,0,9.09c0,2.92,0,5.85,0,8.77,0,1.75-.12,4.18,1.86,4.95,1.45.57,2.56-.51,2.83-1.88a15.15,15.15,0,0,0,.07-3.16ZM10.65,19a33.69,33.69,0,0,0-5.33-5.61c1.53-1.67,3-3.35,4.48-5.08a51.56,51.56,0,0,0,3.68-4.48,150.82,150.82,0,0,1-.13,19.6c-.27-.39-.53-.75-.7-1.05-.66-1.12-1.28-2.29-2-3.38Zm9.25,4.09-.11,0a20.77,20.77,0,0,0-5.15,1.58,132.58,132.58,0,0,0,.07-21.37c0-.14,0-.28,0-.42,1.68.51,3.36,1,5,1.49.25,3.12.4,6.25.41,9.39s-.38,6.23-.31,9.31Zm1.31-.19a59.52,59.52,0,0,0,.24-8.85c0-3.11-.19-6.22-.46-9.32l5,1.45q0,3.94,0,7.89c0,2.59-.19,5.3.07,7.88a26.78,26.78,0,0,1-4.86.95Zm6-1.38c.17-2.46-.05-5-.08-7.48s-.07-5-.11-7.54l3,.91,2.28.73a76.66,76.66,0,0,0,0,11.24c-1.76.61-3.43,1.45-5.16,2.14ZM38.48,18a32.41,32.41,0,0,0-4.89,1c.14-3.47-.11-7-.07-10.47l.36.12,1.59.58a9.53,9.53,0,0,1,2.45,1c1,.86.53,3.13.53,4.29s0,2.3,0,3.45ZM3.57,36.57c-1,1-1.8.91-2.24-.34a4.2,4.2,0,0,1-.19-1.16c-.17-2.46,0-5,0-7.46s0-5.05,0-7.57,0-5,0-7.57c0-1-.32-2.52,0-3.41.63-1.72,1.91-.9,2.23.15,0,.57,0,1.15,0,1.72-.06.35-.13.7-.19,1a.48.48,0,0,0,.21.51l.12,11.11.09,7.91c0,1.22.07,2.44,0,3.66A3.14,3.14,0,0,1,3.57,36.57Z" transform="translate(0 -1.27)"/>
    </g>
  </g>
</svg>
