<svg xmlns="http://www.w3.org/2000/svg" xmlns:xlink="http://www.w3.org/1999/xlink" viewBox="0 0 40 40">
  <defs>
    <style>
      .cls-1 {
        isolation: isolate;
      }

      .cls-2 {
        fill: url(#linear-gradient);
      }

      .cls-3, .cls-4 {
        opacity: 0.25;
      }

      .cls-12, .cls-13, .cls-3, .cls-5, .cls-6, .cls-7 {
        mix-blend-mode: multiply;
      }

      .cls-3 {
        fill: url(#radial-gradient);
      }

      .cls-10, .cls-4 {
        fill: #fff;
      }

      .cls-5, .cls-6, .cls-7 {
        opacity: 0.35;
      }

      .cls-5 {
        fill: url(#linear-gradient-2);
      }

      .cls-6 {
        fill: url(#linear-gradient-3);
      }

      .cls-7 {
        fill: url(#linear-gradient-4);
      }

      .cls-8 {
        fill: #5d4037;
      }

      .cls-9 {
        fill: #4e342e;
      }

      .cls-11 {
        fill: #f5f5f5;
      }

      .cls-12 {
        fill: #cfd8dc;
      }

      .cls-13 {
        opacity: 0.5;
        fill: url(#linear-gradient-5);
      }
    </style>
    <linearGradient id="linear-gradient" x1="20" y1="-0.67" x2="20" y2="40.75" gradientUnits="userSpaceOnUse">
      <stop offset="0" stop-color="#ffe082"/>
      <stop offset="1" stop-color="#ffbf66"/>
    </linearGradient>
    <radialGradient id="radial-gradient" cx="20" cy="20" r="20" gradientUnits="userSpaceOnUse">
      <stop offset="0.8" stop-color="#fff"/>
      <stop offset="1" stop-color="#ffbf66"/>
    </radialGradient>
    <linearGradient id="linear-gradient-2" x1="20" y1="17.63" x2="20" y2="40.41" xlink:href="#linear-gradient"/>
    <linearGradient id="linear-gradient-3" x1="23.07" y1="7" x2="31.27" y2="7" xlink:href="#linear-gradient"/>
    <linearGradient id="linear-gradient-4" x1="8.73" y1="7.01" x2="16.91" y2="7.01" xlink:href="#linear-gradient"/>
    <linearGradient id="linear-gradient-5" x1="10.87" y1="30.13" x2="29.13" y2="30.13" xlink:href="#linear-gradient"/>
  </defs>
  <title>1</title>
  <g class="cls-1">
    <g id="레이어_1" data-name="레이어 1">
      <g>
        <g>
          <circle class="cls-2" cx="20" cy="20" r="20"/>
          <circle class="cls-3" cx="20" cy="20" r="20"/>
          <path class="cls-4" d="M36.5,15.12c0,7.43-7.39,0-16.5,0s-16.5,7.43-16.5,0S10.89,1.67,20,1.67,36.5,7.69,36.5,15.12Z"/>
          <path class="cls-5" d="M20,36A20,20,0,0,1,.1,18,18.86,18.86,0,0,0,0,20a20,20,0,0,0,40,0,18.86,18.86,0,0,0-.1-2A20,20,0,0,1,20,36Z"/>
        </g>
        <g>
          <g>
            <path class="cls-6" d="M24.84,4.39c2.5,1.1,5.41,2.59,6.43,5.34-1.39-1.8-3.89-2.59-6.05-2.83-.78-.09-1.78-.06-2.08-1A1.26,1.26,0,0,1,24.84,4.39Z"/>
            <path class="cls-7" d="M15.81,6.78c-2.52.29-5.42.8-7.08,3,.79-2.14,3-3.87,5.07-4.74.69-.3,1.63-1,2.41-.59A1.26,1.26,0,0,1,15.81,6.78Z"/>
            <path class="cls-8" d="M24.84,3.72c2.5,1.1,5.41,2.59,6.43,5.34-1.39-1.8-3.89-2.58-6.05-2.83-.78-.09-1.78-.05-2.08-1A1.26,1.26,0,0,1,24.84,3.72Z"/>
            <path class="cls-8" d="M15.81,6.11c-2.52.29-5.42.8-7.08,3,.79-2.13,3-3.86,5.07-4.74.69-.3,1.63-1,2.41-.59A1.26,1.26,0,0,1,15.81,6.11Z"/>
          </g>
          <g>
            <g>
              <ellipse class="cls-4" cx="26.97" cy="16.71" rx="5.98" ry="6.02"/>
              <ellipse class="cls-8" cx="26.97" cy="16.71" rx="5.23" ry="5.27"/>
              <path class="cls-9" d="M27,12.93a5.24,5.24,0,0,1,5.17,4.53,4.65,4.65,0,0,0,.06-.75,5.24,5.24,0,1,0-10.47,0,6.15,6.15,0,0,0,.06.75A5.25,5.25,0,0,1,27,12.93Z"/>
              <path class="cls-10" d="M31.45,16.71A4.48,4.48,0,1,1,27,12.2,4.5,4.5,0,0,1,31.45,16.71Z"/>
              <path class="cls-11" d="M27,20.48a3.77,3.77,0,1,1,3.73-3.77A3.76,3.76,0,0,1,27,20.48Z"/>
              <path class="cls-10" d="M31.17,16.07c0,1.89-1.88,0-4.2,0s-4.21,1.89-4.21,0a4.24,4.24,0,0,1,8.41,0Z"/>
              <path class="cls-8" d="M28.75,16.71a1.79,1.79,0,0,1-3.57,0A1.79,1.79,0,0,1,28.75,16.71Z"/>
              <path class="cls-12" d="M27,13a4.49,4.49,0,0,1,4.46,4.14c0-.13,0-.25,0-.38a4.48,4.48,0,1,0-9,0c0,.13,0,.25,0,.38A4.49,4.49,0,0,1,27,13Z"/>
            </g>
            <g>
              <ellipse class="cls-4" cx="13.03" cy="16.71" rx="5.98" ry="6.02"/>
              <ellipse class="cls-8" cx="13.03" cy="16.71" rx="5.23" ry="5.27"/>
              <path class="cls-9" d="M13,12.93a5.24,5.24,0,0,0-5.17,4.53,4.65,4.65,0,0,1-.06-.75,5.24,5.24,0,1,1,10.47,0,6.15,6.15,0,0,1-.06.75A5.25,5.25,0,0,0,13,12.93Z"/>
              <path class="cls-10" d="M8.55,16.71A4.48,4.48,0,1,0,13,12.2,4.5,4.5,0,0,0,8.55,16.71Z"/>
              <path class="cls-11" d="M13,20.48A3.77,3.77,0,1,0,9.3,16.71,3.76,3.76,0,0,0,13,20.48Z"/>
              <path class="cls-10" d="M8.83,16.07c0,1.89,1.88,0,4.2,0s4.21,1.89,4.21,0A4.09,4.09,0,0,0,13,12.35,4.09,4.09,0,0,0,8.83,16.07Z"/>
              <path class="cls-8" d="M11.25,16.71a1.79,1.79,0,0,0,3.57,0A1.79,1.79,0,0,0,11.25,16.71Z"/>
              <path class="cls-12" d="M13,13a4.49,4.49,0,0,0-4.46,4.14c0-.13,0-.25,0-.38a4.48,4.48,0,1,1,9,0c0,.13,0,.25,0,.38A4.49,4.49,0,0,0,13,13Z"/>
            </g>
          </g>
          <g>
            <polygon class="cls-13" points="10.87 31.95 13.46 30.13 10.87 28.31 15.17 22.17 20 25.55 24.83 22.17 29.13 28.31 26.54 30.13 29.13 31.95 24.83 38.09 20 34.71 15.17 38.09 10.87 31.95"/>
            <g>
              <g>
                <rect class="cls-10" x="12.14" y="27.05" width="15.72" height="6.17" transform="translate(-13.66 16.92) rotate(-35)"/>
                <rect class="cls-11" x="12.81" y="27.71" width="14.38" height="4.83" transform="translate(-13.66 16.92) rotate(-35)"/>
              </g>
              <g>
                <polygon class="cls-12" points="14.04 30.54 19.42 34.3 25.96 29.72 20.58 25.96 14.04 30.54"/>
                <rect class="cls-10" x="16.92" y="22.27" width="6.17" height="15.72" transform="translate(-16.15 29.23) rotate(-55)"/>
                <rect class="cls-11" x="17.58" y="22.94" width="4.83" height="14.38" transform="translate(-16.15 29.23) rotate(-55)"/>
              </g>
            </g>
          </g>
        </g>
      </g>
    </g>
  </g>
</svg>
