<svg id="레이어_1" data-name="레이어 1" xmlns="http://www.w3.org/2000/svg" xmlns:xlink="http://www.w3.org/1999/xlink" viewBox="0 0 28.27 39.94">
  <defs>
    <style>
      .cls-1 {
        fill: #1e1e29;
      }

      .cls-2 {
        fill: #bcceeb;
      }

      .cls-3 {
        opacity: 0.1;
      }

      .cls-4 {
        fill: #313142;
      }

      .cls-5 {
        fill: #cbdaf2;
      }

      .cls-6 {
        fill: url(#linear-gradient);
      }

      .cls-7 {
        fill: #231e1a;
      }

      .cls-19, .cls-20, .cls-8 {
        fill: #fff;
      }

      .cls-9 {
        fill: #ffc596;
      }

      .cls-10 {
        fill: #b54d26;
      }

      .cls-10, .cls-11, .cls-19 {
        opacity: 0.3;
      }

      .cls-11 {
        fill: #bf3c1b;
      }

      .cls-12 {
        fill: #423833;
      }

      .cls-13 {
        fill: #1a1614;
      }

      .cls-14 {
        fill: #2b241e;
      }

      .cls-15 {
        fill: #a88686;
      }

      .cls-16 {
        fill: #ffa26f;
      }

      .cls-17 {
        fill: #c20902;
        opacity: 0.5;
      }

      .cls-18 {
        fill: #f5f5f5;
      }

      .cls-20 {
        opacity: 0.7;
      }
    </style>
    <linearGradient id="linear-gradient" x1="20.98" y1="31.74" x2="20.98" y2="34.73" gradientUnits="userSpaceOnUse">
      <stop offset="0" stop-color="#ee996d"/>
      <stop offset="0.02" stop-color="#ee9a6e"/>
      <stop offset="0.37" stop-color="#f8b181"/>
      <stop offset="0.71" stop-color="#fdbf8d"/>
      <stop offset="1" stop-color="#ffc491"/>
    </linearGradient>
  </defs>
  <title>1</title>
  <g>
    <g>
      <path class="cls-1" d="M16.58,32.79a12.35,12.35,0,0,0-2,.67c-1,.52-1.45.76-1.45,1.8a22.5,22.5,0,0,1-.5,4.68h3.4c.51-2,.85-4.37.85-4.37Z" transform="translate(-5.48)"/>
      <path class="cls-1" d="M27,33.46a12.35,12.35,0,0,0-2-.67l-.32,2.78s.34,2.33.85,4.37H29a22.41,22.41,0,0,1-.51-4.68C28.47,34.22,28,34,27,33.46Z" transform="translate(-5.48)"/>
      <path class="cls-2" d="M25,32.5a9.69,9.69,0,0,0-8.24.2c-2.31,1.41-1.92,3.71-1.32,7.24H26.12C26.78,36.54,27.21,33.64,25,32.5Z" transform="translate(-5.48)"/>
      <path class="cls-3" d="M17.18,34a5.36,5.36,0,0,0,2.27,2.78l1.25-1.42,1.65,1.41a4.34,4.34,0,0,0,2.22-3.22C24.59,32.68,16.67,32.22,17.18,34Z" transform="translate(-5.48)"/>
      <g>
        <path class="cls-1" d="M17.11,32.63s-2.75.69-3,1.26.47,3.31,1,6H17.9A25.76,25.76,0,0,0,17.11,32.63Z" transform="translate(-5.48)"/>
        <path class="cls-4" d="M17.64,34c-.14-.35-2.57.5-2.52.81s1.09,2.9,1.86,5.16h.94A26.86,26.86,0,0,0,17.64,34Z" transform="translate(-5.48)"/>
        <path class="cls-4" d="M15.06,33.31c0,.26,2.69,1.55,2.68,1.29s-.07-3-.07-3A9.91,9.91,0,0,0,15.06,33.31Z" transform="translate(-5.48)"/>
      </g>
      <g>
        <path class="cls-1" d="M27.5,33.89c-.22-.57-3-1.26-3-1.26a26.12,26.12,0,0,0-.8,7.31h2.82C27,37.2,27.68,34.33,27.5,33.89Z" transform="translate(-5.48)"/>
        <path class="cls-4" d="M24,34a28.23,28.23,0,0,0-.28,6h.95c.77-2.26,1.82-5,1.86-5.16S24.14,33.62,24,34Z" transform="translate(-5.48)"/>
        <path class="cls-4" d="M24,31.57s-.07,2.77-.08,3,2.73-1,2.69-1.29A9.91,9.91,0,0,0,24,31.57Z" transform="translate(-5.48)"/>
      </g>
      <path class="cls-5" d="M17.2,31.88c-1.4,2,2.14,4.42,2.14,4.42l1.37-1.12,1.56,1.17s3.21-1.82,2.07-4.27C23.32,29.88,18.61,29.92,17.2,31.88Z" transform="translate(-5.48)"/>
      <path class="cls-6" d="M19.87,29.56a2.42,2.42,0,0,0-1.51,2.28c-.07,1.31,1.48,3.07,2.56,3.11.81,0,4.26-2.43,1.84-4.82A3.35,3.35,0,0,0,19.87,29.56Z" transform="translate(-5.48)"/>
      <path class="cls-5" d="M20.87,36.42a.35.35,0,0,0-.35.35.36.36,0,0,0,.71,0A.36.36,0,0,0,20.87,36.42Z" transform="translate(-5.48)"/>
      <path class="cls-5" d="M20.87,38.37a.35.35,0,0,0-.35.35.36.36,0,0,0,.71,0A.36.36,0,0,0,20.87,38.37Z" transform="translate(-5.48)"/>
    </g>
    <g>
      <path class="cls-7" d="M30.11,6.35c-1.25-1.64-1.64-3.47.43-3.59-1.35-1-5.16-2-9.38-1.82.13-.37,0-.64.39-.94-1.8.24-4,.28-6.27,1.68-1.06.64-1.52,1.61-2.74,2a11.82,11.82,0,0,0-3,1.22,10.3,10.3,0,0,0-4,5.27,2.63,2.63,0,0,1,2-.57,4.6,4.6,0,0,0-.44,4.25c.56,1.53-.76,3.53-.28,6.42C7.55,24.74,11,24.44,11,27.32a25.57,25.57,0,0,0,2.82-1.94c.54-.76.66-1.69,1.25-2.44a8,8,0,0,1,6.36-2.62c1.66,0,2.26.75,3.24,1.86.65.73,3.09,1.66,4.58,4.7a6,6,0,0,0,1.47-3.34c.25.45,1.27.45,2.26,0-1.17-.94-2.11-4-2-5.43.09-1,1.89-1.85,1-4.48-.24-.7-.41-.56-.44-1.3a5.65,5.65,0,0,0,2.22-1.19C31.23,11,31.58,8.26,30.11,6.35Z" transform="translate(-5.48)"/>
      <path class="cls-8" d="M29.57,22.13a.93.93,0,1,0,.84.85A.84.84,0,0,0,29.57,22.13Z" transform="translate(-5.48)"/>
      <path class="cls-9" d="M19.81,6.65c-5.48.48-9.7,5.28-9.27,12.91s5.31,12.52,10.81,12.53c4.86,0,9.34-6.87,8.67-14.48S25.29,6.16,19.81,6.65Z" transform="translate(-5.48)"/>
      <path class="cls-9" d="M8.63,17.55c-2.44,1.11-1.25,5.35.81,6a4,4,0,0,0,2,0s0-.05,0-.08c.27-.6-.39-3.44-.57-4C10.48,18,9.8,17,8.63,17.55Z" transform="translate(-5.48)"/>
      <path class="cls-10" d="M10.05,19c-.67-.36-2.37.09-1.64,1.48.47-1.21,1.18-.35,1,.52-.1.59-.72.56-.13,1.35a1.09,1.09,0,0,0,1.36.13C11.79,21.9,10.85,19.47,10.05,19Z" transform="translate(-5.48)"/>
      <path class="cls-8" d="M10.44,22.89a.93.93,0,0,0,0,1.84.93.93,0,0,0,0-1.84Z" transform="translate(-5.48)"/>
      <path class="cls-11" d="M26.45,7.14a27.75,27.75,0,0,0-9,.7A10.89,10.89,0,0,0,9.8,18.78c.24,2.73,1.16,6.36,4.49,6.15a11.24,11.24,0,0,1-.77-1.17,12.78,12.78,0,0,1-.86-9c.18,0,1.1.33,1.08.57.18-2,1-2.8,2.82-3.51A15.11,15.11,0,0,1,21,10.69c1.09,0,2.1.94,3.06,1.43a5.86,5.86,0,0,0,3.41.69,2.37,2.37,0,0,1-.32-1.17c0-.25,1.48,1.25,1.55,1.35a4.93,4.93,0,0,1,1,2.39C29.62,13.25,28,7.26,26.45,7.14Z" transform="translate(-5.48)"/>
      <path class="cls-7" d="M27.41,6.19c-5.29-2.41-10.67-.94-15.65,1.47a6,6,0,0,0-2.58,2.43C8.1,12,9,17,10,20.93a4.1,4.1,0,0,0,3.31,3.4c-2.45-3.23-1-11.11,0-12.79a2.58,2.58,0,0,0,.24,2.56c0-1.78,1.55-2.39,2.87-3.08A14.51,14.51,0,0,1,21.84,9.5,6.24,6.24,0,0,0,26.5,12a1.1,1.1,0,0,1-.42-1.39,6.93,6.93,0,0,1,2,.83c.16.14,1.58,1.39,1.58,1.47,0-1.36.54-2.82.1-4.11A4.32,4.32,0,0,0,27.41,6.19Z" transform="translate(-5.48)"/>
      <path class="cls-12" d="M30.06,7.56c-.78-.94-2-2.84-4.24-3.34a7.66,7.66,0,0,1,2.8-1.57,15.65,15.65,0,0,0-5.14-.8c-.69,0-1.41.44-2.09.18C21.18,2,20.25,1.3,20.73.49a21.21,21.21,0,0,0-4,1.32c-1.11.54-2,1.43-3.08,2-1.43.76-2.8.53-4.6,1.73C8,6.27,7.25,7.85,6.83,8.38,7.58,8,9.71,7,10.5,7.18c-1,2.36-.86,3.64-3.1,5.81,4.42.63,5.32-2.78,6.89-3.29-.09.74-.4,1.43-.44,2.18,2-2.64,5.16-3.17,8.22-3.56A6,6,0,0,0,25,10.43a5.56,5.56,0,0,1,.2-2c1.29.16,6.42,3.69,7.52,2.82C31.15,11.19,31.12,8.84,30.06,7.56Z" transform="translate(-5.48)"/>
    </g>
    <g>
      <path class="cls-13" d="M17.27,17.06C15.76,16.54,15,19.21,16.09,20a2.1,2.1,0,0,1,1.46,0A1.8,1.8,0,0,0,17.27,17.06Z" transform="translate(-5.48)"/>
      <path class="cls-13" d="M28.19,17c-1.49-.89-2.77,2.45-1.12,2.91a1.88,1.88,0,0,1,1.3-.22C28.94,19,29,17.46,28.19,17Z" transform="translate(-5.48)"/>
      <path class="cls-14" d="M13.25,16.17a7.89,7.89,0,0,1,3.46-.78c1.26,0,1.9.41,2.06-1a24.58,24.58,0,0,1-2.85.49A4.53,4.53,0,0,0,13.25,16.17Z" transform="translate(-5.48)"/>
      <path class="cls-14" d="M28,14.48a18.06,18.06,0,0,1-2.43-.38c.1,1.42.66,1,1.74.94a5.92,5.92,0,0,1,2.95.65A3.47,3.47,0,0,0,28,14.48Z" transform="translate(-5.48)"/>
      <path class="cls-10" d="M22.63,22c-.54.05-.78-.16-1.13.08s.53.9,1.19.79,1.3-.79,1.08-1S23.22,22,22.63,22Z" transform="translate(-5.48)"/>
      <path class="cls-13" d="M13.09,17.76a2.71,2.71,0,0,0,3.44.2l-.21-.78A2.77,2.77,0,0,1,13.09,17.76Z" transform="translate(-5.48)"/>
      <path class="cls-13" d="M28.23,17,28,17.7a2.32,2.32,0,0,0,3.1.07C29.68,18.38,28.23,17,28.23,17Z" transform="translate(-5.48)"/>
      <path class="cls-15" d="M16.59,17.51c-.58.24,0,1.37.5.9S17.1,17.29,16.59,17.51Z" transform="translate(-5.48)"/>
      <path class="cls-15" d="M27.45,17.28c-.56.13-.25,1.25.33.91C28.19,18,28,17.16,27.45,17.28Z" transform="translate(-5.48)"/>
      <path class="cls-16" d="M27.62,21.08c-.83.07-1.46.58-1.41,1.14s.76,1,1.58.88,1.45-.58,1.4-1.13S28.44,21,27.62,21.08Z" transform="translate(-5.48)"/>
      <path class="cls-16" d="M16.28,21.12c-.9-.08-1.68.36-1.73,1s.64,1.17,1.54,1.25,1.69-.37,1.74-1S17.19,21.19,16.28,21.12Z" transform="translate(-5.48)"/>
      <path class="cls-17" d="M26.24,24.71c-.16.16-3.92,3.69-9.11-.09a.47.47,0,0,0-.64.05.4.4,0,0,0,.08.59A10,10,0,0,0,20.18,27a7.52,7.52,0,0,0,6.76-1.68.39.39,0,0,0,0-.59A.51.51,0,0,0,26.24,24.71Z" transform="translate(-5.48)"/>
    </g>
    <g>
      <path class="cls-18" d="M20.12,17.32c-1.31-1.17-6.52-.6-8-.5s.85,2.95,1.67,3.55c1.12.8,5.13.7,6.26-.15A1.89,1.89,0,0,0,20.12,17.32ZM19.58,20a9.15,9.15,0,0,1-5.2.17c-1.05-.5-2.59-2.72-1.38-2.86s5.16-.82,6.78.35A1.4,1.4,0,0,1,19.58,20Z" transform="translate(-5.48)"/>
      <path class="cls-18" d="M20.31,17.62c.86-.58,3.66-.44,4,.26.22.4-.29.54-.48.44a5.38,5.38,0,0,0-3.31-.11C20.2,18.08,20.21,17.69,20.31,17.62Z" transform="translate(-5.48)"/>
      <path class="cls-18" d="M24.49,20.17c1.06.86,4.39.91,5.54.08.85-.61,2.51-3.84,1.4-3.84-1.35,0-5.71-.37-6.92.72A2.07,2.07,0,0,0,24.49,20.17Zm.44-2.56c1.67-1.22,4.78-.66,5.89-.6.8,0-.27,2.56-1.33,3.09A6.85,6.85,0,0,1,25,20,1.43,1.43,0,0,1,24.93,17.61Z" transform="translate(-5.48)"/>
      <path class="cls-19" d="M13.35,17.59c.83-.35,5.62-.5,6.07,0,.32.38-.89.89-1.45,1a11.94,11.94,0,0,1-3.78-.08C13.91,18.46,12.61,17.91,13.35,17.59Z" transform="translate(-5.48)"/>
      <path class="cls-8" d="M17.36,17.58c.85-.1,2.31.12,2.13.42s-2.5.39-2.7,0C16.69,17.75,17,17.63,17.36,17.58Z" transform="translate(-5.48)"/>
      <path class="cls-20" d="M14.37,19.43c.56.07,1.48.52,1.33.74S14,20,14,19.65C13.92,19.45,14.11,19.4,14.37,19.43Z" transform="translate(-5.48)"/>
      <path class="cls-19" d="M25.32,17.59c.81-.38,5-.66,5.45-.14s-.87.92-1.42,1a8.26,8.26,0,0,1-3.17,0C25.9,18.44,24.58,17.94,25.32,17.59Z" transform="translate(-5.48)"/>
      <path class="cls-8" d="M28.71,17.48c.84-.13,2.31.05,2.14.35s-2.49.47-2.7.05C28.05,17.66,28.31,17.53,28.71,17.48Z" transform="translate(-5.48)"/>
      <path class="cls-20" d="M25.74,19.42c.57,0,1.49.47,1.35.69s-1.68-.07-1.76-.46C25.29,19.45,25.47,19.39,25.74,19.42Z" transform="translate(-5.48)"/>
    </g>
  </g>
</svg>
