<svg id="레이어_1" data-name="레이어 1" xmlns="http://www.w3.org/2000/svg" viewBox="0 0 39.59 40">
  <defs>
    <style>
      .cls-1 {
        fill: #e3ca95;
      }

      .cls-1, .cls-2 {
        fill-rule: evenodd;
      }
    </style>
  </defs>
  <title>1</title>
  <g>
    <polygon class="cls-1" points="1.37 1.24 13.91 38.59 20.49 25.76 31.34 37.11 36.84 31.69 26.1 20.96 38.59 13.75 1.37 1.24"/>
    <path class="cls-1" d="M4.18,3.4c-.3,1.19-.64,2.38-.9,3.58a.43.43,0,0,0,.84.21C4.47,6,4.72,4.8,5,3.61a.43.43,0,0,0-.84-.21Z" transform="translate(-0.2 0)"/>
    <path class="cls-1" d="M6.86,4A27.3,27.3,0,0,0,5,10.83c0,.55.77.58.92.11.69-2.22,1-4.51,1.81-6.72.2-.56-.68-.77-.88-.23Z" transform="translate(-0.2 0)"/>
    <path class="cls-1" d="M9.68,5.63a85.26,85.26,0,0,0-2.59,10.3c-.1.63.82.88,1,.24.83-3.45,1.51-6.91,2.48-10.32.16-.56-.69-.76-.86-.22Z" transform="translate(-0.2 0)"/>
    <path class="cls-1" d="M12.1,6.68c-1.25,5.07-2.73,10.13-3.71,15.25a.46.46,0,0,0,.89.22c1.46-5,2.43-10.19,3.62-15.26A.41.41,0,0,0,12.1,6.68Z" transform="translate(-0.2 0)"/>
    <path class="cls-1" d="M14.91,7.42c-1.86,6.66-4,13.36-5.37,20.14a.52.52,0,0,0,1,.25c2-6.62,3.42-13.48,5.17-20.19a.41.41,0,0,0-.8-.2Z" transform="translate(-0.2 0)"/>
    <path class="cls-1" d="M18,8.18c-2.14,7.93-4.71,15.93-6.23,24a.56.56,0,0,0,1.08.27c2.39-7.87,4-16.08,6-24.05A.44.44,0,0,0,18,8.18Z" transform="translate(-0.2 0)"/>
    <path class="cls-1" d="M21.05,9.45Q19,17,17,24.56l-1.95,7.25c-.5,1.91-1.19,3.55-.85,5.5.11.58,1,.37,1-.16.19-4.65,2.2-9.64,3.36-14.14s2.27-8.89,3.4-13.34A.46.46,0,0,0,21.05,9.45Z" transform="translate(-0.2 0)"/>
    <path class="cls-1" d="M24.36,10.42C23,15.48,21.58,20.6,20.69,25.76a.54.54,0,0,0,1,.26C23,20.93,24,15.75,25.25,10.65a.46.46,0,0,0-.89-.23Z" transform="translate(-0.2 0)"/>
    <path class="cls-1" d="M27.6,11.16c-1.19,5.9-2.75,11.72-4,17.61a.51.51,0,0,0,1,.25c1.65-5.77,2.7-11.77,3.81-17.65.1-.54-.72-.75-.83-.21Z" transform="translate(-0.2 0)"/>
    <path class="cls-1" d="M31,12.07c-.57,2.38-1.17,4.76-1.7,7.16a.5.5,0,0,0,1,.24c.57-2.38,1.06-4.79,1.6-7.18A.45.45,0,0,0,31,12.07Z" transform="translate(-0.2 0)"/>
    <path class="cls-1" d="M28.4,23.57c-.28,1.29-.58,2.58-.95,3.85s-.91,2.49-1.14,3.78a.46.46,0,0,0,.84.33c1.23-2.24,1.66-5.25,2.13-7.74.11-.58-.77-.8-.89-.22Z" transform="translate(-0.2 0)"/>
    <path class="cls-1" d="M33.9,13a18.71,18.71,0,0,0-.81,3.85c0,.52.81.61.92.1.26-1.25.43-2.5.77-3.73C34.94,12.61,34.07,12.4,33.9,13Z" transform="translate(-0.2 0)"/>
    <path class="cls-1" d="M31,26.24c-.56,2.78-1.14,5.55-1.65,8.34-.16.64.87.9,1,.25.55-2.79,1-5.58,1.53-8.37.11-.58-.77-.8-.89-.22Z" transform="translate(-0.2 0)"/>
    <path class="cls-1" d="M33.61,27.6c-.69,2.76-1.59,5.54-2.05,8.34a.52.52,0,0,0,1,.26c.86-2.71,1.32-5.6,2-8.37A.47.47,0,0,0,33.61,27.6Z" transform="translate(-0.2 0)"/>
    <path class="cls-2" d="M39.09,13.12,19.64,6.94C13.46,5,7.21,3.1,1.43.08.85-.22,0,.34.26,1,2.25,6,4,11.13,5.78,16.2c.1.27.19.55.29.82,1.13,3.6,2.13,7.26,3.39,10.81.69,1.93,1.4,3.86,2,5.83a50.36,50.36,0,0,0,1.71,5.65A1,1,0,0,0,15,39.5a52.59,52.59,0,0,0,6.09-12.24q5.12,5.18,9.71,10.79a1,1,0,0,0,1.42,0L38,32.49a1,1,0,0,0,.13-1.22A57,57,0,0,0,27.74,21.05a125.55,125.55,0,0,1,11.61-6.21c.79-.38.43-1.5-.27-1.72ZM35.91,31.7l-4.34,4.16Q26.73,30,21.34,24.67a1,1,0,0,0-1.67.48,51.14,51.14,0,0,1-5.3,11.6c-.36-1.21-.64-2.45-1-3.67-.59-2-1.3-3.89-2-5.83S9.85,23.16,9,21.12q-.84-2.69-1.76-5.36C5.74,11.33,4.09,7,2.52,2.55c5.07,2.64,10.59,4.28,16,6l17.78,5.66c-3.68,1.83-7.27,3.82-10.81,5.92a1,1,0,0,0,0,1.67A56.38,56.38,0,0,1,35.91,31.7Z" transform="translate(-0.2 0)"/>
  </g>
</svg>
