<svg id="레이어_1" data-name="레이어 1" xmlns="http://www.w3.org/2000/svg" xmlns:xlink="http://www.w3.org/1999/xlink" viewBox="0 0 26.02 40">
  <defs>
    <style>
      .cls-1 {
        fill: #c93712;
      }

      .cls-2 {
        fill: #313142;
      }

      .cls-3 {
        fill: #ebebeb;
      }

      .cls-4 {
        fill: url(#linear-gradient);
      }

      .cls-5 {
        fill: #fbfbfb;
        opacity: 0.7;
      }

      .cls-6 {
        fill: #ffbc82;
      }

      .cls-10, .cls-7 {
        fill: #b54319;
      }

      .cls-7 {
        opacity: 0.2;
      }

      .cls-8 {
        fill: #e85216;
      }

      .cls-9 {
        fill: #ff7752;
        opacity: 0.4;
      }

      .cls-10 {
        opacity: 0.3;
      }

      .cls-11 {
        fill: #ffd4ad;
      }

      .cls-12 {
        fill: #261b18;
      }

      .cls-13 {
        fill: #947463;
      }

      .cls-14 {
        fill: #121b21;
      }

      .cls-15 {
        fill: #ff3b3b;
        opacity: 0.8;
      }

      .cls-16 {
        fill: #8f2621;
      }

      .cls-17 {
        fill: #fff9f0;
      }

      .cls-18 {
        fill: #e8dac5;
      }
    </style>
    <linearGradient id="linear-gradient" x1="20.47" y1="30.17" x2="20.47" y2="31.77" gradientUnits="userSpaceOnUse">
      <stop offset="0" stop-color="#ee996d"/>
      <stop offset="0.02" stop-color="#ee9a6e"/>
      <stop offset="0.37" stop-color="#f8b181"/>
      <stop offset="0.71" stop-color="#fdbf8d"/>
      <stop offset="1" stop-color="#ffc491"/>
    </linearGradient>
  </defs>
  <title>1</title>
  <g>
    <path class="cls-1" d="M32.24,31.87a9.34,9.34,0,0,0,.56-5.77c-.9-4.54.76-9.84.57-14.57-.49-12.08-15.9-14.7-21.6-7.7a17,17,0,0,0-4.16,9.75c-.13,2.56,1.32,5.36.83,7.79S7,25.84,7.51,28.31c.43,2.07,2.61,4.94,2.66,6.93a3.85,3.85,0,0,0,1.75-2.69s0,0,0,0c1.79,8,14.2,9,16.82,1.17a5.91,5.91,0,0,1,.86,2A10.72,10.72,0,0,0,32.24,31.87Z" transform="translate(-7.37)"/>
    <path class="cls-2" d="M25.82,33.82c-1.47-1.81-5.73-2.33-8-1.38-1.74.71-1.8,4-1.39,7.56h9C25.57,37.55,26.32,34.44,25.82,33.82Z" transform="translate(-7.37)"/>
    <g>
      <path class="cls-3" d="M24.8,37.54c.41-1.56.1-4.48-.92-4.87a9.62,9.62,0,0,0-6.44,0c-1.45.62-2,1.5-1,4.57A21.14,21.14,0,0,1,17.19,40h7.06A24.64,24.64,0,0,1,24.8,37.54Z" transform="translate(-7.37)"/>
      <path class="cls-4" d="M22.58,29.68c.14-2.45-4.07-2.54-4.06.13a8.62,8.62,0,0,1-.15,2.47c-.5,1.09,4.75,1.29,4.19.12C22.24,31.75,22.52,30.76,22.58,29.68Z" transform="translate(-7.37)"/>
      <path class="cls-5" d="M22.42,35.12a7,7,0,0,1-3.87-.06c-.7-.18-1.1.62-.88,1.3.29.91,1.74,1.15,3,1.13,2.5,0,3.44-1,3-2.09C23.59,35.1,23.06,34.89,22.42,35.12Z" transform="translate(-7.37)"/>
    </g>
    <g>
      <path class="cls-6" d="M19.87,5.8c-5.19.92-9,8.33-8.14,15.35.62,5.21,5,10.83,10.36,10.49,6.41-.41,9.65-8,9-14.19C30.33,10.42,27.13,4.51,19.87,5.8Z" transform="translate(-7.37)"/>
      <path class="cls-7" d="M28.91,7.91a24.46,24.46,0,0,0-8.6-2c-1.88-.08-4.42-.24-6.19.49a6.39,6.39,0,0,0-4.25,5.51c-.28,1.82,1.52,3.6,2.9,4.76,1-1,.56-2.29.55-3.44,0,1.61,4.38,1.49,5.36,1.15a17.8,17.8,0,0,0,1.83-.75c1.48-.72,3-1.76,3.44-3.13,1,1.62,5.8,5,7.61,3C33,11.88,30.43,8.55,28.91,7.91Z" transform="translate(-7.37)"/>
      <path class="cls-1" d="M27.4,4.5C24.59,2,20.86,2,17.34,2.51a9.38,9.38,0,0,0-5.72,3.85,11.6,11.6,0,0,0-2.19,6.49,30.65,30.65,0,0,0,.21,5.4c.08.87.11,3.64,1.24,3.95,1.33.35,2.55-3.72,3.13-4.54a11.28,11.28,0,0,1,4.82-4.18c2-.89,4.27-2,5.05-4.23,1.55,1.57,4.53,4.13,6.92,4,1.92-.1,1-2.43.52-3.62A14.4,14.4,0,0,0,27.4,4.5Z" transform="translate(-7.37)"/>
      <path class="cls-8" d="M19.67,1.05a10.91,10.91,0,0,0-8.79,6c-.57,1.18-1.62,3.63-1.42,5a1.69,1.69,0,0,0,1.42,1.49c.52.1,2.42-.32,2.55-1-.15.8-.84,1.47-1.11,2.26A20.37,20.37,0,0,0,20.92,11c.4-.33,3.13-3.07,2.69-3.61A7.65,7.65,0,0,0,32.49,10C31.48,3.1,24.44.81,19.67,1.05Z" transform="translate(-7.37)"/>
    </g>
    <g>
      <path class="cls-9" d="M30.22,20a2.31,2.31,0,0,0-1.89-.72c-.81,0-1.89.28-1.17,1.45.39.62,3.61,1.08,3.24-.35A1.21,1.21,0,0,0,30.22,20Z" transform="translate(-7.37)"/>
      <path class="cls-9" d="M17.87,19.78a2.42,2.42,0,0,0-2.11-.22c-.82.2-1.84.78-.81,1.77.56.53,4,.15,3.2-1.2A1.39,1.39,0,0,0,17.87,19.78Z" transform="translate(-7.37)"/>
      <path class="cls-10" d="M23.05,20.67c-.66-.05-.65-.41-1.13-.13s-.13,1.33,1,1.38,1.74-.83,1.51-1.19S23.79,20.72,23.05,20.67Z" transform="translate(-7.37)"/>
      <path class="cls-11" d="M22.93,17.65c-.55,0-1.34,2.65-1.06,3.05a1.68,1.68,0,0,0,2.61-.13C24.65,20.31,23.55,17.64,22.93,17.65Z" transform="translate(-7.37)"/>
      <path class="cls-12" d="M29.19,16.43c-1.84-.79-3.52,1.49-2.2,2.68a2.41,2.41,0,0,1,2.6-.08A1.65,1.65,0,0,0,29.19,16.43Z" transform="translate(-7.37)"/>
      <path class="cls-13" d="M28.75,16.7c-.86.27-.45,1.92.42,1.34C29.81,17.63,29.51,16.46,28.75,16.7Z" transform="translate(-7.37)"/>
      <path class="cls-12" d="M15.48,16.58a1.65,1.65,0,0,0-.32,2.61,2.41,2.41,0,0,1,2.59,0C19,18,17.3,15.74,15.48,16.58Z" transform="translate(-7.37)"/>
      <path class="cls-13" d="M16.86,16.81c-.77-.22-1,1-.39,1.35C17.37,18.72,17.72,17.05,16.86,16.81Z" transform="translate(-7.37)"/>
      <path class="cls-12" d="M18.05,14.34a10.25,10.25,0,0,0-2.7.16,4.53,4.53,0,0,0-1.7.73c-.15.12-.33.32-.32.5.15,0,.26-.07.4-.11a8.35,8.35,0,0,1,2.12-.22c.55,0,1.1,0,1.65,0,.37,0,.87.06,1.07-.31S18.54,14.36,18.05,14.34Z" transform="translate(-7.37)"/>
      <path class="cls-12" d="M30.66,15A4.5,4.5,0,0,0,29,14.33a9.58,9.58,0,0,0-2.62,0c-.49,0-.75.31-.5.74s.69.25,1.05.25c.53,0,1.07,0,1.6-.06a8.06,8.06,0,0,1,2.08.13c.13,0,.24.12.39.09A.73.73,0,0,0,30.66,15Z" transform="translate(-7.37)"/>
      <path class="cls-14" d="M28.82,16.11a1.91,1.91,0,0,0-2.17,1.37,1.72,1.72,0,0,1,1.92-.59,3.1,3.1,0,0,0,3.82-.71C30.61,17,29.69,16.27,28.82,16.11Z" transform="translate(-7.37)"/>
      <path class="cls-14" d="M15.91,16.3c-.87.17-1.78.93-3.57.11a3.11,3.11,0,0,0,3.83.67,1.71,1.71,0,0,1,1.93.57A1.91,1.91,0,0,0,15.91,16.3Z" transform="translate(-7.37)"/>
      <g>
        <path class="cls-15" d="M22.46,23.28c-2.15.1-5.31.74-7-.13,2.9,4.28,4.66,5.05,6.88,5.14a3.75,3.75,0,0,0,4.09-3,7.83,7.83,0,0,1,2.1-2.36C26.77,23.35,25.07,23.17,22.46,23.28Z" transform="translate(-7.37)"/>
        <path class="cls-16" d="M16.75,23.88a6.49,6.49,0,0,0,5.2,2.9c2.21,0,3.66-.69,4.05-1.68a2.86,2.86,0,0,1,1.37-1.48A23.63,23.63,0,0,1,16.75,23.88Z" transform="translate(-7.37)"/>
        <path class="cls-17" d="M18,24.13s.11.87,1.35,1.19a12.06,12.06,0,0,0,5,.14c1.18-.18,1.74-1.57,1.74-1.57A25.53,25.53,0,0,1,18,24.13Z" transform="translate(-7.37)"/>
        <path class="cls-17" d="M22.81,25.6a7.13,7.13,0,0,1-3.69-.48c-.57-.33-.61,0-.49.26,0,0,.53,1.2,3.15,1.44s3.81-1.22,3.52-1.46S24.27,25.53,22.81,25.6Z" transform="translate(-7.37)"/>
        <path class="cls-18" d="M18,24.13a1.36,1.36,0,0,0,.32.61s5.9-.55,7.32-.08a3,3,0,0,0,.47-.77A29.47,29.47,0,0,1,18,24.13Z" transform="translate(-7.37)"/>
        <path class="cls-18" d="M19.6,25.29a5.92,5.92,0,0,0,4.65.13A8.82,8.82,0,0,1,19.6,25.29Z" transform="translate(-7.37)"/>
      </g>
    </g>
    <path class="cls-2" d="M17.79,32.44a9.18,9.18,0,0,0-1.73.9h0c-.93.57-2.1,2-1.73,6.66h3.14C17.2,37,17,34.15,17.79,32.44Z" transform="translate(-7.37)"/>
    <path class="cls-2" d="M25.57,33.58a7.08,7.08,0,0,0-2-1.11c.75,1.71.59,4.5.32,7.53h3C27.28,35.9,26.42,34.3,25.57,33.58Z" transform="translate(-7.37)"/>
  </g>
</svg>
