<svg id="레이어_1" data-name="레이어 1" xmlns="http://www.w3.org/2000/svg" viewBox="0 0 25.75 40.08">
  <defs>
    <style>
      .cls-1 {
        fill: #1e1e29;
      }

      .cls-2 {
        fill: #e8e8e8;
      }

      .cls-3 {
        opacity: 0.1;
      }

      .cls-4 {
        fill: #1c1c26;
      }

      .cls-5 {
        fill: #313142;
      }

      .cls-6 {
        fill: #f5f5f5;
      }

      .cls-7 {
        fill: #f2b88e;
      }

      .cls-8 {
        fill: #2b2521;
      }

      .cls-9 {
        fill: #ffcb9e;
      }

      .cls-10 {
        fill: #1b2c33;
      }

      .cls-11, .cls-14 {
        fill: #d14f2e;
      }

      .cls-11 {
        opacity: 0.3;
      }

      .cls-12 {
        fill: #ffd8b5;
      }

      .cls-13 {
        fill: #a5abb8;
      }

      .cls-14 {
        opacity: 0.2;
      }

      .cls-15 {
        fill: #ff9d73;
      }

      .cls-16 {
        fill: #423833;
      }

      .cls-17 {
        fill: #b55623;
        opacity: 0.4;
      }

      .cls-18 {
        fill: #8f3935;
      }

      .cls-19 {
        fill: #fff9f0;
      }

      .cls-20 {
        fill: #e8dac5;
      }
    </style>
  </defs>
  <title>1</title>
  <g>
    <g>
      <path class="cls-1" d="M8.63,40.08h4.84l-2-6.77C9.59,34.47,8.59,35.21,8.63,40.08Z" transform="translate(-7.13)"/>
      <path class="cls-1" d="M29.21,33.31l-2,6.77H32C32.05,35.21,31.05,34.47,29.21,33.31Z" transform="translate(-7.13)"/>
      <path class="cls-2" d="M26.25,32.26c-1.41-3.45-8.92-2.44-10.91-.77s-2.53,3.69.45,6.63a17.56,17.56,0,0,0,2.35,2h4C24,38.08,27.09,34.29,26.25,32.26Z" transform="translate(-7.13)"/>
      <path class="cls-3" d="M16,33.24a6.6,6.6,0,0,0,2.55,3.38l2.09-2,2.23,1.9c2.13-1.9,2.55-3.09,2.73-3.76C26.15,30.63,15.07,30.29,16,33.24Z" transform="translate(-7.13)"/>
      <g>
        <path class="cls-4" d="M29.41,33.48A22.07,22.07,0,0,0,25.64,31c.09.22.4.69.38.92-.24,2.63-2,5.95-3.38,8.2H28.2C28.7,37.53,29.71,33.8,29.41,33.48Z" transform="translate(-7.13)"/>
        <path class="cls-4" d="M15.28,31.84a3.26,3.26,0,0,1,.37-.69c-1.58.68-4.49,2.08-4.74,2.59s1.17,3.32,1.85,6.34H19C17,37.53,14.56,33.72,15.28,31.84Z" transform="translate(-7.13)"/>
      </g>
      <g>
        <path class="cls-5" d="M27.15,37.26a17.29,17.29,0,0,0-1.23-2.18l2.16-1.34a9.8,9.8,0,0,0-3-3.47c.37,3.68-1.48,7.48-2.83,9.81H24.3A37.38,37.38,0,0,0,27.15,37.26Z" transform="translate(-7.13)"/>
        <path class="cls-5" d="M13,34.18l2.59,1.06A26,26,0,0,0,14.45,38a21.61,21.61,0,0,0,2.48,2.12h2.44C18,38,16.05,34.57,16.05,30.7A6.91,6.91,0,0,0,13,34.18Z" transform="translate(-7.13)"/>
      </g>
      <path class="cls-6" d="M15.65,31.19c-1,2.66,2.74,4.83,2.74,4.83l2.25-1.41,2.1,1.33s4.16-2.17,2.59-5.28C23.91,27.87,16.86,28.09,15.65,31.19Z" transform="translate(-7.13)"/>
      <path class="cls-7" d="M19,27.46a3.13,3.13,0,0,0-2.33,2.89,2.46,2.46,0,0,0,.66,2.19,4.46,4.46,0,0,0,1.78,1c.49.16,1.36.74,1.51.74s.35-.25.81-.49a4.48,4.48,0,0,0,2-1.56c.55-1.08,1-3.22,0-4.07A6,6,0,0,0,19,27.46Z" transform="translate(-7.13)"/>
    </g>
    <g>
      <path class="cls-8" d="M18.17,1.37c-14.4,1.14-12,21.22-7.89,20.35,3-.64,6-1.5,9-2.25,2.8-.71,5.91-.17,8.77,0,2.25.15,2.21-.8,2.32-2.63.21-3.41-.17-4.66,0-6C31.09,5,26.41.72,18.17,1.37Z" transform="translate(-7.13)"/>
      <path class="cls-9" d="M18.66,5.64c-5.29,1-9,8.68-8,15.85.72,5.37,4.85,11.27,11.06,10.82s9.49-8.35,8.67-15C29.46,10.17,26.07,4.19,18.66,5.64Z" transform="translate(-7.13)"/>
      <path class="cls-10" d="M16.65,16.8c-1.37-.59-2.22,1.84-1.29,2.64a2,2,0,0,1,1.35.11A1.67,1.67,0,0,0,16.65,16.8Z" transform="translate(-7.13)"/>
      <path class="cls-11" d="M22.86,21.37c-.69,0-1-.16-1.46,0s.19.91,1.42.84,1.8-.75,1.53-.94S23.63,21.34,22.86,21.37Z" transform="translate(-7.13)"/>
      <path class="cls-12" d="M22.51,18.58c-.61,0-.75,1.2-1,1.75s-.38,1.08-.06,1.24a4.06,4.06,0,0,0,2.89-.2c.18-.12-.24-.68-.58-1.24S23.19,18.55,22.51,18.58Z" transform="translate(-7.13)"/>
      <path class="cls-10" d="M28.42,16.71c-1.38-.84-2.4,1.85-1.26,2.61a1.8,1.8,0,0,1,1.44,0A2,2,0,0,0,28.42,16.71Z" transform="translate(-7.13)"/>
      <path class="cls-13" d="M16.16,17.23c-.55.19-.13,1.27.41.87S16.65,17.06,16.16,17.23Z" transform="translate(-7.13)"/>
      <path class="cls-13" d="M27.88,17c-.55.11-.29,1.19.27.89S28.36,16.91,27.88,17Z" transform="translate(-7.13)"/>
      <path class="cls-9" d="M8.77,18.5c-2.6.72-1.55,4.53.57,5.3a5.18,5.18,0,0,0,2.1.23l0-.07c.31-.49-.25-3-.41-3.55C10.67,19.09,10,18.16,8.77,18.5Z" transform="translate(-7.13)"/>
      <path class="cls-14" d="M27.92,7.63a24.15,24.15,0,0,0-8.86-1.87c-2.11,0-5.26-.17-6.95,1.39-1.36,1.25-1.46,3.58-1.54,5.29,0,.66,0,5.65.36,4.57a19.47,19.47,0,0,1,1.74-2.91c.35-.62.36-1.75,1.12-2,1-.4,2.07,1.2,3.05,1.43a6.39,6.39,0,0,0,.3-1.62,5.71,5.71,0,0,1,1.78.58c.44.21.87.46,1.26.69.55.32,1.12.58,1.7.86.29.14.58.33.88.45,0-.22.88-2.32.75-2.36.56.18,1.15.22,1.68.4a19.38,19.38,0,0,1,1.91.88c-.16-.07.57-1.21.95-1.19s.85.59,1.07,1,.74.83.68,1.15C30.12,12.46,29.92,8.43,27.92,7.63Z" transform="translate(-7.13)"/>
      <path class="cls-11" d="M9.68,19.91c-.58-.27-2,.21-1.35,1.36.36-1.06,1-.37.9.39-.06.51-.6.51-.07,1.16a1,1,0,0,0,1.18,0C11.29,22.26,10.4,20.24,9.68,19.91Z" transform="translate(-7.13)"/>
      <path class="cls-8" d="M17.08,1.94a12.83,12.83,0,0,0-5.43,3.21C9.56,7,9.09,9.14,9,11.86c0,2,.75,3.79.83,5.72A6.69,6.69,0,0,0,11,20.65a2.49,2.49,0,0,0,1.42,0c-1-.88-1.34-3.29-.58-5.55a22.13,22.13,0,0,0,.81-2.78c.13-.67.2-1.15,1-1.21,1.26-.09,2.49,1.22,3.57,1.7-.15-.51-.16-1.08-.35-1.55,2,.63,6,1.82,7,2.17a11.16,11.16,0,0,0-.18-2A25.82,25.82,0,0,0,28,13a13.26,13.26,0,0,0,.7-1.92,10.43,10.43,0,0,0,4.22,1.43C31.57,4.88,25.66-.47,17.08,1.94Z" transform="translate(-7.13)"/>
      <path class="cls-8" d="M15.87,13.92a3,3,0,0,0-2.25,1.81.33.33,0,0,0,.52.37A6.13,6.13,0,0,1,16,15.3a4.48,4.48,0,0,1,2.06.1.48.48,0,0,0,.54-.73C18.13,13.91,16.65,13.77,15.87,13.92Z" transform="translate(-7.13)"/>
      <path class="cls-8" d="M27.83,13.76A3.08,3.08,0,0,0,25.41,15a.42.42,0,0,0,.61.52A4.4,4.4,0,0,1,27.85,15a5.51,5.51,0,0,1,1.76.49A.3.3,0,0,0,30,15,2.62,2.62,0,0,0,27.83,13.76Z" transform="translate(-7.13)"/>
      <path class="cls-15" d="M29.59,20.55a2.38,2.38,0,0,0-2-.46c-.83.1-1.88.54-1,1.62.48.58,3.81.6,3.24-.79A1.23,1.23,0,0,0,29.59,20.55Z" transform="translate(-7.13)"/>
      <path class="cls-15" d="M17.14,20.78a2.49,2.49,0,0,0-2.1-.55c-.87.08-2,.51-1.09,1.67.48.62,4,.75,3.42-.73A1.09,1.09,0,0,0,17.14,20.78Z" transform="translate(-7.13)"/>
      <path class="cls-8" d="M24.68,0a35.72,35.72,0,0,1-7.44,1.47c-.74.11-2.1.4-2.4,1.23.88.17,1.81.14,2.69.26a34.2,34.2,0,0,0,7.5.15C25.8,3,26.6,2,27,1.57c-.84,0-2.05-.14-3.11-.19A5.87,5.87,0,0,0,24.68,0Z" transform="translate(-7.13)"/>
      <path class="cls-16" d="M28.93,6.05a10.24,10.24,0,0,0-6.84-3.88,16,16,0,0,0-6.8.53,7.93,7.93,0,0,0-3.11,2c-.9.95-1.71,2.51-.58,3.62A35.9,35.9,0,0,0,16,11.47c-.11-.57,0-1.18-.13-1.72a62,62,0,0,1,6.72,2,6.32,6.32,0,0,1,.19-1.63,8.63,8.63,0,0,1,4.14,1.53c.05-.73.31-1.39.37-2.1a8.45,8.45,0,0,1,4.17,1.2,18.59,18.59,0,0,0-1.65-3.53A11.68,11.68,0,0,0,28.93,6.05Z" transform="translate(-7.13)"/>
      <g>
        <path class="cls-17" d="M27.07,23.13c-.17.13.2,0,.69,0a.31.31,0,0,1,.2,0c-2.08,1.6-7.21,3.06-12.68.19l.13-.06c.51-.13,1.12,0,1-.1a3.57,3.57,0,0,0-1.49-.23c-.43.12-.66.87-.38,1s.34-.25.58-.48c.38,1.16,2.13,5.74,6.19,6,3,.22,4.11-1.28,5.22-3.17A17.1,17.1,0,0,0,28,23.16c.19.19.15.64.38.58s.38-.67,0-1S27.07,23.13,27.07,23.13Z" transform="translate(-7.13)"/>
        <path class="cls-18" d="M16,24s1.45,4.35,5.67,4.52A4.68,4.68,0,0,0,25.77,26a9.79,9.79,0,0,1,1.61-2.09A10.57,10.57,0,0,1,16,24Z" transform="translate(-7.13)"/>
        <path class="cls-19" d="M16,24a7.14,7.14,0,0,0,2.57,2.41,8.53,8.53,0,0,0,5.6.37c1.41-.33,3.25-2.91,3.25-2.91A12.14,12.14,0,0,1,16,24Z" transform="translate(-7.13)"/>
        <path class="cls-19" d="M22.16,26.85A8.79,8.79,0,0,1,18.31,26c-.75-.32-.67.45-.54.82,0,0,.73,1.36,3.51,1.67,2.62.3,3.89-1.69,3.55-2.09S24.1,26.88,22.16,26.85Z" transform="translate(-7.13)"/>
        <path class="cls-20" d="M16,24a5.38,5.38,0,0,0,1.11,1.36,48.16,48.16,0,0,0,9.31-.26,5.19,5.19,0,0,0,1-1.23A12.47,12.47,0,0,1,16,24Z" transform="translate(-7.13)"/>
        <path class="cls-20" d="M17.77,26c4.09,2.46,6.74.56,6.74.56A11.54,11.54,0,0,1,17.77,26Z" transform="translate(-7.13)"/>
      </g>
    </g>
  </g>
</svg>
