<svg id="레이어_1" data-name="레이어 1" xmlns="http://www.w3.org/2000/svg" viewBox="0 0 40 40">
  <defs>
    <style>
      .cls-1 {
        stroke: #000;
        stroke-miterlimit: 10;
        stroke-width: 0.75px;
      }
    </style>
  </defs>
  <title>1</title>
  <path d="M20,40A20,20,0,1,1,40,20,20,20,0,0,1,20,40ZM20,3.66A16.34,16.34,0,1,0,36.34,20,16.36,16.36,0,0,0,20,3.66Z"/>
  <path class="cls-1" d="M15.36,14.42c-.23.1-.34,0-.34-.22v-2a9.5,9.5,0,0,0,2.18-1.31A11.73,11.73,0,0,0,19,9.08H22.5V30.75H19V12.44h0a12,12,0,0,1-1.78,1.14A16.39,16.39,0,0,1,15.36,14.42Z"/>
</svg>
