<svg id="레이어_1" data-name="레이어 1" xmlns="http://www.w3.org/2000/svg" xmlns:xlink="http://www.w3.org/1999/xlink" viewBox="0 0 28.31 40">
  <defs>
    <style>
      .cls-1 {
        fill: #e8e8e8;
      }

      .cls-2 {
        fill: #1e1e29;
      }

      .cls-3 {
        fill: #313142;
      }

      .cls-4 {
        fill: url(#linear-gradient);
      }

      .cls-5 {
        fill: #121219;
      }

      .cls-13, .cls-5 {
        opacity: 0.5;
      }

      .cls-6 {
        fill: #452a1f;
      }

      .cls-7 {
        fill: #fff;
      }

      .cls-8 {
        fill: #ffc596;
      }

      .cls-9 {
        fill: #b54d26;
      }

      .cls-10, .cls-9 {
        opacity: 0.3;
      }

      .cls-10 {
        fill: #bf3c1b;
      }

      .cls-11 {
        fill: #693a27;
      }

      .cls-12 {
        fill: #ffa26f;
      }

      .cls-13 {
        fill: #c20902;
      }

      .cls-14 {
        fill: #1c5c57;
      }

      .cls-15 {
        fill: #6cd9d2;
        opacity: 0.7;
      }

      .cls-16 {
        fill: #121b21;
      }

      .cls-17 {
        fill: #2b221c;
      }
    </style>
    <linearGradient id="linear-gradient" x1="20.42" y1="31.48" x2="20.42" y2="34.13" gradientUnits="userSpaceOnUse">
      <stop offset="0" stop-color="#ee996d"/>
      <stop offset="0.02" stop-color="#ee9a6e"/>
      <stop offset="0.37" stop-color="#f8b181"/>
      <stop offset="0.71" stop-color="#fdbf8d"/>
      <stop offset="1" stop-color="#ffc491"/>
    </linearGradient>
  </defs>
  <title>1</title>
  <g>
    <path class="cls-1" d="M17.2,32.52c-1.36.61-1.71,2-2.08,3.45-.16.64-.71,2.73-1.15,4h2.31c.51-1.74,1.55-5.58,1.92-5.75Z" transform="translate(-5.35)"/>
    <path class="cls-1" d="M23.5,32.52l-1,1.73c.36.17,1.41,4,1.91,5.75h2.32c-.44-1.3-1-3.39-1.16-4C25.2,34.51,24.85,33.13,23.5,32.52Z" transform="translate(-5.35)"/>
    <g>
      <path class="cls-2" d="M24.35,37.7c.5-1.41.16-4.15-.66-5-1.89-2-5.14-1.37-6.42-.3-.51.43-1.34,2.39-.63,5.44a8.12,8.12,0,0,1,.2,2.2H24A5.13,5.13,0,0,1,24.35,37.7Z" transform="translate(-5.35)"/>
      <path class="cls-3" d="M20.6,36.81a.32.32,0,1,0,.33.31A.32.32,0,0,0,20.6,36.81Z" transform="translate(-5.35)"/>
      <path class="cls-3" d="M20.64,38.51a.32.32,0,1,0,.33.31A.32.32,0,0,0,20.64,38.51Z" transform="translate(-5.35)"/>
      <path class="cls-4" d="M22.89,31.9c-1.2-.65.09-3.6-.87-4.34a3,3,0,0,0-2.75-.28c-1.65.65,0,4.23-1.61,4.88-.31.13-.38.49.23,1.43A5.25,5.25,0,0,0,20.61,36a5.17,5.17,0,0,0,2.71-2.59A1.13,1.13,0,0,0,22.89,31.9Z" transform="translate(-5.35)"/>
      <path class="cls-5" d="M17.15,35.18l.27,2.16s2.9-1.22,3.18-1.22,3.27,1.31,3.27,1.31V35.2a32.18,32.18,0,0,1-3.26.77C20.24,36,17.15,35.18,17.15,35.18Z" transform="translate(-5.35)"/>
      <path class="cls-3" d="M22.92,31.91a2.18,2.18,0,0,1-.07,2.21A8.77,8.77,0,0,1,20.61,36l3.07.86S24.4,32.78,22.92,31.91Z" transform="translate(-5.35)"/>
      <path class="cls-3" d="M18.44,34.34a2.7,2.7,0,0,1-.7-2.29c-1.5,1-.17,4.76-.17,4.76l3-.84A6.19,6.19,0,0,1,18.44,34.34Z" transform="translate(-5.35)"/>
    </g>
    <g>
      <path class="cls-6" d="M30,6.36c-1.26-1.64-1.65-3.48.43-3.59-1.35-1-5.17-2.06-9.4-1.83.13-.37,0-.64.4-.94-1.81.24-4,.28-6.29,1.68-1.06.64-1.52,1.62-2.74,2a11.33,11.33,0,0,0-3,1.22,10.29,10.29,0,0,0-4.05,5.28,2.65,2.65,0,0,1,2-.58,4.59,4.59,0,0,0-.45,4.26c.57,1.53-.76,3.54-.28,6.43.77,4.52,4.27,4.21,4.19,7.1a27,27,0,0,0,2.82-1.94c.55-.76.66-1.7,1.26-2.44a8,8,0,0,1,6.36-2.63c1.66,0,2.26.76,3.25,1.86.65.74,3.09,1.67,4.59,4.71a6,6,0,0,0,1.47-3.35c.25.45,1.27.46,2.26,0-1.17-.94-2.11-4-2-5.44.1-1,1.9-1.85,1-4.48-.24-.7-.41-.56-.44-1.3a5.65,5.65,0,0,0,2.22-1.19C31.14,11,31.49,8.27,30,6.36Z" transform="translate(-5.35)"/>
      <path class="cls-7" d="M29.47,22.16a.86.86,0,0,0-.68,1,.84.84,0,0,0,.84.85.94.94,0,0,0-.16-1.84Z" transform="translate(-5.35)"/>
      <path class="cls-8" d="M19.7,6.66C14.21,7.14,10,12,10.41,19.59s5.32,12.54,10.83,12.54c4.87,0,9.35-6.87,8.69-14.49S25.19,6.17,19.7,6.66Z" transform="translate(-5.35)"/>
      <path class="cls-8" d="M8.5,17.58c-2.44,1.11-1.25,5.36.81,6a4.07,4.07,0,0,0,2,0,.25.25,0,0,1,0-.07c.27-.61-.39-3.45-.57-4C10.35,18,9.68,17,8.5,17.58Z" transform="translate(-5.35)"/>
      <path class="cls-9" d="M9.92,19.07c-.66-.36-2.37.09-1.63,1.48.47-1.21,1.18-.35,1,.53-.1.58-.73.55-.14,1.35a1.12,1.12,0,0,0,1.36.13C11.67,21.93,10.73,19.5,9.92,19.07Z" transform="translate(-5.35)"/>
      <path class="cls-7" d="M10.31,22.92a.94.94,0,0,0,0,1.85.94.94,0,0,0,0-1.85Z" transform="translate(-5.35)"/>
      <path class="cls-10" d="M26.35,7.15a27.79,27.79,0,0,0-9,.7,10.89,10.89,0,0,0-7.67,11c.23,2.73,1.16,6.36,4.49,6.16a12.4,12.4,0,0,1-.77-1.17,12.77,12.77,0,0,1-.86-9c.17,0,1.1.34,1.08.57.18-2,1-2.8,2.82-3.51A15.59,15.59,0,0,1,20.9,10.7c1.09,0,2.1,1,3.06,1.44a6,6,0,0,0,3.42.69,2.51,2.51,0,0,1-.32-1.17c0-.26,1.49,1.25,1.55,1.35a5,5,0,0,1,1,2.39C29.53,13.27,27.94,7.27,26.35,7.15Z" transform="translate(-5.35)"/>
      <path class="cls-6" d="M27.31,6.2C22,3.78,16.62,5.26,11.64,7.68A5.88,5.88,0,0,0,9.05,10.1C8,12,8.91,17,9.87,21a4.14,4.14,0,0,0,3.32,3.4c-2.45-3.24-1-11.13,0-12.81a2.56,2.56,0,0,0,.24,2.56c0-1.78,1.55-2.4,2.88-3.08a14.28,14.28,0,0,1,5.41-1.52A6.28,6.28,0,0,0,26.4,12a1.11,1.11,0,0,1-.42-1.4,7.25,7.25,0,0,1,2,.84,19.82,19.82,0,0,1,1.59,1.47c0-1.36.53-2.82.09-4.12A4.29,4.29,0,0,0,27.31,6.2Z" transform="translate(-5.35)"/>
      <path class="cls-11" d="M30,7.57c-.77-.94-2-2.84-4.24-3.34a7.66,7.66,0,0,1,2.8-1.57,15.41,15.41,0,0,0-5.15-.81c-.69,0-1.41.44-2.09.19C21.07,2,20.14,1.3,20.62.49a21.31,21.31,0,0,0-4,1.32c-1.11.54-2,1.43-3.08,2-1.43.75-2.8.53-4.61,1.73-1.1.73-1.81,2.31-2.23,2.84.75-.35,2.88-1.34,3.68-1.2-1,2.36-.86,3.64-3.11,5.82,4.43.63,5.33-2.78,6.9-3.3-.09.75-.4,1.44-.44,2.19,2-2.65,5.17-3.17,8.24-3.57a6,6,0,0,0,2.9,2.11,5.5,5.5,0,0,1,.2-2c1.29.15,6.43,3.69,7.53,2.81C31.06,11.2,31,8.86,30,7.57Z" transform="translate(-5.35)"/>
    </g>
    <g>
      <path class="cls-9" d="M22.52,22.05c-.54.05-.77-.16-1.13.08s.53.9,1.19.8,1.31-.79,1.09-1S23.12,22,22.52,22.05Z" transform="translate(-5.35)"/>
      <path class="cls-12" d="M27.52,21.12c-.83.06-1.46.57-1.41,1.13s.76.95,1.58.89,1.46-.58,1.41-1.14S28.34,21.05,27.52,21.12Z" transform="translate(-5.35)"/>
      <path class="cls-12" d="M16.17,21.15c-.91-.08-1.69.36-1.74,1s.64,1.18,1.55,1.25,1.68-.36,1.74-1S17.08,21.22,16.17,21.15Z" transform="translate(-5.35)"/>
      <path class="cls-13" d="M26.14,24.75c-.16.15-3.93,3.7-9.12-.09a.49.49,0,0,0-.65.05.38.38,0,0,0,.09.58A9.84,9.84,0,0,0,20.07,27a7.56,7.56,0,0,0,6.77-1.68.39.39,0,0,0,0-.59A.5.5,0,0,0,26.14,24.75Z" transform="translate(-5.35)"/>
      <path class="cls-14" d="M16.84,19.69a2,2,0,0,0-1.42,0c-1-.77-.35-3.49,1.12-3C17.64,17.09,17.75,19.09,16.84,19.69Z" transform="translate(-5.35)"/>
      <path class="cls-15" d="M16.5,17.66c.53-.09.72.78.27,1C16.15,19,15.9,17.77,16.5,17.66Z" transform="translate(-5.35)"/>
      <path class="cls-16" d="M12.15,17.49a3,3,0,0,0,3.57.05,1.4,1.4,0,0,1,1.63.09s-.4-1.57-1.78-.83A4.29,4.29,0,0,1,12.15,17.49Z" transform="translate(-5.35)"/>
      <path class="cls-14" d="M26.9,19.69a2,2,0,0,1,1.41,0c1-.77.36-3.49-1.11-3C26.1,17.09,26,19.09,26.9,19.69Z" transform="translate(-5.35)"/>
      <path class="cls-15" d="M27.92,17.66c-.53-.09-.72.78-.27,1C28.27,19,28.52,17.77,27.92,17.66Z" transform="translate(-5.35)"/>
      <path class="cls-16" d="M31.59,17.49a3,3,0,0,1-3.58.05,1.38,1.38,0,0,0-1.62.09s.4-1.57,1.78-.83A4.29,4.29,0,0,0,31.59,17.49Z" transform="translate(-5.35)"/>
      <path class="cls-17" d="M17.71,14.32a7.5,7.5,0,0,0-2.6.33,4.2,4.2,0,0,0-1.61,1,1,1,0,0,0-.3.66c.14,0,.25-.11.38-.16a6.32,6.32,0,0,1,2-.4c.54,0,1.07,0,1.6-.07.35,0,.84,0,1-.45S18.19,14.32,17.71,14.32Z" transform="translate(-5.35)"/>
      <path class="cls-17" d="M26.55,14.31a5.29,5.29,0,0,1,2.18.3,3.32,3.32,0,0,1,1.36,1,1.12,1.12,0,0,1,.24.65c-.12,0-.21-.1-.32-.15a4.5,4.5,0,0,0-1.71-.37c-.45,0-.9,0-1.34-.06s-.72,0-.86-.43S26.15,14.32,26.55,14.31Z" transform="translate(-5.35)"/>
    </g>
  </g>
</svg>
