<svg id="레이어_1" data-name="레이어 1" xmlns="http://www.w3.org/2000/svg" viewBox="0 0 40 37.82">
  <defs>
    <style>
      .cls-1 {
        fill-rule: evenodd;
      }
    </style>
  </defs>
  <title>1</title>
  <path class="cls-1" d="M39,22.19c-1.53.83-3.35,1-5,1.41a28.47,28.47,0,0,0-4.5,1.55c-2.82-1.6-5.63-3.22-8.41-4.89,3.13-1.76,6.28-3.51,9.35-5.37a.43.43,0,0,0,.23.09c3,.5,5.58,2.21,8.55,2.85.84.18,1.16-1.11.33-1.29C37,16,34.64,14.37,32.07,13.87q2-1.26,4-2.62c.7-.49,0-1.62-.69-1.13-1.35.93-2.71,1.82-4.09,2.7a48.85,48.85,0,0,1,1.8-8.15c.27-.82-1-1.14-1.29-.32a41.86,41.86,0,0,0-2,9.4c-3,1.86-6.12,3.61-9.24,5.32,0-3.34,0-6.69,0-10h0c2.52-2.27,5-4.59,7.47-6.92.57-.54-.31-1.39-.89-.85-2.17,2-4.37,4.06-6.57,6.07l0-5.62c0-.83-1.28-.8-1.29,0,0,1.72,0,3.45,0,5.17q-3.25-2.74-6.4-5.63c-.6-.55-1.46.36-.87.9q3.54,3.3,7.26,6.39c0,3.53-.06,7.07-.07,10.6q-3.81-2.3-7.57-4.67a.5.5,0,0,0-.11-.53c-.28-1.49-.81-3-1.21-4.42-.49-1.8-.94-3.61-1.47-5.4a.59.59,0,0,0-.51-.43.6.6,0,0,0-.76.74s0,0,0,.07a.55.55,0,0,0,.11.23c.4,1.74.88,3.46,1.34,5.17.33,1.17.6,2.38,1,3.54-1.73-1.11-3.47-2.23-5.19-3.37-.65-.43-1.23.64-.58,1.06,1.65,1.09,3.32,2.18,5,3.25-1.22.37-2.53.62-3.7,1-1.73.5-3.44,1-5.15,1.57a.61.61,0,0,0,.35,1.16c2-.6,4-1.2,6-1.77a21.28,21.28,0,0,0,3.9-1q3.91,2.47,7.87,4.87C16,21.58,13.34,23,10.73,24.36a77.28,77.28,0,0,1-10-2.55C0,21.6-.29,22.74.43,23a66.9,66.9,0,0,0,8.5,2.38Q6.24,26.8,3.6,28.29c-.78.44-.06,1.55.72,1.17,1.84-.9,3.66-1.86,5.47-2.84-.64,2.83-1.58,5.59-2,8.48-.12.77,1,1.07,1.18.29q.44-2.6,1.11-5.15a42.7,42.7,0,0,0,1.19-4.4c2.69-1.49,5.34-3,8-4.54q0,4.72,0,9.44a67.66,67.66,0,0,0-6.72,6.39.64.64,0,0,0,.93.89c1.85-1.94,3.83-3.72,5.79-5.54,0,1.93,0,3.86,0,5.8a.67.67,0,0,0,1.34,0c0-1.92,0-3.86,0-5.78,2,2.08,4.17,4,6.2,6.07.58.59,1.46-.34.88-.92-2.3-2.34-4.56-4.83-7.06-6.95,0,0,0,0,0,0q0-4.63,0-9.28,4.17,2.49,8.38,4.87a.7.7,0,0,0,.05.18,31.12,31.12,0,0,1,2.27,8.48c.1.78,1.33.77,1.24,0a30.79,30.79,0,0,0-1.81-7.65q2.55,1.43,5.1,2.82A.61.61,0,0,0,36.37,29q-2.74-1.49-5.46-3c1.4-.48,2.79-1,4.24-1.33a17.33,17.33,0,0,0,4.47-1.39C40.32,22.85,39.67,21.81,39,22.19Z" transform="translate(0 -1.09)"/>
</svg>
