<svg id="레이어_1" data-name="레이어 1" xmlns="http://www.w3.org/2000/svg" viewBox="0 0 40 40">
  <defs>
    <style>
      .cls-1 {
        stroke: #000;
        stroke-miterlimit: 10;
        stroke-width: 0.75px;
      }
    </style>
  </defs>
  <title>1</title>
  <path d="M20,40A20,20,0,1,1,40,20,20,20,0,0,1,20,40ZM20,3.66A16.34,16.34,0,1,0,36.34,20,16.36,16.36,0,0,0,20,3.66Z"/>
  <path class="cls-1" d="M21.57,14.26A20.05,20.05,0,0,0,26,21.33a19,19,0,0,0,6.49,4.23l-2.32,3.66a20,20,0,0,1-5.77-3.82,20.36,20.36,0,0,1-4.46-6.18,22.32,22.32,0,0,1-4.21,6.16,18.16,18.16,0,0,1-5.58,4L7.79,25.76a17.15,17.15,0,0,0,7.93-6.62q2.72-4.34,2.53-11.06h3.83A25.31,25.31,0,0,1,22,11.23,23.78,23.78,0,0,1,21.57,14.26Z"/>
</svg>
