<svg id="레이어_1" data-name="레이어 1" xmlns="http://www.w3.org/2000/svg" viewBox="0 0 31.66 40">
  <defs>
    <style>
      .cls-1 {
        fill: #ff9500;
      }

      .cls-1, .cls-2, .cls-3 {
        fill-rule: evenodd;
      }

      .cls-2 {
        fill: #ec331e;
      }
    </style>
  </defs>
  <title>1</title>
  <g>
    <polygon class="cls-1" points="8.31 37.52 29.08 17.51 30.86 17.51 30.86 20 10.13 39.33 8.31 37.52"/>
    <polygon class="cls-2" points="0.5 10.81 3.28 15.06 5.93 18.57 11.28 20.98 14.38 23.77 16.75 29.06 29.08 17.71 26.8 15.68 24.11 10.81 20.88 8.89 16.46 7.25 12.07 0.76 0.5 10.81"/>
    <path class="cls-1" d="M34.34,17.58a20.76,20.76,0,0,0-2.88,1.32.37.37,0,0,0,.31.67,21.25,21.25,0,0,0,2.9-1.27C35.08,18.12,34.76,17.39,34.34,17.58Z" transform="translate(-4 0)"/>
    <path class="cls-1" d="M34.2,19.56a25.42,25.42,0,0,0-5.78,2.09.43.43,0,0,0,.35.77,22.92,22.92,0,0,0,2.83-1c.94-.35,1.9-.68,2.85-1A.43.43,0,0,0,34.2,19.56Z" transform="translate(-4 0)"/>
    <path class="cls-1" d="M31.14,23c-2,.44-4.45.75-6.22,1.75a.41.41,0,0,0,.23.76,16.93,16.93,0,0,0,2.94-.83c1.09-.33,2.19-.62,3.29-.9C31.89,23.66,31.65,22.89,31.14,23Z" transform="translate(-4 0)"/>
    <path class="cls-1" d="M25,28.75c-.95.14-1.9.3-2.84.49A7.43,7.43,0,0,0,19.4,30a.42.42,0,0,0,.23.76,9.32,9.32,0,0,0,2.63-.53c.95-.22,1.92-.42,2.89-.59C25.65,29.56,25.52,28.67,25,28.75Z" transform="translate(-4 0)"/>
    <path class="cls-1" d="M21.81,31.86c-1,.11-2,.25-3.06.41a6.32,6.32,0,0,0-2.48.64.44.44,0,0,0,.23.8,8.39,8.39,0,0,0,2.4-.48c1-.23,2-.41,2.93-.55C22.34,32.61,22.34,31.81,21.81,31.86Z" transform="translate(-4 0)"/>
    <path class="cls-1" d="M19,34.34a12.93,12.93,0,0,1-3,.45,4.18,4.18,0,0,0-2.23.56.39.39,0,0,0,.22.72,16.22,16.22,0,0,0,2.74-.42,12.37,12.37,0,0,0,2.49-.51A.42.42,0,0,0,19,34.34Z" transform="translate(-4 0)"/>
    <path class="cls-1" d="M16.23,37.05l-3.87.45,0,0a7,7,0,0,1,.77.85c1.05-.18,2.11-.36,3.17-.51C16.76,37.79,16.75,37,16.23,37.05Z" transform="translate(-4 0)"/>
    <path class="cls-2" d="M16.36,1.5C12.6,4.65,8.43,7.61,5,11.13c-.28.28.1.78.44.54C9.51,8.87,13.15,5.22,16.9,2,17.27,1.7,16.73,1.2,16.36,1.5Z" transform="translate(-4 0)"/>
    <path class="cls-2" d="M17.56,3.42C13.74,6.49,9.81,9.48,6.09,12.67c-.34.3.14.91.5.63C10.47,10.28,14.18,7,18,3.91,18.24,3.68,17.85,3.19,17.56,3.42Z" transform="translate(-4 0)"/>
    <path class="cls-2" d="M18.91,5.57c-3.87,3-8.25,5.94-11.63,9.49-.27.29.11.79.45.56,4.08-2.75,7.72-6.35,11.57-9.42C19.66,5.91,19.29,5.28,18.91,5.57Z" transform="translate(-4 0)"/>
    <path class="cls-2" d="M20.46,7.25c-3.84,3.23-7.86,6.26-11.67,9.52-.37.31.14,1,.54.66,4.06-3,7.87-6.37,11.68-9.65C21.39,7.46,20.83,6.94,20.46,7.25Z" transform="translate(-4 0)"/>
    <path class="cls-2" d="M22.78,8.47l-7.42,6.15-3.55,2.92c-.55.45-1.3.8-1.45,1.54a.48.48,0,0,0,.71.51l.08,0a.49.49,0,0,0,.19-.26,16.8,16.8,0,0,1,2.6-2.24l3.14-2.68c2.1-1.78,4.2-3.55,6.29-5.34C23.77,8.7,23.18,8.15,22.78,8.47Z" transform="translate(-4 0)"/>
    <path class="cls-2" d="M25.68,9.25l-6.95,5.82c-1.65,1.39-4.55,3-5.39,5a.43.43,0,0,0,.69.51c3.89-3.78,8.16-7.22,12.26-10.77C26.7,9.48,26.09,8.91,25.68,9.25Z" transform="translate(-4 0)"/>
    <path class="cls-2" d="M27.37,10.93c-1.85,1.73-3.73,3.42-5.67,5s-4.18,3-5.88,4.77a.41.41,0,0,0,.51.62,32.28,32.28,0,0,0,5.74-4.46q3-2.61,5.91-5.39C28.37,11.13,27.76,10.56,27.37,10.93Z" transform="translate(-4 0)"/>
    <path class="cls-2" d="M28.9,12.73q-2.68,2.52-5.44,4.95A59.19,59.19,0,0,0,18,22.54c-.29.33.1.86.49.61a38.68,38.68,0,0,0,5.34-4.58c1.91-1.74,3.78-3.52,5.64-5.32C29.78,12.91,29.24,12.4,28.9,12.73Z" transform="translate(-4 0)"/>
    <path class="cls-2" d="M29.76,15.26c-3.43,3.18-7.18,6.21-10.32,9.66-.28.31.12.86.47.59,3.68-2.94,7-6.5,10.39-9.73C30.65,15.45,30.11,14.94,29.76,15.26Z" transform="translate(-4 0)"/>
    <path class="cls-2" d="M31.46,17.05c-3.68,3.31-8,6.44-11.19,10.19-.3.36.13,1,.55.68C24.86,25,28.38,21,32,17.57,32.36,17.24,31.82,16.74,31.46,17.05Z" transform="translate(-4 0)"/>
    <path class="cls-3" d="M35.45,17.6A1.62,1.62,0,0,0,32.91,17c-2.4-1.94-3.16-5.16-5.37-7.28a10.48,10.48,0,0,0-4.2-2.14,7.86,7.86,0,0,1-4.47-3.45c-.47-.73-.87-1.5-1.27-2.26C17.33,1.36,17,.38,16.45.1s-1.11.12-1.56.46c-.8.6-1.57,1.25-2.35,1.88a51.66,51.66,0,0,0-8.39,8.2.61.61,0,0,0,0,.83c2.38,2.81,3.39,6.85,7,8.42,2.14.92,4.22,1.25,5.85,3.06s2.35,4,3.23,6.21q-4.11,4-8.21,8a.48.48,0,0,0,0,.67c.65.69,1.3,1.38,1.94,2.08a.45.45,0,0,0,.76-.23c3.31-3.08,6.55-6.25,9.82-9.37s6.62-6.16,9.8-9.37c.85-.87,1.65-2.05,1.05-3.29Zm-3.53.21c-1.29,1.15-2.48,2.49-3.71,3.68l-4.92,4.75L21,28.45c-1.25-3.95-3.23-7.48-7.37-8.89A10.62,10.62,0,0,1,10.24,18a9.69,9.69,0,0,1-2-2.37c-1-1.54-1.8-3.15-2.91-4.59A55.63,55.63,0,0,1,13,3.7c.73-.61,1.48-1.2,2.22-1.79l.67-.54.19.34a6.25,6.25,0,0,1,.61,1.14,17,17,0,0,0,2.4,3.64c2.23,2.41,5.88,2.14,8,4.61,1.82,2.09,2.63,4.89,4.79,6.71Zm.73,3.25L30,23.59l-5.31,5.07c-3.49,3.34-7,6.64-10.48,10-.38-.41-.75-.82-1.13-1.22L23.3,27.6l5.27-5.09,2.81-2.71,1.41-1.35c.53-.5,1.15-1.2,1.65-.32C35,19.18,33.31,20.43,32.65,21.06Z" transform="translate(-4 0)"/>
  </g>
</svg>
