<svg id="레이어_1" data-name="레이어 1" xmlns="http://www.w3.org/2000/svg" viewBox="0 0 39.39 40">
  <defs>
    <style>
      .cls-1, .cls-2 {
        fill: #e3ca95;
      }

      .cls-1, .cls-3 {
        fill-rule: evenodd;
      }
    </style>
  </defs>
  <title>1</title>
  <g>
    <polygon class="cls-1" points="17.77 27.36 22.73 29.1 26.55 32.65 28.65 36.28 28.65 27.6 28.2 23.67 15.96 24.52 17.77 27.36"/>
    <path class="cls-2" d="M5.2,1.21H35a3,3,0,0,1,3,3V24.59a2.53,2.53,0,0,1-2.53,2.53H5.2A4.39,4.39,0,0,1,.81,22.72V5.6A4.39,4.39,0,0,1,5.2,1.21Z"/>
    <path class="cls-1" d="M5.74,1.41A35.9,35.9,0,0,0,3.29,4.32,7.58,7.58,0,0,0,1.62,7.19c-.06.38.36.82.73.54a10.7,10.7,0,0,0,1.9-2.47,34.34,34.34,0,0,1,2.41-3C7.21,1.68,6.3.81,5.74,1.41Z" transform="translate(-0.3)"/>
    <path class="cls-1" d="M9,1.22C6.38,4.53,3,7.94,1.18,11.76a.56.56,0,0,0,.89.65A34.07,34.07,0,0,0,5.6,7.76Q7.69,4.85,9.82,2C10.24,1.43,9.47.66,9,1.22Z" transform="translate(-0.3)"/>
    <path class="cls-1" d="M11.93,1.59C8.16,6.64,3.81,11.77.92,17.37c-.28.55.48,1.18.91.67,4.06-4.89,7.27-10.63,11-15.8C13.17,1.73,12.3,1.08,11.93,1.59Z" transform="translate(-0.3)"/>
    <path class="cls-1" d="M15.08,1.64Q11.63,6.73,8.2,11.82c-2.26,3.35-4.9,6.67-6.69,10.29-.3.59.5,1.27,1,.72C5,19.86,7,16.3,9.12,13c2.36-3.59,4.69-7.19,7-10.79C16.6,1.56,15.52,1,15.08,1.64Z" transform="translate(-0.3)"/>
    <path class="cls-1" d="M18.72,1.87c-5.22,7.93-10.9,15.74-15.6,24-.45.8.7,1.38,1.21.67,5.56-7.69,10.3-16.1,15.34-24.13C20,1.8,19.1,1.3,18.72,1.87Z" transform="translate(-0.3)"/>
    <path class="cls-1" d="M22.29,1.92q-3.6,6.18-7.17,12.36C13,18,10.07,21.85,8.8,25.92a.55.55,0,0,0,.92.5c2.84-3.19,4.63-7.69,6.71-11.41,2.32-4.16,4.6-8.34,6.89-12.52A.59.59,0,0,0,22.29,1.92Z" transform="translate(-0.3)"/>
    <path class="cls-1" d="M25.75,1.86c-4.47,7.83-9,15.7-12.9,23.81-.41.84.83,1.55,1.28.71,4.27-7.95,8.32-16,12.64-23.95A.58.58,0,0,0,25.75,1.86Z" transform="translate(-0.3)"/>
    <path class="cls-1" d="M29.91,1.62c-4.48,7.87-9.43,15.85-13,24.21a.64.64,0,0,0,1.11.62C22.7,18.6,26.45,10.13,30.79,2.11A.5.5,0,0,0,29.91,1.62Z" transform="translate(-0.3)"/>
    <path class="cls-1" d="M33.66,1.26q-3.07,6.38-6.29,12.65c-2.11,4.14-4.78,8.23-6.48,12.56a.61.61,0,0,0,1.07.59c2.7-3.76,4.6-8.31,6.68-12.45s4.12-8.47,6.08-12.75C35.05,1.15,34,.55,33.66,1.26Z" transform="translate(-0.3)"/>
    <path class="cls-1" d="M36.69,1.79c-4.09,9-9.17,17.67-13.13,26.74a.65.65,0,0,0,1.14.63c5.27-8.27,9-17.9,12.82-26.91C37.75,1.69,36.94,1.22,36.69,1.79Z" transform="translate(-0.3)"/>
    <path class="cls-1" d="M38.27,5.74C34.08,14,29.55,22.11,25.91,30.59c-.35.81.79,1.49,1.23.68,4.44-8.09,8.07-16.71,12-25.07C39.35,5.65,38.54,5.19,38.27,5.74Z" transform="translate(-0.3)"/>
    <path class="cls-1" d="M38,13c-2.12,4.53-4.7,8.93-6.6,13.55a.67.67,0,0,0,1.18.65c2.6-4.25,4.45-9.08,6.45-13.63.31-.69-.71-1.27-1-.57Z" transform="translate(-0.3)"/>
    <path class="cls-1" d="M38.06,20c-.74,1.12-1.44,2.26-2.08,3.44a10.36,10.36,0,0,0-1.51,3.38c-.06.52.56,1,1,.54a16.66,16.66,0,0,0,1.71-3.27c.61-1.19,1.28-2.35,2-3.49C39.58,20,38.49,19.37,38.06,20Z" transform="translate(-0.3)"/>
    <path class="cls-3" d="M39.57,14c0-3.16.08-6.37-.12-9.53C39.34,2.43,38.43.78,36.3.3,33.65-.29,30.59.16,27.89.19L8.27.37C6.12.39,2.6-.31,1.19,1.81c-1.28,1.93-.9,5-.53,7.32,0,3.85.1,7.7.15,11.55,0,1.66-.44,4.21.54,5.7S4.45,27.81,6,28a64.94,64.94,0,0,0,7.11.2c2.39,0,4.9-.29,7.22.42,4.68,1.43,7.31,6,8,10.62.16,1.07,1.75,1.1,1.73,0-.09-3.6-.17-7.21-.25-10.81,3.92.13,9.77.79,9.93-4.38.11-3.3-.06-6.63-.09-9.93Zm-8.13,4.22a.76.76,0,0,1,0,1.52c-7.82.12-15.65.12-23.48.16a.82.82,0,0,1,0-1.63c7.83,0,15.66-.1,23.49-.05Zm-.59-5a.81.81,0,0,1,0,1.62Q19.45,14.82,8,14.7C6.92,14.69,6.88,13,8,13c7.63.07,15.26.13,22.88.24Zm.49-4.87a.77.77,0,0,1,0,1.53c-7.73.08-15.51.4-23.24.19a.79.79,0,0,1,0-1.58c7.73-.32,15.51-.11,23.25-.14Zm6,17.43c-.83.82-2.39.77-3.46.78-1.67,0-3.36,0-5,0a.88.88,0,0,0-.84.89c.05,1.92.09,3.83.13,5.74a12.9,12.9,0,0,0-3.39-4.16c-3.38-2.71-7.24-2.71-11.39-2.63-2.36,0-4.74.07-7.11-.11-1.5-.11-3.19,0-3.84-1.64-.35-.94,0-2.7-.07-3.7q-.1-6.31-.23-12.62c.07-1,.08-2,.09-3,0-1.5.07-2.83,1.83-3.14A31.42,31.42,0,0,1,9,2.1l4.5,0q9.5-.1,19-.19c1.29,0,3.12-.31,4.28.41,1.34.81,1,3,1,4.28q.06,4.89.11,9.79c0,1.52,0,3,0,4.57,0,1.37.5,3.84-.58,4.9Z" transform="translate(-0.3)"/>
  </g>
</svg>
