<svg id="레이어_1" data-name="레이어 1" xmlns="http://www.w3.org/2000/svg" viewBox="0 0 40 28.72">
  <defs>
    <style>
      .cls-1 {
        fill: #e3ca95;
      }

      .cls-1, .cls-2 {
        fill-rule: evenodd;
      }
    </style>
  </defs>
  <title>1</title>
  <g>
    <polygon class="cls-1" points="6.38 27.79 1.7 24.49 0.59 21.31 2.22 17.66 5.36 16.06 6.38 15.9 7.63 11.9 11.36 8.73 15.3 7.85 19.72 9.19 22.08 10.95 25.35 11.54 28.35 12.63 29.82 14.49 31.85 16.28 35.08 17.66 36.09 20.85 36.09 24.31 33.71 26.99 28.22 28 11.36 28.2 6.38 27.79"/>
    <path class="cls-1" d="M4.18,21.11A39,39,0,0,0,.61,27.64c-.13.36.42.54.6.24,1.28-2.08,2.26-4.36,3.52-6.46C5,21.06,4.39,20.76,4.18,21.11Z" transform="translate(0 -4.74)"/>
    <path class="cls-1" d="M5.72,21a86.91,86.91,0,0,0-4,8.53c-.15.42.48.63.69.28a87.92,87.92,0,0,0,3.94-8.46C6.54,20.91,5.92,20.56,5.72,21Z" transform="translate(0 -4.74)"/>
    <path class="cls-1" d="M11.37,13.23c-2.57,6-5.36,11.93-7.66,18-.15.4.52.66.71.27,2.74-5.87,5-12,7.5-18C12.08,13.17,11.53,12.86,11.37,13.23Z" transform="translate(0 -4.74)"/>
    <path class="cls-1" d="M14,12.77c-2.81,6.22-6,12.59-8,19.13a.39.39,0,0,0,.71.28C9.68,26,11.88,19.39,14.6,13.09,14.77,12.7,14.2,12.37,14,12.77Z" transform="translate(0 -4.74)"/>
    <path class="cls-1" d="M18.62,14.09c-2.41,6.06-5.49,12.19-7.24,18.47a.31.31,0,0,0,.57.22c3-5.8,4.9-12.38,7.26-18.46C19.34,14,18.76,13.75,18.62,14.09Z" transform="translate(0 -4.74)"/>
    <path class="cls-1" d="M21,15.64c-2.19,5.67-5,11.1-7.14,16.75-.12.28.34.44.48.19,3-5.23,5.08-11.17,7.21-16.8C21.63,15.44,21.08,15.31,21,15.64Z" transform="translate(0 -4.74)"/>
    <path class="cls-1" d="M23.84,16.39c-2.34,5.19-5.15,10.39-7,15.78-.1.27.31.42.44.18,2.76-5,4.74-10.51,7-15.71C24.44,16.34,24,16.08,23.84,16.39Z" transform="translate(0 -4.74)"/>
    <path class="cls-1" d="M26.4,16.46c-2.27,5.22-4.91,10.54-6.51,16a.35.35,0,0,0,.65.25C23,27.6,24.79,22,27,16.78,27.14,16.39,26.57,16.06,26.4,16.46Z" transform="translate(0 -4.74)"/>
    <path class="cls-1" d="M28.28,18.13c-1.86,4.6-4.38,9.09-5.91,13.79-.12.37.41.54.6.24,2.58-4.16,4.17-9.22,5.94-13.78C29,18,28.42,17.77,28.28,18.13Z" transform="translate(0 -4.74)"/>
    <path class="cls-1" d="M29.81,20.35C28.39,24.29,26.42,28.07,25.1,32c-.12.36.42.54.6.24,2.13-3.53,3.44-7.87,4.78-11.75C30.63,20.09,30,19.93,29.81,20.35Z" transform="translate(0 -4.74)"/>
    <path class="cls-1" d="M32.2,21.19a79.64,79.64,0,0,0-4.6,11.3c-.1.36.46.6.62.25,1.66-3.68,2.9-7.55,4.53-11.24C32.92,21.13,32.37,20.82,32.2,21.19Z" transform="translate(0 -4.74)"/>
    <path class="cls-1" d="M34.21,22c-1.47,3.38-3,6.73-4.36,10.15-.19.47.62.79.83.33,1.52-3.31,2.82-6.73,4.21-10.1C35.08,21.9,34.41,21.52,34.21,22Z" transform="translate(0 -4.74)"/>
    <path class="cls-1" d="M35.36,25c-.87,2.33-2,4.67-2.58,7.07-.1.38.47.62.64.26a75.6,75.6,0,0,0,2.64-7.15C36.22,24.76,35.52,24.59,35.36,25Z" transform="translate(0 -4.74)"/>
    <path class="cls-2" d="M36.66,25.18A6.72,6.72,0,0,0,35.2,21.8a7.06,7.06,0,0,0-3.52-2c-1.25-.45-1.75-2.07-2.76-2.92a7.06,7.06,0,0,0-3.63-1.56,6,6,0,0,0-1.64,0c-1,.14-1.37-.35-2.09-.95a11.14,11.14,0,0,0-3.33-1.94,9.31,9.31,0,0,0-8.51.9A8.75,8.75,0,0,0,6,20C3,19.78.35,22.83.08,25.81c0,0,0,0,0,0-.44,2.7,1.29,5,3.58,6.22,2.75,1.51,6.06,1.41,9.1,1.38l11.5-.11c3.1,0,6.92.48,9.72-1.16,2.43-1.42,3.07-4.36,2.69-7ZM34,7.22c3.06,2,5.62,4.77,6,8.51.07.8-1.15.81-1.23,0-.37-3.27-2.9-5.79-5.58-7.45-2.86-1.78-6.34-2.95-9.58-1.52-.73.32-1.27-.93-.57-1.27,3.65-1.72,7.77-.37,11,1.7Zm1.51,9.42c.18.71-.9,1-1.09.33-1.21-4.37-5.58-6.44-9.87-6.1-.79.06-.8-1.13,0-1.22,4.79-.55,9.77,2.18,11,7ZM34,30.44c-2.16,2-5.83,1.48-8.53,1.5L16.81,32c-4.15,0-11.23.86-14.36-2.56a.51.51,0,0,0-.13-.62c-2.83-2.54.49-8.47,4.11-7.55a.63.63,0,0,0,.78-.63c-.18-5.25,5.17-8.52,10-7.12a9.48,9.48,0,0,1,3.3,1.72c.77.61,1.36,1.65,2.47,1.59a8.5,8.5,0,0,1,3.1,0,5.52,5.52,0,0,1,3,2.25A4.19,4.19,0,0,0,30.89,21c1.36.59,2.53.67,3.47,2C35.78,24.91,35.91,28.72,34,30.44Z" transform="translate(0 -4.74)"/>
  </g>
</svg>
