<svg xmlns="http://www.w3.org/2000/svg" xmlns:xlink="http://www.w3.org/1999/xlink" viewBox="0 0 40 40">
  <defs>
    <style>
      .cls-1 {
        isolation: isolate;
      }

      .cls-2 {
        fill: url(#linear-gradient);
      }

      .cls-3, .cls-4 {
        opacity: 0.25;
      }

      .cls-3, .cls-5, .cls-8, .cls-9 {
        mix-blend-mode: multiply;
      }

      .cls-3 {
        fill: url(#radial-gradient);
      }

      .cls-4 {
        fill: #fff;
      }

      .cls-5 {
        opacity: 0.35;
        fill: url(#linear-gradient-2);
      }

      .cls-6 {
        fill: #5d4037;
      }

      .cls-7 {
        fill: #4e342e;
      }

      .cls-8, .cls-9 {
        opacity: 0.5;
      }

      .cls-8 {
        fill: url(#linear-gradient-3);
      }

      .cls-9 {
        fill: url(#linear-gradient-4);
      }
    </style>
    <linearGradient id="linear-gradient" x1="20" y1="-0.67" x2="20" y2="40.75" gradientUnits="userSpaceOnUse">
      <stop offset="0" stop-color="#ffe082"/>
      <stop offset="1" stop-color="#ffbf66"/>
    </linearGradient>
    <radialGradient id="radial-gradient" cx="20" cy="20" r="20" gradientUnits="userSpaceOnUse">
      <stop offset="0.8" stop-color="#fff"/>
      <stop offset="1" stop-color="#ffbf66"/>
    </radialGradient>
    <linearGradient id="linear-gradient-2" x1="20.04" y1="17.63" x2="20.04" y2="40.41" xlink:href="#linear-gradient"/>
    <linearGradient id="linear-gradient-3" x1="22.83" y1="8.98" x2="31.58" y2="8.98" xlink:href="#linear-gradient"/>
    <linearGradient id="linear-gradient-4" x1="408.55" y1="8.98" x2="417.3" y2="8.98" gradientTransform="matrix(-1, 0, 0, 1, 425.81, 0)" xlink:href="#linear-gradient"/>
  </defs>
  <title>1</title>
  <g class="cls-1">
    <g id="레이어_1" data-name="레이어 1">
      <g>
        <g>
          <g>
            <circle class="cls-2" cx="20" cy="20" r="20"/>
            <circle class="cls-3" cx="20" cy="20" r="20"/>
            <path class="cls-4" d="M36.54,15.12c0,7.43-7.38,0-16.5,0s-16.5,7.43-16.5,0S10.93,1.67,20,1.67,36.54,7.69,36.54,15.12Z" transform="translate(-0.04)"/>
            <path class="cls-5" d="M20,36A20,20,0,0,1,.14,18c-.06.66-.1,1.32-.1,2a20,20,0,0,0,40,0c0-.68,0-1.34-.09-2A20,20,0,0,1,20,36Z" transform="translate(-0.04)"/>
          </g>
          <g>
            <path class="cls-4" d="M22.12,32.23a8.84,8.84,0,0,1-3.39-.58c-1.14-.46-1.71-1.1-1.71-1.89s.57-1.43,1.71-1.9a8.84,8.84,0,0,1,3.39-.58,8.82,8.82,0,0,1,3.38.58c1.14.47,1.72,1.1,1.72,1.9s-.58,1.43-1.72,1.89A8.82,8.82,0,0,1,22.12,32.23Z" transform="translate(-0.04)"/>
            <path class="cls-6" d="M26.55,29.76c0,.66-.78,1.06-1.3,1.28a8.35,8.35,0,0,1-3.13.53A8.37,8.37,0,0,1,19,31c-.52-.22-1.3-.62-1.3-1.28s.78-1.07,1.3-1.28A8.37,8.37,0,0,1,22.12,28a8.35,8.35,0,0,1,3.13.53C25.77,28.69,26.55,29.1,26.55,29.76Z" transform="translate(-0.04)"/>
            <path class="cls-7" d="M18,30.43a3.06,3.06,0,0,1,1-.62,8.37,8.37,0,0,1,3.14-.53,8.35,8.35,0,0,1,3.13.53,2.87,2.87,0,0,1,1,.62,1,1,0,0,0,.3-.67c0-.66-.78-1.07-1.3-1.28A8.35,8.35,0,0,0,22.12,28a8.37,8.37,0,0,0-3.14.53c-.52.21-1.3.62-1.3,1.28A1,1,0,0,0,18,30.43Z" transform="translate(-0.04)"/>
          </g>
          <g>
            <g>
              <path class="cls-4" d="M12.82,21.53a5.11,5.11,0,0,1-4.95-3.39c-.26-.82-.14-1.48.32-1.8a1.13,1.13,0,0,1,.66-.21,2.56,2.56,0,0,1,1.05.33,6.08,6.08,0,0,0,2.92.69,5.65,5.65,0,0,0,2.81-.7,2.34,2.34,0,0,1,1.09-.36,1.21,1.21,0,0,1,.78.28,1.72,1.72,0,0,1,.27,2A5.12,5.12,0,0,1,12.82,21.53Z" transform="translate(-0.04)"/>
              <path class="cls-6" d="M8.57,16.89c-.44.3,0,1.24.15,1.57A4.36,4.36,0,0,0,11,20.53a4.78,4.78,0,0,0,6-2.16c.19-.42.47-1.28-.08-1.56s-1.59.53-2.11.7a6.89,6.89,0,0,1-4.26,0C10.11,17.32,9.08,16.54,8.57,16.89Z" transform="translate(-0.04)"/>
              <path class="cls-7" d="M12.82,19.15c2.87,0,3.53-1.52,4.26-.93h0c.24-.61.24-1.14,0-1.34-.73-.59-1.39.93-4.26.93s-3.6-1.38-4.25-.93c-.23.16-.22.69,0,1.31C9.25,17.83,10,19.15,12.82,19.15Z" transform="translate(-0.04)"/>
            </g>
            <g>
              <path class="cls-4" d="M27.27,21.53a5.11,5.11,0,0,0,4.95-3.39c.26-.82.14-1.48-.32-1.8a1.13,1.13,0,0,0-.66-.21,2.56,2.56,0,0,0-1,.33,6.08,6.08,0,0,1-2.92.69,5.65,5.65,0,0,1-2.81-.7,2.34,2.34,0,0,0-1.09-.36,1.19,1.19,0,0,0-.78.28,1.72,1.72,0,0,0-.27,2A5.12,5.12,0,0,0,27.27,21.53Z" transform="translate(-0.04)"/>
              <path class="cls-6" d="M27.27,17.82a7.5,7.5,0,0,1-3.34-.89c-.52-.25-1.11-.21-1.11.49,0,2.16,2.61,3.44,4.45,3.44s4.29-1.32,4.42-3.43c0-.62-.43-.72-.93-.5A8.28,8.28,0,0,1,27.27,17.82Z" transform="translate(-0.04)"/>
              <path class="cls-7" d="M27.27,19.15c-2.87,0-3.53-1.52-4.26-.93h0c-.24-.61-.24-1.14,0-1.34.73-.59,1.39.93,4.26.93s3.6-1.38,4.25-.93c.23.16.22.69,0,1.31C30.84,17.83,30.07,19.15,27.27,19.15Z" transform="translate(-0.04)"/>
            </g>
          </g>
          <g>
            <g>
              <path class="cls-8" d="M24.4,6.85c2.68.72,5.74,1.73,7.18,4.31-1.6-1.52-3.95-1.9-6.07-1.89-.78,0-2,.28-2.49-.51A1.28,1.28,0,0,1,24.4,6.85Z" transform="translate(-0.04)"/>
              <path class="cls-6" d="M24.4,6.19c2.68.72,5.74,1.72,7.18,4.3C30,9,27.63,8.59,25.51,8.61c-.78,0-2,.27-2.49-.52a1.27,1.27,0,0,1,1.38-1.9C27,6.9,23.46,5.93,24.4,6.19Z" transform="translate(-0.04)"/>
            </g>
            <g>
              <path class="cls-9" d="M15.69,6.85C13,7.57,10,8.58,8.51,11.16c1.6-1.52,4-1.9,6.07-1.89.78,0,2,.28,2.49-.51a1.28,1.28,0,0,0-1.38-1.91Z" transform="translate(-0.04)"/>
              <path class="cls-6" d="M15.69,6.19C13,6.91,10,7.91,8.51,10.49c1.6-1.52,4-1.9,6.07-1.88.78,0,2,.27,2.49-.52a1.27,1.27,0,0,0-1.38-1.9C13.05,6.9,16.63,5.93,15.69,6.19Z" transform="translate(-0.04)"/>
            </g>
          </g>
        </g>
        <g>
          <g>
            <path class="cls-8" d="M24.4,6.85c2.68.72,5.74,1.73,7.18,4.31-1.6-1.52-3.95-1.9-6.07-1.89-.78,0-2,.28-2.49-.51A1.28,1.28,0,0,1,24.4,6.85Z" transform="translate(-0.04)"/>
            <path class="cls-6" d="M24.4,6.19c2.68.72,5.74,1.72,7.18,4.3C30,9,27.63,8.59,25.51,8.61c-.78,0-2,.27-2.49-.52a1.27,1.27,0,0,1,1.38-1.9C27,6.9,23.46,5.93,24.4,6.19Z" transform="translate(-0.04)"/>
          </g>
          <g>
            <path class="cls-9" d="M15.69,6.85C13,7.57,10,8.58,8.51,11.16c1.6-1.52,4-1.9,6.07-1.89.78,0,2,.28,2.49-.51a1.28,1.28,0,0,0-1.38-1.91Z" transform="translate(-0.04)"/>
            <path class="cls-6" d="M15.69,6.19C13,6.91,10,7.91,8.51,10.49c1.6-1.52,4-1.9,6.07-1.88.78,0,2,.27,2.49-.52a1.27,1.27,0,0,0-1.38-1.9C13.05,6.9,16.63,5.93,15.69,6.19Z" transform="translate(-0.04)"/>
          </g>
        </g>
      </g>
    </g>
  </g>
</svg>
