<svg id="레이어_1" data-name="레이어 1" xmlns="http://www.w3.org/2000/svg" viewBox="0 0 26.41 40.13">
  <defs>
    <style>
      .cls-1 {
        fill: #e8e8e8;
      }

      .cls-2 {
        fill: #379bdb;
      }

      .cls-3 {
        opacity: 0.1;
      }

      .cls-4 {
        fill: #f5f5f5;
      }

      .cls-5 {
        fill: #f2b88e;
      }

      .cls-6 {
        fill: #2b2521;
      }

      .cls-7 {
        fill: #ffcb9e;
      }

      .cls-8 {
        fill: #1b2c33;
      }

      .cls-12, .cls-9 {
        fill: #d14f2e;
      }

      .cls-9 {
        opacity: 0.3;
      }

      .cls-10 {
        fill: #ffd8b5;
      }

      .cls-11 {
        fill: #a5abb8;
      }

      .cls-12 {
        opacity: 0.2;
      }

      .cls-13 {
        fill: #ff9d73;
      }

      .cls-14 {
        fill: #423833;
      }

      .cls-15 {
        fill: #b55623;
        opacity: 0.4;
      }

      .cls-16 {
        fill: #8f3935;
      }

      .cls-17 {
        fill: #fff9f0;
      }

      .cls-18 {
        fill: #e8dac5;
      }
    </style>
  </defs>
  <title>1</title>
  <g>
    <path class="cls-1" d="M27.24,32.51c-1.43-3.49-9.58-2.58-11.59-.88-1.57,1.32-1.48,5.11-1,8.5H27.37C27.8,37.39,28,34.37,27.24,32.51Z" transform="translate(-7.43)"/>
    <path class="cls-2" d="M22.76,35.14a1.73,1.73,0,0,0-2-.89,1.82,1.82,0,0,0-1.51,1.4l1.09,1.11-1,3.37H23l-1.23-3.48Z" transform="translate(-7.43)"/>
    <path class="cls-1" d="M15.73,31.58a19.37,19.37,0,0,0-2,1.1c-1.65,1.08-3.23,3.61-5.38,6.48a5.38,5.38,0,0,0,2,1H15.2a17,17,0,0,0,.21-2Z" transform="translate(-7.43)"/>
    <path class="cls-1" d="M28.48,32.68a18.9,18.9,0,0,0-2-1.1l.33,6.51a15.64,15.64,0,0,0,.2,2h4.8a5.32,5.32,0,0,0,2-1C31.7,36.29,30.12,33.76,28.48,32.68Z" transform="translate(-7.43)"/>
    <path class="cls-3" d="M23.62,32.27c-1.56-.82-7.91-1-7.19,1.25A6.63,6.63,0,0,0,19,36.94l2.12-2,2.26,1.92A9.75,9.75,0,0,0,26.14,33,5.08,5.08,0,0,1,23.62,32.27Z" transform="translate(-7.43)"/>
    <path class="cls-4" d="M16.07,31.44c-1.05,2.7,2.77,4.9,2.77,4.9l2.28-1.43,2.13,1.34s4.2-2.19,2.61-5.34C24.43,28.08,17.29,28.31,16.07,31.44Z" transform="translate(-7.43)"/>
    <path class="cls-5" d="M19.46,27.67A3.19,3.19,0,0,0,17.1,30.6a2.49,2.49,0,0,0,.67,2.21,4.62,4.62,0,0,0,1.8,1c.5.15,1.37.74,1.53.75s.35-.26.82-.5a4.58,4.58,0,0,0,2-1.58c.56-1.1,1.06-3.27,0-4.12A6.08,6.08,0,0,0,19.46,27.67Z" transform="translate(-7.43)"/>
    <g>
      <path class="cls-6" d="M18.49,1.37c-14.42,1.14-12,21.25-7.9,20.38,3-.64,6-1.51,9-2.26,2.8-.7,5.91-.16,8.78,0,2.24.15,2.21-.8,2.32-2.63.21-3.41-.17-4.66,0-6C31.43,5,26.74.72,18.49,1.37Z" transform="translate(-7.43)"/>
      <path class="cls-7" d="M19,5.65c-5.3,1-9,8.69-8.06,15.87C11.66,26.9,15.79,32.8,22,32.35s9.5-8.36,8.68-15C29.79,10.19,26.4,4.19,19,5.65Z" transform="translate(-7.43)"/>
      <path class="cls-8" d="M17,16.82c-1.37-.59-2.23,1.85-1.29,2.64a1.91,1.91,0,0,1,1.35.12A1.68,1.68,0,0,0,17,16.82Z" transform="translate(-7.43)"/>
      <path class="cls-9" d="M23.19,21.4c-.7,0-1-.17-1.46,0s.18.9,1.41.84,1.81-.76,1.54-.94S24,21.37,23.19,21.4Z" transform="translate(-7.43)"/>
      <path class="cls-10" d="M22.84,18.61c-.61,0-.76,1.2-1,1.75s-.38,1.07-.06,1.23a4,4,0,0,0,2.89-.19c.18-.13-.24-.69-.58-1.25S23.52,18.57,22.84,18.61Z" transform="translate(-7.43)"/>
      <path class="cls-8" d="M28.76,16.73c-1.39-.84-2.41,1.85-1.27,2.61a1.83,1.83,0,0,1,1.45,0A2,2,0,0,0,28.76,16.73Z" transform="translate(-7.43)"/>
      <path class="cls-11" d="M16.48,17.25c-.55.19-.13,1.27.41.87S17,17.08,16.48,17.25Z" transform="translate(-7.43)"/>
      <path class="cls-11" d="M28.21,17c-.54.11-.28,1.19.28.89C28.89,17.69,28.7,16.93,28.21,17Z" transform="translate(-7.43)"/>
      <path class="cls-7" d="M9.08,18.53c-2.6.72-1.56,4.53.57,5.3a5.18,5.18,0,0,0,2.1.23l0-.07c.31-.49-.24-3-.4-3.56C11,19.11,10.33,18.18,9.08,18.53Z" transform="translate(-7.43)"/>
      <path class="cls-12" d="M28.25,7.64a24.37,24.37,0,0,0-8.86-1.88c-2.12,0-5.28-.16-7,1.4-1.35,1.25-1.45,3.58-1.53,5.3,0,.65,0,5.65.35,4.57A20.41,20.41,0,0,1,13,14.12c.34-.62.36-1.76,1.12-2,1-.4,2.07,1.21,3.05,1.44a6.56,6.56,0,0,0,.3-1.62,5.36,5.36,0,0,1,1.78.57c.45.22.87.46,1.27.69s1.12.59,1.69.86a9.29,9.29,0,0,0,.89.45c0-.21.88-2.32.75-2.36.56.18,1.15.23,1.68.4s1.29.61,1.92.89c-.17-.08.57-1.22.94-1.2s.86.59,1.08,1,.73.83.68,1.15C30.46,12.48,30.25,8.44,28.25,7.64Z" transform="translate(-7.43)"/>
      <path class="cls-9" d="M10,19.93c-.58-.27-2,.22-1.35,1.37.36-1.07,1-.37.91.39-.07.5-.61.51-.07,1.16.29.35.88.22,1.18,0C11.6,22.29,10.71,20.26,10,19.93Z" transform="translate(-7.43)"/>
      <path class="cls-6" d="M17.4,1.94A12.78,12.78,0,0,0,12,5.16C9.87,7,9.4,9.15,9.35,11.87c0,2,.75,3.8.83,5.73a6.69,6.69,0,0,0,1.09,3.07,2.36,2.36,0,0,0,1.43,0c-1-.88-1.34-3.29-.58-5.55a20.54,20.54,0,0,0,.8-2.78c.14-.68.2-1.15,1-1.21,1.26-.1,2.49,1.21,3.57,1.69-.15-.51-.16-1.08-.35-1.55,2,.63,6,1.82,7,2.18a10.24,10.24,0,0,0-.19-2A27.54,27.54,0,0,0,28.28,13,14.27,14.27,0,0,0,29,11.1a10.29,10.29,0,0,0,4.22,1.43C31.91,4.89,26-.47,17.4,1.94Z" transform="translate(-7.43)"/>
      <path class="cls-6" d="M16.19,13.94a3,3,0,0,0-2.25,1.81.33.33,0,0,0,.52.37,6.41,6.41,0,0,1,1.88-.81,4.63,4.63,0,0,1,2.06.11.48.48,0,0,0,.54-.73C18.46,13.93,17,13.78,16.19,13.94Z" transform="translate(-7.43)"/>
      <path class="cls-6" d="M28.16,13.77c-.71,0-2.13.52-2.42,1.26a.42.42,0,0,0,.61.52A4.62,4.62,0,0,1,28.18,15a5.7,5.7,0,0,1,1.76.49c.39.12.5-.23.39-.41A2.64,2.64,0,0,0,28.16,13.77Z" transform="translate(-7.43)"/>
      <path class="cls-13" d="M29.92,20.57a2.37,2.37,0,0,0-2-.46c-.83.1-1.88.55-1,1.63.48.57,3.82.6,3.24-.8A1.28,1.28,0,0,0,29.92,20.57Z" transform="translate(-7.43)"/>
      <path class="cls-13" d="M17.46,20.8a2.5,2.5,0,0,0-2.1-.55c-.87.08-2,.51-1.09,1.67.48.62,4,.76,3.42-.72A1.05,1.05,0,0,0,17.46,20.8Z" transform="translate(-7.43)"/>
      <path class="cls-6" d="M25,0a35.78,35.78,0,0,1-7.45,1.47c-.74.12-2.1.4-2.4,1.23.88.17,1.81.14,2.69.26a33.68,33.68,0,0,0,7.51.15c.77-.08,1.57-1.09,2-1.53-.84,0-2-.15-3.11-.2A5.87,5.87,0,0,0,25,0Z" transform="translate(-7.43)"/>
      <path class="cls-14" d="M29.26,6.06a10.23,10.23,0,0,0-6.84-3.89,16.15,16.15,0,0,0-6.81.53,8,8,0,0,0-3.11,2c-.9,1-1.72,2.51-.58,3.62a33.45,33.45,0,0,0,4.35,3.2c-.11-.56,0-1.17-.13-1.72a61.06,61.06,0,0,1,6.72,2,7.36,7.36,0,0,1,.19-1.64,8.62,8.62,0,0,1,4.15,1.53c.05-.73.32-1.39.38-2.1a8.52,8.52,0,0,1,4.17,1.21A19,19,0,0,0,30.1,7.22,9.5,9.5,0,0,0,29.26,6.06Z" transform="translate(-7.43)"/>
      <g>
        <path class="cls-15" d="M27.4,23.16c-.16.13.2,0,.69,0a.22.22,0,0,1,.2,0c-2.08,1.6-7.21,3.06-12.69.19a.38.38,0,0,1,.13-.06c.51-.14,1.12,0,1-.1A3.57,3.57,0,0,0,15.22,23c-.44.12-.66.87-.38,1s.34-.25.58-.48c.38,1.16,2.13,5.75,6.19,6,3,.21,4.13-1.28,5.23-3.18a17.14,17.14,0,0,0,1.5-3.15c.18.18.14.64.37.58s.39-.68,0-1S27.4,23.16,27.4,23.16Z" transform="translate(-7.43)"/>
        <path class="cls-16" d="M16.28,24.06s1.45,4.35,5.67,4.52A4.68,4.68,0,0,0,26.1,26a9.63,9.63,0,0,1,1.62-2.09A10.6,10.6,0,0,1,16.28,24.06Z" transform="translate(-7.43)"/>
        <path class="cls-17" d="M16.28,24.06a7.14,7.14,0,0,0,2.57,2.41,8.54,8.54,0,0,0,5.6.37c1.42-.33,3.27-2.91,3.27-2.91A12.19,12.19,0,0,1,16.28,24.06Z" transform="translate(-7.43)"/>
        <path class="cls-17" d="M22.49,26.88a8.81,8.81,0,0,1-3.86-.82c-.75-.32-.67.45-.53.82,0,0,.72,1.36,3.51,1.68,2.62.3,3.89-1.7,3.55-2.1S24.43,26.91,22.49,26.88Z" transform="translate(-7.43)"/>
        <path class="cls-18" d="M16.28,24.06a5.38,5.38,0,0,0,1.11,1.36,48.26,48.26,0,0,0,9.32-.26s.93-.88,1-1.23A12.48,12.48,0,0,1,16.28,24.06Z" transform="translate(-7.43)"/>
        <path class="cls-18" d="M18.09,26.06c4.1,2.46,6.75.56,6.75.56A11.56,11.56,0,0,1,18.09,26.06Z" transform="translate(-7.43)"/>
      </g>
    </g>
  </g>
</svg>
