<svg id="레이어_1" data-name="레이어 1" xmlns="http://www.w3.org/2000/svg" viewBox="0 0 25.97 40.08">
  <defs>
    <style>
      .cls-1 {
        fill: #1e1e29;
      }

      .cls-2 {
        fill: #e8e8e8;
      }

      .cls-3 {
        fill: #313142;
      }

      .cls-4 {
        opacity: 0.1;
      }

      .cls-5 {
        fill: #f5f5f5;
      }

      .cls-6 {
        fill: #ed9d6c;
      }

      .cls-7 {
        fill: #303030;
      }

      .cls-8 {
        fill: #999492;
      }

      .cls-9 {
        fill: #ffb67d;
      }

      .cls-10 {
        fill: #bf3c1b;
      }

      .cls-10, .cls-13 {
        opacity: 0.3;
      }

      .cls-11, .cls-13 {
        fill: #b54319;
      }

      .cls-11 {
        opacity: 0.5;
      }

      .cls-12 {
        fill: #595655;
        opacity: 0.7;
      }

      .cls-14 {
        fill: #f59d66;
      }

      .cls-15 {
        fill: #1f1a17;
      }

      .cls-16 {
        fill: #8f322d;
      }

      .cls-17 {
        fill: #fff3e2;
      }

      .cls-18 {
        fill: #e8d5b8;
      }

      .cls-19 {
        fill: #ffcb96;
      }

      .cls-20 {
        fill: #a88888;
      }
    </style>
  </defs>
  <title>1</title>
  <g>
    <g>
      <path class="cls-1" d="M8.89,40h4.72l-.47-7.74C9.79,33.81,8.76,34.17,8.89,40Z" transform="translate(-7.02 0.08)"/>
      <path class="cls-1" d="M28.72,32.26,28.25,40H33C33.1,34.17,32.07,33.81,28.72,32.26Z" transform="translate(-7.02 0.08)"/>
      <path class="cls-2" d="M26.41,31.3a11.87,11.87,0,0,0-10.65.27C13.11,33.31,13.21,36,13.81,40H28.18C28.84,36,29,32.7,26.41,31.3Z" transform="translate(-7.02 0.08)"/>
      <path class="cls-3" d="M22.47,35.52a1.56,1.56,0,0,0-1.8-.81A1.64,1.64,0,0,0,19.3,36l1,1-.8,3h3.16l-.77-3.22Z" transform="translate(-7.02 0.08)"/>
      <path class="cls-1" d="M29.4,32.86c-.29-.75-3.67-1.89-3.67-1.89a33,33,0,0,0-1.07,9h4.51A55,55,0,0,0,29.4,32.86Z" transform="translate(-7.02 0.08)"/>
      <path class="cls-1" d="M16.13,31s-3.38,1.14-3.67,1.89A55,55,0,0,0,12.69,40H17.2A33,33,0,0,0,16.13,31Z" transform="translate(-7.02 0.08)"/>
      <path class="cls-4" d="M16.36,33.44a6.72,6.72,0,0,0,2.94,3.47l1.62-1.77L23,36.9a5.43,5.43,0,0,0,2.88-4C25.94,31.8,15.7,31.22,16.36,33.44Z" transform="translate(-7.02 0.08)"/>
      <path class="cls-5" d="M16.39,30.8c-1.81,2.44,2.76,5.53,2.76,5.53l1.78-1.4,2,1.47s4.14-2.29,2.67-5.36C24.3,28.29,18.21,28.34,16.39,30.8Z" transform="translate(-7.02 0.08)"/>
      <path class="cls-6" d="M24.2,28.12a6.58,6.58,0,0,0-4.76-.76,3.31,3.31,0,0,0-2.48,3c-.12,1.75,2.44,4.08,4.21,4.12C22.51,34.53,28.19,31.28,24.2,28.12Z" transform="translate(-7.02 0.08)"/>
      <path class="cls-3" d="M25.68,30.81a28.09,28.09,0,0,0-1,9c0,.35,4.07-4.48,4-4.63a14.1,14.1,0,0,0-1.55-1.29l1.67-2A9,9,0,0,0,25.68,30.81Z" transform="translate(-7.02 0.08)"/>
      <path class="cls-3" d="M13,31.91l1.67,2a14.1,14.1,0,0,0-1.55,1.29c0,.15,4,5,4.07,4.69a28.83,28.83,0,0,0-1.05-9A9,9,0,0,0,13,31.91Z" transform="translate(-7.02 0.08)"/>
    </g>
    <g>
      <path class="cls-7" d="M32.57,15.06a21.83,21.83,0,0,0-.84-6.36A11.39,11.39,0,0,0,18.17.85C4.65,4,7.56,20,11.51,19.15c2.41-.5,4.79-1.13,7.16-1.75a13.16,13.16,0,0,1,7.36,0c.69.24,1.26.7,2,.88,2.35.61,4.3-.28,4.53-2.8Z" transform="translate(-7.02 0.08)"/>
      <path class="cls-8" d="M32.26,11.12c-1.46.15-.84,2.11-.77,3.06,0,.38-.13,1.63.52,1.55s.58-1.3.6-1.72A21.52,21.52,0,0,0,32.26,11.12Z" transform="translate(-7.02 0.08)"/>
      <path class="cls-9" d="M10.47,17.86c.93,3.66.88,4.55,2.29,8.22s5,6.07,10,5.88c4.54-.16,6.24-2.45,7.5-6.34a24.48,24.48,0,0,0,1.39-9.18C31.23,9.11,26.13,3.49,20.27,3.88S8.67,10.76,10.47,17.86Z" transform="translate(-7.02 0.08)"/>
      <path class="cls-9" d="M9.26,21.7a6.28,6.28,0,0,0,2.32.21l.05-.07c.36-.49-.18-3-.34-3.5-.41-1.3-1.11-2.21-2.5-1.85C5.88,17.22,6.92,21,9.26,21.7Z" transform="translate(-7.02 0.08)"/>
      <path class="cls-10" d="M12.79,17.63c-.21,1.09-1.38-1.63-1.44-2.09-.24-2.16,1.45-3.77,2.58-5.37a7.66,7.66,0,0,1,5.13-2.71c2.76-.48,6-1.2,8.79-.74,2.6.43,3.77,2.65.87,4.61a17.42,17.42,0,0,1-9.08,3,31.58,31.58,0,0,1-6-.67C13.37,13.61,13.11,16,12.79,17.63Z" transform="translate(-7.02 0.08)"/>
      <path class="cls-7" d="M31.51,6.22A3.91,3.91,0,0,0,30.07,3a13.93,13.93,0,0,0-8-3C15.23-.6,9.72,3,8.41,10.25c-.49,2.7.5,5.37,1.64,6.31.86.71,1.32,2.94,2.76,2.25.49-.24.4-.7.26-1.14a5.81,5.81,0,0,1,.24-4.81C17.77,14,24,12.65,28.14,10.71A5.72,5.72,0,0,0,31.51,6.22Z" transform="translate(-7.02 0.08)"/>
      <path class="cls-8" d="M8.24,12c.48.43.8,1.14,1.52,1.24s1.12-.63,1.87-.31c1,.43.74,1.95.82,2.83a16.63,16.63,0,0,0,.41,2.06c-.69.65-.84-.81-2.26-1.62C9.46,15.58,9,16,8.44,14.84A5.71,5.71,0,0,1,8.24,12Z" transform="translate(-7.02 0.08)"/>
      <path class="cls-11" d="M10.76,20.94c1.34-.44.45-2.6-.45-3.05-.74-.37-2.75-.13-2,1.13.63-1,1.39-.2,1.14.54-.16.49-.88.41-.26,1.15A1.69,1.69,0,0,0,10.76,20.94Z" transform="translate(-7.02 0.08)"/>
      <path class="cls-12" d="M29.79,4.12c.79,1.41.61,3.21-1.09,4.86a15,15,0,0,1-8.58,3.7,19.92,19.92,0,0,1-3.45.13A6.54,6.54,0,0,0,20,12a18,18,0,0,1-8.84-.52c-.53-.2-1.09-.43-1.61-.62.44,0,4.49.54,5.45.28-4.75-.89-4.61-3-4.54-3.32a8.84,8.84,0,0,1,1.05-2.42C13.28,2.3,17.08.82,20.37.66,23.15.53,28.25,1.37,29.79,4.12Z" transform="translate(-7.02 0.08)"/>
      <path class="cls-7" d="M30.85,8.11s-.94,3.81-9.73,5.8c0,0,5.36-1.71,8-5Z" transform="translate(-7.02 0.08)"/>
    </g>
    <g>
      <path class="cls-13" d="M16.88,18c.69-.6-1.4-.67-1.71-.58,0,.42,1,.22,1.23.29-.24.26-1,.25-1.27.43s-.28.31.09.3A6.55,6.55,0,0,0,16.88,18Z" transform="translate(-7.02 0.08)"/>
      <path class="cls-13" d="M29.49,17.84c-.45-.65,1.29-.5,1.54-.38-.11.41-.84.11-1.09.15.16.28.76.35,1,.56s.17.33-.14.29A4.47,4.47,0,0,1,29.49,17.84Z" transform="translate(-7.02 0.08)"/>
      <path class="cls-7" d="M30.89,14.67a.52.52,0,0,0,.17-.12c1.27-1.68-4.48-2.51-4-.43.25,1,1.33.6,2,.53C29.44,14.6,30.43,14.89,30.89,14.67Z" transform="translate(-7.02 0.08)"/>
      <path class="cls-7" d="M15.57,14.71a.35.35,0,0,1-.18-.13C14,12.87,20.3,12,19.73,14.11c-.28,1.06-1.45.63-2.13.56C17.15,14.63,16.07,14.94,15.57,14.71Z" transform="translate(-7.02 0.08)"/>
      <path class="cls-14" d="M30.9,19.49a1.24,1.24,0,0,1,.1.4c.09,1.43-2.76.61-3,0-.45-1.22.58-1.38,1.31-1.28A1.94,1.94,0,0,1,30.9,19.49Z" transform="translate(-7.02 0.08)"/>
      <path class="cls-14" d="M17.46,18.85a1.18,1.18,0,0,1,.27.31c.78,1.26-2.32,1.87-2.86,1.4-1-.89-.11-1.52.63-1.78A2.12,2.12,0,0,1,17.46,18.85Z" transform="translate(-7.02 0.08)"/>
      <path class="cls-15" d="M17.72,18.47a1.87,1.87,0,0,0-1.28-.27c-.8-.88.29-3.16,1.52-2.43A1.67,1.67,0,0,1,17.72,18.47Z" transform="translate(-7.02 0.08)"/>
      <g>
        <path class="cls-11" d="M29.2,21.18c-.2-.6-1.52-.29-1.52-.29-.22.06.18.16.71.34a.31.31,0,0,1,.2.17c-2.22,1.29-7.83,2.23-11.54-.09a.41.41,0,0,1,.1-.09c.53-.38,1.25-.38,1.06-.52a3.38,3.38,0,0,0-1.72.27c-.45.33-.5,1.44-.16,1.51s.32-.55.58-1c.18,1.22,1.19,6.37,5.34,6.59,3.12.16,4.16-1.49,4.39-3.48a6.09,6.09,0,0,1,2-3.07c0,.34-.18.82.06.86S29.4,21.77,29.2,21.18Z" transform="translate(-7.02 0.08)"/>
        <path class="cls-16" d="M17.66,22.15a10.88,10.88,0,0,0,10-.1,3.25,3.25,0,0,0-1.21,2.17c-.21,1.18-.7,2.86-4,2.89C18.74,27.15,17.66,22.15,17.66,22.15Z" transform="translate(-7.02 0.08)"/>
        <path class="cls-17" d="M18.85,22.7A2.7,2.7,0,0,0,19.91,25a5.72,5.72,0,0,0,4.77.42C25.82,25,26.6,22.6,26.6,22.6A12.64,12.64,0,0,1,18.85,22.7Z" transform="translate(-7.02 0.08)"/>
        <path class="cls-17" d="M19.17,25.1c-.09-.41-.06-.86.54-.52a8.11,8.11,0,0,0,3.66.76c1.58,0,2-.8,2.25-.36s-.95,2.5-3.46,2.17C19.28,26.76,19.17,25.1,19.17,25.1Z" transform="translate(-7.02 0.08)"/>
        <path class="cls-18" d="M19.07,24s5.71-.77,7-.1a8.11,8.11,0,0,0,.52-1.25,14,14,0,0,1-7.76.08A3.3,3.3,0,0,0,19.07,24Z" transform="translate(-7.02 0.08)"/>
        <path class="cls-18" d="M20,24.61a8.41,8.41,0,0,0,5.24.28A5.6,5.6,0,0,1,20,24.61Z" transform="translate(-7.02 0.08)"/>
      </g>
      <path class="cls-11" d="M25.2,19.53c.31.3-.33,1.29-1.72,1.28s-2.15-1.15-1.61-1.4.86.07,1.65.09S24.85,19.17,25.2,19.53Z" transform="translate(-7.02 0.08)"/>
      <path class="cls-19" d="M25.09,19.64c.4-.3,0-4-1.62-4-1.39,0-2.15,3.59-1.45,4.13A3.05,3.05,0,0,0,25.09,19.64Z" transform="translate(-7.02 0.08)"/>
      <path class="cls-15" d="M29.87,15.59A1.69,1.69,0,0,1,29.66,18a1.74,1.74,0,0,0-1.24.12C27,17.39,28.63,14.54,29.87,15.59Z" transform="translate(-7.02 0.08)"/>
      <path class="cls-20" d="M17.31,16.2c.49-.11.69.67.29.9C17,17.43,16.76,16.32,17.31,16.2Z" transform="translate(-7.02 0.08)"/>
      <path class="cls-20" d="M28.93,16c.49,0,.57.77.14.93C28.48,17.14,28.38,16,28.93,16Z" transform="translate(-7.02 0.08)"/>
      <path class="cls-13" d="M23.86,30.87c-1.11.08.05-.51.06-.93s-.39-1.06-.75-1c.62-.08,1.08-.1,1.38.71A.85.85,0,0,1,23.86,30.87Z" transform="translate(-7.02 0.08)"/>
    </g>
  </g>
</svg>
