<svg id="레이어_1" data-name="레이어 1" xmlns="http://www.w3.org/2000/svg" viewBox="0 0 40 39.79">
  <defs>
    <style>
      .cls-1, .cls-3 {
        fill: #ff9500;
      }

      .cls-2, .cls-4 {
        fill: #e3ca95;
      }

      .cls-3, .cls-4, .cls-5 {
        fill-rule: evenodd;
      }
    </style>
  </defs>
  <title>1</title>
  <g>
    <circle class="cls-1" cx="19.86" cy="19.9" r="19.46"/>
    <circle class="cls-2" cx="19.64" cy="19.77" r="15.09"/>
    <path class="cls-3" d="M8.5,5.08C6,8.79,2.81,12.69,1.18,16.86c-.2.52.6.91.94.52a42.88,42.88,0,0,0,3.54-5.56C6.93,9.75,8.23,7.7,9.54,5.65,10,5,8.92,4.45,8.5,5.08Z" transform="translate(0 -0.1)"/>
    <path class="cls-3" d="M22.66,2.14c-.33.53-.66,1.06-1,1.59a6,6,0,0,0-.85,1.54.53.53,0,0,0,.89.5,6,6,0,0,0,1-1.48c.33-.53.64-1.07,1-1.6S23,1.54,22.66,2.14Z" transform="translate(0 -0.1)"/>
    <path class="cls-3" d="M26.21,3.11a16.41,16.41,0,0,1-.93,1.76,7.07,7.07,0,0,0-.91,1.63A.45.45,0,0,0,25,7a4.15,4.15,0,0,0,1.14-1.48,19.56,19.56,0,0,0,1-1.88C27.41,3,26.5,2.49,26.21,3.11Z" transform="translate(0 -0.1)"/>
    <path class="cls-3" d="M29.64,4.87a16.39,16.39,0,0,0-1.17,1.47A4.36,4.36,0,0,0,27.59,8a.48.48,0,0,0,.81.44A7.76,7.76,0,0,0,29.33,7a12.42,12.42,0,0,1,1.1-1.41C30.9,5.1,30.11,4.35,29.64,4.87Z" transform="translate(0 -0.1)"/>
    <path class="cls-3" d="M32.36,6.59a16.84,16.84,0,0,1-1,1.68,12.74,12.74,0,0,0-1.17,1.59c-.21.41.26,1,.69.66A9.71,9.71,0,0,0,33.27,7.1.52.52,0,0,0,32.36,6.59Z" transform="translate(0 -0.1)"/>
    <path class="cls-3" d="M36.39,13.05,35,15.2a9.6,9.6,0,0,0-1.13,2.06c-.15.48.49.76.82.45a9.31,9.31,0,0,0,1.34-1.94L37.4,13.6C37.79,13,36.79,12.42,36.39,13.05Z" transform="translate(0 -0.1)"/>
    <path class="cls-3" d="M37.91,16.21C34.43,23.26,30.8,30.1,26,36.39c-.51.67.41,1.6,1,.93,5.1-6.12,8.43-13.47,11.74-20.64C39,16.12,38.19,15.65,37.91,16.21Z" transform="translate(0 -0.1)"/>
    <path class="cls-3" d="M38.45,21.4c-2.31,4.32-4.82,8.6-6.89,13-.34.74.71,1.34,1.11.62,2.42-4.26,4.43-8.8,6.6-13.19C39.54,21.32,38.73,20.87,38.45,21.4Z" transform="translate(0 -0.1)"/>
    <path class="cls-3" d="M24.29,34.08c-.65.79-1.26,1.6-1.84,2.44a10.8,10.8,0,0,0-1.54,2.62.51.51,0,0,0,.86.47,19.09,19.09,0,0,0,1.46-2.27c.57-.87,1.17-1.72,1.81-2.54C25.45,34.28,24.72,33.56,24.29,34.08Z" transform="translate(0 -0.1)"/>
    <path class="cls-3" d="M20,34.72l-1.44,2a7.26,7.26,0,0,0-1.24,1.92.49.49,0,0,0,.73.53,7.64,7.64,0,0,0,1.37-1.81l1.46-2.16C21.28,34.66,20.4,34.2,20,34.72Z" transform="translate(0 -0.1)"/>
    <path class="cls-3" d="M6.21,26.73c-.33.69-.69,1.37-1.09,2A15.83,15.83,0,0,0,3.89,30.7a.59.59,0,0,0,.95.69,6.77,6.77,0,0,0,1.35-1.87A21.28,21.28,0,0,0,7.3,27.34C7.63,26.61,6.56,26,6.21,26.73Z" transform="translate(0 -0.1)"/>
    <path class="cls-3" d="M8.64,30.44,7.32,32.51a6.13,6.13,0,0,0-1.08,2c-.06.32.3.67.62.45a5.77,5.77,0,0,0,1.29-1.79l1.37-2.21C9.85,30.38,9,29.9,8.64,30.44Z" transform="translate(0 -0.1)"/>
    <path class="cls-3" d="M11.7,32.57c-.36.68-.75,1.35-1.16,2a8.18,8.18,0,0,0-1.11,1.86.55.55,0,0,0,.81.59,5.79,5.79,0,0,0,1.3-1.75c.42-.7.81-1.41,1.17-2.14S12.05,31.91,11.7,32.57Z" transform="translate(0 -0.1)"/>
    <path class="cls-3" d="M15.05,34.29a8.55,8.55,0,0,1-.88,1.63,4.86,4.86,0,0,0-1,1.4.53.53,0,0,0,.66.63c.66-.19,1.07-.89,1.43-1.43a8.59,8.59,0,0,0,1-2C16.47,33.84,15.32,33.59,15.05,34.29Z" transform="translate(0 -0.1)"/>
    <path class="cls-4" d="M12.63,8l-3.5,5.17a36,36,0,0,0-3.37,5.25c-.22.5.39,1,.81.59a33.33,33.33,0,0,0,3.37-4.91q1.8-2.81,3.61-5.59C13.92,7.89,13,7.39,12.63,8Z" transform="translate(0 -0.1)"/>
    <path class="cls-4" d="M17.45,6.26C13.94,12.05,9.71,17.35,6.14,23.07a.66.66,0,0,0,1,.77c4.45-5,7.91-11.25,11.25-17C18.79,6.17,17.82,5.65,17.45,6.26Z" transform="translate(0 -0.1)"/>
    <path class="cls-4" d="M20.36,6.49c-4.1,7-8.55,13.75-13.27,20.33-.56.78.74,1.48,1.3.72a204,204,0,0,0,13-20.48A.59.59,0,0,0,20.36,6.49Z" transform="translate(0 -0.1)"/>
    <path class="cls-4" d="M23.56,7.14c-2.25,3.66-4.5,7.31-6.71,11s-5,7.44-6.9,11.37c-.3.62.51,1.3,1,.74,2.83-3.13,4.81-7.25,6.93-10.89q3.39-5.81,6.72-11.63C25,7.05,24,6.49,23.56,7.14Z" transform="translate(0 -0.1)"/>
    <path class="cls-4" d="M26.43,8.31c-4.11,8.37-8.84,16.32-13.53,24.36-.47.82.75,1.45,1.26.7A168.4,168.4,0,0,0,27.47,8.89C27.79,8.2,26.77,7.63,26.43,8.31Z" transform="translate(0 -0.1)"/>
    <path class="cls-4" d="M29.05,9.92c-4,8.28-8.91,15.87-13.49,23.8-.37.65.61,1.42,1.08.79C22.15,27.27,26.3,18.71,30,10.43,30.25,9.82,29.35,9.3,29.05,9.92Z" transform="translate(0 -0.1)"/>
    <path class="cls-4" d="M31.25,12.31C27.64,19.94,24,27.55,19,34.4c-.48.66.67,1.52,1.17.86,5.16-6.81,8.69-14.59,12-22.4C32.54,12.2,31.57,11.64,31.25,12.31Z" transform="translate(0 -0.1)"/>
    <path class="cls-4" d="M32.71,15.82a135.48,135.48,0,0,1-9.95,18c-.5.79.72,1.42,1.25.69a84.82,84.82,0,0,0,9.66-18.16C33.93,15.71,33,15.16,32.71,15.82Z" transform="translate(0 -0.1)"/>
    <path class="cls-4" d="M33.72,19.72a77.89,77.89,0,0,1-6.44,12.35c-.49.78.76,1.46,1.25.69A65.6,65.6,0,0,0,34.7,20.1C34.91,19.54,34,19.16,33.72,19.72Z" transform="translate(0 -0.1)"/>
    <path class="cls-5" d="M26.27,1.12a20.38,20.38,0,0,0-15,.94A17.14,17.14,0,0,0,7,5.05a.63.63,0,0,0-.54.16A22.06,22.06,0,0,0,.33,16.78,19.34,19.34,0,0,0,2.25,29.32,20.08,20.08,0,0,0,39.9,22c1-9-5.24-17.76-13.63-20.92Zm2,9.44c.65-.52,1.6.35.95.91-2.06,1.78-4.07,3.63-6,5.55-.88.87-1.71,1.83-2.56,2.76a12.29,12.29,0,0,0,2,1.49.75.75,0,0,1-.73,1.31,11.61,11.61,0,0,1-2.25-1.53,103.6,103.6,0,0,1-3.46,10.8c-.26.65-1.21.12-1-.52,1.2-3,2.14-6.1,3-9.2-.17.16-.35.31-.54.46-.56.45-1.36-.38-1-.95a13.59,13.59,0,0,1,1.41-1.86L18,19.6c-1.44-1.19-3-2.33-4.28-3.63-.65-.64.2-1.9,1-1.33,1.31,1,2.51,2.07,3.75,3.13.3.25.6.53.9.81h0c.11-.4.23-.8.35-1.19a.51.51,0,0,1,.95-.06c.49-.46,1-.91,1.46-1.36,2-1.89,4.05-3.68,6.17-5.4ZM11.88,19a.68.68,0,0,1,.21,1.32,20.11,20.11,0,0,1-5,.47.71.71,0,0,1,0-1.42A34.55,34.55,0,0,1,11.88,19Zm7.23,9.53c.07-.88,1.45-.93,1.39,0a35.2,35.2,0,0,1-.36,4.59c-.15.78-1.31.6-1.35-.15a36.17,36.17,0,0,1,.31-4.41Zm13.13-9a.67.67,0,0,1,0,1.34l-2.42,0a9,9,0,0,1-2.26-.08.65.65,0,0,1,0-1.24,20.33,20.33,0,0,1,4.68-.05Zm-11.83-12a23.07,23.07,0,0,1,0,4.7.71.71,0,0,1-1.35,0,23.78,23.78,0,0,1-.1-4.7.72.72,0,0,1,1.44,0Zm4.34-2.17a15.61,15.61,0,0,1,11,14.73A15.85,15.85,0,0,1,25.52,34.43,16.11,16.11,0,0,1,7.06,29.27a14.52,14.52,0,0,1-.59-16.8c1.14-3,4.21-5.21,7-6.41a16.81,16.81,0,0,1,11.25-.68Zm2.5,26.4a14.58,14.58,0,0,1-17.18-1.57A13.71,13.71,0,0,1,6.78,14.65a.59.59,0,0,0,.69-.38C9.84,8.59,16,5.69,22,6.45A13.94,13.94,0,0,1,33.79,17.2a13.77,13.77,0,0,1-6.54,14.58Zm-1.13,5.43a18.63,18.63,0,0,1-21-6.36A18.4,18.4,0,0,1,1.66,18.48a17.71,17.71,0,0,1,1.07-5A.74.74,0,0,0,3,13.2C5.1,9.9,7.09,6.56,10.43,4.38A19.12,19.12,0,0,1,22.89,1.91c4,.55,7.48,3,10.23,5.83a17.36,17.36,0,0,1,5.22,11A18.48,18.48,0,0,1,26.12,37.21Z" transform="translate(0 -0.1)"/>
  </g>
</svg>
