<svg id="레이어_1" data-name="레이어 1" xmlns="http://www.w3.org/2000/svg" viewBox="0 0 40 40">
  <defs>
    <style>
      .cls-1 {
        stroke: #000;
        stroke-miterlimit: 10;
        stroke-width: 0.75px;
      }
    </style>
  </defs>
  <title>1</title>
  <path d="M20,40A20,20,0,1,1,40,20,20,20,0,0,1,20,40ZM20,3.66A16.34,16.34,0,1,0,36.34,20,16.36,16.36,0,0,0,20,3.66Z"/>
  <path class="cls-1" d="M16.28,22.48V25a14.17,14.17,0,0,1-2.06.41,18.65,18.65,0,0,1-2.29.14H9.7v-15h6.38v2.56H12.7v9.78h.08a15,15,0,0,0,1.6-.09C14.93,22.76,15.57,22.64,16.28,22.48Zm7.55-.1v2.51a11.11,11.11,0,0,1-2.2.49,19.1,19.1,0,0,1-2.67.18H16.85v-15H23v2.56h-3.2V23h.27a11.51,11.51,0,0,0,1.76-.15A19.14,19.14,0,0,0,23.83,22.38ZM31,19.07h-3.4v12.6h-3v-23h3v7.8H31Z"/>
</svg>
