<svg id="레이어_1" data-name="레이어 1" xmlns="http://www.w3.org/2000/svg" viewBox="0 0 40 30.16">
  <defs>
    <style>
      .cls-1 {
        fill: #ec331e;
      }

      .cls-1, .cls-2 {
        fill-rule: evenodd;
      }
    </style>
  </defs>
  <title>1</title>
  <g>
    <path class="cls-1" d="M20.25,13.58,17.4,8.83s-4.12-3.32-6.12-3.1c0,0-11,2.45-10.44,12,0,0,9.73,14.34,19.26,16.38,0,0,14.14-7.31,18.92-16.5,0,0,2.15-10.45-9.19-11.85C29.83,5.73,24.08,3.8,20.25,13.58Z" transform="translate(0 -4.92)"/>
    <path class="cls-2" d="M39.67,12.33a9.55,9.55,0,0,0-3.81-5.26,11.72,11.72,0,0,0-6.71-2.13c-3.75.32-7.68,2.82-9.07,6.36A10.81,10.81,0,0,0,11.9,5.16C7.28,4.51,2.84,7.94,1,12a9.31,9.31,0,0,0-.49,7c.86,2.4,2.89,4.15,4.73,5.8A75.83,75.83,0,0,0,19.61,34.91h0a.68.68,0,0,0,.83,0A98.13,98.13,0,0,0,34.27,24.82c3.52-3.26,6.81-7.39,5.39-12.49Zm-1.36,4.33c-.89,4-5,7.17-8,9.56-3.25,2.55-6.68,4.89-10.16,7.13A75.65,75.65,0,0,1,9,25.86C5.5,23.05.66,19.73,1.63,14.64c.81-4.21,5.23-8.5,9.66-8.12a9.56,9.56,0,0,1,8.24,7.31c.16.7,1.07.54,1.26,0a.62.62,0,0,0,.09-.28c.33-4.69,6.43-8.1,10.69-6.75A10,10,0,0,1,37,10.2,8.06,8.06,0,0,1,38.31,16.66Z" transform="translate(0 -4.92)"/>
  </g>
</svg>
