<svg xmlns="http://www.w3.org/2000/svg" xmlns:xlink="http://www.w3.org/1999/xlink" viewBox="0 0 40 40">
  <defs>
    <style>
      .cls-1 {
        isolation: isolate;
      }

      .cls-2 {
        fill: url(#linear-gradient);
      }

      .cls-3, .cls-4, .cls-9 {
        opacity: 0.25;
      }

      .cls-3, .cls-5, .cls-9 {
        mix-blend-mode: multiply;
      }

      .cls-3 {
        fill: url(#radial-gradient);
      }

      .cls-4 {
        fill: #fff;
      }

      .cls-5 {
        opacity: 0.35;
        fill: url(#linear-gradient-2);
      }

      .cls-6 {
        fill: #5d4037;
      }

      .cls-7 {
        fill: #4e342e;
      }

      .cls-8, .cls-9 {
        fill: #d95957;
      }
    </style>
    <linearGradient id="linear-gradient" x1="20" y1="-0.67" x2="20" y2="40.75" gradientUnits="userSpaceOnUse">
      <stop offset="0" stop-color="#ffe082"/>
      <stop offset="1" stop-color="#ffbf66"/>
    </linearGradient>
    <radialGradient id="radial-gradient" cx="20" cy="20" r="20" gradientUnits="userSpaceOnUse">
      <stop offset="0.8" stop-color="#fff"/>
      <stop offset="1" stop-color="#ffbf66"/>
    </radialGradient>
    <linearGradient id="linear-gradient-2" x1="20" y1="17.63" x2="20" y2="40.41" xlink:href="#linear-gradient"/>
  </defs>
  <title>1</title>
  <g class="cls-1">
    <g id="레이어_1" data-name="레이어 1">
      <g>
        <g>
          <circle class="cls-2" cx="20" cy="20" r="20"/>
          <circle class="cls-3" cx="20" cy="20" r="20"/>
          <path class="cls-4" d="M36.5,15.12c0,7.43-7.39,0-16.5,0s-16.5,7.43-16.5,0S10.89,1.67,20,1.67,36.5,7.69,36.5,15.12Z"/>
          <path class="cls-5" d="M20,36A20,20,0,0,1,.1,18,18.86,18.86,0,0,0,0,20a20,20,0,0,0,40,0,18.86,18.86,0,0,0-.1-2A20,20,0,0,1,20,36Z"/>
        </g>
        <g>
          <path class="cls-4" d="M13.7,32.53a1.79,1.79,0,0,1-.78-.17c-1-.53-1.21-1.84-.45-3.5A8.15,8.15,0,0,1,20,24.36a8.76,8.76,0,0,1,3.24.6,7.94,7.94,0,0,1,4.1,3.72c.85,1.68.85,2.92,0,3.5a1.62,1.62,0,0,1-.93.28h0a5.52,5.52,0,0,1-2.31-.81,5.28,5.28,0,0,0-.71-.34,10.53,10.53,0,0,0-3.37-.54,9.77,9.77,0,0,0-3.13.49,5.93,5.93,0,0,0-.83.4A5.47,5.47,0,0,1,13.7,32.53Z"/>
          <path class="cls-6" d="M26.72,29A7.2,7.2,0,0,0,23,25.64c-3.56-1.41-8.23-.1-9.88,3.52-.31.68-.77,2.09.13,2.55.73.38,2-.41,2.86-.87a4.66,4.66,0,0,1,.58-.27,11.26,11.26,0,0,1,7,.06l.06,0c.81.3,2.44,1.5,3.25.93S27,29.55,26.72,29Z"/>
          <path class="cls-7" d="M26.72,29A7.2,7.2,0,0,0,23,25.64c-3.56-1.41-8.23-.1-9.88,3.52a2.88,2.88,0,0,0-.26,2.17,5.87,5.87,0,0,1,.26-.72C14.77,27,19.44,25.67,23,27.09a7.16,7.16,0,0,1,3.72,3.37,8.07,8.07,0,0,1,.4,1C27.56,30.83,27,29.5,26.72,29Z"/>
          <path class="cls-8" d="M23.71,30.65l-.06,0a11.26,11.26,0,0,0-7-.06,4.66,4.66,0,0,0-.58.27A4.27,4.27,0,0,1,20,28.26,4.21,4.21,0,0,1,23.71,30.65Z"/>
          <path class="cls-9" d="M16.69,29.9h0a4.71,4.71,0,0,0-.57.94,4.66,4.66,0,0,1,.58-.27,11.26,11.26,0,0,1,7,.06l.06,0a4.27,4.27,0,0,0-.55-.83A11.22,11.22,0,0,0,16.69,29.9Z"/>
        </g>
        <g>
          <path class="cls-4" d="M15.31,18.41A4.68,4.68,0,0,0,16.74,12c-.46-.73-.5-.75-.61-.83a1.52,1.52,0,0,0-1.72-.1,1.61,1.61,0,0,0-.69,1.05,3.28,3.28,0,0,1-1.27,1.82,3.27,3.27,0,0,1-2.19.38A1.66,1.66,0,0,0,9,14.46a1.53,1.53,0,0,0-.64,1.6c0,.13,0,.18.5.91A4.67,4.67,0,0,0,15.31,18.41Z"/>
          <path class="cls-6" d="M15,17.84A4.1,4.1,0,0,0,16,12a.84.84,0,0,0-1.6.25,3.76,3.76,0,0,1-1.57,2.23,3.77,3.77,0,0,1-2.65.47c-.77-.15-1.44.49-1,1.23C10.37,18.19,12.8,19.21,15,17.84Z"/>
          <path class="cls-7" d="M10.82,16.14a3.78,3.78,0,0,0,2.65-.47A3.74,3.74,0,0,0,15,13.43.82.82,0,0,1,16.47,13a5.19,5.19,0,0,0-.5-1,.84.84,0,0,0-1.6.25,3.76,3.76,0,0,1-1.57,2.23,3.77,3.77,0,0,1-2.65.47c-.77-.15-1.44.49-1,1.23a6.48,6.48,0,0,0,.53.73A.89.89,0,0,1,10.82,16.14Z"/>
        </g>
        <g>
          <path class="cls-4" d="M31.13,17c.47-.73.48-.78.5-.91a1.53,1.53,0,0,0-.64-1.6,1.66,1.66,0,0,0-1.25-.18,3.27,3.27,0,0,1-2.19-.38,3.28,3.28,0,0,1-1.27-1.82A1.61,1.61,0,0,0,25.59,11a1.52,1.52,0,0,0-1.72.1c-.11.08-.15.1-.61.83a4.66,4.66,0,1,0,7.87,5Z"/>
          <path class="cls-6" d="M30.85,16.17c.44-.74-.23-1.38-1-1.23a3.56,3.56,0,0,1-4.22-2.7A.84.84,0,0,0,24,12a4.1,4.1,0,0,0,1,5.85C27.2,19.21,29.63,18.19,30.85,16.17Z"/>
          <path class="cls-7" d="M29.18,16.14a3.78,3.78,0,0,1-2.65-.47A3.74,3.74,0,0,1,25,13.43.82.82,0,0,0,23.53,13a5.19,5.19,0,0,1,.5-1,.84.84,0,0,1,1.6.25,3.56,3.56,0,0,0,4.22,2.7c.77-.15,1.44.49,1,1.23a6.48,6.48,0,0,1-.53.73A.89.89,0,0,0,29.18,16.14Z"/>
        </g>
      </g>
    </g>
  </g>
</svg>
