<svg id="레이어_1" data-name="레이어 1" xmlns="http://www.w3.org/2000/svg" viewBox="0 0 33.17 40">
  <defs>
    <style>
      .cls-1 {
        fill: #518c21;
      }

      .cls-1, .cls-2, .cls-3 {
        fill-rule: evenodd;
      }

      .cls-2 {
        fill: #ff9500;
      }
    </style>
  </defs>
  <title>1</title>
  <g>
    <polygon class="cls-1" points="6.44 10.06 3.68 10.84 1.3 12.74 0.46 17.49 1.84 20.81 5.13 24.24 6.44 24.59 9.68 27.03 14.06 29.18 18.73 28.86 20.57 27.57 23.84 28.21 30.25 25.75 32.66 22.94 32.36 19.62 31.2 17.55 32.36 13.21 31.2 10.06 28.12 5.89 23.57 4.43 19.52 4.55 18.64 5.2 17.84 2.29 15.19 1.24 10.02 1.06 6.72 2.85 5.13 5.61 4.81 8.58 5.13 9.92 6.44 10.06"/>
    <polygon class="cls-2" points="14.44 29.18 14.06 35.28 12.73 39.35 20.57 39.35 18.73 35.09 18.41 29.18 14.44 29.18"/>
    <path class="cls-2" d="M19.79,29.58c-.61.69-1.23,1.37-1.8,2.09a.49.49,0,0,0,.7.68c.66-.65,1.27-1.33,1.88-2C21,29.81,20.26,29.06,19.79,29.58Z" transform="translate(-3.43 0)"/>
    <path class="cls-2" d="M20.86,31.13A32.28,32.28,0,0,0,17.09,36a.49.49,0,0,0,.79.57,32,32,0,0,0,3.83-4.58C22.17,31.36,21.34,30.55,20.86,31.13Z" transform="translate(-3.43 0)"/>
    <path class="cls-2" d="M21.61,33.84a30,30,0,0,0-4.33,4.76c-.34.55.42,1,.85.62a21.22,21.22,0,0,0,2.15-2.3c.71-.78,1.42-1.55,2.14-2.31C22.92,34.09,22.12,33.33,21.61,33.84Z" transform="translate(-3.43 0)"/>
    <path class="cls-2" d="M21.69,36.34a25.77,25.77,0,0,1-2,2.09c-.35.4,0,1.23.6,1A6,6,0,0,0,22.84,37C23.31,36.26,22.16,35.65,21.69,36.34Z" transform="translate(-3.43 0)"/>
    <path class="cls-1" d="M13.46,1.06c-1.84,2.11-4.15,4.5-5.29,7.08-.21.49.39,1,.79.58a37,37,0,0,0,2.57-3.5c.87-1.16,1.79-2.29,2.73-3.39C14.72,1.29,13.93.52,13.46,1.06Z" transform="translate(-3.43 0)"/>
    <path class="cls-1" d="M16.7.52c-4.34,5.5-9.13,11-12.8,17-.37.59.54,1.29,1,.73,4.45-5.42,8.23-11.46,12.5-17C17.75.7,17.08,0,16.7.52Z" transform="translate(-3.43 0)"/>
    <path class="cls-1" d="M19.52,1.94q-3.51,4.83-7,9.7c-2.26,3.19-5,6.37-6.74,9.85-.31.6.51,1.27,1,.73,2.51-2.86,4.43-6.37,6.55-9.52q3.49-5.16,7-10.27C20.78,1.88,19.89,1.42,19.52,1.94Z" transform="translate(-3.43 0)"/>
    <path class="cls-1" d="M21.13,4.68C17,10.84,12.76,16.94,8.69,23.14c-.55.82.8,1.56,1.34.74,4.08-6.18,8-12.46,12-18.68C22.45,4.62,21.51,4.11,21.13,4.68Z" transform="translate(-3.43 0)"/>
    <path class="cls-1" d="M24.65,4.79c-4.29,6.78-9,13.42-12.91,20.42-.44.77.7,1.36,1.19.65,4.54-6.6,8.42-13.74,12.6-20.58C25.88,4.72,25,4.25,24.65,4.79Z" transform="translate(-3.43 0)"/>
    <path class="cls-1" d="M28.13,5.2c-4.63,7.08-9.78,14.28-13.48,21.9a.63.63,0,0,0,1.09.61c4.77-7.09,8.71-14.79,13.32-22C29.43,5.14,28.5,4.63,28.13,5.2Z" transform="translate(-3.43 0)"/>
    <path class="cls-1" d="M31.1,6.69c-4.39,7.15-9.16,14.18-13.2,21.53a.67.67,0,0,0,1.17.65c4.62-7,8.62-14.49,12.9-21.7C32.3,6.62,31.44,6.15,31.1,6.69Z" transform="translate(-3.43 0)"/>
    <path class="cls-1" d="M35,12.25c-1.5,2.64-3,5.3-4.4,8A43,43,0,0,0,27,27.62c-.21.69.74.95,1.1.43,1.62-2.3,2.65-5.12,3.92-7.64s2.61-5.09,4-7.62A.56.56,0,0,0,35,12.25Z" transform="translate(-3.43 0)"/>
    <path class="cls-1" d="M34.8,18.6c-1.3,2.65-2.73,5.26-3.92,8-.35.78.78,1.44,1.18.65,1.34-2.64,2.45-5.41,3.68-8.1C36,18.49,35.11,18,34.8,18.6Z" transform="translate(-3.43 0)"/>
    <path class="cls-3" d="M24.47,39a16.74,16.74,0,0,1-2.19-9.59h0a6.85,6.85,0,0,0,1.91-1,.63.63,0,0,0,.34.22C29.25,30,36.8,26.36,36.6,21.2a5.94,5.94,0,0,0-1.51-3.7c2.86-4,.15-9.49-3.52-12.14a9.09,9.09,0,0,0-6.78-1.71,8.07,8.07,0,0,0-2,.61C21.69.82,17.15-.63,13.63.25a7.87,7.87,0,0,0-5.88,9,.41.41,0,0,0,.2.3C5,10.43,3.48,13.71,3.43,16.6c0,3.84,2.13,7.8,6.38,8.55a.64.64,0,0,0,.34,0,10.6,10.6,0,0,0,6.61,4.44c.25.05.5.1.76.13-.12,3.14-.28,6.48-2,9.23-.28.45.18.87.6.89,2.59.15,5.2.14,7.8.18.55,0,.74-.65.51-1Zm-3.55-9.27a18.18,18.18,0,0,0,1.87,9c-1.9,0-3.79-.07-5.69-.06a23.61,23.61,0,0,0,1.58-8.76,11.23,11.23,0,0,0,2.24-.13Zm4.18-2.16a4.61,4.61,0,0,0,.92-2,.68.68,0,0,0-1.32-.31c-.94,3.24-5,3.72-8,3s-6.15-3.13-6.19-6.2c0-.76-1.22-.73-1.24,0A5.92,5.92,0,0,0,9.6,24c-3.16-.86-4.77-3.88-4.86-6.9-.1-3.32,1.53-6.17,5.24-6.51a.6.6,0,1,0,0-1.19,5.94,5.94,0,0,0-1.12,0,.35.35,0,0,0,.06-.29A6.72,6.72,0,0,1,13.35,1.6c3-1,7.45.07,8.26,3.33a4.93,4.93,0,0,0-2,2.58c-.23.73.84,1.05,1.24.46a6.31,6.31,0,0,1,4.77-3.09,7.79,7.79,0,0,1,5.6,1.85c2.83,2.27,5.11,6.65,3,9.94a7.12,7.12,0,0,0-1.52-.93c-1-.45-4.65-1.45-4.12.77.15.63,1.19.45,1.18-.18,0-.26,2.47.58,2.5.59a5.75,5.75,0,0,1,2,1.59,4.61,4.61,0,0,1,.41,5.13C33.1,26.42,28.32,28.29,25.1,27.52Z" transform="translate(-3.43 0)"/>
  </g>
</svg>
