<svg id="레이어_1" data-name="레이어 1" xmlns="http://www.w3.org/2000/svg" viewBox="0 0 40 27.54">
  <defs>
    <style>
      .cls-1 {
        fill: #86bcb6;
      }

      .cls-1, .cls-2, .cls-3 {
        fill-rule: evenodd;
      }

      .cls-2 {
        fill: #e3ca95;
      }
    </style>
  </defs>
  <title>1</title>
  <g>
    <path class="cls-1" d="M16.71,13.38l.67-3.21,2.24-3.12,3.23-1.19,3.88.76,2.31,2,1.8.46,2.24.22,1.38,1.38,1,1.4,1.39,1,1.58,1.18.78,1.59a12.93,12.93,0,0,0,0,1.65,21.67,21.67,0,0,1-.35,2.37l-1.53,1.28-2.52.74-2.8.14H30.87l-2.48-1.53-.81-1.14L26.36,18l-2.55-.79L21,17.14l-1.42-1.92L17.46,14Z" transform="translate(0 -5.45)"/>
    <path class="cls-2" d="M5.41,20.41,2.88,22,.67,25.2v2.86l1.78,2.86L6.79,32.1l8.27.52H26.69c.17,0,5-1.38,5-1.38l2.07-3.86L33,24.22,31.7,22l-2.76-1.06L28,20.28,26.36,18l-2.87-1.1-2.58-.11-3.79-3.1-4.71-.31L9.46,14.62,7.12,16.83,6,19.48Z" transform="translate(0 -5.45)"/>
    <path class="cls-2" d="M5.09,31.76a67.81,67.81,0,0,0-3.42-7.82c-.2-.43-1-.09-.77.35C2,26.89,3,29.6,4.2,32.16,4.44,32.67,5.27,32.28,5.09,31.76Z" transform="translate(0 -5.45)"/>
    <path class="cls-2" d="M8.91,31.85c-1.6-3.47-3.33-6.88-5-10.32-.26-.53-1,0-.77.48C4.75,25.48,6.3,29,8,32.42H8A.55.55,0,0,0,8.91,31.85Z" transform="translate(0 -5.45)"/>
    <path class="cls-2" d="M12.23,31.93c-1.1-4.56-3.6-9.12-5.64-13.33-.24-.49-.94,0-.72.45,2,4.33,3.36,9,5.49,13.26C11.62,32.82,12.35,32.42,12.23,31.93Z" transform="translate(0 -5.45)"/>
    <path class="cls-2" d="M16.17,31.91A163.23,163.23,0,0,0,8.76,14.84c-.25-.47-.93,0-.71.44a164.83,164.83,0,0,1,7,17C15.26,33,16.44,32.64,16.17,31.91Z" transform="translate(0 -5.45)"/>
    <path class="cls-2" d="M20.75,31.87c-.91-3.08-2.68-6-4-9q-2.22-4.78-4.43-9.58c-.21-.45-1-.1-.81.36l4.26,9.66c1.28,2.95,2.34,6.24,4.05,9A.54.54,0,0,0,20.75,31.87Z" transform="translate(0 -5.45)"/>
    <path class="cls-2" d="M25.27,31.9a94.21,94.21,0,0,0-4.29-9q-2.32-4.82-4.61-9.65c-.19-.42-.93-.09-.74.34q2,4.56,4.07,9.1a89.37,89.37,0,0,0,4.54,9.71A.57.57,0,0,0,25.27,31.9Z" transform="translate(0 -5.45)"/>
    <path class="cls-2" d="M29.24,32c-1.68-5.16-4.41-10.18-6.89-15-.27-.51-1,0-.77.47,2.45,4.9,4.36,10,6.76,14.94C28.59,32.9,29.41,32.51,29.24,32Z" transform="translate(0 -5.45)"/>
    <path class="cls-2" d="M29.67,24.16q-1.38-3.24-3-6.39c-.27-.54-1,0-.79.49,1.08,2.29,2.09,4.61,3,7,.73,1.9,1.18,4.06,2.25,5.8a.45.45,0,0,0,.82-.25C31.76,28.52,30.56,26.25,29.67,24.16Z" transform="translate(0 -5.45)"/>
    <path class="cls-2" d="M34,27.34a55.06,55.06,0,0,0-2.41-5.59c-.18-.4-.89-.09-.71.33.73,1.74,1.35,3.54,2.1,5.28a.42.42,0,0,0,.06.21l.1.16A.48.48,0,0,0,34,27.34Z" transform="translate(0 -5.45)"/>
    <path class="cls-1" d="M17.83,9.63c-.15-.53-.95-.28-.82.25a21.18,21.18,0,0,0,1.55,5c.25.45.84.09.76-.35C19,12.87,18.28,11.23,17.83,9.63Z" transform="translate(0 -5.45)"/>
    <path class="cls-1" d="M22.38,16.06c-.32-1.38-1-2.7-1.47-4s-.86-2.74-1.21-4.13c-.14-.54-.95-.29-.82.24.64,2.66,1.31,5.92,2.8,8.25A.39.39,0,0,0,22.38,16.06Z" transform="translate(0 -5.45)"/>
    <path class="cls-1" d="M25,16.21C24,13,22.9,9.84,21.84,6.64a.41.41,0,0,0-.78.24c.29.93,2.59,9.26,3.18,9.11a.38.38,0,0,0-.26.36v.07a.47.47,0,0,0,.47.46h.1A.52.52,0,0,0,25,16.21Z" transform="translate(0 -5.45)"/>
    <path class="cls-1" d="M24.08,6.14c-.18-.51-1-.28-.8.24,1.38,4.24,2.18,8.74,3.72,12.91.17.49,1,.43,1-.15C27.34,14.73,25.55,10.32,24.08,6.14Z" transform="translate(0 -5.45)"/>
    <path class="cls-1" d="M31.58,21c-.93-4.65-2.74-9.25-4.11-13.79a.5.5,0,0,0-.95.29c1.32,4.56,2.31,9.4,4.06,13.81A.52.52,0,0,0,31.58,21Z" transform="translate(0 -5.45)"/>
    <path class="cls-1" d="M32.49,15.71c-.65-2.34-1.31-4.67-2-7a.47.47,0,0,0-.89.27l1.52,5.8c.21.83.43,1.66.65,2.49.15.58,1.08,2.73.87,3.24a.43.43,0,0,0,.27.62l.11,0a.53.53,0,0,0,.65-.38C34,19.36,32.86,17.07,32.49,15.71Z" transform="translate(0 -5.45)"/>
    <path class="cls-1" d="M33.44,10c-.14-.53-.92-.28-.8.24.9,3.63,1.46,7.62,2.84,11.09.16.39.86.36.8-.13C35.83,17.41,34.4,13.6,33.44,10Z" transform="translate(0 -5.45)"/>
    <path class="cls-1" d="M36.31,12.41c-.19-.53-1-.29-.85.25.4,1.2.76,2.41,1.07,3.63A26.17,26.17,0,0,0,37.41,20a.41.41,0,0,0,.8-.13C38.28,17.45,37.09,14.63,36.31,12.41Z" transform="translate(0 -5.45)"/>
    <path class="cls-3" d="M39.45,14.76a5.71,5.71,0,0,0-2.07-2.29c-.52-.33-1.2-.41-1.69-.74s-.72-1.07-1.08-1.51a5.17,5.17,0,0,0-5.09-1.68,7.49,7.49,0,0,0-7.8-2.87,7.52,7.52,0,0,0-5.44,7,.26.26,0,0,0,0,.16c-2.73-.57-6.13-.14-8.18,1.75A10.26,10.26,0,0,0,5.76,18.1c-.3.74-.4,1.55-1.14,2a14.86,14.86,0,0,0-1.83,1,6.71,6.71,0,0,0-2.59,7,6.52,6.52,0,0,0,2.43,3.6,8.1,8.1,0,0,0,4.93,1.24c2.27,0,4.53,0,6.79,0,1.56,0,3.14.06,4.71,0a66,66,0,0,0,9-.14A6.08,6.08,0,0,0,32.31,22.4c2.23.07,4.76.19,6.28-1.52a5.59,5.59,0,0,0,.86-6.12ZM31.76,30.22c-1.21,1.38-2.83,1.63-4.57,1.74s-3.69.21-5.54.25a.42.42,0,0,0-.29-.16c-3.3-.31-6.67-.09-10-.2-3-.1-6.85.6-9-1.93a5.46,5.46,0,0,1,.47-7.44,5.91,5.91,0,0,1,1.46-1.07,8.17,8.17,0,0,0,1.44-.66,2,2,0,0,0,.54-.93,15.81,15.81,0,0,1,.93-2.3,7.38,7.38,0,0,1,2.63-3,8.89,8.89,0,0,1,4.69-.89,6.59,6.59,0,0,1,4.37,1.51,7.34,7.34,0,0,1,1.17,1.48,1.45,1.45,0,0,0,.77.75,6.19,6.19,0,0,0,1.82-.07,5.5,5.5,0,0,1,2.83.53A3.13,3.13,0,0,1,27,19.61a2.62,2.62,0,0,0,.84,1.28c.79.62,1.86.73,2.69,1.29A5.8,5.8,0,0,1,33,25.83a5.21,5.21,0,0,1-1.24,4.39Zm6-9.91c-.92,1-2.06,1-3.31,1l-3.3.06a8,8,0,0,0-1.69-.83A3,3,0,0,1,28.31,20c-.33-.36-.4-1-.64-1.41a4.61,4.61,0,0,0-3.15-2.12A9.45,9.45,0,0,0,22,16.34c-.53,0-.73.13-1.05-.23s-.38-.62-.6-.89A6.68,6.68,0,0,0,17,13h0a.45.45,0,0,0,.19-.35,6.53,6.53,0,0,1,4.84-6,6.58,6.58,0,0,1,6.87,2.81.53.53,0,0,0,.58.22,4.14,4.14,0,0,1,4.82,1.92,2.46,2.46,0,0,0,1.36,1.27,5.74,5.74,0,0,1,2.3,1.47A4.56,4.56,0,0,1,37.74,20.31Z" transform="translate(0 -5.45)"/>
  </g>
</svg>
