<svg id="레이어_1" data-name="레이어 1" xmlns="http://www.w3.org/2000/svg" viewBox="0 0 38.5 40">
  <defs>
    <style>
      .cls-1, .cls-7 {
        fill: #ff9500;
      }

      .cls-2, .cls-3 {
        fill: #e3ca95;
      }

      .cls-3, .cls-5, .cls-6, .cls-7, .cls-8 {
        fill-rule: evenodd;
      }

      .cls-4, .cls-5 {
        fill: #576d64;
      }

      .cls-6 {
        fill: #ec331e;
      }
    </style>
  </defs>
  <title>1</title>
  <g>
    <circle class="cls-1" cx="26.65" cy="28.18" r="11.03"/>
    <circle class="cls-2" cx="26.7" cy="28.18" r="8.44"/>
    <polygon class="cls-3" points="16.34 32.8 3.24 31.99 2.59 14.68 4.06 13.67 27.06 13.25 27.28 17.06 20.64 18.76 16.81 23.25 15.56 26.41 15.73 30.48 16.34 32.8"/>
    <rect class="cls-4" x="22.96" y="0.84" width="2.81" height="6.6" rx="0.21"/>
    <rect class="cls-4" x="4.39" y="0.84" width="2.35" height="6.46" rx="0.17"/>
    <polygon class="cls-5" points="1.28 34.64 2.52 37.21 5.66 37.58 18.87 36.46 17.43 35.16 1.28 34.64"/>
    <polygon class="cls-6" points="3.49 4.11 1.49 4.23 0.76 7.58 1.75 34.75 18.11 35.5 16.72 33.1 7.84 32.67 3.24 31.99 2.67 15.04 3.48 13.73 27.13 13.46 27.28 17.06 29.8 17.62 29.8 6.38 28.49 3.9 25.74 3.9 25.59 7.3 24.15 7.44 22.96 6.69 22.88 3.82 6.84 3.65 7.07 6.89 5.05 6.89 4.54 6.38 4.58 4.07 3.49 4.11"/>
    <path class="cls-6" d="M4.42,4.11c-.49.48-1,1-1.41,1.5A6.66,6.66,0,0,0,1.84,7.2a.51.51,0,0,0,.81.6A16.69,16.69,0,0,0,3.82,6.24c.41-.52.83-1,1.28-1.48A.47.47,0,0,0,4.42,4.11Z" transform="translate(-0.92 0)"/>
    <path class="cls-6" d="M4.81,6.68c-.58.72-1.17,1.44-1.76,2.15a5.82,5.82,0,0,0-1.42,1.94.39.39,0,0,0,.58.43C2.9,10.86,3.38,10,3.85,9.39S4.94,8,5.47,7.3C5.82,6.85,5.19,6.22,4.81,6.68Z" transform="translate(-0.92 0)"/>
    <path class="cls-6" d="M9.32,3.85a.45.45,0,0,0-.63,0l-.39.47A1.06,1.06,0,0,0,8,4.87a.4.4,0,0,0,.5.48c.38-.11.63-.57.86-.87A.44.44,0,0,0,9.32,3.85Z" transform="translate(-0.92 0)"/>
    <path class="cls-6" d="M10.68,3.74c-2.82,3.34-5.83,6.47-8.86,9.62a.49.49,0,0,0,.71.67,111.79,111.79,0,0,0,8.65-9.8C11.46,3.88,11,3.4,10.68,3.74Z" transform="translate(-0.92 0)"/>
    <path class="cls-6" d="M12.93,3.9C11.68,5.5,10.4,7.06,9.06,8.57s-2.61,2.64-3.69,4.11c-.22.3.24.73.52.5,2.93-2.34,5.28-5.83,7.52-8.82C13.65,4,13.19,3.57,12.93,3.9Z" transform="translate(-0.92 0)"/>
    <path class="cls-6" d="M3.15,15.16c-.3.3-.6.6-.89.91a4.71,4.71,0,0,0-.77,1c-.17.33.23.82.57.55a8.09,8.09,0,0,0,.84-.91c.28-.31.57-.62.87-.91S3.55,14.78,3.15,15.16Z" transform="translate(-0.92 0)"/>
    <path class="cls-6" d="M15.88,3.57c-2.76,3.22-5.68,6.32-8.36,9.6-.37.45.25,1.07.66.64,2.91-3.08,5.55-6.46,8.21-9.75C16.68,3.71,16.18,3.21,15.88,3.57Z" transform="translate(-0.92 0)"/>
    <path class="cls-6" d="M18.12,3.78c-2.48,3-5.08,6-7.45,9.08-.34.45.26,1.06.65.62,2.56-3,4.93-6.1,7.38-9.15C19,3.93,18.45,3.39,18.12,3.78Z" transform="translate(-0.92 0)"/>
    <path class="cls-6" d="M20.2,4c-1.27,1.52-2.54,3.05-3.79,4.59a29,29,0,0,0-3.26,4.3.34.34,0,0,0,.54.39,35.45,35.45,0,0,0,3.55-4.35C18.4,7.46,19.57,6,20.75,4.54,21.06,4.16,20.52,3.63,20.2,4Z" transform="translate(-0.92 0)"/>
    <path class="cls-6" d="M22.49,4c-2.13,2.83-4.83,5.66-6.47,8.8a.38.38,0,0,0,.61.45c2.52-2.5,4.41-5.92,6.48-8.8C23.36,4.08,22.76,3.63,22.49,4Z" transform="translate(-0.92 0)"/>
    <path class="cls-6" d="M23.48,5.19c-1.85,2.58-3.92,5.12-5.56,7.85-.28.46.42,1,.78.57,2-2.51,3.71-5.35,5.53-8C24.54,5.14,23.8,4.75,23.48,5.19Z" transform="translate(-0.92 0)"/>
    <path class="cls-6" d="M23.93,7.74c-.66.85-1.31,1.72-1.94,2.6A17.44,17.44,0,0,0,20.2,13h0a.43.43,0,0,0,.26.63h.09a.53.53,0,0,0,.55-.25c1.16-1.67,2.25-3.39,3.46-5C24.92,7.9,24.28,7.28,23.93,7.74Z" transform="translate(-0.92 0)"/>
    <path class="cls-6" d="M28,3.87a.35.35,0,0,0-.48.14c-.23.32-.56.57-.77.91s.18.52.44.41a2.88,2.88,0,0,0,1-1A.35.35,0,0,0,28,3.87Z" transform="translate(-0.92 0)"/>
    <path class="cls-6" d="M28.92,4.41C26.86,7.25,24.71,10,22.78,13c-.29.44.42,1,.74.55,2.14-2.83,4.07-5.82,6.08-8.74C29.89,4.37,29.21,4,28.92,4.41Z" transform="translate(-0.92 0)"/>
    <path class="cls-6" d="M30,5.26c-1.53,2.39-3.3,4.67-4.71,7.13-.24.41.38.9.7.51a68.17,68.17,0,0,0,4.68-7.27C30.92,5.21,30.26,4.85,30,5.26Z" transform="translate(-0.92 0)"/>
    <path class="cls-6" d="M30.23,8.32A31.62,31.62,0,0,0,27.4,13.1c-.14.37.42.63.65.36a14.83,14.83,0,0,0,1.43-2.23L31,8.73C31.26,8.26,30.51,7.85,30.23,8.32Z" transform="translate(-0.92 0)"/>
    <path class="cls-6" d="M30.4,11.71c-.46.61-.91,1.23-1.34,1.86a9,9,0,0,0-1.16,2c-.12.38.4.62.66.36a11,11,0,0,0,1.11-1.67c.43-.66.87-1.3,1.33-1.93C31.32,11.87,30.72,11.28,30.4,11.71Z" transform="translate(-0.92 0)"/>
    <path class="cls-6" d="M30.27,14.87a12,12,0,0,1-.95,1.48c-.26.35.19.82.5.48A8.83,8.83,0,0,0,31,15.24.39.39,0,0,0,30.27,14.87Z" transform="translate(-0.92 0)"/>
    <path class="cls-6" d="M3.34,17.92a13.51,13.51,0,0,0-1.49,2.2.34.34,0,0,0,.55.4,13.82,13.82,0,0,0,1.65-2.21C4.35,17.89,3.64,17.5,3.34,17.92Z" transform="translate(-0.92 0)"/>
    <path class="cls-6" d="M3.55,20.52c-.27.48-.55,1-.85,1.42a7.25,7.25,0,0,0-.79,1.34c-.13.36.37.54.61.33a4.94,4.94,0,0,0,.88-1.28c.28-.48.53-1,.78-1.46S3.77,20.11,3.55,20.52Z" transform="translate(-0.92 0)"/>
    <path class="cls-6" d="M3.49,23.47a10.07,10.07,0,0,0-1.42,2.37c-.11.36.34.53.58.32a4.52,4.52,0,0,0,.8-1.08l.78-1.2C4.52,23.42,3.78,23,3.49,23.47Z" transform="translate(-0.92 0)"/>
    <path class="cls-6" d="M3.2,26.71a11.21,11.21,0,0,0-1.34,2.22c-.12.34.35.54.58.32a5.66,5.66,0,0,0,.73-1l.72-1.12C4.16,26.66,3.47,26.29,3.2,26.71Z" transform="translate(-0.92 0)"/>
    <path class="cls-6" d="M3.61,29q-.45.58-.9,1.2A3.77,3.77,0,0,0,2,31.5c-.06.27.27.58.52.38a4.16,4.16,0,0,0,.84-1c.28-.42.58-.83.89-1.23S4,28.55,3.61,29Z" transform="translate(-0.92 0)"/>
    <path class="cls-6" d="M4.16,32a.46.46,0,0,0-.61.17,6,6,0,0,0-1.12,1.77.34.34,0,0,0,.51.37,6.8,6.8,0,0,0,1.4-1.7A.46.46,0,0,0,4.16,32Z" transform="translate(-0.92 0)"/>
    <path class="cls-6" d="M5,32.91a7.07,7.07,0,0,0-.87,1.57.37.37,0,0,0,.63.34,7.47,7.47,0,0,0,1-1.51C6,32.85,5.31,32.44,5,32.91Z" transform="translate(-0.92 0)"/>
    <path class="cls-6" d="M7.19,33c-.36.58-.83,1.12-1.16,1.72a.39.39,0,0,0,.62.46,8.39,8.39,0,0,0,1.28-1.78C8.21,32.92,7.48,32.52,7.19,33Z" transform="translate(-0.92 0)"/>
    <path class="cls-6" d="M9.38,32.91a10.66,10.66,0,0,0-.71,1,1.86,1.86,0,0,0-.44,1,.33.33,0,0,0,.5.27,2.19,2.19,0,0,0,.58-.82,8,8,0,0,1,.64-.89C10.26,33.07,9.71,32.53,9.38,32.91Z" transform="translate(-0.92 0)"/>
    <path class="cls-6" d="M11.54,33.23a4.44,4.44,0,0,0-1.2,1.71.37.37,0,0,0,.62.35c.22-.24.36-.52.55-.77a7.38,7.38,0,0,1,.63-.72C12.52,33.42,11.92,32.85,11.54,33.23Z" transform="translate(-0.92 0)"/>
    <path class="cls-6" d="M13.35,33.24l-.51.73a2.84,2.84,0,0,0-.44.75.35.35,0,0,0,.52.38,2.78,2.78,0,0,0,.57-.71l.53-.78C14.3,33.2,13.63,32.84,13.35,33.24Z" transform="translate(-0.92 0)"/>
    <path class="cls-6" d="M15.2,33.24a12.23,12.23,0,0,0-.93,1.55c-.14.36.3.78.59.44a10.47,10.47,0,0,0,1-1.61C16.16,33.19,15.47,32.81,15.2,33.24Z" transform="translate(-0.92 0)"/>
    <path class="cls-6" d="M17.05,33.32c-.22.48-.5.93-.75,1.4s.3.73.57.42a6.2,6.2,0,0,0,.85-1.45C17.91,33.24,17.25,32.86,17.05,33.32Z" transform="translate(-0.92 0)"/>
    <path class="cls-7" d="M20.64,20.13,18.69,23a19.17,19.17,0,0,0-1.87,2.85.33.33,0,0,0,.52.38,18.86,18.86,0,0,0,1.88-2.7c.67-1,1.34-2,2-3C21.46,20.09,20.88,19.78,20.64,20.13Z" transform="translate(-0.92 0)"/>
    <path class="cls-7" d="M23.25,18.68c-2.35,3.39-4.92,6.7-7,10.23-.2.34.32.74.57.42,2.52-3.29,4.69-6.91,7-10.36C24,18.65,23.46,18.37,23.25,18.68Z" transform="translate(-0.92 0)"/>
    <path class="cls-7" d="M25.33,18l-.67,1a3.57,3.57,0,0,0-.56,1,.33.33,0,0,0,.55.31,3.51,3.51,0,0,0,.69-.94l.66-1C26.26,18,25.6,17.6,25.33,18Z" transform="translate(-0.92 0)"/>
    <path class="cls-7" d="M27.47,17.8c-.2.36-.41.71-.64,1.06a2.11,2.11,0,0,0-.52,1,.29.29,0,0,0,.36.27c.37-.13.56-.51.77-.82s.46-.74.67-1.12A.37.37,0,0,0,27.47,17.8Z" transform="translate(-0.92 0)"/>
    <path class="cls-7" d="M29.69,17.62a11.3,11.3,0,0,1-.59,1c-.22.33-.49.63-.67,1A.37.37,0,0,0,29,20,6.28,6.28,0,0,0,30.35,18C30.56,17.55,29.91,17.18,29.69,17.62Z" transform="translate(-0.92 0)"/>
    <path class="cls-7" d="M31.57,18.1c-.34.69-.81,1.31-1.17,2a.34.34,0,0,0,.54.4,8.1,8.1,0,0,0,1.25-2C32.38,18,31.77,17.69,31.57,18.1Z" transform="translate(-0.92 0)"/>
    <path class="cls-7" d="M33.18,18.94,32.43,20a2.38,2.38,0,0,0-.53,1c0,.25.28.34.46.25.35-.17.55-.6.77-.92s.48-.73.73-1.09S33.46,18.53,33.18,18.94Z" transform="translate(-0.92 0)"/>
    <path class="cls-7" d="M34.42,20l-.65,1a4.17,4.17,0,0,0-.55,1c-.11.37.35.55.6.33a4.12,4.12,0,0,0,.66-.93l.63-1C35.39,20,34.69,19.6,34.42,20Z" transform="translate(-0.92 0)"/>
    <path class="cls-7" d="M35.86,21.24a9.4,9.4,0,0,0-1.34,1.87c-.1.21.14.55.37.36a9.19,9.19,0,0,0,1.45-1.77C36.6,21.36,36.12,20.9,35.86,21.24Z" transform="translate(-0.92 0)"/>
    <path class="cls-7" d="M36.7,22.68c-.38.53-.83,1-1.23,1.52-.21.26.1.75.41.5A8,8,0,0,0,37.34,23C37.62,22.66,37,22.31,36.7,22.68Z" transform="translate(-0.92 0)"/>
    <path class="cls-7" d="M37.75,23.33c-.26.45-.53.91-.82,1.34A8.76,8.76,0,0,0,36.09,26a.28.28,0,0,0,.45.33,5,5,0,0,0,.94-1.24c.29-.48.57-1,.83-1.45A.32.32,0,0,0,37.75,23.33Z" transform="translate(-0.92 0)"/>
    <path class="cls-7" d="M38,25.66a15.61,15.61,0,0,0-1.61,2.65c-.1.26.28.42.44.25A15.64,15.64,0,0,0,38.55,26C38.78,25.61,38.21,25.3,38,25.66Z" transform="translate(-0.92 0)"/>
    <path class="cls-7" d="M38.67,27.7a61.69,61.69,0,0,0-3.91,5.22.3.3,0,0,0,.49.35,43.34,43.34,0,0,0,3.91-5.2C39.37,27.78,38.88,27.42,38.67,27.7Z" transform="translate(-0.92 0)"/>
    <path class="cls-7" d="M38.58,30.26q-1.94,2.22-3.92,4.4a39.7,39.7,0,0,0-3.57,4c-.17.24.19.59.43.4a28.8,28.8,0,0,0,3.65-3.91q1.95-2.22,3.84-4.48C39.25,30.38,38.83,30,38.58,30.26Z" transform="translate(-0.92 0)"/>
    <path class="cls-7" d="M31.79,35.59l-1.74,1.83a13.64,13.64,0,0,0-1.59,1.73c-.19.28.22.68.49.47a14.47,14.47,0,0,0,1.62-1.7l1.72-1.85C32.59,35.74,32.1,35.26,31.79,35.59Z" transform="translate(-0.92 0)"/>
    <path class="cls-7" d="M28.84,36.84A15.83,15.83,0,0,0,27.57,38a4.59,4.59,0,0,0-1,1.31c-.11.27.17.68.47.45a9.93,9.93,0,0,0,1.11-1.22,15.88,15.88,0,0,1,1.24-1.22C29.72,37,29.19,36.54,28.84,36.84Z" transform="translate(-0.92 0)"/>
    <path class="cls-7" d="M27,36.82,25.76,38a4.17,4.17,0,0,0-1.08,1.14c-.11.23.1.62.4.49a4.45,4.45,0,0,0,1.19-1l1.24-1.22C27.86,37,27.32,36.49,27,36.82Z" transform="translate(-0.92 0)"/>
    <path class="cls-7" d="M25.12,36.69c-.58.51-1.24.94-1.79,1.48-.28.27.1.71.42.52a11.83,11.83,0,0,0,1.86-1.53C25.94,36.87,25.45,36.4,25.12,36.69Z" transform="translate(-0.92 0)"/>
    <path class="cls-7" d="M23.58,36.47a16.53,16.53,0,0,0-1.31,1.34.31.31,0,0,0,.45.42,18.24,18.24,0,0,0,1.34-1.3C24.36,36.62,23.88,36.17,23.58,36.47Z" transform="translate(-0.92 0)"/>
    <path class="cls-7" d="M22.82,35.67a.35.35,0,0,0-.5,0A5.73,5.73,0,0,0,21,37c-.16.27.19.62.45.44a6.66,6.66,0,0,0,.67-.63l.69-.62A.35.35,0,0,0,22.82,35.67Z" transform="translate(-0.92 0)"/>
    <path class="cls-7" d="M21.29,34.57c-.26.32-.53.63-.79.94a5.47,5.47,0,0,0-.71,1c-.14.29.19.69.49.47a5.07,5.07,0,0,0,.8-.87c.26-.32.51-.64.77-1S21.61,34.19,21.29,34.57Z" transform="translate(-0.92 0)"/>
    <path class="cls-7" d="M20.33,33.77c-.37.46-.83.83-1.2,1.29a.36.36,0,0,0,.45.55,5.81,5.81,0,0,0,1.33-1.29C21.24,33.93,20.66,33.38,20.33,33.77Z" transform="translate(-0.92 0)"/>
    <path class="cls-7" d="M19.57,32.7A5.47,5.47,0,0,0,18.37,34c-.18.3.21.7.5.48.46-.35.83-.81,1.27-1.19S20,32.37,19.57,32.7Z" transform="translate(-0.92 0)"/>
    <path class="cls-7" d="M18.72,31.53a13.93,13.93,0,0,0-1.06,1.12.35.35,0,0,0,0,.45.34.34,0,0,0,.44.08,15.76,15.76,0,0,0,1.19-1.11A.39.39,0,0,0,18.72,31.53Z" transform="translate(-0.92 0)"/>
    <path class="cls-7" d="M18.5,28.05a6.75,6.75,0,0,0-1.62,1.71.38.38,0,0,0,.6.44c.27-.26.48-.58.73-.86s.53-.54.8-.8S18.84,27.76,18.5,28.05Z" transform="translate(-0.92 0)"/>
    <path class="cls-7" d="M18.59,29.85q-.36.42-.75.81c-.24.24-.6.45-.76.76a.34.34,0,0,0,.4.49,2.43,2.43,0,0,0,.86-.71,9.1,9.1,0,0,0,.76-.87C19.37,30,18.88,29.5,18.59,29.85Z" transform="translate(-0.92 0)"/>
    <path class="cls-3" d="M23.46,20.91A60.17,60.17,0,0,0,19.11,28a.39.39,0,0,0,.69.38C21.3,26,22.55,23.55,24,21.22,24.23,20.87,23.68,20.58,23.46,20.91Z" transform="translate(-0.92 0)"/>
    <path class="cls-3" d="M25.51,20.22,22,25.91c-.73,1.2-2.1,2.66-2.21,4.09,0,.34.54.49.67.17A35.76,35.76,0,0,1,23,25.62l3-5.14C26.16,20.18,25.69,19.92,25.51,20.22Z" transform="translate(-0.92 0)"/>
    <path class="cls-3" d="M27,20.16c-2.36,3.81-5.24,7.69-7,11.8-.17.37.32.83.62.45,2.78-3.57,4.83-7.95,7.08-11.88C27.89,20.1,27.22,19.74,27,20.16Z" transform="translate(-0.92 0)"/>
    <path class="cls-3" d="M28.8,20.33C26.15,24.7,23.37,29,21,33.54a.43.43,0,0,0,.75.42c2.73-4.32,5.15-8.87,7.67-13.32A.32.32,0,0,0,28.8,20.33Z" transform="translate(-0.92 0)"/>
    <path class="cls-3" d="M30.3,20.68c-2.65,4.62-5.88,9.18-8,14-.16.34.31.78.58.42,3.22-4.24,5.58-9.42,8.08-14.12A.35.35,0,0,0,30.3,20.68Z" transform="translate(-0.92 0)"/>
    <path class="cls-3" d="M31.88,21.54c-1.39,2.38-2.8,4.75-4.18,7.14a56.9,56.9,0,0,0-4,7.25c-.12.32.28.72.54.39,3.31-4.29,5.6-9.72,8.22-14.47A.33.33,0,0,0,31.88,21.54Z" transform="translate(-0.92 0)"/>
    <path class="cls-3" d="M33.61,22.55c-2.65,4.67-5.49,9.22-8.3,13.79-.29.47.47.9.75.42,3-4.47,5.59-9.18,8.09-13.91A.31.31,0,0,0,33.61,22.55Z" transform="translate(-0.92 0)"/>
    <path class="cls-3" d="M34.41,23.79a99.58,99.58,0,0,1-7.15,12.12c-.26.38.37.85.64.48A70.66,70.66,0,0,0,35,24.1C35.13,23.73,34.59,23.42,34.41,23.79Z" transform="translate(-0.92 0)"/>
    <path class="cls-3" d="M35.45,25.48c-1.9,3.4-4.38,6.64-6,10.15-.14.31.26.67.51.38,2.51-2.94,4.25-6.82,6-10.23A.3.3,0,0,0,35.45,25.48Z" transform="translate(-0.92 0)"/>
    <path class="cls-3" d="M36.15,27.32c-1.47,2.59-3.33,5.11-4.59,7.8-.17.36.31.79.59.44a49.13,49.13,0,0,0,4.53-8A.3.3,0,0,0,36.15,27.32Z" transform="translate(-0.92 0)"/>
    <path class="cls-3" d="M5.91,13.9c-.43.76-.86,1.51-1.3,2.26a4.93,4.93,0,0,0-.89,1.95.36.36,0,0,0,.63.24,9.93,9.93,0,0,0,1.12-1.88l1.18-2.15A.43.43,0,0,0,5.91,13.9Z" transform="translate(-0.92 0)"/>
    <path class="cls-3" d="M8.07,14c-1.47,2-3.3,4.32-4,6.74-.1.33.39.62.61.33a29.49,29.49,0,0,0,1.87-3.23c.68-1.19,1.42-2.35,2.19-3.49C9,13.93,8.33,13.61,8.07,14Z" transform="translate(-0.92 0)"/>
    <path class="cls-3" d="M10.19,14.19a67.81,67.81,0,0,0-6,9.85.35.35,0,0,0,.61.34c2.07-3.22,3.79-6.67,5.88-9.9C10.92,14.16,10.4,13.88,10.19,14.19Z" transform="translate(-0.92 0)"/>
    <path class="cls-3" d="M11.93,14.27C9.31,18.89,6.5,23.39,3.8,28c-.25.42.39.76.65.36,2.89-4.44,5.48-9.09,8-13.74A.31.31,0,0,0,11.93,14.27Z" transform="translate(-0.92 0)"/>
    <path class="cls-3" d="M13.8,14.06q-2.58,4.53-5.17,9.06C7.21,25.61,5.34,28,4.12,30.58c-.2.43.43.78.64.36,1.26-2.58,3.09-5,4.5-7.47l5.09-9.11A.31.31,0,0,0,13.8,14.06Z" transform="translate(-0.92 0)"/>
    <path class="cls-3" d="M15.41,14.11A199.8,199.8,0,0,1,5.54,31.73c-.27.44.41.8.7.38A118.27,118.27,0,0,0,16,14.42C16.14,14.05,15.59,13.74,15.41,14.11Z" transform="translate(-0.92 0)"/>
    <path class="cls-3" d="M17.15,14.07c-3,6-6.39,11.89-9.62,17.82a.39.39,0,0,0,.69.38A191,191,0,0,0,17.7,14.38C17.87,14,17.33,13.71,17.15,14.07Z" transform="translate(-0.92 0)"/>
    <path class="cls-3" d="M18.79,14.26c-3,5.91-6.45,11.77-9.07,17.87a.36.36,0,0,0,.64.35c3.36-5.73,6.07-11.94,9-17.89C19.57,14.2,19,13.88,18.79,14.26Z" transform="translate(-0.92 0)"/>
    <path class="cls-3" d="M20.89,13.89Q16,23,11.37,32.14c-.23.47.49.88.72.4q4.62-9.19,9.34-18.35A.31.31,0,0,0,20.89,13.89Z" transform="translate(-0.92 0)"/>
    <path class="cls-3" d="M22.82,13.89c-.62,1.14-1.25,2.27-1.91,3.4a20.05,20.05,0,0,0-1.7,3c-.11.31.34.52.54.3a16.08,16.08,0,0,0,1.82-3c.62-1.14,1.23-2.28,1.83-3.43A.33.33,0,0,0,22.82,13.89Z" transform="translate(-0.92 0)"/>
    <path class="cls-3" d="M24.87,13.56q-.71,1.23-1.44,2.43A20.82,20.82,0,0,0,22,18.41c-.14.33.27.69.54.39a24.6,24.6,0,0,0,2.93-4.92A.32.32,0,0,0,24.87,13.56Z" transform="translate(-0.92 0)"/>
    <path class="cls-3" d="M26.32,13.71c-.41.6-.8,1.21-1.16,1.84a6.33,6.33,0,0,0-.84,1.81c-.05.3.34.6.57.32a11.42,11.42,0,0,0,.94-1.76c.35-.64.72-1.25,1.12-1.86C27.21,13.67,26.58,13.33,26.32,13.71Z" transform="translate(-0.92 0)"/>
    <path class="cls-3" d="M27.52,14c-.25.48-.51,1-.79,1.41a11.15,11.15,0,0,0-.82,1.38.35.35,0,0,0,.56.41,10.63,10.63,0,0,0,1.69-2.85C28.36,13.94,27.74,13.59,27.52,14Z" transform="translate(-0.92 0)"/>
    <path class="cls-3" d="M16.75,25.4c-1.1,2.21-2.61,4.33-3.57,6.59-.11.28.24.62.46.34a32.94,32.94,0,0,0,3.59-6.67C17.38,25.34,16.91,25.08,16.75,25.4Z" transform="translate(-0.92 0)"/>
    <path class="cls-3" d="M16.07,29.28a23.49,23.49,0,0,0-1.65,3c-.12.3.37.56.56.3a25.33,25.33,0,0,0,1.68-3A.34.34,0,0,0,16.07,29.28Z" transform="translate(-0.92 0)"/>
    <path class="cls-3" d="M16.24,31.14a7.37,7.37,0,0,0-.64,1.25.32.32,0,0,0,.54.3,7,7,0,0,0,.71-1.21A.35.35,0,0,0,16.24,31.14Z" transform="translate(-0.92 0)"/>
    <path class="cls-5" d="M6.85,1,6.1,2.1a4.49,4.49,0,0,0-.63,1.08c-.07.24.25.38.42.22a4.92,4.92,0,0,0,.7-1c.23-.39.47-.77.71-1.16S7,.68,6.85,1Z" transform="translate(-0.92 0)"/>
    <path class="cls-5" d="M7.11,2.27c-.26.48-.53,1-.82,1.42A6.77,6.77,0,0,0,5.52,5c-.1.26.26.37.42.23A4.91,4.91,0,0,0,6.83,4c.28-.47.55-.94.8-1.43A.3.3,0,0,0,7.11,2.27Z" transform="translate(-0.92 0)"/>
    <path class="cls-5" d="M7.22,3.88A15.08,15.08,0,0,0,5.74,6.3c-.1.25.19.54.41.3A14.81,14.81,0,0,0,7.72,4.15C7.92,3.84,7.42,3.57,7.22,3.88Z" transform="translate(-0.92 0)"/>
    <path class="cls-5" d="M7.3,5.46C7,6,6.61,6.5,6.25,7c-.2.28.24.57.46.34A7.25,7.25,0,0,0,7.83,5.75C8,5.41,7.5,5.13,7.3,5.46Z" transform="translate(-0.92 0)"/>
    <path class="cls-5" d="M25,1.39A6.28,6.28,0,0,0,23.91,2.8c-.13.27.23.57.44.32.38-.43.69-.91,1.09-1.33C25.7,1.53,25.28,1.13,25,1.39Z" transform="translate(-0.92 0)"/>
    <path class="cls-5" d="M25.79,2a25.46,25.46,0,0,0-1.55,2c-.16.24.21.5.41.29a24.5,24.5,0,0,0,1.56-1.94C26.43,2.07,26,1.67,25.79,2Z" transform="translate(-0.92 0)"/>
    <path class="cls-5" d="M26,3.35c-.25.37-.51.74-.79,1.09a4.36,4.36,0,0,0-.71.95.26.26,0,0,0,.36.34,3.48,3.48,0,0,0,.88-1c.27-.36.53-.73.78-1.1S26.16,3,26,3.35Z" transform="translate(-0.92 0)"/>
    <path class="cls-5" d="M26,5.07c-.5.59-1,1.16-1.48,1.78-.21.29.26.6.49.36.52-.52,1-1.12,1.45-1.69C26.76,5.21,26.3,4.76,26,5.07Z" transform="translate(-0.92 0)"/>
    <path class="cls-5" d="M3.7,35.74A9.52,9.52,0,0,0,3,36.89c-.11.27.23.58.45.32A10.47,10.47,0,0,0,4.23,36C4.44,35.7,3.91,35.41,3.7,35.74Z" transform="translate(-0.92 0)"/>
    <path class="cls-5" d="M5.38,35.61,4.14,37.26c-.24.32.22.77.46.44L5.83,36C6.07,35.73,5.62,35.29,5.38,35.61Z" transform="translate(-0.92 0)"/>
    <path class="cls-5" d="M6.79,35.68c-.2.31-.4.62-.61.92a3.55,3.55,0,0,0-.56.88.28.28,0,0,0,.41.3A3.06,3.06,0,0,0,6.68,37c.22-.32.43-.65.64-1S7,35.36,6.79,35.68Z" transform="translate(-0.92 0)"/>
    <path class="cls-5" d="M8.07,35.79l-.56.83a2.25,2.25,0,0,0-.47.82.27.27,0,0,0,.4.29A2.17,2.17,0,0,0,8,37l.59-.89C8.83,35.75,8.29,35.46,8.07,35.79Z" transform="translate(-0.92 0)"/>
    <path class="cls-5" d="M9.48,35.69c-.2.28-.38.57-.55.86a2.81,2.81,0,0,0-.44.86.27.27,0,0,0,.45.26,3.92,3.92,0,0,0,.52-.82c.17-.3.35-.59.53-.87S9.69,35.38,9.48,35.69Z" transform="translate(-0.92 0)"/>
    <path class="cls-5" d="M10.85,35.73l-.53.79a1.52,1.52,0,0,0-.38.76c0,.22.24.29.39.22s.4-.44.55-.67L11.4,36C11.62,35.7,11.07,35.4,10.85,35.73Z" transform="translate(-0.92 0)"/>
    <path class="cls-5" d="M12,35.74c-.11.21-.23.41-.36.61a6,6,0,0,0-.4.58.29.29,0,0,0,.47.34A5.08,5.08,0,0,0,12.52,36,.3.3,0,0,0,12,35.74Z" transform="translate(-0.92 0)"/>
    <path class="cls-5" d="M13.16,35.43c-.14.26-.3.52-.44.79a2.48,2.48,0,0,0-.39.78.28.28,0,0,0,.48.26,2.79,2.79,0,0,0,.46-.74l.43-.8A.31.31,0,0,0,13.16,35.43Z" transform="translate(-0.92 0)"/>
    <path class="cls-5" d="M14.46,35.43c-.24.5-.58,1-.77,1.48-.11.28.32.49.5.28a5.94,5.94,0,0,0,.8-1.46C15.16,35.37,14.62,35.07,14.46,35.43Z" transform="translate(-0.92 0)"/>
    <path class="cls-5" d="M15.83,35.73c-.12.21-.23.43-.34.65a1.13,1.13,0,0,0-.24.65.27.27,0,0,0,.4.22c.21-.12.28-.36.39-.57l.34-.65C16.56,35.67,16,35.37,15.83,35.73Z" transform="translate(-0.92 0)"/>
    <path class="cls-5" d="M17.28,35.68a4.09,4.09,0,0,0-.62,1.07.29.29,0,0,0,.49.26,1.94,1.94,0,0,0,.36-.49c.1-.18.21-.36.32-.54C18,35.64,17.5,35.35,17.28,35.68Z" transform="translate(-0.92 0)"/>
    <path class="cls-5" d="M18.23,36c-.09.18-.19.35-.29.53a.27.27,0,0,0,.47.26l.33-.5C19,36,18.41,35.67,18.23,36Z" transform="translate(-0.92 0)"/>
    <path class="cls-8" d="M31.46,7.23A4.55,4.55,0,0,0,30,3.58a2.78,2.78,0,0,0-2.77-.45,5.89,5.89,0,0,0-.16-2,1.3,1.3,0,0,0-.52-.66A.44.44,0,0,0,26,0c-.83.09-2.18-.07-2.55.89a5.74,5.74,0,0,0-.14,2.41,89,89,0,0,0-15-.19h0C8.26,2.29,8.2,1.43,8.13.57A.59.59,0,0,0,7.24.09L7.15.14H7.08C5.4,0,4.83.78,5,2.33A8.23,8.23,0,0,1,5,3.44a3.79,3.79,0,0,0-2.88.32C1,4.52,1.22,6,1.16,7.18,1,11,.9,14.88.93,18.73s.15,7.71.37,11.56a16.55,16.55,0,0,0,.29,3.57c0,.58.12,1.15.2,1.71a2.69,2.69,0,0,0,2,2.37c1.5.43,3.24,0,4.75-.12q3.11-.28,6.22-.39c1.73-.07,3.45-.09,5.18-.08A12.66,12.66,0,0,0,26,39.89a11.26,11.26,0,0,0,7.27-1.56,9.59,9.59,0,0,0,3-2.14,16.52,16.52,0,0,0,2.16-3.55A11.28,11.28,0,0,0,39,25.05a11.07,11.07,0,0,0-4.5-6.17,12.89,12.89,0,0,0-3.34-1.59c.12-3.35.36-6.73.27-10.06ZM32,23a.59.59,0,0,1,.85.82A58.21,58.21,0,0,1,28.6,28a1.59,1.59,0,0,1,.62.59.52.52,0,0,1,0,.62v.05a.64.64,0,0,1-.49.61.6.6,0,0,1-.77,0l-.51-.41c-.62,1.94-1.27,3.88-2,5.77-.14.35-.72.11-.61-.24.52-1.68,1.08-3.33,1.64-5h0c-.56.5-1.4-.29-.85-.81l.72-.69-1.12-.93c-.63-.53-1.61-1-1.72-1.9a.6.6,0,0,1,.29-.54c.8-.47,1.42.21,2,.75l.46.41,1.19.86c.08-.23.15-.46.23-.69a.37.37,0,0,1,.72,0c1.2-1.2,2.39-2.39,3.64-3.54Zm2.3-.91a8.72,8.72,0,0,1,2.53,5.76,9.13,9.13,0,0,1-6,8.9c-3.59,1.33-8.55.35-10.59-3.11h0a9,9,0,0,1-1.16-8.76,8.61,8.61,0,0,1,9.59-5.43A9.35,9.35,0,0,1,34.28,22ZM33.15,34.19A8.91,8.91,0,0,1,24,35.71a.33.33,0,0,0-.16-.17,8.38,8.38,0,0,1-3-11.66,7.5,7.5,0,0,1,4.87-3.38,9.5,9.5,0,0,1,7.17,1.81,7.93,7.93,0,0,1,2.77,6.44,7.75,7.75,0,0,1-2.55,5.44ZM14.82,25.54a.58.58,0,0,1,0,1.15l-3.38,0a12.17,12.17,0,0,1-2.56,0c-1.22-.26-.78-1.94-.34-2.74.92-1.71,2.82-1.91,4.23-3C16.5,18.1,7.89,16.61,9,20a.42.42,0,0,1-.81.25c-1.19-3.2,3.76-4,5.62-2.42A2.43,2.43,0,0,1,14.36,21c-.56.82-1.75,1.2-2.6,1.66-1,.56-2.76,1.51-2.52,2.94a20,20,0,0,0,2.69-.05l2.89,0Zm4,10.69c-1.37,0-2.74,0-4.1.08-3,.11-6,.46-9,.65a4,4,0,0,1-1.95-.2,1.66,1.66,0,0,1-.89-1.26,4.87,4.87,0,0,0,1.62.26c3.77.12,7.54.17,11.31.21.93,0,1.86,0,2.8,0a1.84,1.84,0,0,0,.17.22Zm-1-1.48c-2.84,0-5.68-.1-8.51-.16-1.5,0-3-.05-4.52-.1-.86,0-1.56,0-1.91-.92a7.72,7.72,0,0,1-.21-2.31c-.18-2.84-.3-5.69-.37-8.53-.09-3.36-.09-6.71,0-10.06,0-1.67.09-3.34.15-5a10.46,10.46,0,0,1,.12-2.24c.31-1.08,1.32-1,2.22-.84h.18c0,.46,0,.93-.06,1.4a2.54,2.54,0,0,0,.61,1.85A1.71,1.71,0,0,0,8.3,7.09a6.16,6.16,0,0,0,.1-2.77V4.25a126.33,126.33,0,0,1,14.3.18.53.53,0,0,0,.6.11l.12-.06c0,.09,0,.18,0,.27,0,.89-.22,2.61.64,3.26s2.06-.08,2.8-.25a.58.58,0,0,0,.41-.57l-.06-2.68a.69.69,0,0,0,.25-.09c1.44-.9,2.5.9,2.66,2.09a27.54,27.54,0,0,1-.07,4.54C30,13,29.93,15,29.89,17H29.8c-.34-.06-.69-.11-1-.14V16c0-1.12.4-2.91-.92-3.39a.48.48,0,0,0-.58.12c-3.78.28-7.57.48-11.36.54-1.93,0-3.87,0-5.81,0a36.72,36.72,0,0,0-5.44-.17A1.7,1.7,0,0,0,3,14.79a53.59,53.59,0,0,0,.13,5.94q.15,5.85.31,11.7a.66.66,0,0,0,.67.64q6.39.47,12.8.59h.27a11.29,11.29,0,0,0,.57,1.09Zm9.74-18a5.39,5.39,0,0,0-.91.11.56.56,0,0,0-.27.12,13.3,13.3,0,0,0-2.69.6,1.72,1.72,0,0,0-1.78-.3,5,5,0,0,0-4.08.89A2.82,2.82,0,0,0,17,21.46a2.11,2.11,0,0,0,.76.92,12,12,0,0,0-1,10q-6-.12-11.93-.52l-.24-9.59c0-1.69-.1-3.39-.14-5.08,0-.81-.4-2.39.61-2.77a8.51,8.51,0,0,1,2.35.09,147.2,147.2,0,0,0,20-.64.44.44,0,0,0,.15.08,22.5,22.5,0,0,1,0,2.89Zm-5.6,1.58a10.73,10.73,0,0,0-3.49,2.95,1.43,1.43,0,0,1,.06-2.25,4.11,4.11,0,0,1,3.43-.7ZM37.85,31c-.65,2.05-2,4.49-3.89,5.62a12.58,12.58,0,0,1-6.37,2.26,11.77,11.77,0,0,1-6.46-2,10,10,0,0,1-3.72-5.79A11.61,11.61,0,0,1,18,24.14,10.33,10.33,0,0,1,26.6,18a.71.71,0,0,0,.36,0,10.77,10.77,0,0,1,6.39,1.41,9.85,9.85,0,0,1,4.19,4.69A10,10,0,0,1,37.85,31Zm-25-24.11A10.52,10.52,0,0,1,13,9.48c0,.58-.11,1.08-.7,1.33a2,2,0,0,1-1.76,0,1.7,1.7,0,0,1-.38-1.64c.1-.56,1-.45,1,.11a1.51,1.51,0,0,0,0,.56c.09.24,0,.13.26.14.53,0,.57-.21.6-.64a11.17,11.17,0,0,0-.09-2.31c-.07-.54.85-.68,1-.15Zm3.06,1.22c.06.8,0,1.61,0,2.42a.43.43,0,0,1-.86,0c-.53.18-1.14.33-1.52-.19s-.24-1.52-.23-2.18a.41.41,0,0,1,.82,0c0,.44,0,.88,0,1.32s.13.4.44.29l.43-.14c0-.51.06-1,0-1.52s.8-.56.84,0Zm2.92.94a5.79,5.79,0,0,1-.07,1.61.43.43,0,0,1-.85-.09A8.66,8.66,0,0,0,18,9c0-.3-.15-.4-.48-.29a.57.57,0,0,0-.32.31,6.65,6.65,0,0,1-.11,1.67.45.45,0,0,1-.88-.11c0-.78.08-1.57.07-2.36a.43.43,0,0,1,.8-.21,1.25,1.25,0,0,1,1.32,0,1.33,1.33,0,0,1,.49,1.12Zm2.47.78a.44.44,0,0,1,.26.85,2.7,2.7,0,0,1-1.53.21c-.41-.12-.61-.57-.75-.94a1.72,1.72,0,0,1-.11-.51.38.38,0,0,1,0-.33,1.37,1.37,0,0,1,.88-1.24c.73-.25,1.85.21,1.79,1.11a.74.74,0,0,1-.72.68,8.14,8.14,0,0,1-1,0,2.6,2.6,0,0,0,.13.24c.1.16.15.1.38.07a3.53,3.53,0,0,0,.66-.16Zm-.52-1.24A.36.36,0,0,1,21,8.8c.06.14,0,.06-.11.1a3.5,3.5,0,0,1-.65,0H20.1a.44.44,0,0,1,.1-.15.59.59,0,0,1,.61-.14ZM6,6.13a15.56,15.56,0,0,1,.13-2.87c0-1-.44-1.87.5-2A.46.46,0,0,0,7,1.38l.18,2.49c0,.47.07.94.1,1.41a7.42,7.42,0,0,1,0,.82C6.4,6.69,6,6.7,6,6.13Zm18.59.27a7.48,7.48,0,0,1-.07-2.17c0-.65,0-1.31,0-2,0-.48-.13-.61.27-.89a1.22,1.22,0,0,1,.35-.14.5.5,0,0,0,.72.21C26,1.36,26,2.86,26,2.86l0,1.45.06,2.45C25.55,6.92,24.92,7.06,24.63,6.4Z" transform="translate(-0.92 0)"/>
  </g>
</svg>
