<svg id="레이어_1" data-name="레이어 1" xmlns="http://www.w3.org/2000/svg" viewBox="0 0 25.82 40.05">
  <defs>
    <style>
      .cls-1 {
        fill: #918fa0;
      }

      .cls-2 {
        fill: #1f1f26;
      }

      .cls-3 {
        opacity: 0.2;
      }

      .cls-4 {
        fill: #a7a5b2;
      }

      .cls-5 {
        fill: #f7b07c;
      }

      .cls-6 {
        fill: #c9beb7;
      }

      .cls-7 {
        fill: #ffc490;
      }

      .cls-10, .cls-8 {
        fill: #bc551e;
      }

      .cls-8 {
        opacity: 0.3;
      }

      .cls-9 {
        fill: #1f1a17;
      }

      .cls-10 {
        opacity: 0.4;
      }

      .cls-11 {
        fill: #ffd1a7;
      }

      .cls-12 {
        fill: #a88888;
      }

      .cls-13 {
        fill: #fab27b;
      }

      .cls-14 {
        fill: #f5ae79;
      }

      .cls-15 {
        fill: #3d302a;
      }

      .cls-16 {
        fill: #8f322d;
      }

      .cls-17 {
        fill: #fff3e2;
      }

      .cls-18 {
        fill: #e8dac5;
      }

      .cls-19 {
        fill: #f0eae6;
      }
    </style>
  </defs>
  <title>1</title>
  <g>
    <path class="cls-1" d="M27.86,31.61c-1.53-3.52-11.06-3.9-13.9-.11-1.32,1.77-.87,5.43-.15,8.5H27.88C28.43,37.13,28.77,33.71,27.86,31.61Z" transform="translate(-6.95 0.05)"/>
    <path class="cls-2" d="M21.9,35.27l.66-1.4a1.73,1.73,0,0,0-2-.89A1.85,1.85,0,0,0,19,34.38l1.1,1.12-1.19,4,.31.46h3.86l.3-.65Z" transform="translate(-6.95 0.05)"/>
    <path class="cls-1" d="M14.52,34.8l.54-4.36s-5.23,2.48-5,9.56H13.2A12.07,12.07,0,0,1,14.52,34.8Z" transform="translate(-6.95 0.05)"/>
    <path class="cls-1" d="M26.72,30.44l.55,4.36A12,12,0,0,1,28.58,40h3.11C32,32.92,26.72,30.44,26.72,30.44Z" transform="translate(-6.95 0.05)"/>
    <path class="cls-3" d="M15.9,31.68a6.69,6.69,0,0,0,2.92,4l2.07-2.18,2.21,2.06c2.11-2,2.57-2.47,2.73-4.25S15.32,29.2,15.9,31.68Z" transform="translate(-6.95 0.05)"/>
    <path class="cls-4" d="M16,29.8c-1,2.89,2.71,5.24,2.71,5.24l2.22-1.53L23,35s4.11-2.35,2.56-5.72C24.13,26.19,17.15,26.44,16,29.8Z" transform="translate(-6.95 0.05)"/>
    <path class="cls-5" d="M19.23,26.34a3.22,3.22,0,0,0-2.37,3,2.5,2.5,0,0,0,.67,2.22,4.7,4.7,0,0,0,1.81,1.05c.51.15,1.39.75,1.55.75s.35-.25.83-.5a4.56,4.56,0,0,0,2.06-1.59c.56-1.1,1.06-3.29,0-4.15A6.18,6.18,0,0,0,19.23,26.34Z" transform="translate(-6.95 0.05)"/>
    <g>
      <path class="cls-6" d="M32.77,7.44a1.92,1.92,0,0,1-1.36.39A2.37,2.37,0,0,0,32.56,5.5C30.4,3.76,25.26.26,19.5,0,16-.21,12.28.71,10.33,3.91a7,7,0,0,0-.95,2.24A3.19,3.19,0,0,1,8.8,4.38a2.36,2.36,0,0,0,0,2.9A2.66,2.66,0,0,0,7,8.06a3.58,3.58,0,0,1,1.47.22,4.23,4.23,0,0,0-.57,2.44,20.59,20.59,0,0,0,.5,4.69c.39,1.48.93,5.11,3.16,4.65,3.07-.63,6.41-2.32,9.57-1.12,2.2.83,4.2,2.21,6.44,3,2,.74,3.93,2.67,4.48-.07a17.81,17.81,0,0,0,.18-6.47A15.63,15.63,0,0,0,30.68,10,3.08,3.08,0,0,0,32.77,7.44Z" transform="translate(-6.95 0.05)"/>
      <path class="cls-7" d="M20.14,5.22C14.32,5.61,9.32,12,9.79,19.14S15.09,31,21.86,31c7.5-.07,10.38-6.27,9.91-13.39S26,4.82,20.14,5.22Z" transform="translate(-6.95 0.05)"/>
      <path class="cls-8" d="M30.64,16.89c-.25-.13-2-.35-1.59.32a4.76,4.76,0,0,0,1.29.66c.32.06.38-.06.15-.28s-.82-.31-1-.6C29.78,17,30.51,17.29,30.64,16.89Z" transform="translate(-6.95 0.05)"/>
      <path class="cls-8" d="M15.34,18.16c.16.39.87,0,1.12,0-.12.3-.72.45-.92.67s-.14.36.18.27A4.69,4.69,0,0,0,17,18.35C17.34,17.65,15.58,18,15.34,18.16Z" transform="translate(-6.95 0.05)"/>
      <path class="cls-9" d="M18,16.06c-1.3-.57-2.13,1.74-1.25,2.51a1.85,1.85,0,0,1,1.29.12A1.59,1.59,0,0,0,18,16.06Z" transform="translate(-6.95 0.05)"/>
      <path class="cls-10" d="M23.49,19.29c-.73,0-1-.26-1.53,0s.2,1.41,1.49,1.32,1.87-1.16,1.59-1.46S24.3,19.25,23.49,19.29Z" transform="translate(-6.95 0.05)"/>
      <path class="cls-11" d="M22.84,15.37c-.66.05-1.1,1-1.18,2.2s-.05,1.78.27,2a2.56,2.56,0,0,0,3-.25C25.88,18.4,24.41,15.25,22.84,15.37Z" transform="translate(-6.95 0.05)"/>
      <path class="cls-9" d="M28.86,15.27c-1.39-.61-2.2,2.31-.71,2.55a1.69,1.69,0,0,1,1.11-.42A1.52,1.52,0,0,0,28.86,15.27Z" transform="translate(-6.95 0.05)"/>
      <path class="cls-12" d="M17.29,16.54c-.53.17-.13,1.21.38.83S17.76,16.38,17.29,16.54Z" transform="translate(-6.95 0.05)"/>
      <path class="cls-12" d="M28.23,15.81c-.5.16-.13,1.13.35.78S28.67,15.66,28.23,15.81Z" transform="translate(-6.95 0.05)"/>
      <path class="cls-7" d="M8.79,17.48c-2.88.72-1.83,4.36.49,5.06a6.22,6.22,0,0,0,2.31.19l.05-.06c.36-.48-.19-2.9-.36-3.4C10.87,18,10.17,17.13,8.79,17.48Z" transform="translate(-6.95 0.05)"/>
      <path class="cls-8" d="M17.66,8.61c-2.25.22-5.12,1.19-5.64,3.72a19.64,19.64,0,0,0-.49,3,4.89,4.89,0,0,0,0,.94,30.1,30.1,0,0,0,.86,3.65,19.69,19.69,0,0,1,2-8.4,44.82,44.82,0,0,0,12.75.42c1-.11,3.27-.35,2.12-1.83C28.49,9.13,20.84,8.29,17.66,8.61Z" transform="translate(-6.95 0.05)"/>
      <path class="cls-8" d="M10.31,18.84c-.74-.36-2.73-.12-2,1.1.63-1,1.39-.19,1.15.52-.16.48-.88.4-.26,1.12a1.7,1.7,0,0,0,1.56.22C12.1,21.37,11.2,19.27,10.31,18.84Z" transform="translate(-6.95 0.05)"/>
      <path class="cls-6" d="M26.43,4.81c-3.22-1.5-8.19-1.94-11.66-.18a7.18,7.18,0,0,0-2.7,2.31c-1.51,2.19-3.42,5.8-2.64,8.46.18.59.08,1.44.29,2,.52,1.47,1.32,7.21,2.57,7.24.47,0,1.82.32,1.59-.11-2-3.78-1.5-10.45.17-13.59,10.41,1.28,16.34-.17,16-2.52C29.72,6.85,27.81,5.45,26.43,4.81Z" transform="translate(-6.95 0.05)"/>
      <path class="cls-13" d="M18.55,19.67a2.77,2.77,0,0,0-2.52-.1c-1,.32-2.12,1.11-.82,2.24.69.6,4.69-.16,3.7-1.74A1.57,1.57,0,0,0,18.55,19.67Z" transform="translate(-6.95 0.05)"/>
      <path class="cls-13" d="M28.79,18.43a2,2,0,0,0-1.08.67c-.41.51-.4,1.17.47,1.59s2.66.49,3.1-.62C31.88,18.56,29.76,18.19,28.79,18.43Z" transform="translate(-6.95 0.05)"/>
      <path class="cls-14" d="M22.81,27.56a1.66,1.66,0,0,0-1.19,1.64c0-.13.45-.84,1.73-1a2.9,2.9,0,0,1,2.29.67C25.74,27.63,23.85,27.23,22.81,27.56Z" transform="translate(-6.95 0.05)"/>
      <path class="cls-15" d="M27.75,12.27c-.81.09-1.74.74-2.54.54a1.54,1.54,0,0,0,1.41,1.42,2.8,2.8,0,0,0,1.64-.35,5.33,5.33,0,0,1,.64-.25,3.3,3.3,0,0,1,1.13,0,1.12,1.12,0,0,0-.14-.4A2,2,0,0,0,27.75,12.27Z" transform="translate(-6.95 0.05)"/>
      <path class="cls-15" d="M18.84,13.22c-.5-.1-1-.36-1.52-.41-1.24-.13-2.51,1.54-1.71,2.63.16-.14.29-.33.44-.49.78-.83,1.91-.19,2.84,0,1.26.22,1.85-.57,1.8-1.77A3.63,3.63,0,0,1,18.84,13.22Z" transform="translate(-6.95 0.05)"/>
      <g>
        <path class="cls-8" d="M27.91,20.94c.13-.06.51.35.52.48s-.28.42-.46.52a7,7,0,0,1-2.16.53,20.07,20.07,0,0,1-5.36.25,12.1,12.1,0,0,1-3-.69l.09-.07c.5-.31,1.24-.35,1-.45a3.44,3.44,0,0,0-3.27.74A2.28,2.28,0,0,1,18,23.1c1.46,2.53,3,4.21,5.41,4.17,3.19-.05,3.86-2.19,4.26-3.61a2.84,2.84,0,0,1,.76-1.31,4.21,4.21,0,0,1,1.35-1.08A2.84,2.84,0,0,1,30.91,21C30.22,20.37,28.71,20.61,27.91,20.94Z" transform="translate(-6.95 0.05)"/>
        <path class="cls-16" d="M18.18,22.62s1.62,3.71,5.4,3.41c2.55-.2,3.57-1.47,3.86-2.56a2.25,2.25,0,0,1,1-1.48A14.87,14.87,0,0,1,18.18,22.62Z" transform="translate(-6.95 0.05)"/>
        <path class="cls-17" d="M19.45,23a2,2,0,0,0,1.32,1.61,7.92,7.92,0,0,0,4.89.05c1.13-.34,1.67-2.17,1.67-2.17A17,17,0,0,1,19.45,23Z" transform="translate(-6.95 0.05)"/>
        <path class="cls-17" d="M24.32,24.67a11.45,11.45,0,0,1-3.8-.36c-.64-.22-.63.12-.49.42,0,0,.29,1.22,3.25,1.34,2.59.11,3.61-1.48,3.3-1.79S25.94,24.6,24.32,24.67Z" transform="translate(-6.95 0.05)"/>
        <path class="cls-18" d="M19.44,23A1.67,1.67,0,0,0,19.93,24s5.42-.75,6.81-.32a3.78,3.78,0,0,0,.59-1.25A19,19,0,0,1,19.44,23Z" transform="translate(-6.95 0.05)"/>
        <path class="cls-18" d="M20.86,24.31a7.57,7.57,0,0,0,5.36-.08A11.71,11.71,0,0,1,20.86,24.31Z" transform="translate(-6.95 0.05)"/>
      </g>
      <path class="cls-8" d="M29.07,19.32a1.48,1.48,0,0,0-.68.22c-.36.29.13.19.34.31.47.28.08.89-.34.91-.71,0-1.43.1-2.15.16a65.33,65.33,0,0,1-6.55.47c-.49,0-1.42.16-1.84-.15-.61-.48.85-.92.08-1-.51-.08-1.2.58-1.38,1a.57.57,0,0,0-.07.22c-.18.92.6,1.45,1.31,1.84a3.51,3.51,0,0,0,2,.28,14.44,14.44,0,0,1,2.08,0,15.89,15.89,0,0,0,2.07,0c.69-.05,1.35-.19,2-.28,1.21-.17,2.25-.1,3.22-1A2,2,0,0,0,30,20.55C30,20,29.77,19.31,29.07,19.32Z" transform="translate(-6.95 0.05)"/>
      <path class="cls-6" d="M28.2,19.65c.46-.28.9,0,.88.33,0,.5-.66.46-1,.42a8.38,8.38,0,0,0-3.42-.15c-1.47.47-2.47-.06-4,.17a20,20,0,0,0-2.25.58c-.38.1-.86.17-.95-.24a.44.44,0,0,1,.71-.39c-.17-.35-.85-.44-1.17-.32a.9.9,0,0,0-.58,1.12c.15.74,1.21,1.23,1.85,1.48a13.27,13.27,0,0,0,3.06.67,14.34,14.34,0,0,0,2.17.1,12.59,12.59,0,0,0,2.29-.29A8.19,8.19,0,0,0,28.48,22c.64-.42,1.6-1,1.51-2A1,1,0,0,0,28.2,19.65Z" transform="translate(-6.95 0.05)"/>
      <path class="cls-19" d="M8.92,10.44c0,.87,1.76,1.63,2.41,1.74a3.76,3.76,0,0,1-1.3.08c-.47-.06-1-.39-1.44-.36.13,1,1.74,1.27,2.51,1.61a3.29,3.29,0,0,1-.88.09,2.41,2.41,0,0,0-.84-.07c-.64.26-.41,1.74-.35,2.26.12.87.68,1.85,1.35.37-.22,2.16,2,5.55,1.81,4.12a18.72,18.72,0,0,1,.1-4.67,19.12,19.12,0,0,1,.35-2.25c0-.17.49-2.14.47-2.14-.43,0-.85-.05-1.28-.08C10.82,11.05,9.93,10.51,8.92,10.44Z" transform="translate(-6.95 0.05)"/>
      <path class="cls-19" d="M23.66,9.89a39.37,39.37,0,0,1-11.41,0,37.1,37.1,0,0,0,12.66.94c6.07-.84,5.2-2.72,5.2-2.72S30.15,9,23.66,9.89Z" transform="translate(-6.95 0.05)"/>
      <path class="cls-19" d="M26.85,20.7a4,4,0,0,0-2.39.1,2.75,2.75,0,0,1-2.35.05c-1.12-.47-3.65.37-3.3.79s1.52.21,1.52.21a.79.79,0,0,0,.52.69c.49.14,1.39-.52,1.39-.52a.66.66,0,0,0,.62.7c.66,0,1.22-.73,1.22-.73s.42.7,1.07.59a.64.64,0,0,0,.59-.7,2.28,2.28,0,0,0,1.29.25c.49-.16.21-.84.21-.84a1.51,1.51,0,0,0,1.28-.07C29.25,20.87,27.76,20.87,26.85,20.7Z" transform="translate(-6.95 0.05)"/>
      <path class="cls-19" d="M11.82,6.48c1.86,1.67,4.49,1.38,6.74,1-1.47,1-6.24.87-8.37.25,1.65.89,3.75,1.65,8.64,1.86a21.12,21.12,0,0,0,9.69-1.78,9,9,0,0,0,3.33-2.48C30.62,4.93,25.29,1.6,21.41.91,14.27-.35,9.27,4.19,11.82,6.48Z" transform="translate(-6.95 0.05)"/>
    </g>
  </g>
</svg>
