<svg id="레이어_1" data-name="레이어 1" xmlns="http://www.w3.org/2000/svg" viewBox="0 0 39.77 40">
  <defs>
    <style>
      .cls-1 {
        fill: #576d64;
      }

      .cls-1, .cls-2 {
        fill-rule: evenodd;
      }
    </style>
  </defs>
  <title>1</title>
  <g>
    <polygon class="cls-1" points="5.41 18.04 1.27 38.91 22.02 35.54 17.05 30.93 39.77 7.73 33.03 0.37 10.44 22.28 9.23 23.51 5.41 18.04"/>
    <path class="cls-1" d="M5.3,22.07c-.63,5.25-1.49,10.45-2.39,15.66C2.7,39,4.54,39.42,4.75,38.2c.92-5.29,1.54-10.62,2.05-16C6.88,21.38,5.4,21.21,5.3,22.07Z" transform="translate(0 0)"/>
    <path class="cls-1" d="M8.92,23.45A125.39,125.39,0,0,1,7.27,37.92.91.91,0,0,0,9,38.36a57.39,57.39,0,0,0,1.61-15C10.65,22.28,9,22.33,8.92,23.45Z" transform="translate(0 0)"/>
    <path class="cls-1" d="M15.08,37.67c-.37-6.08.15-12.16.45-18.24.06-1-1.46-.94-1.53,0-.46,5.94-1.76,12.58-.64,18.48" transform="translate(0 0)"/>
    <path class="cls-1" d="M19.36,15.2c-.09-1-1.61-1-1.56,0,.13,2.23.18,4.45.15,6.68a43.86,43.86,0,0,0-.06,6.68.7.7,0,0,0,1.38.15C20.46,24.66,19.7,19.4,19.36,15.2Z" transform="translate(0 0)"/>
    <path class="cls-1" d="M19.38,34.65a.66.66,0,0,0-1.32,0c0,.58-.16,1.34.28,1.79a.55.55,0,0,0,.78,0C19.55,36,19.38,35.21,19.38,34.65Z" transform="translate(0 0)"/>
    <path class="cls-1" d="M23.2,10.06c-.09-.9-1.45-.89-1.39,0,.29,4.81-.47,9.78,0,14.53a.72.72,0,0,0,1.42.16C24.41,20.22,23.67,14.68,23.2,10.06Z" transform="translate(0 0)"/>
    <path class="cls-1" d="M26.66,6.55a.59.59,0,0,0-1.17,0c0,4.5-.17,9.08.22,13.57a.68.68,0,0,0,1.36,0C27.26,15.63,26.84,11.05,26.66,6.55Z" transform="translate(0 0)"/>
    <path class="cls-1" d="M30.7,2.56a.75.75,0,0,0-1.49,0c.05,4.64-.33,9.46.22,14.06a.83.83,0,0,0,1.66-.05C31.44,12,30.86,7.2,30.7,2.56Z" transform="translate(0 0)"/>
    <path class="cls-1" d="M35.14,8.13a53.46,53.46,0,0,0-.57-5.8c-.15-1-1.7-1-1.58,0,.21,1.8.35,3.6.38,5.41,0,1.6-.29,3.3.18,4.83a.66.66,0,0,0,1.21.13A10.82,10.82,0,0,0,35.14,8.13Z" transform="translate(0 0)"/>
    <path class="cls-1" d="M38,5c-.31-.75-1.53-.42-1.23.38a5.93,5.93,0,0,1,.4,2.21c0,.71-.31,1.38-.29,2.09a.61.61,0,0,0,1,.4C39.05,8.76,38.65,6.42,38,5Z" transform="translate(0 0)"/>
    <path class="cls-2" d="M0,39Q1.56,28.62,4.06,18.42a1,1,0,0,1,1.86-.21c1,1.47,1.9,2.93,2.84,4.4Q11.61,20,14.35,17.2,19.18,12.1,24,7l3.82-4c.88-.91,1.79-2.23,3-2.77,2.21-1,4.39,1.69,5.88,2.92,1.87,1.53,4,3.16,2.57,5.8a17.54,17.54,0,0,1-3,3.42l-3.78,3.92q-7.44,7.66-15.06,15.14a29.07,29.07,0,0,1,4.7,3.73,1,1,0,0,1-.23,1.5c-2.89,1.38-6.48,1.4-9.61,1.82L1.2,40c-.54.08-1.29-.27-1.19-1Zm19.74-3.55a27.59,27.59,0,0,0-4.28-3.07,1,1,0,0,1-.16-1.5Q21.71,24.64,28,18.25q3.15-3.19,6.25-6.41A29.84,29.84,0,0,0,37.36,8.5c1.22-1.76-.49-2.81-1.71-3.84S33.32,2.19,31.9,2.21s-2.41,1.64-3.38,2.64l-6.59,6.83Q17,16.77,12.1,21.81L9.27,25a1,1,0,0,1-1.6-.25L5.45,21.24q-2,8.28-3.35,16.69l9-1.22C13.82,36.35,17,36.34,19.75,35.48Z" transform="translate(0 0)"/>
  </g>
</svg>
