<svg id="레이어_1" data-name="레이어 1" xmlns="http://www.w3.org/2000/svg" viewBox="0 0 40 28.82">
  <defs>
    <style>
      .cls-1 {
        fill: #e3ca95;
      }

      .cls-1, .cls-2, .cls-3 {
        fill-rule: evenodd;
      }

      .cls-2 {
        fill: #ec331e;
      }
    </style>
  </defs>
  <title>1</title>
  <g>
    <polygon class="cls-1" points="1.5 6.1 3.29 5.93 3.29 2.83 5.19 1.61 13.99 0.68 19.03 1.49 19.64 1.83 27.57 0.58 31.69 0.57 35.14 1.33 36.39 1.99 36.73 4.89 38.02 5.07 38.74 6.19 38.06 26.4 34.84 25.51 28 24.7 22.08 25.41 20.37 25.94 19.49 25.54 17.77 24.92 14.79 24.91 7.05 25.58 3.14 26.54 2 26.74 1.77 9.73 1.5 6.1"/>
    <path class="cls-2" d="M20,29.88V31s15.36-1.84,19.3,1.21l.43-23.4-.11-.32-2.84-.74,0,1.7s1.83-.22,2,1l-.67,20.21s-9.83-3.57-17.8-.19Z" transform="translate(0 -4.26)"/>
    <path class="cls-2" d="M3.41,8.18.74,8.83l-.33.49.68,22.91,1-.26s10.05-3.15,18.07-.46L20,29.88a23.44,23.44,0,0,0-3.47-.66S5.32,29.35,2.23,31L1.77,10.53s.16-.94,1.52-.34Z" transform="translate(0 -4.26)"/>
    <path class="cls-2" d="M1.5,8.48c-.25.44-.49.89-.72,1.34A5.7,5.7,0,0,0,.19,11.1c-.06.28.33.56.53.29a6.41,6.41,0,0,0,.64-1.25c.22-.46.44-.91.67-1.37A.3.3,0,0,0,1.5,8.48Z" transform="translate(0 -4.26)"/>
    <path class="cls-2" d="M2.92,8.42,2.6,9a2.18,2.18,0,0,0-.27.63.29.29,0,0,0,.49.27,1.7,1.7,0,0,0,.34-.58c.11-.21.2-.43.3-.64C3.63,8.36,3.1,8.06,2.92,8.42Z" transform="translate(0 -4.26)"/>
    <path class="cls-2" d="M1.24,11.24a6.65,6.65,0,0,1-.42,1,2.27,2.27,0,0,0-.38.91.31.31,0,0,0,.47.26c.33-.17.48-.6.63-.92A8.68,8.68,0,0,0,2,11.42C2.08,11,1.38,10.8,1.24,11.24Z" transform="translate(0 -4.26)"/>
    <path class="cls-2" d="M1.27,14.38c-.17.38-.35.75-.52,1.13a1.53,1.53,0,0,0-.24,1,.26.26,0,0,0,.38.14c.31-.16.42-.52.56-.83l.48-1.06C2.12,14.31,1.47,13.94,1.27,14.38Z" transform="translate(0 -4.26)"/>
    <path class="cls-2" d="M1.19,17,.74,18.14a3.6,3.6,0,0,0-.33,1,.34.34,0,0,0,.58.23,3.66,3.66,0,0,0,.47-.95c.14-.36.28-.71.41-1.06S1.38,16.56,1.19,17Z" transform="translate(0 -4.26)"/>
    <path class="cls-2" d="M1.25,19.94a6.92,6.92,0,0,0-.73,1.59.35.35,0,0,0,.58.32A6.69,6.69,0,0,0,2,20.33C2.2,19.87,1.49,19.48,1.25,19.94Z" transform="translate(0 -4.26)"/>
    <path class="cls-2" d="M1.19,22.57a9.8,9.8,0,0,0-.57,1.5.34.34,0,0,0,.57.32A3.53,3.53,0,0,0,2,22.78C2.19,22.26,1.36,22.06,1.19,22.57Z" transform="translate(0 -4.26)"/>
    <path class="cls-2" d="M1.4,25.37,1,26.25a1.55,1.55,0,0,0-.21.88.35.35,0,0,0,.52.2,1.45,1.45,0,0,0,.49-.7l.37-.83C2.42,25.28,1.63,24.84,1.4,25.37Z" transform="translate(0 -4.26)"/>
    <path class="cls-2" d="M1.41,28.56c-.12.27-.25.53-.38.8a1.24,1.24,0,0,0-.21.85.37.37,0,0,0,.54.2c.27-.12.35-.42.47-.67s.23-.5.35-.76C2.42,28.47,1.65,28,1.41,28.56Z" transform="translate(0 -4.26)"/>
    <path class="cls-2" d="M2.24,30.71a.46.46,0,0,0-.61.18c-.1.21-.2.41-.32.61a1,1,0,0,0-.22.73.38.38,0,0,0,.37.26A.9.9,0,0,0,2.08,32a6.59,6.59,0,0,0,.33-.65A.46.46,0,0,0,2.24,30.71Z" transform="translate(0 -4.26)"/>
    <path class="cls-2" d="M4.68,30c-.19.31-.42.62-.59.95a.42.42,0,0,0,.12.53.41.41,0,0,0,.55,0c.25-.33.44-.69.65-1S5,29.5,4.68,30Z" transform="translate(0 -4.26)"/>
    <path class="cls-2" d="M7.05,29.44a4.38,4.38,0,0,0-.57,1.22A.32.32,0,0,0,7,31a3.84,3.84,0,0,0,.71-1.14A.39.39,0,0,0,7.05,29.44Z" transform="translate(0 -4.26)"/>
    <path class="cls-2" d="M11,29.07l-.3.53a1.73,1.73,0,0,0-.26.57.37.37,0,0,0,.62.34,1.66,1.66,0,0,0,.34-.53c.1-.18.2-.35.29-.53A.39.39,0,0,0,11,29.07Z" transform="translate(0 -4.26)"/>
    <path class="cls-2" d="M14.79,29.17l-.34.52c-.13.2-.26.36-.18.61a.32.32,0,0,0,.32.23c.29,0,.38-.2.52-.43l.36-.55C15.74,29.13,15.05,28.75,14.79,29.17Z" transform="translate(0 -4.26)"/>
    <path class="cls-2" d="M16.48,29.22l-.45.71c-.14.22-.29.58,0,.75s.52-.12.66-.34.31-.49.47-.74C17.44,29.18,16.75,28.8,16.48,29.22Z" transform="translate(0 -4.26)"/>
    <path class="cls-2" d="M18,29.4c-.14.26-.28.51-.4.77a.38.38,0,0,0,.07.44.43.43,0,0,0,.25.1.35.35,0,0,0,.3-.19c.14-.25.25-.52.38-.79S18.21,29,18,29.4Z" transform="translate(0 -4.26)"/>
    <path class="cls-2" d="M19.24,30a2.37,2.37,0,0,0-.25.64.33.33,0,0,0,.56.31,1.94,1.94,0,0,0,.36-.58C20.13,29.9,19.46,29.53,19.24,30Z" transform="translate(0 -4.26)"/>
    <path class="cls-2" d="M22.08,29.68a.36.36,0,0,0-.49.14c-.19.28-.58.65-.48,1a.31.31,0,0,0,.29.22c.25,0,.35-.18.49-.37l.33-.51A.35.35,0,0,0,22.08,29.68Z" transform="translate(0 -4.26)"/>
    <path class="cls-2" d="M23.72,29.35l-.38.63c-.13.23-.26.43-.13.69a.24.24,0,0,0,.24.13c.29,0,.4-.24.53-.47l.36-.64A.35.35,0,0,0,23.72,29.35Z" transform="translate(0 -4.26)"/>
    <path class="cls-2" d="M25.63,29a2.46,2.46,0,0,0-.71,1.26.33.33,0,0,0,.56.21A2,2,0,0,0,25.8,30a3.72,3.72,0,0,1,.34-.47C26.43,29.15,25.93,28.67,25.63,29Z" transform="translate(0 -4.26)"/>
    <path class="cls-2" d="M27.05,29.23a3.17,3.17,0,0,0-.41.85.32.32,0,0,0,.55.3,3.57,3.57,0,0,0,.51-.79A.37.37,0,0,0,27.05,29.23Z" transform="translate(0 -4.26)"/>
    <path class="cls-2" d="M28.94,29.17a2,2,0,0,0-.42.89.34.34,0,0,0,.51.28c.27-.15.42-.54.58-.8S29.2,28.75,28.94,29.17Z" transform="translate(0 -4.26)"/>
    <path class="cls-2" d="M30.63,29.35c-.09.15-.17.3-.26.44a.75.75,0,0,0-.16.48.29.29,0,0,0,.44.23.75.75,0,0,0,.32-.38l.25-.44A.34.34,0,0,0,30.63,29.35Z" transform="translate(0 -4.26)"/>
    <path class="cls-2" d="M32.33,29.73a3.75,3.75,0,0,0-.24.44c-.14.29.26.63.48.35a5,5,0,0,0,.33-.47C33.12,29.69,32.55,29.38,32.33,29.73Z" transform="translate(0 -4.26)"/>
    <path class="cls-2" d="M34.08,29.77a2.23,2.23,0,0,0-.55.84c-.08.29.34.55.54.29s.29-.47.48-.68S34.36,29.46,34.08,29.77Z" transform="translate(0 -4.26)"/>
    <path class="cls-2" d="M39,27.89c-.53,1.11-1.17,2.17-1.69,3.29a.32.32,0,0,0,.56.31,25,25,0,0,0,1.65-3.32C39.71,27.83,39.2,27.54,39,27.89Z" transform="translate(0 -4.26)"/>
    <path class="cls-2" d="M39,30.74a4.07,4.07,0,0,0-.44.82c-.1.29.31.5.51.29a4.58,4.58,0,0,0,.48-.8A.32.32,0,0,0,39,30.74Z" transform="translate(0 -4.26)"/>
    <path class="cls-2" d="M39,26.06l-.52.82a2.94,2.94,0,0,0-.45.81.33.33,0,0,0,.55.3,2.76,2.76,0,0,0,.54-.76l.51-.82C39.88,26,39.25,25.68,39,26.06Z" transform="translate(0 -4.26)"/>
    <path class="cls-2" d="M39,21l-.52.73a2.2,2.2,0,0,0-.45.74.34.34,0,0,0,.5.37,2.35,2.35,0,0,0,.57-.71l.53-.77C39.94,20.93,39.3,20.59,39,21Z" transform="translate(0 -4.26)"/>
    <path class="cls-2" d="M39,18.71c-.23.37-.46.73-.66,1.13s.34.81.62.45.53-.78.78-1.18S39.32,18.25,39,18.71Z" transform="translate(0 -4.26)"/>
    <path class="cls-2" d="M39.71,16.29a.38.38,0,0,0-.54,0l-.52.64c-.17.21-.43.43-.41.72a.34.34,0,0,0,.34.32.48.48,0,0,0,.37-.19,2.6,2.6,0,0,0,.26-.32l.51-.64A.39.39,0,0,0,39.71,16.29Z" transform="translate(0 -4.26)"/>
    <path class="cls-2" d="M39.72,13.71a.39.39,0,0,0-.54,0,6.22,6.22,0,0,0-.73,1.15.37.37,0,0,0,.64.35c.21-.33.4-.67.64-1a.38.38,0,0,0,0-.53Z" transform="translate(0 -4.26)"/>
    <path class="cls-2" d="M39.22,11.48a6.29,6.29,0,0,0-.78.85c-.27.4.34.81.66.49s.46-.53.7-.79S39.59,11.12,39.22,11.48Z" transform="translate(0 -4.26)"/>
    <path class="cls-2" d="M39.7,9a.4.4,0,0,0-.53.16,2.23,2.23,0,0,0-.57,1,.35.35,0,0,0,.45.32,1.17,1.17,0,0,0,.46-.45l.35-.5A.4.4,0,0,0,39.7,9Z" transform="translate(0 -4.26)"/>
    <path class="cls-2" d="M38.42,8a5.55,5.55,0,0,0-.61.75c-.18.28-.42.59-.24.93a.38.38,0,0,0,.4.15c.3-.06.39-.42.54-.64A4.34,4.34,0,0,1,39,8.53.4.4,0,0,0,38.42,8Z" transform="translate(0 -4.26)"/>
    <path class="cls-2" d="M36.94,8c-.16.27-.66.9-.21,1.15s.74-.48.91-.76C37.91,8,37.2,7.56,36.94,8Z" transform="translate(0 -4.26)"/>
    <path class="cls-1" d="M4.32,6.62,3.73,7.74A2.68,2.68,0,0,0,3.3,8.81c0,.32.39.39.58.22a2.89,2.89,0,0,0,.6-1c.17-.35.36-.71.54-1.06s-.46-.84-.7-.39Z" transform="translate(0 -4.26)"/>
    <path class="cls-1" d="M2.58,10.22c-.18.27-.35.55-.52.83a2.16,2.16,0,0,0-.44.85c0,.3.27.62.57.41a2.18,2.18,0,0,0,.61-.79l.54-.88C3.64,10.16,2.88,9.74,2.58,10.22Z" transform="translate(0 -4.26)"/>
    <path class="cls-1" d="M6.49,5.83C4.9,8.71,3.15,11.49,1.56,14.37c-.27.48.45.86.74.41A91.74,91.74,0,0,0,7.07,6.15.33.33,0,0,0,6.49,5.83Z" transform="translate(0 -4.26)"/>
    <path class="cls-1" d="M8.38,5.5c-2.11,4-4.75,7.69-6.74,11.7-.2.39.36.87.65.48C5,14.12,6.94,9.79,8.93,5.81,9.12,5.44,8.57,5.14,8.38,5.5Z" transform="translate(0 -4.26)"/>
    <path class="cls-1" d="M10.53,4.9C7.74,10.18,4.68,15.33,2,20.63a.41.41,0,0,0,.71.4A172.22,172.22,0,0,0,11.1,5.22C11.29,4.84,10.72,4.52,10.53,4.9Z" transform="translate(0 -4.26)"/>
    <path class="cls-1" d="M12.61,4.74c-3.89,6.4-7.19,13.31-10.49,20-.24.5.5.92.76.42C6.41,18.54,9.4,11.57,13.19,5.06,13.4,4.7,12.83,4.38,12.61,4.74Z" transform="translate(0 -4.26)"/>
    <path class="cls-1" d="M14,4.94C10.69,12.7,6,19.61,2.18,27.08a.47.47,0,0,0,.83.46c2.33-3.62,4.36-7.49,6.42-11.26A87.42,87.42,0,0,0,14.65,5.2C14.79,4.83,14.15,4.57,14,4.94Z" transform="translate(0 -4.26)"/>
    <path class="cls-1" d="M15.38,5.32A184.91,184.91,0,0,1,2.19,29.7c-.35.57.54,1.05.91.5A141.07,141.07,0,0,0,16,5.67C16.19,5.25,15.57,4.89,15.38,5.32Z" transform="translate(0 -4.26)"/>
    <path class="cls-1" d="M17.07,5.2c-1.74,4.14-3.46,8.3-5.44,12.33-.94,1.91-1.94,3.78-3,5.6-1.18,2-2.68,3.78-3.7,5.85-.3.62.62,1.14.94.52,1.07-2.05,2.51-3.88,3.69-5.86s2.19-3.91,3.16-5.93c1.91-4,3.5-8.11,5.07-12.24C17.89,5.08,17.24,4.82,17.07,5.2Z" transform="translate(0 -4.26)"/>
    <path class="cls-1" d="M19,5.75C16.79,9,15.7,13,14.05,16.55c-1.81,3.92-3.88,7.71-6,11.49a.54.54,0,0,0,.94.52c2.05-3.8,4.09-7.6,5.82-11.55,1.6-3.63,2.62-7.58,4.79-10.92C19.9,5.71,19.28,5.38,19,5.75Z" transform="translate(0 -4.26)"/>
    <path class="cls-1" d="M20.82,5.82a8.26,8.26,0,0,0-1.13,2.33.3.3,0,0,0-.37.18c-2.77,6.71-5.9,13.24-8.94,19.83-.26.57.56,1,.86.47A164.31,164.31,0,0,0,19.87,8.92a.38.38,0,0,0,.33-.14,6.78,6.78,0,0,0,.58-1.32q.3-.66.66-1.29C21.68,5.77,21.05,5.43,20.82,5.82Z" transform="translate(0 -4.26)"/>
    <path class="cls-1" d="M22.7,5.39c-3.42,7.81-7,15.46-10.89,23a.37.37,0,0,0,.64.36c4.43-7.22,7.58-15.3,10.79-23.1C23.38,5.33,22.86,5,22.7,5.39Z" transform="translate(0 -4.26)"/>
    <path class="cls-1" d="M24.61,5c-4.05,7.73-6.77,16.08-11.1,23.68a.46.46,0,0,0,.81.44c4.32-7.6,7-16,10.91-23.78C25.43,5,24.82,4.62,24.61,5Z" transform="translate(0 -4.26)"/>
    <path class="cls-1" d="M26.22,4.64c-3.49,8-6.83,16.19-10.81,24-.26.49.5.92.76.42,4-7.77,7.36-16,10.68-24C27,4.57,26.41,4.21,26.22,4.64Z" transform="translate(0 -4.26)"/>
    <path class="cls-1" d="M28,4.51c-3.47,8.15-6.86,16.23-11,24a.38.38,0,0,0,.66.36c4.66-7.45,7.66-16,11-24C28.83,4.44,28.19,4.07,28,4.51Z" transform="translate(0 -4.26)"/>
    <path class="cls-1" d="M31.4,4.85c-3.61,8.32-6.88,16.81-11,24.89-.18.36.36.66.54.3C25.07,22,28.45,13.5,31.89,5.12,32,4.79,31.54,4.51,31.4,4.85Z" transform="translate(0 -4.26)"/>
    <path class="cls-1" d="M33,5c-3.33,8.07-6.42,16.21-10.37,24a.39.39,0,0,0,.69.37c4.15-7.7,7.1-16,10.26-24.15C33.72,4.9,33.15,4.67,33,5Z" transform="translate(0 -4.26)"/>
    <path class="cls-1" d="M34.61,5.57q-4.69,11.67-9.95,23.1c-.21.46.48.85.7.38q5.31-11.46,9.79-23.26c.12-.32-.42-.53-.54-.22Z" transform="translate(0 -4.26)"/>
    <path class="cls-1" d="M35.86,6.3c-3.43,7.41-5.79,15.21-9.73,22.39a.4.4,0,0,0,.69.39c4.27-6.95,6.32-15,9.65-22.45C36.65,6.23,36.05,5.9,35.86,6.3Z" transform="translate(0 -4.26)"/>
    <path class="cls-1" d="M36.19,9.18Q32.08,18.9,28,28.62c-.21.53.57,1,.78.43q4-9.78,7.92-19.58C36.85,9.12,36.34,8.83,36.19,9.18Z" transform="translate(0 -4.26)"/>
    <path class="cls-1" d="M37.78,9.49c-1.44,3.29-2.86,6.58-4.23,9.89-1.26,3.06-2.88,6.2-3.7,9.4a.34.34,0,0,0,.63.25c1.63-3,2.65-6.46,3.93-9.61S37,13,38.32,9.79C38.47,9.42,37.94,9.11,37.78,9.49Z" transform="translate(0 -4.26)"/>
    <path class="cls-1" d="M38.56,11.78c-2.09,5.73-4.45,11.36-6.83,17-.23.56.58,1,.83.46,2.51-5.63,4.27-11.46,6.25-17.3C39,11.51,38.7,11.4,38.56,11.78Z" transform="translate(0 -4.26)"/>
    <path class="cls-1" d="M38.17,17.66c-1.61,3.92-3.31,7.83-4.76,11.82-.15.41.55.69.73.28,1.66-3.9,3.08-7.92,4.58-11.89C38.85,17.56,38.3,17.34,38.17,17.66Z" transform="translate(0 -4.26)"/>
    <path class="cls-1" d="M38,22.64c-.87,2.17-2.14,4.5-2.61,6.8a.33.33,0,0,0,.6.24c1.18-2,1.78-4.62,2.58-6.82C38.65,22.54,38.1,22.31,38,22.64Z" transform="translate(0 -4.26)"/>
    <path class="cls-1" d="M37.53,27.69c-.36.78-.8,1.52-1.14,2.3a.36.36,0,0,0,.63.35A15.82,15.82,0,0,0,38.15,28C38.33,27.62,37.72,27.27,37.53,27.69Z" transform="translate(0 -4.26)"/>
    <path class="cls-3" d="M22.51,8.54A.91.91,0,0,0,21.92,8a.39.39,0,0,0-.31-.28,8.43,8.43,0,0,0-1.4-.15V6.49A28.14,28.14,0,0,1,28,5.16c2.53-.06,5.47,0,7.75,1.22a.41.41,0,0,0,.32,0c.43,6.56.67,13.12.58,19.7a5.17,5.17,0,0,0-2.89-.77h-.09l-.23,0a.39.39,0,0,0,0,.73,6.32,6.32,0,0,1,0,.67c0,.25,0,.49,0,.74l.06.71c-1.65-1.06-4-1-5.82-1a15.56,15.56,0,0,0-7.39,1.26c0-.51,0-1,0-1.51.62-.05,1.24-.11,1.87-.15.44,0,.7-.71.22-.92a1.77,1.77,0,0,0-.66-.18.39.39,0,0,0-.4-.26h-1c0-5.32-.05-10.65-.11-16a10.52,10.52,0,0,0,2-.25.49.49,0,0,0,.28-.72Zm10.83,14a12.73,12.73,0,0,0-5.25-.9,18.37,18.37,0,0,0-5.89,1c-.42.17-.38.88.13.84,1.76-.13,3.45-.72,5.22-.84a12,12,0,0,1,5.35.72c.53.21,1-.57.44-.79Zm.46-3.63a36,36,0,0,0-6.11-.9c-1.8-.07-4.1,0-5.68.94-.42.26-.1.81.33.73.93-.16,1.82-.51,2.77-.64a17.32,17.32,0,0,1,2.79-.11,36.42,36.42,0,0,1,5.69.8.42.42,0,0,0,.21-.82Zm-.7-3.83a22.77,22.77,0,0,0-5.58-.59,14.65,14.65,0,0,0-5.54.89c-.37.16-.38.86.13.8,1.76-.21,3.44-.7,5.23-.77a22,22,0,0,1,5.55.52c.55.12.76-.73.21-.85Zm.12-3.16a35.76,35.76,0,0,0-6-.65c-1.65,0-3.54-.05-5,.84-.43.26-.13,1,.37.83,3.25-1.25,7.06-.78,10.42-.17.55.1.76-.74.21-.85ZM16.78,22.29c-3.67-.77-8.15-.76-11.57,1-.44.22-.11.9.35.77A30.59,30.59,0,0,1,11,22.78a19.42,19.42,0,0,1,5.59.31c.52.1.72-.69.2-.8Zm-.23-4a22.79,22.79,0,0,0-5.76-.55c-1.69.06-3.93.14-5.42,1a.39.39,0,0,0,.21.71A17.24,17.24,0,0,0,7.92,19a21.54,21.54,0,0,1,2.88-.34,22.36,22.36,0,0,1,5.54.47c.54.11.75-.71.21-.83Zm.37-3.2a14.78,14.78,0,0,0-5.73-.75c-1.78,0-4.14.06-5.61,1.18a.41.41,0,0,0,.33.75c.78-.22,1.5-.57,2.3-.74A13.34,13.34,0,0,1,11,15.25a14.31,14.31,0,0,1,5.46.58c.51.23.94-.53.43-.76ZM17,11.4a14.48,14.48,0,0,0-11.79.49c-.47.22-.1.94.37.81a30.91,30.91,0,0,1,5.52-1.36,11.12,11.12,0,0,1,5.47.83c.51.23.94-.54.42-.77ZM39.25,9.87a1.85,1.85,0,0,0-.78-.74,2.39,2.39,0,0,0-1.2-.29.32.32,0,0,0-.22.06c0-.24,0-.48,0-.72l.07,0a17.58,17.58,0,0,0,2.08.59.33.33,0,0,0,.1.35v.72ZM37.1,9.63c.34,5.58.41,11.19.27,16.77a.36.36,0,0,1-.13.29.48.48,0,0,1-.14.36l0,.06a4.78,4.78,0,0,1-1.18,1.15l-1.3,1.11c1,.22,2.07.47,3.07.74q.36-9.87.74-19.75a.47.47,0,0,1,0-.17,2.51,2.51,0,0,0-.34-.3,1.54,1.54,0,0,0-.81-.22.45.45,0,0,1-.2,0Zm-4,19.46c-1.66-1-3.81-.91-5.69-1a13.9,13.9,0,0,0-6.8,1.18.49.49,0,0,1-.31,0V30a.33.33,0,0,1,.15-.11c3.92-1.58,8.39-1.5,12.64-.77ZM20.27,30.47c0,.07,0,.15,0,.22,6.17-.85,12.78-1.67,18.68.83,0-1.71.09-3.44.13-5.14,0-1.95.08-3.89.1-5.84,0-3.41.07-6.82.08-10.24a.5.5,0,0,1-.15.17q-.33,9.93-.68,19.87a.38.38,0,0,1-.3.67,42.26,42.26,0,0,0-8.78-1.52,26.62,26.62,0,0,0-8.69,1.1.36.36,0,0,1-.38-.12Zm-.75-1.19a6.36,6.36,0,0,0-2.89-.47c-1.7,0-3.41,0-5.12,0-.68,0-1.36.07-2,.13a41.24,41.24,0,0,1,9.68,0,.42.42,0,0,0,.27-.06.35.35,0,0,0,.12.17l0,.22ZM3.14,30.2l-.72.25c.06-1.43-.06-2.9-.09-4.33,0-1.73-.07-3.46-.1-5.19L2,10.75a.28.28,0,0,0,0-.09.77.77,0,0,1,.62-.26.4.4,0,0,0,.19,0q-.09,3.69-.14,7.38c-.05,3.36-.29,6.81-.08,10.17v0a4.36,4.36,0,0,1-.1,1.61.53.53,0,0,0,.64.63ZM2.84,9.65l0-1a3.9,3.9,0,0,0-1,.22c-.35.13-.66.35-1,.48l-.11,0c.16,7.44.41,14.89.79,22.32l.46-.2a.36.36,0,0,1-.31-.33,47.27,47.27,0,0,1-.13-5.19c0-1.66-.05-3.32-.08-5L1.32,10.77a.39.39,0,0,1-.08-.3c.13-.66,1-.9,1.58-.82ZM2.3,31.32A25,25,0,0,1,10.17,30c3.12-.16,6.3-.33,9.31.63,0-.17,0-.34,0-.51-1.25-.79-2.94-.57-4.36-.57s-2.78,0-4.17.08A28.47,28.47,0,0,0,2.3,31.31ZM2.9,7.78a3.94,3.94,0,0,0-2.43.9.46.46,0,0,0-.08.13A.36.36,0,0,0,0,9.18Q.15,20.94.78,32.7c0,.52.84.51.81,0v-.14a25.37,25.37,0,0,1,8.8-1.72c3.07-.18,6.17-.35,9.13.62a.36.36,0,0,0,.64.07h.1c6.28-.82,12.74-1.6,18.74,1l.07,0a.38.38,0,0,0,.63-.27c.2-1.92.14-3.9.18-5.84s.07-3.89.09-5.83c0-3.9.06-7.79,0-11.68a.25.25,0,0,0,0-.09A.81.81,0,0,0,39.38,8a21.28,21.28,0,0,0-2.1-.65.39.39,0,0,0-.34.05c0-.44-.07-.88-.1-1.32a.42.42,0,0,0-.53-.37.49.49,0,0,0-.16-.16C34,4.25,30.8,4.24,28.33,4.27a28.41,28.41,0,0,0-8.17,1.35l0,0a.43.43,0,0,0-.38-.16,19.53,19.53,0,0,0-8.89-.87c-1.45.14-2.91.3-4.33.57a5.5,5.5,0,0,0-3.2,1.52.38.38,0,0,0-.4.38l0,.75Zm33.27,19a5.6,5.6,0,0,0-1.12-.42,3.59,3.59,0,0,0-.72-.11c0,.26,0,.53,0,.76l.07,1.32.89-.78c.28-.24.56-.54.87-.77ZM19.35,7.63a7.87,7.87,0,0,0-2.15.53.49.49,0,0,0,0,.94,10.31,10.31,0,0,0,2.11.39c0,5.33,0,10.67,0,16h-.48a2.33,2.33,0,0,0-1.53.36.5.5,0,0,0-.16.66,1.59,1.59,0,0,0,1.6.56l.59,0c0,.38,0,.77,0,1.15h0A42.34,42.34,0,0,0,3.6,29a4.23,4.23,0,0,0-.11-1c.21-3.4,0-6.87,0-10.27S3.61,11,3.68,7.58a.48.48,0,0,0,.16-.13A5.43,5.43,0,0,1,7.27,6c1.32-.21,2.64-.38,4-.49a18.4,18.4,0,0,1,8.11.78Z" transform="translate(0 -4.26)"/>
  </g>
</svg>
