<svg id="레이어_1" data-name="레이어 1" xmlns="http://www.w3.org/2000/svg" viewBox="0 0 33.84 40">
  <defs>
    <style>
      .cls-1 {
        fill: #e3ca95;
      }

      .cls-1, .cls-2, .cls-3 {
        fill-rule: evenodd;
      }

      .cls-2 {
        fill: #576d64;
      }
    </style>
  </defs>
  <title>1</title>
  <g>
    <polygon class="cls-1" points="7.56 19.21 11.9 17.17 16.25 11 18.97 3.7 21.45 0.98 23.14 1.39 23.14 3.94 21.99 10.52 22.43 13.38 25.99 14.2 30.56 14.97 33.22 16.09 32.4 19.56 32.4 21.87 31.47 24.23 31.82 26.58 30.14 29.39 29.48 31.31 25.99 32.49 21.75 32.49 16.38 31.65 11.81 31.31 8.01 22.11 7.56 19.21"/>
    <polygon class="cls-2" points="7.05 16.85 14.34 35.21 1.06 39.05 0.75 19.76 4.93 16.67 7.05 16.85"/>
    <path class="cls-3" d="M37,18.61c.73-2.09.31-3.66-1.94-4.5a17.4,17.4,0,0,0-4.12-.75c-1.9-.22-5.14-.23-4.65-2.92.33-1.8.77-3.59,1.16-5.37.24-1.12.73-2.51.31-3.65C27-.66,24.41-.21,23.24,1.18a14,14,0,0,0-1.88,4C20.63,7.05,19.93,9,19,10.77c-1.54,3.09-3.77,5.93-7,7.3-.1-.49-.19-1-.29-1.49a.49.49,0,0,0-.06-.17.81.81,0,0,0-.94-.72c-2.69.49-6.67,1.58-7,4.75a126.29,126.29,0,0,0-.21,13.62c0,1.13,0,2.27.09,3.4A3.42,3.42,0,0,0,4,39.38c.72.94,2,.58,3,.4a43.2,43.2,0,0,0,11.43-3.92.86.86,0,0,0,.27-1.16l-1.41-2.57c2.75.41,5.5.84,8.25,1.15,2.56.29,5.56.37,7.77-1.19a2.48,2.48,0,0,0,1.11-1.94,3.42,3.42,0,0,1,.9-2A3.41,3.41,0,0,0,36,26.82,9.43,9.43,0,0,0,36,25c0-.86.57-1.35.83-2.1.49-1.43-.4-2.82.11-4.27ZM9.19,37.55c-.83.21-3.27,1.07-3.82.55-.28-.26-.08-2.29-.09-2.72,0-.79,0-1.59,0-2.38-.05-3.18,0-6.35.06-9.53,0-1.76-.31-3.73,1.43-4.75a13.35,13.35,0,0,1,3.4-1.38c.47,6.15,3.75,12.1,6.69,17.43a41.37,41.37,0,0,1-7.62,2.78ZM35,19.1c-.17,1.34.59,2.52-.15,3.76a4.56,4.56,0,0,0-.53,2.7c0,1.43-1,1.78-1.49,3a6.24,6.24,0,0,0-.2,1.21c-.23,1.1-1.16,1.41-2.15,1.66a12.76,12.76,0,0,1-4.57.14c-3.2-.35-6.4-.88-9.58-1.32-.75-1.46-1.45-2.94-2.07-4.45a38.73,38.73,0,0,1-1.89-6.26c4.28-1.51,7-5.34,8.76-9.37C21.57,9,22,7.87,22.46,6.73c.25-.65.5-1.3.76-1.95a17.15,17.15,0,0,1,1-2.37,2.05,2.05,0,0,1,.33-.33c1.27-.87,1.63-.19,1.61.66a8.17,8.17,0,0,1-.17.9c-.17.78-.34,1.57-.52,2.35-.33,1.52-.74,3-1,4.58-.88,5.43,6.93,4,10,5.28C36.07,16.53,35.12,17.82,35,19.1Z" transform="translate(-3.47 0)"/>
  </g>
</svg>
