<svg id="레이어_1" data-name="레이어 1" xmlns="http://www.w3.org/2000/svg" viewBox="0 0 40 40">
  <defs>
    <style>
      .cls-1 {
        stroke: #000;
        stroke-miterlimit: 10;
        stroke-width: 0.75px;
      }
    </style>
  </defs>
  <title>1</title>
  <path d="M20,40A20,20,0,1,1,40,20,20,20,0,0,1,20,40ZM20,3.66A16.34,16.34,0,1,0,36.34,20,16.36,16.36,0,0,0,20,3.66Z"/>
  <path class="cls-1" d="M17,10.34a21.63,21.63,0,0,1-.32,4.86,11.47,11.47,0,0,0,.52,1.7,7.32,7.32,0,0,0,.69,1.37,7.8,7.8,0,0,0,.93,1.15,11.43,11.43,0,0,0,1.24,1.08,15.71,15.71,0,0,1-1.19,1.57,11.15,11.15,0,0,1-1.48,1.4A12.47,12.47,0,0,1,15,20.33a15.71,15.71,0,0,1-2.59,3.74A16.91,16.91,0,0,1,8.69,27l-2.41-3a15.5,15.5,0,0,0,3.39-2.49,10.86,10.86,0,0,0,2.17-3A13,13,0,0,0,13,14.84a23.89,23.89,0,0,0,.2-4.5Zm9.56,4.27a14.88,14.88,0,0,0,1,3.12A12,12,0,0,0,29,20.21a11.32,11.32,0,0,0,2.05,2A23.9,23.9,0,0,0,33.69,24l-2.38,3a16.78,16.78,0,0,1-3.64-2.84A15.28,15.28,0,0,1,25,20.3a19.51,19.51,0,0,1-2.83,4.89,15.16,15.16,0,0,1-4,3.55l-2.41-2.86a13.88,13.88,0,0,0,5.79-6.31,20.32,20.32,0,0,0,1.51-9.23h3.86A28.13,28.13,0,0,1,26.55,14.61Z"/>
</svg>
