<svg id="레이어_1" data-name="레이어 1" xmlns="http://www.w3.org/2000/svg" viewBox="0 0 40 40">
  <defs>
    <style>
      .cls-1 {
        stroke: #000;
        stroke-miterlimit: 10;
        stroke-width: 0.75px;
      }
    </style>
  </defs>
  <title>1</title>
  <path d="M20,40A20,20,0,1,1,40,20,20,20,0,0,1,20,40ZM20,3.66A16.34,16.34,0,1,0,36.34,20,16.36,16.36,0,0,0,20,3.66Z"/>
  <path class="cls-1" d="M23,20.59c.63.49,1.26.95,1.9,1.37s1.31.85,2,1.25,1.41.8,2.18,1.19,1.59.78,2.47,1.17L29.24,29a34.83,34.83,0,0,1-4.53-2.64,40.35,40.35,0,0,1-4.15-3.26,34.2,34.2,0,0,1-4.62,3.5,49.66,49.66,0,0,1-5,2.81L8.73,25.94a35,35,0,0,0,5-2.49,37.46,37.46,0,0,0,4.24-3,26.34,26.34,0,0,0,3.15-3,10.57,10.57,0,0,0,1.79-2.69c-.67,0-1.51,0-2.53,0h-9V11h12.1c1.36,0,2.9,0,4.62-.07a18.81,18.81,0,0,1-1.92,5.17A25,25,0,0,1,23,20.59Z"/>
</svg>
