<svg id="레이어_1" data-name="레이어 1" xmlns="http://www.w3.org/2000/svg" xmlns:xlink="http://www.w3.org/1999/xlink" viewBox="0 0 28.3 40">
  <defs>
    <style>
      .cls-1 {
        fill: #bcceeb;
      }

      .cls-2 {
        fill: #3a3a4a;
      }

      .cls-3 {
        fill: #fff;
      }

      .cls-4 {
        fill: url(#linear-gradient);
      }

      .cls-11, .cls-5 {
        opacity: 0.3;
      }

      .cls-6 {
        fill: #4e4e5e;
      }

      .cls-7 {
        fill: #f06799;
      }

      .cls-8 {
        fill: #f5f5f5;
      }

      .cls-9 {
        fill: #261b18;
      }

      .cls-10 {
        fill: #ffb06b;
      }

      .cls-11 {
        fill: #bf3c1b;
      }

      .cls-12 {
        fill: #b54319;
        opacity: 0.5;
      }

      .cls-13 {
        fill: #57443a;
      }

      .cls-14 {
        fill: #ffc48f;
      }

      .cls-15 {
        fill: #a87f7f;
      }

      .cls-16 {
        fill: #2b221c;
      }

      .cls-17 {
        fill: #121b21;
      }

      .cls-18 {
        opacity: 0.35;
      }

      .cls-19 {
        fill: #c4170e;
      }

      .cls-20 {
        fill: #8f2621;
      }

      .cls-21 {
        fill: #fff9f0;
      }

      .cls-22 {
        fill: #e8dac5;
      }
    </style>
    <linearGradient id="linear-gradient" x1="21.54" y1="30.37" x2="21.54" y2="32.92" gradientUnits="userSpaceOnUse">
      <stop offset="0" stop-color="#e88958"/>
      <stop offset="0.34" stop-color="#f49d62"/>
      <stop offset="0.69" stop-color="#fcab69"/>
      <stop offset="1" stop-color="#ffb06b"/>
    </linearGradient>
  </defs>
  <title>1</title>
  <g>
    <g>
      <path class="cls-1" d="M19.55,33.7,18.66,32c-1.2.59-1.51,1.94-1.84,3.37C16.65,36.13,16,39,15.57,40h2.1c.29-1,.93-3.61,1.06-4.21C19,34.86,19.17,33.89,19.55,33.7Z" transform="translate(-5.85 0)"/>
      <path class="cls-1" d="M24.41,32l-.89,1.69c.38.19.6,1.16.82,2.09.13.6.77,3.25,1.06,4.21h2.1c-.4-1-1.08-3.87-1.25-4.62C25.92,34,25.61,32.6,24.41,32Z" transform="translate(-5.85 0)"/>
      <g>
        <path class="cls-2" d="M25.52,36.67c.62-1.53.64-1.89.28-2.75A4.64,4.64,0,0,0,18.66,32a2.89,2.89,0,0,0-.89,1.55c-.6,1.6,0,2.34.32,3.7A7.76,7.76,0,0,1,18.24,40H25A6.33,6.33,0,0,1,25.52,36.67Z" transform="translate(-5.85 0)"/>
        <path class="cls-3" d="M21.61,37a.31.31,0,0,0,0,.61.31.31,0,1,0,0-.61Z" transform="translate(-5.85 0)"/>
        <path class="cls-3" d="M21.65,38.87a.3.3,0,1,0,.31.3A.3.3,0,0,0,21.65,38.87Z" transform="translate(-5.85 0)"/>
        <path class="cls-4" d="M23.79,31.53c-1.1-.62.09-3.47-.79-4.18a2.63,2.63,0,0,0-2.52-.27c-1.5.63,0,4.08-1.46,4.71-.29.12-.35.47.21,1.38a4.82,4.82,0,0,0,2.49,2.29A4.85,4.85,0,0,0,24.19,33,1.14,1.14,0,0,0,23.79,31.53Z" transform="translate(-5.85 0)"/>
      </g>
      <path class="cls-5" d="M21.72,35.46c-.34,0-3.17-.76-3.17-.76l.25,2.63a28.74,28.74,0,0,1,2.91-1.72,28.51,28.51,0,0,1,3,1.64l0-2.69A23.91,23.91,0,0,1,21.72,35.46Z" transform="translate(-5.85 0)"/>
      <path class="cls-6" d="M23.79,31.53a2.22,2.22,0,0,1,0,2.15,8.05,8.05,0,0,1-2,1.78l2.8,1.21S25.21,32.2,23.79,31.53Z" transform="translate(-5.85 0)"/>
      <path class="cls-6" d="M19.73,33.89a2.73,2.73,0,0,1-.64-2.21c-1.37.93-.16,5-.16,5l2.79-1.19A5.53,5.53,0,0,1,19.73,33.89Z" transform="translate(-5.85 0)"/>
      <path class="cls-7" d="M22.5,36.8c-.15,0-.16,1.68.05,1.73a22.69,22.69,0,0,0,2.62,0,3.45,3.45,0,0,0,0-1.66A20.15,20.15,0,0,0,22.5,36.8Z" transform="translate(-5.85 0)"/>
      <path class="cls-8" d="M25,37.09c-.13-.05-2.32,0-2.32,0s-.14.65,0,.67,2.16,0,2.27,0S25.1,37.13,25,37.09Z" transform="translate(-5.85 0)"/>
    </g>
    <g>
      <path class="cls-9" d="M9.9,7.59c-1.76,4.86-1.86,8.6-3,16.26C6.62,25.78,5.45,28.78,6,30c.76,1.63,2.61.66,4.16,1.14S13.67,32.35,14,30a3.87,3.87,0,0,1,.2,1.43c1.29,0,5.68-1.46,8.67-1.39,2.66.06,8.2,2.4,9.27-.69.8-2.3,1.46-12.43,1-15.74,0-.2.78-.49.8-.67.07-.59.12-1,.12-1.17C34.65-1.42,14.29-4.52,9.9,7.59Z" transform="translate(-5.85 0)"/>
      <path class="cls-10" d="M20.35,5.68c-5.14,1-8.78,8.42-7.84,15.39C13.2,26.25,18,31.34,23,31.34c5.3,0,9.47-8.11,8.71-14.26C30.84,10.1,27.56,4.27,20.35,5.68Z" transform="translate(-5.85 0)"/>
      <path class="cls-11" d="M29.39,7.63A24.17,24.17,0,0,0,20.8,5.78c-1.88,0-4.4-.17-6.16.58a6.36,6.36,0,0,0-4.13,5.55c-.25,1.82,1.56,3.56,3,4.69,1-1,.53-2.28.5-3.43.24,1.31,1.3.93,2.42,1s2.72.49,3.63,0c.41-.22.48-.52.64-1a1.59,1.59,0,0,0,.56.45,6.24,6.24,0,0,0,2.29.25,9.21,9.21,0,0,0,3.31-.2c.46-.16.74-.3.87-.82.18,1.11,1.85.91,2.76.88C32.05,13.69,30.92,8.24,29.39,7.63Z" transform="translate(-5.85 0)"/>
      <path class="cls-10" d="M10.72,18.17c-2.53.69-1.52,4.4.54,5.15a4.89,4.89,0,0,0,2,.22l0-.06c.31-.48-.11-3.18-.27-3.69C12.69,18.51,11.93,17.84,10.72,18.17Z" transform="translate(-5.85 0)"/>
      <path class="cls-12" d="M11.6,19.53c-.56-.26-2,.21-1.32,1.33.36-1,1-.36.88.38-.06.49-.59.5-.07,1.13a.93.93,0,0,0,1.15,0C13.16,21.82,12.29,19.86,11.6,19.53Z" transform="translate(-5.85 0)"/>
      <path class="cls-9" d="M20.48,11.6v0S20.48,11.58,20.48,11.6Z" transform="translate(-5.85 0)"/>
      <path class="cls-9" d="M27.83,4.26c-2.84-2.43-6.55-2.42-10-1.82a15.52,15.52,0,0,0-4.45,1.25c-1,.58-1.46,2-1.94,3a18.8,18.8,0,0,0-1.31,6.16,18.93,18.93,0,0,0,.45,3.31c.1,1.06.58,2,.78,3A9.53,9.53,0,0,1,11,24c-.22.65-.73,1.19-.26,1.77s1.28.67,1.67.25A19.52,19.52,0,0,0,13.52,22a26.69,26.69,0,0,0,.24-5.72,13.8,13.8,0,0,1,.56-5.11,17.45,17.45,0,0,0,.26,2.34c1.74-.21,3.59-.06,5.34-.13a6.61,6.61,0,0,0,.57-1.78v0s0,0,0,0v0c.12.32.24,1,.46,1.19.42.34,1.64.14,2.15.17.95.06,2.57.4,3.49,0,.59-.25.68-.81.82-1.42h0s0,0,0,0h0c.19.32.27.87.57,1a6.16,6.16,0,0,0,1.73.31,11.93,11.93,0,0,0,2.07,0c1.37-.25.39-2.69,0-3.57A14.36,14.36,0,0,0,27.83,4.26Z" transform="translate(-5.85 0)"/>
      <path class="cls-9" d="M27.41,11.58h0S27.41,11.54,27.41,11.58Z" transform="translate(-5.85 0)"/>
      <path class="cls-13" d="M19.5,1.16c-2.65.28-6.41,2.41-7.59,4.8A42.94,42.94,0,0,0,8,23.35c0,1.52-.92,3.82-.84,5.2s.7,1.31,1.71.59c1.32-.95-.14-5.88.11-9,.19-2.41,2.17-2.53,2.83-5.72a31.26,31.26,0,0,1-1.54,14.59c5.61-9.48,1.2-14.41,4.14-20.76a4.84,4.84,0,0,0,5.42,1.07,8.38,8.38,0,0,1,5.8-.16A8.8,8.8,0,0,0,33,9.28C31.56,2.52,24.3.65,19.5,1.16Z" transform="translate(-5.85 0)"/>
    </g>
    <g>
      <path class="cls-14" d="M29.35,19.26c-.8-.13-1.9,0-1.37,1.25.28.66,3.39,1.61,3.23.15a1.13,1.13,0,0,0-.11-.41A2.3,2.3,0,0,0,29.35,19.26Z" transform="translate(-5.85 0)"/>
      <path class="cls-14" d="M18.74,19.67a2.41,2.41,0,0,0-2.11-.09c-.81.25-1.79.89-.7,1.81.58.49,3.94-.09,3.11-1.39A1.6,1.6,0,0,0,18.74,19.67Z" transform="translate(-5.85 0)"/>
      <path class="cls-12" d="M24,20.45c-.66-.05-.65-.41-1.12-.14s-.13,1.33,1,1.38,1.73-.82,1.5-1.18S24.74,20.5,24,20.45Z" transform="translate(-5.85 0)"/>
      <path class="cls-14" d="M23.84,18.51c-.55,0-1.35,1.85-1.08,2.13a2.16,2.16,0,0,0,2.6-.11C25.53,20.35,24.45,18.5,23.84,18.51Z" transform="translate(-5.85 0)"/>
      <path class="cls-9" d="M30,16.43c-1.83-.79-3.5,1.48-2.18,2.66A2.4,2.4,0,0,1,30.44,19,1.64,1.64,0,0,0,30,16.43Z" transform="translate(-5.85 0)"/>
      <path class="cls-15" d="M29.29,16.7c-.85.27-.45,1.91.42,1.33C30.34,17.62,30.05,16.46,29.29,16.7Z" transform="translate(-5.85 0)"/>
      <path class="cls-9" d="M16.41,16.58a1.63,1.63,0,0,0-.33,2.59,2.38,2.38,0,0,1,2.59,0C20,18,18.21,15.74,16.41,16.58Z" transform="translate(-5.85 0)"/>
      <path class="cls-15" d="M17.5,16.8c-.76-.21-1,.95-.38,1.35C18,18.7,18.36,17,17.5,16.8Z" transform="translate(-5.85 0)"/>
      <path class="cls-9" d="M18.89,13.94a10.46,10.46,0,0,0-2.66.41,4.58,4.58,0,0,0-1.62.89.74.74,0,0,0-.28.52c.15,0,.26-.09.39-.14a8.19,8.19,0,0,1,2.08-.43c.55-.06,1.09-.07,1.64-.15.36,0,.87,0,1-.4S19.38,13.92,18.89,13.94Z" transform="translate(-5.85 0)"/>
      <path class="cls-16" d="M29.91,14.2a9.86,9.86,0,0,0-2.59-.35c-.48,0-.78.22-.58.67s.65.33,1,.38c.53.06,1.06.07,1.59.12a8.1,8.1,0,0,1,2,.38c.13,0,.23.14.38.13,0-.17-.13-.38-.27-.5A4.55,4.55,0,0,0,29.91,14.2Z" transform="translate(-5.85 0)"/>
      <path class="cls-17" d="M29.68,16.11a1.9,1.9,0,0,0-2.17,1.36,1.72,1.72,0,0,1,1.92-.58,3.09,3.09,0,0,0,3.8-.71C31.45,17,30.54,16.27,29.68,16.11Z" transform="translate(-5.85 0)"/>
      <path class="cls-17" d="M16.83,16.3c-.86.16-1.77.92-3.55.1a3.09,3.09,0,0,0,3.81.67,1.71,1.71,0,0,1,1.92.57A1.89,1.89,0,0,0,16.83,16.3Z" transform="translate(-5.85 0)"/>
      <g>
        <g class="cls-18">
          <path class="cls-19" d="M16.36,22.9c2.88,4.25,4.63,5,6.83,5.11a3.73,3.73,0,0,0,4.08-3,7.82,7.82,0,0,1,2.08-2.34c-1.71.4-3.41.22-6,.34C21.2,23.12,18.06,23.76,16.36,22.9Z" transform="translate(-5.85 0)"/>
        </g>
        <path class="cls-20" d="M17.67,23.63a6.45,6.45,0,0,0,5.17,2.88c2.2,0,3.64-.69,4-1.67a2.82,2.82,0,0,1,1.37-1.48A23.52,23.52,0,0,1,17.67,23.63Z" transform="translate(-5.85 0)"/>
        <path class="cls-21" d="M19,23.87s.11.87,1.34,1.19a12.31,12.31,0,0,0,5,.14C26.46,25,27,23.63,27,23.63A25.31,25.31,0,0,1,19,23.87Z" transform="translate(-5.85 0)"/>
        <path class="cls-21" d="M23.7,25.33A7.17,7.17,0,0,1,20,24.86c-.57-.33-.61,0-.49.26,0,0,.52,1.19,3.13,1.43s3.79-1.21,3.5-1.46S25.15,25.26,23.7,25.33Z" transform="translate(-5.85 0)"/>
        <path class="cls-22" d="M19,23.87a1.36,1.36,0,0,0,.32.61s5.87-.55,7.28-.08a3,3,0,0,0,.47-.77A29.18,29.18,0,0,1,19,23.87Z" transform="translate(-5.85 0)"/>
        <path class="cls-22" d="M20.5,25a6,6,0,0,0,4.63.13A8.86,8.86,0,0,1,20.5,25Z" transform="translate(-5.85 0)"/>
      </g>
    </g>
  </g>
</svg>
