<svg xmlns="http://www.w3.org/2000/svg" xmlns:xlink="http://www.w3.org/1999/xlink" viewBox="0 0 32.52 40.1">
  <defs>
    <style>
      .cls-1 {
        isolation: isolate;
      }

      .cls-2 {
        fill: #ffbc82;
      }

      .cls-3 {
        fill: #3a3a4a;
      }

      .cls-4 {
        fill: url(#linear-gradient);
      }

      .cls-5 {
        fill: #fff;
        opacity: 0.07;
      }

      .cls-6 {
        fill: #fff9f0;
      }

      .cls-7 {
        fill: #d9af96;
        opacity: 0.5;
        mix-blend-mode: multiply;
      }

      .cls-8 {
        fill: #4f2619;
      }

      .cls-9 {
        fill: #b54d26;
      }

      .cls-17, .cls-9 {
        opacity: 0.3;
      }

      .cls-10 {
        fill: #2f2120;
      }

      .cls-11 {
        fill: #7d4732;
      }

      .cls-12 {
        fill: #b08a72;
      }

      .cls-13 {
        fill: #ff7752;
      }

      .cls-14 {
        fill: #ff3b3b;
        opacity: 0.8;
      }

      .cls-15 {
        fill: #a80a0a;
      }

      .cls-16 {
        fill: #e8dac5;
      }

      .cls-17, .cls-20 {
        fill: #d14f2e;
      }

      .cls-18 {
        fill: #121b21;
      }

      .cls-19 {
        fill: #784430;
      }

      .cls-20 {
        opacity: 0.4;
      }
    </style>
    <linearGradient id="linear-gradient" x1="4113.69" y1="30.51" x2="4113.69" y2="32.74" gradientTransform="translate(-4092.82)" gradientUnits="userSpaceOnUse">
      <stop offset="0" stop-color="#e88958"/>
      <stop offset="0.34" stop-color="#f49d62"/>
      <stop offset="0.69" stop-color="#fcab69"/>
      <stop offset="1" stop-color="#ffb06b"/>
    </linearGradient>
  </defs>
  <title>1</title>
  <g class="cls-1">
    <g id="레이어_1" data-name="레이어 1">
      <g>
        <g>
          <path class="cls-2" d="M16,40.1c.2-1.68,0-4.48,1.71-5.06.56-.19,1.44-1.77,1.15-2.3s-.59-.78-1.14-.56c-3,1.22-3.73,3.67-3.93,7.92Z" transform="translate(-3.81)"/>
          <path class="cls-2" d="M26.2,40.1c-.19-1.68,0-4.48-1.71-5.06-.55-.19-1.44-1.77-1.14-2.3s.59-.78,1.14-.56c3,1.22,3.73,3.67,3.93,7.92Z" transform="translate(-3.81)"/>
          <path class="cls-3" d="M24.28,32a11,11,0,0,0-6.57,0c-1.45.63-1.92,1.64-.92,4.73a15.64,15.64,0,0,1,.76,3.36h7a19.8,19.8,0,0,1,.65-3.1C25.91,34.22,26,32.53,24.28,32Z" transform="translate(-3.81)"/>
          <path class="cls-4" d="M23.08,31.85c-.45-.57-.21-1.68-.14-2.77.14-2.47-4.1-2.56-4.1.13,0,1.2.14,2.14-.15,2.49-1.47,1.81,2.4,3,2.4,3S24.32,33.4,23.08,31.85Z" transform="translate(-3.81)"/>
          <path class="cls-5" d="M17.91,36.21c.29.91,1.76,1.15,3,1.13,2.53,0,3.47-1,3.05-2.1-.12-.31-.66-.51-1.31-.28a7.05,7.05,0,0,1-3.89-.07C18.09,34.72,17.69,35.52,17.91,36.21Z" transform="translate(-3.81)"/>
          <g>
            <path class="cls-6" d="M20.26,33a.6.6,0,0,0,.6.61.61.61,0,0,0,.6-.61.6.6,0,0,0-.6-.6A.6.6,0,0,0,20.26,33Z" transform="translate(-3.81)"/>
            <path class="cls-6" d="M19,32.64a.53.53,0,1,0,.53-.54A.53.53,0,0,0,19,32.64Z" transform="translate(-3.81)"/>
            <path class="cls-6" d="M18.33,31.76a.44.44,0,0,0,.44.44.44.44,0,0,0,0-.87A.44.44,0,0,0,18.33,31.76Z" transform="translate(-3.81)"/>
            <path class="cls-6" d="M18.39,31.05a.31.31,0,1,0,.31-.31A.31.31,0,0,0,18.39,31.05Z" transform="translate(-3.81)"/>
            <path class="cls-6" d="M22.76,32.64a.54.54,0,1,1-.53-.54A.53.53,0,0,1,22.76,32.64Z" transform="translate(-3.81)"/>
            <path class="cls-6" d="M23.38,31.76a.43.43,0,0,1-.43.44.44.44,0,1,1,0-.87A.43.43,0,0,1,23.38,31.76Z" transform="translate(-3.81)"/>
            <path class="cls-6" d="M23.32,31.05a.31.31,0,0,1-.31.31.31.31,0,0,1,0-.62A.31.31,0,0,1,23.32,31.05Z" transform="translate(-3.81)"/>
          </g>
        </g>
        <g>
          <path class="cls-7" d="M11.48,22.87a2.89,2.89,0,0,1-3.26-2.72c-.4-3.1.71-4.09,2-4S11.48,22.87,11.48,22.87Z" transform="translate(-3.81)"/>
          <path class="cls-8" d="M21.47,22.7c3.1-.22,4.18,3.67,5.43,4C41,30.68,39.22,3.82,22.17,0,.05,1.76-1.86,31.22,15.24,27,18.37,26.2,16.53,23.07,21.47,22.7Z" transform="translate(-3.81)"/>
          <path class="cls-6" d="M28.71,21.84a2.14,2.14,0,0,0-1.77,2.45,2.2,2.2,0,0,0,2.2,2.12A2.13,2.13,0,0,0,30.9,24,2.19,2.19,0,0,0,28.71,21.84Zm.36,3.77a1.59,1.59,0,0,1-1.59-1.54,1.54,1.54,0,0,1,1.28-1.77,1.58,1.58,0,0,1,1.59,1.53A1.55,1.55,0,0,1,29.07,25.61Z" transform="translate(-3.81)"/>
          <path class="cls-2" d="M30.74,17.19C30.31,9.88,27.5,5.51,20.3,5.73c-7.49.24-10,5.2-9.76,12.62S16,30.67,21.57,31C25.81,31.25,31.17,24.61,30.74,17.19Z" transform="translate(-3.81)"/>
          <path class="cls-9" d="M22.14,12c-3.45,3.23-8.38,2.41-11.19,5.13-.43.42-.22-.56-.67-1-.68-.71.47-2.76.84-3.4a16.54,16.54,0,0,1,7.81-6.49,16.3,16.3,0,0,1,3.2-1,7,7,0,0,1,5.15.54A7.44,7.44,0,0,1,31,12.44c-.06.89,0,4.12-.6,2.4-.74-2.12-5.64-5.42-5.37-6.75A21,21,0,0,1,22.14,12Z" transform="translate(-3.81)"/>
          <path class="cls-10" d="M15.4,19.23a2.1,2.1,0,0,0-1.5,0c-1.07-.85-.28-3.7,1.26-3.12C16.3,16.51,16.38,18.62,15.4,19.23Z" transform="translate(-3.81)"/>
          <path class="cls-11" d="M13.22,14.16A2.21,2.21,0,0,1,15,12.61,2,2,0,0,1,17,13.77,3,3,0,0,0,13.22,14.16Z" transform="translate(-3.81)"/>
          <path class="cls-12" d="M15.46,17.35c.57-.08.75.84.27,1.08C15.06,18.76,14.82,17.45,15.46,17.35Z" transform="translate(-3.81)"/>
          <path class="cls-8" d="M17.62,2.05a9.44,9.44,0,0,1,5.1.46c2.22.8,4.5,1.75,6.07,3.59a12.34,12.34,0,0,1,2.53,6c.2,1.19-.6,3.24-.63,4.41,0-4.72-5.26-6-5.41-9.21a15.33,15.33,0,0,1-8.87,6.88c-5.23,1.52-5.87,2.83-6.27,5.18-1.71-2.18-.51-6.76-.29-8.07C10.56,7.12,13.25,2.91,17.62,2.05Z" transform="translate(-3.81)"/>
          <path class="cls-13" d="M29.59,20.66a1.07,1.07,0,0,1,.12.37c.19,1.33-2.62.73-2.9.14-.52-1.11.46-1.32,1.18-1.27A1.92,1.92,0,0,1,29.59,20.66Z" transform="translate(-3.81)"/>
          <path class="cls-13" d="M15.86,20.57a1.18,1.18,0,0,1,.19.39c.44,1.51-2.75,1.47-3.16.85-.76-1.17.28-1.64,1.08-1.75A2,2,0,0,1,15.86,20.57Z" transform="translate(-3.81)"/>
          <g>
            <path class="cls-14" d="M21.65,23c-2.09,0-5.17.63-6.81-.34,2.69,4.64,4.37,5.51,6.52,5.68,2.69.2,3.64-1.67,4.06-3.08a8.1,8.1,0,0,1,2.1-2.46C25.84,23.21,24.19,23,21.65,23Z" transform="translate(-3.81)"/>
            <path class="cls-15" d="M16.1,23.5a20.86,20.86,0,0,0,10.31,0A2.93,2.93,0,0,0,25,25.06c-.41,1-1.84,1.75-4,1.68A6.28,6.28,0,0,1,16.1,23.5Z" transform="translate(-3.81)"/>
            <path class="cls-6" d="M17.34,23.79a1.66,1.66,0,0,0,1.27,1.32,10.72,10.72,0,0,0,4.87.29c1.15-.17,1.74-1.63,1.74-1.63A22.49,22.49,0,0,1,17.34,23.79Z" transform="translate(-3.81)"/>
            <path class="cls-6" d="M17.88,25.15c-.12-.24-.06-.64.48-.26a6.41,6.41,0,0,0,3.57.61c1.42,0,2.14-.46,2.42-.19s-1,1.78-3.46,1.47S17.88,25.15,17.88,25.15Z" transform="translate(-3.81)"/>
            <path class="cls-16" d="M17.63,24.46s5.74-.42,7.1.12a3,3,0,0,0,.49-.81,25.76,25.76,0,0,1-7.88,0A1.62,1.62,0,0,0,17.63,24.46Z" transform="translate(-3.81)"/>
            <path class="cls-16" d="M18.82,25.08a7.89,7.89,0,0,0,4.51.27A5.32,5.32,0,0,1,18.82,25.08Z" transform="translate(-3.81)"/>
          </g>
          <path class="cls-17" d="M23.08,20.22c.17.21-.39.75-1.06.79s-1.32-.65-1-.83.52,0,1,0S22.87,20,23.08,20.22Z" transform="translate(-3.81)"/>
          <path class="cls-10" d="M28.73,16.1c.83.53.77,2.18.17,2.95a1.83,1.83,0,0,0-1.36.22C25.82,18.75,27.18,15.11,28.73,16.1Z" transform="translate(-3.81)"/>
          <path class="cls-12" d="M28.66,17.18c.54,0,.61.95.13,1.13C28.13,18.56,28,17.19,28.66,17.18Z" transform="translate(-3.81)"/>
          <path class="cls-18" d="M32.15,16.59a2.93,2.93,0,0,1-3.61.27,1.3,1.3,0,0,0-1.65.31s.47-1.69,1.88-1.15C29.54,16.32,30.41,17.18,32.15,16.59Z" transform="translate(-3.81)"/>
          <path class="cls-18" d="M10.49,16.8a3.21,3.21,0,0,0,3.78.13,1.47,1.47,0,0,1,1.72.14s-.38-1.68-1.87-.92A4.55,4.55,0,0,1,10.49,16.8Z" transform="translate(-3.81)"/>
          <path class="cls-19" d="M28.2,3A14.78,14.78,0,0,1,33.67,9.3s-4,3.44-7,0a4.37,4.37,0,0,1-1.09-2.8c-2.5,3.64-6.33,6.22-9.06,6.15a15,15,0,0,1-4.16-.87c-1.14-.41-2.2-1-3.32-1.48-.21-.08-2.42-.87-2.54-.68,0,0,2.66-4.06,5.7-5.85C12.17,3.81,21.86,8.82,28.2,3Z" transform="translate(-3.81)"/>
          <path class="cls-19" d="M30.22,14.16a2.23,2.23,0,0,0-1.69-1.59,2,2,0,0,0-2.11,1.11A3,3,0,0,1,30.22,14.16Z" transform="translate(-3.81)"/>
          <path class="cls-2" d="M9.8,22a2.8,2.8,0,0,0,1.61.17l0-.08c.24-.55-.19-3.31-.31-3.88-.31-1.43-.82-2.42-1.77-2C7.37,17.07,8.17,21.21,9.8,22Z" transform="translate(-3.81)"/>
          <path class="cls-20" d="M10.8,20.57c.52-.73-.31-2.74-.8-3s-1.26.44-.68,1.57c.09-1.15.59-.49.62.31,0,.53-.31.6.11,1.22C10.28,21,10.64,20.8,10.8,20.57Z" transform="translate(-3.81)"/>
          <path class="cls-6" d="M10.74,22.25a2.12,2.12,0,0,0-1.93,2.31,2.18,2.18,0,0,0,2,2.27,2.12,2.12,0,0,0,1.93-2.31A2.18,2.18,0,0,0,10.74,22.25ZM10.83,26a1.57,1.57,0,0,1-1.47-1.65,1.53,1.53,0,0,1,1.4-1.67,1.57,1.57,0,0,1,1.47,1.65A1.54,1.54,0,0,1,10.83,26Z" transform="translate(-3.81)"/>
        </g>
      </g>
    </g>
  </g>
</svg>
