<svg id="레이어_1" data-name="레이어 1" xmlns="http://www.w3.org/2000/svg" viewBox="0 0 27.25 40.02">
  <defs>
    <style>
      .cls-1 {
        fill: #e8e8e8;
      }

      .cls-2 {
        fill: #e62628;
      }

      .cls-3 {
        opacity: 0.1;
      }

      .cls-4 {
        fill: #f5f5f5;
      }

      .cls-5 {
        fill: #f2a66e;
      }

      .cls-6 {
        fill: #1f1a17;
      }

      .cls-7 {
        fill: #ffc490;
      }

      .cls-8 {
        fill: #d14f2e;
      }

      .cls-11, .cls-8 {
        opacity: 0.4;
      }

      .cls-9 {
        fill: #ffd1a7;
      }

      .cls-10 {
        fill: #a88888;
      }

      .cls-11, .cls-14 {
        fill: #bc551e;
      }

      .cls-12 {
        fill: #ff9563;
      }

      .cls-13 {
        fill: #f5ae79;
      }

      .cls-14 {
        opacity: 0.3;
      }

      .cls-15 {
        fill: #8f322d;
      }

      .cls-16 {
        fill: #fff3e2;
      }

      .cls-17 {
        fill: #e8dac5;
      }

      .cls-18 {
        fill: #332823;
      }
    </style>
  </defs>
  <title>1</title>
  <g>
    <g>
      <path class="cls-1" d="M16.41,31.46c-2.88.64-5.9,3.59-6.38,8.56H14.9c.15-2.58.41-5.32,1-6Z" transform="translate(-6.97 0)"/>
      <path class="cls-1" d="M26.53,31.46l.5,2.59c.59.65.85,3.39,1,6H32.9C32.42,35.05,29.4,32.1,26.53,31.46Z" transform="translate(-6.97 0)"/>
      <path class="cls-1" d="M28.25,33.11c-1.45-3.33-10.58-4-13.26-.4-1.15,1.54-.89,4.58-.31,7.31H28.2C28.73,37.57,29,34.87,28.25,33.11Z" transform="translate(-6.97 0)"/>
      <path class="cls-2" d="M22.9,34.84a1.44,1.44,0,0,0-1.65-.74A1.5,1.5,0,0,0,20,35.26l.9.92-1,3.84h3.43l-1-4Z" transform="translate(-6.97 0)"/>
      <path class="cls-3" d="M16.82,32.89a6.35,6.35,0,0,0,2.76,3.78l2-2.06,2.09,2c2-1.94,2.43-2.33,2.58-4S16.27,30.54,16.82,32.89Z" transform="translate(-6.97 0)"/>
      <path class="cls-4" d="M16.88,31.1c-1,2.74,2.56,5,2.56,5l2.1-1.45,2,1.37s3.89-2.23,2.42-5.42C24.6,27.69,18,27.92,16.88,31.1Z" transform="translate(-6.97 0)"/>
      <path class="cls-5" d="M20,27.83a3.06,3.06,0,0,0-2.24,2.8,2.36,2.36,0,0,0,.64,2.1,4.2,4.2,0,0,0,1.71,1c.48.15,1.31.71,1.46.72s.33-.25.78-.48a4.41,4.41,0,0,0,2-1.5c.53-1.05,1-3.11,0-3.93A5.89,5.89,0,0,0,20,27.83Z" transform="translate(-6.97 0)"/>
    </g>
    <g>
      <path class="cls-6" d="M34.22,7.91a2,2,0,0,1-1.43.4A2.47,2.47,0,0,0,34,5.85C31.71,4,26.29.33,20.22,0c-3.74-.19-7.63.78-9.69,4.16a7.57,7.57,0,0,0-1,2.36,3.37,3.37,0,0,1-.6-1.87,2.49,2.49,0,0,0,0,3.07A2.76,2.76,0,0,0,7,8.56a3.82,3.82,0,0,1,1.56.23,4.44,4.44,0,0,0-.61,2.57,22,22,0,0,0,.53,5c.41,1.56,1,5.39,3.33,4.9,3.24-.66,6.77-2.44,10.1-1.18,2.33.88,4.44,2.33,6.8,3.2,2.1.78,4.14,2.82,4.73-.07a19.13,19.13,0,0,0,.19-6.83A16.37,16.37,0,0,0,32,10.65,3.25,3.25,0,0,0,34.22,7.91Z" transform="translate(-6.97 0)"/>
      <path class="cls-7" d="M20.89,5.56C14.75,6,9.47,12.75,10,20.25S15.56,32.8,22.71,32.73c7.91-.07,10.95-6.62,10.45-14.12S27,5.14,20.89,5.56Z" transform="translate(-6.97 0)"/>
      <path class="cls-8" d="M32,17.87c-.26-.13-2.14-.36-1.68.34a5,5,0,0,0,1.36.7c.34.06.4-.06.16-.3s-.87-.33-1-.63C31.06,18,31.84,18.3,32,17.87Z" transform="translate(-6.97 0)"/>
      <path class="cls-8" d="M15.83,19.21c.16.41.91,0,1.18,0-.13.31-.77.47-1,.71s-.15.37.18.28a4.64,4.64,0,0,0,1.3-.8C17.93,18.68,16.08,19.06,15.83,19.21Z" transform="translate(-6.97 0)"/>
      <path class="cls-6" d="M18.59,17c-1.37-.6-2.25,1.84-1.32,2.65a1.93,1.93,0,0,1,1.36.12A1.68,1.68,0,0,0,18.59,17Z" transform="translate(-6.97 0)"/>
      <path class="cls-8" d="M24.42,20.4c-.76,0-1.08-.27-1.61,0s.21,1.49,1.57,1.39,2-1.23,1.68-1.53S25.27,20.36,24.42,20.4Z" transform="translate(-6.97 0)"/>
      <path class="cls-9" d="M23.74,16.27c-.7.06-1.16,1.05-1.25,2.32s0,1.88.29,2.13A2.71,2.71,0,0,0,26,20.45C26.94,19.47,25.4,16.14,23.74,16.27Z" transform="translate(-6.97 0)"/>
      <path class="cls-6" d="M30.09,16.17c-1.46-.64-2.32,2.43-.74,2.69a1.73,1.73,0,0,1,1.16-.45A1.59,1.59,0,0,0,30.09,16.17Z" transform="translate(-6.97 0)"/>
      <path class="cls-10" d="M17.88,17.5c-.56.19-.14,1.28.41.89C18.68,18.1,18.38,17.34,17.88,17.5Z" transform="translate(-6.97 0)"/>
      <path class="cls-10" d="M29.42,16.74c-.52.17-.13,1.19.38.82S29.89,16.58,29.42,16.74Z" transform="translate(-6.97 0)"/>
      <path class="cls-7" d="M8.91,18.5c-3,.76-1.93,4.6.52,5.34a6.7,6.7,0,0,0,2.44.2l.05-.06c.38-.51-.2-3.06-.38-3.59C11.11,19.07,10.37,18.13,8.91,18.5Z" transform="translate(-6.97 0)"/>
      <path class="cls-11" d="M18.27,9.13c-2.37.24-5.4,1.27-5.95,3.93a22.17,22.17,0,0,0-.52,3.16,6.49,6.49,0,0,0,0,1,30.59,30.59,0,0,0,.91,3.85c.35-6,1.78-8,2.09-8.86a47.25,47.25,0,0,0,13.45.44c1-.12,3.45-.36,2.23-1.92C29.7,9.68,21.63,8.8,18.27,9.13Z" transform="translate(-6.97 0)"/>
      <path class="cls-8" d="M10.52,19.93c-.78-.37-2.88-.12-2.1,1.16.66-1,1.46-.2,1.21.55-.17.51-.93.43-.27,1.18a1.74,1.74,0,0,0,1.64.23C12.41,22.6,11.46,20.39,10.52,19.93Z" transform="translate(-6.97 0)"/>
      <path class="cls-6" d="M27.53,5.13c-3.4-1.59-8.64-2-12.31-.19a7.63,7.63,0,0,0-2.85,2.44c-1.59,2.31-3.6,6.12-2.78,8.92.18.63.08,1.52.3,2.16.55,1.55,1.39,7.61,2.72,7.64.5,0,1.92.34,1.68-.12-2.13-4-1.59-11,.18-14.34C25.45,13,31.7,11.46,31.29,9,31,7.28,29,5.81,27.53,5.13Z" transform="translate(-6.97 0)"/>
      <path class="cls-12" d="M19.21,20.81a2.92,2.92,0,0,0-2.65-.11c-1,.34-2.25,1.18-.87,2.36.73.64,5-.16,3.9-1.83A1.72,1.72,0,0,0,19.21,20.81Z" transform="translate(-6.97 0)"/>
      <path class="cls-12" d="M30,19.5a2.21,2.21,0,0,0-1.15.7c-.42.54-.41,1.24.51,1.69s2.8.52,3.26-.65C33.28,19.64,31,19.25,30,19.5Z" transform="translate(-6.97 0)"/>
      <path class="cls-13" d="M23.71,29.14a1.73,1.73,0,0,0-1.26,1.72c0-.13.48-.88,1.83-1.09a3.05,3.05,0,0,1,2.42.7C26.79,29.21,24.8,28.78,23.71,29.14Z" transform="translate(-6.97 0)"/>
      <path class="cls-6" d="M28.92,13c-.85.1-1.83.78-2.69.57a1.64,1.64,0,0,0,1.5,1.5,2.81,2.81,0,0,0,1.72-.37,4.69,4.69,0,0,1,.69-.26,3.4,3.4,0,0,1,1.19,0,1.17,1.17,0,0,0-.15-.42A2.11,2.11,0,0,0,28.92,13Z" transform="translate(-6.97 0)"/>
      <path class="cls-6" d="M19.52,14c-.53-.1-1.08-.38-1.6-.43-1.32-.13-2.66,1.63-1.82,2.78.17-.15.32-.35.48-.52.82-.87,2-.21,3,0,1.32.23,1.94-.6,1.89-1.87A3.69,3.69,0,0,1,19.52,14Z" transform="translate(-6.97 0)"/>
      <g>
        <path class="cls-14" d="M29.09,22.14c.14-.05.54.37.55.51s-.29.45-.49.56a7.32,7.32,0,0,1-2.28.55,21,21,0,0,1-5.65.26,12.46,12.46,0,0,1-3.14-.72l.1-.08c.52-.32,1.3-.37,1.08-.47a3.68,3.68,0,0,0-3.46.78,2.4,2.4,0,0,1,2.83.9c1.54,2.66,3.13,4.44,5.71,4.4,3.37-.06,4.08-2.31,4.49-3.81a3,3,0,0,1,.81-1.38,4.44,4.44,0,0,1,1.43-1.14,2.9,2.9,0,0,1,1.19-.25C31.52,21.54,29.93,21.8,29.09,22.14Z" transform="translate(-6.97 0)"/>
        <path class="cls-15" d="M18.83,23.92s1.71,3.91,5.68,3.6c2.7-.21,3.78-1.55,4.08-2.7a2.35,2.35,0,0,1,1-1.56A15.64,15.64,0,0,1,18.83,23.92Z" transform="translate(-6.97 0)"/>
        <path class="cls-16" d="M20.16,24.29A2.12,2.12,0,0,0,21.55,26a8.33,8.33,0,0,0,5.16.05c1.2-.35,1.77-2.28,1.77-2.28A18.13,18.13,0,0,1,20.16,24.29Z" transform="translate(-6.97 0)"/>
        <path class="cls-16" d="M25.3,26.09a12.31,12.31,0,0,1-4-.38c-.68-.24-.66.12-.52.43,0,0,.31,1.3,3.44,1.43,2.73.11,3.8-1.57,3.48-1.9S27,26,25.3,26.09Z" transform="translate(-6.97 0)"/>
        <path class="cls-17" d="M20.15,24.27a1.8,1.8,0,0,0,.52,1.13s5.72-.79,7.19-.34a4.15,4.15,0,0,0,.62-1.31A20.18,20.18,0,0,1,20.15,24.27Z" transform="translate(-6.97 0)"/>
        <path class="cls-17" d="M21.65,25.7a8,8,0,0,0,5.66-.08A12.32,12.32,0,0,1,21.65,25.7Z" transform="translate(-6.97 0)"/>
      </g>
      <path class="cls-14" d="M30.32,20.44a1.54,1.54,0,0,0-.72.24c-.38.3.13.2.35.32.5.29.08.94-.35,1-.76.05-1.51.1-2.27.17-2.3.2-4.61.52-6.92.5-.52,0-1.5.16-1.93-.17-.65-.5.89-1,.08-1.1-.54-.09-1.26.61-1.46,1.06a1.27,1.27,0,0,0-.08.23c-.18,1,.64,1.53,1.39,1.94a3.57,3.57,0,0,0,2.11.3,16.15,16.15,0,0,1,2.2,0,15.87,15.87,0,0,0,2.18,0c.72-.05,1.42-.21,2.14-.3,1.27-.18,2.37-.11,3.4-1a2,2,0,0,0,.88-1.87C31.28,21.11,31.05,20.43,30.32,20.44Z" transform="translate(-6.97 0)"/>
      <path class="cls-6" d="M29.4,20.79c.48-.3.94,0,.92.35,0,.53-.69.48-1.06.44-1.17-.11-2.4-.54-3.6-.16-1.55.49-2.61-.07-4.22.18a22.4,22.4,0,0,0-2.38.61c-.39.11-.91.18-1-.25a.46.46,0,0,1,.75-.41c-.18-.37-.9-.47-1.24-.34a.94.94,0,0,0-.6,1.18c.15.78,1.27,1.3,2,1.56a13.6,13.6,0,0,0,3.23.71,13.46,13.46,0,0,0,2.29.1,13,13,0,0,0,2.41-.3,8.58,8.58,0,0,0,2.84-1.15c.67-.45,1.69-1,1.6-2.07A1,1,0,0,0,29.4,20.79Z" transform="translate(-6.97 0)"/>
      <path class="cls-18" d="M9.05,11.07c0,.92,1.86,1.72,2.55,1.84a4,4,0,0,1-1.37.08c-.5-.06-1-.42-1.53-.38.14,1.1,1.84,1.34,2.65,1.7a3.27,3.27,0,0,1-.93.09c-.23,0-.66-.16-.89-.07-.67.27-.43,1.84-.36,2.38.12.92.71,2,1.42.4-.23,2.28,2.1,5.85,1.91,4.35a19.91,19.91,0,0,1,.11-4.94A19.13,19.13,0,0,1,13,14.15c0-.18.51-2.26.49-2.26-.45,0-.9-.05-1.35-.09C11.05,11.71,10.12,11.14,9.05,11.07Z" transform="translate(-6.97 0)"/>
      <path class="cls-18" d="M24.61,10.49a41.11,41.11,0,0,1-12,0,39,39,0,0,0,13.36,1c6.4-.88,5.48-2.87,5.48-2.87S31.46,9.51,24.61,10.49Z" transform="translate(-6.97 0)"/>
      <path class="cls-18" d="M28,21.89a4.22,4.22,0,0,0-2.52.11,2.9,2.9,0,0,1-2.48.05c-1.19-.49-3.85.39-3.49.84s1.61.22,1.61.22a.84.84,0,0,0,.55.73c.51.15,1.47-.55,1.47-.55a.69.69,0,0,0,.66.74c.69,0,1.28-.78,1.28-.78s.44.75,1.13.63a.68.68,0,0,0,.62-.74,2.39,2.39,0,0,0,1.36.26c.52-.16.22-.88.22-.88a1.61,1.61,0,0,0,1.35-.08C30.5,22.08,28.93,22.08,28,21.89Z" transform="translate(-6.97 0)"/>
      <path class="cls-18" d="M12.11,6.89c2,1.76,4.74,1.46,7.11,1.11-1.55,1.1-6.58.91-8.83.27,1.74.93,4,1.73,9.12,2A22.3,22.3,0,0,0,29.73,8.35a9.57,9.57,0,0,0,3.52-2.62c-1.3-.48-6.93-4-11-4.72C14.69-.32,9.42,4.47,12.11,6.89Z" transform="translate(-6.97 0)"/>
    </g>
  </g>
</svg>
