<svg xmlns="http://www.w3.org/2000/svg" xmlns:xlink="http://www.w3.org/1999/xlink" viewBox="0 0 31.5 39.84">
  <defs>
    <style>
      .cls-1 {
        isolation: isolate;
      }

      .cls-2 {
        fill: #e8e8e8;
      }

      .cls-3 {
        fill: #1e1e29;
      }

      .cls-4 {
        fill: #313142;
      }

      .cls-5 {
        fill: url(#linear-gradient);
      }

      .cls-6 {
        fill: #121219;
      }

      .cls-16, .cls-21, .cls-6, .cls-7 {
        opacity: 0.5;
      }

      .cls-7 {
        fill: #d9af96;
        mix-blend-mode: multiply;
      }

      .cls-8 {
        fill: #261b18;
      }

      .cls-9 {
        fill: #fff9f0;
      }

      .cls-10 {
        fill: #ffcb9e;
      }

      .cls-11, .cls-16 {
        fill: #e89361;
      }

      .cls-11 {
        opacity: 0.7;
      }

      .cls-12 {
        fill: #2f2120;
      }

      .cls-13 {
        fill: #7d4732;
      }

      .cls-14 {
        fill: #b08a72;
      }

      .cls-15 {
        fill: #ff9d73;
      }

      .cls-17 {
        fill: #121b21;
      }

      .cls-18 {
        fill: #57443a;
      }

      .cls-19 {
        fill: #784430;
      }

      .cls-20 {
        fill: #b54d26;
        opacity: 0.3;
      }

      .cls-21 {
        fill: #c20902;
      }
    </style>
    <linearGradient id="linear-gradient" x1="21.01" y1="28.75" x2="21.01" y2="31.76" gradientUnits="userSpaceOnUse">
      <stop offset="0" stop-color="#eea17a"/>
      <stop offset="1" stop-color="#ffcca6"/>
    </linearGradient>
  </defs>
  <title>1</title>
  <g class="cls-1">
    <g id="레이어_1" data-name="레이어 1">
      <g>
        <path class="cls-2" d="M17.68,31.44c-1.4.69-1.75,2.26-2.14,3.92-.16.73-.73,3.11-1.19,4.59h2.39c.52-2,1.6-6.36,2-6.54Z" transform="translate(-4.56 -0.11)"/>
        <path class="cls-2" d="M24.18,31.44l-1,2c.37.18,1.45,4.56,2,6.54h2.39c-.46-1.48-1-3.86-1.2-4.59C25.93,33.7,25.57,32.13,24.18,31.44Z" transform="translate(-4.56 -0.11)"/>
        <g>
          <path class="cls-3" d="M25.05,37.33c.52-1.6.17-4.73-.68-5.74-1.94-2.32-5.29-1.56-6.61-.33-.52.48-1.38,2.71-.65,6.19a10.37,10.37,0,0,1,.21,2.5h7.42A6.27,6.27,0,0,1,25.05,37.33Z" transform="translate(-4.56 -0.11)"/>
          <path class="cls-4" d="M21.19,36.32a.36.36,0,1,0,.34.35A.35.35,0,0,0,21.19,36.32Z" transform="translate(-4.56 -0.11)"/>
          <path class="cls-4" d="M21.23,38.25a.36.36,0,1,0,.34.36A.35.35,0,0,0,21.23,38.25Z" transform="translate(-4.56 -0.11)"/>
          <path class="cls-5" d="M23.55,30.72c-1.24-.73.1-4.09-.89-4.93a2.87,2.87,0,0,0-2.84-.32c-1.7.74,0,4.82-1.66,5.55-.32.15-.39.56.24,1.63a5.56,5.56,0,0,0,2.8,2.71,5.56,5.56,0,0,0,2.79-3A1.37,1.37,0,0,0,23.55,30.72Z" transform="translate(-4.56 -0.11)"/>
          <path class="cls-6" d="M17.64,34.46l.27,2.46s3-1.39,3.28-1.39A34.76,34.76,0,0,1,24.56,37V34.48a30.19,30.19,0,0,1-3.36.88C20.82,35.36,17.64,34.46,17.64,34.46Z" transform="translate(-4.56 -0.11)"/>
          <path class="cls-4" d="M23.58,30.74a2.7,2.7,0,0,1-.07,2.51,9.36,9.36,0,0,1-2.31,2.11l3.16,1S25.1,31.73,23.58,30.74Z" transform="translate(-4.56 -0.11)"/>
          <path class="cls-4" d="M19,33.5a3.36,3.36,0,0,1-.73-2.61c-1.54,1.11-.18,5.43-.18,5.43l3.14-1A6.24,6.24,0,0,1,19,33.5Z" transform="translate(-4.56 -0.11)"/>
        </g>
        <g>
          <path class="cls-7" d="M10.79,15.8c-1.28-.13-2.35.83-2,3.83A2.81,2.81,0,0,0,12,22.27S12.07,15.93,10.79,15.8Z" transform="translate(-4.56 -0.11)"/>
          <path class="cls-8" d="M22.34.11C.91,1.82-.94,30.35,15.62,26.25c3-.76,1.26-3.79,6-4.14,3-.23,4.05,3.55,5.27,3.89C40.56,29.83,38.86,3.81,22.34.11Z" transform="translate(-4.56 -0.11)"/>
          <path class="cls-9" d="M28.67,21.27A2.07,2.07,0,0,0,27,23.64a2.12,2.12,0,0,0,2.13,2.05,2.05,2.05,0,0,0,1.7-2.37A2.11,2.11,0,0,0,28.67,21.27ZM29,24.92a1.53,1.53,0,0,1-1.54-1.49,1.5,1.5,0,0,1,1.24-1.72,1.54,1.54,0,0,1,1.54,1.49A1.5,1.5,0,0,1,29,24.92Z" transform="translate(-4.56 -0.11)"/>
          <path class="cls-10" d="M20.53,5.67c-7.26.22-9.64,5-9.45,12.22S16.4,29.82,21.75,30.14c4.12.24,9.31-6.19,8.89-13.37S27.51,5.45,20.53,5.67Z" transform="translate(-4.56 -0.11)"/>
          <path class="cls-11" d="M27.29,5.7a6.8,6.8,0,0,0-5-.52,15.31,15.31,0,0,0-3.1,1,16,16,0,0,0-7.56,6.29c-.36.62-1.48,2.6-.81,3.29.43.45.22,1.39.64,1,2.72-2.63,7.5-1.84,10.83-5A20.35,20.35,0,0,0,25.14,8c-.26,1.29,4.5,4.48,5.21,6.53.58,1.67.52-1.46.58-2.32A7.21,7.21,0,0,0,27.29,5.7Z" transform="translate(-4.56 -0.11)"/>
          <path class="cls-12" d="M15.54,15.68c-1.49-.56-2.25,2.2-1.21,3a2,2,0,0,1,1.45,0C16.73,18.15,16.66,16.1,15.54,15.68Z" transform="translate(-4.56 -0.11)"/>
          <path class="cls-13" d="M15.34,12.33a2.17,2.17,0,0,0-1.68,1.49,2.92,2.92,0,0,1,3.71-.36A2,2,0,0,0,15.34,12.33Z" transform="translate(-4.56 -0.11)"/>
          <path class="cls-14" d="M15.19,16.4c-.62.1-.39,1.37.25,1.05C15.91,17.22,15.74,16.32,15.19,16.4Z" transform="translate(-4.56 -0.11)"/>
          <path class="cls-8" d="M28.75,6a13.39,13.39,0,0,0-5.88-3.48,9.25,9.25,0,0,0-4.94-.44C13.7,2.93,11.09,7,10.41,11c-.21,1.27-1.38,5.71.28,7.81.38-2.27,1-3.53,6.07-5a14.81,14.81,0,0,0,8.59-6.67c.15,3.14,5.2,4.35,5.24,8.93,0-1.14.8-3.12.61-4.27A11.83,11.83,0,0,0,28.75,6Z" transform="translate(-4.56 -0.11)"/>
          <path class="cls-15" d="M29.53,20.13A1.86,1.86,0,0,0,28,19.39c-.69-.05-1.64.16-1.13,1.23.27.58,3,1.15,2.8-.14A1.2,1.2,0,0,0,29.53,20.13Z" transform="translate(-4.56 -0.11)"/>
          <path class="cls-15" d="M16.23,20a1.94,1.94,0,0,0-1.84-.49c-.77.11-1.78.57-1,1.69.39.61,3.48.65,3.06-.81A1.17,1.17,0,0,0,16.23,20Z" transform="translate(-4.56 -0.11)"/>
          <path class="cls-16" d="M22.22,19.7c-.47,0-.65-.21-1,0s.37.83,1,.8,1.2-.56,1-.76S22.74,19.71,22.22,19.7Z" transform="translate(-4.56 -0.11)"/>
          <path class="cls-12" d="M28.69,15.71c-1.5-1-2.81,2.56-1.15,3.07a1.77,1.77,0,0,1,1.32-.21C29.43,17.82,29.5,16.22,28.69,15.71Z" transform="translate(-4.56 -0.11)"/>
          <path class="cls-14" d="M28,16.23c-.59,0-.51,1.34.13,1.1C28.56,17.15,28.49,16.22,28,16.23Z" transform="translate(-4.56 -0.11)"/>
          <path class="cls-17" d="M28.74,15.63c-1.38-.53-1.83,1.11-1.83,1.11a1.28,1.28,0,0,1,1.6-.3,2.83,2.83,0,0,0,3.5-.26C30.32,16.75,29.47,15.92,28.74,15.63Z" transform="translate(-4.56 -0.11)"/>
          <path class="cls-17" d="M14.54,15.76a4.38,4.38,0,0,1-3.51.62,3.11,3.11,0,0,0,3.66.14,1.41,1.41,0,0,1,1.66.13S16,15,14.54,15.76Z" transform="translate(-4.56 -0.11)"/>
          <path class="cls-18" d="M28.18,3c-6.14,5.66-15.53.81-15.53.81-3,1.73-5.52,5.65-5.52,5.66.12-.19,2.25.58,2.46.66,1.09.45,2.11,1,3.22,1.43a14,14,0,0,0,4,.84c2.64.07,6.35-2.43,8.77-5.95a4.26,4.26,0,0,0,1.06,2.71c2.91,3.29,6.81,0,6.81,0A14.31,14.31,0,0,0,28.18,3Z" transform="translate(-4.56 -0.11)"/>
          <path class="cls-19" d="M28.5,12.29a2,2,0,0,0-2.05,1.07,2.91,2.91,0,0,1,3.69.47A2.18,2.18,0,0,0,28.5,12.29Z" transform="translate(-4.56 -0.11)"/>
          <path class="cls-10" d="M9.93,15.78c-1.93.87-1.15,4.87.42,5.6a2.64,2.64,0,0,0,1.56.17l0-.07a13.38,13.38,0,0,0-.3-3.77C11.34,16.33,10.85,15.36,9.93,15.78Z" transform="translate(-4.56 -0.11)"/>
          <path class="cls-20" d="M10.55,17.12c-.4-.21-1.23.43-.66,1.52.09-1.11.57-.47.6.3,0,.52-.3.58.11,1.19.22.32.57.13.72-.09C11.83,19.33,11,17.38,10.55,17.12Z" transform="translate(-4.56 -0.11)"/>
          <path class="cls-9" d="M11.27,21.66A2.07,2.07,0,0,0,9.39,23.9a2.12,2.12,0,0,0,2,2.2,2.06,2.06,0,0,0,1.88-2.23A2.13,2.13,0,0,0,11.27,21.66Zm.08,3.67a1.53,1.53,0,0,1-1.42-1.6,1.48,1.48,0,0,1,1.36-1.62,1.52,1.52,0,0,1,1.42,1.6A1.5,1.5,0,0,1,11.35,25.33Z" transform="translate(-4.56 -0.11)"/>
          <path class="cls-21" d="M26.66,22.78a.47.47,0,0,0-.59,0c-.14.14-3.44,3.46-8.24.2a.45.45,0,0,0-.59.06.36.36,0,0,0,.1.53,9,9,0,0,0,3.31,1.45,6.87,6.87,0,0,0,6.06-1.73A.37.37,0,0,0,26.66,22.78Z" transform="translate(-4.56 -0.11)"/>
        </g>
      </g>
    </g>
  </g>
</svg>
