<svg id="레이어_1" data-name="레이어 1" xmlns="http://www.w3.org/2000/svg" viewBox="0 0 39.98 39.72">
  <defs>
    <style>
      .cls-1, .cls-2 {
        fill: #ffda00;
      }

      .cls-2, .cls-3, .cls-4 {
        fill-rule: evenodd;
      }

      .cls-3 {
        fill: #2b2722;
      }
    </style>
  </defs>
  <title>1</title>
  <g>
    <circle class="cls-1" cx="19.71" cy="19.71" r="11.71"/>
    <path class="cls-2" d="M15.57,30c-1.65-4.28-5.21-7.61-6.39-12.12-.16-.6-1-.32-.92.27a21.37,21.37,0,0,0,2.48,5.74,43,43,0,0,0,4,6.61C15.07,30.9,15.74,30.47,15.57,30Z" transform="translate(0 -0.14)"/>
    <path class="cls-2" d="M18.93,30.88c-2.33-5.39-5.81-10.42-8.42-15.72-.33-.67-1.31-.06-1,.61,2.48,5.16,4.9,11,8.44,15.55C18.3,31.76,19.2,31.49,18.93,30.88Z" transform="translate(0 -0.14)"/>
    <path class="cls-2" d="M22.28,31c-2.62-6.43-6.68-12.55-10.07-18.6-.33-.6-1.23-.05-.9.55,3.33,6.07,6.19,12.72,10,18.48C21.65,31.89,22.51,31.57,22.28,31Z" transform="translate(0 -0.14)"/>
    <path class="cls-2" d="M25.17,30.54c-2.43-7.1-7.06-14-11.17-20.2A.58.58,0,0,0,13,11q3.12,4.82,5.89,9.85c1.83,3.34,3.28,6.94,5.22,10.21A.58.58,0,0,0,25.17,30.54Z" transform="translate(0 -0.14)"/>
    <path class="cls-2" d="M28,28.5C24.58,21.86,20.1,15.61,16.14,9.27a.52.52,0,0,0-.88.54C19.12,16.22,22.64,23.06,27,29.14A.61.61,0,0,0,28,28.5Z" transform="translate(0 -0.14)"/>
    <path class="cls-2" d="M29.32,26.32c-1-3-2.94-5.82-4.57-8.51-1.83-3-3.78-5.92-5.82-8.77-.44-.6-1.43,0-1,.62,1.91,2.74,3.74,5.53,5.46,8.4s3,6,4.94,8.7C28.68,27.24,29.53,26.93,29.32,26.32Z" transform="translate(0 -0.14)"/>
    <path class="cls-2" d="M30.85,23.27A111.88,111.88,0,0,0,21.42,8.86c-.35-.48-1.14,0-.79.5,3.3,4.71,6.12,9.7,9.24,14.52A.58.58,0,0,0,30.85,23.27Z" transform="translate(0 -0.14)"/>
    <path class="cls-2" d="M31.73,20.28c-1.82-3.87-4.89-7.48-7.28-11-.39-.58-1.31,0-.93.57,2.36,3.64,4.49,7.88,7.39,11.11C31.35,21.43,32,20.78,31.73,20.28Z" transform="translate(0 -0.14)"/>
    <path class="cls-3" d="M25.26,8.91A12.22,12.22,0,0,0,11,11.4,12.34,12.34,0,0,0,9.19,25.89,13.86,13.86,0,0,0,16.53,32c3.62,1.33,7.29-.1,10.45-1.91a.35.35,0,0,0,.16-.21,11.63,11.63,0,0,0,4.62-6.58,12.67,12.67,0,0,0-6.5-14.35ZM37.05,29.33a.57.57,0,0,1-.55,1c-1.78-1-3.53-2-5.23-3.09-.61-.39-.07-1.38.55-1q2.57,1.64,5.23,3.09ZM20.47,33.48a48.63,48.63,0,0,1,0,5.79.61.61,0,0,1-1.21,0c-.07-1.92,0-3.85,0-5.78a.63.63,0,0,1,1.26,0Zm9.56,3a.57.57,0,0,1-1,.31c-.47-.71-.7-1.57-1.11-2.32a14.45,14.45,0,0,0-1.45-2.12c-.45-.56.53-1.34,1-.79,1.08,1.33,2.47,3.17,2.62,4.92Zm9.32-17.2a.64.64,0,0,1,0,1.28,41.12,41.12,0,0,1-5.66-.05c-.84-.05-.87-1.35,0-1.31,1.89.09,3.77,0,5.66.08Zm-3-9.9c.71-.45,1.37.64.68,1.1a52.35,52.35,0,0,1-4.9,2.88c-.72.38-1.39-.7-.67-1.09,1.68-.89,3.29-1.87,4.89-2.89ZM29,2.9a.59.59,0,0,1,1.08.43,11.23,11.23,0,0,1-2.86,5c-.54.61-1.44-.26-.91-.87a13.34,13.34,0,0,0,1.58-2.22c.42-.74.68-1.57,1.11-2.3ZM20.7.7a50.72,50.72,0,0,1-.18,5.51c0,.77-1.22.8-1.2,0A48.7,48.7,0,0,1,19.56.57c.1-.68,1.09-.48,1.14.13Zm-7.13,7c.32.74-.89,1.09-1.21.36-.69-1.59-1.72-3-2.42-4.57-.24-.54.59-1,1-.59a16.7,16.7,0,0,1,2.66,4.8Zm-5.2,4.4c.74.32.12,1.42-.62,1.1a13.15,13.15,0,0,1-4.5-2.89.61.61,0,0,1,.84-.87,19.9,19.9,0,0,0,4.28,2.66Zm-2.14,7h0a.64.64,0,0,1,0,1.27c-1.87,0-3.79.09-5.66-.08A.61.61,0,0,1,.58,19c1.86-.14,3.78,0,5.65,0Zm1.64,7.05c.79-.16,1.15,1,.36,1.21C6.34,27.74,5.09,29,3.52,30c-.57.38-1.29-.49-.76-.94a12.26,12.26,0,0,1,5.11-3Zm4.72,5.19c.44-.67,1.55-.07,1.1.61s-1.06,1.61-1.55,2.44a20,20,0,0,1-1.4,2.31.58.58,0,0,1-1-.54,21.65,21.65,0,0,1,2.82-4.82ZM19.2,31A.36.36,0,0,0,19,31a6.79,6.79,0,0,1-.89-.12,12.33,12.33,0,0,1-6.81-4.39A10.84,10.84,0,0,1,22.66,9.33a11.38,11.38,0,0,1,8.25,11.18C30.78,26.75,25.25,31.23,19.2,31Z" transform="translate(0 -0.14)"/>
    <path class="cls-2" d="M15.57,30c-1.65-4.28-5.21-7.61-6.39-12.12-.16-.6-1-.32-.92.27a21.37,21.37,0,0,0,2.48,5.74,43,43,0,0,0,4,6.61C15.07,30.9,15.74,30.47,15.57,30Z" transform="translate(0 -0.14)"/>
    <path class="cls-2" d="M18.93,30.88c-2.33-5.39-5.81-10.42-8.42-15.72-.33-.67-1.31-.06-1,.61,2.48,5.16,4.9,11,8.44,15.55C18.3,31.76,19.2,31.49,18.93,30.88Z" transform="translate(0 -0.14)"/>
    <path class="cls-2" d="M22.28,31c-2.62-6.43-6.68-12.55-10.07-18.6-.33-.6-1.23-.05-.9.55,3.33,6.07,6.19,12.72,10,18.48C21.65,31.89,22.51,31.57,22.28,31Z" transform="translate(0 -0.14)"/>
    <path class="cls-2" d="M25.17,30.54c-2.43-7.1-7.06-14-11.17-20.2A.58.58,0,0,0,13,11q3.12,4.82,5.89,9.85c1.83,3.34,3.28,6.94,5.22,10.21A.58.58,0,0,0,25.17,30.54Z" transform="translate(0 -0.14)"/>
    <path class="cls-2" d="M28,28.5C24.58,21.86,20.1,15.61,16.14,9.27a.52.52,0,0,0-.88.54C19.12,16.22,22.64,23.06,27,29.14A.61.61,0,0,0,28,28.5Z" transform="translate(0 -0.14)"/>
    <path class="cls-2" d="M29.32,26.32c-1-3-2.94-5.82-4.57-8.51-1.83-3-3.78-5.92-5.82-8.77-.44-.6-1.43,0-1,.62,1.91,2.74,3.74,5.53,5.46,8.4s3,6,4.94,8.7C28.68,27.24,29.53,26.93,29.32,26.32Z" transform="translate(0 -0.14)"/>
    <path class="cls-2" d="M30.85,23.27A111.88,111.88,0,0,0,21.42,8.86c-.35-.48-1.14,0-.79.5,3.3,4.71,6.12,9.7,9.24,14.52A.58.58,0,0,0,30.85,23.27Z" transform="translate(0 -0.14)"/>
    <path class="cls-2" d="M31.73,20.28c-1.82-3.87-4.89-7.48-7.28-11-.39-.58-1.31,0-.93.57,2.36,3.64,4.49,7.88,7.39,11.11C31.35,21.43,32,20.78,31.73,20.28Z" transform="translate(0 -0.14)"/>
    <path class="cls-4" d="M25.26,8.91A12.22,12.22,0,0,0,11,11.4,12.34,12.34,0,0,0,9.19,25.89,13.86,13.86,0,0,0,16.53,32c3.62,1.33,7.29-.1,10.45-1.91a.35.35,0,0,0,.16-.21,11.63,11.63,0,0,0,4.62-6.58,12.67,12.67,0,0,0-6.5-14.35ZM37.05,29.33a.57.57,0,0,1-.55,1c-1.78-1-3.53-2-5.23-3.09-.61-.39-.07-1.38.55-1q2.57,1.64,5.23,3.09ZM20.47,33.48a48.63,48.63,0,0,1,0,5.79.61.61,0,0,1-1.21,0c-.07-1.92,0-3.85,0-5.78a.63.63,0,0,1,1.26,0Zm9.56,3a.57.57,0,0,1-1,.31c-.47-.71-.7-1.57-1.11-2.32a14.45,14.45,0,0,0-1.45-2.12c-.45-.56.53-1.34,1-.79,1.08,1.33,2.47,3.17,2.62,4.92Zm9.32-17.2a.64.64,0,0,1,0,1.28,41.12,41.12,0,0,1-5.66-.05c-.84-.05-.87-1.35,0-1.31,1.89.09,3.77,0,5.66.08Zm-3-9.9c.71-.45,1.37.64.68,1.1a52.35,52.35,0,0,1-4.9,2.88c-.72.38-1.39-.7-.67-1.09,1.68-.89,3.29-1.87,4.89-2.89ZM29,2.9a.59.59,0,0,1,1.08.43,11.23,11.23,0,0,1-2.86,5c-.54.61-1.44-.26-.91-.87a13.34,13.34,0,0,0,1.58-2.22c.42-.74.68-1.57,1.11-2.3ZM20.7.7a50.72,50.72,0,0,1-.18,5.51c0,.77-1.22.8-1.2,0A48.7,48.7,0,0,1,19.56.57c.1-.68,1.09-.48,1.14.13Zm-7.13,7c.32.74-.89,1.09-1.21.36-.69-1.59-1.72-3-2.42-4.57-.24-.54.59-1,1-.59a16.7,16.7,0,0,1,2.66,4.8Zm-5.2,4.4c.74.32.12,1.42-.62,1.1a13.15,13.15,0,0,1-4.5-2.89.61.61,0,0,1,.84-.87,19.9,19.9,0,0,0,4.28,2.66Zm-2.14,7h0a.64.64,0,0,1,0,1.27c-1.87,0-3.79.09-5.66-.08A.61.61,0,0,1,.58,19c1.86-.14,3.78,0,5.65,0Zm1.64,7.05c.79-.16,1.15,1,.36,1.21C6.34,27.74,5.09,29,3.52,30c-.57.38-1.29-.49-.76-.94a12.26,12.26,0,0,1,5.11-3Zm4.72,5.19c.44-.67,1.55-.07,1.1.61s-1.06,1.61-1.55,2.44a20,20,0,0,1-1.4,2.31.58.58,0,0,1-1-.54,21.65,21.65,0,0,1,2.82-4.82ZM19.2,31A.36.36,0,0,0,19,31a6.79,6.79,0,0,1-.89-.12,12.33,12.33,0,0,1-6.81-4.39A10.84,10.84,0,0,1,22.66,9.33a11.38,11.38,0,0,1,8.25,11.18C30.78,26.75,25.25,31.23,19.2,31Z" transform="translate(0 -0.14)"/>
  </g>
</svg>
