<svg id="레이어_1" data-name="레이어 1" xmlns="http://www.w3.org/2000/svg" viewBox="0 0 28.89 39.94">
  <defs>
    <style>
      .cls-1 {
        fill: #1e1e29;
      }

      .cls-2 {
        fill: #e8e8e8;
      }

      .cls-3 {
        fill: #e62628;
      }

      .cls-4 {
        fill: #313142;
      }

      .cls-5 {
        opacity: 0.1;
      }

      .cls-6 {
        fill: #f5f5f5;
      }

      .cls-7 {
        fill: #f7b07c;
      }

      .cls-8 {
        fill: #2b2521;
      }

      .cls-9 {
        fill: #ffcb9e;
      }

      .cls-10 {
        fill: #bf3c1b;
      }

      .cls-10, .cls-17 {
        opacity: 0.3;
      }

      .cls-11 {
        fill: #423833;
      }

      .cls-12 {
        fill: #211011;
      }

      .cls-13 {
        fill: #c20902;
        opacity: 0.5;
      }

      .cls-14 {
        fill: #ffd8b5;
      }

      .cls-15 {
        fill: #a89191;
      }

      .cls-16 {
        fill: #212126;
      }

      .cls-17, .cls-18, .cls-19 {
        fill: #fff;
      }

      .cls-19 {
        opacity: 0.7;
      }
    </style>
  </defs>
  <title>1</title>
  <g>
    <path class="cls-1" d="M7.83,39.94h7.44l-1.2-9.37C9.73,32.27,7.83,33.86,7.83,39.94Z" transform="translate(-4.95 0)"/>
    <path class="cls-1" d="M26.83,30.57l-1.2,9.37h7.44C33.07,33.86,31.17,32.27,26.83,30.57Z" transform="translate(-4.95 0)"/>
    <path class="cls-2" d="M26.35,31.16c-1.37-3.55-9-2.66-11.11-1s-2.65,3.72.33,6.77a14.84,14.84,0,0,0,4,3h1.63C22.66,38.46,27.31,33.62,26.35,31.16Z" transform="translate(-4.95 0)"/>
    <path class="cls-3" d="M21.55,35.1l.69-1.38a1.75,1.75,0,0,0-2-.94,1.84,1.84,0,0,0-1.55,1.38l1.08,1.14-1.26,4,.39.62h3.73l.35-.73Z" transform="translate(-4.95 0)"/>
    <path class="cls-1" d="M27.78,38.92c.56-2.77,2.06-5.26-.06-7.61A5.8,5.8,0,0,0,26,30.08a1.33,1.33,0,0,1,.09.68c-.49,4.46-5.3,8.94-5.3,8.94S14,33.52,15.18,30.52a3.29,3.29,0,0,1,.38-.69c-1.62.67-3.19,1.7-3.63,3.18s.42,4.58.77,6.93H27.62C27.67,39.57,27.72,39.23,27.78,38.92Z" transform="translate(-4.95 0)"/>
    <path class="cls-4" d="M27.59,36.46a17.77,17.77,0,0,0-1.31-2.18L28.65,33a10.1,10.1,0,0,0-3.21-3.49c.5,5.55-4.36,9.78-4.55,10.16a.77.77,0,0,0-.07.27h.68a17.52,17.52,0,0,1,2.38-1.65C25.61,37.32,27.62,36.65,27.59,36.46Z" transform="translate(-4.95 0)"/>
    <path class="cls-4" d="M20.81,39.6c-.21-.39-5.24-3.86-5.13-9.85a7.17,7.17,0,0,0-3.35,3.38l2.78,1.11a24.18,24.18,0,0,0-1.29,2.67c0,.23,2.09.19,4.69,1.59a8.17,8.17,0,0,1,1.89,1.44h.5A.67.67,0,0,0,20.81,39.6Z" transform="translate(-4.95 0)"/>
    <path class="cls-5" d="M23.16,30.84c-1.57-.86-8-1.18-7.28,1.13a6.69,6.69,0,0,0,2.54,3.49l2.17-2,2.24,2a9.78,9.78,0,0,0,2.84-3.79A5.12,5.12,0,0,1,23.16,30.84Z" transform="translate(-4.95 0)"/>
    <path class="cls-6" d="M15.56,29.86c-1.11,2.7,2.71,5,2.71,5l2.32-1.4,2.12,1.39s4.27-2.13,2.73-5.33C24,26.63,16.85,26.73,15.56,29.86Z" transform="translate(-4.95 0)"/>
    <path class="cls-7" d="M19,26.12A3.22,3.22,0,0,0,16.62,29a2.46,2.46,0,0,0,.63,2.23A4.59,4.59,0,0,0,19,32.35c.5.17,1.37.78,1.53.79s.36-.25.84-.49a4.71,4.71,0,0,0,2.1-1.55c.57-1.1,1.12-3.28.07-4.15A6.17,6.17,0,0,0,19,26.12Z" transform="translate(-4.95 0)"/>
    <g>
      <path class="cls-8" d="M31.31,9.28c-.69-.73-1,5.42-1.45,6.05-1,1.43-.62,3.82,1.11,4.45.14,0,1.85.22,1.67-.21C31.26,16.28,34,12,31.31,9.28Z" transform="translate(-4.95 0)"/>
      <path class="cls-8" d="M16.71.39C2.18,3.87,5.55,20.66,9.8,19.75s18.43-4.82,19.72-5.23,2.79-.68,1.71-6.19C30.06,2.34,22.72-1,16.71.39Z" transform="translate(-4.95 0)"/>
      <path class="cls-9" d="M19,3.55C12.71,4,8.07,10.68,8.66,18.39S14.83,32,21.14,31.48,32.08,24.35,31.5,16.64,25.32,3.07,19,3.55Z" transform="translate(-4.95 0)"/>
      <path class="cls-9" d="M6.82,17c-3.12.81-1.94,4.75.59,5.49a7.06,7.06,0,0,0,2.51.19.18.18,0,0,1,.05-.07c.38-.53-.24-3.15-.42-3.69C9.09,17.53,8.32,16.58,6.82,17Z" transform="translate(-4.95 0)"/>
      <path class="cls-10" d="M26.87,7.28a28.07,28.07,0,0,0-9.1.06C15.4,7.78,13,8.7,11.83,11a12,12,0,0,0-1,3.68c-.21,1.56.12,3.28.5,3.39.19-1.9,1.33-1.85,1.62-3.71A5.28,5.28,0,0,1,15,11.47a4.35,4.35,0,0,0-.47,2.07c.56-.94,2.6-2.48,7.23-2.2a24.34,24.34,0,0,0,5.4-.2A5,5,0,0,0,30.1,9C30.71,7.69,27.56,7.38,26.87,7.28Z" transform="translate(-4.95 0)"/>
      <path class="cls-8" d="M25,4.44C20.8,2.11,17.09,2.8,13.87,4.3c-4.21,2-6.53,8.94-6,13.07.3,2.35,3.55,2.35,3.49,1-.2-4.06.33-7,6.22-8.65,4.69-1.36,10.33-1,11.79-.09S29.23,6.77,25,4.44Z" transform="translate(-4.95 0)"/>
      <path class="cls-10" d="M8.48,18.43c-.8-.38-3-.1-2.14,1.21.67-1.05,1.5-.22,1.25.56-.17.52-1,.44-.27,1.21A1.79,1.79,0,0,0,9,21.64C10.45,21.16,9.46,18.89,8.48,18.43Z" transform="translate(-4.95 0)"/>
      <path class="cls-8" d="M24.22.47c-3.78-.83-7.84-.68-11.1,1.43-2.36,1.53-2.67,4.17-1.69,6.84.33.89.93,2.14,2,2.26a6.47,6.47,0,0,0,2.7-1.07,3.74,3.74,0,0,0-.43,1.75c4.44-2.95,12.4.69,16.53-2.7C34.22,7.38,30.84,1.93,24.22.47Z" transform="translate(-4.95 0)"/>
      <path class="cls-8" d="M10.54,15.94c-.76-.42-1.87,0-2.71-.43.39.21.15,1.86.15,2.23a3.55,3.55,0,0,0,3.45,3.78h.31c0-1.37-.31-2.66-.36-4.07C11.34,16.45,11.24,16.33,10.54,15.94Z" transform="translate(-4.95 0)"/>
      <path class="cls-8" d="M15.54.68c-2.14.54-4.46,1.11-6.27.12a1.92,1.92,0,0,0,.92,1.87,2.68,2.68,0,0,1-2.77,0C8.71,6.24,13.2,5.2,15.15,4,16.08,3.37,17.12.28,15.54.68Z" transform="translate(-4.95 0)"/>
      <path class="cls-11" d="M29.63,3.7C27,1.51,23.22.84,19.8.85c-2.75,0-7.34.87-8.48,3.83-.79,2,1.26,3.19,2.94,3.66a11.82,11.82,0,0,0,3.7.3c-.31.39-.57.84-.86,1.22,4.09-.44,8.76.69,12.73-.56C33.37,8.2,31.35,5.14,29.63,3.7Z" transform="translate(-4.95 0)"/>
    </g>
    <g>
      <path class="cls-12" d="M17.07,16.4c-1.46-.62-2.37,2-1.37,2.82a2,2,0,0,1,1.44.12A1.79,1.79,0,0,0,17.07,16.4Z" transform="translate(-4.95 0)"/>
      <path class="cls-13" d="M28,22.75a.53.53,0,0,0-.7.08c-.16.18-3.81,4.46-9.86,1a.53.53,0,0,0-.7.13.43.43,0,0,0,.17.63A10.84,10.84,0,0,0,21,26a8.22,8.22,0,0,0,4.11-.54,8.3,8.3,0,0,0,3-2.09A.42.42,0,0,0,28,22.75Z" transform="translate(-4.95 0)"/>
      <path class="cls-10" d="M22.68,18.23c-.71,0-1-.24-1.49,0s.22,1.3,1.47,1.22,1.81-1.06,1.53-1.34S23.46,18.2,22.68,18.23Z" transform="translate(-4.95 0)"/>
      <path class="cls-14" d="M22.54,16.76c-1.24.09-1.84,1.17-1.18,1.63a2.59,2.59,0,0,0,2.72-.16C24.43,17.9,24,16.66,22.54,16.76Z" transform="translate(-4.95 0)"/>
      <path class="cls-15" d="M16.83,17.35c-.59.21-.14,1.36.44.94C17.68,18,17.35,17.17,16.83,17.35Z" transform="translate(-4.95 0)"/>
      <path class="cls-12" d="M29.47,16.12c-1.46-.62-2.36,2-1.37,2.82a2,2,0,0,1,1.44.12A1.79,1.79,0,0,0,29.47,16.12Z" transform="translate(-4.95 0)"/>
      <path class="cls-15" d="M29.23,17.08c-.59.2-.14,1.35.44.93C30.08,17.7,29.75,16.9,29.23,17.08Z" transform="translate(-4.95 0)"/>
      <path class="cls-8" d="M29.89,12.29a4,4,0,0,0-1.51-.15c-.29,0-1.43-.13-1.64.13-.8,1,2.63.84,2.93.82C30.46,13,30.69,12.61,29.89,12.29Z" transform="translate(-4.95 0)"/>
      <path class="cls-8" d="M16,12.75a4.07,4.07,0,0,0-1.48.3c-.77.39-.51.77.29.77.3,0,3.72-.22,2.84-1.1C17.36,12.49,16.25,12.73,16,12.75Z" transform="translate(-4.95 0)"/>
    </g>
    <g>
      <path class="cls-16" d="M24.4,14.87c-.78,1-.3,4.12.24,5.14s6.11,1,7.44.48,2.34-4.22,1.36-5.66S25.56,13.45,24.4,14.87Zm7.36,4.93c-1,.38-6,.39-6.45-.28s-.71-3.5-.15-4.15c.82-1,6.63-.95,7.49,0S32.76,19.43,31.76,19.8Z" transform="translate(-4.95 0)"/>
      <path class="cls-16" d="M10.94,15.46c-1,1,.13,4.24,1,5.21s7.31.42,8.59-.18,1.2-4.13.07-5.51S12.41,14,10.94,15.46Zm9,4.43c-1,.41-6.52.82-7.27.21s-1.64-3.45-.93-4.11c1-1,7.18-1.34,8.13-.48S20.93,19.48,20,19.89Z" transform="translate(-4.95 0)"/>
      <path class="cls-16" d="M21.36,16.84c-.13.07-.7.91-.28,1.09a3.57,3.57,0,0,1,3.16-.33c.23.1.46.07.37-.26C24.29,16.14,22.2,16.4,21.36,16.84Z" transform="translate(-4.95 0)"/>
      <path class="cls-17" d="M28.62,14.9c-.38.11-2.93.65-2.43,1.86.34.79,6.31,1.21,6.68-.13C33.64,13.9,29.35,14.69,28.62,14.9Z" transform="translate(-4.95 0)"/>
      <path class="cls-17" d="M19.46,15.1a11.74,11.74,0,0,0-4.23.15c-.42.08-2.38.45-1.68,1.72s5.66,1.39,6.54.28A1.32,1.32,0,0,0,19.46,15.1Z" transform="translate(-4.95 0)"/>
      <path class="cls-18" d="M29,15.1c-.64,0-1.07.19-.93.51.29.65,4,.72,4.34.28S30.41,15,29,15.1Z" transform="translate(-4.95 0)"/>
      <path class="cls-19" d="M26.22,18.66c-.4,0-.69,0-.63.31.11.54,2.41,1,2.64.7S27.07,18.75,26.22,18.66Z" transform="translate(-4.95 0)"/>
      <path class="cls-18" d="M16.74,15.25c-.64.05-1.06.19-.91.49.29.59,4,.58,4.26.18S18.08,15.15,16.74,15.25Z" transform="translate(-4.95 0)"/>
      <path class="cls-19" d="M13.05,19.1c-.39,0-.66,0-.61.29.12.5,2.39.89,2.61.6S13.89,19.17,13.05,19.1Z" transform="translate(-4.95 0)"/>
    </g>
  </g>
</svg>
