<svg id="레이어_1" data-name="레이어 1" xmlns="http://www.w3.org/2000/svg" xmlns:xlink="http://www.w3.org/1999/xlink" viewBox="0 0 33.45 40.07">
  <defs>
    <style>
      .cls-1 {
        fill: #fdd281;
      }

      .cls-2 {
        fill: #f4bb6e;
      }

      .cls-3 {
        fill: #c9beb7;
      }

      .cls-4 {
        fill: #ffcb9e;
      }

      .cls-5 {
        fill: url(#linear-gradient);
      }

      .cls-6 {
        fill: #f0eae6;
        opacity: 0.4;
      }

      .cls-7, .cls-8 {
        fill: #bf3c1b;
      }

      .cls-7 {
        opacity: 0.15;
      }

      .cls-8 {
        opacity: 0.2;
      }

      .cls-9 {
        fill: #ffe8bd;
      }

      .cls-10 {
        fill: #ffb387;
      }

      .cls-11 {
        fill: #a16b43;
      }

      .cls-12 {
        fill: #f04d4d;
        opacity: 0.5;
      }

      .cls-13 {
        fill: #8f3935;
      }

      .cls-14 {
        fill: #fff9f0;
      }

      .cls-15 {
        fill: #e8dac5;
      }

      .cls-16 {
        fill: #305d80;
      }

      .cls-17 {
        fill: #86bae3;
      }

      .cls-18 {
        fill: #121b21;
      }
    </style>
    <linearGradient id="linear-gradient" x1="20.93" y1="30.63" x2="20.93" y2="32.97" gradientUnits="userSpaceOnUse">
      <stop offset="0" stop-color="#eea17a"/>
      <stop offset="0" stop-color="#eea17a"/>
      <stop offset="0.36" stop-color="#f7b88e"/>
      <stop offset="0.7" stop-color="#fdc69a"/>
      <stop offset="1" stop-color="#ffcb9e"/>
    </linearGradient>
  </defs>
  <title>1</title>
  <g>
    <g>
      <path class="cls-1" d="M35.5,22c2.18-1,1.26-5.68-1.21-4.17,1.68-.07.06,2.62-.88.6-.59-1.28.77-1.89,1.39-2.74a4.88,4.88,0,0,0,.86-3.53c-.29-3.46-3.45-5.63-5.27-8.29C28.4,1,25.6-.88,22,.42a5.8,5.8,0,0,0-2.25,1.67A3.66,3.66,0,0,0,18.61.51c-.06.52-.08,1-.1,1.56-2-1.21-5-.72-6.74.4-2.32,1.5-2.1,3.83-3,6.1-.85,2.07-3.56,4.48-3.39,6.89.11,1.51,1.18,2.28,1.11,3.83-.06,1.3-1.46,2-.82,3.26s3.27.84,1.93,3c-1.23,2-3.64-.36-2.13-.68-1.66-.81-2.35,1.35-2.11,2.64.34,1.8,2.85,1.84,4.2,1.47C4,35.45,14,37,19,32.76c2.12-1.83,3.82,3,6.38,3.24,3.46.31,5.28-2.19,4.58-4.42.59,1.87,2.65,2,4.21,1.3A4,4,0,0,0,36.44,29a2.52,2.52,0,0,1-2.85.57,1.93,1.93,0,0,1-.9-3c1-1.37,3.68-3.11,1-4.56A1.93,1.93,0,0,0,35.5,22Z" transform="translate(-3.27 0)"/>
      <path class="cls-2" d="M32.53,19.1c-.32-1.34.73-2.37.76-3.64s-3.25-7-4.62-5c-.31.47,1.5,3.24,1.1,3.67a3.93,3.93,0,0,1-1.72.94,53.18,53.18,0,0,1-7.81,1.46c-1.61.24-3.19.65-4.79.91a8.58,8.58,0,0,1-3.19.13c-1.2-.28-1.21-1.45-2.22-2-1.91-1-3.45,1-3.18,2.85a5.49,5.49,0,0,0,1.28,2.37c.86,1,1.92,1.34,2.5,2.64a5.66,5.66,0,0,1-1.48,6.61c-1,.9-1.26,1.63.12,2.53,2.23,1.45,5.36,1.54,8.88.35,1.68-.56,7.11,2.45,9,1.47,1.49-.78,1.95-1.56,2.54-4.26.48.6,1.13,1.59,2,1.58-.68-1.28-.48-3-.31-4.35s1.11-2.36,1.14-3.69c0-.47-.26-1.43-.09-1.85s1.06-.94,1.4-1.31A2.29,2.29,0,0,1,32.53,19.1Z" transform="translate(-3.27 0)"/>
    </g>
    <g>
      <path class="cls-3" d="M24.92,32l-1.09,2.15c.1,0,.35.32.69,1.88l2.34-.51C26.55,34.12,26.15,32.67,24.92,32Z" transform="translate(-3.27 0)"/>
      <path class="cls-4" d="M26.66,35.61,24.72,36c.11.49.19.95.26,1.39a13.19,13.19,0,0,0,.64,2.64H27.8a8.73,8.73,0,0,1-.87-3C26.85,36.62,26.77,36.13,26.66,35.61Z" transform="translate(-3.27 0)"/>
    </g>
    <g>
      <path class="cls-3" d="M15.56,35.56l2.35.51c.33-1.56.59-1.84.68-1.88L17.5,32C16.28,32.67,15.87,34.12,15.56,35.56Z" transform="translate(-3.27 0)"/>
      <path class="cls-4" d="M17.7,36l-1.93-.42c-.11.52-.2,1-.28,1.47a8.51,8.51,0,0,1-.87,3h2.19a13.87,13.87,0,0,0,.63-2.64C17.52,37,17.6,36.52,17.7,36Z" transform="translate(-3.27 0)"/>
    </g>
    <g>
      <path class="cls-3" d="M25.18,36.62c.71-2.7.8-4.34-.87-4.89a10.7,10.7,0,0,0-6.36.05c-1.41.61-1.87,1.59-.9,4.59a15.65,15.65,0,0,1,.82,3.69h6.66A17.4,17.4,0,0,1,25.18,36.62Z" transform="translate(-3.27 0)"/>
      <path class="cls-5" d="M23,28.94c.14-2.39-4-2.48-4,.13a6.45,6.45,0,0,1-.15,2.41c-1.64,2.58,5.63,2.89,4.1.12C22.64,31,23,30,23,28.94Z" transform="translate(-3.27 0)"/>
      <path class="cls-6" d="M22.85,34.86a6.85,6.85,0,0,1-3.78-.06c-.68-.17-1.07.61-.86,1.28.28.88,1.71,1.11,2.95,1.09,2.45,0,3.37-1,2.95-2C24,34.84,23.48,34.64,22.85,34.86Z" transform="translate(-3.27 0)"/>
    </g>
    <g>
      <path class="cls-4" d="M20.5,6.34c-5.48.71-9.83,5.15-9.11,12.79s5.85,12.25,11.38,12.21c4.24,0,9.36-7,9.08-14.91C31.58,8.87,26,5.64,20.5,6.34Z" transform="translate(-3.27 0)"/>
      <path class="cls-4" d="M9,16c-2.62.93-1.47,4.75.7,5.37a5.14,5.14,0,0,0,2.14.08.25.25,0,0,1,0-.07c.3-.53-.32-3.08-.49-3.61C10.94,16.44,10.25,15.53,9,16Z" transform="translate(-3.27 0)"/>
      <path class="cls-7" d="M27,6a27.87,27.87,0,0,0-9,.46c-2,.46-4.12,1.3-5.28,3.1-.83,1.29-2.23,2.71-2.42,4.3S8,15.6,10.56,18.05c1.27,1.2-.07,1.6.19,4.14.1,1,1.72,1.93,3.26,1.08-1.56-1.51-.33-2.65,0-4.34.16-.9-.66-2.35-.65-3.28a4.3,4.3,0,0,1,0-.62,14,14,0,0,1,.56-2.4c-.32,2.82,3.74,1.27,4.89.82A2,2,0,0,1,20,13.23c-1.37,1.42.64,3.89,2.31,3.89,2.72,0,3.41-1.14,4.55-2.7a3.79,3.79,0,0,1,2.57-1.63c.7-.08,2.16.4,2.46-.43a7.49,7.49,0,0,0-.73-4.77C30.38,6.2,28.35,6.11,27,6Z" transform="translate(-3.27 0)"/>
      <path class="cls-8" d="M10.63,17.4c-.69-.33-2.52,0-1.78,1.29.54-1.07,1.27-.28,1.08.49-.12.52-.78.48-.18,1.21a1.35,1.35,0,0,0,1.44.14C12.4,20,11.48,17.82,10.63,17.4Z" transform="translate(-3.27 0)"/>
      <path class="cls-1" d="M23.31,2.4A28.81,28.81,0,0,0,20,2a12.34,12.34,0,0,0-5.47,1.61C12,5,10.37,8,9.64,10.72a10.91,10.91,0,0,0-.32,5c.31,1.45,2.18,2,2.29,3.49.05.67-.54,1.17-.52,1.81a2.06,2.06,0,0,0,.63,1.44,3.57,3.57,0,0,0,1.58.48c-1-1.15,0-1.81.06-2.93A8.92,8.92,0,0,0,13,17a4.61,4.61,0,0,1,1.37-5.38c.17,2.06,2.26,2,3.76,1.68.67-.13,2.63-.93,3,.09.21.64-.8,1.2-1,.46,0,1.09,0,2,1.33,2.27a4,4,0,0,0,4.56-2,3.44,3.44,0,0,1,1.31-1.36,4.82,4.82,0,0,1,2.2-.39c1.7,0,2.29-1.29,2.22-2.92C31.44,5,27.22,2.75,23.31,2.4Z" transform="translate(-3.27 0)"/>
      <path class="cls-9" d="M22,2a4.62,4.62,0,0,0-2.14,1.33,9.14,9.14,0,0,1,1.55,2.77,3,3,0,0,1-1.22,3c-1,.67-6.7,1.68-2.76,3.05,1.21.42,2.46-.36,3.66-.09.95.22,1.57,1.61.58,2.27.86.41,2.18-.12,2.9-.58a12.08,12.08,0,0,1,1.56-1,7.86,7.86,0,0,0,3.24-2.34c1.17-1.57,1.21-3.59-.49-6A7.08,7.08,0,0,0,22,2Z" transform="translate(-3.27 0)"/>
      <path class="cls-9" d="M15.77,3c-5,.34-4,4.65-6.1,7.74-.72,1.05-1.41,2-.8,3.19a5.49,5.49,0,0,0,3.19,2.6,4.16,4.16,0,0,1-.34-2.64c.91-3.2,4.62-4.18,6.24-6.76C19.29,5,18.33,2.87,15.77,3Z" transform="translate(-3.27 0)"/>
    </g>
    <g>
      <path class="cls-10" d="M30.19,21a1.78,1.78,0,0,0-1.48-.7c-.66,0-1.56.15-1.08,1.17.25.55,2.84,1.1,2.67-.13A1.13,1.13,0,0,0,30.19,21Z" transform="translate(-3.27 0)"/>
      <path class="cls-10" d="M17.53,20.92a1.81,1.81,0,0,0-1.75-.46c-.73.09-1.69.53-1,1.61.38.57,3.31.61,2.91-.78A1.26,1.26,0,0,0,17.53,20.92Z" transform="translate(-3.27 0)"/>
      <path class="cls-11" d="M26.46,15.65c1.44.14,2.64-.29,4.8-.11C30.47,14.54,27.54,14.52,26.46,15.65Z" transform="translate(-3.27 0)"/>
      <path class="cls-8" d="M23.25,21.48c-.49,0-.68-.2-1,0s.4.87,1,.81,1.24-.62,1.06-.82S23.8,21.47,23.25,21.48Z" transform="translate(-3.27 0)"/>
      <path class="cls-11" d="M13.61,15.34c2.7.06,3.61.18,5.49.14C18.11,14.2,14.8,14.29,13.61,15.34Z" transform="translate(-3.27 0)"/>
      <g>
        <path class="cls-12" d="M22.87,23.18c-1.93,0-4.77.59-6.28-.31,2.48,4.28,4,5.08,6,5.24,2.48.19,3.35-1.54,3.75-2.84A7.47,7.47,0,0,1,28.28,23C26.73,23.36,25.21,23.14,22.87,23.18Z" transform="translate(-3.27 0)"/>
        <path class="cls-13" d="M17.75,23.63a5.78,5.78,0,0,0,4.57,3c2,.07,3.29-.58,3.67-1.55a2.68,2.68,0,0,1,1.27-1.42A19.38,19.38,0,0,1,17.75,23.63Z" transform="translate(-3.27 0)"/>
        <path class="cls-14" d="M18.89,23.9a1.54,1.54,0,0,0,1.18,1.21,9.91,9.91,0,0,0,4.49.27c1.06-.16,1.59-1.51,1.59-1.51A20.55,20.55,0,0,1,18.89,23.9Z" transform="translate(-3.27 0)"/>
        <path class="cls-14" d="M23.12,25.47a5.94,5.94,0,0,1-3.28-.56c-.5-.35-.55,0-.45.24,0,0,.44,1.19,2.78,1.5s3.44-1.1,3.18-1.35S24.43,25.44,23.12,25.47Z" transform="translate(-3.27 0)"/>
        <path class="cls-15" d="M18.89,23.9a1.39,1.39,0,0,0,.27.61s5.29-.39,6.55.11a2.67,2.67,0,0,0,.44-.75A23.73,23.73,0,0,1,18.89,23.9Z" transform="translate(-3.27 0)"/>
        <path class="cls-15" d="M20.25,25.09a4.94,4.94,0,0,0,4.17.24A7.32,7.32,0,0,1,20.25,25.09Z" transform="translate(-3.27 0)"/>
      </g>
      <path class="cls-16" d="M16.79,16.72c-1.42-.53-2.15,2.1-1.16,2.88a1.88,1.88,0,0,1,1.38,0C17.91,19.07,17.85,17.12,16.79,16.72Z" transform="translate(-3.27 0)"/>
      <path class="cls-17" d="M17,17.59c-.59.09-.37,1.3.24,1C17.7,18.37,17.53,17.51,17,17.59Z" transform="translate(-3.27 0)"/>
      <path class="cls-16" d="M29.3,16.75c-1.42-.91-2.68,2.44-1.09,2.92a1.73,1.73,0,0,1,1.25-.2C30,18.76,30.07,17.24,29.3,16.75Z" transform="translate(-3.27 0)"/>
      <path class="cls-17" d="M29.22,17.46c-.56,0-.48,1.28.13,1.05C29.79,18.34,29.72,17.45,29.22,17.46Z" transform="translate(-3.27 0)"/>
      <path class="cls-18" d="M29.34,16.68c-1.31-.51-1.73,1.05-1.73,1.05a1.21,1.21,0,0,1,1.52-.29,2.67,2.67,0,0,0,3.32-.24C30.85,17.74,30,17,29.34,16.68Z" transform="translate(-3.27 0)"/>
      <path class="cls-18" d="M15.84,16.79a4.21,4.21,0,0,1-3.35.6,3,3,0,0,0,3.48.13,1.37,1.37,0,0,1,1.59.12S17.2,16.1,15.84,16.79Z" transform="translate(-3.27 0)"/>
    </g>
  </g>
</svg>
