<svg xmlns="http://www.w3.org/2000/svg" xmlns:xlink="http://www.w3.org/1999/xlink" viewBox="0 0 40 39.47">
  <defs>
    <style>
      .cls-1 {
        isolation: isolate;
      }

      .cls-2 {
        fill: url(#linear-gradient);
      }

      .cls-3, .cls-4 {
        opacity: 0.25;
      }

      .cls-10, .cls-11, .cls-14, .cls-3, .cls-5, .cls-6, .cls-8, .cls-9 {
        mix-blend-mode: multiply;
      }

      .cls-3 {
        fill: url(#radial-gradient);
      }

      .cls-12, .cls-4 {
        fill: #fff;
      }

      .cls-5 {
        opacity: 0.35;
        fill: url(#linear-gradient-2);
      }

      .cls-10, .cls-11, .cls-6, .cls-8, .cls-9 {
        opacity: 0.5;
      }

      .cls-6 {
        fill: url(#linear-gradient-3);
      }

      .cls-7 {
        fill: #5d4037;
      }

      .cls-8 {
        fill: url(#linear-gradient-4);
      }

      .cls-9 {
        fill: url(#linear-gradient-5);
      }

      .cls-10 {
        fill: url(#linear-gradient-6);
      }

      .cls-11 {
        fill: url(#linear-gradient-7);
      }

      .cls-13 {
        fill: #f5f5f5;
      }

      .cls-14 {
        fill: #cfd8dc;
      }

      .cls-15 {
        fill: #4e342e;
      }
    </style>
    <linearGradient id="linear-gradient" x1="20" y1="-0.66" x2="20" y2="40.21" gradientUnits="userSpaceOnUse">
      <stop offset="0" stop-color="#ffe082"/>
      <stop offset="1" stop-color="#ffbf66"/>
    </linearGradient>
    <radialGradient id="radial-gradient" cx="20" cy="19.73" r="19.73" gradientUnits="userSpaceOnUse">
      <stop offset="0.8" stop-color="#fff"/>
      <stop offset="1" stop-color="#ffbf66"/>
    </radialGradient>
    <linearGradient id="linear-gradient-2" x1="20" y1="17.66" x2="20" y2="40.14" xlink:href="#linear-gradient"/>
    <linearGradient id="linear-gradient-3" x1="22.8" y1="9.31" x2="31.44" y2="9.31" xlink:href="#linear-gradient"/>
    <linearGradient id="linear-gradient-4" x1="408.5" y1="9.31" x2="417.13" y2="9.31" gradientTransform="matrix(-1, 0, 0, 1, 425.81, 0)" xlink:href="#linear-gradient"/>
    <linearGradient id="linear-gradient-5" x1="0.32" y1="18.04" x2="39.68" y2="18.04" xlink:href="#linear-gradient"/>
    <linearGradient id="linear-gradient-6" x1="7.86" y1="18.46" x2="18.39" y2="18.46" xlink:href="#linear-gradient"/>
    <linearGradient id="linear-gradient-7" x1="21.69" y1="18.46" x2="32.21" y2="18.46" xlink:href="#linear-gradient"/>
  </defs>
  <title>1</title>
  <g class="cls-1">
    <g id="레이어_1" data-name="레이어 1">
      <g>
        <g>
          <circle class="cls-2" cx="20" cy="19.73" r="19.73"/>
          <circle class="cls-3" cx="20" cy="19.73" r="19.73"/>
          <path class="cls-4" d="M36.28,15.19c0,7.33-7.29,0-16.28,0s-16.28,7.33-16.28,0S11,1.91,20,1.91,36.28,7.85,36.28,15.19Z" transform="translate(0 -0.27)"/>
          <path class="cls-5" d="M20,35.79A19.74,19.74,0,0,1,.36,18c-.06.65-.09,1.3-.09,2a19.73,19.73,0,0,0,39.46,0c0-.67,0-1.32-.09-2A19.74,19.74,0,0,1,20,35.79Z" transform="translate(0 -0.27)"/>
        </g>
        <g>
          <g>
            <g>
              <path class="cls-6" d="M24.36,7.21c2.64.71,5.66,1.7,7.08,4.24-1.58-1.5-3.9-1.87-6-1.85-.77,0-2,.27-2.46-.51a1.26,1.26,0,0,1,1.37-1.88C27,7.91,23.43,7,24.36,7.21Z" transform="translate(0 -0.27)"/>
              <path class="cls-7" d="M24.36,6.55C27,7.26,30,8.25,31.44,10.8c-1.58-1.5-3.9-1.88-6-1.86-.77,0-2,.27-2.46-.51a1.26,1.26,0,0,1,1.37-1.88Z" transform="translate(0 -0.27)"/>
            </g>
            <g>
              <path class="cls-8" d="M15.76,7.21c-2.64.71-5.67,1.7-7.08,4.24,1.57-1.5,3.89-1.87,6-1.85.76,0,2,.27,2.45-.51a1.26,1.26,0,0,0-1.36-1.88C13.15,7.91,16.69,7,15.76,7.21Z" transform="translate(0 -0.27)"/>
              <path class="cls-7" d="M15.76,6.55c-2.64.71-5.67,1.7-7.08,4.25,1.57-1.5,3.89-1.88,6-1.86.76,0,2,.27,2.45-.51a1.26,1.26,0,0,0-1.36-1.88Z" transform="translate(0 -0.27)"/>
            </g>
          </g>
          <path class="cls-7" d="M39.34,16.73H.66a.66.66,0,1,1,0-1.32H39.34a.66.66,0,1,1,0,1.32Z" transform="translate(0 -0.27)"/>
          <path class="cls-9" d="M.66,18.7H39.34a.65.65,0,0,0,.34-.11c0-.39-.07-.78-.12-1.16a.54.54,0,0,0-.22-.05H.66a.54.54,0,0,0-.22.05c0,.38-.09.77-.12,1.16A.65.65,0,0,0,.66,18.7Z" transform="translate(0 -0.27)"/>
          <ellipse class="cls-10" cx="13.12" cy="18.46" rx="5.26" ry="5.3"/>
          <ellipse class="cls-11" cx="26.95" cy="18.46" rx="5.26" ry="5.3"/>
          <g>
            <ellipse class="cls-7" cx="13.12" cy="17.15" rx="5.26" ry="5.3"/>
            <path class="cls-12" d="M17.07,17.41a3.95,3.95,0,1,1-4-4A4,4,0,0,1,17.07,17.41Z" transform="translate(0 -0.27)"/>
            <path class="cls-13" d="M13.12,20.73a3.32,3.32,0,1,1,3.29-3.32A3.31,3.31,0,0,1,13.12,20.73Z" transform="translate(0 -0.27)"/>
            <path class="cls-12" d="M16.83,16.85c0,1.67-1.66,0-3.71,0s-3.7,1.67-3.7,0a3.61,3.61,0,0,1,3.7-3.28A3.61,3.61,0,0,1,16.83,16.85Z" transform="translate(0 -0.27)"/>
            <path class="cls-7" d="M14.7,17.41a1.58,1.58,0,0,1-3.15,0A1.58,1.58,0,0,1,14.7,17.41Z" transform="translate(0 -0.27)"/>
            <path class="cls-14" d="M13.12,14.1a4,4,0,0,1,3.93,3.64c0-.11,0-.22,0-.33a3.95,3.95,0,1,0-7.89,0c0,.11,0,.22,0,.33A4,4,0,0,1,13.12,14.1Z" transform="translate(0 -0.27)"/>
          </g>
          <g>
            <ellipse class="cls-7" cx="26.95" cy="17.15" rx="5.26" ry="5.3"/>
            <path class="cls-12" d="M30.9,17.41a4,4,0,1,1-3.95-4A4,4,0,0,1,30.9,17.41Z" transform="translate(0 -0.27)"/>
            <path class="cls-13" d="M27,20.73a3.32,3.32,0,1,1,3.29-3.32A3.31,3.31,0,0,1,27,20.73Z" transform="translate(0 -0.27)"/>
            <path class="cls-12" d="M30.66,16.85c0,1.67-1.66,0-3.71,0s-3.71,1.67-3.71,0a3.74,3.74,0,0,1,7.42,0Z" transform="translate(0 -0.27)"/>
            <path class="cls-7" d="M28.52,17.41a1.57,1.57,0,0,1-3.14,0A1.57,1.57,0,0,1,28.52,17.41Z" transform="translate(0 -0.27)"/>
            <path class="cls-14" d="M27,14.1a4,4,0,0,1,3.93,3.64c0-.11,0-.22,0-.33a4,4,0,1,0-7.9,0c0,.11,0,.22,0,.33A4,4,0,0,1,27,14.1Z" transform="translate(0 -0.27)"/>
          </g>
          <g>
            <path class="cls-4" d="M15.22,32.42a1.75,1.75,0,1,1,0-3.5h9.56a1.75,1.75,0,0,1,0,3.5Z" transform="translate(0 -0.27)"/>
            <path class="cls-7" d="M24.78,29.58H15.22a1.09,1.09,0,1,0,0,2.18h9.56a1.09,1.09,0,0,0,0-2.18Z" transform="translate(0 -0.27)"/>
            <path class="cls-15" d="M15.22,30.89h9.56a1.1,1.1,0,0,1,.87.44,1.09,1.09,0,0,0-.87-1.75H15.22a1.09,1.09,0,0,0-.87,1.75A1.1,1.1,0,0,1,15.22,30.89Z" transform="translate(0 -0.27)"/>
          </g>
        </g>
      </g>
    </g>
  </g>
</svg>
