<svg id="레이어_1" data-name="레이어 1" xmlns="http://www.w3.org/2000/svg" xmlns:xlink="http://www.w3.org/1999/xlink" viewBox="0 0 27.77 40">
  <defs>
    <style>
      .cls-1 {
        fill: #261b18;
      }

      .cls-2 {
        fill: #e8e8e8;
      }

      .cls-3 {
        fill: #313142;
      }

      .cls-19, .cls-21, .cls-4 {
        opacity: 0.3;
      }

      .cls-5 {
        fill: #f5f5f5;
      }

      .cls-6 {
        fill: url(#linear-gradient);
      }

      .cls-7 {
        fill: #fff9f0;
      }

      .cls-21, .cls-22, .cls-23, .cls-8 {
        fill: #fff;
      }

      .cls-8 {
        opacity: 0.07;
      }

      .cls-9 {
        fill: #ffbc82;
      }

      .cls-10 {
        fill: #bf3c1b;
        opacity: 0.2;
      }

      .cls-11 {
        fill: #57443a;
      }

      .cls-12 {
        fill: #ff7752;
        opacity: 0.4;
      }

      .cls-13 {
        fill: #425361;
      }

      .cls-14 {
        fill: #c3d5e3;
      }

      .cls-15 {
        fill: #121b21;
      }

      .cls-16 {
        fill: #ff3b3b;
      }

      .cls-17 {
        fill: #a80a0a;
      }

      .cls-18 {
        fill: #e8dac5;
      }

      .cls-19 {
        fill: #b54d26;
      }

      .cls-20 {
        fill: #23232d;
      }

      .cls-23 {
        opacity: 0.7;
      }

      .cls-24 {
        fill: #c1c5c9;
      }
    </style>
    <linearGradient id="linear-gradient" x1="19.82" y1="30.69" x2="19.82" y2="32.93" gradientUnits="userSpaceOnUse">
      <stop offset="0" stop-color="#ee996d"/>
      <stop offset="0.02" stop-color="#ee9a6e"/>
      <stop offset="0.37" stop-color="#f8b181"/>
      <stop offset="0.71" stop-color="#fdbf8d"/>
      <stop offset="1" stop-color="#ffc491"/>
    </linearGradient>
  </defs>
  <title>1</title>
  <g>
    <path class="cls-1" d="M10.68,3.73C4.69,10.4,7,18.32,7.12,20.33c.15,3.93-1.73,5.71-.69,8.37,3.12,8,13.25,9.56,20.25,6.41,3.75-1.69,5.15-5.77,4.89-9.62a23.88,23.88,0,0,1,.56-7,27.68,27.68,0,0,0,.3-7C31.93-.68,16.75-3,10.68,3.73Z" transform="translate(-6.12 0)"/>
    <g>
      <path class="cls-2" d="M23.78,33.55c-1.67-1.7-6-1.72-7.82-.27-1.66,1.31-.45,4.22.13,6.72h7.43C23.94,37.08,25.45,35.25,23.78,33.55Z" transform="translate(-6.12 0)"/>
      <path class="cls-3" d="M24,38a7.82,7.82,0,0,1-.15-4.6c-1.68-1.67-6.26-1.53-8.16,0a7.33,7.33,0,0,1-.17,4.29c.21.83.42,1.57.56,2.29h7.5A11,11,0,0,1,24,38Z" transform="translate(-6.12 0)"/>
      <path class="cls-4" d="M16.61,34.48l.61,2.75A23.16,23.16,0,0,1,19.9,36a23.78,23.78,0,0,1,2.73,1.12L23,34.29a16.36,16.36,0,0,1-3.05,1.57A26.59,26.59,0,0,1,16.61,34.48Z" transform="translate(-6.12 0)"/>
      <path class="cls-5" d="M21.92,32a6.62,6.62,0,0,0-4.5.06c-2.2,1.05.14,4.49.14,4.49l2.37-.6,2.36.52S24.08,32.9,21.92,32Z" transform="translate(-6.12 0)"/>
      <path class="cls-6" d="M22,32.32c-.39-.31-.29-1.26-.23-2.36.14-2.49-4.14-2.59-4.14.14,0,1.2.05,2-.28,2.29-.62.64-.56,1.77,2.57,3.23C21.58,34.77,23.8,33.8,22,32.32Z" transform="translate(-6.12 0)"/>
      <g>
        <path class="cls-7" d="M17.18,32.41a.37.37,0,0,0,0,.74.37.37,0,0,0,.35-.38A.38.38,0,0,0,17.18,32.41Z" transform="translate(-6.12 0)"/>
        <path class="cls-7" d="M18,33a.37.37,0,0,0-.35.38.36.36,0,0,0,.37.36.37.37,0,0,0,.35-.38A.37.37,0,0,0,18,33Z" transform="translate(-6.12 0)"/>
        <path class="cls-7" d="M19.1,33.37a.37.37,0,0,0,0,.73.37.37,0,0,0,.35-.38A.35.35,0,0,0,19.1,33.37Z" transform="translate(-6.12 0)"/>
        <path class="cls-7" d="M20.18,33.43a.35.35,0,0,0-.35.37.36.36,0,1,0,.72,0A.35.35,0,0,0,20.18,33.43Z" transform="translate(-6.12 0)"/>
        <path class="cls-7" d="M22.14,32.37a.37.37,0,0,0-.35.38.37.37,0,1,0,.73,0A.38.38,0,0,0,22.14,32.37Z" transform="translate(-6.12 0)"/>
        <path class="cls-7" d="M21.28,33a.38.38,0,0,0-.36.38.37.37,0,0,0,.38.35.36.36,0,0,0,.35-.38A.36.36,0,0,0,21.28,33Z" transform="translate(-6.12 0)"/>
      </g>
      <path class="cls-8" d="M21.68,36.92a7.23,7.23,0,0,1-4.22-.07c-.77-.2-1.2.72-1,1.51.31,1,1.91,1.31,3.3,1.29,2.74,0,3.76-1.13,3.3-2.42C23,36.89,22.38,36.65,21.68,36.92Z" transform="translate(-6.12 0)"/>
    </g>
    <g>
      <path class="cls-9" d="M18.83,5.72c-5.22.92-9,8.38-8.19,15.45.62,5.25,5.06,10.9,10.43,10.56,6.45-.41,9.71-8,9.05-14.29C29.37,10.36,26.14,4.42,18.83,5.72Z" transform="translate(-6.12 0)"/>
      <path class="cls-10" d="M27.94,7.84a24.36,24.36,0,0,0-8.66-2c-1.9-.09-4.45-.25-6.24.49C9.21,7.9,9.49,11.25,9.39,14.61c0,1.17-.37,2.34-.51,3.51s-.42,4.88,1.66,4c1.09-.46,1.38-2.37,1.65-3.41,1-3.87,3.08-4.29,5.11-5,2.38-.84,5.13-1.72,5.65-3.28,1,1.63,5.17,5,7,3C31.39,11.8,29.46,8.48,27.94,7.84Z" transform="translate(-6.12 0)"/>
      <path class="cls-1" d="M26.42,4.4c-2.84-2.5-6.58-2.55-10.13-2a9.45,9.45,0,0,0-5.76,3.88,11.75,11.75,0,0,0-2.21,6.53,31.1,31.1,0,0,0,.21,5.44c.09.87,0,3.81,1.18,4.12,1.34.36,1.71-3.88,2-4.85.94-3,2.82-3.83,5.44-4.57,2.09-.59,4.92-1.54,5.71-3.77,1.56,1.58,4.56,4.16,7,4,1.94-.1,1-2.44.52-3.64A14.51,14.51,0,0,0,26.42,4.4Z" transform="translate(-6.12 0)"/>
      <path class="cls-11" d="M26.56,2.76A14.7,14.7,0,0,0,18.64.93,11,11,0,0,0,9.79,7C9.3,8,8,11.14,8.26,13.6c.4,0,2.76-.41,3.69-1.54-.14.81-1,1.77-1.29,2.57,1.82-.65,3.94-1.48,8.43-3.19A5,5,0,0,0,22.6,7.27c1.59,2,4.34,4.35,7,4.34-.42-.43-.75-1-1.17-1.41a3.4,3.4,0,0,0,3.19-.06C30.87,6.91,29.48,4.46,26.56,2.76Z" transform="translate(-6.12 0)"/>
    </g>
    <g>
      <path class="cls-12" d="M29.26,20.05a2.32,2.32,0,0,0-1.91-.72c-.81,0-1.9.28-1.17,1.45.38.63,3.63,1.09,3.26-.34A1.17,1.17,0,0,0,29.26,20.05Z" transform="translate(-6.12 0)"/>
      <path class="cls-12" d="M16.82,19.79a2.47,2.47,0,0,0-2.12-.23c-.83.21-1.86.79-.81,1.79.55.53,4,.15,3.22-1.21A1.26,1.26,0,0,0,16.82,19.79Z" transform="translate(-6.12 0)"/>
      <path class="cls-10" d="M21.62,20.9c-.67,0-.7-.26-1.15,0s0,1.13,1.22,1,1.64-.9,1.36-1.17S22.37,20.85,21.62,20.9Z" transform="translate(-6.12 0)"/>
      <path class="cls-13" d="M28.22,16.42c-1.86-.8-3.55,1.5-2.21,2.69A2.43,2.43,0,0,1,28.62,19,1.66,1.66,0,0,0,28.22,16.42Z" transform="translate(-6.12 0)"/>
      <path class="cls-14" d="M27.42,16.76c-.86.27-.46,1.94.42,1.35C28.48,17.69,28.18,16.52,27.42,16.76Z" transform="translate(-6.12 0)"/>
      <path class="cls-13" d="M14.42,16.57a1.65,1.65,0,0,0-.33,2.62,2.42,2.42,0,0,1,2.61,0C18,18,16.25,15.72,14.42,16.57Z" transform="translate(-6.12 0)"/>
      <path class="cls-14" d="M15.57,16.83c-.77-.22-1,1-.38,1.36C16.08,18.75,16.44,17.08,15.57,16.83Z" transform="translate(-6.12 0)"/>
      <path class="cls-1" d="M17,14.31a10.3,10.3,0,0,0-2.71.16,4.68,4.68,0,0,0-1.71.74c-.15.12-.34.32-.33.5.15,0,.26-.07.4-.11a9,9,0,0,1,2.14-.23c.55,0,1.1,0,1.66,0,.37,0,.88.06,1.08-.31S17.5,14.33,17,14.31Z" transform="translate(-6.12 0)"/>
      <path class="cls-1" d="M29.7,15A4.4,4.4,0,0,0,28,14.3a9.8,9.8,0,0,0-2.65,0c-.48,0-.75.31-.5.75s.7.25,1.06.25c.54,0,1.08-.06,1.62-.07a8.51,8.51,0,0,1,2.08.14c.14,0,.25.12.4.09A.68.68,0,0,0,29.7,15Z" transform="translate(-6.12 0)"/>
      <path class="cls-15" d="M27.85,16.1a1.92,1.92,0,0,0-2.19,1.38,1.71,1.71,0,0,1,1.93-.6,3.12,3.12,0,0,0,3.85-.71C29.65,17,28.72,16.26,27.85,16.1Z" transform="translate(-6.12 0)"/>
      <path class="cls-15" d="M14.85,16.28c-.87.17-1.79.94-3.59.11a3.12,3.12,0,0,0,3.85.68,1.73,1.73,0,0,1,1.94.57A1.93,1.93,0,0,0,14.85,16.28Z" transform="translate(-6.12 0)"/>
      <g>
        <path class="cls-16" d="M14.37,23.18c2.92,4.31,4.69,5.08,6.92,5.18a3.78,3.78,0,0,0,4.12-3A8.07,8.07,0,0,1,27.52,23c-1.73.41-3.45.23-6.07.34C19.27,23.41,16.1,24.06,14.37,23.18Z" transform="translate(-6.12 0)"/>
        <path class="cls-17" d="M15.7,23.92a6.5,6.5,0,0,0,5.23,2.92c2.23,0,3.68-.7,4.08-1.69a2.9,2.9,0,0,1,1.38-1.5A23.69,23.69,0,0,1,15.7,23.92Z" transform="translate(-6.12 0)"/>
        <path class="cls-7" d="M17,24.16a1.64,1.64,0,0,0,1.36,1.21,12.25,12.25,0,0,0,5.06.14,2.71,2.71,0,0,0,1.75-1.58A25.77,25.77,0,0,1,17,24.16Z" transform="translate(-6.12 0)"/>
        <path class="cls-7" d="M21.8,25.65a7.34,7.34,0,0,1-3.72-.48c-.57-.34-.62,0-.49.26,0,0,.53,1.21,3.17,1.45s3.83-1.23,3.54-1.48S23.27,25.58,21.8,25.65Z" transform="translate(-6.12 0)"/>
        <path class="cls-18" d="M17,24.16a1.38,1.38,0,0,0,.32.62s5.94-.55,7.37-.08a3,3,0,0,0,.48-.77A29.66,29.66,0,0,1,17,24.16Z" transform="translate(-6.12 0)"/>
        <path class="cls-18" d="M18.56,25.34a6,6,0,0,0,4.69.13A9,9,0,0,1,18.56,25.34Z" transform="translate(-6.12 0)"/>
      </g>
    </g>
    <g>
      <path class="cls-19" d="M28.89,14.75a15.53,15.53,0,0,0-3,.47,12.85,12.85,0,0,0-2.62.72,3,3,0,0,1-1.89.58c-1.55-.07-2.85-1-4.4-1.21a13.18,13.18,0,0,0-4.85.06c-.42.12-1.67.59-.83,1a7.38,7.38,0,0,0,3,.34c.42,0,.84,0,1.25.07,1.47.14,3.74-.06,3.62,1.79a3.1,3.1,0,0,1-1.93,2.81,13.57,13.57,0,0,1-3,.3,5.33,5.33,0,0,1-2.19-.48c-.2-.09-.79-.47-1-.21-.33.46.87,1.22,1.18,1.36a7,7,0,0,0,2.26.51c1.92.22,3.9.12,5-1.65.64-1,1-2.24,1.54-3.29,1-1.73,1.4.62,1.7,1.65a5.46,5.46,0,0,0,.76,1.62,3.87,3.87,0,0,0,2.86,1.39,7.7,7.7,0,0,0,3.32-.76c.62-.62-.95-.05-1.38-.21a3.27,3.27,0,0,0-.94,0,9.55,9.55,0,0,1-1.19-.1,3.67,3.67,0,0,1-1.42-.62,2.5,2.5,0,0,1-.88-3c.36-1,1.43-1.05,2.31-1.13,1.08-.09,2.17-.06,3.24-.16a11.39,11.39,0,0,1,1.43,0c.61,0,1.94-.17,1.21-1.07S29.88,14.71,28.89,14.75Z" transform="translate(-6.12 0)"/>
      <path class="cls-20" d="M10.57,14.69c-1.27,0-2.35-.32-2.65-.06s.29,1.47.29,1.47a2.14,2.14,0,0,0,1,.34c.08.88,0,3.17,1.65,4.62,1.34,1.2,5.75,1.56,7.13.87a5.35,5.35,0,0,0,2.73-4C21.45,14.06,12.36,14.63,10.57,14.69Zm7.5,6.2c-1.68,1.09-6,.57-7.08-.82-.86-1.07-1-3.3-.48-3.62,1.61-1,7.65-.59,9,.49C20.23,17.46,19.34,20.07,18.07,20.89Z" transform="translate(-6.12 0)"/>
      <path class="cls-20" d="M31.37,14.37c-1.61,0-9.84-.31-9.06,3.52a5.34,5.34,0,0,0,2.57,3.94c1.26.65,5.24.17,6.42-1.08,1.42-1.5,1.31-3.78,1.35-4.67a1.89,1.89,0,0,0,.89-.36s.59-1.16.23-1.49S32.52,14.38,31.37,14.37Zm-.23,5.4c-1,1.42-4.82,2.06-6.37,1-1.17-.78-2-3.36-1.45-3.9,1.23-1.12,6.67-1.68,8.15-.76C32,16.44,31.88,18.67,31.14,19.77Z" transform="translate(-6.12 0)"/>
      <path class="cls-21" d="M24.39,16.54c-.9.39.73.87,1.08.92a12.15,12.15,0,0,0,3.88-.15c.67-.12,2.13-.74,1.71-1.12C30.48,15.66,25.38,16.11,24.39,16.54Z" transform="translate(-6.12 0)"/>
      <path class="cls-22" d="M28.39,16.32c-.49.08-.81.22-.67.44.26.43,3.11.18,3.31-.15S29.42,16.15,28.39,16.32Z" transform="translate(-6.12 0)"/>
      <path class="cls-23" d="M25.29,19.89c-.3,0-.52.05-.46.24.1.38,1.87.63,2,.4S26,19.92,25.29,19.89Z" transform="translate(-6.12 0)"/>
      <path class="cls-23" d="M12,19.75c-.32-.05-.55,0-.52.19.06.39,1.88.85,2.08.64S12.66,19.86,12,19.75Z" transform="translate(-6.12 0)"/>
      <path class="cls-21" d="M18.88,16.71c-1.13-.4-6.75-.84-7.33-.34-.42.36,1.25.95,2,1.07a15.4,15.4,0,0,0,4.26.14C18.19,17.53,19.91,17.08,18.88,16.71Z" transform="translate(-6.12 0)"/>
      <path class="cls-22" d="M16.44,16.38c-.52,0-.87.12-.76.36.22.46,3.24.57,3.48.26S17.54,16.35,16.44,16.38Z" transform="translate(-6.12 0)"/>
      <path class="cls-20" d="M23.38,15.59a4.79,4.79,0,0,1-4,0c-1.24-.44.65.81.79,1.46s-.07,2.61.36,1.44,1.29-1.25,1.84-.17.52-1.8.74-2.06S24.55,15.05,23.38,15.59Z" transform="translate(-6.12 0)"/>
      <path class="cls-24" d="M11.16,15.07c3.43.18,6.16.28,8.23,1.09C18,15,15.72,14.79,11.16,15.07Z" transform="translate(-6.12 0)"/>
      <path class="cls-24" d="M31.08,14.67c-4.18.15-6.13.18-7.25,1.24C25.64,15.05,28,15.12,31.08,14.67Z" transform="translate(-6.12 0)"/>
    </g>
    <path class="cls-2" d="M15.67,33.52a3.52,3.52,0,0,0-2,2.23A26.4,26.4,0,0,0,12.83,40h2.34a12.67,12.67,0,0,1,.5-2.79A11.09,11.09,0,0,0,15.67,33.52Z" transform="translate(-6.12 0)"/>
    <path class="cls-2" d="M23.81,33.52a11,11,0,0,0,0,3.69A13.3,13.3,0,0,1,24.31,40h2.33a26.52,26.52,0,0,0-.84-4.25A3.58,3.58,0,0,0,23.81,33.52Z" transform="translate(-6.12 0)"/>
  </g>
</svg>
