<svg id="레이어_1" data-name="레이어 1" xmlns="http://www.w3.org/2000/svg" viewBox="0 0 40 39.88">
  <defs>
    <style>
      .cls-1, .cls-4 {
        fill: #ff9500;
      }

      .cls-2, .cls-5 {
        fill: #e3ca95;
      }

      .cls-3 {
        fill: #576d64;
      }

      .cls-3, .cls-4, .cls-5, .cls-6 {
        fill-rule: evenodd;
      }
    </style>
  </defs>
  <title>1</title>
  <g>
    <circle class="cls-1" cx="20.05" cy="19.71" r="19.43"/>
    <circle class="cls-2" cx="20.15" cy="19.77" r="15.04"/>
    <polygon class="cls-3" points="18.87 27.68 19.24 30.09 21.3 30.09 21.53 27.98 18.87 27.68"/>
    <polygon class="cls-3" points="18.31 12.1 18.7 24.82 21.5 24.63 21.3 12.1 18.31 12.1"/>
    <path class="cls-4" d="M9.21,3.47Q6.66,7.3,4.1,11.13C3,12.8.69,15,.79,17.06a.56.56,0,0,0,1.09.12c.78-2.39,2.71-4.68,4.06-6.78S8.7,6.1,10.09,4C10.44,3.41,9.56,2.94,9.21,3.47Z" transform="translate(0 0)"/>
    <path class="cls-4" d="M14.61,1.08c-.9,1.32-1.8,2.63-2.69,4-.6.89-1.31,1.79-1.88,2.75a2.61,2.61,0,0,1,1.78-.32c.33-.54.64-1.09,1-1.61C13.7,4.43,14.62,3,15.55,1.6,15.92,1,15,.53,14.61,1.08Z" transform="translate(0 0)"/>
    <path class="cls-4" d="M4.64,17.64l-2,3.47A11.08,11.08,0,0,0,1,24.36a.56.56,0,0,0,.94.52,10.63,10.63,0,0,0,1.89-3.12L5.7,18.23A.61.61,0,0,0,4.64,17.64Z" transform="translate(0 0)"/>
    <path class="cls-4" d="M18.74.59c-.54.72-1.07,1.46-1.56,2.22a7.63,7.63,0,0,0-1.28,2.4.62.62,0,0,0,1,.57A11.14,11.14,0,0,0,18.28,3.6c.46-.77.95-1.53,1.48-2.27C20.17.75,19.18,0,18.74.59Z" transform="translate(0 0)"/>
    <path class="cls-4" d="M5,25a11.22,11.22,0,0,0-1.46,2,4.24,4.24,0,0,0-.84,2.2.64.64,0,0,0,1.1.43A8.72,8.72,0,0,0,4.7,27.8,10.1,10.1,0,0,1,6,26C6.51,25.31,5.57,24.4,5,25Z" transform="translate(0 0)"/>
    <path class="cls-4" d="M22.79.63c-.34.71-.71,1.41-1.11,2.09a4.41,4.41,0,0,0-.92,1.91.53.53,0,0,0,.8.43c.62-.3.92-1.13,1.24-1.72s.73-1.4,1.06-2.12S23.14-.08,22.79.63Z" transform="translate(0 0)"/>
    <path class="cls-4" d="M7.31,29.1,6.15,30.8a5.32,5.32,0,0,0-1,1.68c-.11.5.48,1,.94.69a5.36,5.36,0,0,0,1.18-1.6l1.15-1.85C8.87,29,7.77,28.43,7.31,29.1Z" transform="translate(0 0)"/>
    <path class="cls-4" d="M27.27,1.89l-1.1,1.72a3.5,3.5,0,0,0-.77,1.67.56.56,0,0,0,.85.47,3.7,3.7,0,0,0,1.14-1.47l1.05-1.75C28.89,1.79,27.73,1.16,27.27,1.89Z" transform="translate(0 0)"/>
    <path class="cls-4" d="M10.51,32.11c-.32.59-.65,1.17-1,1.75s-.84,1-.65,1.66a.55.55,0,0,0,.53.39c.72-.1.94-.72,1.28-1.29s.68-1.24,1-1.87A.66.66,0,0,0,10.51,32.11Z" transform="translate(0 0)"/>
    <path class="cls-4" d="M31.09,3.75,30,5.5a4.83,4.83,0,0,0-.89,1.71c-.05.42.38.9.81.59a4.52,4.52,0,0,0,1.13-1.58l1.11-1.88C32.58,3.66,31.5,3.07,31.09,3.75Z" transform="translate(0 0)"/>
    <path class="cls-4" d="M14.13,34.19c-.29.5-.58,1-.88,1.5a5.67,5.67,0,0,0-.73,1.48.56.56,0,0,0,1,.52,5.37,5.37,0,0,0,.89-1.4c.28-.5.55-1,.82-1.52A.6.6,0,0,0,14.13,34.19Z" transform="translate(0 0)"/>
    <path class="cls-4" d="M34.88,6.05l-.08.1c-.49.89-1,1.78-1.52,2.66A9.09,9.09,0,0,0,31.9,11.3c-.09.42.42.89.81.59a7.34,7.34,0,0,0,1.61-2.3c.48-.86,1-1.73,1.4-2.61A9.28,9.28,0,0,1,34.88,6.05Z" transform="translate(0 0)"/>
    <path class="cls-4" d="M18.78,34.94l-1.14,1.77a6.85,6.85,0,0,0-1,1.73c-.19.6.6.93,1,.56a6.86,6.86,0,0,0,1.12-1.65c.37-.6.73-1.2,1.09-1.8S19.21,34.26,18.78,34.94Z" transform="translate(0 0)"/>
    <path class="cls-4" d="M36.54,9.24l-1.47,2.7a9.69,9.69,0,0,0-1.22,2.53.44.44,0,0,0,.74.4A10.22,10.22,0,0,0,36,12.45l1.41-2.73A.5.5,0,0,0,36.54,9.24Z" transform="translate(0 0)"/>
    <path class="cls-4" d="M22.84,34.54c-.41.74-.79,1.49-1.13,2.27a6.64,6.64,0,0,0-.7,2.11c0,.58.73.63,1,.24a12,12,0,0,0,.86-2c.29-.69.61-1.36,1-2A.56.56,0,0,0,22.84,34.54Z" transform="translate(0 0)"/>
    <path class="cls-4" d="M30.26,31.19a1.57,1.57,0,0,1-1.6,0,39.44,39.44,0,0,0-2.91,6.41c-.18.55.66,1,1,.56a41.58,41.58,0,0,0,4.06-7.29C30.63,31,30.44,31.09,30.26,31.19Z" transform="translate(0 0)"/>
    <path class="cls-4" d="M38,13q-1.63,3.32-3.29,6.63a5.7,5.7,0,0,1,.54,1.83c1.25-2.63,2.5-5.27,3.73-7.92C39.29,12.84,38.33,12.29,38,13Z" transform="translate(0 0)"/>
    <path class="cls-4" d="M38.88,17.24c-2.31,5.72-4.66,11.41-7.1,17.07a.59.59,0,0,0,1,.57c1.74-2.52,2.66-5.63,3.72-8.48l2.95-8A8.7,8.7,0,0,1,38.88,17.24Z" transform="translate(0 0)"/>
    <path class="cls-5" d="M12.52,6.53,7,15.27c-.78,1.24-3,3.36-2.15,4.9.27.48.89.17.93-.28.1-1,1.25-2.29,1.76-3.15l1.85-3.1L13.35,7C13.67,6.46,12.84,6,12.52,6.53Z" transform="translate(0 0)"/>
    <path class="cls-5" d="M16.67,5.54C12.83,11.28,8.71,17,5.41,23.08a.63.63,0,0,0,1.11.61c3.9-5.72,7.3-11.82,11.09-17.62C18,5.48,17.05,5,16.67,5.54Z" transform="translate(0 0)"/>
    <path class="cls-5" d="M20.73,5.11c-3.4,5.26-6.73,10.57-9.94,16-.47.78-5.53,7.38-3,7.67a.59.59,0,0,0,.71-.43c0-.06,0-.13,0-.2a.52.52,0,0,0-.25-.58l-.16-.1-.07,0c1.06-1.48,3.28-4.86,3.51-5.24,1.09-1.86,2.2-3.7,3.3-5.55q3.3-5.55,6.7-11C21.91,5,21.06,4.59,20.73,5.11Z" transform="translate(0 0)"/>
    <path class="cls-5" d="M18.17,16.65a1.82,1.82,0,0,1-.13-.28c-2.77,4.62-5.52,9.26-8.14,14a.67.67,0,0,0,1.17.65c2.58-4.34,5.11-8.73,7.63-13.11A1.7,1.7,0,0,1,18.17,16.65Z" transform="translate(0 0)"/>
    <path class="cls-5" d="M24.47,5.75c-1.2,2-2.41,4-3.61,5.95a1.48,1.48,0,0,1,.9.87c1.21-2.1,2.43-4.2,3.66-6.28C25.78,5.68,24.83,5.16,24.47,5.75Z" transform="translate(0 0)"/>
    <path class="cls-5" d="M18.55,23.54V22.4c-2.08,3.16-4.34,6.42-5.66,9.82-.22.56.63,1,1,.55a45.35,45.35,0,0,0,5.25-8.18A1.32,1.32,0,0,1,18.55,23.54Z" transform="translate(0 0)"/>
    <path class="cls-5" d="M28.16,6.87,20.83,18.78A1.36,1.36,0,0,1,21.58,20c0,.09,0,.17,0,.26,2.52-4.26,5-8.54,7.54-12.81C29.5,6.78,28.54,6.26,28.16,6.87Z" transform="translate(0 0)"/>
    <path class="cls-5" d="M18.71,29.85l-2.1,3.54c-.52.89.9,1.67,1.41.78.7-1.21,1.37-2.42,2.06-3.62A1.59,1.59,0,0,1,18.71,29.85Z" transform="translate(0 0)"/>
    <path class="cls-5" d="M30.43,9.42q-5,9.06-10.28,18a1.71,1.71,0,0,1,1.38.57q5-9,9.8-18.07A.51.51,0,0,0,30.43,9.42Z" transform="translate(0 0)"/>
    <path class="cls-5" d="M32.74,12.41q-3.11,5.44-6.19,10.9c-1.88,3.3-4.14,6.58-5.52,10.11-.25.65.79,1.22,1.2.66,2.27-3,3.84-6.7,5.65-10l5.94-11A.62.62,0,0,0,32.74,12.41Z" transform="translate(0 0)"/>
    <path class="cls-5" d="M34.31,16.16c-2.78,5.42-6.13,10.64-8.68,16.16a.74.74,0,0,0,1.3.72c3.32-5.05,5.79-10.87,8.41-16.31C35.67,16.06,34.66,15.49,34.31,16.16Z" transform="translate(0 0)"/>
    <path class="cls-3" d="M19.94,12.17q-.54.54-1.05,1.11A3.73,3.73,0,0,0,18,14.51c-.15.45.42.8.79.57a4.85,4.85,0,0,0,1-1c.32-.37.65-.72,1-1.07C21.32,12.44,20.47,11.63,19.94,12.17Z" transform="translate(0 0)"/>
    <path class="cls-3" d="M20.42,14.63a11.08,11.08,0,0,0-2.21,2.48.56.56,0,0,0,.89.65c.78-.71,1.43-1.55,2.21-2.27C21.9,15,21,14.1,20.42,14.63Z" transform="translate(0 0)"/>
    <path class="cls-3" d="M20.49,17.54l-1.32,1.21c-.38.35-1,.75-1.09,1.3a.55.55,0,0,0,.54.67c.61,0,1-.6,1.43-1s.91-.87,1.36-1.31S21.09,17,20.49,17.54Z" transform="translate(0 0)"/>
    <path class="cls-3" d="M20.29,20.92c-.43.32-.86.64-1.27,1A4,4,0,0,0,17.94,23c-.19.35.16.9.58.72a5,5,0,0,0,1.2-.84c.4-.33.8-.63,1.22-.94C21.58,21.51,20.93,20.45,20.29,20.92Z" transform="translate(0 0)"/>
    <path class="cls-3" d="M20.25,23.51a5.58,5.58,0,0,1-.76.7.56.56,0,0,0,.59.95,3.45,3.45,0,0,0,1.06-.8C21.67,23.78,20.78,22.92,20.25,23.51Z" transform="translate(0 0)"/>
    <path class="cls-3" d="M20.16,28.07c-.35.4-.69.8-1,1.21a.55.55,0,0,0,.8.76c.39-.36.76-.73,1.13-1.11C21.61,28.35,20.7,27.48,20.16,28.07Z" transform="translate(0 0)"/>
    <path class="cls-6" d="M38.15,11A20.45,20.45,0,0,0,35,5.44a14.3,14.3,0,0,0-5.36-3.52C20.67-1.81,9.48-.27,3.59,8a.55.55,0,0,0-.1.44c-4.1,6.31-4.86,14.91-.82,21.45A20.39,20.39,0,0,0,24,39.49c7.93-1.57,13.9-8.18,15.55-16A19.93,19.93,0,0,0,38.15,11Zm-16,17a20.61,20.61,0,0,1,.23,2.22.74.74,0,0,1-.72.75L20.11,31a2.27,2.27,0,0,1-1.24-.1c-.62-.35-.76-1.4-.77-2a1.94,1.94,0,0,1,1-1.83,2.91,2.91,0,0,1,2.26,0,.63.63,0,0,1,.45.44.56.56,0,0,1,.34.44ZM20,29.55a2.6,2.6,0,0,0-.28,0c0-.15-.12-.36-.13-.48s-.07-.65.21-.79a1.38,1.38,0,0,1,.95.07,11.11,11.11,0,0,0,.08,1.15l-.83.05Zm2.29-17.17c.18,3.19-.13,6.48-.2,9.66,0,.85.34,2.72-.36,3.4s-2.23.28-3,.27a.76.76,0,0,1-.77-.73c0-4.41-.21-8.8-.57-13.19a.73.73,0,0,1,.71-.74,21.11,21.11,0,0,1,3.18.28.78.78,0,0,1,.81.18.66.66,0,0,1,.22.87ZM19.41,24.25c0-3.92-.18-7.83-.54-11.73a18.13,18.13,0,0,1,1.95.19c-.13,1.74-.09,3.52-.13,5.26,0,1.05-.05,2.1-.07,3.15a23.85,23.85,0,0,1-.07,3.15,7.3,7.3,0,0,1-1.14,0ZM31.65,9.12h0a16.05,16.05,0,0,1,2,18.69,15.8,15.8,0,0,1-15.5,7.73c-6.09-.79-11.7-5.06-13.4-11.07a16.54,16.54,0,0,1,4-15.81A.68.68,0,0,1,8.9,7.58c7.15-3.95,16.72-5.06,22.75,1.54ZM33,25.87a14.44,14.44,0,0,1-13.36,8.32,14.85,14.85,0,0,1-13-8.67A15.12,15.12,0,0,1,10.55,8.63a.58.58,0,0,0,.19-.37c5.68-2.82,12.76-3.83,18.12.29A14.5,14.5,0,0,1,33,25.87ZM38.46,21c-.72,7.26-5.51,14.1-12.55,16.45a18.92,18.92,0,0,1-10.57.39,19.41,19.41,0,0,1-9.76-6.47C.14,25.12.2,15.81,4.55,9a.64.64,0,0,0,.17-.16c5-6.57,13.34-8.73,21.15-6.66,4.27,1.13,7.86,3.1,9.91,7.13C37.68,13,38.89,16.79,38.46,21Z" transform="translate(0 0)"/>
  </g>
</svg>
