<svg id="레이어_1" data-name="레이어 1" xmlns="http://www.w3.org/2000/svg" viewBox="0 0 32.05 40">
  <defs>
    <style>
      .cls-1, .cls-3 {
        fill: #576d64;
      }

      .cls-1, .cls-4, .cls-5, .cls-6 {
        fill-rule: evenodd;
      }

      .cls-2, .cls-5 {
        fill: #ec331e;
      }

      .cls-4 {
        fill: #e3ca95;
      }
    </style>
  </defs>
  <title>1</title>
  <g>
    <polygon class="cls-1" points="1.34 36.29 2.25 38.83 4.28 39.31 9.65 38.85 20.72 38.53 28.04 39.12 30.79 38.17 30.92 35.88 28.47 36.9 10.94 36.9 3.35 36.81 1.34 36.29"/>
    <path class="cls-2" d="M2.89,3.7H29.78A1.29,1.29,0,0,1,31.07,5V34.87a2.3,2.3,0,0,1-2.3,2.3H3.15a2.3,2.3,0,0,1-2.3-2.3V5.74a2,2,0,0,1,2-2Z"/>
    <rect class="cls-3" x="24.19" y="0.79" width="2.95" height="6.7" rx="0.21"/>
    <rect class="cls-3" x="4.88" y="0.83" width="2.25" height="6.93" rx="0.16"/>
    <polygon class="cls-4" points="4.46 14.21 2.98 15.73 3.42 33.86 25.24 34.86 28.48 33.4 28.19 13.94 19.43 14.56 10.94 14.56 4.46 14.21"/>
    <path class="cls-5" d="M7.94,5.09c-.62.63-1.19,1.29-1.75,2A5,5,0,0,0,4.9,9a.44.44,0,0,0,.65.47c.62-.39,1-1.23,1.38-1.81S8,6.35,8.6,5.72A.46.46,0,0,0,7.94,5.09Z" transform="translate(-4.25 0)"/>
    <path class="cls-5" d="M8.54,7.58,6.57,10A7.11,7.11,0,0,0,5,12.17a.44.44,0,0,0,.65.47,7.25,7.25,0,0,0,1.79-2L9.29,8.3C9.69,7.78,9,7.07,8.54,7.58Z" transform="translate(-4.25 0)"/>
    <path class="cls-5" d="M12.82,3.74l-1,1A3,3,0,0,0,11,5.85a.41.41,0,0,0,.52.5,3,3,0,0,0,1-.89c.33-.35.65-.71,1-1.06S13.24,3.29,12.82,3.74Z" transform="translate(-4.25 0)"/>
    <path class="cls-5" d="M15.15,4c-3.42,4-7,7.9-10.23,12.08-.44.57.32,1.34.83.79C9.31,13,12.53,8.8,15.88,4.74,16.29,4.24,15.58,3.55,15.15,4Z" transform="translate(-4.25 0)"/>
    <path class="cls-5" d="M18.08,3.49c-2.59,3.48-5.47,6.78-8,10.32-.33.48.43,1,.82.6A119.18,119.18,0,0,0,18.83,4C19.14,3.62,18.4,3.07,18.08,3.49Z" transform="translate(-4.25 0)"/>
    <path class="cls-5" d="M21.23,3.6C18.72,6.93,15.7,10.28,13.73,14a.51.51,0,0,0,.82.6c2.83-3.1,5-6.95,7.51-10.35C22.4,3.74,21.58,3.14,21.23,3.6Z" transform="translate(-4.25 0)"/>
    <path class="cls-5" d="M24.12,3.74c-2.48,3.07-5.48,6.37-7.22,9.92-.24.48.4,1,.78.57,2.63-3,4.67-6.65,7.15-9.81C25.21,3.93,24.52,3.25,24.12,3.74Z" transform="translate(-4.25 0)"/>
    <path class="cls-5" d="M26.49,4.12c-2.22,3.07-4.94,6.25-6.56,9.68-.25.51.43,1.09.83.61,2.51-3,4.4-6.6,6.62-9.79C27.76,4.07,26.87,3.6,26.49,4.12Z" transform="translate(-4.25 0)"/>
    <path class="cls-5" d="M27.66,6.28q-2.88,3.56-5.43,7.38c-.45.67.69,1.32,1.11.61q2.41-3.7,5.17-7.18C29,6.5,28.14,5.69,27.66,6.28Z" transform="translate(-4.25 0)"/>
    <path class="cls-5" d="M29.81,7.74,27.63,11a16.18,16.18,0,0,0-1.86,3c-.19.52.55.82.88.49a15.53,15.53,0,0,0,2-2.93c.71-1.09,1.4-2.19,2.1-3.28C31.14,7.67,30.19,7.16,29.81,7.74Z" transform="translate(-4.25 0)"/>
    <path class="cls-5" d="M32.76,3.67a4.43,4.43,0,0,0-1,1,1.66,1.66,0,0,0-.5,1.3.47.47,0,0,0,.69.26c.33-.2.43-.6.64-.91a3.2,3.2,0,0,1,.72-.75C33.83,4.15,33.31,3.27,32.76,3.67Z" transform="translate(-4.25 0)"/>
    <path class="cls-5" d="M34.35,4.72c-1.7,3.06-3.78,5.81-5.63,8.76a.55.55,0,0,0,.88.65,48,48,0,0,0,5.62-8.92A.5.5,0,0,0,34.35,4.72Z" transform="translate(-4.25 0)"/>
    <path class="cls-5" d="M34.83,8.29c-.5,1-1,2-1.57,3A16,16,0,0,0,31.8,14c-.17.53.55.87.91.5a11.67,11.67,0,0,0,1.61-2.62c.53-1,1-2,1.52-3C36.17,8.18,35.17,7.62,34.83,8.29Z" transform="translate(-4.25 0)"/>
    <path class="cls-5" d="M34.42,14.39a12.88,12.88,0,0,1-.79,1.35,8,8,0,0,0-.88,1.3c-.16.41.23.9.66.63a3.91,3.91,0,0,0,1.08-1.24,15.28,15.28,0,0,0,.87-1.52C35.67,14.29,34.74,13.77,34.42,14.39Z" transform="translate(-4.25 0)"/>
    <path class="cls-5" d="M34.45,18.31c-.59,1-1.36,1.83-2,2.79-.21.35.26.85.6.58a10.38,10.38,0,0,0,2.25-2.88C35.67,18.24,34.79,17.76,34.45,18.31Z" transform="translate(-4.25 0)"/>
    <path class="cls-5" d="M34.23,21.68l-1,1.25a3.51,3.51,0,0,0-.85,1.27.47.47,0,0,0,.69.5,3.37,3.37,0,0,0,1-1.08l.95-1.2C35.44,21.88,34.67,21.13,34.23,21.68Z" transform="translate(-4.25 0)"/>
    <path class="cls-5" d="M34.26,24.66c-.37.55-.76,1.08-1.18,1.59a4.55,4.55,0,0,0-1,1.39c-.09.31.25.68.57.54A3.8,3.8,0,0,0,34,26.83c.42-.54.82-1.09,1.19-1.66S34.64,24.1,34.26,24.66Z" transform="translate(-4.25 0)"/>
    <path class="cls-5" d="M34.68,27.92l-1.11,1.19a5.24,5.24,0,0,0-1,1.21.46.46,0,0,0,.64.62,4.87,4.87,0,0,0,1.1-1.12l1.08-1.22C35.81,28.13,35.11,27.46,34.68,27.92Z" transform="translate(-4.25 0)"/>
    <path class="cls-5" d="M34.81,30.51c-.85,1-1.68,2-2.51,3L31.15,35c-.19.22-.65.95-.87,1.18h0l-.06,0a.56.56,0,0,0-.37.51v.06a.56.56,0,0,0,.4.51c1,.16,1.67-1.41,2.17-2.07q1.54-2,3.14-4C35.92,30.7,35.22,30,34.81,30.51Z" transform="translate(-4.25 0)"/>
    <path class="cls-5" d="M35,33.72l-1.11,1.2a4.82,4.82,0,0,0-1,1.21.48.48,0,0,0,.67.64,4.5,4.5,0,0,0,1.11-1.11l1.08-1.22C36.18,33.94,35.44,33.22,35,33.72Z" transform="translate(-4.25 0)"/>
    <path class="cls-5" d="M28.73,34.14l-.95,1a6.43,6.43,0,0,0-.88,1,.48.48,0,0,0,.67.64,5.63,5.63,0,0,0,1-.91c.31-.32.62-.65.94-1A.52.52,0,0,0,28.73,34.14Z" transform="translate(-4.25 0)"/>
    <path class="cls-5" d="M25.27,34.58l-1,1a4,4,0,0,0-.9,1,.41.41,0,0,0,.57.54,3.8,3.8,0,0,0,1-.91l1-1C26.37,34.8,25.69,34.16,25.27,34.58Z" transform="translate(-4.25 0)"/>
    <path class="cls-5" d="M22.47,34.21a15.52,15.52,0,0,0-1.58,1.45c-.42.45-1.06,1-.95,1.63a.4.4,0,0,0,.39.29c.6-.08.93-.77,1.32-1.2A13.47,13.47,0,0,1,23.1,35C23.55,34.63,22.92,33.84,22.47,34.21Z" transform="translate(-4.25 0)"/>
    <path class="cls-5" d="M18.78,34.32a16.3,16.3,0,0,0-1.14,1.21,3.17,3.17,0,0,0-.88,1.28.44.44,0,0,0,.65.48c.42-.23.69-.78,1-1.15s.7-.79,1.07-1.16S19.22,33.89,18.78,34.32Z" transform="translate(-4.25 0)"/>
    <path class="cls-5" d="M15.55,34.43a8,8,0,0,0-1,1c-.28.35-.66.74-.63,1.22a.41.41,0,0,0,.52.38c.44-.18.62-.59.9-.93a7.41,7.41,0,0,1,1-1C16.8,34.7,16.05,34,15.55,34.43Z" transform="translate(-4.25 0)"/>
    <path class="cls-5" d="M13.08,34,12,35.16c-.32.33-.86.73-.81,1.24a.45.45,0,0,0,.44.41c.51,0,.86-.54,1.17-.88l1.09-1.19A.55.55,0,0,0,13.08,34Z" transform="translate(-4.25 0)"/>
    <path class="cls-5" d="M9.52,33.94a6,6,0,0,1-.86,1.21c-.31.34-.77.61-.88,1.08a.42.42,0,0,0,.41.51c.56,0,1-.53,1.29-.92a7.59,7.59,0,0,0,.93-1.38A.51.51,0,0,0,9.52,33.94Z" transform="translate(-4.25 0)"/>
    <path class="cls-5" d="M6.76,33.36a11.12,11.12,0,0,1-.62,1,3.16,3.16,0,0,0-.59,1,.43.43,0,0,0,.64.47A2.26,2.26,0,0,0,7,35a10.37,10.37,0,0,0,.65-1.11A.52.52,0,0,0,6.76,33.36Z" transform="translate(-4.25 0)"/>
    <path class="cls-5" d="M6.17,17.42a12,12,0,0,1-.82,1.27,4,4,0,0,0-.81,1.17c-.1.36.28.79.65.63a2.87,2.87,0,0,0,1.09-1.12A12.71,12.71,0,0,0,7.15,18,.56.56,0,0,0,6.17,17.42Z" transform="translate(-4.25 0)"/>
    <path class="cls-5" d="M6.51,20.9,5.38,22.2a3.93,3.93,0,0,0-1,1.31c-.09.34.28.77.64.61A3.41,3.41,0,0,0,6.24,23L7.35,21.7C7.83,21.13,7,20.34,6.51,20.9Z" transform="translate(-4.25 0)"/>
    <path class="cls-5" d="M6.29,24.87l-.81,1.06A4,4,0,0,0,4.77,27a.47.47,0,0,0,.69.51,3.75,3.75,0,0,0,.81-.92l.76-1C7.42,25.06,6.7,24.35,6.29,24.87Z" transform="translate(-4.25 0)"/>
    <path class="cls-5" d="M6.44,28.13a7,7,0,0,1-.78.94c-.29.29-.72.53-.71,1a.46.46,0,0,0,.34.43c.51.13.92-.36,1.24-.69a7.61,7.61,0,0,0,.88-1.15C7.8,28.06,6.83,27.54,6.44,28.13Z" transform="translate(-4.25 0)"/>
    <path class="cls-5" d="M7.45,30.76a.56.56,0,0,0-.76,0l-.82,1a3.18,3.18,0,0,0-.7,1.09.48.48,0,0,0,.71.52,2.79,2.79,0,0,0,.83-.91l.76-1A.57.57,0,0,0,7.45,30.76Z" transform="translate(-4.25 0)"/>
    <path class="cls-1" d="M10.48.68a13.6,13.6,0,0,1-.92,1.09c-.29.32-.76.64-.84,1.08a.46.46,0,0,0,.56.54c.46-.08.81-.62,1.09-.94s.63-.77.92-1.17S10.83.23,10.48.68Z" transform="translate(-4.25 0)"/>
    <path class="cls-1" d="M10.69,2.23a6.31,6.31,0,0,1-1.07,1.5c-.38.38-1,.68-1.06,1.27a.47.47,0,0,0,.33.42c.6.2,1.23-.58,1.59-1a7.38,7.38,0,0,0,1.14-1.69C11.92,2.14,11,1.62,10.69,2.23Z" transform="translate(-4.25 0)"/>
    <path class="cls-1" d="M10.41,4.55a5.07,5.07,0,0,1-.82,1.07c-.31.3-.82.53-.92,1A.47.47,0,0,0,9,7.16c.56.1,1-.39,1.38-.77a6.13,6.13,0,0,0,1-1.31A.54.54,0,0,0,10.41,4.55Z" transform="translate(-4.25 0)"/>
    <path class="cls-1" d="M30,1a4.78,4.78,0,0,1-.74.68c-.28.2-.65.36-.82.68a.44.44,0,0,0,.28.64,1.6,1.6,0,0,0,1.14-.45,6.42,6.42,0,0,0,.9-.83C31.22,1.18,30.47.45,30,1Z" transform="translate(-4.25 0)"/>
    <path class="cls-1" d="M30.45,2.8l-1.24.9c-.39.28-.83.51-1,1a.46.46,0,0,0,.46.57c.46,0,.82-.4,1.18-.67L31,3.71C31.55,3.3,31,2.39,30.45,2.8Z" transform="translate(-4.25 0)"/>
    <path class="cls-1" d="M30.23,4.87a6.07,6.07,0,0,0-1.9,1.7c-.28.44.33,1,.77.72.6-.45,1.13-1,1.76-1.4A.6.6,0,0,0,30.23,4.87Z" transform="translate(-4.25 0)"/>
    <path class="cls-1" d="M8.37,36.59a.59.59,0,0,0-.78.22l-.69.95c-.25.33-.52.62-.41,1.07a.48.48,0,0,0,.46.33c.48,0,.68-.43.93-.79l.72-1A.58.58,0,0,0,8.37,36.59Z" transform="translate(-4.25 0)"/>
    <path class="cls-1" d="M10.66,36.8a.6.6,0,0,0-.83,0c-.44.56-1,1-1.45,1.56a.59.59,0,0,0-.07.71.53.53,0,0,0,.21.21.59.59,0,0,0,.59,0,8,8,0,0,0,1.58-1.66A.6.6,0,0,0,10.66,36.8Z" transform="translate(-4.25 0)"/>
    <path class="cls-1" d="M12,36.84l-.69.76a2.68,2.68,0,0,0-.61.88c-.16.44.39.7.73.53a2.45,2.45,0,0,0,.72-.68c.22-.24.43-.48.64-.73C13.29,37.07,12.5,36.31,12,36.84Z" transform="translate(-4.25 0)"/>
    <path class="cls-1" d="M14.37,37c-.17.21-.35.41-.53.61s-.45.47-.41.78a.48.48,0,0,0,.47.45c.33,0,.52-.25.71-.49l.53-.62C15.57,37.22,14.82,36.5,14.37,37Z" transform="translate(-4.25 0)"/>
    <path class="cls-1" d="M17.31,37a.56.56,0,0,0-.77,0c-.42.35-1.06.93-.88,1.53a.47.47,0,0,0,.55.29c.31-.07.42-.29.6-.52a3.88,3.88,0,0,1,.52-.55A.54.54,0,0,0,17.31,37Z" transform="translate(-4.25 0)"/>
    <path class="cls-1" d="M19.4,37.4a.53.53,0,0,0-.71-.16c-.46.23-1.07.74-1,1.31a.42.42,0,0,0,.64.35,2,2,0,0,0,.45-.46,1.39,1.39,0,0,1,.46-.33A.53.53,0,0,0,19.4,37.4Z" transform="translate(-4.25 0)"/>
    <path class="cls-1" d="M21.56,37.08a.54.54,0,0,0-.73.21,7.18,7.18,0,0,0-.52.79c-.26.51.44,1.09.85.62a8.77,8.77,0,0,0,.61-.89A.54.54,0,0,0,21.56,37.08Z" transform="translate(-4.25 0)"/>
    <path class="cls-1" d="M24.1,37.28a.52.52,0,0,0-.75,0c-.28.34-1,1-.49,1.4s1-.33,1.25-.67A.54.54,0,0,0,24.1,37.28Z" transform="translate(-4.25 0)"/>
    <path class="cls-1" d="M25.69,37.32c-.34.35-.82.68-.73,1.21a.41.41,0,0,0,.3.28c.53.08.85-.42,1.18-.77S26.16,36.84,25.69,37.32Z" transform="translate(-4.25 0)"/>
    <path class="cls-1" d="M29,37.14a.54.54,0,0,0-.76,0,6.4,6.4,0,0,0-.74.91.53.53,0,0,0,.15.68.54.54,0,0,0,.69-.06,6.43,6.43,0,0,0,.68-.79A.56.56,0,0,0,29,37.14Z" transform="translate(-4.25 0)"/>
    <path class="cls-1" d="M30.86,37c-.32.35-.66.7-.95,1.07a.55.55,0,0,0,.79.76c.35-.33.66-.69,1-1C32.17,37.24,31.36,36.46,30.86,37Z" transform="translate(-4.25 0)"/>
    <path class="cls-1" d="M33.38,36.46l-.92,1a2.57,2.57,0,0,0-.73,1.11.44.44,0,0,0,.56.52,2.3,2.3,0,0,0,1-.86l.88-1.08C34.55,36.67,33.83,36,33.38,36.46Z" transform="translate(-4.25 0)"/>
    <path class="cls-1" d="M35,36.78l-.65.81a2.73,2.73,0,0,0-.58.85.41.41,0,0,0,.61.45,2.4,2.4,0,0,0,.66-.72l.61-.77C36,37,35.36,36.33,35,36.78Z" transform="translate(-4.25 0)"/>
    <path class="cls-4" d="M10.34,14.16,8.67,15.93a10.48,10.48,0,0,0-1.52,1.74.5.5,0,0,0,.7.66,10.06,10.06,0,0,0,1.62-1.64l1.64-1.81A.53.53,0,0,0,10.34,14.16Z" transform="translate(-4.25 0)"/>
    <path class="cls-4" d="M13.32,14.37q-1.71,1.82-3.33,3.7a12.82,12.82,0,0,0-2.51,3.37c-.13.33.33.64.61.45a17.42,17.42,0,0,0,2.83-3.27q1.51-1.82,3.12-3.56C14.47,14.59,13.76,13.9,13.32,14.37Z" transform="translate(-4.25 0)"/>
    <path class="cls-4" d="M16.11,15c-2.95,2.89-6.48,6.12-8.49,9.76a.5.5,0,0,0,.8.59c1.5-1.48,2.7-3.32,4.09-4.92s2.87-3.17,4.38-4.69C17.38,15.25,16.61,14.52,16.11,15Z" transform="translate(-4.25 0)"/>
    <path class="cls-4" d="M19.44,15c-4.13,4.65-8.36,9.3-12.14,14.24-.41.55.33,1.31.8.76,4.07-4.73,7.91-9.65,12-14.38C20.47,15.19,19.83,14.57,19.44,15Z" transform="translate(-4.25 0)"/>
    <path class="cls-4" d="M23.15,15C18.64,21.2,13.62,26.9,8.67,32.76c-.45.54.3,1.28.8.77A154.87,154.87,0,0,0,24,15.42C24.29,14.93,23.49,14.5,23.15,15Z" transform="translate(-4.25 0)"/>
    <path class="cls-4" d="M27.47,14.38q-3.72,5.1-7.6,10.08C17.67,27.28,15,30,13.16,33.07c-.27.45.35.85.71.52,2.94-2.67,5.29-6.38,7.69-9.54s4.56-6.1,6.78-9.19C28.71,14.34,27.84,13.87,27.47,14.38Z" transform="translate(-4.25 0)"/>
    <path class="cls-4" d="M31.3,14.13Q27.78,19,24.24,23.77c-2.3,3.15-5.06,6.28-6.94,9.71a.51.51,0,0,0,.81.59c2.58-2.79,4.6-6.27,6.79-9.37l7.18-10.14C32.41,14.1,31.64,13.68,31.3,14.13Z" transform="translate(-4.25 0)"/>
    <path class="cls-4" d="M32.07,18.27c-3.32,5.25-7.43,10.18-10.44,15.59a.55.55,0,0,0,.87.64C26.59,29.87,29.69,24,32.91,18.74,33.23,18.21,32.4,17.76,32.07,18.27Z" transform="translate(-4.25 0)"/>
    <path class="cls-4" d="M32,24.39c-2.08,3.06-4.65,6.28-6.09,9.7-.19.46.41,1,.78.57,2.34-3,4.06-6.62,6.14-9.81C33.15,24.33,32.32,23.89,32,24.39Z" transform="translate(-4.25 0)"/>
    <path class="cls-4" d="M32.24,29.74c-.43.8-.89,1.59-1.38,2.36a10.71,10.71,0,0,0-1.31,2.17.5.5,0,0,0,.74.54,7.17,7.17,0,0,0,1.48-2c.5-.82,1-1.67,1.4-2.53A.53.53,0,0,0,32.24,29.74Z" transform="translate(-4.25 0)"/>
    <path class="cls-6" d="M36,34.06c0-.39,0-.8,0-1.2q-.15-6-.1-12c0-4.42.47-8.89.35-13.3a4.7,4.7,0,0,0-1.56-3.82,2.9,2.9,0,0,0-2.9-.47,6.18,6.18,0,0,0-.17-2.13,1.34,1.34,0,0,0-.54-.7A.47.47,0,0,0,30.57,0C29.69.13,28.28,0,27.88,1a6.13,6.13,0,0,0-.14,2.53A93.42,93.42,0,0,0,12.05,3.3h0C12,2.4,11.88,1.5,11.81.6a.62.62,0,0,0-.93-.51l-.1.06-.08,0C9,0,8.34.81,8.47,2.44a11.5,11.5,0,0,1,0,1.17,4,4,0,0,0-3,.33c-1.1.8-.91,2.4-1,3.59-.2,4-.27,8.08-.25,12.12s.16,8.09.39,12.12A17.68,17.68,0,0,0,5,35.53c0,.59.12,1.19.21,1.78A2.81,2.81,0,0,0,7.23,39.8c1.58.45,3.4,0,5-.13,2.17-.19,4.35-.33,6.52-.41a129.5,129.5,0,0,1,13.07.2c1.25.09,2.85.4,3.71-.78s.61-3.21.53-4.55c0,0,0-.05,0-.07ZM16.79,7.25a10.1,10.1,0,0,1,.15,2.69c0,.61-.1,1.13-.73,1.4a2.09,2.09,0,0,1-1.84,0A1.78,1.78,0,0,1,14,9.65c.11-.58,1.1-.47,1,.11a1.73,1.73,0,0,0,0,.6c.09.24,0,.13.27.14.56,0,.6-.21.63-.67a12.23,12.23,0,0,0-.09-2.42c-.08-.57.89-.72,1-.16ZM20,8.52c.06.84,0,1.7,0,2.54a.45.45,0,0,1-.9,0c-.56.2-1.19.35-1.59-.19s-.26-1.6-.25-2.29a.44.44,0,0,1,.87,0c0,.46,0,.93,0,1.39s.13.41.46.31l.44-.16c0-.53.07-1.06,0-1.59a.44.44,0,0,1,.88,0Zm3.07,1a6.07,6.07,0,0,1-.08,1.7.45.45,0,0,1-.89-.11,9.41,9.41,0,0,0,0-1.68c-.05-.32-.15-.42-.5-.3a.57.57,0,0,0-.34.32,6.85,6.85,0,0,1-.12,1.75.47.47,0,0,1-.92-.11c0-.83.09-1.65.07-2.48a.45.45,0,0,1,.85-.22,1.31,1.31,0,0,1,1.38,0,1.42,1.42,0,0,1,.52,1.17Zm2.59.82c.58-.19.84.7.27.9a2.86,2.86,0,0,1-1.6.21c-.44-.12-.65-.59-.8-1a1.92,1.92,0,0,1-.11-.54.43.43,0,0,1,0-.35,1.44,1.44,0,0,1,.92-1.3c.77-.26,1.95.22,1.88,1.18a.78.78,0,0,1-.75.7,7.19,7.19,0,0,1-1,0l.13.24c.11.17.16.11.41.08a4.34,4.34,0,0,0,.69-.17ZM25.11,9a.38.38,0,0,1,.22.19c.06.15,0,.07-.11.11a3.09,3.09,0,0,1-.68,0h-.18a.72.72,0,0,1,.11-.15A.6.6,0,0,1,25.11,9Zm3.35,14.43A4.89,4.89,0,0,1,29,28c-.57,1.41-1.84,1.43-3.17,1.31-1.17-.11-3.53.21-4.17-1a4.86,4.86,0,0,1,.16-4,2.52,2.52,0,0,1,.48-.58,2.32,2.32,0,0,1-1.21-1.2A3,3,0,0,1,22,19.1a5.33,5.33,0,0,1,4.28-.93c2.72-.92,3.65,3.46,2.18,5.24l.05.06ZM22.68,20c1-1,2.56-.88,3.85-.7h.14a2.13,2.13,0,0,1,.81,3.29,1.27,1.27,0,0,1-.45.3,27,27,0,0,1-3.48-.09,1.57,1.57,0,0,1-.87-2.8Zm4.74,7.76c-.58.52-.89.38-1.64.32l-1.46-.14c-.77-.07-1.57.09-1.67-.85s-.13-2.41,1.17-2.77c1-.3,2.18.06,3.23-.14.73.19.86.82.95,1.55a2,2,0,0,1-.58,2Zm-8-.07c.83,0,.84,1.2,0,1.28-1.4.13-2.82.21-4.23.32-.83.06-2.52.55-3.27.05-1.17-.75-.41-3.38.3-4.2a4.63,4.63,0,0,1,1.88-1.23c1-.37,2.91-.24,3.35-1.37,1.5-4-6.18-4-5.2-.67a.62.62,0,0,1-1.18.35,3.19,3.19,0,0,1,2.37-3.93c1.43-.39,4.47-.08,5.13,1.5.58,1.37.47,3.68-.91,4.54-.87.54-2.06.44-3,.77a2.66,2.66,0,0,0-1.89,3.08A22.55,22.55,0,0,0,16,27.93c1.14-.08,2.29-.18,3.43-.24Zm14,2.72c0,1.26.45,3.46-.74,4.37s-3.65.55-5.1.56c-2.19,0-4.39,0-6.59,0q-6.72-.14-13.43-.61A.73.73,0,0,1,6.92,34q-.15-6.14-.31-12.27a54.09,54.09,0,0,1-.14-6.23,1.78,1.78,0,0,1,1.68-1.77,39.15,39.15,0,0,1,5.72.18q3,.08,6.09,0c4-.06,8-.27,11.91-.57a.54.54,0,0,1,.62-.12c1.38.51.95,2.38,1,3.56,0,2.31,0,4.62,0,6.92s0,4.44,0,6.66Zm-1.87,3.43A6.13,6.13,0,0,1,29.2,34q-10.45.15-20.91-.59C8.2,30,8.12,26.67,8,23.31L7.88,18c0-.84-.42-2.49.65-2.89a8.46,8.46,0,0,1,2.45.09,155.44,155.44,0,0,0,21-.67.53.53,0,0,0,.15.08c.13.05-.06,4.46-.06,4.94,0,1.87,0,3.73,0,5.59s0,3.55,0,5.33c0,.79.35,2.93-.51,3.4ZM29.27,1.45a1.11,1.11,0,0,1,.37-.15.53.53,0,0,0,.76.22c.12-.1.18,1.48.18,1.48l0,1.52.06,2.57c-.6.17-1.26.31-1.57-.37a7.91,7.91,0,0,1-.06-2.28c0-.69,0-1.37-.06-2.06,0-.51-.13-.64.28-.93Zm-19-.14a.4.4,0,0,0,.36.13l.18,2.62c0,.49.07,1,.1,1.48,0,.28,0,.57,0,.86C10,7,9.55,7,9.61,6.43a17.13,17.13,0,0,1,.14-3c0-1-.47-2,.53-2.11Zm-4.64,12c0-1.75.09-3.51.16-5.27a10.75,10.75,0,0,1,.12-2.34c.33-1.14,1.39-1,2.33-.88a.59.59,0,0,0,.19,0c0,.49-.06,1-.06,1.47a2.69,2.69,0,0,0,.63,2,1.81,1.81,0,0,0,3-.77,6.64,6.64,0,0,0,.1-2.91V4.46a134,134,0,0,1,15,.18.55.55,0,0,0,.63.12l.12-.06a2.62,2.62,0,0,1,0,.28c0,.93-.22,2.74.67,3.42s2.17-.09,2.95-.26a.61.61,0,0,0,.43-.6c0-.93,0-1.87-.07-2.8a1,1,0,0,0,.27-.1c1.51-.95,2.62.94,2.79,2.19a29.13,29.13,0,0,1-.08,4.76c-.12,3-.19,6-.22,9.05,0,3.2,0,6.4,0,9.59a32.37,32.37,0,0,1,.08,4.06c-.2,1.81-1.85,2.07-3.38,2.12-6.09.19-12.22,0-18.31-.12-1.58,0-3.17-.06-4.75-.11-.9,0-1.64,0-2-1A8.54,8.54,0,0,1,6,32.79q-.27-4.47-.39-8.95c-.08-3.52-.09-7,0-10.55Zm27.79,25.1a29.61,29.61,0,0,1-4.78-.27q-5-.21-9.93,0c-3.15.12-6.26.49-9.4.69a4.14,4.14,0,0,1-2-.22,1.7,1.7,0,0,1-.93-1.32A5,5,0,0,0,8,37.51c4,.13,7.91.18,11.87.22s7.91.24,11.82,0a5.51,5.51,0,0,0,3.14-1A1.51,1.51,0,0,1,33.43,38.39Z" transform="translate(-4.25 0)"/>
  </g>
</svg>
