<svg id="레이어_1" data-name="레이어 1" xmlns="http://www.w3.org/2000/svg" viewBox="0 0 39.73 40">
  <defs>
    <style>
      .cls-1, .cls-2 {
        fill: #aedff4;
      }

      .cls-2, .cls-3 {
        fill-rule: evenodd;
      }
    </style>
  </defs>
  <title>1</title>
  <g>
    <circle class="cls-1" cx="19.8" cy="20" r="19.17"/>
    <path class="cls-2" d="M12.33,2.7Q9.24,6,6.14,9.22C5,10.42,2.58,12,2.44,13.74c0,.43.59.53.77.19,1.1-2,3.22-3.7,4.73-5.36l4.92-5.38A.36.36,0,0,0,12.33,2.7Z" transform="translate(-0.13 0)"/>
    <path class="cls-2" d="M18.13,1.24l-10,9.9L3.33,15.88C2.4,16.8.8,17.73.51,19.06a.51.51,0,0,0,.36.6l.15,0a.45.45,0,0,0,.5-.21l.05-.12a.53.53,0,0,0,0-.12c.13,0,.25-.17.37-.42.43-.44.86-.87,1.28-1.31.58-.58,1.15-1.17,1.71-1.75,1.57-1.61,3.14-3.21,4.7-4.82l9-9.2C19,1.4,18.45.92,18.13,1.24Z" transform="translate(-0.13 0)"/>
    <path class="cls-2" d="M22.84,1.3C15.7,8.27,8.34,15,1,21.78c-.57.53.31,1.36.88.83C9.28,15.94,16.41,9,23.46,1.89c.39-.39-.23-1-.62-.59Z" transform="translate(-0.13 0)"/>
    <path class="cls-2" d="M26.13,2.75C18,10.55,9.64,18,1.33,25.59c-.58.54.3,1.34.88.84,8.53-7.3,16.62-15.15,24.56-23.07.41-.4-.23-1-.64-.61Z" transform="translate(-0.13 0)"/>
    <path class="cls-2" d="M29.84,4.06C22.06,13.54,12.42,20.84,3,28.55c-.52.43.2,1.33.74.92,9.68-7.31,19.19-15.26,26.73-24.81C30.8,4.23,30.19,3.64,29.84,4.06Z" transform="translate(-0.13 0)"/>
    <path class="cls-2" d="M33,6.6c-4.43,4.49-9,8.83-13.65,13.1s-9.9,8.07-14,12.73c-.34.39.13,1,.58.72,5-3.41,9.38-8.16,13.8-12.25,4.78-4.42,9.42-9,13.9-13.67A.45.45,0,0,0,33,6.6Z" transform="translate(-0.13 0)"/>
    <path class="cls-2" d="M35,10.17C26.5,19,17,26.66,7.86,34.73c-.5.44.21,1.34.74.92a265.08,265.08,0,0,0,27-24.86A.45.45,0,0,0,35,10.17Z" transform="translate(-0.13 0)"/>
    <path class="cls-2" d="M36.94,12.79C29.79,21.92,20.1,28.91,11.59,36.72c-.56.52.3,1.32.87.82,8.65-7.48,18.2-15,25.09-24.16C37.87,13,37.28,12.37,36.94,12.79Z" transform="translate(-0.13 0)"/>
    <path class="cls-2" d="M38.56,17.66A115.31,115.31,0,0,1,26.71,29.41c-2,1.72-4,3.39-6,5-1.16.95-4.31,2.61-4.52,4.15a.65.65,0,0,0,.3.68l.29.17a.62.62,0,0,0,.89-.39l.09-.31a.52.52,0,0,0-.14-.49l0,0a57.86,57.86,0,0,0,5.69-4.39c1.85-1.56,3.67-3.14,5.46-4.77A110.76,110.76,0,0,0,39.15,18.23C39.49,17.82,38.9,17.26,38.56,17.66Z" transform="translate(-0.13 0)"/>
    <path class="cls-2" d="M38.38,22.58C33,28.19,27.07,33.09,21.16,38.15c-.47.4.18,1.21.69.84A119,119,0,0,0,39,23.16.42.42,0,0,0,38.38,22.58Z" transform="translate(-0.13 0)"/>
    <path class="cls-2" d="M37.83,26.89c-3.58,3.78-7.59,6.91-11.4,10.4a.54.54,0,0,0,.25.89l.09,0a.49.49,0,0,0,.59-.48v-.07c.14.55.35.05.73-.26s.9-.74,1.35-1.12c1.07-.9,2.11-1.83,3.13-2.79,2-1.91,4-3.91,5.9-6a.44.44,0,0,0-.64-.6Z" transform="translate(-0.13 0)"/>
    <path class="cls-3" d="M38.48,13a.49.49,0,0,0-.22-.55,20.24,20.24,0,0,0-8.18-9.63A19.16,19.16,0,0,0,21.17,0a.53.53,0,0,0-.33,0A19.91,19.91,0,0,0,5.36,6.25a.66.66,0,0,0-.18.41A20.5,20.5,0,0,0,1.77,28.09a19.62,19.62,0,0,0,30.67,7.3,32.19,32.19,0,0,0,5-5.21,8.66,8.66,0,0,0,.84-1.35l.17,0a.62.62,0,0,0,.31-1,17,17,0,0,0,1-4.26A22.21,22.21,0,0,0,38.48,13Zm-.18,6.76v0l-8.79-.1a30.31,30.31,0,0,0-1.67-9.11,44.94,44.94,0,0,1,9.07,2.63,17.92,17.92,0,0,1,1.39,6.55Zm-19.61-.17-7.56,0a49.81,49.81,0,0,1,1.3-8.94l.05-.2A48.41,48.41,0,0,1,19,9.81c-.11,3.24-.2,6.49-.27,9.73Zm-7.6,1.21,7.57.06c-.06,3.17-.09,6.35-.09,9.52A42.14,42.14,0,0,1,12.51,30a26,26,0,0,1-1.43-8.82c0-.13,0-.28,0-.41Zm9,.07,8.13.08a26,26,0,0,1-1.61,8.8c-2.19.3-4.4.52-6.6.6,0-3.16.05-6.32.08-9.48Zm6.62-18a18.83,18.83,0,0,1,9.46,8.68,47.77,47.77,0,0,0-8.8-2.32,26.6,26.6,0,0,0-4.43-7.39,17.44,17.44,0,0,1,3.77,1ZM20.48,1.6l.56,0A25.77,25.77,0,0,1,25.82,9a49.13,49.13,0,0,0-5.55-.39c.06-2.33.12-4.66.2-7Zm5.86,8.68a29.29,29.29,0,0,1,1.86,9.35l-8.12-.08q.06-4.86.16-9.74a46.14,46.14,0,0,1,6.1.47ZM18.25,1.69l1-.07c-.1,2.33-.18,4.65-.27,7a49.17,49.17,0,0,0-6.17.49,12.12,12.12,0,0,1,5.37-7.35l.06-.05ZM7.54,6.12s0-.06.07-.08A20.29,20.29,0,0,1,16,2a13,13,0,0,0-4.4,6.54l-.21.73a48.8,48.8,0,0,0-7.62,2A20.61,20.61,0,0,1,7.54,6.12Zm3.54,4.48a46.24,46.24,0,0,0-1.27,8.9c-2.7,0-5.41,0-8.12,0a19.79,19.79,0,0,1,1.44-6.72,48.58,48.58,0,0,1,8-2.19ZM1.69,20.66l8.08.08a28.3,28.3,0,0,0,1.22,9A33,33,0,0,1,3.2,27.41a18.18,18.18,0,0,1-1.51-6.74Zm2.76,9.1c-.16-.24-.3-.49-.44-.74a34.89,34.89,0,0,0,7.44,2.05,19.09,19.09,0,0,0,4.36,6.82A18.36,18.36,0,0,1,4.45,29.76Zm14,8.54a17.56,17.56,0,0,1-5.38-7,46.69,46.69,0,0,0,5.55.3c0,2.25,0,4.49.08,6.73l-.26,0ZM21,38.11a.72.72,0,0,0-.15.22l-.89,0c0-2.26,0-4.53,0-6.79,2-.07,4-.24,6-.49a21.63,21.63,0,0,1-5,7Zm12.9-6.39a19.83,19.83,0,0,1-10.09,6.2l-.94.19a23.16,23.16,0,0,0,4.68-7.23c2.84-.41,5.66-1,8.45-1.55a25.84,25.84,0,0,1-2.1,2.39Zm3.74-5.67A8.54,8.54,0,0,1,37,27.76c-2.92.64-5.9,1.26-8.91,1.73a27.59,27.59,0,0,0,1.47-8.57L38.3,21A23.26,23.26,0,0,1,37.62,26.05Z" transform="translate(-0.13 0)"/>
  </g>
</svg>
