<svg id="레이어_1" data-name="레이어 1" xmlns="http://www.w3.org/2000/svg" xmlns:xlink="http://www.w3.org/1999/xlink" viewBox="0 0 33.97 39.95">
  <defs>
    <style>
      .cls-1 {
        fill: #e0e0e0;
      }

      .cls-2 {
        fill: #ffc38f;
      }

      .cls-3 {
        fill: #23232d;
      }

      .cls-4 {
        fill: #141418;
      }

      .cls-5 {
        fill: #3a3a4a;
      }

      .cls-12, .cls-27, .cls-28, .cls-6, .cls-7 {
        fill: #fff;
      }

      .cls-7 {
        opacity: 0.5;
      }

      .cls-17, .cls-26, .cls-27, .cls-8 {
        opacity: 0.3;
      }

      .cls-9 {
        fill: #f2f2f2;
      }

      .cls-10 {
        fill: url(#linear-gradient);
      }

      .cls-11 {
        fill: #fff9f0;
      }

      .cls-12 {
        opacity: 0.07;
      }

      .cls-13 {
        fill: #fad882;
      }

      .cls-14 {
        fill: #ffe9b1;
      }

      .cls-15 {
        fill: #ebc271;
      }

      .cls-16 {
        fill: #ffc59a;
      }

      .cls-17 {
        fill: #d14f2e;
      }

      .cls-18 {
        fill: #ffb085;
      }

      .cls-19 {
        fill: #6e4c3c;
      }

      .cls-20 {
        fill: #1e4c76;
      }

      .cls-21 {
        fill: #9cd0ff;
      }

      .cls-22 {
        fill: #121b21;
      }

      .cls-23 {
        fill: #ff3b3b;
        opacity: 0.8;
      }

      .cls-24 {
        fill: #8f2722;
      }

      .cls-25 {
        fill: #e8dac5;
      }

      .cls-26 {
        fill: #b54d26;
      }

      .cls-28 {
        opacity: 0.7;
      }

      .cls-29 {
        fill: #c1c5c9;
      }
    </style>
    <linearGradient id="linear-gradient" x1="21.07" y1="29.57" x2="21.07" y2="31.84" gradientUnits="userSpaceOnUse">
      <stop offset="0" stop-color="#ee996d"/>
      <stop offset="0.02" stop-color="#ee9a6e"/>
      <stop offset="0.37" stop-color="#f8b181"/>
      <stop offset="0.71" stop-color="#fdbf8d"/>
      <stop offset="1" stop-color="#ffc491"/>
    </linearGradient>
  </defs>
  <title>1</title>
  <g>
    <path class="cls-1" d="M15.06,36.11c-.14.62-.57,2.39-1,3.84H16.5c.34-1.32.71-2.88.82-3.35.25-1.11.51-2.25,1-2.47l-1-2C15.81,32.82,15.45,34.42,15.06,36.11Z" transform="translate(-3.66 0)"/>
    <g>
      <path class="cls-2" d="M31.1,29c-1.68,2.06,0,2.64,1.61,3.71.81.53,1.76,1.46,2.4.1a18.45,18.45,0,0,0,.67-2.19,8.46,8.46,0,0,1,1-2.14C37.93,27,36.29,22.65,31.1,29Z" transform="translate(-3.66 0)"/>
      <g>
        <path class="cls-3" d="M30.59,19.42a.65.65,0,0,0-.93,0l-3.84,3.87a.67.67,0,0,0,0,.94l6.85,6.86a.66.66,0,0,0,.93,0l3.84-3.87a.67.67,0,0,0,0-.94Z" transform="translate(-3.66 0)"/>
        <path class="cls-4" d="M30.34,19.2a.64.64,0,0,0-.9,0L25.68,23a.65.65,0,0,0,0,.91l6.54,6.54a.64.64,0,0,0,.9,0l3.76-3.79a.65.65,0,0,0,0-.91Z" transform="translate(-3.66 0)"/>
        <path class="cls-5" d="M30.34,19.2a.64.64,0,0,0-.9,0L25.68,23a.65.65,0,0,0,0,.91l6.54,6.54a.64.64,0,0,0,.9,0l3.76-3.79a.65.65,0,0,0,0-.91Z" transform="translate(-3.66 0)"/>
        <path class="cls-6" d="M30.41,20.55a.49.49,0,0,0-.69,0L27,23.31a.51.51,0,0,0,0,.7l5.05,5a.49.49,0,0,0,.69,0l2.74-2.76a.49.49,0,0,0,0-.69Z" transform="translate(-3.66 0)"/>
        <path class="cls-7" d="M29.44,19.24,25.68,23c-.26.26-.12,1,.12,1.23l3.62,3.55,2.08-7.45L30.34,19.2A.64.64,0,0,0,29.44,19.24Z" transform="translate(-3.66 0)"/>
      </g>
      <path class="cls-2" d="M29.72,28.24c-.11.33.45.93.58,1.23.22.47-.14,1.35.43,1.72s.83-.05,1-.45a2.12,2.12,0,0,0-.65-2.29C30.79,28.15,29.91,27.72,29.72,28.24Z" transform="translate(-3.66 0)"/>
      <path class="cls-1" d="M25.09,32.31c-.35-.24-.61,1.8-.36,2.66.93,3.24,9,5.24,10.51-1.7l-3-.75C31.12,38.83,26.09,33,25.09,32.31Z" transform="translate(-3.66 0)"/>
    </g>
    <g>
      <path class="cls-1" d="M17.18,32.18c-1.91,1.51-.09,5.08.32,7.77h7.22c.17-3.55,2.29-5.74.42-7.64C23.46,30.59,19,30.72,17.18,32.18Z" transform="translate(-3.66 0)"/>
      <path class="cls-5" d="M25.12,32.29c-1.69-1.69-6.31-1.55-8.24,0a7.34,7.34,0,0,1-.17,4.34A22.84,22.84,0,0,1,17.43,40H24.8a10.39,10.39,0,0,1,.48-3A8,8,0,0,1,25.12,32.29Z" transform="translate(-3.66 0)"/>
      <path class="cls-8" d="M17.83,33.4l.61,2.79A23.85,23.85,0,0,1,21.16,35a24.11,24.11,0,0,1,2.75,1.13l.33-2.87a16.54,16.54,0,0,1-3.07,1.59A28.14,28.14,0,0,1,17.83,33.4Z" transform="translate(-3.66 0)"/>
      <path class="cls-9" d="M23.2,30.89a6.7,6.7,0,0,0-4.55.06c-2.22,1.06.14,4.53.14,4.53l2.4-.61,2.38.53S25.38,31.81,23.2,30.89Z" transform="translate(-3.66 0)"/>
      <path class="cls-10" d="M23.23,31.22c-.39-.31-.3-1.27-.24-2.39.15-2.51-4.18-2.61-4.18.14,0,1.22.05,2-.28,2.32-.63.65-.57,1.79,2.6,3.26C22.85,33.69,25.09,32.71,23.23,31.22Z" transform="translate(-3.66 0)"/>
      <g>
        <path class="cls-11" d="M18.41,31.31a.38.38,0,0,0-.36.39.37.37,0,0,0,.74,0A.38.38,0,0,0,18.41,31.31Z" transform="translate(-3.66 0)"/>
        <path class="cls-11" d="M19.25,31.89a.37.37,0,0,0-.35.38.36.36,0,0,0,.38.36.37.37,0,0,0,0-.74Z" transform="translate(-3.66 0)"/>
        <path class="cls-11" d="M20.35,32.28a.36.36,0,0,0-.36.38.38.38,0,0,0,.38.36.37.37,0,0,0,.35-.39A.35.35,0,0,0,20.35,32.28Z" transform="translate(-3.66 0)"/>
        <path class="cls-11" d="M21.44,32.34a.36.36,0,0,0-.35.38.37.37,0,0,0,.37.36.38.38,0,0,0,.36-.39A.37.37,0,0,0,21.44,32.34Z" transform="translate(-3.66 0)"/>
        <path class="cls-11" d="M23.42,31.28a.36.36,0,0,0-.35.38.38.38,0,0,0,.38.36.37.37,0,0,0,.35-.39A.36.36,0,0,0,23.42,31.28Z" transform="translate(-3.66 0)"/>
        <path class="cls-11" d="M22.54,31.93a.36.36,0,0,0-.35.38.37.37,0,1,0,.73,0A.36.36,0,0,0,22.54,31.93Z" transform="translate(-3.66 0)"/>
      </g>
      <path class="cls-12" d="M23,35.86a7.28,7.28,0,0,1-4.26-.06c-.78-.21-1.22.72-1,1.52.32,1.06,1.93,1.33,3.33,1.3,2.77,0,3.81-1.14,3.34-2.44C24.25,35.84,23.66,35.6,23,35.86Z" transform="translate(-3.66 0)"/>
    </g>
    <g>
      <path class="cls-13" d="M9.82,10.08C2.79,11.22,2.17,19.9,6,23.86c3,3.11,2.71,5.24.38,5.48C7.75,30.79,17,34,18.57,22.41S13.19,9.53,9.82,10.08Z" transform="translate(-3.66 0)"/>
      <path class="cls-14" d="M8.7,11.84c-1.81-.13-4.77,2.07-4.54,6.53a12.4,12.4,0,0,0,1.35,4.37s-1.72-6.5,4.63-7.32C17.12,14.52,8.7,11.84,8.7,11.84Z" transform="translate(-3.66 0)"/>
      <path class="cls-15" d="M14.34,16.9c-1.36,1.05-5.05,0-2.69,6.81,1.67,4.83-.26,6.63-4,6.15,0,0,5.85,2.72,10.38-3.2C22.93,20.22,20.5,12.18,14.34,16.9Z" transform="translate(-3.66 0)"/>
      <path class="cls-15" d="M10.39,15.65c-1.35-.11-2.45.93-2,4.09a3,3,0,0,0,3.4,2.69S11.74,15.75,10.39,15.65Z" transform="translate(-3.66 0)"/>
      <path class="cls-13" d="M19.24,0C3.29.65,6.44,22.24,13.33,21.38c3.52-.45,2.58-4.56,6-5.43a17.67,17.67,0,0,1,5.18-.38c1.68.08,4.73,4.75,5.51,3.67C31.92,16.68,33.19-.55,19.24,0Z" transform="translate(-3.66 0)"/>
      <path class="cls-16" d="M20,4.73c-7.37.42-9.67,5.55-9.3,13.11s5.72,12.43,11.17,12.63c4.19.16,9.3-6.74,8.69-14.3S27.13,4.33,20,4.73Z" transform="translate(-3.66 0)"/>
      <path class="cls-17" d="M20.19,7.86c-.63.19.2,1.31.2,1.31.11-.79.54-.68,1-.27C21.38,8.9,20.82,7.68,20.19,7.86Z" transform="translate(-3.66 0)"/>
      <path class="cls-17" d="M22.22,7.31c-1.27,0-.83,1.6-.83,1.6.24-.87,1.29-1,2.27-.26A1.5,1.5,0,0,0,22.22,7.31Z" transform="translate(-3.66 0)"/>
      <path class="cls-17" d="M14.13,6.24c-5.55,2.35-2.22,13.21-2.22,13.21C9.67,4.1,19.17,8.6,20.39,9.17,19.31,7.5,18.07,4.58,14.13,6.24Z" transform="translate(-3.66 0)"/>
      <path class="cls-17" d="M25.5,4.69c-1.45.14-1.89,2.92-1.84,4,1.35-1.94,4.5-1.54,6,2.43C29.71,9.48,27.5,4.49,25.5,4.69Z" transform="translate(-3.66 0)"/>
      <path class="cls-16" d="M9.48,15.65c-2,1-1.09,5.16.59,5.89a2.76,2.76,0,0,0,1.65.13l0-.07c.23-.58-.28-3.38-.41-4C11,16.19,10.45,15.19,9.48,15.65Z" transform="translate(-3.66 0)"/>
      <path class="cls-17" d="M10.17,17.05c-.42-.22-1.28.48-.66,1.62.07-1.18.59-.52.65.3,0,.54-.31.62.14,1.24.24.34.6.13.76-.11C11.57,19.35,10.68,17.31,10.17,17.05Z" transform="translate(-3.66 0)"/>
      <path class="cls-13" d="M17.55,1C10.21,2.67,6.79,13.87,12.81,22.65c-1.06-2.92-2.2-11-.41-13.56s5.84-1.48,8,.08a3.52,3.52,0,0,1,.14-1,7.26,7.26,0,0,1,.85.71c.23-1.31,1.55-1.08,2.28-.25.68-2.88,4.91-3.21,6.46,4.14.17.82.05-3.2-.11-4A10.59,10.59,0,0,0,17.55,1Z" transform="translate(-3.66 0)"/>
      <path class="cls-14" d="M26.66,2.28C20.34,8.4,12,3,12,3,9,4.87,8.3,9.32,8.3,9.32s1.6.81,3-1.12S14.86,6,17.44,6.48s4.86-.42,7.81-.85,4.95,2.9,4.95,2.9A11.33,11.33,0,0,0,26.66,2.28Z" transform="translate(-3.66 0)"/>
      <path class="cls-11" d="M10.75,21.56a.8.8,0,0,0-.82.79.81.81,0,0,0,1.61,0A.8.8,0,0,0,10.75,21.56Z" transform="translate(-3.66 0)"/>
    </g>
    <g>
      <path class="cls-18" d="M29.86,19.56a1.83,1.83,0,0,0-1.66-.73c-.74,0-1.76.28-1.22,1.45.28.63,3.19,1.11,3-.33A1.12,1.12,0,0,0,29.86,19.56Z" transform="translate(-3.66 0)"/>
      <path class="cls-18" d="M16.66,19.72a1.9,1.9,0,0,0-1.94-.46c-.82.15-1.88.7-1.09,1.91.42.65,3.69.56,3.23-1A1.26,1.26,0,0,0,16.66,19.72Z" transform="translate(-3.66 0)"/>
      <path class="cls-17" d="M21.84,19.55c-.58,0-.81-.24-1.21,0s.49,1,1.2.95,1.45-.72,1.24-1S22.48,19.55,21.84,19.55Z" transform="translate(-3.66 0)"/>
      <path class="cls-19" d="M24.62,12.65a19.65,19.65,0,0,1,2.69-.11,23.18,23.18,0,0,1,2.91.36,5.21,5.21,0,0,0-3-1.43A3.15,3.15,0,0,0,24.62,12.65Z" transform="translate(-3.66 0)"/>
      <path class="cls-19" d="M15.25,12.72a5.83,5.83,0,0,0-3.19,1.49,23.68,23.68,0,0,1,3.16-.55,21.63,21.63,0,0,1,3,0A3.93,3.93,0,0,0,15.25,12.72Z" transform="translate(-3.66 0)"/>
      <path class="cls-20" d="M26.56,15.78c-.08,1.15.2,2,1.2,2.11A1.82,1.82,0,0,0,29.69,16,7.08,7.08,0,0,0,26.56,15.78Z" transform="translate(-3.66 0)"/>
      <path class="cls-21" d="M27.56,15.74c-.57.08-.31,1.1.27.84A.45.45,0,0,0,27.56,15.74Z" transform="translate(-3.66 0)"/>
      <path class="cls-22" d="M25.82,16a9.14,9.14,0,0,1,2.51-.06,8.19,8.19,0,0,0,3.32,0c-1.37-.25-2.68-.9-3.5-1A2.59,2.59,0,0,0,25.82,16Z" transform="translate(-3.66 0)"/>
      <path class="cls-20" d="M13.43,16.4a1.81,1.81,0,0,0,2,1.79c1-.12,1.23-1,1.1-2.16A6.9,6.9,0,0,0,13.43,16.4Z" transform="translate(-3.66 0)"/>
      <path class="cls-21" d="M14.85,16.13a.45.45,0,0,0-.23.85C15.21,17.21,15.42,16.18,14.85,16.13Z" transform="translate(-3.66 0)"/>
      <path class="cls-22" d="M14.91,15.29c-.81.14-2.09.84-3.44,1.16a7.94,7.94,0,0,0,3.31-.19,9.1,9.1,0,0,1,2.51-.06A2.6,2.6,0,0,0,14.91,15.29Z" transform="translate(-3.66 0)"/>
      <path class="cls-23" d="M19.19,22.56c-1.59.42-3.9,1.56-2.34,3,1.85,1.67,5.87,1.63,7.61.82,1.52-.71,2.68-2.55,1.17-3.4L27,22.41A21.32,21.32,0,0,0,19.19,22.56Z" transform="translate(-3.66 0)"/>
      <path class="cls-24" d="M24.86,23c.21-.07.5-.22.79-.33-4.71-.48-9.8.88-8.45,2.32,1.06,1.11,4.9,1.26,6.6.78S26.69,23.72,24.86,23Z" transform="translate(-3.66 0)"/>
      <path class="cls-11" d="M25,22.59c-2.32-.16-5.31-.06-7,.77-.33.17-.26.35.21.49,1.07.33,2.82-.09,3.87-.14,2.61-.14,2.87.19,3-.07S25.54,22.62,25,22.59Z" transform="translate(-3.66 0)"/>
      <path class="cls-25" d="M25,22.6c-1-.15-5.68-.23-7.21.87,0,0-.31.23.37.38a10.66,10.66,0,0,1,7.12-.71S25.46,22.64,25,22.6Z" transform="translate(-3.66 0)"/>
    </g>
    <g>
      <path class="cls-26" d="M29,13.7a14.19,14.19,0,0,0-3,.49,12.32,12.32,0,0,0-2.56.73,3,3,0,0,1-1.85.59c-1.52-.06-2.8-1-4.32-1.15a12.91,12.91,0,0,0-4.76.11c-.4.12-1.62.59-.79,1a7.07,7.07,0,0,0,2.9.31c.41,0,.82,0,1.23.06,1.44.12,3.66-.1,3.56,1.72a3,3,0,0,1-1.86,2.77,13.08,13.08,0,0,1-3,.32,5.12,5.12,0,0,1-2.15-.45c-.2-.09-.78-.45-1-.19-.32.45.86,1.18,1.17,1.32a7.29,7.29,0,0,0,2.22.48c1.88.19,3.82.08,4.87-1.67.61-1,.91-2.2,1.48-3.24.92-1.7,1.38.59,1.68,1.6a5.37,5.37,0,0,0,.76,1.58,3.82,3.82,0,0,0,2.82,1.33,4.15,4.15,0,0,0,1.82-.25c.35-.15.49-.56.07-.72a3.53,3.53,0,0,0-.92,0,7.58,7.58,0,0,1-1.17-.08,3.53,3.53,0,0,1-1.4-.59,2.72,2.72,0,0,1-.73-.78A2.52,2.52,0,0,1,24,16.85c.34-1,1.39-1.05,2.26-1.13,1.05-.1,2.12-.09,3.17-.19a10.93,10.93,0,0,1,1.4,0c.6,0,1.89-.18,1.17-1.05S30,13.64,29,13.7Z" transform="translate(-3.66 0)"/>
      <path class="cls-5" d="M11.07,13.82c-1.24,0-2.31-.29-2.6,0s.3,1.44.3,1.44a2.11,2.11,0,0,0,1,.32c.09.87.06,3.11,1.65,4.52,1.34,1.17,5.66,1.47,7,.78a5.21,5.21,0,0,0,2.64-4C21.73,13.1,12.82,13.75,11.07,13.82Zm7.41,6c-1.63,1.08-5.84.62-6.94-.73-.85-1-1-3.23-.51-3.54,1.57-1,7.49-.65,8.87.38C20.57,16.44,19.72,19,18.48,19.82Z" transform="translate(-3.66 0)"/>
      <path class="cls-5" d="M31.46,13.31c-1.59,0-9.65-.21-8.85,3.53a5.19,5.19,0,0,0,2.56,3.83c1.24.63,5.13.11,6.27-1.12,1.38-1.48,1.25-3.72,1.29-4.59a1.88,1.88,0,0,0,.87-.36s.56-1.14.2-1.46S32.58,13.3,31.46,13.31Zm-.18,5.28c-.93,1.4-4.7,2.07-6.23,1.07-1.16-.76-2-3.28-1.46-3.81,1.2-1.11,6.52-1.71,8-.82C32.05,15.32,32,17.51,31.28,18.59Z" transform="translate(-3.66 0)"/>
      <path class="cls-27" d="M24.63,15.5c-.87.39.73.84,1.07.88a12,12,0,0,0,3.8-.17c.66-.14,2.09-.76,1.67-1.12C30.59,14.58,25.6,15.07,24.63,15.5Z" transform="translate(-3.66 0)"/>
      <path class="cls-6" d="M28.55,15.24c-.48.08-.79.22-.65.44.26.42,3.05.15,3.24-.18S29.56,15.07,28.55,15.24Z" transform="translate(-3.66 0)"/>
      <path class="cls-28" d="M25.55,18.77c-.3,0-.5.05-.45.24.1.37,1.84.6,2,.37S26.19,18.79,25.55,18.77Z" transform="translate(-3.66 0)"/>
      <path class="cls-28" d="M12.5,18.77c-.31-.05-.54,0-.5.18.06.38,1.85.82,2,.61S13.17,18.87,12.5,18.77Z" transform="translate(-3.66 0)"/>
      <path class="cls-27" d="M19.24,15.72c-1.11-.39-6.63-.76-7.19-.26-.41.35,1.23.92,2,1a15,15,0,0,0,4.17.09C18.56,16.53,20.25,16.07,19.24,15.72Z" transform="translate(-3.66 0)"/>
      <path class="cls-6" d="M16.84,15.42c-.51,0-.85.12-.74.35.22.45,3.18.53,3.42.23S17.92,15.37,16.84,15.42Z" transform="translate(-3.66 0)"/>
      <path class="cls-5" d="M23.63,14.57a4.71,4.71,0,0,1-3.88.07c-1.21-.42.65.79.79,1.42s0,2.57.37,1.41,1.25-1.23,1.8-.18.49-1.77.71-2S24.78,14,23.63,14.57Z" transform="translate(-3.66 0)"/>
      <path class="cls-29" d="M11.66,14.18c3.36.15,6,.22,8.07,1C18.4,14.09,16.12,13.87,11.66,14.18Z" transform="translate(-3.66 0)"/>
      <path class="cls-29" d="M31.17,13.6c-4.09.18-6,.23-7.09,1.29C25.84,14,28.14,14.06,31.17,13.6Z" transform="translate(-3.66 0)"/>
    </g>
  </g>
</svg>
