<svg id="레이어_1" data-name="레이어 1" xmlns="http://www.w3.org/2000/svg" viewBox="0 0 40 40">
  <defs>
    <style>
      .cls-1 {
        stroke: #000;
        stroke-miterlimit: 10;
        stroke-width: 0.75px;
      }
    </style>
  </defs>
  <title>1</title>
  <path d="M20,40A20,20,0,1,1,40,20,20,20,0,0,1,20,40ZM20,3.66A16.34,16.34,0,1,0,36.34,20,16.36,16.36,0,0,0,20,3.66Z"/>
  <path class="cls-1" d="M18.3,19a20.52,20.52,0,0,0,2.34,3,21.18,21.18,0,0,0,2.95,2.54l-2.21,2.06a25.22,25.22,0,0,1-2.59-2.36,25,25,0,0,1-2.11-2.61A22.77,22.77,0,0,1,14,24.7a28.69,28.69,0,0,1-3.23,2.63l-2.24-2a18.48,18.48,0,0,0,3.41-2.62,20.69,20.69,0,0,0,2.62-3.08,17.05,17.05,0,0,0,1.74-3.19,10.19,10.19,0,0,0,.73-3c-.8,0-1.58.08-2.35.08l-2.2,0H10V10.86h7.08c1.09,0,2.23,0,3.4,0A17,17,0,0,1,19.9,15,18.78,18.78,0,0,1,18.3,19ZM30.77,20.1H27.16V31.92H24.08V8.9h3.08v8.57h3.61Z"/>
</svg>
