<svg id="레이어_1" data-name="레이어 1" xmlns="http://www.w3.org/2000/svg" viewBox="0 0 40 27.6">
  <defs>
    <style>
      .cls-1 {
        fill: #e3ca95;
      }

      .cls-1, .cls-2, .cls-3 {
        fill-rule: evenodd;
      }

      .cls-2 {
        fill: #576d64;
      }
    </style>
  </defs>
  <title>1</title>
  <g>
    <path class="cls-1" d="M36.66,32.36H3.76a2.21,2.21,0,0,1-2.2-2.2l-1-12.07,1-9.15a2.21,2.21,0,0,1,2.2-2.2h32.9a2.21,2.21,0,0,1,2.2,2.2V30.16A2.21,2.21,0,0,1,36.66,32.36Z" transform="translate(0 -5.64)"/>
    <polygon class="cls-2" points="10.37 8.53 8.17 9.04 6.82 11.7 7.96 15.21 9.54 16.48 7.55 17.96 5.41 19.3 4.86 20.83 5.12 22.07 14.34 22.07 15.95 21.22 15.81 19.41 12.73 18.14 11.19 17.7 10.4 16.72 11.98 15.42 12.9 12.44 12.36 9.46 10.37 8.53"/>
    <path class="cls-2" d="M8.93,14.41c-.67,1.06-1.35,2.12-2,3.18-.35.54.53,1,.88.48l2-3.19C10.14,14.35,9.27,13.88,8.93,14.41Z" transform="translate(0 -5.64)"/>
    <path class="cls-2" d="M10.39,14.93q-.75,1.25-1.56,2.46a23.73,23.73,0,0,0-1.62,2.42.41.41,0,0,0,.65.48A14,14,0,0,0,9.51,18q.84-1.31,1.62-2.64C11.4,14.87,10.67,14.47,10.39,14.93Z" transform="translate(0 -5.64)"/>
    <path class="cls-2" d="M11.81,15.63a55.34,55.34,0,0,0-3,5.29.43.43,0,0,0,.76.42,53.79,53.79,0,0,0,3-5.28A.44.44,0,0,0,11.81,15.63Z" transform="translate(0 -5.64)"/>
    <path class="cls-2" d="M7,23.81c-.65,1.25-1.48,2.4-2.13,3.64-.26.49.44,1.06.81.59A21.2,21.2,0,0,0,7.9,24.29C8.18,23.72,7.33,23.25,7,23.81Z" transform="translate(0 -5.64)"/>
    <path class="cls-2" d="M12.05,18.57c-.74,1.55-1.53,3.07-2.39,4.56S7.71,26,7,27.53a.41.41,0,0,0,.65.48c2.3-2.42,3.81-6,5.2-9C13.1,18.48,12.31,18,12.05,18.57Z" transform="translate(0 -5.64)"/>
    <path class="cls-2" d="M12.59,24.41a10.71,10.71,0,0,1-.73,1.66,10.29,10.29,0,0,0-.77,1.42.42.42,0,0,0,.62.46,7.1,7.1,0,0,0,1.84-3.3C13.76,24.05,12.8,23.82,12.59,24.41Z" transform="translate(0 -5.64)"/>
    <path class="cls-2" d="M14.15,24.93a20.72,20.72,0,0,0-1.39,2.84c-.16.46.49.63.73.29a19.39,19.39,0,0,0,1.42-2.71C15.16,24.85,14.41,24.44,14.15,24.93Z" transform="translate(0 -5.64)"/>
    <path class="cls-1" d="M3.42,6.93A34.33,34.33,0,0,0,1,11.39c-.16.43.49.77.78.43a24.82,24.82,0,0,0,2.5-4.41A.5.5,0,0,0,3.42,6.93Z" transform="translate(0 -5.64)"/>
    <path class="cls-1" d="M5.89,6.6c-1.77,3.32-3.75,6.61-5.3,10a.48.48,0,0,0,.84.47c2-3.21,3.57-6.69,5.32-10A.49.49,0,0,0,5.89,6.6Z" transform="translate(0 -5.64)"/>
    <path class="cls-1" d="M8.2,6.58c-2.31,4.78-4.57,9.59-7,14.29-.24.46.43,1,.77.56C5,17.27,6.81,11.72,9,7,9.24,6.49,8.45,6.05,8.2,6.58Z" transform="translate(0 -5.64)"/>
    <path class="cls-1" d="M11,6.41A91.72,91.72,0,0,0,7.29,15a.35.35,0,0,0,0,.27.36.36,0,0,0-.41.21c-1.78,3.51-3.85,7-5.3,10.65a.45.45,0,0,0,.78.43c2-3.37,3.55-7.13,5.26-10.67a.43.43,0,0,0,0-.44A.36.36,0,0,0,8,15.29a91.28,91.28,0,0,0,3.79-8.44C12,6.32,11.23,5.88,11,6.41Z" transform="translate(0 -5.64)"/>
    <path class="cls-1" d="M7.21,20.14c-.25.66-.54,1.3-.85,1.94a11.3,11.3,0,0,0-.82,1.63c-.14.41.45.71.73.4a11.5,11.5,0,0,0,1.86-3.74C8.35,19.79,7.43,19.57,7.21,20.14Z" transform="translate(0 -5.64)"/>
    <path class="cls-1" d="M4.24,27c-.42.74-.8,1.51-1.15,2.29a5.11,5.11,0,0,0-.67,2.05.37.37,0,0,0,.64.25,7.19,7.19,0,0,0,.93-2c.32-.74.68-1.45,1.07-2.16A.47.47,0,0,0,4.24,27Z" transform="translate(0 -5.64)"/>
    <path class="cls-1" d="M13.08,6.61c-1,2.46-2.58,5.12-3.08,7.74a.38.38,0,0,0,.7.28c1.47-2.18,2.25-5.11,3.23-7.54.24-.58-.61-1.06-.85-.48Z" transform="translate(0 -5.64)"/>
    <path class="cls-1" d="M5.81,28l-1,2.08A9.53,9.53,0,0,0,4,32c-.08.38.45.75.72.39a21,21,0,0,0,1.91-4C6.9,27.87,6.07,27.41,5.81,28Z" transform="translate(0 -5.64)"/>
    <path class="cls-1" d="M15.14,6.64c-1,2.72-2.08,5.36-3.14,8-.21.54.55,1,.8.44a74.39,74.39,0,0,0,3.12-8.28C16.09,6.33,15.3,6.15,15.14,6.64Z" transform="translate(0 -5.64)"/>
    <path class="cls-1" d="M17.26,6.64c-1.71,4.27-3.53,8.52-5.11,12.85-.2.55.75.93,1,.38,1.75-4.26,3.28-8.62,4.9-12.93C18.19,6.51,17.44,6.2,17.26,6.64Z" transform="translate(0 -5.64)"/>
    <path class="cls-1" d="M19.13,6.6a10.92,10.92,0,0,0-.47,1.47.4.4,0,0,0,.74.3A15,15,0,0,0,20,7,.48.48,0,1,0,19.13,6.6Z" transform="translate(0 -5.64)"/>
    <path class="cls-1" d="M18,10.07c-1.69,4.24-3.68,8.39-5.26,12.67-.19.53.67.85.92.36a128.48,128.48,0,0,0,5.23-12.68C19.07,9.92,18.19,9.57,18,10.07Z" transform="translate(0 -5.64)"/>
    <path class="cls-1" d="M21.67,6.49a8.94,8.94,0,0,0-.75,2c0,.34.4.73.67.37A8.47,8.47,0,0,0,22.5,7C22.73,6.4,21.9,5.93,21.67,6.49Z" transform="translate(0 -5.64)"/>
    <path class="cls-1" d="M19.72,11.16a120.92,120.92,0,0,1-5.32,13.1c-.28.62.61,1.14.93.52A84.48,84.48,0,0,0,20.68,11.4C20.87,10.79,19.91,10.56,19.72,11.16Z" transform="translate(0 -5.64)"/>
    <path class="cls-1" d="M8.13,27.84A26.27,26.27,0,0,0,6,32.18c-.13.45.53.87.82.46A26.7,26.7,0,0,0,9,28.34C9.32,27.74,8.43,27.24,8.13,27.84Z" transform="translate(0 -5.64)"/>
    <path class="cls-1" d="M23.42,7.06a129.46,129.46,0,0,1-9.49,24.3c-.29.58.58,1.07.89.49A106.7,106.7,0,0,0,24.27,7.27.44.44,0,0,0,23.42,7.06Z" transform="translate(0 -5.64)"/>
    <path class="cls-1" d="M25.92,6.77c-2.8,8.42-6.13,16.61-9.69,24.73-.27.64.66,1.17,1,.53A219.81,219.81,0,0,0,26.83,7c.18-.57-.72-.79-.91-.23Z" transform="translate(0 -5.64)"/>
    <path class="cls-1" d="M27.88,6.8c-1.18,4.2-2.5,8.36-4,12.46s-3.53,8-4.8,12.16c-.13.43.5.65.72.28,2.13-3.53,3.44-7.84,4.83-11.71,1.52-4.28,2.84-8.61,4-13A.4.4,0,0,0,27.88,6.8Z" transform="translate(0 -5.64)"/>
    <path class="cls-1" d="M30,6.58c-2.32,8.6-5.6,16.73-8.54,25.11-.19.54.69.88.94.37,3.81-7.93,6.28-16.77,8.49-25.26A.46.46,0,0,0,30,6.58Z" transform="translate(0 -5.64)"/>
    <path class="cls-1" d="M31.78,7.16c-1.05,4.14-2.1,8.29-3.35,12.38s-3.18,8-4.34,12c-.13.43.48.62.71.27,2.18-3.35,3.31-7.76,4.45-11.56,1.28-4.26,2.34-8.58,3.39-12.9A.44.44,0,0,0,31.78,7.16Z" transform="translate(0 -5.64)"/>
    <path class="cls-1" d="M34.09,6.71C31.87,15.37,29,23.78,26.15,32.24c-.18.55.75.92,1,.37A201.46,201.46,0,0,0,35,6.93.47.47,0,0,0,34.09,6.71Z" transform="translate(0 -5.64)"/>
    <path class="cls-1" d="M36.29,7.27c-3.13,8.32-4.81,16.93-8.48,25.07a.46.46,0,0,0,.8.44c4.69-7.54,5.51-17.06,8.54-25.29C37.34,7,36.49,6.75,36.29,7.27Z" transform="translate(0 -5.64)"/>
    <path class="cls-1" d="M37.89,8.72C35.71,16.48,33,24.08,30.76,31.83c-.16.54.72.92.94.37,3-7.49,5-15.49,7.08-23.26A.46.46,0,0,0,37.89,8.72Z" transform="translate(0 -5.64)"/>
    <path class="cls-1" d="M39.16,11.3c-1.5,7.12-4.16,13.62-6.39,20.5-.17.49.61.79.85.33,3.31-6.25,5-13.73,6.37-20.62C40.1,11,39.27,10.76,39.16,11.3Z" transform="translate(0 -5.64)"/>
    <path class="cls-1" d="M38.38,22.48a56.1,56.1,0,0,1-3,9.88.44.44,0,0,0,.7.51c1-1,1.25-2.63,1.63-4,.58-2.06,1.12-4.12,1.62-6.2A.48.48,0,0,0,38.38,22.48Z" transform="translate(0 -5.64)"/>
    <path class="cls-3" d="M39.79,22.68c-.07-2.51-.1-5,0-7.54.07-2.05.48-4.35-.22-6.33A4,4,0,0,0,36.19,6,64,64,0,0,0,29,5.93L11.75,5.81C9,5.79,6,5.41,3.29,5.87l-.08,0a.53.53,0,0,0-.62-.15A3.61,3.61,0,0,0,.4,8.81a43.85,43.85,0,0,0-.4,7c0,2.5.06,5,.19,7.49.12,2.13,0,4.56.67,6.61,1.24,3.79,6,3.21,9.18,3.23l14.88.09,7.42,0a10.66,10.66,0,0,0,4.88-.75c3.56-1.79,2.66-6.59,2.57-9.82ZM15.27,24a3.18,3.18,0,0,1,1.34,2.54c-.09,2.72-4.25,1.86-6,1.85a43.74,43.74,0,0,1-5.25,0c-.88-.12-1.22-.64-1.27-1.53a3.4,3.4,0,0,1,1.18-2.63c.81-.74,2.34-1,3.25-1.72-1.64-.92-2-3.56-2-5.25.06-2.69,1.45-3.86,4.06-3.58h0c3.8-.36,3.88,7.18.6,8.83h0c.32.72,1.75.59,2.4.76a4.63,4.63,0,0,1,1.62.76ZM7.83,17.18c0-.87,0-2,1.08-2.37A2.55,2.55,0,0,1,10,14.69a.57.57,0,0,0,.5.24c3.44-.31,1.52,8.7-1.57,6.08-.94-.8-1.1-2.69-1.09-3.83ZM14.61,27h-.69c-1.1,0-2.2,0-3.31,0h-3a7.09,7.09,0,0,1-1.66,0c-.93-.36-.39-1.35.07-1.86C7,24,8.81,24,9.75,22.79H10a.2.2,0,0,0,0,.07c.38,1.61,2,1.33,3.29,1.69.55.16,1.61.56,1.73,1.2-.14.43-.29.86-.44,1.29Zm19.93-1.33c.68,0,.7,1,0,1.05a97,97,0,0,1-15.51-.62c-.68-.07-.74-1.11,0-1.09,5.18.16,10.32.91,15.51.66Zm.11-5c.62,0,.66,1,0,1-5.3-.25-10.59-.22-15.89-.25a.54.54,0,0,1,0-1.08,150.64,150.64,0,0,1,15.9.35Zm-.08-5a.51.51,0,0,1,0,1c-5.18.09-10.45.16-15.62-.24-.67-.06-.72-1.07,0-1.07,5.2,0,10.41.29,15.61.29ZM20.22,7.79a1.52,1.52,0,0,1,2,1.59,2.17,2.17,0,0,1-2.57,1.8c-1.14-.13-2.24-.93-1.84-2.2a2,2,0,0,1,2.45-1.19Zm.7,1.84A1.34,1.34,0,0,1,19.5,10c-.49-.1-.92-.42-.57-.93a1,1,0,0,1,1-.34.48.48,0,0,0,.57.15h.05a.35.35,0,0,0,.18,0c.32.05.41.46.21.76ZM38.72,14c-.09,2.13-.17,4.26-.18,6.39,0,1.88.05,3.76.1,5.64,0,1.69.08,3.69-1.33,4.88C36.14,31.92,34.47,32,33,32c-2,0-4.08,0-6.12,0l-11.25-.07-5.63,0a22.39,22.39,0,0,1-5.55-.27c-2.55-.68-2.62-2.91-2.78-5.15s-.3-4.6-.36-6.91c-.06-2.11-.06-4.22,0-6.32a24.87,24.87,0,0,1,.2-4A.5.5,0,0,0,2,8.53c-.54-2.35,5.2-1.66,6.29-1.65l6.43,0L26.38,7l5.85,0c2.28,0,5.31-.58,6.3,2.09C39.08,10.63,38.79,12.43,38.72,14Z" transform="translate(0 -5.64)"/>
  </g>
</svg>
