<svg id="레이어_1" data-name="레이어 1" xmlns="http://www.w3.org/2000/svg" viewBox="0 0 29.08 40">
  <defs>
    <style>
      .cls-1 {
        fill: #1e1e29;
      }

      .cls-2 {
        fill: #e8e8e8;
      }

      .cls-3 {
        fill: #f5f5f5;
      }

      .cls-4 {
        fill: #f5ab76;
      }

      .cls-5 {
        fill: #3a3a4a;
      }

      .cls-6 {
        fill: #3d2216;
      }

      .cls-7 {
        fill: #ffbc82;
      }

      .cls-8 {
        fill: #bf3c1b;
        opacity: 0.3;
      }

      .cls-9 {
        fill: #b54d26;
        opacity: 0.4;
      }

      .cls-10 {
        fill: #fa9769;
      }

      .cls-11 {
        fill: #4f4f4f;
      }

      .cls-12 {
        fill: #ffd4ad;
      }

      .cls-13 {
        fill: #edf0ef;
        opacity: 0.7;
      }

      .cls-14 {
        fill: #b5300f;
        opacity: 0.35;
      }

      .cls-15 {
        fill: #8f2a25;
      }

      .cls-16 {
        fill: #fff7ea;
      }

      .cls-17 {
        fill: #ecdcc4;
      }

      .cls-18 {
        fill: #593424;
      }
    </style>
  </defs>
  <title>1</title>
  <g>
    <path class="cls-1" d="M12.78,30.64c-2,1.12-3.48,4.3-3.85,9.36h4.78c.15-2.62.4-5.5,1-6.16Z" transform="translate(-5.46)"/>
    <path class="cls-1" d="M28.52,30.64l-1.93,3.2c.59.66.85,3.54,1,6.16h4.78C32,34.94,30.52,31.76,28.52,30.64Z" transform="translate(-5.46)"/>
    <g>
      <path class="cls-2" d="M26,29.74A12.35,12.35,0,0,0,15.44,30c-3.09,1.92-2.42,5.08-1.59,10H27.41C28.32,35.34,29.07,31.29,26,29.74Z" transform="translate(-5.46)"/>
      <path class="cls-3" d="M20.37,26.56c-5.35,0-5.54,7.6.26,7.6C26,34.16,27.81,26.56,20.37,26.56Z" transform="translate(-5.46)"/>
      <path class="cls-4" d="M22.35,25.85a4.87,4.87,0,0,0-4.09.78c-3.44,3.24-.09,6.43,2.6,6.43A3.64,3.64,0,0,0,24.48,29,3.3,3.3,0,0,0,22.35,25.85Z" transform="translate(-5.46)"/>
      <path class="cls-1" d="M29.18,31.22c-.29-.71-3.28-1.77-3.28-1.77A22.88,22.88,0,0,0,23,40h4.7C28.26,34.73,29.44,31.86,29.18,31.22Z" transform="translate(-5.46)"/>
      <path class="cls-1" d="M12.07,31.22c.29-.71,3.29-1.77,3.29-1.77A23,23,0,0,1,18.26,40h-4.7C13,34.73,11.82,31.86,12.07,31.22Z" transform="translate(-5.46)"/>
      <path class="cls-5" d="M26,29.28a4.58,4.58,0,0,1,2.22,3c-.09.38-2.76,2.29-4.7,3.63A19.7,19.7,0,0,1,26,29.28Z" transform="translate(-5.46)"/>
      <path class="cls-5" d="M15.28,29.28a4.6,4.6,0,0,0-2.23,3c.09.38,2.77,2.29,4.71,3.63A20,20,0,0,0,15.28,29.28Z" transform="translate(-5.46)"/>
    </g>
    <g>
      <path class="cls-6" d="M31.71,6.11a7.16,7.16,0,0,0-3.52-1.8A17,17,0,0,0,27,.65,12.28,12.28,0,0,1,25.42,3a6.08,6.08,0,0,0-3-3,3,3,0,0,1-1.28,2.28A21.86,21.86,0,0,0,17.4,0c1.08,2.65-2.56.83-3.85,1.32.2.48,1,1.17,1,1.62-3-.56-6.21,1.86-7.44,4.65a4.11,4.11,0,0,1,2.24-.49c-1.6-.06-2.62,3.33-3,4.51a18.49,18.49,0,0,0,0,8.75c.43,2.44.52,3.6-.87,5.65a7.23,7.23,0,0,0,2.68-.3A7.67,7.67,0,0,1,7.28,30a8.08,8.08,0,0,0,3.47-.93,13.13,13.13,0,0,0,.34,2.38,16.08,16.08,0,0,0,2.34-2,7.31,7.31,0,0,0,.66,1c1.19-2.22,2-4.83,4.4-6.21a5.25,5.25,0,0,1,5.37,0c2.58,1.36,2.55,4.46,5.34,5.76a9.29,9.29,0,0,0,.23-2.48,6.87,6.87,0,0,0,2.76,1.92,11.16,11.16,0,0,0-.65-4.41h0s0,0,0,0h0a15.63,15.63,0,0,0,1.94.61c-.58-1.57-1.64-2.84-1.54-4.66,0-.51.86-2.31,1.43-4s.89-3.54-.32-3.7a2.77,2.77,0,0,1,1.49.61C34.37,10.83,34.16,8.17,31.71,6.11Z" transform="translate(-5.46)"/>
      <path class="cls-6" d="M31.53,25.05h0S31.51,25,31.53,25.05Z" transform="translate(-5.46)"/>
      <path class="cls-7" d="M18.85,5.19c-5.12,1-8.72,8.4-7.78,15.34.7,5.19,4.69,10.89,10.69,10.46s9.18-8.07,8.39-14.46C29.29,9.58,26,3.79,18.85,5.19Z" transform="translate(-5.46)"/>
      <path class="cls-8" d="M25.44,6.29a22.87,22.87,0,0,0-6.2-1c-1.87,0-3.9-.14-5.64.65a4.23,4.23,0,0,0-2.49,2.1,9.63,9.63,0,0,0,0,4.34,11.94,11.94,0,0,0,1.38,4.29,5.33,5.33,0,0,1,1.16-2.85c.51-.64,1.24-1.8,2.1-1.94a9.11,9.11,0,0,1-2,3.81c.82.09,1.82-.57,2.57-.85A15.32,15.32,0,0,0,18,14c0,.5-.4.93-.5,1.4A14.74,14.74,0,0,0,23.12,13c1.07-.69,2.95-1.59,4.14-.77.56.38.68,1.13,1.32,1.39.23-.39.36-.84.61-1.21.51.55,1-.72,1.16-1.08C31.45,8,27.78,7,25.44,6.29Z" transform="translate(-5.46)"/>
      <path class="cls-7" d="M9.28,17.64c-2.51.69-1.5,4.38.55,5.12a4.86,4.86,0,0,0,2,.22l0-.06c.3-.48-.12-3.17-.27-3.67C11.24,18,10.49,17.3,9.28,17.64Z" transform="translate(-5.46)"/>
      <path class="cls-9" d="M10.16,19c-.56-.26-2,.21-1.31,1.32.35-1,1-.35.88.38-.06.49-.59.5-.07,1.13.28.34.85.21,1.14,0C11.72,21.27,10.85,19.31,10.16,19Z" transform="translate(-5.46)"/>
      <path class="cls-6" d="M29.57,6.9C28.49,6.14,27.88,5,26.62,4.33A14.73,14.73,0,0,0,23,3.1a17.19,17.19,0,0,0-5.26-.16c-2.9.35-6.4,1.73-7.31,4.81-.57,1.9-.27,4.09-.13,6,.06.74-.11,3.55.51,4.13a6.9,6.9,0,0,1,.76,1.36,4.5,4.5,0,0,0,1.15,1.27c-.07-.55-.31-1.12-.35-1.67.23.19.51.55.85.5a9,9,0,0,1-.49-5.15,5.71,5.71,0,0,1,2.16-3c.33-.25,1.1-.89,1.55-.55s0,1.28-.11,1.67a6.42,6.42,0,0,1-2.41,3.07,6.4,6.4,0,0,0,2.94-1.1,6.93,6.93,0,0,0,2.17-1.84,4.82,4.82,0,0,1-1.26,2.36,5.56,5.56,0,0,0,1.76-.54,8.85,8.85,0,0,0,2.1-1.18c.41-.28.83-.57,1.25-.84a11.85,11.85,0,0,1,2.24-.92c.72-.29,1.68-.65,2.37-.16.18.12,1.21,1.76.91,1.86a6.37,6.37,0,0,0,1.22-.62,3,3,0,0,0,1.73-2,3,3,0,0,0-.4-2A4.51,4.51,0,0,0,29.57,6.9Z" transform="translate(-5.46)"/>
      <g>
        <path class="cls-10" d="M29.23,19a2.29,2.29,0,0,0-2-.21c-.78.2-1.74.75-.75,1.68.52.5,3.73.12,3-1.15A1.24,1.24,0,0,0,29.23,19Z" transform="translate(-5.46)"/>
        <path class="cls-10" d="M17.66,19.59a2.4,2.4,0,0,0-2-.72c-.84,0-2,.31-1.19,1.51.41.64,3.76,1.08,3.36-.4A1.42,1.42,0,0,0,17.66,19.59Z" transform="translate(-5.46)"/>
        <path class="cls-11" d="M17,16.26c-1.48-.45-2.41,1.4-1.4,2a2.92,2.92,0,0,1,1.47.09A1.09,1.09,0,0,0,17,16.26Z" transform="translate(-5.46)"/>
        <path class="cls-6" d="M29.35,14a3.2,3.2,0,0,0-2.56-.62,5.27,5.27,0,0,0-1,.53,1.23,1.23,0,0,1-1.37.08c0,2.23,2,1.14,3.37,1.06.72,0,1.75.33,2.4,0C30.18,14.51,29.73,14.22,29.35,14Z" transform="translate(-5.46)"/>
        <path class="cls-6" d="M17.89,14.05a5.72,5.72,0,0,0-1-.53,3.2,3.2,0,0,0-2.56.66c-.37.23-.82.53-.86,1,.66.38,1.69,0,2.41,0,1.4.06,3.34,1.13,3.35-1.1A1.21,1.21,0,0,1,17.89,14.05Z" transform="translate(-5.46)"/>
        <path class="cls-9" d="M22.43,20.39c-.77,0-1.07-.35-1.61,0s.23,1.36,1.59,1.31,1.95-1,1.67-1.34S23.29,20.38,22.43,20.39Z" transform="translate(-5.46)"/>
        <path class="cls-12" d="M22.23,17.48c-1.45-.13-1.56,2.94-1.23,3.21a2.77,2.77,0,0,0,3-.33C24.2,20.15,23.61,17.6,22.23,17.48Z" transform="translate(-5.46)"/>
        <path class="cls-11" d="M28.17,16.15c-1.55-.65-2.7,1.44-1.42,2a2.83,2.83,0,0,1,1.63,0A1.22,1.22,0,0,0,28.17,16.15Z" transform="translate(-5.46)"/>
        <path class="cls-13" d="M16.51,16.58c-.61.14-.15,1,.44.67C17.37,17,17,16.45,16.51,16.58Z" transform="translate(-5.46)"/>
        <path class="cls-13" d="M27.56,16.38c-.61.08-.32.92.31.68C28.32,16.89,28.11,16.3,27.56,16.38Z" transform="translate(-5.46)"/>
        <g>
          <path class="cls-14" d="M27,21.51c-.23.06.21.12.78.24a.32.32,0,0,1,.23.13c-2.67,1-8.61,1.68-12.3.63l.1-.08c.53-.34,1.3-.39,1.08-.49a4.57,4.57,0,0,0-1.8.33c-.45.3-.41,1.22,0,1.25s.29-.47.52-.84c.31,1,1.79,4.86,6.23,4.78,3.34-.06,4.35-1.18,4.42-2.83,0-.92,1.14-2.08,1.84-2.64.07.27-.12.68.14.7s.71-.56.45-1S27,21.51,27,21.51Z" transform="translate(-5.46)"/>
          <path class="cls-15" d="M16.45,23.17S18,27.2,22,26.94c3.57-.23,3.93-1.64,4.05-2.62a2.52,2.52,0,0,1,1.11-1.85A21.5,21.5,0,0,1,16.45,23.17Z" transform="translate(-5.46)"/>
          <path class="cls-16" d="M17.77,23.55a2.15,2.15,0,0,0,1.33,1.78,7.83,7.83,0,0,0,5.11.05C25.4,25,26,23,26,23A34.13,34.13,0,0,1,17.77,23.55Z" transform="translate(-5.46)"/>
          <path class="cls-16" d="M22.81,25.44a11.13,11.13,0,0,1-4-.4c-.67-.25-.66.13-.52.46,0,0,.26,1.35,3.36,1.49,2.7.12,3.81-1.65,3.5-2S24.51,25.35,22.81,25.44Z" transform="translate(-5.46)"/>
          <path class="cls-17" d="M17.76,23.53a2.05,2.05,0,0,0,.15.57s6.38-.85,7.83-.37A3,3,0,0,0,26,23,39.84,39.84,0,0,1,17.76,23.53Z" transform="translate(-5.46)"/>
          <path class="cls-17" d="M19.2,25a7.56,7.56,0,0,0,5.61-.1A11.49,11.49,0,0,1,19.2,25Z" transform="translate(-5.46)"/>
        </g>
      </g>
      <path class="cls-18" d="M30.65,6.32C30.28,6,27.11,4.43,27,5.24a6.87,6.87,0,0,0-.31-2.11c-.54.12-.95,1.13-1.4,1.49C25,3.86,24.17,2.17,23.38,2A5.54,5.54,0,0,1,21.9,4.31c-.57-.32-1-1.17-1.51-1.6a5,5,0,0,0-1.74-.94,4,4,0,0,1,0,1.33,5.48,5.48,0,0,0-3.25-.9,3.27,3.27,0,0,1,.32,1.35s-2.13.35-2.32.38a9.49,9.49,0,0,0-2.11.64A6.78,6.78,0,0,0,9.05,5.93a5.56,5.56,0,0,1,2.37.18A22.74,22.74,0,0,0,9.81,8.18a15.13,15.13,0,0,0-.91,2.25,26.51,26.51,0,0,1,2.91-1.8,6.23,6.23,0,0,0-.38,2.45,13.56,13.56,0,0,0,2.73-1.47,1.31,1.31,0,0,0,.58-1c0-.24-.18-1.34-.49-1.37,2.12.18,4.45,2.92,3.53,5.15a9.37,9.37,0,0,0,1.39-2,3.94,3.94,0,0,0-.39-2.68,7,7,0,0,1,1.76,2.73,12,12,0,0,0,.94-1.31c.19-.32.25-.72.6-.91a4.41,4.41,0,0,1-.14,2.64,10.43,10.43,0,0,1-.84,1.31,24.89,24.89,0,0,0,3.11-1.3,4,4,0,0,0,2.48-4c.2.52.84,1,1.15,1.53a10.9,10.9,0,0,1,1.06,2.89,6.92,6.92,0,0,0,.69-2.07,28.06,28.06,0,0,0,3.3,1.87A7,7,0,0,0,31.68,9c.47,0,.88.19,1.35.18A12,12,0,0,0,30.65,6.32Z" transform="translate(-5.46)"/>
    </g>
  </g>
</svg>
