<svg id="레이어_1" data-name="레이어 1" xmlns="http://www.w3.org/2000/svg" xmlns:xlink="http://www.w3.org/1999/xlink" viewBox="0 0 28.19 40.05">
  <defs>
    <style>
      .cls-1 {
        fill: #e8e8e8;
      }

      .cls-2 {
        fill: #313142;
      }

      .cls-3, .cls-8 {
        fill: #fff;
      }

      .cls-3 {
        opacity: 0.07;
      }

      .cls-4 {
        fill: #f5f5f5;
      }

      .cls-5 {
        fill: url(#linear-gradient);
      }

      .cls-6 {
        fill: #fff9f0;
      }

      .cls-7 {
        fill: #231e1a;
      }

      .cls-9 {
        fill: #ffc596;
      }

      .cls-10 {
        fill: #b54d26;
      }

      .cls-10, .cls-11 {
        opacity: 0.3;
      }

      .cls-11 {
        fill: #bf3c1b;
      }

      .cls-12 {
        fill: #423833;
      }

      .cls-13 {
        fill: #1a1614;
      }

      .cls-14 {
        fill: #2b241e;
      }

      .cls-15 {
        fill: #a88686;
      }

      .cls-16 {
        fill: #ffa26f;
      }

      .cls-17 {
        fill: #c84f36;
        opacity: 0.6;
      }

      .cls-18 {
        fill: #8f302b;
      }

      .cls-19 {
        fill: #e8dac5;
      }
    </style>
    <linearGradient id="linear-gradient" x1="21.3" y1="31.44" x2="21.3" y2="33.58" gradientUnits="userSpaceOnUse">
      <stop offset="0" stop-color="#ee996d"/>
      <stop offset="0.02" stop-color="#ee9a6e"/>
      <stop offset="0.37" stop-color="#f8b181"/>
      <stop offset="0.71" stop-color="#fdbf8d"/>
      <stop offset="1" stop-color="#ffc491"/>
    </linearGradient>
  </defs>
  <title>1</title>
  <g>
    <g>
      <path class="cls-1" d="M18.61,35.94l-1-1.9c-1.35.66-1.69,2.18-2.06,3.79-.09.38-.3,1.25-.54,2.2h2.27c.19-.78.35-1.46.41-1.74C17.93,37.24,18.18,36.15,18.61,35.94Z" transform="translate(-6.1 0.03)"/>
      <path class="cls-1" d="M25,34l-1,1.9c.42.21.67,1.3.91,2.35.07.28.23,1,.42,1.74h2.27c-.24-1-.45-1.82-.54-2.2C26.67,36.22,26.32,34.7,25,34Z" transform="translate(-6.1 0.03)"/>
      <path class="cls-1" d="M25.14,34c-1.59-1.63-5.77-1.5-7.52-.12-1.53,1.2-.53,3.8.05,6.12h7.21C25.34,37.37,26.68,35.59,25.14,34Z" transform="translate(-6.1 0.03)"/>
      <path class="cls-2" d="M25.27,38.39A7.5,7.5,0,0,1,25.12,34c-1.6-1.6-6-1.46-7.78,0a7,7,0,0,1-.16,4.1c.17.68.34,1.29.47,1.89H24.9A11.15,11.15,0,0,1,25.27,38.39Z" transform="translate(-6.1 0.03)"/>
      <path class="cls-3" d="M23.07,37.46a7.76,7.76,0,0,1-4,0c-.73-.17-1.15.61-.92,1.28.29.88,1.81,1.11,3.14,1.08,2.61,0,3.6-1,3.16-2.05C24.3,37.44,23.74,37.24,23.07,37.46Z" transform="translate(-6.1 0.03)"/>
      <path class="cls-4" d="M23.3,32.69a6.32,6.32,0,0,0-4.29.05c-2.1,1,.13,4.28.13,4.28l2.26-.57,2.26.49S25.36,33.55,23.3,32.69Z" transform="translate(-6.1 0.03)"/>
      <path class="cls-5" d="M23.33,33c-.37-.3-.28-1.2-.22-2.25.14-2.38-3.95-2.47-3.95.12,0,1.16,0,1.88-.26,2.19-.6.62-.54,1.69,2.45,3.08C23,35.33,25.09,34.41,23.33,33Z" transform="translate(-6.1 0.03)"/>
      <g>
        <path class="cls-6" d="M18.78,33.09a.35.35,0,0,0-.34.36.35.35,0,1,0,.7,0A.35.35,0,0,0,18.78,33.09Z" transform="translate(-6.1 0.03)"/>
        <path class="cls-6" d="M19.58,33.63a.35.35,0,0,0,0,.7.35.35,0,0,0,.33-.36A.33.33,0,0,0,19.58,33.63Z" transform="translate(-6.1 0.03)"/>
        <path class="cls-6" d="M20.61,34a.35.35,0,0,0-.34.36.35.35,0,1,0,.7,0A.35.35,0,0,0,20.61,34Z" transform="translate(-6.1 0.03)"/>
        <path class="cls-6" d="M21.64,34.05a.35.35,0,0,0-.33.36.34.34,0,0,0,.36.34.35.35,0,0,0,.33-.36A.35.35,0,0,0,21.64,34.05Z" transform="translate(-6.1 0.03)"/>
        <path class="cls-6" d="M23.52,33.05a.35.35,0,1,0,.35.34A.33.33,0,0,0,23.52,33.05Z" transform="translate(-6.1 0.03)"/>
        <path class="cls-6" d="M22.69,33.67a.34.34,0,0,0-.34.36.36.36,0,0,0,.36.34A.35.35,0,0,0,23,34,.33.33,0,0,0,22.69,33.67Z" transform="translate(-6.1 0.03)"/>
      </g>
    </g>
    <g>
      <path class="cls-7" d="M30.66,6.3c-1.25-1.62-1.64-3.46.43-3.57-1.34-1-5.15-2-9.35-1.82.13-.37,0-.64.39-.94-1.8.25-4,.28-6.26,1.67-1.06.65-1.52,1.62-2.73,2a11.61,11.61,0,0,0-3,1.22,10.25,10.25,0,0,0-4,5.26,2.58,2.58,0,0,1,2-.57,4.56,4.56,0,0,0-.44,4.23c.56,1.53-.77,3.53-.28,6.4.76,4.51,4.24,4.2,4.16,7.08a25.57,25.57,0,0,0,2.82-1.94c.54-.75.66-1.68,1.25-2.43A8,8,0,0,1,22,20.24c1.66,0,2.26.75,3.24,1.85.65.73,3.08,1.66,4.57,4.69a6,6,0,0,0,1.46-3.33c.25.45,1.26.45,2.26,0-1.17-.94-2.1-4-2-5.42.1-1,1.9-1.84,1-4.47-.24-.69-.41-.55-.44-1.29a5.79,5.79,0,0,0,2.21-1.18C31.78,11,32.13,8.21,30.66,6.3Z" transform="translate(-6.1 0.03)"/>
      <path class="cls-8" d="M30.12,22a.86.86,0,0,0-.68,1,.78.78,0,1,0,.68-1Z" transform="translate(-6.1 0.03)"/>
      <path class="cls-9" d="M20.39,6.6c-5.47.49-9.67,5.27-9.25,12.88S16.44,32,21.93,32c4.85,0,9.31-6.84,8.65-14.43S25.86,6.12,20.39,6.6Z" transform="translate(-6.1 0.03)"/>
      <path class="cls-9" d="M9.24,17.48c-2.44,1.11-1.25,5.34.81,6a4.14,4.14,0,0,0,2,0l0-.08c.27-.6-.39-3.43-.56-4C11.08,17.93,10.41,16.94,9.24,17.48Z" transform="translate(-6.1 0.03)"/>
      <path class="cls-10" d="M10.65,19c-.66-.36-2.36.1-1.63,1.48.47-1.21,1.18-.35,1,.52-.1.58-.72.55-.13,1.35.31.43,1,.32,1.35.12C12.39,21.81,11.46,19.39,10.65,19Z" transform="translate(-6.1 0.03)"/>
      <path class="cls-8" d="M11,22.8a.94.94,0,0,0,0,1.84.86.86,0,0,0,.75-.94A.85.85,0,0,0,11,22.8Z" transform="translate(-6.1 0.03)"/>
      <path class="cls-11" d="M27,7.09a27.85,27.85,0,0,0-9,.7A10.84,10.84,0,0,0,10.41,18.7c.23,2.72,1.15,6.34,4.47,6.14-.26-.4-.54-.75-.77-1.17a12.77,12.77,0,0,1-.85-8.93c.17,0,1.09.34,1.07.57.18-2,1-2.79,2.82-3.5a15.28,15.28,0,0,1,4.44-1.18c1.08,0,2.09.94,3,1.43a5.88,5.88,0,0,0,3.41.69,2.4,2.4,0,0,1-.32-1.17c0-.25,1.48,1.25,1.55,1.34a5.05,5.05,0,0,1,1,2.39C30.17,13.19,28.6,7.22,27,7.09Z" transform="translate(-6.1 0.03)"/>
      <path class="cls-7" d="M28,6.15c-5.28-2.41-10.65-.94-15.61,1.47A5.82,5.82,0,0,0,9.79,10c-1.07,1.91-.14,6.85.82,10.82a4.09,4.09,0,0,0,3.3,3.39c-2.45-3.22-1-11.08,0-12.76A2.56,2.56,0,0,0,14.16,14c0-1.78,1.54-2.39,2.86-3.07a14.23,14.23,0,0,1,5.4-1.52A6.19,6.19,0,0,0,27.06,12a1.1,1.1,0,0,1-.42-1.39,7,7,0,0,1,2,.83c.17.14,1.59,1.39,1.59,1.47,0-1.36.53-2.81.09-4.1A4.23,4.23,0,0,0,28,6.15Z" transform="translate(-6.1 0.03)"/>
      <path class="cls-12" d="M30.61,7.51c-.77-.94-1.95-2.83-4.23-3.32a7.44,7.44,0,0,1,2.8-1.57,15.38,15.38,0,0,0-5.13-.8c-.69,0-1.41.43-2.08.18-.22-.08-1.14-.73-.66-1.54a21.21,21.21,0,0,0-4,1.32c-1.1.54-2,1.42-3.06,2-1.43.76-2.79.53-4.59,1.73-1.1.73-1.8,2.3-2.22,2.83C8.19,8,10.32,7,11.11,7.13c-1,2.36-.86,3.63-3.1,5.8,4.41.63,5.31-2.77,6.88-3.29-.09.75-.41,1.44-.45,2.18,2-2.63,5.15-3.16,8.21-3.55a6,6,0,0,0,2.89,2.1,5.65,5.65,0,0,1,.19-2c1.29.15,6.41,3.67,7.5,2.8C31.7,11.13,31.67,8.79,30.61,7.51Z" transform="translate(-6.1 0.03)"/>
    </g>
    <g>
      <path class="cls-13" d="M17.86,17c-1.51-.53-2.24,2.14-1.18,2.92a2.07,2.07,0,0,1,1.45,0A1.79,1.79,0,0,0,17.86,17Z" transform="translate(-6.1 0.03)"/>
      <path class="cls-13" d="M28.75,16.9c-1.49-.83-2.77,2.28-1.12,2.7a2,2,0,0,1,1.3-.2C29.49,18.74,29.55,17.34,28.75,16.9Z" transform="translate(-6.1 0.03)"/>
      <path class="cls-14" d="M13.84,16.1a7.92,7.92,0,0,1,3.45-.78c1.27,0,1.91.41,2.06-1a24.76,24.76,0,0,1-2.84.48A4.56,4.56,0,0,0,13.84,16.1Z" transform="translate(-6.1 0.03)"/>
      <path class="cls-14" d="M28.57,14.42A19.36,19.36,0,0,1,26.15,14c.09,1.41.65,1,1.73.94a5.79,5.79,0,0,1,2.94.65A3.38,3.38,0,0,0,28.57,14.42Z" transform="translate(-6.1 0.03)"/>
      <path class="cls-10" d="M23.2,21.93c-.54.05-.77-.16-1.13.08s.53.9,1.19.79,1.3-.78,1.08-1S23.79,21.88,23.2,21.93Z" transform="translate(-6.1 0.03)"/>
      <path class="cls-13" d="M13.69,17.68a2.71,2.71,0,0,0,3.43.21l-.21-.78A2.75,2.75,0,0,1,13.69,17.68Z" transform="translate(-6.1 0.03)"/>
      <path class="cls-13" d="M28.79,16.94l-.23.68a2.32,2.32,0,0,0,3.09.08C30.24,18.3,28.79,16.94,28.79,16.94Z" transform="translate(-6.1 0.03)"/>
      <path class="cls-15" d="M17.18,17.43c-.58.25-.05,1.37.5.91C18.08,18,17.69,17.22,17.18,17.43Z" transform="translate(-6.1 0.03)"/>
      <path class="cls-15" d="M28,17.21c-.56.13-.25,1.25.32.91S28.52,17.09,28,17.21Z" transform="translate(-6.1 0.03)"/>
      <path class="cls-16" d="M28.37,20.73c-.82.07-1.45.58-1.4,1.13s.76.95,1.58.89S30,22.17,30,21.62,29.19,20.67,28.37,20.73Z" transform="translate(-6.1 0.03)"/>
      <path class="cls-16" d="M16.87,21c-.9-.07-1.68.36-1.73,1s.64,1.17,1.54,1.25,1.68-.36,1.74-1S17.78,21.11,16.87,21Z" transform="translate(-6.1 0.03)"/>
      <g>
        <path class="cls-17" d="M16.41,24.23c1.91,3.08,4.05,4.11,6.43,4.09A4.32,4.32,0,0,0,27,25.81a6,6,0,0,1,1.65-2c-1.6.58-3.14.48-5.66.67C20.85,24.61,18.14,25,16.41,24.23Z" transform="translate(-6.1 0.03)"/>
        <path class="cls-18" d="M17.34,24.84a6.5,6.5,0,0,0,5.26,2.54c2.2-.07,3.62-.78,4-1.71a2.78,2.78,0,0,1,1.32-1.44A25.09,25.09,0,0,1,17.34,24.84Z" transform="translate(-6.1 0.03)"/>
        <path class="cls-6" d="M18.63,25s.13.61,1.36.87a13,13,0,0,0,5,0,2.59,2.59,0,0,0,1.7-1.33A26.75,26.75,0,0,1,18.63,25Z" transform="translate(-6.1 0.03)"/>
        <path class="cls-6" d="M23.32,25.86a19,19,0,0,1-3.62-.09c-.65-.06-.59.33-.46.54,0,0,.58,1,3.2,1.11s3.75-1.27,3.46-1.49S24.77,25.74,23.32,25.86Z" transform="translate(-6.1 0.03)"/>
        <path class="cls-19" d="M18.63,25a.84.84,0,0,0,.45.53s5.68-.74,7.11-.34c0,0,.46-.42.51-.69A30.75,30.75,0,0,1,18.63,25Z" transform="translate(-6.1 0.03)"/>
        <path class="cls-19" d="M20.25,26A5.55,5.55,0,0,0,25,25.85,9.64,9.64,0,0,1,20.25,26Z" transform="translate(-6.1 0.03)"/>
      </g>
    </g>
  </g>
</svg>
