<svg id="레이어_1" data-name="레이어 1" xmlns="http://www.w3.org/2000/svg" viewBox="0 0 40 31.27">
  <defs>
    <style>
      .cls-1 {
        fill: #e3ca95;
      }

      .cls-1, .cls-2, .cls-3 {
        fill-rule: evenodd;
      }

      .cls-2 {
        fill: #ff9500;
      }
    </style>
  </defs>
  <title>1</title>
  <g>
    <polygon class="cls-1" points="3.51 24.33 1.3 23.98 0.47 21.07 0.94 10.76 1.61 6.11 6.06 5.4 23.18 5.5 26.66 5.71 26.99 7.99 26.8 23.02 25.49 24.56 16.4 24.74 8.92 25.5 5.45 26.55 2.54 30.48 2.78 26.6 3.51 24.33"/>
    <polygon class="cls-2" points="12.68 5.5 13.16 1.96 14.68 0.84 35.95 0.95 39.15 2 39.45 6.66 38.77 20.1 37.72 21.35 37.06 21.16 37.72 24.27 37.86 26.43 36.47 25.27 34.01 22.27 30.52 20.89 26.99 20.72 26.66 6.49 25.66 5.64 12.68 5.5"/>
    <path class="cls-1" d="M3.69,10.08a9.56,9.56,0,0,0-2.39,4,.31.31,0,0,0,.56.22c.39-.59.62-1.28,1-1.89a13.58,13.58,0,0,1,1.34-1.87C4.45,10.21,4,9.75,3.69,10.08Z" transform="translate(0 -4.49)"/>
    <path class="cls-1" d="M5.68,10.76a46.37,46.37,0,0,0-4.28,7,.36.36,0,0,0,.62.35c1.53-2.26,2.77-4.74,4.28-7C6.55,10.73,5.93,10.39,5.68,10.76Z" transform="translate(0 -4.49)"/>
    <path class="cls-1" d="M8,10.79A122.34,122.34,0,0,0,1.14,22.51a.39.39,0,0,0,.69.38C4.29,19.13,6.32,15,8.63,11.17,8.9,10.74,8.21,10.36,8,10.79Z" transform="translate(0 -4.49)"/>
    <path class="cls-1" d="M11.27,10.62C8,16.2,4.58,21.7,1.54,27.4a.45.45,0,0,0,.79.43C5.72,22.34,8.74,16.59,11.91,11a.37.37,0,0,0-.64-.36Z" transform="translate(0 -4.49)"/>
    <path class="cls-1" d="M14.32,10.47,8.41,21.53C6.67,24.77,4.7,28,3.54,31.5c-.19.55.65.73.86.21,2.83-7.21,7-14,10.55-20.89C15.16,10.41,14.53,10.07,14.32,10.47Z" transform="translate(0 -4.49)"/>
    <path class="cls-1" d="M17.1,10.53C14.61,17.07,11.21,22.94,8,29.13a.44.44,0,0,0,.77.42c4-5.62,6.68-12.4,9-18.83.17-.47-.57-.64-.75-.19Z" transform="translate(0 -4.49)"/>
    <path class="cls-1" d="M20.08,10.32C17,16.45,13.9,22.66,11.3,29c-.22.54.56,1,.8.45,2.84-6.29,5.57-12.6,8.63-18.79C20.94,10.25,20.29,9.89,20.08,10.32Z" transform="translate(0 -4.49)"/>
    <path class="cls-1" d="M22.35,10.16q-1.67,5-3.76,9.79c-1.16,2.67-2.68,5.23-3.69,8-.16.42.46.58.68.26C19.12,23,21.22,16.26,23.1,10.35,23.26,9.87,22.51,9.69,22.35,10.16Z" transform="translate(0 -4.49)"/>
    <path class="cls-1" d="M25.29,10.5c-2.24,5.82-4.87,11.42-7.5,17.06-.26.56.55,1,.84.47A155,155,0,0,0,26,10.69C26.21,10.22,25.47,10.05,25.29,10.5Z" transform="translate(0 -4.49)"/>
    <path class="cls-1" d="M26.17,14c-1.71,4.65-4.07,9.05-5.74,13.69-.15.42.49.62.7.27,2.59-4.14,4.21-9.17,5.84-13.76C27.15,13.73,26.35,13.55,26.17,14Z" transform="translate(0 -4.49)"/>
    <path class="cls-1" d="M26.46,20.35a64.13,64.13,0,0,0-3.6,8.2c-.13.46.53.69.77.3a64.43,64.43,0,0,0,3.5-8.13C27.31,20.27,26.66,19.89,26.46,20.35Z" transform="translate(0 -4.49)"/>
    <path class="cls-2" d="M14.79,5.84a12.56,12.56,0,0,1-.69,2,13.35,13.35,0,0,0-.78,1.56.27.27,0,0,0,.46.25A7.73,7.73,0,0,0,15.41,6a.32.32,0,0,0-.63-.15Z" transform="translate(0 -4.49)"/>
    <path class="cls-2" d="M17.32,5.52l-1,2a9.71,9.71,0,0,0-.88,1.84c-.09.31.36.58.56.31a9.69,9.69,0,0,0,1-1.79l1-2C18.14,5.45,17.53,5.11,17.32,5.52Z" transform="translate(0 -4.49)"/>
    <path class="cls-2" d="M19.57,5.63a14.57,14.57,0,0,0-1.86,4.24.36.36,0,0,0,.67.26c.35-.66.54-1.41.85-2.1s.63-1.37,1-2a.37.37,0,0,0-.65-.36Z" transform="translate(0 -4.49)"/>
    <path class="cls-2" d="M21.58,5.84a19.38,19.38,0,0,0-2,4.16.34.34,0,0,0,.63.25,14.66,14.66,0,0,0,1-2c.33-.68.67-1.35,1-2A.37.37,0,0,0,21.58,5.84Z" transform="translate(0 -4.49)"/>
    <path class="cls-2" d="M23.62,6a19,19,0,0,0-1.54,3.6c-.09.38.49.64.67.26.54-1.15.94-2.36,1.5-3.5C24.46,5.88,23.82,5.53,23.62,6Z" transform="translate(0 -4.49)"/>
    <path class="cls-2" d="M25.79,5.82a16.15,16.15,0,0,1-.67,1.75A12,12,0,0,0,24.45,9a.36.36,0,0,0,.6.33A8.89,8.89,0,0,0,26.53,6C26.67,5.53,25.93,5.35,25.79,5.82Z" transform="translate(0 -4.49)"/>
    <path class="cls-2" d="M28.34,5.81c-.54,1.49-1.4,2.84-1.93,4.31a.36.36,0,0,0,.6.33,15,15,0,0,0,2-4.45C29.21,5.54,28.49,5.37,28.34,5.81Z" transform="translate(0 -4.49)"/>
    <path class="cls-2" d="M31,5.92C29.66,8.68,28,11.31,26.7,14.09a.41.41,0,0,0,.71.39,56.78,56.78,0,0,0,4.26-8.19C31.88,5.86,31.23,5.49,31,5.92Z" transform="translate(0 -4.49)"/>
    <path class="cls-2" d="M33.47,6.31l-3.84,6.05c-.86,1.36-2.81,3.4-3,5a.46.46,0,0,0,.33.54l.14,0c.26.07.57-.2.45-.47s1.49-2.54,1.72-2.91L30.78,12l3.31-5.39C34.34,6.26,33.71,5.93,33.47,6.31Z" transform="translate(0 -4.49)"/>
    <path class="cls-2" d="M36.41,5.92c-3,4.69-6,9.36-9,14.06-.31.51.5,1,.82.45C31.2,15.72,34.08,11,37,6.25,37.24,5.88,36.64,5.55,36.41,5.92Z" transform="translate(0 -4.49)"/>
    <path class="cls-2" d="M38.48,7.27C35.1,13,31.39,18.43,27.67,23.92c-.33.48.45.89.78.43,3.87-5.34,7.33-11,10.65-16.74C39.33,7.22,38.71,6.88,38.48,7.27Z" transform="translate(0 -4.49)"/>
    <path class="cls-2" d="M39,11a90.39,90.39,0,0,1-8.18,12.82c-.29.4.25,1,.57.55a72,72,0,0,0,8.15-13.07C39.74,10.94,39.2,10.64,39,11Z" transform="translate(0 -4.49)"/>
    <path class="cls-2" d="M38.8,16.43c-2.08,2.9-4.54,5.75-6.31,8.85-.2.36.32.76.6.44a106,106,0,0,0,6.3-9c.25-.36-.34-.68-.59-.33Z" transform="translate(0 -4.49)"/>
    <path class="cls-2" d="M38.78,20.35c-1.23,2.25-2.83,4.21-4.16,6.38a.33.33,0,0,0,.52.39,26.75,26.75,0,0,0,4.18-6.47A.31.31,0,0,0,38.78,20.35Z" transform="translate(0 -4.49)"/>
    <path class="cls-2" d="M37,26.6l-.63.91a5.06,5.06,0,0,0-.61.92.35.35,0,0,0,.55.41,5,5,0,0,0,.66-.92c.23-.32.44-.64.66-1S37.28,26.22,37,26.6Z" transform="translate(0 -4.49)"/>
    <path class="cls-3" d="M40,8c-.07-1.72-.73-3-2.56-3.33a52.82,52.82,0,0,0-7.66-.16c-2.79,0-5.6,0-8.4,0-1.3,0-2.61.07-3.91.14a13.43,13.43,0,0,0-3.58.34,2.15,2.15,0,0,0-1.41,1.3c-.33.93.16,1.89-.09,2.83l0,.15c-2.92,0-5.85,0-8.77.07-2.29,0-2.71.89-3,3.08-.31,2.59-.5,5.19-.55,7.8,0,1.27,0,2.55,0,3.82a14.12,14.12,0,0,0,.24,3.62,2.56,2.56,0,0,0,2.44,1.71,12.41,12.41,0,0,0-1.25,5.64.72.72,0,0,0,1.34.33A10.69,10.69,0,0,1,6,31.53c1.62-1,3.83-1.08,5.66-1.32a80,80,0,0,1,11.89-.54c1.18,0,2.53,0,3.33-1a4.41,4.41,0,0,0,.63-2.91,8,8,0,0,1,5.82,1.55A15.36,15.36,0,0,1,37,31.79a.73.73,0,0,0,1.31-.2,7.17,7.17,0,0,0-.23-5.39,3,3,0,0,0,1.73-2.56,68.77,68.77,0,0,0,.1-7.6c0-2.65.17-5.35.05-8ZM23.16,22.36c.83,0,.85,1.31,0,1.29q-9.44-.24-18.88,0a.66.66,0,0,1,0-1.32q9.43-.22,18.88,0Zm0-4.3a.62.62,0,0,1,0,1.23c-6.3.11-12.59.17-18.89.24a.64.64,0,0,1,0-1.28c6.3-.08,12.59-.17,18.89-.19Zm-.1-4.17a.66.66,0,0,1,0,1.31l-9.44.11a90.08,90.08,0,0,1-9.44,0,.61.61,0,0,1,0-1.22A87.42,87.42,0,0,1,13.62,14l9.44-.07Zm3-1.07a4.89,4.89,0,0,0,0,1C25.88,17,26,20.28,26,23.49c0,1,0,2,0,3-.05,1.36-.9,1.75-2.12,1.76-1.84,0-3.68-.09-5.53,0a62.1,62.1,0,0,0-10.79,1.2,7.57,7.57,0,0,0-4.39,2.87A11.26,11.26,0,0,1,4.5,29.09a.71.71,0,0,0-.63-1c-1,.07-2,.17-2.33-1a12.4,12.4,0,0,1-.16-3c0-1.91,0-3.82,0-5.73s.24-4.07.49-6.08c.11-.83,0-1.22,1.11-1.55a5.79,5.79,0,0,1,1.38,0l3,0L19,10.61l3,0a17,17,0,0,1,3,0c1.31.23,1.1,1.23,1,2.27Zm11,12a.72.72,0,0,0-.79,1.07,5.83,5.83,0,0,1,1,3.57,14.92,14.92,0,0,0-3.46-3.63,9.29,9.29,0,0,0-6.33-1.55c0-1.35,0-2.72,0-4.09a13.7,13.7,0,0,0,3.2,0c1.56,0,3.11-.12,4.67-.19a.63.63,0,0,0,0-1.26,56.85,56.85,0,0,1-7.83.09c0-1.07,0-2.13-.05-3.19,2.57.07,5.14-.26,7.71-.22.82,0,.79-1.26,0-1.28a66.91,66.91,0,0,0-7.62.19l0,0a2.64,2.64,0,0,1-.15-.55c0-.13,0-.26,0-.39,0-.6.09-1.24.09-1.85,2.49.19,5.07,0,7.55.09.84,0,.8-1.27,0-1.3a51,51,0,0,0-7.82-.1,1.75,1.75,0,0,0-.47-.52A4.18,4.18,0,0,0,24,9.3l-3.87,0-6.5,0a7.89,7.89,0,0,0,.05-1.54c0-1.56,1.15-1.58,2.4-1.64Q19,6,21.93,6c3.83-.06,7.65,0,11.48,0l2.8,0c1.25,0,2.2.36,2.3,1.78.14,1.81,0,3.68,0,5.5s0,3.62,0,5.43C38.45,19.78,39,25.33,37.09,24.86Z" transform="translate(0 -4.49)"/>
  </g>
</svg>
