<svg xmlns="http://www.w3.org/2000/svg" xmlns:xlink="http://www.w3.org/1999/xlink" viewBox="0 0 25.71 39.84">
  <defs>
    <style>
      .cls-1 {
        isolation: isolate;
      }

      .cls-2 {
        fill: #1e1e29;
      }

      .cls-3 {
        fill: #f5f5f5;
      }

      .cls-4 {
        fill: #313142;
      }

      .cls-5 {
        fill: url(#linear-gradient);
      }

      .cls-6 {
        fill: #a09d98;
        opacity: 0.2;
        mix-blend-mode: multiply;
      }

      .cls-7 {
        fill: #261b18;
      }

      .cls-8 {
        fill: #ffb06b;
      }

      .cls-9 {
        fill: #bc551e;
      }

      .cls-10, .cls-9 {
        opacity: 0.3;
      }

      .cls-10 {
        fill: #bf3c1b;
      }

      .cls-11 {
        fill: #82572e;
      }

      .cls-12 {
        fill: #57443a;
      }

      .cls-13 {
        fill: #f58a53;
      }

      .cls-14 {
        fill: #202930;
      }

      .cls-15 {
        fill: #c3cee6;
        opacity: 0.7;
      }

      .cls-16 {
        fill: #2b221c;
      }

      .cls-17 {
        fill: #121b21;
      }

      .cls-18 {
        fill: #ff3b3b;
        opacity: 0.8;
      }

      .cls-19 {
        fill: #a80a0a;
      }

      .cls-20 {
        fill: #fff9f0;
      }

      .cls-21 {
        fill: #e8dac5;
      }
    </style>
    <linearGradient id="linear-gradient" x1="20.17" y1="30.07" x2="20.17" y2="33.17" gradientUnits="userSpaceOnUse">
      <stop offset="0" stop-color="#e88958"/>
      <stop offset="0.34" stop-color="#f49d62"/>
      <stop offset="0.69" stop-color="#fcab69"/>
      <stop offset="1" stop-color="#ffb06b"/>
    </linearGradient>
  </defs>
  <title>1</title>
  <g class="cls-1">
    <g id="레이어_1" data-name="레이어 1">
      <g>
        <path class="cls-2" d="M16.81,33.77l-1-1.92c-1.3.66-1.5,2.31-1.73,4.21a13,13,0,0,1-.85,3.78h2.29a18.18,18.18,0,0,0,.69-3.52A6.93,6.93,0,0,1,16.81,33.77Z" transform="translate(-7.4 0)"/>
        <path class="cls-2" d="M24.74,31.85l-1,1.92a6.93,6.93,0,0,1,.58,2.55A17.4,17.4,0,0,0,25,39.84h2.3a12.67,12.67,0,0,1-.85-3.78C26.24,34.16,26,32.51,24.74,31.85Z" transform="translate(-7.4 0)"/>
        <g>
          <path class="cls-3" d="M24.14,32.3C23,29.47,18.45,30,16.86,31.38s-1.25,3.83.56,5.64a20.27,20.27,0,0,1,2.42,2.82h1.28C22.37,38,24.85,34.06,24.14,32.3Z" transform="translate(-7.4 0)"/>
          <path class="cls-2" d="M24.55,36.4a3.76,3.76,0,0,0,.31-3c-.4-2-.9-.94-1.09-.35a19.29,19.29,0,0,1-3.25,5.67s-3.19-3.19-4-5.66c-.18-.59,0-1.46-.52-.35-.85,1.92-.16,2.72.25,4.27a8.31,8.31,0,0,1,.18,2.83H24A6.78,6.78,0,0,1,24.55,36.4Z" transform="translate(-7.4 0)"/>
          <path class="cls-4" d="M23.25,30.93,23,30.88a1.73,1.73,0,0,1,.47,1.49,17.88,17.88,0,0,1-2.92,6.38s3.37-2.65,5-4.16c.31-.29-.27-.64-.58-.86a3.15,3.15,0,0,0-.68-.36c.11-.26,1.25-.8,1.57-1.18S24,31.14,23.25,30.93Z" transform="translate(-7.4 0)"/>
          <path class="cls-4" d="M17.32,31c-.12,0-3.19.66-2.71,1.24.32.38,1.46.91,1.57,1.17a3.44,3.44,0,0,0-.68.37c-.31.22-.89.56-.58.86a52.69,52.69,0,0,0,5.6,4.07,23.23,23.23,0,0,1-2.9-4.57C17.18,33.23,16.5,32,17.32,31Z" transform="translate(-7.4 0)"/>
          <path class="cls-5" d="M22.61,30.85c-1.22-.67.1-3.75-.87-4.52A3.07,3.07,0,0,0,18.93,26c-1.67.68,0,4.42-1.63,5.09-.32.13-.39.51.24,1.49a24.73,24.73,0,0,0,2.78,3.63,17.49,17.49,0,0,0,2.74-3.85C23.49,31.27,23.22,31.19,22.61,30.85Z" transform="translate(-7.4 0)"/>
          <path class="cls-6" d="M18.22,37.14a15.45,15.45,0,0,1,2.08-.44,12.85,12.85,0,0,1,1.95.36,8.14,8.14,0,0,0-2-.65A12.54,12.54,0,0,0,18.22,37.14Z" transform="translate(-7.4 0)"/>
          <path class="cls-3" d="M21,36.55l2.41,1a32.94,32.94,0,0,0,.1-5.55Z" transform="translate(-7.4 0)"/>
          <path class="cls-3" d="M17.18,37.54l2.41-.95L17,31.94A27.38,27.38,0,0,0,17.18,37.54Z" transform="translate(-7.4 0)"/>
        </g>
        <g>
          <path class="cls-7" d="M31.39,7.9a4.19,4.19,0,0,0,1.4.31c-.18-.43-2-4.87-5.93-5.54a5.26,5.26,0,0,1,2.27-.58C27.92,1.4,25,.15,22.19,1.24A8.4,8.4,0,0,0,19,0c.18.27,1.05.89,1.07,1.22-1.91-.68-3.61-.32-5.58.19a5.77,5.77,0,0,0-2.92,1.78,1.22,1.22,0,0,1,1.16.23c-1.82.61-4,2.2-4.58,4.06.47-.06.94-.3,1.43-.34-.42,0-1,1.17-1.19,1.49a7.07,7.07,0,0,0-.62,1.85,10.13,10.13,0,0,0-.27,3.83,9.75,9.75,0,0,1,.95-1C7.61,15.2,8.29,17,9,18.7A22.17,22.17,0,0,0,10.34,21c.34.59.52,1.27.9,1.83,1.2,1.76,2.45,1,4.14.63a21.84,21.84,0,0,1,4-.59,17.27,17.27,0,0,1,4.54.17c1.41.32,3,.94,4.4.35C31,22.32,31,18.81,31,16.48c.24.18.48.39.7.55.05-1.64.23-3.25.28-4.91a7.77,7.77,0,0,0,1.1.73C33,12,32.3,8.29,31.39,7.9Z" transform="translate(-7.4 0)"/>
          <path class="cls-8" d="M18.63,7c-5,1-8.63,8-7.57,14.51.72,4.44,6.07,9.91,10.41,9.91,5.06,0,8.93-7.65,8.16-13.69C28.79,11.17,25.6,5.69,18.63,7Z" transform="translate(-7.4 0)"/>
          <path class="cls-9" d="M27.34,8.84A23.38,23.38,0,0,0,19,7.13a13.05,13.05,0,0,0-5.49.62,6.13,6.13,0,0,0-3.94,5.4c-.12,1-.06,2.58,1.25,2.67,1.83.13,1.92-2.1,2.51-3.24a11.45,11.45,0,0,0,3.13,1.11,3.7,3.7,0,0,1-.27-2.16c1,.37,7.71,1.56,7.71,1.56a5.41,5.41,0,0,1-.27-1.22,5.39,5.39,0,0,0,4.13,2A4.27,4.27,0,0,1,28,12.39S28.23,9.19,27.34,8.84Z" transform="translate(-7.4 0)"/>
          <path class="cls-8" d="M9.32,18.8c-2.44.66-1.46,4.15.54,4.85a5.09,5.09,0,0,0,2,.21l0-.06c.29-.46-.12-3-.27-3.48C11.23,19.11,10.5,18.48,9.32,18.8Z" transform="translate(-7.4 0)"/>
          <path class="cls-10" d="M10.18,20.08c-.55-.24-1.92.2-1.27,1.25.34-1,.94-.33.85.36-.06.46-.57.47-.07,1.06a.9.9,0,0,0,1.11,0C11.69,22.24,10.85,20.38,10.18,20.08Z" transform="translate(-7.4 0)"/>
          <path class="cls-7" d="M28.49,8.63a23,23,0,0,0-2.62-3C23.11,3.39,19.53,3.41,16.14,4A12.57,12.57,0,0,0,12.3,5.15C11.29,5.71,10.89,7,10.43,8c-1.1,2.31-2,9.19-.77,10.74a1.57,1.57,0,0,1,1.17.33,3,3,0,0,1,.66,1.27,1.61,1.61,0,0,0,1.11.28c-.36-2.38-.94-7.37,1.06-9.14.06.75,1.55,1.72,2.28,1.84a12.31,12.31,0,0,1-.32-2.49c2.12.31,5.49,1,7.57,1.51-.14-.33-.28-1.18-.43-1.62,1.53,1,2.5,2,4.38,2.52a8.25,8.25,0,0,0,.21-1.92c0,.26,2.92.62,3.21.67a3.8,3.8,0,0,0-.67-1.67A19.77,19.77,0,0,0,28.49,8.63Z" transform="translate(-7.4 0)"/>
          <path class="cls-11" d="M17.42,7.44h0Z" transform="translate(-7.4 0)"/>
          <path class="cls-12" d="M26.63,4.93a5.12,5.12,0,0,1,2.13-.29,6.57,6.57,0,0,0-4.32-1.92A2.35,2.35,0,0,1,25,1.52c-.49.42-1.72.36-2.33.77a2,2,0,0,0-1.29-.62,5.5,5.5,0,0,1,.34.94,14.1,14.1,0,0,0-4-.57c-.33,0-2.25.16-2.45-.13a2.76,2.76,0,0,0,1.53,1c-1.24-.06-2.32.58-3.5.79a2.27,2.27,0,0,0,1.41.26c-1.91.77-3.88,1.77-4.89,3.72.83-.15,1.68-.39,2.52-.54-.27.87-1,1.75-1,2.77,2.79-2.38,7-1,10,.23a10.07,10.07,0,0,0-3.93-2.67h0A12.65,12.65,0,0,1,22,8.5c1.61.67,3.3,2.32,5.08,2.43A8.3,8.3,0,0,0,25.45,8c1.65.58,3,1.58,4.75,2-.24-.06-.84-1.43-.89-1.71a7.91,7.91,0,0,0,1.9.48C30.26,6.94,28.18,6.06,26.63,4.93Z" transform="translate(-7.4 0)"/>
        </g>
        <g>
          <path class="cls-13" d="M27.34,20.06c-.77-.09-1.83,0-1.3,1,.28.52,3.29,1.22,3.13.08a.84.84,0,0,0-.12-.31A2.4,2.4,0,0,0,27.34,20.06Z" transform="translate(-7.4 0)"/>
          <path class="cls-13" d="M17.11,20.43a2.88,2.88,0,0,0-2-.16c-.78.17-1.71.62-.67,1.37.55.4,3.77.09,3-.94A1.23,1.23,0,0,0,17.11,20.43Z" transform="translate(-7.4 0)"/>
          <path class="cls-14" d="M16.74,17.24c-1.29-.54-2.09,1.69-1.22,2.41a1.91,1.91,0,0,1,1.27.11A1.51,1.51,0,0,0,16.74,17.24Z" transform="translate(-7.4 0)"/>
          <path class="cls-14" d="M27.81,17.15c-1.3-.76-2.26,1.86-1.18,2.55a1.71,1.71,0,0,1,1.35,0A2,2,0,0,0,27.81,17.15Z" transform="translate(-7.4 0)"/>
          <path class="cls-15" d="M16.28,17.68c-.52.17-.12,1.16.38.8S16.74,17.53,16.28,17.68Z" transform="translate(-7.4 0)"/>
          <path class="cls-15" d="M27.25,17.71c-.51.1-.27,1.09.26.81C27.89,18.32,27.71,17.62,27.25,17.71Z" transform="translate(-7.4 0)"/>
          <path class="cls-16" d="M17.28,15.35c-.65,0-1.24-.24-1.87-.35a2.2,2.2,0,0,0-2.11.87,3.57,3.57,0,0,0,.57,0,5.54,5.54,0,0,1,.81-.07c.53,0,1.09.19,1.61.26s2.32.5,2.33.06a1,1,0,0,0-.28-.66C18.12,15.28,17.54,15.37,17.28,15.35Z" transform="translate(-7.4 0)"/>
          <path class="cls-16" d="M27.89,14.84c-.58.14-1.12.35-1.72.44-.25,0-.78,0-1,.13a1,1,0,0,0-.23.67c0,.44,1.79-.09,2.16-.17s1-.29,1.48-.34a4.78,4.78,0,0,1,.76,0,4.64,4.64,0,0,0,.53,0A2,2,0,0,0,27.89,14.84Z" transform="translate(-7.4 0)"/>
          <path class="cls-10" d="M22.14,21.24c-.58,0-.82-.2-1.22,0s.52,1,1.23.88,1.45-.77,1.22-1S22.78,21.2,22.14,21.24Z" transform="translate(-7.4 0)"/>
          <path class="cls-17" d="M15.54,16.82c-.73.18-1.45.87-3.07.24a2.77,2.77,0,0,0,3.4.55,1.21,1.21,0,0,1,1.52.44S17,16.47,15.54,16.82Z" transform="translate(-7.4 0)"/>
          <path class="cls-17" d="M28.1,16.91c-1.43-.35-1.84,1.22-1.84,1.22a1.21,1.21,0,0,1,1.51-.43,2.77,2.77,0,0,0,3.4-.56C29.55,17.77,28.83,17.09,28.1,16.91Z" transform="translate(-7.4 0)"/>
          <g>
            <path class="cls-18" d="M21.8,23.12c-2,0-5,.61-6.57-.32,2.59,4.47,4.22,5.31,6.29,5.47,2.59.2,3.5-1.61,3.92-3a7.74,7.74,0,0,1,2-2.37C25.84,23.3,24.24,23.07,21.8,23.12Z" transform="translate(-7.4 0)"/>
            <path class="cls-19" d="M16.44,23.59a20.28,20.28,0,0,0,10,0,2.82,2.82,0,0,0-1.33,1.49c-.39,1-1.77,1.69-3.84,1.62A6.08,6.08,0,0,1,16.44,23.59Z" transform="translate(-7.4 0)"/>
            <path class="cls-20" d="M17.64,23.87a1.61,1.61,0,0,0,1.23,1.27,10.36,10.36,0,0,0,4.69.28c1.11-.17,1.68-1.58,1.68-1.58A21.61,21.61,0,0,1,17.64,23.87Z" transform="translate(-7.4 0)"/>
            <path class="cls-20" d="M18.16,25.18c-.11-.24-.06-.62.47-.26a6,6,0,0,0,3.43.59c1.37,0,2.07-.44,2.34-.18s-1,1.72-3.33,1.41S18.16,25.18,18.16,25.18Z" transform="translate(-7.4 0)"/>
            <path class="cls-21" d="M17.92,24.51s5.54-.41,6.85.12a3,3,0,0,0,.47-.79,24.86,24.86,0,0,1-7.6,0A1.44,1.44,0,0,0,17.92,24.51Z" transform="translate(-7.4 0)"/>
            <path class="cls-21" d="M19.06,25.11a7.65,7.65,0,0,0,4.36.26A5.12,5.12,0,0,1,19.06,25.11Z" transform="translate(-7.4 0)"/>
          </g>
        </g>
      </g>
    </g>
  </g>
</svg>
