<svg id="레이어_1" data-name="레이어 1" xmlns="http://www.w3.org/2000/svg" viewBox="0 0 40 35.55">
  <defs>
    <style>
      .cls-1 {
        fill: #86bcb6;
      }

      .cls-1, .cls-2 {
        fill-rule: evenodd;
      }
    </style>
  </defs>
  <title>1</title>
  <g>
    <path class="cls-1" d="M6.49,11l-3,1.79L.9,16.43V19.7L3,23l5.13,1.35,9.76.6s13.52,0,13.72,0,5.9-1.58,5.9-1.58L40,18.93l-.86-3.61-1.56-2.56-3.26-1.21-1.09-.73-2-2.6L27.84,7l-3.06-.13L20.31,3.29,14.76,3l-3.48,1.4L8.51,6.88l-1.28,3Z" transform="translate(0 -2.23)"/>
    <path class="cls-1" d="M5.64,23.79a77.1,77.1,0,0,1-3.7-8.62.43.43,0,0,0-.82.25,33.38,33.38,0,0,0,3.72,8.86A.47.47,0,0,0,5.64,23.79Z" transform="translate(0 -2.23)"/>
    <path class="cls-1" d="M8.23,23.86c-.9-3.6-2.8-7.17-4.2-10.6-.22-.55-1.1-.29-.88.27C4.51,17,5.6,21,7.45,24.21,7.7,24.66,8.35,24.32,8.23,23.86Z" transform="translate(0 -2.23)"/>
    <path class="cls-1" d="M11.72,24.56c-1.22-4.24-3.23-8.38-4.85-12.48-.16-.4-.79-.22-.64.19C7.79,16.43,9.08,20.88,11,24.88,11.21,25.29,11.84,25,11.72,24.56Z" transform="translate(0 -2.23)"/>
    <path class="cls-1" d="M14.83,24.69c-.57-2.56-2.41-5.2-3.4-7.64-1.14-2.78-2.12-5.61-3-8.48a.33.33,0,0,0-.63.19c.84,2.88,1.78,5.72,2.87,8.52.48,1.24,1,2.47,1.52,3.69.31.71,1.93,3.31,1.68,3.9a.4.4,0,0,0,.64.47l.22-.19A.47.47,0,0,0,14.83,24.69Z" transform="translate(0 -2.23)"/>
    <path class="cls-1" d="M11.16,5c-.15-.54-1-.29-.83.25A68.63,68.63,0,0,0,13.94,15c1.39,3.21,2.39,6.43,3.47,9.74.15.47.94.39.88-.14C17.48,17.71,13,11.61,11.16,5Z" transform="translate(0 -2.23)"/>
    <path class="cls-1" d="M22.28,24.26c-2.36-7-5.07-13.8-7.78-20.62-.19-.48-1-.25-.78.24,2.64,6.85,5,13.78,7.57,20.68C21.52,25.19,22.5,24.9,22.28,24.26Z" transform="translate(0 -2.23)"/>
    <path class="cls-1" d="M26.87,24.52c-2.75-7.11-6-14-9.06-21-.2-.47-1-.25-.77.24C20,10.78,22.7,18,25.92,25,26.17,25.49,27.08,25.08,26.87,24.52Z" transform="translate(0 -2.23)"/>
    <path class="cls-1" d="M30.74,23.54c-1.84-6.06-4.86-11.95-7.27-17.81-.22-.54-1.09-.29-.87.26,2.34,5.94,4.25,12.31,7.15,18C30,24.55,30.91,24.13,30.74,23.54Z" transform="translate(0 -2.23)"/>
    <path class="cls-1" d="M28.41,7.64c-.23-.62-1.22-.33-1,.3,1,2.85,2,5.71,3,8.6s1.54,5.92,2.72,8.68c.19.46,1,.44,1-.15C33.16,19.19,30.5,13.19,28.41,7.64Z" transform="translate(0 -2.23)"/>
    <path class="cls-1" d="M37.05,23A93.12,93.12,0,0,0,32.24,9.57c-.22-.55-1.11-.29-.89.27,1.76,4.43,3.06,9,4.75,13.46A.5.5,0,0,0,37.05,23Z" transform="translate(0 -2.23)"/>
    <path class="cls-1" d="M38.25,17.76l-2-5.22c-.19-.51-1-.27-.81.25L37,17.11c.31.85,1.73,3.39,1.31,4.13a.39.39,0,0,0,.46.56l.22-.07a.46.46,0,0,0,.33-.34C39.55,20.22,38.65,18.82,38.25,17.76Z" transform="translate(0 -2.23)"/>
    <path class="cls-2" d="M39.89,16.76a7.27,7.27,0,0,0-1.6-3.68c-1.07-1.27-2.31-1.63-3.82-2.17s-1.9-2.25-3-3.17A7.55,7.55,0,0,0,27.52,6a6.31,6.31,0,0,0-1.79,0c-1.11.15-1.49-.38-2.27-1a12.21,12.21,0,0,0-3.63-2.1,10.06,10.06,0,0,0-9.25,1,9.47,9.47,0,0,0-4.1,7.17C3.22,10.87.38,14.2.08,17.44a.08.08,0,0,1,0,0C-.4,20.41,1.48,22.86,4,24.24c3,1.65,6.59,1.53,9.9,1.5l12.52-.12c3.37,0,7.52.53,10.57-1.25,2.64-1.55,3.34-4.75,2.93-7.61ZM31.05,32.6c-1.47-.12-2.95-.17-4.43-.2.7-1.39,1.34-2.81,2-4.12a.5.5,0,0,0-.87-.49l-2.13,4.08c-.82-1.35-1.67-2.69-2.49-4a.48.48,0,0,0-.82.5c.82,1.33,1.59,2.69,2.36,4-1.53,0-3.07,0-4.59,0-.65,0-.62,1,0,1,1.53,0,3.06.1,4.6.16a35.51,35.51,0,0,1-2.2,3.18.48.48,0,0,0,.69.66,14.66,14.66,0,0,0,2.48-3.24c.65,1.14,1.3,2.27,2,3.39.32.54,1.06.05.8-.49-.56-1.17-1.18-2.31-1.83-3.45,1.49,0,3,0,4.43,0a.49.49,0,0,0,0-1ZM16.82,27.72c-1.75,3-3.83,5.89-5.52,8.94-.29.54.49,1.17.9.66a69.53,69.53,0,0,0,5.6-9,.57.57,0,0,0-1-.55Zm-7.63.12c-1.4,3.08-3.91,5.47-5.45,8.44-.27.51.43,1.07.83.61a39.86,39.86,0,0,0,2.93-4.2A28,28,0,0,0,10,28.31c.23-.56-.58-1-.84-.47ZM37,22.48c-2.36,2.16-6.35,1.61-9.28,1.64l-9.46.08c-4.51,0-12.22.93-15.63-2.78a.54.54,0,0,0-.14-.68C-.55,18,3.06,11.53,7,12.52a.7.7,0,0,0,.86-.68c-.2-5.71,5.62-9.28,10.81-7.75A10.24,10.24,0,0,1,22.26,6c.84.67,1.48,1.79,2.68,1.74a8.94,8.94,0,0,1,3.38,0,6,6,0,0,1,3.29,2.44,4.57,4.57,0,0,0,2,2c1.48.65,2.75.73,3.77,2.15C38.92,16.46,39.07,20.6,37,22.48Z" transform="translate(0 -2.23)"/>
  </g>
</svg>
