<svg id="레이어_1" data-name="레이어 1" xmlns="http://www.w3.org/2000/svg" viewBox="0 0 40 40">
  <defs>
    <style>
      .cls-1 {
        stroke: #000;
        stroke-miterlimit: 10;
        stroke-width: 0.75px;
      }
    </style>
  </defs>
  <title>1</title>
  <path d="M20,40A20,20,0,1,1,40,20,20,20,0,0,1,20,40ZM20,3.66A16.34,16.34,0,1,0,36.34,20,16.36,16.36,0,0,0,20,3.66Z"/>
  <path class="cls-1" d="M24.2,21.23a3.38,3.38,0,0,1-.87,1,5.67,5.67,0,0,1-1.14.73,5.17,5.17,0,0,1-1.26.47,5.72,5.72,0,0,1-1.28.15,7.19,7.19,0,0,1-2.76-.5,5.48,5.48,0,0,1-2-1.45,6.2,6.2,0,0,1-1.25-2.26,9.77,9.77,0,0,1-.42-3,8.84,8.84,0,0,1,.49-3A7,7,0,0,1,15.09,11a6.33,6.33,0,0,1,2.19-1.55,7.24,7.24,0,0,1,2.85-.54,7.43,7.43,0,0,1,3.27.67,6,6,0,0,1,2.3,1.95,8.75,8.75,0,0,1,1.35,3.11,18.24,18.24,0,0,1,.43,4.17,19.74,19.74,0,0,1-.5,4.46,13.33,13.33,0,0,1-1.59,4,8.81,8.81,0,0,1-2.77,2.86,7.36,7.36,0,0,1-4.06,1.1A11,11,0,0,1,16.22,31a6.12,6.12,0,0,1-2.09-.89V27.29a.24.24,0,0,1,.12-.23.22.22,0,0,1,.27,0,6.17,6.17,0,0,0,2.06,1.09,6.94,6.94,0,0,0,1.9.28,4.66,4.66,0,0,0,2.24-.53,5.43,5.43,0,0,0,1.75-1.5,7.83,7.83,0,0,0,1.2-2.3,12.93,12.93,0,0,0,.59-2.91Zm-.22-5a5.85,5.85,0,0,0-.27-1.8A4.66,4.66,0,0,0,23,13a3.77,3.77,0,0,0-1.18-1,3.28,3.28,0,0,0-1.55-.36,3,3,0,0,0-1.6.4,3.54,3.54,0,0,0-1.11,1.07,5.11,5.11,0,0,0-.66,1.52,6.83,6.83,0,0,0-.23,1.75,7.92,7.92,0,0,0,.19,1.81,4.19,4.19,0,0,0,.6,1.45,3,3,0,0,0,1.07.95,3.4,3.4,0,0,0,1.57.34,3.4,3.4,0,0,0,2.82-1.34,4.81,4.81,0,0,0,.76-1.48A9.52,9.52,0,0,0,24,16.24Z"/>
</svg>
