<svg id="레이어_1" data-name="레이어 1" xmlns="http://www.w3.org/2000/svg" viewBox="0 0 24.85 39.8">
  <defs>
    <style>
      .cls-1 {
        fill: #bcceeb;
      }

      .cls-2 {
        fill: #379bdb;
      }

      .cls-3 {
        opacity: 0.1;
      }

      .cls-4 {
        fill: #cbdaf2;
      }

      .cls-5 {
        fill: #f7b07c;
      }

      .cls-6 {
        fill: #2b221c;
      }

      .cls-7 {
        fill: #ffcb9e;
      }

      .cls-8 {
        fill: #bf3c1b;
      }

      .cls-17, .cls-8, .cls-9 {
        opacity: 0.3;
      }

      .cls-9 {
        fill: #c94614;
      }

      .cls-10 {
        fill: #45362e;
      }

      .cls-11 {
        fill: #f7a286;
      }

      .cls-12 {
        fill: #8f3935;
      }

      .cls-13 {
        fill: #fff9f0;
      }

      .cls-14 {
        fill: #e8dac5;
      }

      .cls-15 {
        fill: #ffa073;
      }

      .cls-16 {
        fill: #261b18;
      }

      .cls-17 {
        fill: #b54d26;
      }

      .cls-18 {
        fill: #ffdfc2;
      }

      .cls-19 {
        fill: #e6d2c3;
        opacity: 0.7;
      }
    </style>
  </defs>
  <title>1</title>
  <g>
    <path class="cls-1" d="M14.86,32.63c-1.13,1.51-.93,4.45-.38,7.17H28.35c.5-2.54.74-5.3,0-7.07C26.84,29.32,17.6,29,14.86,32.63Z" transform="translate(-7.93)"/>
    <path class="cls-2" d="M21.25,34.06a1.78,1.78,0,0,0-1.48,1.35l1.07,1.09-.42,3.3h2.41l-.68-3.28,1-1.6A1.68,1.68,0,0,0,21.25,34.06Z" transform="translate(-7.93)"/>
    <path class="cls-3" d="M16.74,32.81a6.49,6.49,0,0,0,2.82,3.87l2-2.1,2.14,2c2-2,2.48-2.39,2.64-4.12S16.18,30.4,16.74,32.81Z" transform="translate(-7.93)"/>
    <path class="cls-4" d="M16.79,31c-1,2.8,2.62,5.08,2.62,5.08l2.16-1.48,2,1.39s4-2.28,2.48-5.54C24.7,27.49,18,27.73,16.79,31Z" transform="translate(-7.93)"/>
    <path class="cls-5" d="M20,27.64a3.1,3.1,0,0,0-2.29,2.85,2.44,2.44,0,0,0,.65,2.16,4.51,4.51,0,0,0,1.75,1c.49.15,1.34.73,1.49.73s.35-.24.81-.48a4.48,4.48,0,0,0,2-1.54c.54-1.07,1-3.19,0-4A5.92,5.92,0,0,0,20,27.64Z" transform="translate(-7.93)"/>
    <g>
      <path class="cls-6" d="M30.08,3.19C26.57-.57,20.74-1,14.16,1.81a12.91,12.91,0,0,0,3.42-.14C14.12,3.23,10,5.27,9.13,9.25c-1,4.54-.14,9.86,2.46,10.18,2.22.27,4.95-4.52,6.47-4.09,3.2.89,11.17-.12,13.39-3.36a6.79,6.79,0,0,0,.49-5.59A8.08,8.08,0,0,0,30.08,3.19Z" transform="translate(-7.93)"/>
      <path class="cls-7" d="M19.62,5.34c-5.41,1-9.22,8.62-8.23,15.74.75,5.33,5,11.18,11.31,10.74S32.4,23.53,31.57,17C30.66,9.84,27.2,3.89,19.62,5.34Z" transform="translate(-7.93)"/>
      <path class="cls-8" d="M26.75,6.63a25.4,25.4,0,0,0-6.44-1,14.41,14.41,0,0,0-5.85.64c-1,.43-2.21,1-2.58,2.05-.31.86-.67,2-.18,2.73,1,1.59,3.05.64,3.81.25,1.67-.84,9.21-.26,12.73-.27,1.46,0,3.57-.25,3-2.18C30.73,7.37,28.13,7,26.75,6.63Z" transform="translate(-7.93)"/>
      <path class="cls-7" d="M9.5,18.11c-2.65.71-1.59,4.5.58,5.26a5.44,5.44,0,0,0,2.15.23l0-.07c.32-.49-.13-3.25-.29-3.77C11.57,18.45,10.78,17.77,9.5,18.11Z" transform="translate(-7.93)"/>
      <path class="cls-9" d="M10.44,19.5c-.6-.26-2.09.22-1.39,1.36.37-1.06,1-.37.93.38-.07.51-.62.52-.07,1.16.29.35.9.22,1.2,0C12.08,21.84,11.16,19.83,10.44,19.5Z" transform="translate(-7.93)"/>
      <path class="cls-6" d="M28.12,3.3C24,1.21,17.75,1.75,14.32,4.24s-4.4,7.08-4.4,11.14a3.83,3.83,0,0,0,1.46,3.29c1.26,1.06,1.14-2.15,1.26-3.38.26-2.73,1.41-4.94,4.48-5,2.06-.08,10.09-.45,12,.19,1,.34,2.41.87,2.62-.74a5.93,5.93,0,0,0-1.49-4.86A7.93,7.93,0,0,0,28.12,3.3Z" transform="translate(-7.93)"/>
      <path class="cls-10" d="M29.06,4a10.31,10.31,0,0,0-5.8-2.72,11.66,11.66,0,0,0-4.32.38,14.3,14.3,0,0,1,1.55.62,24.24,24.24,0,0,0-4.38,1.39c-.43.2-4,2.57-4,2.57a4.71,4.71,0,0,0,3.23.09,11.46,11.46,0,0,1,4.91-.13c1.53.34,2.9,1.09,4.42,1.43,0-.67-.61-1.25-.9-1.7.87,0,4.19,2,4.88,2.58A24,24,0,0,1,27.59,6.1c.84.12,2.77,1.79,3.35,2.76a6.89,6.89,0,0,0-.23-2.42A5.65,5.65,0,0,0,29.06,4Z" transform="translate(-7.93)"/>
    </g>
    <g>
      <g>
        <path class="cls-11" d="M27.31,23.21c-1.17.12-2.47.16-4.12.24a46.41,46.41,0,0,1-5.22.22c-1.23-.08-1.74.06-.93,1,2.34,2.7,3.86,2.93,5.85,3,2.88.09,4-1.2,4.39-2.48a4,4,0,0,1,.83-1.11C29,23.16,29,23.05,27.31,23.21Z" transform="translate(-7.93)"/>
        <path class="cls-12" d="M17.27,23.92a6.73,6.73,0,0,0,5.4,2.72c2.29,0,3.79-.71,4.2-1.66a2.83,2.83,0,0,1,1.41-1.43A26.61,26.61,0,0,1,17.27,23.92Z" transform="translate(-7.93)"/>
        <path class="cls-13" d="M18.6,24.14s.13.83,1.41,1.13a13.58,13.58,0,0,0,5.21.07A2.71,2.71,0,0,0,27,23.82,28.39,28.39,0,0,1,18.6,24.14Z" transform="translate(-7.93)"/>
        <path class="cls-13" d="M23.56,25.49a8,8,0,0,1-3.83-.41c-.59-.32-.63,0-.5.26,0,0,.55,1.13,3.27,1.34s3.94-1.22,3.63-1.45S25.07,25.41,23.56,25.49Z" transform="translate(-7.93)"/>
        <path class="cls-14" d="M18.6,24.14a1.29,1.29,0,0,0,.34.58s6.11-.59,7.58-.16a2.55,2.55,0,0,0,.49-.74A33.21,33.21,0,0,1,18.6,24.14Z" transform="translate(-7.93)"/>
        <path class="cls-14" d="M20.22,25.24a6.66,6.66,0,0,0,4.83.07A10,10,0,0,1,20.22,25.24Z" transform="translate(-7.93)"/>
      </g>
      <path class="cls-15" d="M30.56,20.08a2.42,2.42,0,0,0-2-.74c-.85,0-2,.27-1.24,1.45.4.64,3.78,1.13,3.39-.32A1.17,1.17,0,0,0,30.56,20.08Z" transform="translate(-7.93)"/>
      <path class="cls-15" d="M17.9,19.91a2.64,2.64,0,0,0-2.21-.25c-.86.2-1.93.78-.86,1.8.57.54,4.14.19,3.36-1.19A1.48,1.48,0,0,0,17.9,19.91Z" transform="translate(-7.93)"/>
      <path class="cls-16" d="M16.61,16.42c-1.4-.59-2.27,1.83-1.32,2.62a2.05,2.05,0,0,1,1.38.11A1.63,1.63,0,0,0,16.61,16.42Z" transform="translate(-7.93)"/>
      <path class="cls-17" d="M23.23,20.76c-.81,0-1.13-.35-1.7,0s.24,1.39,1.68,1.34,2.06-1,1.76-1.37S24.14,20.75,23.23,20.76Z" transform="translate(-7.93)"/>
      <path class="cls-18" d="M23,17.78c-1.53-.13-1.65,3-1.3,3.29a3,3,0,0,0,3.18-.34C25.1,20.52,24.48,17.9,23,17.78Z" transform="translate(-7.93)"/>
      <path class="cls-16" d="M30,16.33c-1.42-.83-2.46,1.84-1.29,2.59a1.9,1.9,0,0,1,1.48,0A1.94,1.94,0,0,0,30,16.33Z" transform="translate(-7.93)"/>
      <path class="cls-19" d="M15.94,17c-.57.19-.14,1.26.41.87C16.75,17.6,16.44,16.85,15.94,17Z" transform="translate(-7.93)"/>
      <path class="cls-19" d="M29.3,16.79c-.56.11-.29,1.18.28.88S29.8,16.69,29.3,16.79Z" transform="translate(-7.93)"/>
      <path class="cls-6" d="M17.87,14a8.49,8.49,0,0,0-3.31.37c-1.41.52-1,1.3-.81,1.51s.19-.37,1.81-.77,3.06.07,3.22-.33S18.36,14,17.87,14Z" transform="translate(-7.93)"/>
      <path class="cls-6" d="M30.43,13.87a7.63,7.63,0,0,0-3.33,0c-.5.1-1.1.43-.85,1s1.73-.24,3.24,0,1.74.88,1.87.63S31.87,14.28,30.43,13.87Z" transform="translate(-7.93)"/>
    </g>
    <path class="cls-1" d="M10.36,39.8H14.8s.21-4.71,1.8-5.47l-.23-3C11.94,32.34,10.57,36,10.36,39.8Z" transform="translate(-7.93)"/>
    <path class="cls-1" d="M26.77,31.31l-.23,3c1.59.76,1.81,5.47,1.81,5.47h4.43C32.57,36,31.2,32.34,26.77,31.31Z" transform="translate(-7.93)"/>
  </g>
</svg>
