<svg xmlns="http://www.w3.org/2000/svg" xmlns:xlink="http://www.w3.org/1999/xlink" viewBox="0 0 29.27 40.16">
  <defs>
    <style>
      .cls-1 {
        isolation: isolate;
      }

      .cls-2 {
        fill: #1e1e29;
      }

      .cls-21, .cls-22, .cls-3 {
        fill: #fff;
      }

      .cls-4 {
        fill: #3e3e4f;
      }

      .cls-5 {
        fill: #fff9f0;
      }

      .cls-6 {
        fill: url(#linear-gradient);
      }

      .cls-7 {
        fill: #f7d57c;
      }

      .cls-8 {
        fill: #ffedbf;
      }

      .cls-9 {
        fill: #ebbb5c;
      }

      .cls-10 {
        fill: #ffc59a;
      }

      .cls-11 {
        fill: #bf3c1b;
        opacity: 0.15;
      }

      .cls-12 {
        fill: #1e4c76;
      }

      .cls-13 {
        fill: #9cd0ff;
      }

      .cls-14 {
        fill: #ffb085;
      }

      .cls-15 {
        fill: #d95f46;
        opacity: 0.6;
      }

      .cls-16 {
        fill: #8f302b;
      }

      .cls-17 {
        fill: #e8dac5;
      }

      .cls-18 {
        fill: #121b21;
      }

      .cls-19 {
        fill: #cf904b;
      }

      .cls-20 {
        fill: #f5f5f5;
      }

      .cls-21 {
        opacity: 0.3;
      }

      .cls-22 {
        opacity: 0.7;
      }

      .cls-23 {
        fill: #a09d98;
        opacity: 0.2;
        mix-blend-mode: multiply;
      }
    </style>
    <linearGradient id="linear-gradient" x1="21.19" y1="28.78" x2="21.19" y2="32.33" gradientUnits="userSpaceOnUse">
      <stop offset="0" stop-color="#ee966a"/>
      <stop offset="1" stop-color="#ffc295"/>
    </linearGradient>
  </defs>
  <title>1</title>
  <g class="cls-1">
    <g id="레이어_1" data-name="레이어 1">
      <g>
        <path class="cls-2" d="M17.54,33.52l-1.07-2c-1.45.71-1.82,2.34-2.21,4.06-.17.73-.74,3.09-1.2,4.62h2.47c.38-1.43.89-3.56,1-4.13C16.81,34.91,17.08,33.74,17.54,33.52Z" transform="translate(-4.85)"/>
        <path class="cls-2" d="M26.26,31.48l-1.07,2c.46.22.72,1.39,1,2.51.13.57.64,2.7,1,4.13h2.47c-.46-1.53-1-3.89-1.19-4.62C28.07,33.82,27.7,32.19,26.26,31.48Z" transform="translate(-4.85)"/>
        <path class="cls-3" d="M25.74,32.05c-1.29-3.24-6.51-2.62-8.33-1s-1.44,4.39.64,6.45a26.22,26.22,0,0,1,2.39,2.71h2.19C24.13,37.91,26.49,33.91,25.74,32.05Z" transform="translate(-4.85)"/>
        <path class="cls-2" d="M26.21,36.75a4.29,4.29,0,0,0,.36-3.4c-.47-2.33-1-1.08-1.25-.41a22,22,0,0,1-3.72,6.5S18,35.78,17,33c-.21-.67,0-1.67-.59-.4-1,2.2-.19,3.12.27,4.9A8.69,8.69,0,0,1,17,40.16h8.54A8,8,0,0,1,26.21,36.75Z" transform="translate(-4.85)"/>
        <path class="cls-4" d="M24.72,30.48a2.61,2.61,0,0,0-.32-.06,2,2,0,0,1,.54,1.71,20.65,20.65,0,0,1-3.34,7.31s3.85-3,5.68-4.77c.35-.33-.31-.73-.66-1a3.91,3.91,0,0,0-.78-.42c.12-.3,1.43-.91,1.79-1.35S25.63,30.72,24.72,30.48Z" transform="translate(-4.85)"/>
        <path class="cls-5" d="M25.59,30.2a.33.33,0,0,0-.35.32.32.32,0,0,0,.33.33.33.33,0,0,0,.35-.32A.32.32,0,0,0,25.59,30.2Z" transform="translate(-4.85)"/>
        <path class="cls-4" d="M17.93,30.6c-.13,0-3.65.76-3.1,1.42.36.44,1.67,1,1.8,1.35a4,4,0,0,0-.79.42c-.35.25-1,.65-.66,1a60.06,60.06,0,0,0,6.42,4.67,26.34,26.34,0,0,1-3.32-5.24C17.77,33.12,17,31.69,17.93,30.6Z" transform="translate(-4.85)"/>
        <path class="cls-5" d="M19.36,30.25a.33.33,0,0,0-.35.32.34.34,0,0,0,.34.33.34.34,0,0,0,.35-.32A.34.34,0,0,0,19.36,30.25Z" transform="translate(-4.85)"/>
        <path class="cls-6" d="M24,30.39c-1.39-.77.12-4.29-1-5.17a3.46,3.46,0,0,0-3.21-.34c-1.92.78,0,5.06-1.87,5.83-.37.15-.45.58.27,1.71a28.52,28.52,0,0,0,3.18,4.15,19.62,19.62,0,0,0,3.14-4.41C25,30.87,24.69,30.78,24,30.39Z" transform="translate(-4.85)"/>
        <g>
          <path class="cls-7" d="M11.26,9.62c-7.12,1-8,9.43-4.22,13.4,2.93,3.1,2.6,5.18.25,5.36,1.37,1.45,10.65,4.82,12.5-6.49S14.67,9.17,11.26,9.62Z" transform="translate(-4.85)"/>
          <path class="cls-8" d="M10.09,11.32c-1.83-.17-4.87,1.91-4.74,6.28A11.83,11.83,0,0,0,6.6,21.9s-1.57-6.4,4.85-7C18.51,14.14,10.09,11.32,10.09,11.32Z" transform="translate(-4.85)"/>
          <path class="cls-9" d="M15.66,16.4c-1.41,1-5.1-.15-2.89,6.6,1.56,4.77-.42,6.48-4.22,5.92A8.88,8.88,0,0,0,19.1,26C24.23,19.85,22,11.93,15.66,16.4Z" transform="translate(-4.85)"/>
          <path class="cls-9" d="M11.7,15.08c-1.36-.13-2.5.86-2.1,4A3,3,0,0,0,13,21.75S13.06,15.22,11.7,15.08Z" transform="translate(-4.85)"/>
          <path class="cls-7" d="M21,0C4.91.24,7.55,21.44,14.52,20.76c3.57-.35,2.72-4.4,6.21-5.17A18.05,18.05,0,0,1,26,15.35c1.69.12,4.65,4.75,5.47,3.72C33.4,16.62,35.1-.21,21,0Z" transform="translate(-4.85)"/>
          <path class="cls-10" d="M21.7,4.64c-7.44.23-9.89,5.19-9.7,12.6s5.46,12.3,11,12.63c4.22.25,9.55-6.38,9.12-13.79S28.86,4.42,21.7,4.64Z" transform="translate(-4.85)"/>
          <path class="cls-11" d="M21.78,7.7c-.65.17.16,1.28.16,1.28.14-.76.57-.65,1-.24C23,8.74,22.42,7.54,21.78,7.7Z" transform="translate(-4.85)"/>
          <path class="cls-11" d="M23.84,7.21c-1.28,0-.88,1.54-.88,1.54.27-.84,1.33-1,2.3-.2A1.48,1.48,0,0,0,23.84,7.21Z" transform="translate(-4.85)"/>
          <path class="cls-11" d="M15.71,6C10,8.13,13.14,18.84,13.14,18.84,11.25,3.77,20.72,8.4,21.94,9,20.9,7.33,19.71,4.44,15.71,6Z" transform="translate(-4.85)"/>
          <path class="cls-11" d="M27.21,4.72c-1.46.1-2,2.82-1.95,3.83,1.41-1.86,4.58-1.39,6,2.53C31.34,9.51,29.23,4.58,27.21,4.72Z" transform="translate(-4.85)"/>
          <path class="cls-12" d="M17.32,14.9c-1.62-.47-2.22,2.43-1.06,3.19A2.21,2.21,0,0,1,17.8,18,1.92,1.92,0,0,0,17.32,14.9Z" transform="translate(-4.85)"/>
          <path class="cls-13" d="M17,15.66c-.65.15-.31,1.44.35,1.06C17.83,16.45,17.58,15.54,17,15.66Z" transform="translate(-4.85)"/>
          <path class="cls-10" d="M10.78,15.07c-2,.89-1.22,5,.45,5.77a2.88,2.88,0,0,0,1.66.17.25.25,0,0,1,0-.07,13.81,13.81,0,0,0-.33-3.88C12.29,15.63,11.76,14.64,10.78,15.07Z" transform="translate(-4.85)"/>
          <path class="cls-11" d="M11.44,16.45c-.42-.22-1.3.44-.7,1.57.09-1.15.6-.49.64.31,0,.53-.32.6.11,1.22.24.33.61.14.78-.09C12.8,18.73,11.94,16.72,11.44,16.45Z" transform="translate(-4.85)"/>
          <path class="cls-7" d="M19.29,1C11.83,2.38,8.11,13.26,14,22c-1-2.89-2-10.81-.08-13.28s5.94-1.31,8.06.26a4.2,4.2,0,0,1,.17-1,8.41,8.41,0,0,1,.85.71c.26-1.27,1.58-1,2.3-.19.75-2.8,5-3,6.42,4.22.15.8.13-3.13,0-3.95A10.68,10.68,0,0,0,19.29,1Z" transform="translate(-4.85)"/>
          <path class="cls-14" d="M29.59,19.06c-.74,0-1.78.23-1.27,1.39.27.62,3.19,1.16,3-.25a1.12,1.12,0,0,0-.11-.39A1.86,1.86,0,0,0,29.59,19.06Z" transform="translate(-4.85)"/>
          <path class="cls-14" d="M17.93,19.65a2,2,0,0,0-1.95-.5c-.83.13-1.92.64-1.15,1.85.41.64,3.71.63,3.29-.93A1.48,1.48,0,0,0,17.93,19.65Z" transform="translate(-4.85)"/>
          <g>
            <path class="cls-15" d="M23.43,22.4c-2.3,0-5.22.26-7-.67,2.15,4.26,4.23,4.95,6.58,5.1,3,.2,4.14-1.32,4.61-2.67.2-.57,1.49-2.1,2.05-2.17C27.85,22.57,26.21,22.35,23.43,22.4Z" transform="translate(-4.85)"/>
            <path class="cls-16" d="M17.37,22.46a6.88,6.88,0,0,0,5.45,3.1c2.35.07,3.91-.61,4.37-1.61a3,3,0,0,1,1.5-1.48A26.16,26.16,0,0,1,17.37,22.46Z" transform="translate(-4.85)"/>
            <path class="cls-5" d="M18.73,22.74s.1.67,1.4,1a13.43,13.43,0,0,0,5.35.28,2.77,2.77,0,0,0,1.9-1.33A28.16,28.16,0,0,1,18.73,22.74Z" transform="translate(-4.85)"/>
            <path class="cls-5" d="M23.78,24.53a7.8,7.8,0,0,1-3.92-.74c-.6-.36-.66,0-.53.25,0,0,.52,1.24,3.31,1.56s4.09-1.15,3.79-1.41S25.34,24.49,23.78,24.53Z" transform="translate(-4.85)"/>
            <path class="cls-17" d="M18.73,22.74a.93.93,0,0,0,.45.6s6.11-.43,7.61.09a2.33,2.33,0,0,0,.59-.71A32.37,32.37,0,0,1,18.73,22.74Z" transform="translate(-4.85)"/>
            <path class="cls-17" d="M20.42,24.06a6.61,6.61,0,0,0,5,.26A9.83,9.83,0,0,1,20.42,24.06Z" transform="translate(-4.85)"/>
          </g>
          <path class="cls-11" d="M23.63,19.46c-.58,0-.81-.26-1.21-.05s.46,1,1.18,1,1.48-.67,1.27-.91S24.28,19.47,23.63,19.46Z" transform="translate(-4.85)"/>
          <path class="cls-12" d="M30.09,15c-1.5-1-3.22,2.2-1.5,2.83A2.08,2.08,0,0,1,30,17.76C30.68,17.09,30.89,15.58,30.09,15Z" transform="translate(-4.85)"/>
          <path class="cls-13" d="M29.27,15.45c-.63,0-.66,1.23,0,1.06C29.82,16.38,29.83,15.48,29.27,15.45Z" transform="translate(-4.85)"/>
          <path class="cls-18" d="M30.14,14.94a1.53,1.53,0,0,0-2,.9,1.45,1.45,0,0,1,1.72-.15,3.25,3.25,0,0,0,3.72.08C31.72,16.16,30.9,15.28,30.14,14.94Z" transform="translate(-4.85)"/>
          <path class="cls-18" d="M16.27,15.05a4.81,4.81,0,0,1-3.68.9,3.38,3.38,0,0,0,3.89-.13,1.54,1.54,0,0,1,1.77,0A1.29,1.29,0,0,0,16.27,15.05Z" transform="translate(-4.85)"/>
          <path class="cls-8" d="M28.44,2.4c-6.53,5.83-14.76.32-14.76.32C10.54,4.51,9.74,8.84,9.74,8.84a2.39,2.39,0,0,0,3-1c1.42-1.86,3.7-2,6.28-1.54S24,6,26.93,5.64s4.93,3,4.93,3A11,11,0,0,0,28.44,2.4Z" transform="translate(-4.85)"/>
          <path class="cls-5" d="M11.92,20.87a.79.79,0,1,0,.77.83A.8.8,0,0,0,11.92,20.87Z" transform="translate(-4.85)"/>
          <path class="cls-19" d="M29.29,11.55c-1.69-.1-1.7,1.91-1.7,1.91a1.67,1.67,0,0,1,1.74-1.08c1.38.09,2.12,1.76,2.12,1.76S31,11.65,29.29,11.55Z" transform="translate(-4.85)"/>
          <path class="cls-19" d="M16.94,11.73C15,12,14.62,14.5,14.62,14.5A3.35,3.35,0,0,1,17,12.56,1.88,1.88,0,0,1,19,13.5,1.84,1.84,0,0,0,16.94,11.73Z" transform="translate(-4.85)"/>
        </g>
        <g>
          <path class="cls-20" d="M12.05,15.54c-1.57.09,1,3.05,1.89,3.67,1.25.82,5.75.73,7-.15a1.86,1.86,0,0,0,.07-3C19.54,14.85,13.7,15.44,12.05,15.54Zm8.36,3.33c-1.09.6-4.83.61-5.84.17-1.18-.51-2.9-2.81-1.55-2.95s5.79-.85,7.61.37A1.38,1.38,0,0,1,20.41,18.87Z" transform="translate(-4.85)"/>
          <path class="cls-20" d="M21.22,16.37c-.11.07-.12.47.29.61.1,0,2.17-.63,3.71.11.21.1.78,0,.54-.46C25.34,15.91,22.19,15.76,21.22,16.37Z" transform="translate(-4.85)"/>
          <path class="cls-20" d="M33.7,15.12c-1.51,0-6.41-.39-7.76.75a2,2,0,0,0,0,3.14c1.19.88,4.92.93,6.21.07C33.09,18.45,35,15.12,33.7,15.12Zm-2.18,3.81a8.26,8.26,0,0,1-5.06-.12,1.42,1.42,0,0,1-.05-2.45c1.87-1.26,5.37-.68,6.61-.63C33.92,15.77,32.72,18.39,31.52,18.93Z" transform="translate(-4.85)"/>
          <path class="cls-21" d="M13.42,16.34c-.84.33.62.89.94,1a14.64,14.64,0,0,0,4.24.08c.63-.09,2-.62,1.63-1C19.72,15.82,14.35,16,13.42,16.34Z" transform="translate(-4.85)"/>
          <path class="cls-3" d="M17.91,16.33c-.44,0-.74.17-.63.39.22.44,2.84.36,3,.05S18.87,16.22,17.91,16.33Z" transform="translate(-4.85)"/>
          <path class="cls-22" d="M14.56,18.24c-.3,0-.51,0-.47.23.08.4,1.8.77,2,.53S15.19,18.31,14.56,18.24Z" transform="translate(-4.85)"/>
          <path class="cls-21" d="M26.85,16.34c-.83.36.65.88,1,.94a10.4,10.4,0,0,0,3.56,0c.62-.1,2-.67,1.59-1.06S27.76,16,26.85,16.34Z" transform="translate(-4.85)"/>
          <path class="cls-3" d="M30.65,16.22c-.45.06-.74.19-.62.41.23.44,2.84.28,3,0S31.6,16.09,30.65,16.22Z" transform="translate(-4.85)"/>
          <path class="cls-22" d="M27.32,18.22c-.3,0-.51,0-.46.25.09.4,1.81.71,2,.47S28,18.27,27.32,18.22Z" transform="translate(-4.85)"/>
        </g>
        <path class="cls-5" d="M25.82,30.44a.33.33,0,1,0,0,.65.33.33,0,0,0,.35-.32A.32.32,0,0,0,25.82,30.44Z" transform="translate(-4.85)"/>
        <path class="cls-5" d="M19.07,30.62a.33.33,0,0,0-.35.32.35.35,0,1,0,.35-.32Z" transform="translate(-4.85)"/>
        <path class="cls-5" d="M19.78,31.23a.4.4,0,1,0,.43.37A.4.4,0,0,0,19.78,31.23Z" transform="translate(-4.85)"/>
        <path class="cls-5" d="M19.47,31.82a.39.39,0,0,0-.38.42.4.4,0,0,0,.42.38.39.39,0,0,0,.38-.42A.4.4,0,0,0,19.47,31.82Z" transform="translate(-4.85)"/>
        <path class="cls-5" d="M20.68,32.21a.4.4,0,1,0,.43.37A.4.4,0,0,0,20.68,32.21Z" transform="translate(-4.85)"/>
        <path class="cls-5" d="M21.89,32.24a.4.4,0,1,0,.05.8.4.4,0,1,0-.05-.8Z" transform="translate(-4.85)"/>
        <path class="cls-5" d="M25.32,31.06a.4.4,0,0,0-.38.42.39.39,0,0,0,.42.37.4.4,0,0,0,.39-.42A.41.41,0,0,0,25.32,31.06Z" transform="translate(-4.85)"/>
        <path class="cls-5" d="M23.1,31.78a.4.4,0,0,0-.38.42.4.4,0,0,0,.43.37.4.4,0,1,0,0-.79Z" transform="translate(-4.85)"/>
        <path class="cls-23" d="M19,37.59a18,18,0,0,1,2.38-.5,14.88,14.88,0,0,1,2.24.41,10,10,0,0,0-2.25-.75A14.48,14.48,0,0,0,19,37.59Z" transform="translate(-4.85)"/>
        <path class="cls-3" d="M22.11,36.91,24.88,38a37.64,37.64,0,0,0,.1-6.35Z" transform="translate(-4.85)"/>
        <path class="cls-3" d="M17.77,38.06,20.53,37l-3-5.33A31.67,31.67,0,0,0,17.77,38.06Z" transform="translate(-4.85)"/>
      </g>
    </g>
  </g>
</svg>
