<svg id="레이어_1" data-name="레이어 1" xmlns="http://www.w3.org/2000/svg" viewBox="0 0 40 36.65">
  <defs>
    <style>
      .cls-1 {
        fill: #86bcb6;
      }

      .cls-1, .cls-2 {
        fill-rule: evenodd;
      }
    </style>
  </defs>
  <title>1</title>
  <g>
    <path class="cls-1" d="M6,11.06,3,12.9.32,16.68v3.37l2.12,3.36L7.61,24.8l9.83.62a67,67,0,0,1,8.86-.78c2.6,0,6.09-.63,5.82,0-.08.19,4.77-1.43,4.77-1.43l2.77-4-.87-3.71L37.22,12.9l-3.28-1.24-1.1-.76-2-2.67L27.46,6.94l-3.08-.13-4.5-3.66L14.29,2.8,10.78,4.25,8,6.85,6.71,10Z" transform="translate(0 -1.67)"/>
    <path class="cls-1" d="M5.2,23.88c-1-3.13-2.25-6.16-3.15-9.33a.41.41,0,0,0-.78.24,57.15,57.15,0,0,0,3.12,9.45C4.6,24.7,5.35,24.35,5.2,23.88Z" transform="translate(0 -1.67)"/>
    <path class="cls-1" d="M8,20.94q-1.81-4.35-3.62-8.69c-.23-.53-1.1-.28-.88.27l2.61,6.42c.37.91.75,1.83,1.12,2.75s1.4,2.44,1.09,3.42a.44.44,0,0,0,.74.4C10.08,24.21,8.54,22.23,8,20.94Z" transform="translate(0 -1.67)"/>
    <path class="cls-1" d="M8,9.42c-.11-.56-.93-.29-.84.25.91,5.25,3.3,10.14,4.62,15.3.13.52,1,.4,1-.16C12.08,19.47,9,14.71,8,9.42Z" transform="translate(0 -1.67)"/>
    <path class="cls-1" d="M17.07,24.66c-2.16-6.56-4.55-13-6.82-19.58a.37.37,0,0,0-.7.21C11.71,11.85,13.75,18.46,16,25,16.25,25.64,17.29,25.34,17.07,24.66Z" transform="translate(0 -1.67)"/>
    <path class="cls-1" d="M20.51,24A97.3,97.3,0,0,0,17,13.71L13.3,3.48c-.19-.54-1-.29-.86.26,2.31,6.8,4.11,14.16,7.16,20.65C19.86,24.93,20.64,24.51,20.51,24Z" transform="translate(0 -1.67)"/>
    <path class="cls-1" d="M28.27,24.33A177.11,177.11,0,0,0,21.49,3.86c-.19-.49-1-.26-.78.23A180.44,180.44,0,0,1,27.2,24.66C27.37,25.36,28.46,25,28.27,24.33Z" transform="translate(0 -1.67)"/>
    <path class="cls-1" d="M34.57,23.29C33.42,18,31.87,12.77,30.5,7.52c-.14-.55-1-.29-.84.26C31,13,32.09,18.38,33.6,23.58,33.78,24.22,34.71,23.92,34.57,23.29Z" transform="translate(0 -1.67)"/>
    <path class="cls-1" d="M34.42,12.08c-.19-.54-1.05-.29-.87.27a109.47,109.47,0,0,1,2.76,10.87c.12.51,1,.39.92-.15A50.4,50.4,0,0,0,34.42,12.08Z" transform="translate(0 -1.67)"/>
    <path class="cls-1" d="M37.05,12.79a.45.45,0,0,0-.86.26,75.88,75.88,0,0,0,2.27,7.33c.17.4.91.39.84-.13A42.69,42.69,0,0,0,37.05,12.79Z" transform="translate(0 -1.67)"/>
    <path class="cls-2" d="M14,34.93A23.23,23.23,0,0,1,10,32.48,38.47,38.47,0,0,0,13.71,30c.55-.43,0-1.37-.57-.94a33,33,0,0,1-4,2.6c0-1.52,0-3,.12-4.57,0-.64-1-.61-1,0-.08,1.36-.17,2.74-.21,4.12-1.21-.73-2.44-1.41-3.7-2-.58-.29-1.07.59-.49.89q2,1.08,4,2.3c-1.39.77-2.79,1.52-4.12,2.36a.55.55,0,0,0,.57.93l3.67-2c0,1.41,0,2.82.15,4.21a.49.49,0,0,0,1,0c0-1.56,0-3.12,0-4.67a26.7,26.7,0,0,0,4.31,2.68c.62.27,1.14-.66.51-.92ZM36.39,11.6c-.81-.33-2.15-.27-2.71-.95s-.67-1.38-1.15-2a8.21,8.21,0,0,0-3.81-2.59,7.47,7.47,0,0,0-2.3-.36,3.6,3.6,0,0,1-1.9-.15,12,12,0,0,1-1.05-1.08A11,11,0,0,0,18.87,2a10.34,10.34,0,0,0-9.61,2.4,10.18,10.18,0,0,0-2.67,4,3.83,3.83,0,0,1-.83,1.73,3.65,3.65,0,0,1-1.14.63,8.3,8.3,0,0,0-2.07,1.4,7.76,7.76,0,0,0-1.81,9c2,4.22,6.38,4.61,10.52,4.48,4.5-.14,9-.23,13.49-.54,2.36.06,4.71.17,7.07.1,3.7-.12,6.73-1.56,7.83-5.32.94-3.21,0-7-3.26-8.34Zm.24,11c-1.73,1.52-4.3,1.45-6.47,1.49-.73,0-1.47,0-2.2,0-4-.15-8,0-12,.09-2,.06-4,.15-6,.18a10.73,10.73,0,0,1-5.54-1A6.42,6.42,0,0,1,2.4,14.35c1-1.55,2.35-1.95,3.84-2.84,1.24-.73,1.31-2.18,1.87-3.38A9.07,9.07,0,0,1,16.18,3a9.61,9.61,0,0,1,5,1.41A9.51,9.51,0,0,1,23,5.87a3.21,3.21,0,0,0,1.67,1.19c.83.15,1.7-.11,2.54,0a6.62,6.62,0,0,1,2.09.66c1.66.85,2.37,2.14,3.27,3.68.66,1.14,1.86.87,3,1.26a4.69,4.69,0,0,1,3.15,4.46,7,7,0,0,1-2.12,5.49ZM25.42,31.77c.69-.07.71,1,0,1.09-1.4.16-2.82.26-4.24.31.69,1.18,1.37,2.37,2,3.57a.5.5,0,0,1-.85.52c-.86-1.32-1.67-2.67-2.46-4-.78,1.37-1.55,2.76-2.42,4.07a.52.52,0,0,1-.9-.51c.6-1.2,1.3-2.37,2-3.53l-4,0a.55.55,0,0,1,0-1.09c1.56-.07,3.13-.08,4.69-.1L17,28.14a.51.51,0,0,1,.87-.53l2,3.39a19,19,0,0,1,2.36-3.5c.47-.51,1.25.23.78.74a20.35,20.35,0,0,0-2.48,3.82c1.62,0,3.24-.11,4.85-.29Zm10.51,3c-1.36-.8-2.73-1.57-4.09-2.37a24.05,24.05,0,0,0,4.25-2.33c.48-.38,0-1.21-.51-.83a20.35,20.35,0,0,1-3.89,2.12c0-1.43,0-2.86,0-4.28a.55.55,0,0,0-1.1,0c0,1.5,0,3-.07,4.5l-1-.57a8.86,8.86,0,0,1-2.62-1.78c-.41-.56-1.34,0-.92.56a10.87,10.87,0,0,0,3.73,2.63A30.92,30.92,0,0,0,26,35a.51.51,0,0,0,.54.87c1.37-.76,2.62-1.75,3.94-2.6,0,1.51,0,3,.05,4.53a.54.54,0,0,0,1.07,0c.08-1.36.12-2.72.12-4.09,1.23.72,2.45,1.44,3.71,2.08A.54.54,0,0,0,35.93,34.81Z" transform="translate(0 -1.67)"/>
  </g>
</svg>
