<svg id="레이어_1" data-name="레이어 1" xmlns="http://www.w3.org/2000/svg" xmlns:xlink="http://www.w3.org/1999/xlink" viewBox="0 0 25.81 40">
  <defs>
    <style>
      .cls-1 {
        fill: #ffb06b;
      }

      .cls-2 {
        fill: url(#linear-gradient);
      }

      .cls-3 {
        fill: #e8e8e8;
      }

      .cls-4 {
        opacity: 0.1;
      }

      .cls-5 {
        fill: #f5f5f5;
      }

      .cls-6 {
        fill: #3d2518;
      }

      .cls-7 {
        fill: #bc551e;
      }

      .cls-7, .cls-8 {
        opacity: 0.3;
      }

      .cls-8 {
        fill: #bf3c1b;
      }

      .cls-9 {
        fill: #82572e;
      }

      .cls-10 {
        fill: #f58a53;
      }

      .cls-11 {
        fill: #202930;
      }

      .cls-12 {
        fill: #c3cee6;
        opacity: 0.7;
      }

      .cls-13 {
        fill: #de6049;
      }

      .cls-14 {
        fill: #8f2a25;
      }

      .cls-15 {
        fill: #fff7ea;
      }

      .cls-16 {
        fill: #ecdcc4;
      }

      .cls-17 {
        fill: #2b221c;
      }

      .cls-18 {
        fill: #121b21;
      }
    </style>
    <linearGradient id="linear-gradient" x1="20.87" y1="30.53" x2="20.81" y2="33.05" gradientUnits="userSpaceOnUse">
      <stop offset="0" stop-color="#e88958"/>
      <stop offset="0.34" stop-color="#f49d62"/>
      <stop offset="0.69" stop-color="#fcab69"/>
      <stop offset="1" stop-color="#ffb06b"/>
    </linearGradient>
  </defs>
  <title>1</title>
  <g>
    <g>
      <path class="cls-1" d="M17.42,31.93c-3,1.24-3.68,3.74-3.87,8.07h2.18c.19-1.71,0-4.57,1.69-5.15.55-.2,1.42-1.81,1.12-2.35S18,31.71,17.42,31.93Z" transform="translate(-7.09)"/>
      <path class="cls-1" d="M24.15,31.93c-.55-.22-.83,0-1.12.57s.57,2.15,1.13,2.35c1.67.58,1.49,3.44,1.68,5.15H28C27.83,35.67,27.15,33.17,24.15,31.93Z" transform="translate(-7.09)"/>
      <path class="cls-2" d="M23,31.37c-1.4-.61-.45-2.29-2.29-2.29s-1,1.89-2.3,2.39c-3,1.16-3,2.94-1.22,4.75A5.3,5.3,0,0,0,24.63,36C27.11,33.79,24.39,32,23,31.37Z" transform="translate(-7.09)"/>
      <path class="cls-3" d="M23,31.29c.26,1.13.64,3.89-2.18,3.89s-2.58-2.28-2.38-3.81a1,1,0,0,0-.62.28c-.8,2.44-2.13,3.13-.9,6.07A8.78,8.78,0,0,1,17.36,40H24a8,8,0,0,1,.59-2.36c1.28-2.89-.07-4.42-.74-6A2.94,2.94,0,0,0,23,31.29Z" transform="translate(-7.09)"/>
      <path class="cls-4" d="M18.13,38.12c.29.49,1.15.48,1.84.61-.12,0-.24.06-.36.08a5.68,5.68,0,0,0,2.77-.19c.26-.07,1-.51,1.1-.53a20.72,20.72,0,0,1-2.84.17C19.79,38.25,19,38.14,18.13,38.12Z" transform="translate(-7.09)"/>
      <path class="cls-5" d="M22.64,35.19a8.39,8.39,0,0,1-4.5,0c-.82-.2-1.28.7-1,1.46.33,1,2,1.27,3.51,1.24,2.92-.05,4-1.1,3.53-2.34C24,35.16,23.38,34.93,22.64,35.19Z" transform="translate(-7.09)"/>
    </g>
    <g>
      <path class="cls-6" d="M31.17,7.94a4.3,4.3,0,0,0,1.41.31c-.18-.43-2-4.89-5.95-5.56A5.17,5.17,0,0,1,28.9,2.1c-1.21-.69-4.13-1.95-7-.85A8.42,8.42,0,0,0,18.73,0c.19.28,1.06.9,1.08,1.23-1.92-.69-3.62-.33-5.6.2A5.78,5.78,0,0,0,11.28,3.2a1.23,1.23,0,0,1,1.16.24c-1.82.61-4,2.2-4.59,4.08.47-.07.94-.3,1.43-.35-.42,0-1,1.17-1.19,1.5a6.7,6.7,0,0,0-.63,1.86,10.17,10.17,0,0,0-.27,3.84,8.89,8.89,0,0,1,1-1C7.3,15.27,8,17,8.73,18.77A24.53,24.53,0,0,0,10,21.13c.34.58.52,1.27.91,1.83,1.2,1.77,2.45,1,4.15.64a21.93,21.93,0,0,1,4-.59,16.91,16.91,0,0,1,4.55.17c1.42.32,3,.94,4.42.35,2.71-1.12,2.65-4.64,2.74-7l.7.55c.05-1.65.24-3.26.28-4.92a9.64,9.64,0,0,0,1.11.73C32.83,12.08,32.09,8.33,31.17,7.94Z" transform="translate(-7.09)"/>
      <path class="cls-1" d="M18.37,7.05c-5,1-8.67,8-7.61,14.57.72,4.46,6.1,10,10.45,10,5.08,0,9-7.68,8.19-13.75C28.56,11.22,25.36,5.72,18.37,7.05Z" transform="translate(-7.09)"/>
      <path class="cls-7" d="M27.11,8.88a23.39,23.39,0,0,0-8.37-1.72,13.1,13.1,0,0,0-5.5.62,6.16,6.16,0,0,0-4,5.42c-.12,1-.06,2.6,1.26,2.69,1.83.13,1.92-2.11,2.51-3.26a11.94,11.94,0,0,0,3.15,1.12,3.75,3.75,0,0,1-.28-2.17c1,.38,7.75,1.57,7.75,1.57a5.53,5.53,0,0,1-.27-1.23A5.41,5.41,0,0,0,27.54,14a4.3,4.3,0,0,1,.21-1.53S28,9.23,27.11,8.88Z" transform="translate(-7.09)"/>
      <path class="cls-1" d="M9,18.88c-2.45.66-1.47,4.16.54,4.86a4.76,4.76,0,0,0,2,.21l0-.06c.29-.45-.12-3-.27-3.48C10.93,19.19,10.2,18.56,9,18.88Z" transform="translate(-7.09)"/>
      <path class="cls-8" d="M9.88,20.17c-.55-.25-1.93.19-1.28,1.25.34-1,1-.34.86.36-.06.46-.58.47-.07,1.07.28.32.83.2,1.12,0C11.4,22.33,10.56,20.47,9.88,20.17Z" transform="translate(-7.09)"/>
      <path class="cls-6" d="M28.26,8.66a23,23,0,0,0-2.63-3C22.86,3.41,19.26,3.43,15.86,4A12.38,12.38,0,0,0,12,5.18C11,5.73,10.6,7,10.13,8c-1.1,2.31-2,9.22-.77,10.78a1.57,1.57,0,0,1,1.17.33,2.74,2.74,0,0,1,.66,1.27,1.62,1.62,0,0,0,1.12.29c-.36-2.39-.94-7.4,1.07-9.18.06.75,1.55,1.73,2.28,1.85a11.73,11.73,0,0,1-.31-2.51c2.12.32,5.5,1.05,7.59,1.53-.14-.34-.28-1.19-.43-1.63,1.53,1,2.5,2,4.39,2.53a7.89,7.89,0,0,0,.22-1.93c0,.26,2.93.62,3.22.67a3.79,3.79,0,0,0-.68-1.68A17.94,17.94,0,0,0,28.26,8.66Z" transform="translate(-7.09)"/>
      <path class="cls-9" d="M17.15,7.47h0Z" transform="translate(-7.09)"/>
      <path class="cls-9" d="M26.4,5a5.13,5.13,0,0,1,2.13-.3,6.61,6.61,0,0,0-4.34-1.93,2.52,2.52,0,0,1,.56-1.2c-.49.42-1.72.37-2.33.77a2.05,2.05,0,0,0-1.3-.62,5.63,5.63,0,0,1,.35,1,13.6,13.6,0,0,0-4-.57c-.33,0-2.26.16-2.45-.14.3.55,1,.75,1.52,1-1.24-.06-2.32.58-3.51.79A2.3,2.3,0,0,0,14.44,4c-1.92.77-3.9,1.78-4.91,3.73.84-.15,1.69-.38,2.53-.54-.27.87-1,1.76-1,2.78,2.81-2.39,7-.95,10,.24a10.08,10.08,0,0,0-3.95-2.69h0a12.51,12.51,0,0,1,4.56,1.07c1.63.67,3.32,2.33,5.1,2.44A8.06,8.06,0,0,0,25.2,8.06c1.66.58,3.07,1.58,4.78,2-.24,0-.85-1.43-.89-1.72a7,7,0,0,0,1.9.48C30,7,28,6.09,26.4,5Z" transform="translate(-7.09)"/>
    </g>
    <g>
      <path class="cls-10" d="M27.11,20.15c-.77-.1-1.84,0-1.31,1,.28.52,3.31,1.22,3.14.08a.72.72,0,0,0-.11-.32A2.39,2.39,0,0,0,27.11,20.15Z" transform="translate(-7.09)"/>
      <path class="cls-10" d="M16.84,20.52a2.8,2.8,0,0,0-2-.16c-.78.16-1.72.61-.68,1.37.56.4,3.79.09,3-.95A1.42,1.42,0,0,0,16.84,20.52Z" transform="translate(-7.09)"/>
      <path class="cls-11" d="M16.46,17.31c-1.29-.54-2.1,1.69-1.22,2.42a1.94,1.94,0,0,1,1.28.11A1.51,1.51,0,0,0,16.46,17.31Z" transform="translate(-7.09)"/>
      <path class="cls-11" d="M27.58,17.23c-1.31-.77-2.27,1.86-1.19,2.56a1.69,1.69,0,0,1,1.36,0C28.28,19.21,28.29,17.64,27.58,17.23Z" transform="translate(-7.09)"/>
      <path class="cls-12" d="M16,17.75c-.52.18-.12,1.17.39.81S16.47,17.6,16,17.75Z" transform="translate(-7.09)"/>
      <path class="cls-12" d="M27,17.78c-.52.11-.27,1.1.26.82C27.66,18.39,27.48,17.69,27,17.78Z" transform="translate(-7.09)"/>
      <g>
        <path class="cls-13" d="M14.88,22.46s1.63,5.43,5.92,5.7c3.08.2,4.1-1.65,5.19-3.2a18.61,18.61,0,0,1,1.83-2.66C26.05,23.46,20.59,24.6,14.88,22.46Z" transform="translate(-7.09)"/>
        <path class="cls-14" d="M15.81,23.15a5.6,5.6,0,0,0,5.25,3.63,5.46,5.46,0,0,0,4.43-2,8,8,0,0,1,1.58-1.71A12.22,12.22,0,0,1,15.81,23.15Z" transform="translate(-7.09)"/>
        <path class="cls-15" d="M15.81,23.15a6.55,6.55,0,0,0,2.53,2,10,10,0,0,0,5.52.3c1.39-.27,3.21-2.38,3.21-2.38A14.14,14.14,0,0,1,15.81,23.15Z" transform="translate(-7.09)"/>
        <path class="cls-15" d="M21.93,25.45a10.74,10.74,0,0,1-3.81-.67c-.74-.25-.65.36-.52.65,0,0,.7,1.27,3.46,1.35,2.59.06,3.84-1.34,3.5-1.66S23.84,25.47,21.93,25.45Z" transform="translate(-7.09)"/>
        <path class="cls-16" d="M15.81,23.15a4.8,4.8,0,0,0,1.09,1.12,24.75,24.75,0,0,0,9.18-.22s.91-.72,1-1A14.49,14.49,0,0,1,15.81,23.15Z" transform="translate(-7.09)"/>
        <path class="cls-16" d="M17.6,24.79c4,2,6.64.46,6.64.46A13.46,13.46,0,0,1,17.6,24.79Z" transform="translate(-7.09)"/>
      </g>
      <path class="cls-17" d="M17,15.41c-.65-.05-1.25-.23-1.88-.34a2.17,2.17,0,0,0-2.11.87,3.43,3.43,0,0,0,.56,0,5.66,5.66,0,0,1,.82-.06A15.16,15.16,0,0,1,16,16.1c.4.06,2.33.5,2.33.06a1,1,0,0,0-.28-.67C17.85,15.35,17.27,15.43,17,15.41Z" transform="translate(-7.09)"/>
      <path class="cls-17" d="M27.66,14.9a16.85,16.85,0,0,1-1.73.44c-.24,0-.78,0-1,.13a1,1,0,0,0-.23.68c0,.44,1.79-.1,2.16-.17a13.32,13.32,0,0,1,1.49-.34,5,5,0,0,1,.77,0,3,3,0,0,0,.52,0A2,2,0,0,0,27.66,14.9Z" transform="translate(-7.09)"/>
      <path class="cls-8" d="M21.89,21.33c-.58,0-.83-.2-1.22,0s.52,1,1.23.89,1.45-.78,1.23-1S22.53,21.29,21.89,21.33Z" transform="translate(-7.09)"/>
      <path class="cls-18" d="M15.26,16.89c-.73.18-1.46.87-3.08.24a2.78,2.78,0,0,0,3.41.56,1.21,1.21,0,0,1,1.52.43S16.7,16.54,15.26,16.89Z" transform="translate(-7.09)"/>
      <path class="cls-18" d="M27.87,17C26.43,16.63,26,18.21,26,18.21a1.21,1.21,0,0,1,1.52-.44A2.78,2.78,0,0,0,31,17.21C29.33,17.85,28.61,17.16,27.87,17Z" transform="translate(-7.09)"/>
    </g>
  </g>
</svg>
