<svg id="레이어_1" data-name="레이어 1" xmlns="http://www.w3.org/2000/svg" viewBox="0 0 39.98 38.56">
  <defs>
    <style>
      .cls-1 {
        fill: #ff9500;
      }

      .cls-1, .cls-2 {
        fill-rule: evenodd;
      }
    </style>
  </defs>
  <title>1</title>
  <g>
    <polygon class="cls-1" points="5.3 20.29 2.48 20.07 0.89 18.38 1.91 15.91 19.01 0.59 21.98 1.52 38.96 17.23 39.3 19.76 34.42 20.29 33.73 37.34 25.35 37.34 24.9 23.08 24.41 22.3 14.62 23.08 14.52 37.76 7.01 37.34 5.99 35.18 5.3 20.29"/>
    <path class="cls-1" d="M20.5,1.76l-9.92,8.5C7.4,13,3.44,15.65.89,19a.6.6,0,0,0,.75.92c3.54-2,6.56-5.45,9.59-8.16L21.42,2.63C22,2.08,21.11,1.23,20.5,1.76Z" transform="translate(0 -0.59)"/>
    <path class="cls-1" d="M22.79,3.9,13.1,12.22C10.22,14.7,6.68,17.09,4.22,20a.84.84,0,0,0-.1,1,1.09,1.09,0,0,1,.08.15.7.7,0,0,0,1,.23l.13-.08a.55.55,0,0,0,.27-.38,26.39,26.39,0,0,1,3.63-3.2q2.52-2.2,5-4.42c3.18-2.82,6.34-5.66,9.51-8.49C24.31,4.23,23.4,3.38,22.79,3.9Z" transform="translate(0 -0.59)"/>
    <path class="cls-1" d="M24.8,5.78,15,14.69c-3.19,2.9-6.9,5.71-9.63,9.06-.44.54.17,1.45.82,1,3.45-2.38,6.44-5.71,9.49-8.58L25.78,6.71C26.41,6.11,25.44,5.2,24.8,5.78Z" transform="translate(0 -0.59)"/>
    <path class="cls-1" d="M27.65,7.65C20.4,14.37,12.7,20.84,5.91,28c-.64.68.34,1.55,1,1,7.58-6.34,14.51-13.62,21.66-20.43C29.21,8,28.26,7.07,27.65,7.65Z" transform="translate(0 -0.59)"/>
    <path class="cls-1" d="M30.2,10.06C25.89,14.23,21,18.13,17,22.66c-.4.47.18,1.32.73.9,4.8-3.65,9-8.49,13.21-12.76.48-.49-.28-1.21-.77-.74Z" transform="translate(0 -0.59)"/>
    <path class="cls-1" d="M13.9,25.77q-2.25,2.36-4.53,4.68c-1.32,1.35-3.15,2.71-4,4.4a.5.5,0,0,0,.7.67c1.68-.9,3-2.77,4.29-4.14q2.24-2.37,4.46-4.75A.63.63,0,0,0,13.9,25.77Z" transform="translate(0 -0.59)"/>
    <path class="cls-1" d="M32.64,12.22a81.39,81.39,0,0,0-10,9.79.68.68,0,0,0,1,.94c3.31-3.33,6.43-6.76,9.94-9.88.6-.53-.3-1.36-.89-.85Z" transform="translate(0 -0.59)"/>
    <path class="cls-1" d="M14.2,30.5l-3.39,3.67L9.28,35.82c-.22.24-.44.46-.65.71l-.27.31a.5.5,0,0,0-.21.29.19.19,0,0,1,0,.08.59.59,0,0,0,.41.68c.94.35,2-1.54,2.53-2.09l4-4.47C15.59,30.75,14.73,29.92,14.2,30.5Z" transform="translate(0 -0.59)"/>
    <path class="cls-1" d="M35.5,14.81l-5.84,5.94c-1.73,1.75-3.85,3.46-5.17,5.55a.57.57,0,0,0,.79.75c2-1.38,3.68-3.56,5.39-5.35l5.74-6A.63.63,0,0,0,35.5,14.81Z" transform="translate(0 -0.59)"/>
    <path class="cls-1" d="M13.92,35.62a9.56,9.56,0,0,1-1.21,1.17c-.42.33-1.05.56-1.17,1.11a.53.53,0,0,0,.38.64c.6.17,1.17-.38,1.6-.74a9.55,9.55,0,0,0,1.33-1.29C15.4,35.88,14.47,35,13.92,35.62Z" transform="translate(0 -0.59)"/>
    <path class="cls-1" d="M33.91,22.45a1.67,1.67,0,0,1-.07-1.18c-3,2.86-6,5.74-8.88,8.77a.7.7,0,0,0,1,1c2.75-2.63,5.43-5.33,8.11-8A2.12,2.12,0,0,1,33.91,22.45Z" transform="translate(0 -0.59)"/>
    <path class="cls-1" d="M38,17.34q-1.59,1.48-3.17,3a1.69,1.69,0,0,1,1.47.29l.07.05,2.51-2.48C39.48,17.63,38.6,16.8,38,17.34Z" transform="translate(0 -0.59)"/>
    <path class="cls-1" d="M33.73,25.5Q31.32,27.84,29,30.26c-1.34,1.39-3.26,2.89-4,4.68a.57.57,0,0,0,.79.75c1.71-1,3-3,4.31-4.4q2.28-2.47,4.65-4.86C35.31,25.81,34.35,24.9,33.73,25.5Z" transform="translate(0 -0.59)"/>
    <path class="cls-1" d="M34,30.05,30.14,33.7a38.75,38.75,0,0,0-3.77,3.7c-.48.6.2,1.66.9,1.12,2.8-2.14,5.18-5.07,7.66-7.57C35.53,30.35,34.59,29.46,34,30.05Z" transform="translate(0 -0.59)"/>
    <path class="cls-1" d="M33.73,34.78l-1.49,1.44a5.12,5.12,0,0,0-1.34,1.49c-.19.43.16,1.11.71.89a5.26,5.26,0,0,0,1.58-1.32l1.54-1.54C35.36,35.11,34.37,34.17,33.73,34.78Z" transform="translate(0 -0.59)"/>
    <path class="cls-2" d="M37.2,15,29.87,8.47q-3.66-3.28-7.33-6.56C20.72.29,19.3.1,17.29,1.68A146.1,146.1,0,0,0,3.86,13.86C2.56,15.18-.37,17.24,0,19.42c.37,1.95,3,2,4.76,2,.1,4.87,0,9.8.36,14.65.1,1.39.62,2.48,2.12,2.72a60,60,0,0,0,7.23.27.75.75,0,0,0,.72-.75,91.33,91.33,0,0,0,.28-14.13c1.68-.1,3.36-.18,5-.22a19.29,19.29,0,0,1,3.22-.07c.66.1.32-.29.51.51a8.64,8.64,0,0,1,0,1.61q.15,5.75.32,11.49a.73.73,0,0,0,.4,1.22,23.8,23.8,0,0,0,3.77.25,26.75,26.75,0,0,0,4.56.06c2-.34,1.63-3.14,1.66-4.61.07-3,.06-5.91.09-8.86,0-.86,0-1.72,0-2.58a14.13,14.13,0,0,1-.07-1.62,1.43,1.43,0,0,0,.44-.06l1.13,0,2.26,0a.8.8,0,0,0,.72-.44c1.13-2.52-.66-4.32-2.44-5.91Zm-2.28,4.61a1.39,1.39,0,0,0-1.32.78c-.41.92-.14,2.31-.15,3.28,0,1.4,0,2.79,0,4.19a67.73,67.73,0,0,1-.13,8.31A2.26,2.26,0,0,1,33,37.38h-.64a11.43,11.43,0,0,1-2.61,0c-1.25,0-2.55,0-3.81-.07-.06-2.23-.11-4.47-.18-6.71,0-1.19-.06-2.37-.1-3.56a16.07,16.07,0,0,0-.1-3.47c-.34-1.35-2-1-3.12-1-2.57,0-5.15.12-7.73.29a.74.74,0,0,0-.71.74,100,100,0,0,1-.18,14.06l-4.89-.18A2.42,2.42,0,0,1,6.7,36.27a3.49,3.49,0,0,1,0-1.07c0-1,0-2-.08-3q-.13-5.76-.29-11.54A.77.77,0,0,0,5.52,20c-.84,0-2.33.15-3.07-.28-.53,0-.67-.27-.4-.87a.93.93,0,0,1,.4-1.17,7.48,7.48,0,0,1,1.08-1.1C5.05,15,6.59,13.48,8.16,12c3.05-2.92,6.2-5.74,9.46-8.42A6.15,6.15,0,0,1,19,2.5a1.81,1.81,0,0,1,2.12.42c.83.71,1.63,1.45,2.44,2.18L28.7,9.69l4.88,4.37c1.25,1.12,5,3.53,4.7,5.6A22.22,22.22,0,0,0,34.92,19.63Z" transform="translate(0 -0.59)"/>
  </g>
</svg>
