<svg xmlns="http://www.w3.org/2000/svg" viewBox="0 0 26.64 39.85">
  <defs>
    <style>
      .cls-1 {
        isolation: isolate;
      }

      .cls-2 {
        fill: #313142;
      }

      .cls-14, .cls-3 {
        opacity: 0.3;
      }

      .cls-4 {
        fill: #3e3e4f;
      }

      .cls-5 {
        fill: #1f1a17;
      }

      .cls-6 {
        fill: #ffc490;
      }

      .cls-13, .cls-7 {
        fill: #d14f2e;
      }

      .cls-11, .cls-7 {
        opacity: 0.4;
      }

      .cls-8 {
        fill: #b55019;
        opacity: 0.35;
        mix-blend-mode: multiply;
      }

      .cls-9 {
        fill: #ffd1a7;
      }

      .cls-10 {
        fill: #a88888;
      }

      .cls-11, .cls-14 {
        fill: #bc551e;
      }

      .cls-12 {
        fill: #fab27b;
      }

      .cls-13 {
        opacity: 0.2;
      }

      .cls-15 {
        fill: #8f322d;
      }

      .cls-16 {
        fill: #fff3e2;
      }

      .cls-17 {
        fill: #e8dac5;
      }

      .cls-18 {
        fill: #332823;
      }
    </style>
  </defs>
  <title>1</title>
  <g class="cls-1">
    <g id="레이어_1" data-name="레이어 1">
      <g>
        <g>
          <path class="cls-2" d="M15.15,33.44C14,34.93,14,37.51,14.32,40H29.25a12,12,0,0,0-.55-6.08C27.2,30.63,17.91,29.9,15.15,33.44Z" transform="translate(-7.22 -0.15)"/>
          <path class="cls-3" d="M21.17,27.33c-5.26,0-5.25,8.9.44,8.9C26.94,36.23,28.47,27.33,21.17,27.33Z" transform="translate(-7.22 -0.15)"/>
          <path class="cls-4" d="M21.13,27c-5.61,0-5.59,8.43.48,8.43C27.29,35.46,28.93,27,21.13,27Z" transform="translate(-7.22 -0.15)"/>
          <path class="cls-2" d="M11.09,40h4.47c.14-2.45.37-5.15.93-5.77L17.07,32C14.39,32.58,11.43,35.27,11.09,40Z" transform="translate(-7.22 -0.15)"/>
          <path class="cls-2" d="M26.15,32l.58,2.24c.55.62.79,3.32.92,5.77h4.48C31.79,35.27,28.83,32.58,26.15,32Z" transform="translate(-7.22 -0.15)"/>
        </g>
        <g>
          <path class="cls-5" d="M33.86,7.88a2,2,0,0,1-1.4.4,2.42,2.42,0,0,0,1.18-2.41C31.41,4.08,26.11.47,20.17.17,16.52,0,12.72.93,10.7,4.24a7.18,7.18,0,0,0-1,2.3,3.3,3.3,0,0,1-.6-1.82,2.42,2.42,0,0,0,0,3,2.73,2.73,0,0,0-1.89.8,3.79,3.79,0,0,1,1.52.23,4.34,4.34,0,0,0-.59,2.52,21.42,21.42,0,0,0,.52,4.84c.4,1.53.95,5.27,3.26,4.8,3.16-.65,6.61-2.4,9.87-1.16,2.27.86,4.33,2.28,6.64,3.13,2,.76,4.06,2.75,4.63-.07a18.75,18.75,0,0,0,.18-6.68,15.9,15.9,0,0,0-1.55-5.56A3.17,3.17,0,0,0,33.86,7.88Z" transform="translate(-7.22 -0.15)"/>
          <path class="cls-6" d="M20.83,5.58c-6,.41-11.17,7-10.67,14.37s5.46,12.26,12.45,12.2c7.73-.07,10.71-6.47,10.21-13.81S26.83,5.17,20.83,5.58Z" transform="translate(-7.22 -0.15)"/>
          <path class="cls-7" d="M31.66,17.62c-.26-.13-2.09-.36-1.64.33a4.65,4.65,0,0,0,1.33.68c.33.07.39-.05.16-.29s-.85-.32-1-.61C30.77,17.7,31.53,18,31.66,17.62Z" transform="translate(-7.22 -0.15)"/>
          <path class="cls-7" d="M15.88,18.93c.16.4.89,0,1.16,0-.13.3-.75.45-.95.69s-.15.36.17.28a4.65,4.65,0,0,0,1.28-.79C17.94,18.41,16.13,18.78,15.88,18.93Z" transform="translate(-7.22 -0.15)"/>
          <path class="cls-5" d="M18.58,16.77c-1.34-.59-2.2,1.8-1.29,2.59a1.86,1.86,0,0,1,1.33.12A1.64,1.64,0,0,0,18.58,16.77Z" transform="translate(-7.22 -0.15)"/>
          <path class="cls-8" d="M24.28,20.1c-.75,0-1.06-.27-1.57,0s.21,1.45,1.53,1.36,1.94-1.2,1.64-1.5S25.12,20.06,24.28,20.1Z" transform="translate(-7.22 -0.15)"/>
          <path class="cls-9" d="M23.61,16.06c-.68.05-1.13,1-1.22,2.26s0,1.84.29,2.08a2.63,2.63,0,0,0,3.13-.26C26.75,19.19,25.24,15.93,23.61,16.06Z" transform="translate(-7.22 -0.15)"/>
          <path class="cls-5" d="M29.82,16c-1.42-.63-2.27,2.37-.72,2.62a1.74,1.74,0,0,1,1.14-.43A1.55,1.55,0,0,0,29.82,16Z" transform="translate(-7.22 -0.15)"/>
          <path class="cls-10" d="M17.89,17.26c-.55.18-.14,1.25.4.87C18.67,17.85,18.38,17.1,17.89,17.26Z" transform="translate(-7.22 -0.15)"/>
          <path class="cls-10" d="M29.17,16.51c-.51.17-.13,1.17.37.81S29.62,16.36,29.17,16.51Z" transform="translate(-7.22 -0.15)"/>
          <path class="cls-6" d="M9.12,18.23c-3,.75-1.89,4.5.51,5.22a6.38,6.38,0,0,0,2.38.2l.05-.06c.37-.49-.2-3-.37-3.51C11.27,18.79,10.55,17.87,9.12,18.23Z" transform="translate(-7.22 -0.15)"/>
          <path class="cls-11" d="M18.27,9.08C16,9.31,13,10.32,12.45,12.92A21.07,21.07,0,0,0,12,16a6.39,6.39,0,0,0,0,1,30.41,30.41,0,0,0,.89,3.76c.34-5.87,1.74-7.81,2-8.66A45.67,45.67,0,0,0,28,12.5c1-.11,3.38-.35,2.19-1.88C29.44,9.62,21.55,8.75,18.27,9.08Z" transform="translate(-7.22 -0.15)"/>
          <path class="cls-7" d="M10.69,19.64c-.76-.37-2.82-.13-2,1.13.65-1,1.42-.2,1.18.54-.16.49-.9.41-.26,1.15a1.69,1.69,0,0,0,1.6.22C12.53,22.24,11.61,20.08,10.69,19.64Z" transform="translate(-7.22 -0.15)"/>
          <path class="cls-5" d="M27.32,5.16c-3.32-1.55-8.45-2-12-.18A7.29,7.29,0,0,0,12.5,7.36c-1.56,2.26-3.52,6-2.72,8.72.18.62.08,1.49.3,2.11.54,1.52,1.36,7.44,2.66,7.47.48,0,1.87.33,1.63-.11-2.08-3.9-1.55-10.78.18-14C25.29,12.85,31.4,11.35,31,8.93,30.72,7.26,28.75,5.83,27.32,5.16Z" transform="translate(-7.22 -0.15)"/>
          <path class="cls-12" d="M19.19,20.49a2.87,2.87,0,0,0-2.6-.1c-1,.33-2.19,1.15-.85,2.31.72.61,4.84-.16,3.82-1.8A1.64,1.64,0,0,0,19.19,20.49Z" transform="translate(-7.22 -0.15)"/>
          <path class="cls-12" d="M29.75,19.22a2.06,2.06,0,0,0-1.11.68c-.42.53-.41,1.21.49,1.65s2.74.5,3.19-.64C32.94,19.35,30.75,19,29.75,19.22Z" transform="translate(-7.22 -0.15)"/>
          <path class="cls-13" d="M23.58,28.64a1.71,1.71,0,0,0-1.23,1.68c0-.13.47-.87,1.79-1.07a3,3,0,0,1,2.37.69C26.6,28.71,24.65,28.29,23.58,28.64Z" transform="translate(-7.22 -0.15)"/>
          <path class="cls-5" d="M28.68,12.86c-.84.1-1.79.76-2.62.55a1.59,1.59,0,0,0,1.46,1.47,2.77,2.77,0,0,0,1.68-.36,4.44,4.44,0,0,1,.67-.26,3.48,3.48,0,0,1,1.16,0,1.17,1.17,0,0,0-.14-.41A2.07,2.07,0,0,0,28.68,12.86Z" transform="translate(-7.22 -0.15)"/>
          <path class="cls-5" d="M19.49,13.83c-.52-.09-1.06-.36-1.57-.41-1.28-.13-2.59,1.59-1.77,2.71.17-.15.31-.34.46-.5.81-.86,2-.21,2.93,0,1.29.23,1.91-.59,1.85-1.82A3.6,3.6,0,0,1,19.49,13.83Z" transform="translate(-7.22 -0.15)"/>
          <g>
            <path class="cls-14" d="M28.85,21.8c.13-.06.53.36.54.49s-.29.44-.49.55a7.29,7.29,0,0,1-2.22.54,20.51,20.51,0,0,1-5.53.25,12,12,0,0,1-3.07-.7.39.39,0,0,1,.1-.08c.51-.32,1.27-.36,1.05-.46a3.59,3.59,0,0,0-3.37.76,2.36,2.36,0,0,1,2.76.88c1.51,2.61,3.06,4.34,5.58,4.3,3.3,0,4-2.25,4.39-3.72a3,3,0,0,1,.79-1.35,4.34,4.34,0,0,1,1.4-1.11A2.84,2.84,0,0,1,32,21.9C31.22,21.21,29.67,21.46,28.85,21.8Z" transform="translate(-7.22 -0.15)"/>
            <path class="cls-15" d="M18.81,23.54s1.67,3.82,5.56,3.51c2.64-.2,3.7-1.51,4-2.64a2.31,2.31,0,0,1,1-1.52A15.37,15.37,0,0,1,18.81,23.54Z" transform="translate(-7.22 -0.15)"/>
            <path class="cls-16" d="M20.12,23.89a2.07,2.07,0,0,0,1.36,1.66,8.17,8.17,0,0,0,5,.05c1.17-.35,1.73-2.24,1.73-2.24A17.74,17.74,0,0,1,20.12,23.89Z" transform="translate(-7.22 -0.15)"/>
            <path class="cls-16" d="M25.14,25.65a11.59,11.59,0,0,1-3.92-.37c-.66-.23-.65.12-.5.43,0,0,.29,1.26,3.35,1.39,2.68.11,3.72-1.53,3.4-1.85S26.81,25.57,25.14,25.65Z" transform="translate(-7.22 -0.15)"/>
            <path class="cls-17" d="M20.11,23.87A1.71,1.71,0,0,0,20.62,25s5.59-.77,7-.33a4.14,4.14,0,0,0,.61-1.29A19.55,19.55,0,0,1,20.11,23.87Z" transform="translate(-7.22 -0.15)"/>
            <path class="cls-17" d="M21.57,25.28a7.81,7.81,0,0,0,5.53-.09A12,12,0,0,1,21.57,25.28Z" transform="translate(-7.22 -0.15)"/>
          </g>
          <path class="cls-14" d="M30.05,20.13a1.61,1.61,0,0,0-.71.23c-.37.29.13.2.35.32.49.29.08.92-.35.94-.74,0-1.47.1-2.22.16a66.38,66.38,0,0,1-6.76.49c-.5,0-1.46.16-1.89-.16-.64-.49.87-.95.08-1.08-.53-.08-1.23.6-1.43,1a.94.94,0,0,0-.07.22c-.18,1,.63,1.5,1.35,1.9a3.51,3.51,0,0,0,2.07.29,17.14,17.14,0,0,1,2.15,0,15.15,15.15,0,0,0,2.13,0c.71-.05,1.39-.2,2.09-.3,1.25-.17,2.32-.1,3.33-1A2,2,0,0,0,31,21.4C31,20.79,30.76,20.12,30.05,20.13Z" transform="translate(-7.22 -0.15)"/>
          <path class="cls-5" d="M29.14,20.47c.48-.29.93,0,.91.34,0,.52-.68.47-1,.44-1.14-.11-2.35-.53-3.51-.16-1.52.48-2.56-.06-4.14.18a21.87,21.87,0,0,0-2.32.59c-.38.11-.88.18-1-.25a.46.46,0,0,1,.74-.4c-.18-.36-.88-.45-1.21-.33A.92.92,0,0,0,17,22c.14.76,1.24,1.27,1.9,1.53a14.15,14.15,0,0,0,3.16.69,15.21,15.21,0,0,0,2.24.1,12.6,12.6,0,0,0,2.36-.3,8.18,8.18,0,0,0,2.77-1.13c.66-.43,1.66-1,1.57-2A1,1,0,0,0,29.14,20.47Z" transform="translate(-7.22 -0.15)"/>
          <path class="cls-18" d="M9.25,11c0,.9,1.82,1.68,2.49,1.8a4,4,0,0,1-1.34.08c-.48-.06-1-.41-1.48-.37.13,1.08,1.79,1.31,2.59,1.66a3.59,3.59,0,0,1-.92.09c-.22,0-.64-.16-.86-.07-.66.26-.43,1.79-.36,2.33.12.9.7,1.91,1.39.38-.23,2.23,2.05,5.72,1.86,4.26a19,19,0,0,1,.12-4.83A18.3,18.3,0,0,1,13.09,14c.05-.18.5-2.2.49-2.2-.44,0-.88,0-1.32-.09C11.21,11.6,10.3,11,9.25,11Z" transform="translate(-7.22 -0.15)"/>
          <path class="cls-18" d="M24.46,10.41a40.32,40.32,0,0,1-11.77,0,37.89,37.89,0,0,0,13.06,1c6.26-.86,5.37-2.8,5.37-2.8S31.16,9.44,24.46,10.41Z" transform="translate(-7.22 -0.15)"/>
          <path class="cls-18" d="M27.76,21.55a4.13,4.13,0,0,0-2.47.11,2.9,2.9,0,0,1-2.43.05c-1.16-.49-3.76.38-3.41.81s1.58.22,1.58.22a.82.82,0,0,0,.54.72c.5.14,1.43-.54,1.43-.54a.67.67,0,0,0,.64.72c.68,0,1.25-.76,1.25-.76s.44.73,1.11.61a.66.66,0,0,0,.61-.72,2.38,2.38,0,0,0,1.33.26c.5-.16.21-.87.21-.87a1.56,1.56,0,0,0,1.32-.07C30.22,21.73,28.69,21.73,27.76,21.55Z" transform="translate(-7.22 -0.15)"/>
          <path class="cls-18" d="M12.24,6.88c1.92,1.73,4.64,1.43,7,1.09-1.51,1.07-6.43.89-8.62.26,1.7.91,3.87,1.7,8.91,1.91a21.92,21.92,0,0,0,10-1.83,9.27,9.27,0,0,0,3.43-2.56c-1.27-.46-6.77-3.9-10.77-4.61C14.77-.16,9.61,4.52,12.24,6.88Z" transform="translate(-7.22 -0.15)"/>
        </g>
      </g>
    </g>
  </g>
</svg>
