<svg xmlns="http://www.w3.org/2000/svg" xmlns:xlink="http://www.w3.org/1999/xlink" viewBox="0 0 40 40">
  <defs>
    <style>
      .cls-1 {
        isolation: isolate;
      }

      .cls-2 {
        fill: url(#linear-gradient);
      }

      .cls-11, .cls-3, .cls-4 {
        opacity: 0.25;
      }

      .cls-11, .cls-12, .cls-13, .cls-3, .cls-5 {
        mix-blend-mode: multiply;
      }

      .cls-3 {
        fill: url(#radial-gradient);
      }

      .cls-4 {
        fill: #fff;
      }

      .cls-5 {
        opacity: 0.35;
        fill: url(#linear-gradient-2);
      }

      .cls-6 {
        fill: #5d4037;
      }

      .cls-7 {
        fill: #4e342e;
      }

      .cls-8 {
        fill: #f5f5f5;
      }

      .cls-9 {
        fill: #cfd8dc;
      }

      .cls-10, .cls-11 {
        fill: #d95957;
      }

      .cls-12, .cls-13 {
        opacity: 0.5;
      }

      .cls-12 {
        fill: url(#linear-gradient-3);
      }

      .cls-13 {
        fill: url(#linear-gradient-4);
      }
    </style>
    <linearGradient id="linear-gradient" x1="20" y1="-0.67" x2="20" y2="40.75" gradientUnits="userSpaceOnUse">
      <stop offset="0" stop-color="#ffe082"/>
      <stop offset="1" stop-color="#ffbf66"/>
    </linearGradient>
    <radialGradient id="radial-gradient" cx="20" cy="20" r="20" gradientUnits="userSpaceOnUse">
      <stop offset="0.8" stop-color="#fff"/>
      <stop offset="1" stop-color="#ffbf66"/>
    </radialGradient>
    <linearGradient id="linear-gradient-2" x1="20" y1="17.63" x2="20" y2="40.41" xlink:href="#linear-gradient"/>
    <linearGradient id="linear-gradient-3" x1="21.9" y1="6.08" x2="29.28" y2="6.08" xlink:href="#linear-gradient"/>
    <linearGradient id="linear-gradient-4" x1="-232.1" y1="6.08" x2="-224.72" y2="6.08" gradientTransform="matrix(-1, 0, 0, 1, -214, 0)" xlink:href="#linear-gradient"/>
  </defs>
  <title>1</title>
  <g class="cls-1">
    <g id="레이어_1" data-name="레이어 1">
      <g>
        <g>
          <circle class="cls-2" cx="20" cy="20" r="20"/>
          <circle class="cls-3" cx="20" cy="20" r="20"/>
          <path class="cls-4" d="M36.5,15.12c0,7.43-7.39,0-16.5,0s-16.5,7.43-16.5,0S10.89,1.67,20,1.67,36.5,7.69,36.5,15.12Z"/>
          <path class="cls-5" d="M20,36A20,20,0,0,1,.1,18,18.86,18.86,0,0,0,0,20a20,20,0,0,0,40,0,18.86,18.86,0,0,0-.1-2A20,20,0,0,1,20,36Z"/>
        </g>
        <g>
          <path class="cls-4" d="M25.67,20.75c-2.67,0-3.87-3.14-3.87-5.37S23,10,25.67,10s3.87,3.15,3.87,5.38S28.34,20.75,25.67,20.75Z"/>
          <path class="cls-6" d="M28.87,15.38c0,1.84-.94,4.71-3.2,4.71s-3.21-2.87-3.21-4.71.94-4.71,3.21-4.71S28.87,13.54,28.87,15.38Z"/>
          <path class="cls-7" d="M25.67,12c2,0,3,2.25,3.16,4.05,0-.24,0-.46,0-.67,0-1.84-.94-4.71-3.2-4.71s-3.21,2.87-3.21,4.71c0,.21,0,.43,0,.67C22.7,14.25,23.66,12,25.67,12Z"/>
        </g>
        <g>
          <path class="cls-4" d="M14.33,20.75c-2.67,0-3.87-3.14-3.87-5.37S11.66,10,14.33,10s3.87,3.15,3.87,5.38S17,20.75,14.33,20.75Z"/>
          <path class="cls-6" d="M11.13,15.38c0,1.84.94,4.71,3.2,4.71s3.21-2.87,3.21-4.71-.94-4.71-3.21-4.71S11.13,13.54,11.13,15.38Z"/>
          <path class="cls-7" d="M14.33,12c2,0,3,2.25,3.17,4.05,0-.24,0-.46,0-.67,0-1.84-.94-4.71-3.21-4.71s-3.2,2.87-3.2,4.71c0,.21,0,.43,0,.67C11.36,14.25,12.33,12,14.33,12Z"/>
        </g>
        <g>
          <path class="cls-4" d="M20,35.07h0c-8.44,0-12.2-5.9-13.1-9.36-.51-2-.26-3.53.66-4a2.06,2.06,0,0,1,1-.27,6.4,6.4,0,0,1,2.74,1,17.07,17.07,0,0,0,8.72,2.33A17.1,17.1,0,0,0,28.8,22.4a6.4,6.4,0,0,1,2.74-1,2,2,0,0,1,1,.27c.92.52,1.18,2.07.66,4a13,13,0,0,1-12.43,9.34v0H20Z"/>
          <path class="cls-6" d="M32.24,22.25c-2-1.1-4.51,3.15-12.16,3.15S9.88,21.15,7.92,22.25,8.68,34.35,20,34.41h.08C31.47,34.35,34.19,23.35,32.24,22.25Z"/>
          <path class="cls-7" d="M7.92,23.58c2-1.1,4.5,3.15,12.16,3.15s10.2-4.25,12.16-3.15a1.36,1.36,0,0,1,.53,1c.15-1.17-.05-2.05-.53-2.32-2-1.1-4.51,3.15-12.16,3.15S9.88,21.15,7.92,22.25c-.49.27-.68,1.15-.53,2.32A1.36,1.36,0,0,1,7.92,23.58Z"/>
          <path class="cls-8" d="M20.08,28.24c7.21,0,10.11-2.53,10.93-5.4a11.54,11.54,0,0,0-1.59.74,18.76,18.76,0,0,1-18.68,0,11.06,11.06,0,0,0-1.6-.74C10,25.71,12.87,28.24,20.08,28.24Z"/>
          <path class="cls-9" d="M20.08,26.07a18.55,18.55,0,0,1-9.34-2.49,11.06,11.06,0,0,0-1.6-.74,6.93,6.93,0,0,0,.26.72c1.91.65,4.77,3.17,10.68,3.17s8.77-2.52,10.67-3.17a6.93,6.93,0,0,0,.26-.72,11.54,11.54,0,0,0-1.59.74A18.55,18.55,0,0,1,20.08,26.07Z"/>
          <path class="cls-10" d="M20.07,31.88a6.36,6.36,0,0,0-4.8,1.76,14.94,14.94,0,0,0,4.77.77h.08a14.64,14.64,0,0,0,4.75-.77A6.38,6.38,0,0,0,20.07,31.88Z"/>
          <path class="cls-11" d="M24.33,33.14a15.05,15.05,0,0,1-4.21.6H20a15.13,15.13,0,0,1-4.23-.61,3.31,3.31,0,0,0-.54.51,14.94,14.94,0,0,0,4.77.77h.08a14.64,14.64,0,0,0,4.75-.77A3.72,3.72,0,0,0,24.33,33.14Z"/>
        </g>
        <g>
          <g>
            <path class="cls-12" d="M22.67,4.82c2.69-.79,5.77-.16,6.61,2.83a3.64,3.64,0,0,0-4.7-1.45c-.68.29-1.36,1.06-2.14.61A1.09,1.09,0,0,1,22.67,4.82Z"/>
            <path class="cls-7" d="M22.67,4.15C25.36,3.36,28.44,4,29.28,7a3.62,3.62,0,0,0-4.7-1.44c-.68.29-1.36,1-2.14.61A1.1,1.1,0,0,1,22.67,4.15Z"/>
          </g>
          <g>
            <path class="cls-13" d="M17.33,4.82c-2.69-.79-5.77-.16-6.61,2.83a3.64,3.64,0,0,1,4.7-1.45c.68.29,1.36,1.06,2.14.61A1.09,1.09,0,0,0,17.33,4.82Z"/>
            <path class="cls-7" d="M17.33,4.15C14.64,3.36,11.56,4,10.72,7a3.62,3.62,0,0,1,4.7-1.44c.68.29,1.36,1,2.14.61A1.1,1.1,0,0,0,17.33,4.15Z"/>
          </g>
        </g>
      </g>
    </g>
  </g>
</svg>
