<svg xmlns="http://www.w3.org/2000/svg" xmlns:xlink="http://www.w3.org/1999/xlink" viewBox="0 0 40 40">
  <defs>
    <style>
      .cls-1 {
        isolation: isolate;
      }

      .cls-2 {
        fill: url(#linear-gradient);
      }

      .cls-3, .cls-4 {
        opacity: 0.25;
      }

      .cls-10, .cls-11, .cls-12, .cls-3, .cls-5 {
        mix-blend-mode: multiply;
      }

      .cls-3 {
        fill: url(#radial-gradient);
      }

      .cls-4, .cls-8 {
        fill: #fff;
      }

      .cls-11, .cls-12, .cls-5 {
        opacity: 0.35;
      }

      .cls-5 {
        fill: url(#linear-gradient-2);
      }

      .cls-6 {
        fill: #5d4037;
      }

      .cls-7 {
        fill: #4e342e;
      }

      .cls-9 {
        fill: #f5f5f5;
      }

      .cls-10, .cls-13 {
        fill: #cfd8dc;
      }

      .cls-11 {
        fill: url(#linear-gradient-3);
      }

      .cls-12 {
        fill: url(#linear-gradient-4);
      }
    </style>
    <linearGradient id="linear-gradient" x1="20" y1="-0.67" x2="20" y2="40.75" gradientUnits="userSpaceOnUse">
      <stop offset="0" stop-color="#ffe082"/>
      <stop offset="1" stop-color="#ffbf66"/>
    </linearGradient>
    <radialGradient id="radial-gradient" cx="20" cy="20" r="20" gradientUnits="userSpaceOnUse">
      <stop offset="0.8" stop-color="#fff"/>
      <stop offset="1" stop-color="#ffbf66"/>
    </radialGradient>
    <linearGradient id="linear-gradient-2" x1="20" y1="17.63" x2="20" y2="40.41" xlink:href="#linear-gradient"/>
    <linearGradient id="linear-gradient-3" x1="6.97" y1="14.07" x2="18.98" y2="14.07" xlink:href="#linear-gradient"/>
    <linearGradient id="linear-gradient-4" x1="21.04" y1="14.07" x2="33.03" y2="14.07" xlink:href="#linear-gradient"/>
  </defs>
  <title>1</title>
  <g class="cls-1">
    <g id="레이어_1" data-name="레이어 1">
      <g>
        <g>
          <circle class="cls-2" cx="20" cy="20" r="20"/>
          <circle class="cls-3" cx="20" cy="20" r="20"/>
          <path class="cls-4" d="M36.5,15.12c0,7.43-7.39,0-16.5,0s-16.5,7.43-16.5,0S10.89,1.67,20,1.67,36.5,7.69,36.5,15.12Z"/>
          <path class="cls-5" d="M20,36A20,20,0,0,1,.1,18,18.86,18.86,0,0,0,0,20a20,20,0,0,0,40,0,18.86,18.86,0,0,0-.1-2A20,20,0,0,1,20,36Z"/>
        </g>
        <g>
          <path class="cls-4" d="M13,22.82a5.76,5.76,0,0,1-1.54-.2,5.91,5.91,0,0,1-3.64-2.81,6,6,0,0,1-.6-4.57L7.52,14l11.59,3.1-.34,1.29A6,6,0,0,1,13,22.82Z"/>
          <path class="cls-6" d="M11.58,22a5.41,5.41,0,0,1-3.51-3A6.16,6.16,0,0,1,8,14.77L16.41,17l1.64.44s.23,0,.24.07-.29,1-.34,1.17A5.4,5.4,0,0,1,11.58,22Z"/>
          <path class="cls-7" d="M7.82,16.75,8,16.1l9.93,2.66a4.1,4.1,0,0,0,.2-.59l.17-.64L8,14.77l-.17.64a5.27,5.27,0,0,0-.14,2.08A4.82,4.82,0,0,1,7.82,16.75Z"/>
          <path class="cls-8" d="M17.48,18a4.67,4.67,0,1,1-9-2.41l3.69,1h0l2.08.55Z"/>
          <path class="cls-9" d="M13,20.82a4,4,0,0,1-4-4.4l.1-.66,7.76,2.07-.24.62A4,4,0,0,1,13,20.82Z"/>
          <path class="cls-6" d="M14.43,18.4a1.6,1.6,0,1,1-2.59-1.62c.44-.37,1,0,1.54.12l.76.21c.41.1.37,1,.29,1.29C14.2,19.24,14.55,17.94,14.43,18.4Z"/>
          <path class="cls-10" d="M11.84,17.61h0l2.08.55,3.16.85a5.59,5.59,0,0,0,.4-1l-3.25-.87-2.08-.55h0l-3.69-1a4.46,4.46,0,0,0-.15,1.08Z"/>
        </g>
        <g>
          <path class="cls-4" d="M27.05,22.82a5.76,5.76,0,0,0,1.54-.2,5.91,5.91,0,0,0,3.64-2.81,6,6,0,0,0,.6-4.57L32.48,14l-11.59,3.1.34,1.29A6,6,0,0,0,27.05,22.82Z"/>
          <path class="cls-6" d="M28.42,22a5.41,5.41,0,0,0,3.88-6c0-.14-.15-1.11-.29-1.19s-.21.06-.24.06l-1.64.44-8.42,2.26a6.18,6.18,0,0,0,2,3.46A5.39,5.39,0,0,0,28.42,22Z"/>
          <path class="cls-7" d="M32.18,16.75,32,16.1l-9.93,2.66a4.1,4.1,0,0,1-.2-.59l-.17-.64L32,14.77l.17.64a5.27,5.27,0,0,1,.14,2.08A4.82,4.82,0,0,0,32.18,16.75Z"/>
          <path class="cls-8" d="M22.52,18a4.67,4.67,0,1,0,9-2.41l-3.69,1h0l-2.08.55Z"/>
          <path class="cls-9" d="M27.05,20.82a4,4,0,0,0,4-4.4l-.1-.66-7.76,2.07.24.62A4,4,0,0,0,27.05,20.82Z"/>
          <path class="cls-6" d="M25.57,18.4a1.6,1.6,0,1,0,2.59-1.62c-.44-.37-1,0-1.54.12l-.76.21c-.41.1-.37,1-.29,1.29C25.8,19.24,25.45,17.94,25.57,18.4Z"/>
          <path class="cls-10" d="M28.16,17.61h0l-2.08.55L22.92,19a5.59,5.59,0,0,1-.4-1l3.25-.87,2.08-.55h0l3.69-1a4.46,4.46,0,0,1,.15,1.08Z"/>
        </g>
        <path class="cls-4" d="M14.39,34a3.93,3.93,0,0,1-4.17-2.95,4.4,4.4,0,0,1,2.87-5c1.66-.72,5.71-.77,6.91-.77s5.25,0,6.91.77a4.4,4.4,0,0,1,2.87,5c-.47,2-1.84,2.95-4.18,2.95l-5.6.08Z"/>
        <path class="cls-6" d="M29.14,30.93a3,3,0,0,1-2.65,2.39,16,16,0,0,1-2.19.07c-1.47,0-3,.08-4.44.06l-5.22-.07a4.17,4.17,0,0,1-2.89-.9,3.24,3.24,0,0,1-.41-4.12c1-1.49,2.61-1.92,4.27-2.12A39.07,39.07,0,0,1,21.23,26a20.85,20.85,0,0,1,4.86.52c1.89.5,3.53,2.35,3.05,4.38C28.71,32.73,29.56,29.14,29.14,30.93Z"/>
        <path class="cls-7" d="M13.35,28.06c2.22-.95,11.08-.95,13.3,0a4.12,4.12,0,0,1,2.49,2.8,3.75,3.75,0,0,0-2.49-4.13c-2.22-.95-11.08-.95-13.3,0a3.75,3.75,0,0,0-2.49,4.13A4.12,4.12,0,0,1,13.35,28.06Z"/>
        <g>
          <path class="cls-11" d="M16.79,16.63C14.31,13.81,10.94,11.2,7,11.34a12.25,12.25,0,0,1,8.37,1.41c.67.37,1.31.75,1.94,1.18a5.76,5.76,0,0,1,1.45,1.14A1.25,1.25,0,0,1,16.79,16.63Z"/>
          <path class="cls-6" d="M16.79,16C14.3,13.13,10.92,10.54,7,10.67c3-.75,6.21.18,8.81,1.66.69.39,1.35.83,2,1.27S19,14.4,19,15.1a1.27,1.27,0,0,1-2.19.86C14.31,13.15,17.81,17.12,16.79,16Z"/>
        </g>
        <g>
          <path class="cls-12" d="M21.53,14.81c3.2-2.4,7.38-4.5,11.5-3.47a11.53,11.53,0,0,0-7.46,2.9,14.16,14.16,0,0,0-1.63,1.56c-.33.38-.68.94-1.16,1.15A1.25,1.25,0,0,1,21.53,14.81Z"/>
          <path class="cls-6" d="M21.53,14.14c3.22-2.41,7.38-4.5,11.5-3.47a11.81,11.81,0,0,0-8,3.35,12.41,12.41,0,0,0-1.46,1.53,1.62,1.62,0,0,1-1.54.82,1.27,1.27,0,0,1-.53-2.23C24.73,11.75,20.38,15,21.53,14.14Z"/>
        </g>
        <path class="cls-9" d="M26.38,27.34A22.07,22.07,0,0,0,20,26.68a22.07,22.07,0,0,0-6.38.66,3.9,3.9,0,0,0-1.8,1.53l1.07,1.35a6.17,6.17,0,0,0-1,1.36,3.06,3.06,0,0,0,2.53,1.13l5.6.07,5.6-.07c1.31,0,2.1-.32,2.55-1.08a6.09,6.09,0,0,0-1-1.41l1.07-1.35A3.9,3.9,0,0,0,26.38,27.34Z"/>
        <path class="cls-13" d="M26.38,27.34A22.07,22.07,0,0,0,20,26.68a22.07,22.07,0,0,0-6.38.66,3.9,3.9,0,0,0-1.8,1.53l.11.14a4.84,4.84,0,0,1,1.42-1c2.22-.95,11.08-.95,13.3,0a4.84,4.84,0,0,1,1.42,1l.11-.14A3.9,3.9,0,0,0,26.38,27.34Z"/>
        <path class="cls-13" d="M12.21,31H27.78a5.38,5.38,0,0,0-.67-.81H12.89A5.77,5.77,0,0,0,12.21,31Z"/>
      </g>
    </g>
  </g>
</svg>
