<svg id="레이어_1" data-name="레이어 1" xmlns="http://www.w3.org/2000/svg" xmlns:xlink="http://www.w3.org/1999/xlink" viewBox="0 0 39.74 38.76">
  <defs>
    <style>
      .cls-1 {
        fill: #d47844;
      }

      .cls-2 {
        fill: #ebebeb;
      }

      .cls-3 {
        fill: #3a3a4a;
      }

      .cls-4 {
        opacity: 0.1;
      }

      .cls-5 {
        fill: #fbfbfb;
      }

      .cls-6 {
        fill: url(#linear-gradient);
      }

      .cls-7 {
        fill: #231e1a;
      }

      .cls-8 {
        fill: #fff9f0;
      }

      .cls-10, .cls-9 {
        fill: #661004;
      }

      .cls-18, .cls-9 {
        opacity: 0.3;
      }

      .cls-10 {
        opacity: 0.2;
      }

      .cls-11 {
        fill: #423631;
      }

      .cls-12 {
        fill: #1a1614;
      }

      .cls-13 {
        fill: #2b241e;
      }

      .cls-14 {
        fill: #a88686;
      }

      .cls-15 {
        fill: #d4502c;
      }

      .cls-16 {
        fill: #66241b;
      }

      .cls-16, .cls-20 {
        opacity: 0.7;
      }

      .cls-17 {
        fill: #611f16;
      }

      .cls-18, .cls-19, .cls-20 {
        fill: #fff;
      }
    </style>
    <linearGradient id="linear-gradient" x1="20.46" y1="28.35" x2="20.46" y2="31.61" gradientUnits="userSpaceOnUse">
      <stop offset="0" stop-color="#c25421"/>
      <stop offset="1" stop-color="#d47844"/>
    </linearGradient>
  </defs>
  <title>1</title>
  <g>
    <path class="cls-1" d="M16.87,33.07l-.93-1.85c-1.44.73-1.73,2.28-2,3.92a9.53,9.53,0,0,1-1.57,4.24h2.44a13.67,13.67,0,0,0,1.16-3.86C16.19,34.17,16.37,33.33,16.87,33.07Z" transform="translate(-0.13 -0.62)"/>
    <path class="cls-1" d="M24.46,31.22l-.94,1.85c.51.26.69,1.1.94,2.45a14,14,0,0,0,1.17,3.86h2.43a9.66,9.66,0,0,1-1.57-4.24C26.18,33.5,25.89,32,24.46,31.22Z" transform="translate(-0.13 -0.62)"/>
    <g>
      <path class="cls-2" d="M25,37.34a10.37,10.37,0,0,0-.58-6.66,9.74,9.74,0,0,0-8.58.27,12.71,12.71,0,0,0,0,6.18,12.35,12.35,0,0,1,.37,2.25h8.56A13,13,0,0,1,25,37.34Z" transform="translate(-0.13 -0.62)"/>
      <path class="cls-3" d="M20.77,35.53l1.05-1a1.54,1.54,0,0,0-1.47-1,1.57,1.57,0,0,0-1.69.88l1.07,1.1-1.34,2.54,1,1.33h1.67L22.22,38Z" transform="translate(-0.13 -0.62)"/>
      <path class="cls-4" d="M16.72,32.31a5.68,5.68,0,0,0,2.23,3l1.24-1.55,1.62,1.53A4.7,4.7,0,0,0,24,31.82C24,30.89,16.22,30.38,16.72,32.31Z" transform="translate(-0.13 -0.62)"/>
      <path class="cls-5" d="M16.74,30c-1.38,2.12,2.11,4.8,2.11,4.8L20.2,33.6l1.53,1.27s3.15-2,2-4.64C22.76,27.84,18.13,27.89,16.74,30Z" transform="translate(-0.13 -0.62)"/>
      <path class="cls-6" d="M19.37,27.49A2.62,2.62,0,0,0,17.89,30c-.08,1.43,1.45,3.34,2.51,3.38.8,0,4.19-2.65,1.81-5.24A3,3,0,0,0,19.37,27.49Z" transform="translate(-0.13 -0.62)"/>
    </g>
    <g>
      <path class="cls-7" d="M20.33,2.63C16.75-1.61,9,3.33,6,5.81,2.17,9-2.86,15.8,2.39,15.63c-1.15,1.36-1.64,4.13.48,4.6C2,21.68,2.54,23.42,4.38,23.5a2,2,0,0,0,2.8,2.25,2,2,0,0,0,3.44.92c1.11,4.28,6.8-2.41,10.65-2.49,3.48-.07,9.47,6.32,9.49,1.39,1.17.89,2.93.65,2.77-1.46,1.6,1.19,3.59-.36,2.71-2,1.91.54,2.06-1.6,1.3-3,2,.51,2-2.1.54-3,3.18,0,1.33-3.24.48-5C36.3,6.44,25.8-3.67,20.33,2.63Z" transform="translate(-0.13 -0.62)"/>
      <path class="cls-8" d="M29,20.23a.82.82,0,0,0-.63.95A.74.74,0,1,0,29.82,21,.82.82,0,0,0,29,20.23Z" transform="translate(-0.13 -0.62)"/>
      <path class="cls-1" d="M19.45,5.7c-5.2.56-9.12,5.2-8.58,12.44s5.27,11.65,10.5,11.71c4,0,8.75-6.7,8-13.91S24.65,5.14,19.45,5.7Z" transform="translate(-0.13 -0.62)"/>
      <path class="cls-1" d="M9,16.27c-2.3,1.1-1.09,5.11.88,5.68a3.86,3.86,0,0,0,1.91,0,.25.25,0,0,0,0-.07c.25-.58-.43-3.26-.61-3.81C10.78,16.67,10.13,15.74,9,16.27Z" transform="translate(-0.13 -0.62)"/>
      <path class="cls-9" d="M10.4,17.65c-.64-.33-2.25.14-1.53,1.44.42-1.15,1.12-.35,1,.48-.09.56-.68.54-.11,1.29a1.06,1.06,0,0,0,1.3.09C12.1,20.34,11.17,18.05,10.4,17.65Z" transform="translate(-0.13 -0.62)"/>
      <path class="cls-8" d="M10.84,21.31a.81.81,0,0,0-.7.9.83.83,0,0,0,.77.85.82.82,0,0,0,.69-.91A.81.81,0,0,0,10.84,21.31Z" transform="translate(-0.13 -0.62)"/>
      <path class="cls-10" d="M25.77,6.05a26.35,26.35,0,0,0-8.53.83,10.34,10.34,0,0,0-7.08,10.53c.16,1.48.75,5.65,2.43,3.57,1-1.23.4-4.08-.06-5.43,1.09.53,1.64-1.63,1.57-2.67,2.51,2.26,4.77-6.18,8.75-2.86.95.8,2.09,2.79,3.14,2.53s.74-1,.78-1.64c.34.87,1.39,1.7,2,1.4,1.1-.55.57-3.27.43-4.15C29,6.36,27.28,6.14,25.77,6.05Z" transform="translate(-0.13 -0.62)"/>
      <path class="cls-7" d="M26.67,5.13c-5.08-2.2-10.17-.7-14.85,1.69A5.61,5.61,0,0,0,9.41,9.16c-1,1.85,0,6.53,1,10.3.49,1.89,1.24,2.31,1.83.58.4-1.19-.16-3.86,0-6,.11.61.33,1.39,1,1.18s.59-2.36.7-3.69c.7,2.82,4.32-1.76,5.13-2.41,2.24-1.79,3.09-.78,4.72.82.74.74,1.57,2.19,2.41,1.81.65-.29.45-1.45.47-2.09a4.36,4.36,0,0,0,1.87,2.18c.77.46,1.52-1.3.65-3.71A4.93,4.93,0,0,0,26.67,5.13Z" transform="translate(-0.13 -0.62)"/>
      <path class="cls-11" d="M21.87,5.26l0,0s0,0,0,0S21.87,5.28,21.87,5.26Z" transform="translate(-0.13 -0.62)"/>
      <path class="cls-11" d="M31.05,4.31A13.09,13.09,0,0,0,25.67,2a3.58,3.58,0,0,0-2.73.61c-.51.41-1.48,1.9-1.1,2.64l0,0s0,0,0,0,0,0,0,0c-4.61-7.56-13.67,0-17.6,4.23-.9,1-3.28,3.07-2,4s5.88-4.32,7.85-5.71c-1,.81-4.62,4.48-3.82,5.89.88,1.57,3.49-1.86,4.36-2.78-.58.95-1.14,3.21-.3,3.42S12,12.16,12.49,11c-.15.61-.52,2.34.21,2.34s.9-3.13,1.43-4.48c.14,3.48,3.31-.73,4.15-1.38,1.81-1.39,2.51-1.49,4.4-.21,1,.67,1.74,2.47,2.68,2.44S26.22,8,26,7.06c.55,1.23,2.51,4.77,3,1.62.51,2.06,4.5,7.84,3.45,2.65.38.95,2.14,3.69,3.36,2.74s-2.17-4.4-1.62-4.81c.47.67,1.54,1.88,2.38,1S31.63,4.72,31.05,4.31Z" transform="translate(-0.13 -0.62)"/>
    </g>
    <g>
      <path class="cls-12" d="M17.41,16.69c-1.37-.45-2,2-1,2.67a2,2,0,0,1,1.33,0A1.62,1.62,0,0,0,17.41,16.69Z" transform="translate(-0.13 -0.62)"/>
      <path class="cls-12" d="M27.31,16.41c-1.36-.72-2.47,2.12-1,2.48a1.82,1.82,0,0,1,1.18-.21C28,18.07,28,16.8,27.31,16.41Z" transform="translate(-0.13 -0.62)"/>
      <path class="cls-13" d="M27.22,14.44c-.78,0-2.39.18-3.17.06.26,1.1.89,1.17,1.86,1.05a11.43,11.43,0,0,1,3.53.12A2.53,2.53,0,0,0,27.22,14.44Z" transform="translate(-0.13 -0.62)"/>
      <path class="cls-13" d="M16.16,14.77c-.73.05-2,.38-2.38,1.29a13.8,13.8,0,0,1,3.89-.22c1.07.09,1.75,0,2-1.11C18.8,14.88,17,14.7,16.16,14.77Z" transform="translate(-0.13 -0.62)"/>
      <path class="cls-9" d="M22.35,21.09c-.48.05-.7-.13-1,.09s.5.81,1.09.7,1.17-.74,1-.92S22.89,21,22.35,21.09Z" transform="translate(-0.13 -0.62)"/>
      <path class="cls-12" d="M13.64,17.39a2.46,2.46,0,0,0,3.12.12l-.21-.7A2.49,2.49,0,0,1,13.64,17.39Z" transform="translate(-0.13 -0.62)"/>
      <path class="cls-12" d="M27.35,16.45l-.2.63a2.11,2.11,0,0,0,2.81,0C28.69,17.67,27.35,16.45,27.35,16.45Z" transform="translate(-0.13 -0.62)"/>
      <path class="cls-14" d="M16.8,17.1c-.52.24,0,1.25.48.82S17.26,16.9,16.8,17.1Z" transform="translate(-0.13 -0.62)"/>
      <path class="cls-14" d="M26.65,16.71c-.52.13-.21,1.14.3.82S27.11,16.59,26.65,16.71Z" transform="translate(-0.13 -0.62)"/>
      <path class="cls-15" d="M27,19.91c-.75.07-1.31.55-1.26,1.05s.7.85,1.45.77,1.31-.55,1.25-1.05S27.78,19.83,27,19.91Z" transform="translate(-0.13 -0.62)"/>
      <path class="cls-15" d="M16.23,20.39c-.83-.06-1.53.35-1.56.91s.6,1.05,1.42,1.1,1.52-.35,1.56-.91S17.05,20.44,16.23,20.39Z" transform="translate(-0.13 -0.62)"/>
      <g>
        <path class="cls-16" d="M15.86,23.16c.66,1.21,2.18.57,1.49-.66A1.13,1.13,0,0,1,15.86,23.16Z" transform="translate(-0.13 -0.62)"/>
        <path class="cls-16" d="M26,22c-.3,1.31,1.37,1.71,1.66.43A1.26,1.26,0,0,1,26,22Z" transform="translate(-0.13 -0.62)"/>
        <path class="cls-17" d="M26.69,22.67a.36.36,0,0,0-.45.2,4.63,4.63,0,0,1-4.46,3,4.72,4.72,0,0,1-4.42-2.43.4.4,0,0,0-.49-.18.3.3,0,0,0-.17.43,5.45,5.45,0,0,0,4.95,2.84h.19A5.3,5.3,0,0,0,27,23.08.34.34,0,0,0,26.69,22.67Z" transform="translate(-0.13 -0.62)"/>
      </g>
    </g>
    <g>
      <path class="cls-3" d="M23.41,15.91c-.69.75-.29,3.18.19,4s5.29.78,6.45.37,2.05-3.25,1.2-4.37S24.41,14.82,23.41,15.91Zm6.36,3.81c-.87.29-5.17.3-5.59-.22s-.61-2.7-.12-3.2c.72-.74,5.76-.73,6.51,0S30.64,19.43,29.77,19.72Z" transform="translate(-0.13 -0.62)"/>
      <path class="cls-3" d="M11.72,16.37c-.87.78.09,3.27.84,4s6.34.32,7.46-.14,1.06-3.18.09-4.25S13,15.23,11.72,16.37Zm7.82,3.42c-.83.31-5.66.63-6.31.16s-1.41-2.66-.8-3.17c.91-.75,6.24-1,7.06-.37S20.38,19.47,19.54,19.79Z" transform="translate(-0.13 -0.62)"/>
      <path class="cls-3" d="M20.76,17.43c-.12.06-.61.7-.25.85A3.37,3.37,0,0,1,23.25,18c.21.07.4.05.33-.2C23.31,16.89,21.49,17.1,20.76,17.43Z" transform="translate(-0.13 -0.62)"/>
      <path class="cls-18" d="M27.07,15.94c-.33.08-2.55.5-2.11,1.43.28.61,5.47.93,5.8-.1C31.43,15.17,27.7,15.78,27.07,15.94Z" transform="translate(-0.13 -0.62)"/>
      <path class="cls-18" d="M19.11,16.09a11.47,11.47,0,0,0-3.67.12c-.37.06-2.07.34-1.47,1.32s4.91,1.08,5.68.22A1,1,0,0,0,19.11,16.09Z" transform="translate(-0.13 -0.62)"/>
      <path class="cls-19" d="M27.43,16.09c-.56,0-.94.15-.81.4.24.49,3.51.55,3.77.22S28.62,16,27.43,16.09Z" transform="translate(-0.13 -0.62)"/>
      <path class="cls-20" d="M25,18.84c-.35,0-.6,0-.55.24.09.41,2.09.78,2.29.54S25.71,18.91,25,18.84Z" transform="translate(-0.13 -0.62)"/>
      <path class="cls-19" d="M16.75,16.21c-.55,0-.92.15-.79.37.25.46,3.45.46,3.7.14S17.92,16.13,16.75,16.21Z" transform="translate(-0.13 -0.62)"/>
      <path class="cls-20" d="M13.54,19.18c-.34,0-.58,0-.54.22.11.39,2.08.69,2.27.46S14.27,19.23,13.54,19.18Z" transform="translate(-0.13 -0.62)"/>
    </g>
  </g>
</svg>
