<svg xmlns="http://www.w3.org/2000/svg" xmlns:xlink="http://www.w3.org/1999/xlink" viewBox="0 0 40 34.23">
  <defs>
    <style>
      .cls-1 {
        isolation: isolate;
      }

      .cls-2 {
        fill: url(#linear-gradient);
      }

      .cls-13, .cls-3, .cls-4 {
        opacity: 0.25;
      }

      .cls-13, .cls-3, .cls-5, .cls-6, .cls-7 {
        mix-blend-mode: multiply;
      }

      .cls-3 {
        fill: url(#radial-gradient);
      }

      .cls-4 {
        fill: #fff;
      }

      .cls-15, .cls-16, .cls-17, .cls-18, .cls-5 {
        opacity: 0.35;
      }

      .cls-5 {
        fill: url(#linear-gradient-2);
      }

      .cls-6, .cls-7 {
        opacity: 0.5;
      }

      .cls-6 {
        fill: url(#linear-gradient-3);
      }

      .cls-7 {
        fill: url(#linear-gradient-4);
      }

      .cls-8 {
        fill: #5d4037;
      }

      .cls-9 {
        fill: #4e342e;
      }

      .cls-10 {
        fill: #f5f5f5;
      }

      .cls-11 {
        fill: #cfd8dc;
      }

      .cls-12, .cls-13 {
        fill: #d95957;
      }

      .cls-14 {
        fill: #80cbc4;
      }

      .cls-15, .cls-16, .cls-17, .cls-18 {
        mix-blend-mode: screen;
      }

      .cls-15 {
        fill: url(#linear-gradient-5);
      }

      .cls-16 {
        fill: url(#linear-gradient-6);
      }

      .cls-17 {
        fill: url(#linear-gradient-7);
      }

      .cls-18 {
        fill: url(#linear-gradient-8);
      }
    </style>
    <linearGradient id="linear-gradient" x1="20" y1="-0.57" x2="20" y2="34.88" gradientUnits="userSpaceOnUse">
      <stop offset="0" stop-color="#ffe082"/>
      <stop offset="1" stop-color="#ffbf66"/>
    </linearGradient>
    <radialGradient id="radial-gradient" cx="20" cy="20" r="17.12" gradientUnits="userSpaceOnUse">
      <stop offset="0.8" stop-color="#fff"/>
      <stop offset="1" stop-color="#ffbf66"/>
    </radialGradient>
    <linearGradient id="linear-gradient-2" x1="20" y1="17.97" x2="20" y2="37.47" xlink:href="#linear-gradient"/>
    <linearGradient id="linear-gradient-3" x1="31.13" y1="22.86" x2="37.1" y2="22.86" xlink:href="#linear-gradient"/>
    <linearGradient id="linear-gradient-4" x1="2.9" y1="22.86" x2="8.87" y2="22.86" xlink:href="#linear-gradient"/>
    <linearGradient id="linear-gradient-5" x1="3.11" y1="19.28" x2="5.56" y2="22.45" gradientUnits="userSpaceOnUse">
      <stop offset="0" stop-color="#fff"/>
      <stop offset="1"/>
    </linearGradient>
    <linearGradient id="linear-gradient-6" x1="3.11" y1="19.28" x2="5.56" y2="22.45" gradientUnits="userSpaceOnUse">
      <stop offset="0" stop-color="#fff"/>
      <stop offset="0.5"/>
    </linearGradient>
    <linearGradient id="linear-gradient-7" x1="37.12" y1="19.11" x2="34.28" y2="22.53" xlink:href="#linear-gradient-5"/>
    <linearGradient id="linear-gradient-8" x1="37.12" y1="19.11" x2="34.28" y2="22.53" xlink:href="#linear-gradient-6"/>
  </defs>
  <title>1</title>
  <g class="cls-1">
    <g id="레이어_1" data-name="레이어 1">
      <g>
        <g>
          <circle class="cls-2" cx="20" cy="17.12" r="17.12"/>
          <path class="cls-3" d="M37.12,20c0,.19,0,.39,0,.58A16.77,16.77,0,0,1,36,26,17.12,17.12,0,0,1,4,26,16.77,16.77,0,0,1,2.9,20.58c0-.19,0-.39,0-.58a17.12,17.12,0,0,1,34.24,0Z" transform="translate(0 -2.88)"/>
          <path class="cls-4" d="M34.12,15.82c0,6.36-6.32,0-14.12,0s-14.12,6.36-14.12,0S12.2,4.31,20,4.31,34.12,9.46,34.12,15.82Z" transform="translate(0 -2.88)"/>
          <path class="cls-5" d="M20,33.69A17.11,17.11,0,0,1,3,18.29,16,16,0,0,0,2.88,20a17.12,17.12,0,0,0,34.24,0A16,16,0,0,0,37,18.29,17.11,17.11,0,0,1,20,33.69Z" transform="translate(0 -2.88)"/>
        </g>
        <path class="cls-6" d="M37.1,20.58A16.77,16.77,0,0,1,36,26a2.72,2.72,0,0,1-.51-.4c-1-1-4.38-5.93-4.38-5.93A16.11,16.11,0,0,1,37.1,20.58Z" transform="translate(0 -2.88)"/>
        <path class="cls-7" d="M8.87,19.7s-3.36,4.9-4.38,5.93A2.72,2.72,0,0,1,4,26,16.77,16.77,0,0,1,2.9,20.58,16.11,16.11,0,0,1,8.87,19.7Z" transform="translate(0 -2.88)"/>
        <g>
          <path class="cls-4" d="M17.49,18.41a2.06,2.06,0,0,1-.84-.27,5,5,0,0,0-2.43-.57,5,5,0,0,0-2.43.57,2,2,0,0,1-.84.27,1,1,0,0,1-.76-.39,2,2,0,0,1,0-2.06,4.34,4.34,0,0,1,4-2.39,4.34,4.34,0,0,1,4,2.39,2,2,0,0,1,0,2.06.94.94,0,0,1-.76.39Z" transform="translate(0 -2.88)"/>
          <path class="cls-8" d="M14.22,14.14c-2.94,0-4.19,2.76-3.58,3.53.49.62,1.06-.67,3.58-.67s3.09,1.29,3.58.67C18.41,16.9,17.16,14.14,14.22,14.14Z" transform="translate(0 -2.88)"/>
          <path class="cls-9" d="M14.22,15.28a3.73,3.73,0,0,1,3.6,2.35c.55-.81-.7-3.49-3.6-3.49s-4.15,2.68-3.6,3.49A3.74,3.74,0,0,1,14.22,15.28Z" transform="translate(0 -2.88)"/>
        </g>
        <g>
          <path class="cls-4" d="M29.05,18.41a2,2,0,0,1-.84-.27,5.46,5.46,0,0,0-4.86,0,2.06,2.06,0,0,1-.84.27.94.94,0,0,1-.76-.39,2,2,0,0,1,0-2.06,4.54,4.54,0,0,1,8,0,2,2,0,0,1,0,2.06A1,1,0,0,1,29.05,18.41Z" transform="translate(0 -2.88)"/>
          <path class="cls-8" d="M25.78,14.14c2.94,0,4.19,2.76,3.58,3.53-.49.62-1.06-.67-3.58-.67s-3.09,1.29-3.58.67C21.59,16.9,22.84,14.14,25.78,14.14Z" transform="translate(0 -2.88)"/>
          <path class="cls-9" d="M25.78,15.28a3.74,3.74,0,0,1,3.6,2.35c.55-.81-.7-3.49-3.6-3.49s-4.15,2.68-3.6,3.49A3.73,3.73,0,0,1,25.78,15.28Z" transform="translate(0 -2.88)"/>
        </g>
        <g>
          <path class="cls-4" d="M20,33h0c-7.22,0-10.44-5-11.21-8-.44-1.69-.22-3,.56-3.46a1.7,1.7,0,0,1,.88-.23,5.41,5.41,0,0,1,2.34.85,15,15,0,0,0,14.94,0,5.41,5.41,0,0,1,2.34-.85,1.7,1.7,0,0,1,.88.23c.78.44,1,1.77.56,3.46a11.12,11.12,0,0,1-10.64,8H20Z" transform="translate(0 -2.88)"/>
          <path class="cls-8" d="M30.41,22c-1.68-.94-3.86,2.7-10.41,2.7S11.27,21.05,9.59,22,10.25,32.35,20,32.4H20C29.75,32.35,32.08,22.93,30.41,22Z" transform="translate(0 -2.88)"/>
          <path class="cls-9" d="M9.59,23.13c1.68-.94,3.86,2.7,10.41,2.7s8.73-3.64,10.41-2.7a1.18,1.18,0,0,1,.45.85c.13-1,0-1.75-.45-2-1.68-.94-3.86,2.7-10.41,2.7S11.27,21.05,9.59,22c-.41.24-.58,1-.45,2A1.18,1.18,0,0,1,9.59,23.13Z" transform="translate(0 -2.88)"/>
          <path class="cls-10" d="M20,27.12c6.17,0,8.65-2.16,9.36-4.62a9.52,9.52,0,0,0-1.36.63,16.09,16.09,0,0,1-16,0,9.52,9.52,0,0,0-1.36-.63C11.35,25,13.83,27.12,20,27.12Z" transform="translate(0 -2.88)"/>
          <path class="cls-11" d="M20,25.26a15.88,15.88,0,0,1-8-2.13,9.52,9.52,0,0,0-1.36-.63,6.32,6.32,0,0,0,.22.61c1.63.56,4.08,2.72,9.14,2.72s7.51-2.16,9.14-2.72a6.32,6.32,0,0,0,.22-.61,9.52,9.52,0,0,0-1.36.63A15.88,15.88,0,0,1,20,25.26Z" transform="translate(0 -2.88)"/>
          <path class="cls-12" d="M20,30.23a5.46,5.46,0,0,0-4.11,1.51A12.68,12.68,0,0,0,20,32.4H20a12.56,12.56,0,0,0,4.06-.66A5.47,5.47,0,0,0,20,30.23Z" transform="translate(0 -2.88)"/>
          <path class="cls-13" d="M23.64,31.31a12.81,12.81,0,0,1-3.6.52H20a12.81,12.81,0,0,1-3.61-.53,2.84,2.84,0,0,0-.47.44A12.68,12.68,0,0,0,20,32.4H20a12.56,12.56,0,0,0,4.06-.66A3.82,3.82,0,0,0,23.64,31.31Z" transform="translate(0 -2.88)"/>
        </g>
        <g>
          <path class="cls-14" d="M.77,20.2a2.63,2.63,0,1,0,3.71,3.72c1-1,4.39-5.93,4.39-5.93S3.3,17.68.77,20.2Z" transform="translate(0 -2.88)"/>
          <path class="cls-15" d="M2.63,24.12a2.06,2.06,0,0,1-1.46-3.51c1.7-1.7,5.05-2,6.62-2.06a61.11,61.11,0,0,1-3.71,5A2,2,0,0,1,2.63,24.12Z" transform="translate(0 -2.88)"/>
          <path class="cls-16" d="M2.63,24.12a2.06,2.06,0,0,1-1.46-3.51c1.7-1.7,5.05-2,6.62-2.06a61.11,61.11,0,0,1-3.71,5A2,2,0,0,1,2.63,24.12Z" transform="translate(0 -2.88)"/>
        </g>
        <g>
          <path class="cls-14" d="M39.23,20.2a2.63,2.63,0,1,1-3.72,3.72c-1-1-4.38-5.93-4.38-5.93S36.7,17.68,39.23,20.2Z" transform="translate(0 -2.88)"/>
          <path class="cls-17" d="M37.37,24.12a2,2,0,0,1-1.45-.6,61.11,61.11,0,0,1-3.71-5c1.57.05,4.92.36,6.62,2.06a2,2,0,0,1,.6,1.45,2,2,0,0,1-2.06,2.06Z" transform="translate(0 -2.88)"/>
          <path class="cls-18" d="M37.37,24.12a2,2,0,0,1-1.45-.6,61.11,61.11,0,0,1-3.71-5c1.57.05,4.92.36,6.62,2.06a2,2,0,0,1,.6,1.45,2,2,0,0,1-2.06,2.06Z" transform="translate(0 -2.88)"/>
        </g>
      </g>
    </g>
  </g>
</svg>
