<svg id="레이어_1" data-name="레이어 1" xmlns="http://www.w3.org/2000/svg" xmlns:xlink="http://www.w3.org/1999/xlink" viewBox="0 0 31 40">
  <defs>
    <style>
      .cls-1 {
        fill: #1e1e29;
      }

      .cls-2 {
        fill: #379bdb;
      }

      .cls-3 {
        opacity: 0.1;
      }

      .cls-4 {
        fill: #313142;
      }

      .cls-5 {
        fill: #43acf0;
      }

      .cls-6 {
        fill: url(#linear-gradient);
      }

      .cls-7 {
        fill: #54bcff;
      }

      .cls-8 {
        fill: #261b18;
      }

      .cls-9 {
        fill: #45362e;
      }

      .cls-10 {
        fill: #9c552c;
      }

      .cls-11, .cls-12 {
        fill: #66241b;
      }

      .cls-11 {
        opacity: 0.4;
      }

      .cls-12, .cls-14, .cls-24 {
        opacity: 0.7;
      }

      .cls-13 {
        fill: #bf6c3c;
      }

      .cls-14 {
        fill: #f0ded1;
      }

      .cls-15 {
        fill: #d47b48;
      }

      .cls-16 {
        fill: #78231f;
      }

      .cls-17 {
        fill: #fff7ea;
      }

      .cls-18 {
        fill: #ecdcc4;
      }

      .cls-19 {
        fill: #161110;
      }

      .cls-20 {
        fill: #b54d26;
      }

      .cls-20, .cls-22 {
        opacity: 0.3;
      }

      .cls-21 {
        fill: #f06799;
      }

      .cls-22, .cls-23, .cls-24 {
        fill: #fff;
      }

      .cls-25 {
        fill: #ffd1e2;
      }
    </style>
    <linearGradient id="linear-gradient" x1="21.38" y1="30.97" x2="21.38" y2="34.18" gradientUnits="userSpaceOnUse">
      <stop offset="0" stop-color="#854326"/>
      <stop offset="1" stop-color="#9c552c"/>
    </linearGradient>
  </defs>
  <title>1</title>
  <g>
    <g>
      <path class="cls-1" d="M16.82,32.09a12.23,12.23,0,0,0-2.05.73c-1,.55-1.5.81-1.5,1.93A24.59,24.59,0,0,1,12.69,40h3.52c.57-2.24.94-5,.94-5Z" transform="translate(-4.2 -0.03)"/>
      <path class="cls-1" d="M27.65,32.82a12.23,12.23,0,0,0-2-.73l-.33,3s.37,2.72.94,5h3.52a24,24,0,0,1-.58-5.28C29.15,33.63,28.66,33.37,27.65,32.82Z" transform="translate(-4.2 -0.03)"/>
      <path class="cls-2" d="M25.5,31.78A9.81,9.81,0,0,0,17,32c-2.45,1.56-2,4.1-1.32,8h11C27.36,36.27,27.9,33,25.5,31.78Z" transform="translate(-4.2 -0.03)"/>
      <path class="cls-3" d="M17.44,33.38a5.68,5.68,0,0,0,2.35,3l1.3-1.52,1.7,1.51A4.63,4.63,0,0,0,25.1,32.9C25.12,32,16.91,31.48,17.44,33.38Z" transform="translate(-4.2 -0.03)"/>
      <g>
        <path class="cls-1" d="M17.36,31.93s-2.85.73-3.08,1.34.53,3.74,1,6.76h2.86A28.46,28.46,0,0,0,17.36,31.93Z" transform="translate(-4.2 -0.03)"/>
        <path class="cls-4" d="M17.92,33.36c-.15-.38-2.67.54-2.62.87s1.21,3.33,2,5.8h.88A32,32,0,0,0,17.92,33.36Z" transform="translate(-4.2 -0.03)"/>
        <path class="cls-4" d="M15.24,32.66C15.19,32.93,18,34.31,18,34S18,30.79,18,30.79A9.7,9.7,0,0,0,15.24,32.66Z" transform="translate(-4.2 -0.03)"/>
      </g>
      <g>
        <path class="cls-1" d="M28.14,33.27c-.23-.61-3.08-1.34-3.08-1.34a28.46,28.46,0,0,0-.82,8.1H27.1C27.61,37,28.32,33.76,28.14,33.27Z" transform="translate(-4.2 -0.03)"/>
        <path class="cls-4" d="M24.5,33.36A32,32,0,0,0,24.22,40h.88c.81-2.47,2-5.58,2-5.8S24.65,33,24.5,33.36Z" transform="translate(-4.2 -0.03)"/>
        <path class="cls-4" d="M24.47,30.79s-.06,3-.07,3.25,2.83-1.11,2.78-1.38A9.7,9.7,0,0,0,24.47,30.79Z" transform="translate(-4.2 -0.03)"/>
      </g>
      <path class="cls-5" d="M17.46,31.12c-1.46,2.1,2.21,4.74,2.21,4.74l1.43-1.2,1.62,1.25S26,34,24.86,31.33C23.8,29,18.92,29,17.46,31.12Z" transform="translate(-4.2 -0.03)"/>
      <path class="cls-6" d="M20.22,28.63a2.6,2.6,0,0,0-1.56,2.44c-.08,1.41,1.53,3.3,2.65,3.34.84,0,4.42-2.61,1.91-5.17A3.37,3.37,0,0,0,20.22,28.63Z" transform="translate(-4.2 -0.03)"/>
      <path class="cls-7" d="M21.25,36.54a.35.35,0,1,0,0,.7.35.35,0,1,0,0-.7Z" transform="translate(-4.2 -0.03)"/>
      <path class="cls-7" d="M21.25,38.52a.35.35,0,1,0,0,.69.35.35,0,1,0,0-.69Z" transform="translate(-4.2 -0.03)"/>
    </g>
    <g>
      <path class="cls-8" d="M6.38,2.14a6.13,6.13,0,0,0-.65,8.74c2.12,2.48,6.11,2.6,8.91.28S18,5,15.88,2.49,9.18-.18,6.38,2.14Z" transform="translate(-4.2 -0.03)"/>
      <path class="cls-9" d="M6.93,2.59C5.58,3.71,4.73,5.74,5.66,7.21c.78,1.24,1.3-.15,1.5-1,.69,1.25,1.27-.35,1.27-1.14C9,5.61,9.92,4.5,10,4,11.14,3.7,12,2.48,13,2,11.86.36,8.32,1.44,6.93,2.59Z" transform="translate(-4.2 -0.03)"/>
      <path class="cls-8" d="M28.24,2.49C20-3.11,9.07,1.66,7.56,8.88A13.75,13.75,0,0,0,11,21.31c1.44,1.58,2.47,3.46,3.88,5s2.89-1.1,4-1.74a8.06,8.06,0,0,1,5-1.06c1.53.21,2.61,1.78,4.16,1.81,2,0,2.6-3.32,3.07-4.74s.75-2.67,1.05-4C33.56,10.54,32.51,5.4,28.24,2.49Z" transform="translate(-4.2 -0.03)"/>
      <path class="cls-10" d="M19.24,4.23c-5.58,1.09-9.49,9-8.44,16.4.85,6,6,11.14,11.72,11.15,5.42,0,10-8.67,9.1-15.49C30.66,8.88,27.06,2.7,19.24,4.23Z" transform="translate(-4.2 -0.03)"/>
      <path class="cls-11" d="M26.45,5.37a25.53,25.53,0,0,0-6.78-1c-2,0-4.26-.14-6.16.72-1,.46-2.32,1.11-2.71,2.25a10.1,10.1,0,0,0,0,4.64,12.34,12.34,0,0,0,1.52,4.57,19.48,19.48,0,0,1,.73-2.87c.7-3.08,2.7-4.2,5.13-4.61a48,48,0,0,1,6.36-.24c1.11,0,7.5,1,6.12-1.5C30,6.18,27.58,5.7,26.45,5.37Z" transform="translate(-4.2 -0.03)"/>
      <path class="cls-10" d="M8.84,17.56c-2.74.75-1.47,5,.78,5.76a2.34,2.34,0,0,0,2.05-.07l.05-.06c.32-.52-.15-3.38-.32-3.93C11,17.91,10.15,17.19,8.84,17.56Z" transform="translate(-4.2 -0.03)"/>
      <path class="cls-12" d="M9.81,19c-.62-.28-2.16.23-1.43,1.42.38-1.1,1.06-.39,1,.4-.07.52-.64.53-.07,1.2.31.36.93.22,1.24,0C11.51,21.43,10.56,19.34,9.81,19Z" transform="translate(-4.2 -0.03)"/>
      <path class="cls-8" d="M23.79,2A19.12,19.12,0,0,0,18,1.82c-3.16.38-7,1.87-8,5.17-.61,2-.28,4.37-.12,6.44.1,1.25-.4,3.68.69,4.62,1.27,1.09,1.77-.56,1.88-1.76a21.59,21.59,0,0,1,.41-4.1C13.89,9,15.6,8.41,20.23,8c2.4-.19,8.34-.66,9.49,1.44.42.78,3.91-1.53.75-5C29.09,3,25.73,2.33,23.79,2Z" transform="translate(-4.2 -0.03)"/>
      <path class="cls-9" d="M28.4,3.6C25.14.46,19.85.43,15.64,1.56a10,10,0,0,0-4,2.21,9.36,9.36,0,0,0-2,2.45A5.53,5.53,0,0,0,9,9.45c.07.75.73,2.34,1.9,1.91a21.08,21.08,0,0,0-.28-2.24c.25.16,1.36.88,1.69.69s.13-1.23.18-1.55c1.34,1.4,2-.71,1.9-1.81.57.32,1,.93,1.56,1.2.84.4,1.74-.05,2.69-.23A31,31,0,0,1,22.34,7c1.29-.06,1.53.09,2-1.06a1.2,1.2,0,0,0,.5.89,1.28,1.28,0,0,0,.71-1.2c0,1.3,3,2.05,4,1.74C31.1,6.85,29.35,4.52,28.4,3.6Z" transform="translate(-4.2 -0.03)"/>
    </g>
    <g>
      <path class="cls-12" d="M12.89,18.28c0,.47,1.11.25,1.44.32-.29.29-1.13.29-1.48.49s-.33.35.11.34a8.6,8.6,0,0,0,1.92-.5C15.68,18.26,13.26,18.18,12.89,18.28Z" transform="translate(-4.2 -0.03)"/>
      <path class="cls-12" d="M31.27,18.73c-.26-.21-.88-.24-1.09-.54.23-.06,1.23.21,1.23-.26-.27-.11-2.23-.13-1.63.56a5.12,5.12,0,0,0,1.42.58C31.52,19.09,31.54,19,31.27,18.73Z" transform="translate(-4.2 -0.03)"/>
      <path class="cls-13" d="M30.53,20.25a2.42,2.42,0,0,0-2.05-.54c-.86.08-2,.52-1.1,1.66.46.61,3.89.74,3.37-.73A1.24,1.24,0,0,0,30.53,20.25Z" transform="translate(-4.2 -0.03)"/>
      <path class="cls-13" d="M17.24,20.53a2.5,2.5,0,0,0-2.1-.41c-.85.12-2.32.91-1.09,1.75.88.62,4.07.41,3.43-1A1.25,1.25,0,0,0,17.24,20.53Z" transform="translate(-4.2 -0.03)"/>
      <path class="cls-8" d="M16.71,16.61c-2-.52-3.25,1.67-1.89,2.39a4.54,4.54,0,0,1,2,.09A1.26,1.26,0,0,0,16.71,16.61Z" transform="translate(-4.2 -0.03)"/>
      <path class="cls-12" d="M22.6,20c-.5,0-.94-.27-1.41,0s.08,1,1.4,1,1.69-.73,1.44-1S23.16,20,22.6,20Z" transform="translate(-4.2 -0.03)"/>
      <path class="cls-13" d="M22.57,17.65c-.94-.09-1.67,1.63-1.26,2.2A3,3,0,0,0,24,19.79C24.1,19.62,23.47,17.73,22.57,17.65Z" transform="translate(-4.2 -0.03)"/>
      <path class="cls-14" d="M16.56,17.77c-.61.17-.14,1.14.45.79C17.44,18.3,17.1,17.62,16.56,17.77Z" transform="translate(-4.2 -0.03)"/>
      <path class="cls-8" d="M29.44,16.1c-2.06-.26-3,2.08-1.55,2.6a4.44,4.44,0,0,1,2-.16A1.26,1.26,0,0,0,29.44,16.1Z" transform="translate(-4.2 -0.03)"/>
      <path class="cls-14" d="M29.38,17.3c-.57.25,0,1.15.54.72S29.88,17.08,29.38,17.3Z" transform="translate(-4.2 -0.03)"/>
      <g>
        <path class="cls-15" d="M28.57,23.12c-3.46-.57-8.87.22-12,.3-.25,0-.46.09-.34.36.48,1.14,2.34,5.36,6.66,5.33,3.62,0,4-2.52,4.14-3.82.09-.65,1.08-1.43,1.84-1.9C29.08,23.23,28.89,23.18,28.57,23.12Z" transform="translate(-4.2 -0.03)"/>
        <path class="cls-16" d="M16.67,23.85a5.76,5.76,0,0,0,5.64,3.32c3.81-.16,4.3-1.36,4.5-2.21a2.5,2.5,0,0,1,1.32-1.58A28.43,28.43,0,0,1,16.67,23.85Z" transform="translate(-4.2 -0.03)"/>
        <path class="cls-17" d="M18.05,24.19a1.72,1.72,0,0,0,1.29,1.55,10.12,10.12,0,0,0,5.45.11c1.29-.3,2.1-2,2.1-2A45.34,45.34,0,0,1,18.05,24.19Z" transform="translate(-4.2 -0.03)"/>
        <path class="cls-17" d="M23.29,25.88a14.09,14.09,0,0,1-4.19-.39c-.7-.22-.72.1-.6.39,0,0,.19,1.17,3.48,1.33,2.87.14,4.18-1.37,3.87-1.67S25.1,25.84,23.29,25.88Z" transform="translate(-4.2 -0.03)"/>
        <path class="cls-18" d="M18,24.17a1.59,1.59,0,0,0,.12.5S25,24,26.53,24.45a2.66,2.66,0,0,0,.36-.64A52.57,52.57,0,0,1,18,24.17Z" transform="translate(-4.2 -0.03)"/>
        <path class="cls-18" d="M19.47,25.49a9.88,9.88,0,0,0,6,0A15.19,15.19,0,0,1,19.47,25.49Z" transform="translate(-4.2 -0.03)"/>
      </g>
      <path class="cls-19" d="M15.69,16c-1.08.25-2.44,1.36-4.2.14,0,0,.61,2,4.1.78a1.91,1.91,0,0,1,2.22,1S17.8,15.54,15.69,16Z" transform="translate(-4.2 -0.03)"/>
      <path class="cls-19" d="M29.33,15.73c-2-.49-2.09,1.79-2.09,1.79a1.83,1.83,0,0,1,2.21-.84c3.16,1.15,3.85-.77,3.85-.77C31.58,17.08,30.34,16,29.33,15.73Z" transform="translate(-4.2 -0.03)"/>
      <path class="cls-8" d="M26,14.14c2,.09,2.92-.06,5.75-.11C30.47,12.58,27,12.42,26,14.14Z" transform="translate(-4.2 -0.03)"/>
      <path class="cls-8" d="M12.3,14c2.83.05,3.78.2,5.75.11C17,12.42,13.56,12.58,12.3,14Z" transform="translate(-4.2 -0.03)"/>
    </g>
    <g>
      <path class="cls-20" d="M30.08,14.1a14.82,14.82,0,0,0-3.1.48,13.26,13.26,0,0,0-2.68.74,3.16,3.16,0,0,1-1.94.59c-1.59-.07-2.92-1.07-4.51-1.24a13.19,13.19,0,0,0-5,.07c-.42.11-1.7.6-.84,1.06a7.52,7.52,0,0,0,3,.35c.43,0,.86,0,1.28.07,1.51.14,3.83-.06,3.71,1.83a3.17,3.17,0,0,1-2,2.88,13.62,13.62,0,0,1-3.11.31,5.49,5.49,0,0,1-2.25-.49c-.2-.1-.8-.49-1-.22-.33.47.89,1.25,1.21,1.4a7.67,7.67,0,0,0,2.32.52c2,.22,4,.12,5.11-1.7.65-1.05,1-2.29,1.57-3.37,1-1.76,1.44.64,1.75,1.69a5.32,5.32,0,0,0,.78,1.67,4,4,0,0,0,2.93,1.42,4.45,4.45,0,0,0,1.91-.25c.36-.15.51-.58.07-.75a3.41,3.41,0,0,0-1,0,7.09,7.09,0,0,1-1.22-.1,3.61,3.61,0,0,1-1.45-.63,2.55,2.55,0,0,1-.91-3.05c.37-1,1.46-1.08,2.37-1.16,1.1-.09,2.22-.07,3.32-.17a11.87,11.87,0,0,1,1.46,0c.63,0,2-.18,1.24-1.1S31.1,14.05,30.08,14.1Z" transform="translate(-4.2 -0.03)"/>
      <path class="cls-21" d="M11.32,14c-1.3,0-2.41-.33-2.72-.07s.3,1.51.3,1.51a2.17,2.17,0,0,0,1,.35c.08.91,0,3.25,1.69,4.73,1.38,1.24,5.89,1.6,7.3.89a5.45,5.45,0,0,0,2.8-4.11C22.47,13.39,13.15,14,11.32,14ZM19,20.39c-1.72,1.11-6.11.58-7.25-.84-.87-1.1-1-3.38-.49-3.71,1.65-1,7.83-.6,9.26.5C21.22,16.87,20.31,19.55,19,20.39Z" transform="translate(-4.2 -0.03)"/>
      <path class="cls-21" d="M32.63,13.71c-1.66,0-10.08-.31-9.29,3.61a5.52,5.52,0,0,0,2.64,4c1.29.66,5.36.17,6.57-1.11,1.46-1.53,1.34-3.87,1.39-4.78a1.92,1.92,0,0,0,.91-.37s.6-1.19.23-1.52S33.81,13.71,32.63,13.71Zm-.24,5.53c-1,1.45-4.94,2.11-6.52,1.05-1.2-.81-2.1-3.45-1.49-4,1.26-1.15,6.84-1.72,8.35-.77C33.23,15.82,33.15,18.12,32.39,19.24Z" transform="translate(-4.2 -0.03)"/>
      <path class="cls-22" d="M25.47,15.93c-.91.4.75.89,1.11.94a12.13,12.13,0,0,0,4-.15c.7-.13,2.19-.76,1.76-1.15C31.71,15,26.49,15.5,25.47,15.93Z" transform="translate(-4.2 -0.03)"/>
      <path class="cls-23" d="M29.57,15.7c-.5.08-.82.23-.69.45.27.45,3.2.19,3.39-.15S30.63,15.53,29.57,15.7Z" transform="translate(-4.2 -0.03)"/>
      <path class="cls-24" d="M26.4,19.36c-.31,0-.53.05-.47.25.1.39,1.92.64,2.08.41S27.07,19.39,26.4,19.36Z" transform="translate(-4.2 -0.03)"/>
      <path class="cls-24" d="M12.76,19.22c-.32,0-.56,0-.53.19.06.4,1.93.88,2.14.66S13.46,19.34,12.76,19.22Z" transform="translate(-4.2 -0.03)"/>
      <path class="cls-22" d="M19.84,16.11c-1.16-.42-6.92-.86-7.52-.35-.42.37,1.28,1,2.06,1.1a15.7,15.7,0,0,0,4.36.14C19.12,17,20.89,16.49,19.84,16.11Z" transform="translate(-4.2 -0.03)"/>
      <path class="cls-23" d="M17.33,15.77c-.53,0-.89.12-.77.36.22.48,3.31.59,3.56.28S18.46,15.73,17.33,15.77Z" transform="translate(-4.2 -0.03)"/>
      <path class="cls-21" d="M24.44,15a4.93,4.93,0,0,1-4.05,0c-1.27-.45.66.83.81,1.49s-.08,2.68.36,1.48,1.33-1.28,1.89-.17.53-1.85.76-2.12S25.64,14.4,24.44,15Z" transform="translate(-4.2 -0.03)"/>
      <path class="cls-25" d="M11.93,14.43c3.51.18,6.31.28,8.43,1.11C19,14.4,16.6,14.14,11.93,14.43Z" transform="translate(-4.2 -0.03)"/>
      <path class="cls-25" d="M32.33,14c-4.28.15-6.28.18-7.43,1.27C26.76,14.41,29.15,14.47,32.33,14Z" transform="translate(-4.2 -0.03)"/>
    </g>
  </g>
</svg>
