<svg id="레이어_1" data-name="레이어 1" xmlns="http://www.w3.org/2000/svg" viewBox="0 0 39.81 40">
  <defs>
    <style>
      .cls-1 {
        fill: #e3ca95;
      }

      .cls-1, .cls-2, .cls-3 {
        fill-rule: evenodd;
      }

      .cls-2 {
        fill: #576d64;
      }
    </style>
  </defs>
  <title>1</title>
  <g>
    <polygon class="cls-1" points="16.35 12.66 19.06 13.42 23.23 12.66 21.65 12 20.6 10.76 23.23 6.76 23.23 3.34 22.72 1.48 20.73 0.5 17.57 0.93 16.14 2.08 15.64 5.06 16.75 8.22 17.8 10.49 18.07 11.44 17.57 12 16.35 12.66"/>
    <polygon class="cls-1" points="4.37 32.86 6.81 33.57 10.58 32.86 9.15 32.26 9.02 30.86 10.58 27.42 10.58 24.26 10.12 22.55 8.32 21.64 5.47 22.04 4.17 23.11 3.73 25.85 4.73 28.77 5.68 30.86 5.92 31.73 5.47 32.26 4.37 32.86"/>
    <polygon class="cls-1" points="28.96 33.05 31.66 33.82 35.84 33.05 34.25 32.4 34.1 30.89 35.84 27.16 35.84 23.73 35.33 21.87 33.34 20.89 30.18 21.32 28.74 22.48 28.25 25.45 29.36 28.62 30.41 30.89 30.68 31.83 30.18 32.4 28.96 33.05"/>
    <polygon class="cls-2" points="16.25 12.1 14.16 13.09 13.2 14.54 13.28 17.31 14.21 18.22 24.32 18.22 26.24 17.68 26.8 15.44 25.63 13.42 22.82 11.86 20.45 13.02 17.68 12.8 16.25 12.1"/>
    <polygon class="cls-2" points="28.22 32.86 30.63 33.62 33.98 33.37 35.19 33.01 38.09 34.51 39.1 36.53 39.1 38.41 37.02 39.06 27.99 39.53 26.23 38.94 25.63 36.37 26.73 33.73 28.22 32.86"/>
    <polygon class="cls-2" points="5.68 33.37 3.92 32.86 1.4 34.16 0.85 35.25 0.67 37.9 1.45 39.31 3.75 38.9 8.07 39.1 12.56 39.34 13.81 38.99 14.16 36.48 13.28 34.51 11.9 33.3 10.36 32.86 7.54 33.57 5.68 33.37"/>
    <path class="cls-2" d="M5,33.41a38.1,38.1,0,0,0-3.78,5.32c-.21.37.35.82.63.46,1.39-1.82,2.63-3.74,4-5.57A6.21,6.21,0,0,1,5,33.41Z" transform="translate(-0.09 0)"/>
    <path class="cls-2" d="M9.29,33.53a30.72,30.72,0,0,0-3.46,4.94c-.17.34.28.72.56.41a55.56,55.56,0,0,0,3.77-5.29.26.26,0,0,0,.05-.24l-.93.18Z" transform="translate(-0.09 0)"/>
    <path class="cls-2" d="M11.48,33.4c-.6.93-1.19,1.86-1.79,2.78a14.26,14.26,0,0,0-1.51,2.55c-.11.3.33.49.53.29a14.76,14.76,0,0,0,1.65-2.47l1.74-2.8C12.34,33.36,11.72,33,11.48,33.4Z" transform="translate(-0.09 0)"/>
    <path class="cls-2" d="M12.61,34.68,11.08,36.9A10.51,10.51,0,0,0,9.76,39c-.11.32.32.47.53.29a10.23,10.23,0,0,0,1.43-2L13.23,35C13.49,34.64,12.87,34.3,12.61,34.68Z" transform="translate(-0.09 0)"/>
    <path class="cls-2" d="M13.62,36.13c-.53.92-1.17,1.76-1.75,2.65-.23.34.3.72.57.42a14.19,14.19,0,0,0,1.82-2.72A.37.37,0,0,0,13.62,36.13Z" transform="translate(-0.09 0)"/>
    <path class="cls-2" d="M15.37,13.07,14.3,14.64a5.53,5.53,0,0,0-.91,1.5c-.08.27.27.56.5.38a5.35,5.35,0,0,0,1-1.4l1.12-1.67C16.34,13,15.66,12.65,15.37,13.07Z" transform="translate(-0.09 0)"/>
    <path class="cls-2" d="M17.37,12.94a29.81,29.81,0,0,0-3.08,5c-.15.33.26.7.53.4A31.44,31.44,0,0,0,18.35,13Z" transform="translate(-0.09 0)"/>
    <path class="cls-2" d="M19.37,13.09A21.6,21.6,0,0,0,17,17.33a.36.36,0,0,0,.61.34,34.22,34.22,0,0,0,2.8-4.55Z" transform="translate(-0.09 0)"/>
    <path class="cls-2" d="M24,13.19a36.23,36.23,0,0,0-2.84,4.7.39.39,0,0,0,.68.37c.9-1.6,1.77-3.19,2.8-4.72C24.91,13.15,24.26,12.8,24,13.19Z" transform="translate(-0.09 0)"/>
    <path class="cls-2" d="M25.64,14c-.38.68-.76,1.36-1.15,2a10.72,10.72,0,0,0-1,1.91.33.33,0,0,0,.55.3,10.61,10.61,0,0,0,1.09-1.84l1.12-2a.37.37,0,0,0-.64-.36Z" transform="translate(-0.09 0)"/>
    <path class="cls-2" d="M28.14,33.2l-.06.06c-.72,1.2-1.64,2.31-2.31,3.54a.35.35,0,0,0,.55.4,21.35,21.35,0,0,0,2.39-3.59.31.31,0,0,0,0-.26Z" transform="translate(-0.09 0)"/>
    <path class="cls-2" d="M29.87,33.54c-1.19,1.79-2.4,3.58-3.55,5.4-.28.45.44.84.73.4,1.26-1.88,2.46-3.81,3.68-5.72-.29,0-.58,0-.86-.08Z" transform="translate(-0.09 0)"/>
    <path class="cls-2" d="M31.81,33.64a17.31,17.31,0,0,0-2.76,4.57c-.12.33.4.62.61.33.64-.87,1.11-1.87,1.68-2.78.48-.75,1-1.48,1.52-2.19C32.51,33.61,32.16,33.63,31.81,33.64Z" transform="translate(-0.09 0)"/>
    <path class="cls-2" d="M34.71,33.21l-.64.16c-1,1.75-2.22,3.42-3.22,5.19-.19.34.31.75.57.42a47.88,47.88,0,0,0,3.33-5.39A.33.33,0,0,0,34.71,33.21Z" transform="translate(-0.09 0)"/>
    <path class="cls-2" d="M35.73,33.55a49.47,49.47,0,0,0-2.64,4.56c-.21.47.45.85.7.39.94-1.48,1.72-3.07,2.61-4.58C36.66,33.5,36,33.13,35.73,33.55Z" transform="translate(-0.09 0)"/>
    <path class="cls-2" d="M37.41,34.34c-.51.71-1,1.44-1.49,2.17a8.19,8.19,0,0,0-1.18,2.12.37.37,0,0,0,.63.34,12,12,0,0,0,1.3-2c.46-.75.94-1.48,1.44-2.2C38.41,34.3,37.71,33.93,37.41,34.34Z" transform="translate(-0.09 0)"/>
    <path class="cls-2" d="M38.63,35.89q-.51.7-1,1.41a6.27,6.27,0,0,0-.85,1.37c-.15.37.37.54.61.33a6.86,6.86,0,0,0,1-1.29l1-1.42c.31-.44-.43-.84-.74-.4Z" transform="translate(-0.09 0)"/>
    <path class="cls-1" d="M18.26,1.06c-.67,1.2-1.54,2.31-2.21,3.52a.34.34,0,0,0,.54.39A19.57,19.57,0,0,0,18.9,1.41.37.37,0,0,0,18.26,1.06Z" transform="translate(-0.09 0)"/>
    <path class="cls-1" d="M20.38.45l-2,3.31a15.46,15.46,0,0,0-1.71,3c-.11.34.36.56.59.33a15.52,15.52,0,0,0,1.89-2.94c.67-1.11,1.33-2.22,2-3.33C21.39.39,20.66,0,20.38.45Z" transform="translate(-0.09 0)"/>
    <path class="cls-1" d="M22,1.15c-1.42,2.31-3.25,4.67-4.3,7.17-.15.36.3.79.6.43,1.76-2.12,3-4.84,4.42-7.2.28-.46-.45-.86-.72-.4Z" transform="translate(-0.09 0)"/>
    <path class="cls-1" d="M22.41,3.9c-1,1.8-2.35,3.47-3.3,5.3a.41.41,0,0,0,.66.48,26.69,26.69,0,0,0,3.38-5.37A.42.42,0,0,0,22.41,3.9Z" transform="translate(-0.09 0)"/>
    <path class="cls-1" d="M6.65,22.32a33.45,33.45,0,0,0-2.34,3.51c-.19.37.3.77.59.44a32.56,32.56,0,0,0,2.47-3.55C7.66,22.28,6.94,21.89,6.65,22.32Z" transform="translate(-0.09 0)"/>
    <path class="cls-1" d="M8.57,22.34a45.25,45.25,0,0,0-4,5.83.4.4,0,0,0,.64.47.74.74,0,0,0,.16-.23c1.28-1.83,2.44-3.72,3.79-5.51C9.47,22.49,8.89,21.93,8.57,22.34Z" transform="translate(-0.09 0)"/>
    <path class="cls-1" d="M10.25,23.29c-.78,1.07-1.58,2.13-2.4,3.17a23.35,23.35,0,0,0-2,2.64c-.23.4.3.73.61.45a20.15,20.15,0,0,0,2.44-3c.72-.94,1.41-1.9,2.1-2.86C11.3,23.26,10.56,22.86,10.25,23.29Z" transform="translate(-0.09 0)"/>
    <path class="cls-1" d="M10.38,26c-.59.84-1.21,1.68-1.84,2.5A18,18,0,0,0,7,30.58a.39.39,0,0,0,.62.46,14.39,14.39,0,0,0,1.76-2.2c.6-.83,1.18-1.65,1.75-2.49C11.39,25.91,10.68,25.53,10.38,26Z" transform="translate(-0.09 0)"/>
    <path class="cls-1" d="M30.73,21.88c-.42.48-.81,1-1.18,1.48A4.24,4.24,0,0,0,28.61,25c0,.27.25.58.52.38a5,5,0,0,0,1-1.31c.38-.54.79-1.05,1.22-1.55s-.26-1-.63-.61Z" transform="translate(-0.09 0)"/>
    <path class="cls-1" d="M33.2,21.09c-.65,1.06-1.34,2.09-2.07,3.08s-1.46,1.75-2.06,2.7c-.24.39.31.73.61.45a25,25,0,0,0,4.23-5.84C34.18,21,33.47,20.64,33.2,21.09Z" transform="translate(-0.09 0)"/>
    <path class="cls-1" d="M34.67,22.22l-2.49,3.43a21.2,21.2,0,0,0-2.4,3.49.36.36,0,0,0,.57.42,19.59,19.59,0,0,0,2.44-3.27l2.6-3.67C35.7,22.19,35,21.8,34.67,22.22Z" transform="translate(-0.09 0)"/>
    <path class="cls-1" d="M35.35,24.75c-1.39,1.81-2.91,3.57-4.17,5.47-.27.41.37.88.69.51,1.47-1.7,2.74-3.6,4.09-5.4C36.28,24.9,35.68,24.32,35.35,24.75Z" transform="translate(-0.09 0)"/>
    <path class="cls-1" d="M35.26,27.86c-.5.57-1,1.14-1.48,1.72a10.55,10.55,0,0,0-1.34,1.64c-.15.27.2.67.48.45a11.05,11.05,0,0,0,1.4-1.57l1.46-1.75C36.07,28,35.56,27.51,35.26,27.86Z" transform="translate(-0.09 0)"/>
    <path class="cls-2" d="M22,12.74q-.84,1.32-1.65,2.67A13.29,13.29,0,0,0,19,17.9c-.11.31.35.56.57.31a17,17,0,0,0,1.46-2.43q.78-1.35,1.59-2.7C22.88,12.69,22.25,12.35,22,12.74Z" transform="translate(-0.09 0)"/>
    <path class="cls-1" d="M19,11a7.12,7.12,0,0,0-.81,1.38c-.13.38.4.62.66.36a3.33,3.33,0,0,0,.43-.67c.14-.22.28-.45.41-.68C20,10.9,19.31,10.52,19,11Z" transform="translate(-0.09 0)"/>
    <path class="cls-1" d="M20.42,11.06a6.91,6.91,0,0,0-.78,1.37c-.11.35.35.55.58.33a6.48,6.48,0,0,0,.87-1.33C21.36,11,20.68,10.64,20.42,11.06Z" transform="translate(-0.09 0)"/>
    <path class="cls-1" d="M7.43,31.47a.38.38,0,0,0-.51.15,12,12,0,0,0-.87,1.28c-.18.35.3.74.58.42a14.08,14.08,0,0,0,1-1.34A.37.37,0,0,0,7.43,31.47Z" transform="translate(-0.09 0)"/>
    <path class="cls-1" d="M8.42,31.62a14.73,14.73,0,0,0-.89,1.19c-.23.33.28.68.56.41s.62-.69.92-1-.27-1-.59-.56Z" transform="translate(-0.09 0)"/>
    <path class="cls-3" d="M10.7,32.67a16.53,16.53,0,0,1-6,.26c-.42,0-.59.58-.16.64,2.11.32,4.49.75,6.5-.22C11.42,33.16,11.1,32.57,10.7,32.67Z" transform="translate(-0.09 0)"/>
    <path class="cls-1" d="M31.46,31.6l-.57.84a2.67,2.67,0,0,0-.5.84.36.36,0,0,0,.54.39,2.76,2.76,0,0,0,.63-.8c.2-.29.39-.59.59-.89S31.75,31.19,31.46,31.6Z" transform="translate(-0.09 0)"/>
    <path class="cls-1" d="M32.82,31.6a6.66,6.66,0,0,1-.49.91,2,2,0,0,0-.43.89.35.35,0,0,0,.44.32c.35-.11.52-.46.7-.76a8.06,8.06,0,0,0,.5-1C33.75,31.51,33,31.11,32.82,31.6Z" transform="translate(-0.09 0)"/>
    <path class="cls-3" d="M35.34,32.55a27,27,0,0,1-3.36.69,9.52,9.52,0,0,1-3.39-.5c-.52-.18-.71.64-.21.82,2.14.78,5.32,1.12,7.26-.33a.38.38,0,0,0-.3-.68Z" transform="translate(-0.09 0)"/>
    <path class="cls-3" d="M22.76,12a14.6,14.6,0,0,1-6.41.15.44.44,0,0,0-.22.85,10.48,10.48,0,0,0,7-.25c.46-.21.08-.82-.34-.75Z" transform="translate(-0.09 0)"/>
    <path class="cls-3" d="M14.05,34.24a6.36,6.36,0,0,0-1.74-1.35c-.5-.28-3.12-1-2.91-1.65a.36.36,0,0,0,0-.34l.21-.22c1.87-2.12,2.1-5.4,1.33-8a.42.42,0,0,0-.33-.29c-1-1.85-4.52-1.65-6-.52-2.08,1.61-.88,5.76,0,7.7A5.93,5.93,0,0,0,5.72,31.2c-.48,1.75-3,1.34-4.27,2.23A3.63,3.63,0,0,0,.09,36.58c0,.94,0,2.47,1,3a6,6,0,0,0,2.49.06c1,0,2,0,3.05,0a54.17,54.17,0,0,0,5.69.26c1.19-.1,2.21-.29,2.34-1.59s.27-2.94-.62-4Zm11.1-2.93c.19.38-.1,1-.6.83a4.78,4.78,0,0,1-1.3-1c-.43-.38-.86-.74-1.3-1.1l-.11-.12a3.05,3.05,0,0,1-.84.44,3.87,3.87,0,0,1-3.34-.24c-.31.33-.63.65-.95,1a7.35,7.35,0,0,1-1.1,1.06c-.41.28-1-.25-.71-.68a9.14,9.14,0,0,1,1-1.13l1-1a2.71,2.71,0,0,1-.23-.76,4.27,4.27,0,0,1,2.43-4.83c0-.35,0-.71,0-1V20.6a.54.54,0,0,1,1.08,0c0,.7,0,1.4,0,2.09a10.72,10.72,0,0,1,0,1.5A3.21,3.21,0,0,1,23,26.22a3.29,3.29,0,0,1-.38,2.88.31.31,0,0,1,.14.09c.43.33.84.67,1.25,1a4,4,0,0,1,1.12,1.11Zm-4.67-2A2.15,2.15,0,0,0,22,26.7a2.28,2.28,0,0,0-2.78-1.33.62.62,0,0,1-.46-.12,3.26,3.26,0,0,0-.93,2.63c.16,1.54,1.37,1.85,2.69,1.44Zm6.82-14a5,5,0,0,0-1.85-2.91,4.51,4.51,0,0,0-1.67-.79c-.92-.24-2.09-.09-2.56-1a4.07,4.07,0,0,0,1.45-1.19,6.78,6.78,0,0,0,.88-4.06c0-1.22.49-3.26-.3-4.31S20.89-.08,19.74,0a4.6,4.6,0,0,0-3.5,1c-.95,1-.92,2.6-.79,3.89.18,1.92.67,4.59,2.31,5.66a3.45,3.45,0,0,1-2.37,1.49,3.15,3.15,0,0,0-1.58.81c-1.08,1.08-1.15,2.84-.91,4.26.2,1.19.74,1.39,1.87,1.48,2.16.15,4.34.15,6.51.13,1,0,2,0,3.06-.06a4.55,4.55,0,0,0,2.24-.45c.85-.61.9-2,.72-2.95ZM16.57,4.92a5.14,5.14,0,0,1,.19-2.64,2.53,2.53,0,0,1,2.47-1.22.62.62,0,0,0,.29.07c.89,0,2.66-.13,3,1a11.35,11.35,0,0,1,0,2.79c0,2,0,4.34-2.36,4.95-2.66.69-3.32-3-3.51-4.94Zm9.68,11.25c-.26,1.9-3.28,1.47-4.73,1.48s-3,0-4.43,0c-.78,0-1.56-.05-2.35-.1-1-.06-.82-.68-.84-1.54a2.78,2.78,0,0,1,1-2.61,16.05,16.05,0,0,1,1.86-.57A3.79,3.79,0,0,0,18.74,11a4,4,0,0,0,1,0,1.88,1.88,0,0,0,.33-.05c.39,1.66,3.07,1.38,4.26,2a3.57,3.57,0,0,1,1.93,3.13ZM39.89,36.74a4.61,4.61,0,0,0-1.61-3.09c-1.16-1-3.5-.8-4-2.34,1.75-1.37,2.38-4.5,2.34-6.42a4.09,4.09,0,0,0-1.35-3.46c-1-.72-2.42-1.35-3.54-.74h0a4.92,4.92,0,0,0-2.88.88c-1.05.84-.73,2.87-.74,4.05,0,1.92.51,4.46,2.06,5.67-.28.73-1.59,1-2.22,1.29a5.41,5.41,0,0,0-1.59,1,4.61,4.61,0,0,0-.89,3.75c.08,1.16.43,2.38,1.72,2.55a35.93,35.93,0,0,0,5.77-.16l3-.11a10.62,10.62,0,0,0,2.52-.16c1.22-.34,1.5-1.6,1.4-2.74ZM29.15,26.08a13.38,13.38,0,0,1,.05-2.61,2.41,2.41,0,0,1,2.56-1.76.45.45,0,0,0,.41,0h0a4,4,0,0,1,.5.06.46.46,0,0,0,.46-.14,3.47,3.47,0,0,1,1.75.88c.73.75.69,2.09.63,3.06-.08,1.72-.9,5.05-3,5.31-2.59.31-3.33-2.89-3.37-4.81Zm8.56,12.37a9.56,9.56,0,0,1-2.27.08l-2.28.08-4.3.16c-.93,0-1.84.34-2.22-.73a5.92,5.92,0,0,1-.1-2.34c.31-2.57,3.67-2,4.54-3.88a3.63,3.63,0,0,0,1.54.16,3.32,3.32,0,0,0,.58-.11c.27,1.86,3.31,1.68,4.43,2.71s1.92,3.26.08,3.87ZM4.48,24.25a2.19,2.19,0,0,1,2-2.16c.38-.08,3.4-.1,3.18.74a.46.46,0,0,0,.52.54A8.31,8.31,0,0,1,10,28.23a4.93,4.93,0,0,1-1.52,2.3,1.54,1.54,0,0,1-1.83.2.39.39,0,0,0-.25-.18,3.13,3.13,0,0,1-.67-.83,9.83,9.83,0,0,1-1.23-5.47Zm9.2,13.52c-.12,1.08-.78,1.07-1.81,1.12-1.57.07-3.18-.22-4.75-.28-.84,0-1.69,0-2.53,0a12.77,12.77,0,0,1-2.54.08c-1-.22-.94-1.25-.93-2.09a2.52,2.52,0,0,1,1.15-2.39c1.31-.76,4-.7,4.39-2.38l.14,0a2.28,2.28,0,0,0,1.62-.23,1.56,1.56,0,0,0,1,1.28c1.37.64,3.24.77,4.07,2.28a5.22,5.22,0,0,1,.19,2.61Z" transform="translate(-0.09 0)"/>
  </g>
</svg>
