<svg xmlns="http://www.w3.org/2000/svg" xmlns:xlink="http://www.w3.org/1999/xlink" viewBox="0 0 40 40">
  <defs>
    <style>
      .cls-1 {
        isolation: isolate;
      }

      .cls-2 {
        fill: url(#linear-gradient);
      }

      .cls-3, .cls-4 {
        opacity: 0.25;
      }

      .cls-10, .cls-3, .cls-5, .cls-6, .cls-8, .cls-9 {
        mix-blend-mode: multiply;
      }

      .cls-3 {
        fill: url(#radial-gradient);
      }

      .cls-4 {
        fill: #fff;
      }

      .cls-10, .cls-12, .cls-13, .cls-5, .cls-9 {
        opacity: 0.35;
      }

      .cls-5 {
        fill: url(#linear-gradient-2);
      }

      .cls-6, .cls-8 {
        opacity: 0.5;
      }

      .cls-6 {
        fill: url(#linear-gradient-3);
      }

      .cls-7 {
        fill: #5d4037;
      }

      .cls-8 {
        fill: url(#linear-gradient-4);
      }

      .cls-9 {
        fill: url(#linear-gradient-5);
      }

      .cls-10 {
        fill: url(#linear-gradient-6);
      }

      .cls-11 {
        fill: #4e342e;
      }

      .cls-12, .cls-13 {
        mix-blend-mode: screen;
      }

      .cls-12 {
        fill: url(#linear-gradient-7);
      }

      .cls-13 {
        fill: url(#linear-gradient-8);
      }
    </style>
    <linearGradient id="linear-gradient" x1="20" y1="-0.67" x2="20" y2="40.75" gradientUnits="userSpaceOnUse">
      <stop offset="0" stop-color="#ffe082"/>
      <stop offset="1" stop-color="#ffbf66"/>
    </linearGradient>
    <radialGradient id="radial-gradient" cx="20" cy="20" r="20" gradientUnits="userSpaceOnUse">
      <stop offset="0.8" stop-color="#fff"/>
      <stop offset="1" stop-color="#ffbf66"/>
    </radialGradient>
    <linearGradient id="linear-gradient-2" x1="20" y1="17.63" x2="20" y2="40.41" xlink:href="#linear-gradient"/>
    <linearGradient id="linear-gradient-3" x1="22.84" y1="9.16" x2="31.59" y2="9.16" xlink:href="#linear-gradient"/>
    <linearGradient id="linear-gradient-4" x1="408.54" y1="7.16" x2="417.28" y2="7.16" gradientTransform="matrix(-1, 0, 0, 1, 425.81, 0)" xlink:href="#linear-gradient"/>
    <linearGradient id="linear-gradient-5" x1="26.75" y1="16.48" x2="27.63" y2="24.47" xlink:href="#linear-gradient"/>
    <linearGradient id="linear-gradient-6" x1="1276.78" y1="16.48" x2="1277.67" y2="24.47" gradientTransform="matrix(-1, 0, 0, 1, 1290.04, 0)" xlink:href="#linear-gradient"/>
    <linearGradient id="linear-gradient-7" x1="26.78" y1="14.79" x2="27.62" y2="22.41" gradientUnits="userSpaceOnUse">
      <stop offset="0" stop-color="#fff"/>
      <stop offset="1"/>
    </linearGradient>
    <linearGradient id="linear-gradient-8" x1="13.4" y1="14.54" x2="11.82" y2="22.53" xlink:href="#linear-gradient-7"/>
  </defs>
  <title>1</title>
  <g class="cls-1">
    <g id="레이어_1" data-name="레이어 1">
      <g>
        <g>
          <circle class="cls-2" cx="20" cy="20" r="20"/>
          <circle class="cls-3" cx="20" cy="20" r="20"/>
          <path class="cls-4" d="M36.5,15.12c0,7.43-7.39,0-16.5,0s-16.5,7.43-16.5,0S10.89,1.67,20,1.67,36.5,7.69,36.5,15.12Z"/>
          <path class="cls-5" d="M20,36A20,20,0,0,1,.1,18,18.86,18.86,0,0,0,0,20a20,20,0,0,0,40,0,18.86,18.86,0,0,0-.1-2A20,20,0,0,1,20,36Z"/>
        </g>
        <g>
          <g>
            <g>
              <path class="cls-6" d="M24.42,7c2.67.72,5.73,1.72,7.17,4.3-1.6-1.52-3.95-1.9-6.07-1.88-.77,0-2,.27-2.49-.52A1.28,1.28,0,0,1,24.42,7C27.06,7.75,23.47,6.78,24.42,7Z"/>
              <path class="cls-7" d="M24.42,6.37c2.67.72,5.73,1.72,7.17,4.3C30,9.15,27.64,8.78,25.52,8.79c-.77,0-2,.27-2.49-.51a1.28,1.28,0,0,1,1.39-1.91C27.06,7.08,23.47,6.11,24.42,6.37Z"/>
            </g>
            <g>
              <path class="cls-8" d="M15.7,5C13,5.76,10,6.76,8.53,9.34c1.59-1.52,3.94-1.9,6.06-1.88.78,0,2,.27,2.49-.52A1.27,1.27,0,0,0,15.7,5C13.06,5.75,16.64,4.78,15.7,5Z"/>
              <path class="cls-7" d="M15.7,4.37C13,5.09,10,6.09,8.53,8.67c1.59-1.52,3.94-1.89,6.06-1.88.78,0,2,.27,2.49-.51A1.28,1.28,0,0,0,15.7,4.37C13.06,5.08,16.64,4.11,15.7,4.37Z"/>
            </g>
          </g>
          <path class="cls-9" d="M33.15,17.41a6.26,6.26,0,0,1-12.41,1.71c-.48-3.43,2.54-2.08,6-2.55S32.68,14,33.15,17.41Z"/>
          <path class="cls-10" d="M6.85,17.41a6.26,6.26,0,0,0,12.41,1.71c.48-3.43-2.54-2.08-6-2.55S7.32,14,6.85,17.41Z"/>
          <g>
            <path class="cls-4" d="M19.93,33.45c-5.1,0-5.1-1.12-5.1-1.48,0-.93,1.07-1.1,2.84-1.37a14.87,14.87,0,0,0,5.08-1.43,5.77,5.77,0,0,0,2.58-2.68,5.61,5.61,0,0,1,.79-1.22A3.39,3.39,0,0,1,28.56,24a3.3,3.3,0,0,1,1.76.56,2.55,2.55,0,0,1,1,3.61c-1,2.13-3.44,3.88-6.76,4.78a18.55,18.55,0,0,1-4.64.51Z"/>
            <path class="cls-7" d="M30,25.12a2.59,2.59,0,0,0-3.69,1,10.72,10.72,0,0,1-1.9,2.67c-2.33,2-5.2,2-8,2.67-.46.11-1.3.46-.47.8a9.43,9.43,0,0,0,3.3.48,15.2,15.2,0,0,0,9.1-2.21C29.84,29.51,32.47,26.65,30,25.12Z"/>
            <path class="cls-11" d="M24.36,30.41c2.77-1.67,2.56-3,3.52-4a2.42,2.42,0,0,1,2.5-1,2.69,2.69,0,0,0-.41-.29c-1.41-.87-2.42-.42-3.36.6s-.74,2.36-3.51,4S15.5,31.17,15.5,32c0,.23.51.43,1.3.58C17.14,31.85,21.69,32,24.36,30.41Z"/>
          </g>
          <g>
            <path class="cls-11" d="M33.15,15.41a6.26,6.26,0,0,1-12.41,1.71c-.48-3.43,2.54-2.08,6-2.55S32.68,12,33.15,15.41Z"/>
            <path class="cls-12" d="M33,18c-.76-2.27-3.15-.48-6.27-.05-2.46.34-4.7-.25-5.6.64a6.06,6.06,0,0,1-.38-1.42c-.46-3.43,2.55-2.08,6-2.55s6-2.59,6.44.84A6.16,6.16,0,0,1,33,18Z"/>
          </g>
          <g>
            <path class="cls-11" d="M6.85,15.41a6.26,6.26,0,0,0,12.41,1.71c.48-3.43-2.54-2.08-6-2.55S7.32,12,6.85,15.41Z"/>
            <path class="cls-13" d="M19.26,17.12a6.05,6.05,0,0,1-.37,1.42c-.9-.89-3.14-.3-5.6-.64C10.17,17.47,7.78,15.68,7,18a6.16,6.16,0,0,1-.17-2.54c.47-3.43,3-1.32,6.44-.84S19.73,13.69,19.26,17.12Z"/>
          </g>
        </g>
      </g>
    </g>
  </g>
</svg>
