<svg xmlns="http://www.w3.org/2000/svg" xmlns:xlink="http://www.w3.org/1999/xlink" viewBox="0 0 38.59 40">
  <defs>
    <style>
      .cls-1 {
        isolation: isolate;
      }

      .cls-2 {
        fill: url(#linear-gradient);
      }

      .cls-3, .cls-4 {
        opacity: 0.25;
      }

      .cls-10, .cls-3, .cls-5, .cls-8 {
        mix-blend-mode: multiply;
      }

      .cls-3 {
        fill: url(#radial-gradient);
      }

      .cls-4 {
        fill: #fff;
      }

      .cls-5, .cls-8 {
        opacity: 0.35;
      }

      .cls-5 {
        fill: url(#linear-gradient-2);
      }

      .cls-6 {
        fill: #5d4037;
      }

      .cls-7 {
        fill: #4e342e;
      }

      .cls-8 {
        fill: url(#linear-gradient-3);
      }

      .cls-10, .cls-9 {
        fill: #aed581;
      }

      .cls-10 {
        opacity: 0.5;
      }
    </style>
    <linearGradient id="linear-gradient" x1="19.3" y1="-0.64" x2="19.3" y2="39.32" gradientUnits="userSpaceOnUse">
      <stop offset="0" stop-color="#ffe082"/>
      <stop offset="1" stop-color="#ffbf66"/>
    </linearGradient>
    <radialGradient id="radial-gradient" cx="20" cy="19.3" r="19.3" gradientUnits="userSpaceOnUse">
      <stop offset="0.8" stop-color="#fff"/>
      <stop offset="1" stop-color="#ffbf66"/>
    </radialGradient>
    <linearGradient id="linear-gradient-2" x1="20" y1="17.01" x2="20" y2="38.99" xlink:href="#linear-gradient"/>
    <linearGradient id="linear-gradient-3" x1="13.03" y1="30.66" x2="26.96" y2="30.66" xlink:href="#linear-gradient"/>
  </defs>
  <title>1</title>
  <g class="cls-1">
    <g id="레이어_1" data-name="레이어 1">
      <g>
        <g>
          <circle class="cls-2" cx="19.3" cy="19.3" r="19.3"/>
          <path class="cls-3" d="M39.3,19.3A19.3,19.3,0,1,1,20,0,19.28,19.28,0,0,1,39.3,19.3Z" transform="translate(-0.7)"/>
          <path class="cls-4" d="M35.92,14.59c0,7.17-7.13,0-15.92,0s-15.92,7.17-15.92,0,7.13-13,15.92-13S35.92,7.42,35.92,14.59Z" transform="translate(-0.7)"/>
          <path class="cls-5" d="M20,34.73A19.29,19.29,0,0,1,.8,17.37C.74,18,.7,18.64.7,19.3a19.3,19.3,0,0,0,38.6,0c0-.66,0-1.3-.1-1.93A19.29,19.29,0,0,1,20,34.73Z" transform="translate(-0.7)"/>
        </g>
        <g>
          <path class="cls-4" d="M5.69,17.71l5.75-3.3c0-.29-.14-.75-.17-.93s-.06-.26-.07-.31l-.57-3.91,8.93,8.45Z" transform="translate(-0.7)"/>
          <path class="cls-6" d="M8.1,17.07H18L11.54,11l.3,2.08c0,.23.39,1.61.19,1.73Z" transform="translate(-0.7)"/>
        </g>
        <g>
          <path class="cls-4" d="M20.44,17.71l8.93-8.45-.57,3.91c0,.05,0,.17-.07.31s-.13.64-.17.93l5.75,3.3Z" transform="translate(-0.7)"/>
          <path class="cls-6" d="M31.9,17.07H22.05L28.46,11l-.3,2.08c0,.23-.39,1.61-.19,1.73Z" transform="translate(-0.7)"/>
          <path class="cls-7" d="M11.54,11c.07.5.14,1,.22,1.49l4.83,4.58H18ZM8.1,17.07h2.24l1.69-1c.14-.08,0-.75-.09-1.24Z" transform="translate(-0.7)"/>
          <path class="cls-7" d="M28.06,14.86c-.1.49-.23,1.16-.09,1.24l1.69,1H31.9Zm.4-3.86-6.41,6.07h1.36l4.83-4.58Z" transform="translate(-0.7)"/>
        </g>
        <path class="cls-4" d="M28,32.37a6.12,6.12,0,0,1-1.12-.12l-.09,0a23.35,23.35,0,0,0-2.91-.45c-1.21-.12-2.43-.13-3.56-.13H19a29.3,29.3,0,0,0-5.16.43c-.26.06-.52.1-.78.14a7.06,7.06,0,0,1-1.15.1,4,4,0,0,1-2.74-1,5,5,0,0,1-1.58-4.67c.45-2.16,2.24-3.8,5.19-4.75a17.14,17.14,0,0,1,2.42-.58A26.58,26.58,0,0,1,19.75,21h.5a24.21,24.21,0,0,1,5.26.43,17.1,17.1,0,0,1,1.68.47c3.8,1.33,5.64,3.57,5.22,6.32v.09l0,.08-.11.44h0a4.74,4.74,0,0,1-3.15,3.38A3.88,3.88,0,0,1,28,32.37Z" transform="translate(-0.7)"/>
        <path class="cls-6" d="M31.76,28.25a.06.06,0,0,1,0,0s0,0,0,.05,0,.06,0,.09,0,.11,0,.17,0,.11,0,.17a.07.07,0,0,1,0-.05,4.15,4.15,0,0,1-2.72,3,3.94,3.94,0,0,1-2,0h0a23,23,0,0,0-3-.47A47.93,47.93,0,0,0,19,31a29.18,29.18,0,0,0-5.28.44c-.26.05-.5.1-.75.13a3.79,3.79,0,0,1-3.38-.76,4.42,4.42,0,0,1-1.37-4.06c.48-2.29,2.58-3.57,4.75-4.27a17.17,17.17,0,0,1,2.34-.56,28.54,28.54,0,0,1,4.89-.28,23.81,23.81,0,0,1,5.13.42,16.61,16.61,0,0,1,1.62.45C29.6,23.44,32.3,25.23,31.76,28.25Z" transform="translate(-0.7)"/>
        <path class="cls-6" d="M31.78,28.16l0-.22A2,2,0,0,1,31.78,28.16Z" transform="translate(-0.7)"/>
        <path class="cls-7" d="M31.77,28.2h0C31.91,27.65,31.86,27.84,31.77,28.2Zm-6.4-6.13a23.19,23.19,0,0,0-5.13-.42,29.59,29.59,0,0,0-4.89.28c-2.76.47-6.44,1.71-7.09,4.83a4.41,4.41,0,0,0,0,1.45c0-.05,0-.11,0-.17.65-3.12,4.33-4.36,7.09-4.82a27.57,27.57,0,0,1,4.89-.28,23.19,23.19,0,0,1,5.13.42c2.54.57,5.93,2,6.39,4.78C32.31,24.55,28.29,22.73,25.37,22.07Z" transform="translate(-0.7)"/>
        <path class="cls-8" d="M27,22.73V37.29a19.31,19.31,0,0,1-13.93,0V22.73Z" transform="translate(-0.7)"/>
        <g>
          <path class="cls-9" d="M27,22.52V34.46a2.32,2.32,0,0,1-4.64.06v3.16A2.32,2.32,0,0,1,20,40H20a2.32,2.32,0,0,1-2.32-2.32V34.94a2.32,2.32,0,0,1-2.27,1.84h0A2.33,2.33,0,0,1,13,34.46v-12a17.17,17.17,0,0,1,2.34-.56,28.54,28.54,0,0,1,4.89-.28,23.81,23.81,0,0,1,5.13.42A16.61,16.61,0,0,1,27,22.52Z" transform="translate(-0.7)"/>
          <path class="cls-10" d="M20,38.71H20a2.32,2.32,0,0,1-2.32-2.32v1.29A2.32,2.32,0,0,0,20,40H20a2.32,2.32,0,0,0,2.32-2.32V36.39A2.32,2.32,0,0,1,20,38.71Zm-2.38-5.05a2.32,2.32,0,0,1-2.27,1.84h0A2.33,2.33,0,0,1,13,33.18v1.28a2.33,2.33,0,0,0,2.33,2.32h0a2.32,2.32,0,0,0,2.27-1.84Zm7,1.84a2.32,2.32,0,0,1-2.31-2.27v1.29A2.32,2.32,0,0,0,27,34.46V33.18A2.33,2.33,0,0,1,24.66,35.5Z" transform="translate(-0.7)"/>
          <path class="cls-10" d="M25.37,22.07a23.81,23.81,0,0,0-5.13-.42,28.54,28.54,0,0,0-4.89.28,17.17,17.17,0,0,0-2.34.56v1.29a15.8,15.8,0,0,1,2.34-.56,27.57,27.57,0,0,1,4.89-.28,23.8,23.8,0,0,1,5.13.41,16.76,16.76,0,0,1,1.62.46V22.52A16.61,16.61,0,0,0,25.37,22.07Z" transform="translate(-0.7)"/>
          <path class="cls-4" d="M27,27.29a1.16,1.16,0,0,1-1.16,1.16,1.15,1.15,0,0,1-1.16-1.16h0v-.72a1.16,1.16,0,0,0-2.32,0v.72h0a1.16,1.16,0,0,1-2.32,0v-.72h0a1.16,1.16,0,1,0-2.32,0v.71a1.17,1.17,0,0,1-2.33,0V26.6a0,0,0,0,0,0,0,1.16,1.16,0,0,0-2.32,0h0v2.12a1.16,1.16,0,0,1,1.16-1.16,1.15,1.15,0,0,1,1.16,1.16h0v.72a1.16,1.16,0,1,0,2.32,0v-.72h0a1.16,1.16,0,1,1,2.32,0v.72h0a1.16,1.16,0,1,0,2.32,0V28.7a1.17,1.17,0,0,1,2.33,0v.68s0,0,0,0a1.17,1.17,0,0,0,2.33,0h0Z" transform="translate(-0.7)"/>
        </g>
      </g>
    </g>
  </g>
</svg>
