<svg id="레이어_1" data-name="레이어 1" xmlns="http://www.w3.org/2000/svg" viewBox="0 0 32.83 39.89">
  <defs>
    <style>
      .cls-1, .cls-3 {
        fill: #576d64;
      }

      .cls-2, .cls-5 {
        fill: #aedff4;
      }

      .cls-3, .cls-4, .cls-5 {
        fill-rule: evenodd;
      }
    </style>
  </defs>
  <title>1</title>
  <g>
    <rect class="cls-1" x="1.12" y="1.38" width="30.73" height="37.46"/>
    <rect class="cls-2" x="3.7" y="4.01" width="25.71" height="30.07"/>
    <path class="cls-3" d="M7.41,1,5.72,3.32A8.42,8.42,0,0,0,4.37,5.38a.46.46,0,0,0,.69.5A7.75,7.75,0,0,0,6.59,4L8.23,1.64C8.57,1.17,7.76.57,7.41,1Z" transform="translate(-3.66 -0.03)"/>
    <path class="cls-3" d="M10.55.73c-.35.44-.7.87-1.07,1.29A11.18,11.18,0,0,0,8.43,3.25c-.25.38.29.93.67.63a13.13,13.13,0,0,0,2.11-2.52C11.54.9,10.92.27,10.55.73Z" transform="translate(-3.66 -0.03)"/>
    <path class="cls-3" d="M6.78,5.2c-.27.42-.54.83-.84,1.22a4.82,4.82,0,0,0-.83,1.14c-.17.43.22.92.68.65a3.89,3.89,0,0,0,1-1.15c.32-.44.61-.88.89-1.35S7.14,4.64,6.78,5.2Z" transform="translate(-3.66 -0.03)"/>
    <path class="cls-3" d="M6.54,8.59q-.56.64-1,1.35a2.82,2.82,0,0,0-.72,1.44.45.45,0,0,0,.67.37,3.4,3.4,0,0,0,.93-1.13c.31-.43.64-.85,1-1.26S7,8,6.54,8.59Z" transform="translate(-3.66 -0.03)"/>
    <path class="cls-3" d="M6.84,12.07,5.5,13.77a3.79,3.79,0,0,0-1,1.62c0,.3.21.67.55.53a3.55,3.55,0,0,0,1.34-1.35l1.32-1.72c.43-.56-.36-1.35-.82-.78Z" transform="translate(-3.66 -0.03)"/>
    <path class="cls-3" d="M6.35,16.24c-.29.45-.59.89-.91,1.31a4.72,4.72,0,0,0-.78,1.26c-.15.42.39.76.74.54a3.93,3.93,0,0,0,1-1.17c.32-.45.63-.9.92-1.37C7.78,16.17,6.75,15.62,6.35,16.24Z" transform="translate(-3.66 -0.03)"/>
    <path class="cls-3" d="M6.33,20c-.29.45-.58.9-.91,1.33a8.16,8.16,0,0,0-.9,1.22c-.21.43.26,1,.69.67A4.61,4.61,0,0,0,6.31,22a16.68,16.68,0,0,0,1-1.47A.53.53,0,0,0,6.33,20Z" transform="translate(-3.66 -0.03)"/>
    <path class="cls-3" d="M6.38,24.33c-.34.41-.66.83-1,1.25a4.25,4.25,0,0,0-.81,1.33c-.12.42.43.91.82.6a5.28,5.28,0,0,0,.89-1.15c.3-.41.6-.82.92-1.21C7.7,24.55,6.86,23.74,6.38,24.33Z" transform="translate(-3.66 -0.03)"/>
    <path class="cls-3" d="M6.21,28.54l-1,1.27c-.29.39-.72.79-.7,1.31a.5.5,0,0,0,.64.46c.5-.13.75-.66,1-1l.93-1.28C7.57,28.7,6.62,28,6.21,28.54Z" transform="translate(-3.66 -0.03)"/>
    <path class="cls-3" d="M6.35,32.5l-.94,1.22A5.85,5.85,0,0,0,4.55,35c-.18.43.28,1.09.76.72a12.41,12.41,0,0,0,1.92-2.34C7.69,32.72,6.83,31.88,6.35,32.5Z" transform="translate(-3.66 -0.03)"/>
    <path class="cls-3" d="M8.33,34.25,6.79,36.33a5.47,5.47,0,0,0-1.22,2,.54.54,0,0,0,.79.58,5.31,5.31,0,0,0,1.44-1.8l1.47-2.13C9.64,34.39,8.72,33.71,8.33,34.25Z" transform="translate(-3.66 -0.03)"/>
    <path class="cls-3" d="M10.9,34.63,9.55,36.56a4.88,4.88,0,0,0-1.11,1.88.51.51,0,0,0,.75.55c.63-.34,1-1.15,1.36-1.73l1.38-2.06C12.35,34.56,11.32,34,10.9,34.63Z" transform="translate(-3.66 -0.03)"/>
    <path class="cls-3" d="M13.85,34.91c-.4.66-.82,1.31-1.22,2S11.72,38,12,38.66a.49.49,0,0,0,.6.32c.66-.11.93-.94,1.25-1.46l1.19-2C15.43,34.82,14.29,34.2,13.85,34.91Z" transform="translate(-3.66 -0.03)"/>
    <path class="cls-3" d="M16.91,34.77c-.38.6-.77,1.18-1.17,1.76a7.07,7.07,0,0,0-1.06,1.71.62.62,0,0,0,.91.67,5.53,5.53,0,0,0,1.26-1.62c.4-.63.79-1.26,1.17-1.9S17.35,34.09,16.91,34.77Z" transform="translate(-3.66 -0.03)"/>
    <path class="cls-3" d="M20.07,34.68l-1.26,1.87a3.62,3.62,0,0,0-.91,1.78.57.57,0,0,0,.86.47c.6-.29.9-1,1.24-1.6l1.2-1.9C21.65,34.6,20.53,34,20.07,34.68Z" transform="translate(-3.66 -0.03)"/>
    <path class="cls-3" d="M23,34.69l-1,1.52c-.3.44-.83.95-.75,1.51a.53.53,0,0,0,.67.49c.58-.15.84-.82,1.14-1.3l1.06-1.62C24.55,34.61,23.48,34,23,34.69Z" transform="translate(-3.66 -0.03)"/>
    <path class="cls-3" d="M26.63,34.88c-.46.56-.9,1.13-1.3,1.73a3.61,3.61,0,0,0-.91,1.83.54.54,0,0,0,.82.44c.51-.31.76-1,1.08-1.47s.78-1.13,1.21-1.67S27.14,34.26,26.63,34.88Z" transform="translate(-3.66 -0.03)"/>
    <path class="cls-3" d="M29.93,34.25c-.49.68-1,1.37-1.46,2.07a6.45,6.45,0,0,0-1.17,2c-.08.39.38.84.76.56A7.5,7.5,0,0,0,29.45,37c.49-.75,1-1.49,1.5-2.22S30.36,33.66,29.93,34.25Z" transform="translate(-3.66 -0.03)"/>
    <path class="cls-3" d="M34.47,31.38c-.65,1.13-1.31,2.25-2,3.36a17.46,17.46,0,0,0-1.81,3.09c-.18.51.53.81.87.48a13.76,13.76,0,0,0,2-3c.67-1.12,1.31-2.25,1.93-3.39a.56.56,0,0,0-1-.54Z" transform="translate(-3.66 -0.03)"/>
    <path class="cls-3" d="M35.45,34.7l-1.34,1.7A5.1,5.1,0,0,0,33,38a.48.48,0,0,0,.7.51A4.85,4.85,0,0,0,35,37.08l1.25-1.63c.41-.54-.35-1.3-.78-.74Z" transform="translate(-3.66 -0.03)"/>
    <path class="cls-3" d="M12.72,1.18c-.18.27-.37.55-.58.81s-.52.55-.46.9a.4.4,0,0,0,.4.38c.41,0,.63-.38.85-.68s.45-.61.65-.93C13.93,1.12,13.06.65,12.72,1.18Z" transform="translate(-3.66 -0.03)"/>
    <path class="cls-3" d="M15.92.94l-.84,1a2.64,2.64,0,0,0-.72,1.09c0,.34.23.72.61.58a2.41,2.41,0,0,0,.95-.87l.84-1C17.23,1.17,16.39.37,15.92.94Z" transform="translate(-3.66 -0.03)"/>
    <path class="cls-3" d="M19,.79c-.31.34-.62.71-.91,1.08s-.66.75-.56,1.26a.47.47,0,0,0,.58.31c.42-.07.65-.56.89-.88s.54-.66.83-1C20.35,1,19.53.24,19,.79Z" transform="translate(-3.66 -0.03)"/>
    <path class="cls-3" d="M21.47.92A12,12,0,0,0,19.87,3c-.21.42.28,1,.72.68a11.48,11.48,0,0,0,1.75-1.93c.51-.6-.38-1.44-.87-.83Z" transform="translate(-3.66 -0.03)"/>
    <path class="cls-3" d="M25.05.84c-.35.38-.7.76-1,1.15a3.35,3.35,0,0,0-.85,1.27.56.56,0,0,0,.82.59c.42-.2.69-.72,1-1.06s.63-.75,1-1.1C26.46,1.11,25.59.27,25.05.84Z" transform="translate(-3.66 -0.03)"/>
    <path class="cls-3" d="M28.17,1.14c-.26.41-.52.8-.81,1.18a3.22,3.22,0,0,0-.73,1.14.47.47,0,0,0,.58.56A2.55,2.55,0,0,0,28.3,3c.31-.42.6-.86.87-1.3C29.55,1.06,28.55.52,28.17,1.14Z" transform="translate(-3.66 -0.03)"/>
    <path class="cls-3" d="M30.92,1.28c-.2.33-.41.66-.62,1a2.76,2.76,0,0,0-.51,1,.51.51,0,0,0,.76.55,2.7,2.7,0,0,0,.76-.94c.22-.35.44-.69.66-1,.42-.65-.64-1.23-1-.58Z" transform="translate(-3.66 -0.03)"/>
    <path class="cls-3" d="M34.42,1.48a.57.57,0,0,0-.76.22,20.12,20.12,0,0,0-1.34,1.88c-.21.4.26.94.66.64a8.05,8.05,0,0,0,1.66-2A.56.56,0,0,0,34.42,1.48Z" transform="translate(-3.66 -0.03)"/>
    <path class="cls-3" d="M35,3.74a16.14,16.14,0,0,0-2,3.19c-.18.52.53.8.86.48A15.74,15.74,0,0,0,36,4.33C36.45,3.67,35.39,3.1,35,3.74Z" transform="translate(-3.66 -0.03)"/>
    <path class="cls-3" d="M34.83,7.81l-1,1.37a3.49,3.49,0,0,0-.8,1.31c0,.29.23.69.57.54A3.31,3.31,0,0,0,34.8,9.84c.36-.48.71-1,1.05-1.46S35.25,7.2,34.83,7.81Z" transform="translate(-3.66 -0.03)"/>
    <path class="cls-3" d="M34.74,11.55c-.36.49-.72,1-1.05,1.49a4.94,4.94,0,0,0-.86,1.53.53.53,0,0,0,.9.49,6.09,6.09,0,0,0,1-1.43c.34-.51.69-1,1-1.5S35.19,10.93,34.74,11.55Z" transform="translate(-3.66 -0.03)"/>
    <path class="cls-3" d="M34.92,15.06c-.32.53-.66,1-1,1.56a3.79,3.79,0,0,0-.9,1.5c0,.31.23.74.61.58a3.24,3.24,0,0,0,1.22-1.32c.38-.58.74-1.17,1.08-1.76A.57.57,0,0,0,34.92,15.06Z" transform="translate(-3.66 -0.03)"/>
    <path class="cls-3" d="M35,20c-.32.44-.63.89-.92,1.35a4.48,4.48,0,0,0-.7,1.46.51.51,0,0,0,.86.47A7.09,7.09,0,0,0,35.06,22c.28-.45.57-.89.88-1.31S35.4,19.42,35,20Z" transform="translate(-3.66 -0.03)"/>
    <path class="cls-3" d="M35,24.42a8,8,0,0,0-1.67,2.06.46.46,0,0,0,.63.61,8.13,8.13,0,0,0,1.89-1.86C36.37,24.67,35.53,23.85,35,24.42Z" transform="translate(-3.66 -0.03)"/>
    <path class="cls-3" d="M34.78,28.15a16.65,16.65,0,0,0-1.51,2c-.32.53.42,1,.84.62a16.92,16.92,0,0,0,1.49-1.78c.47-.57-.36-1.36-.83-.79Z" transform="translate(-3.66 -0.03)"/>
    <path class="cls-4" d="M21.66,36a.84.84,0,0,0-.33-.15,5.72,5.72,0,0,0-1.17,0,11.9,11.9,0,0,0-1.34.1c-.41.05-.78.16-.9.61a.86.86,0,0,0,0,.45.84.84,0,0,0,1.12.89,2.64,2.64,0,0,0,.81.08.5.5,0,0,0,.29-.14h.07a.34.34,0,0,0,.2.09h0a1.38,1.38,0,0,0,.76,0,.94.94,0,0,0,1-.51A1,1,0,0,0,21.66,36Z" transform="translate(-3.66 -0.03)"/>
    <path class="cls-5" d="M10.2,4.09a12.79,12.79,0,0,0-3.49,4c-.21.48.37,1,.77.57.6-.62,1-1.38,1.61-2a21.07,21.07,0,0,1,1.83-1.83c.49-.43-.23-1.1-.72-.69Z" transform="translate(-3.66 -0.03)"/>
    <path class="cls-5" d="M12.48,4.14l-2.7,3A20.6,20.6,0,0,0,7.36,9.91c-.21.35.25.83.59.57a21.43,21.43,0,0,0,2.49-2.72l2.66-3C13.46,4.32,12.85,3.73,12.48,4.14Z" transform="translate(-3.66 -0.03)"/>
    <path class="cls-5" d="M15,4.44c-2.63,2.95-5.74,5.87-7.9,9.18-.29.44.36.85.71.52C10.7,11.46,13,8,15.59,5c.34-.39-.24-.94-.58-.55Z" transform="translate(-3.66 -0.03)"/>
    <path class="cls-5" d="M17.33,4.64,11.57,11c-1.7,1.89-3.73,3.7-5.06,5.87-.2.32.24.78.56.53a42.38,42.38,0,0,0,5.24-5.7L18,5.23C18.32,4.81,17.7,4.22,17.33,4.64Z" transform="translate(-3.66 -0.03)"/>
    <path class="cls-5" d="M20.63,4.29C16,9.32,11.12,14.3,7,19.74c-.4.52.28,1.23.76.72C12.5,15.52,16.74,10,21.28,4.9,21.66,4.47,21,3.86,20.63,4.29Z" transform="translate(-3.66 -0.03)"/>
    <path class="cls-5" d="M23.45,4.74,14.24,15.3C12.76,17,11.3,18.69,9.83,20.38c-.83,1-2.54,2.23-2.77,3.55a.57.57,0,0,0,.41.69l.17,0a.46.46,0,0,0,.54-.57c-.11-.63,3.46-4,4-4.58l4-4.71,8-9.44C24.45,4.92,23.82,4.32,23.45,4.74Z" transform="translate(-3.66 -0.03)"/>
    <path class="cls-5" d="M26.81,4.34c-6.38,8-13.59,15.31-20.15,23.18a.54.54,0,0,0,.78.74,241.35,241.35,0,0,0,20-23.32c.34-.44-.28-1-.63-.6Z" transform="translate(-3.66 -0.03)"/>
    <path class="cls-5" d="M29.75,4.7a254.75,254.75,0,0,1-22.94,27c-.54.55.32,1.38.87.83A233.52,233.52,0,0,0,30.45,5.21C30.73,4.81,30,4.3,29.75,4.7Z" transform="translate(-3.66 -0.03)"/>
    <path class="cls-5" d="M32.42,4.83C26,15.11,17.9,24.07,10,33.26c-.54.63.38,1.52.94.89,8.12-9,16-18.42,22.28-28.86C33.55,4.76,32.74,4.32,32.42,4.83Z" transform="translate(-3.66 -0.03)"/>
    <path class="cls-5" d="M32.85,10q-4.68,6.45-9.8,12.57c-3.2,3.84-6.76,7.39-9.92,11.27a.58.58,0,0,0,.84.79c7.6-6.9,13.92-15.76,19.77-24.14C34.12,9.91,33.23,9.44,32.85,10Z" transform="translate(-3.66 -0.03)"/>
    <path class="cls-5" d="M33.09,14.67Q29.28,20,25,25c-2.37,2.76-5.46,5.46-7.2,8.67-.19.35.24.83.6.57,3.17-2.4,5.72-6.19,8.23-9.27s5-6.47,7.26-9.85C34.21,14.62,33.42,14.2,33.09,14.67Z" transform="translate(-3.66 -0.03)"/>
    <path class="cls-5" d="M32.68,19.43c-3.57,4.92-7.79,9.34-11.38,14.22a.52.52,0,0,0,.75.71c4.42-4.13,8-9.52,11.44-14.48C33.83,19.39,33,19,32.68,19.43Z" transform="translate(-3.66 -0.03)"/>
    <path class="cls-5" d="M33.16,23c-2.87,3.59-6,7-8.71,10.74-.38.52.46,1.11.88.65,3.09-3.32,5.77-7.12,8.54-10.72C34.24,23.17,33.56,22.5,33.16,23Z" transform="translate(-3.66 -0.03)"/>
    <path class="cls-5" d="M33,27l-3,3.64a26.53,26.53,0,0,0-2.68,3.4c-.28.48.37.89.76.55a26.92,26.92,0,0,0,2.83-3.45c.93-1.16,1.85-2.34,2.77-3.5C34,27.22,33.33,26.58,33,27Z" transform="translate(-3.66 -0.03)"/>
    <path class="cls-5" d="M32.73,30.72c-.38.54-.77,1.08-1.18,1.6a12.38,12.38,0,0,0-1.12,1.39c-.23.37.27.9.64.61a12.65,12.65,0,0,0,2.44-3.17C33.83,30.66,33.05,30.24,32.73,30.72Z" transform="translate(-3.66 -0.03)"/>
    <path class="cls-4" d="M36.46,27.08c0-5.39,0-10.78,0-16.17,0-2.63.12-5.3,0-7.93A2.74,2.74,0,0,0,33.7.2,74.3,74.3,0,0,0,25.8.08q-4.12,0-8.27.06c-3.06,0-6.13.13-9.19.24C7.36.42,5.87.2,5,.7A2.83,2.83,0,0,0,3.89,2.88a47.14,47.14,0,0,0,0,8.89c.08,1.77.11,3.54.15,5.32-.06,3-.11,6-.12,9,0,2.77,0,5.53,0,8.3,0,1.68-.28,3.74,1.33,4.8s4,.64,5.73.64l8.16,0c2.75,0,5.5,0,8.25,0h4a15.61,15.61,0,0,0,3.42-.11c2.07-.5,1.67-2.71,1.68-4.38q0-4.1,0-8.18ZM21.12,36.35a1.07,1.07,0,1,1-2,.28,1.05,1.05,0,0,1,.24-.47,1,1,0,0,1,.62-.39.67.67,0,0,1,.56.12l.15.07,0,0a1.3,1.3,0,0,1,.37.37Zm12.69-32c.83,1.44.35,3.93.26,5.47,0,1-.08,1.94-.11,2.92q0,5,0,10.06c0,2.65,0,5.3,0,8,0,1.26.36,3.3-1.06,4A8.07,8.07,0,0,1,30.1,35l-3,.11c-2.23.06-4.46.11-6.69.12q-3.64,0-7.3,0l-3-.08a7.92,7.92,0,0,1-2.66-.19c-1.24-.53-1.13-2.47-1.19-3.6-.12-2.18,0-4.39,0-6.58l.15-14.08L6.37,7a7,7,0,0,1,.18-2.37c.53-1.36,2.09-1.43,3.35-1.5,4.25-.23,8.57.05,12.83.12l7.21.1c1.31,0,3.09-.3,3.87,1ZM32.7,32.3c0,.62.06.76-.43,1.12a2.71,2.71,0,0,1-1.6.25c-1.92.07-3.84.13-5.77.17q-5.62.1-11.25,0a26.08,26.08,0,0,1-5.16-.17c-1-.24-.85-1.46-.9-2.39s0-1.94,0-2.91c0-3.78.09-7.55.12-11.33l.06-5.51,0-2.75a12.51,12.51,0,0,1,0-3.06c.57-1.82,4-1.19,5.35-1.16l5.41.08,6.31.09c2.07,0,4.24-.14,6.3.09.38,0,1.16,0,1.42.47a5,5,0,0,1,.06,1.5c0,1,0,2.05,0,3.07.06,2.24,0,4.5.12,6.74a.54.54,0,0,0,.15.35q-.1,6.3-.19,12.61c0,.92,0,1.84,0,2.75Zm2.14,4.51c-.16.82-.24,1.13-1.12,1.37a8,8,0,0,1-1.83,0l-3.05,0-7.33,0c-4.44,0-8.88.1-13.31.1-1.33,0-2.58-.06-2.85-1.64a23.67,23.67,0,0,1,0-3.86V25.46c0-2.27,0-4.54-.08-6.8.15-3.82.18-7.66.16-11.47,0-1,0-2,0-3,0-.66-.09-1.71.56-2.14A6.21,6.21,0,0,1,7.77,2c2.24-.08,4.49-.16,6.73-.21q7-.17,14.09-.11l3.06,0c1.45,0,2.83-.22,3.22,1.55a15.41,15.41,0,0,1,0,3c0,1.19,0,2.37,0,3.56,0,4.57,0,9.15,0,13.72q0,3.19,0,6.37c0,1.11,0,2.22,0,3.33A20.94,20.94,0,0,1,34.84,36.81Z" transform="translate(-3.66 -0.03)"/>
  </g>
</svg>
