<svg id="레이어_1" data-name="레이어 1" xmlns="http://www.w3.org/2000/svg" viewBox="0 0 40 40">
  <defs>
    <style>
      .cls-1 {
        stroke: #000;
        stroke-miterlimit: 10;
        stroke-width: 0.75px;
      }
    </style>
  </defs>
  <title>1</title>
  <path d="M20,40A20,20,0,1,1,40,20,20,20,0,0,1,20,40ZM20,3.66A16.34,16.34,0,1,0,36.34,20,16.36,16.36,0,0,0,20,3.66Z"/>
  <path class="cls-1" d="M20.27,8.91a9.17,9.17,0,0,1,3,.45,6.45,6.45,0,0,1,2.18,1.22,5,5,0,0,1,1.31,1.84,5.86,5.86,0,0,1,.45,2.3,4.37,4.37,0,0,1-.28,1.57,5.09,5.09,0,0,1-.77,1.41A5.24,5.24,0,0,1,25,18.82a4.44,4.44,0,0,1-1.47.67v.06a6.07,6.07,0,0,1,3,2,5.45,5.45,0,0,1,1.15,3.57,6.6,6.6,0,0,1-.46,2.51,5.07,5.07,0,0,1-1.39,1.94,6.66,6.66,0,0,1-2.32,1.24,10.48,10.48,0,0,1-3.24.45A10.57,10.57,0,0,1,17,30.77a6.52,6.52,0,0,1-2.31-1.24,5,5,0,0,1-1.39-1.94,6.6,6.6,0,0,1-.47-2.51A5.5,5.5,0,0,1,14,21.51a6.07,6.07,0,0,1,3-2v-.06a4.22,4.22,0,0,1-1.48-.67,5.27,5.27,0,0,1-1.94-2.53,4.37,4.37,0,0,1-.28-1.57,5.86,5.86,0,0,1,.45-2.3,5.12,5.12,0,0,1,1.32-1.84,6.4,6.4,0,0,1,2.17-1.22A9.17,9.17,0,0,1,20.27,8.91Zm0,19.56a4.1,4.1,0,0,0,2.84-.95,3.42,3.42,0,0,0,1.06-2.69,4.19,4.19,0,0,0-.29-1.58,3.49,3.49,0,0,0-.83-1.2,4,4,0,0,0-1.23-.79A4.11,4.11,0,0,0,20.27,21a4.06,4.06,0,0,0-1.54.28,3.92,3.92,0,0,0-1.24.79,3.47,3.47,0,0,0-.82,1.2,4,4,0,0,0-.3,1.58,3.43,3.43,0,0,0,1.07,2.69A4.06,4.06,0,0,0,20.27,28.47Zm0-16.95a3.45,3.45,0,0,0-2.64.93,3.19,3.19,0,0,0-.87,2.27,3.12,3.12,0,0,0,1,2.44,3.59,3.59,0,0,0,2.51.9,3.59,3.59,0,0,0,2.51-.9,3.09,3.09,0,0,0,1-2.44,3.19,3.19,0,0,0-.87-2.27A3.45,3.45,0,0,0,20.27,11.52Z"/>
</svg>
