<svg id="레이어_1" data-name="레이어 1" xmlns="http://www.w3.org/2000/svg" viewBox="0 0 27.94 40">
  <defs>
    <style>
      .cls-1 {
        fill: #2b2722;
      }

      .cls-1, .cls-2, .cls-3, .cls-4 {
        fill-rule: evenodd;
      }

      .cls-2 {
        fill: #e3ca95;
      }

      .cls-3 {
        fill: #ff9500;
      }
    </style>
  </defs>
  <title>1</title>
  <g>
    <polygon class="cls-1" points="9.39 19.42 7.9 16.08 8.32 11.04 9.52 8.12 10.91 7.08 11.85 9.32 14.29 10.24 17.46 10.08 19.04 10.49 19.57 13.08 18.7 16.94 17.35 19.83 18.96 20 21.02 17.13 22.73 11.43 22.42 7.77 19.57 2.81 16.57 0.72 15.1 0.51 13.31 1.23 11.18 1.07 7.98 2.7 6 5.42 4.62 9.98 5.07 14.21 6.64 18.54 8.81 19.83 9.39 19.42"/>
    <polygon class="cls-2" points="9.96 23.99 11.07 20.93 9.13 19.09 7.98 15.27 8.12 10.97 9.52 8.12 10.91 7.08 12.22 9.72 15.43 9.98 19.04 10.14 19.57 12.56 18.7 17.46 16.7 20.25 15.36 21.85 16.7 24.32 16.7 24.91 13.68 27.71 9.94 24.48 9.96 23.99"/>
    <polygon class="cls-3" points="5.84 25.43 5.37 27.93 5.37 29.07 8.66 26.82 13.52 37.28 18.11 27 22.29 29.23 20.6 25.63 23.05 25.93 25.04 27.6 26.41 31.49 27.1 35.23 27.4 37.28 26.38 38.95 2.39 39.43 1.02 38.2 0.43 34.92 1.25 30.7 2.62 27.6 4.54 26.11 5.84 25.43"/>
    <path class="cls-1" d="M13.4,4C12.69,6.5,11.69,9,11.13,11.62c-.07.32.42.55.56.22A55.89,55.89,0,0,0,14,4.1.29.29,0,0,0,13.4,4Z" transform="translate(-6.36 0)"/>
    <path class="cls-1" d="M14.85,2.59c-1.14,4-2.44,8.07-3.41,12.16a.31.31,0,0,0,.6.15c1.31-4,2.31-8.1,3.44-12.15C15.59,2.35,15,2.2,14.85,2.59Z" transform="translate(-6.36 0)"/>
    <path class="cls-1" d="M16.43,1.38c-1.5,5.16-3.41,10.4-4.38,15.7a.32.32,0,0,0,.62.15c1.87-5,2.9-10.53,4.25-15.73C17,1.18,16.52,1.07,16.43,1.38Z" transform="translate(-6.36 0)"/>
    <path class="cls-1" d="M17.72,1.15c-.53,2.07-1.21,4.15-1.56,6.26a.3.3,0,0,0,.59.14c.67-2,1-4.19,1.54-6.26A.29.29,0,0,0,17.72,1.15Z" transform="translate(-6.36 0)"/>
    <path class="cls-1" d="M19.07,1.46a53.08,53.08,0,0,0-1.79,6.82c0,.31.42.57.56.22a55.43,55.43,0,0,0,1.83-6.89A.31.31,0,0,0,19.07,1.46Z" transform="translate(-6.36 0)"/>
    <path class="cls-1" d="M20.88.73C20.13,3.61,19,6.47,18.36,9.37c-.06.32.4.54.55.22A45.19,45.19,0,0,0,21.45.87.29.29,0,0,0,20.88.73Z" transform="translate(-6.36 0)"/>
    <path class="cls-1" d="M22.43.88c-.83,2.85-2.08,5.7-2.72,8.58-.08.37.47.62.64.25A48.15,48.15,0,0,0,23.05,1,.32.32,0,0,0,22.43.88Z" transform="translate(-6.36 0)"/>
    <path class="cls-1" d="M23.63,1.66c-.76,2.83-1.92,5.6-2.58,8.44-.07.34.43.56.59.23A45.78,45.78,0,0,0,24.19,1.8.29.29,0,0,0,23.63,1.66Z" transform="translate(-6.36 0)"/>
    <path class="cls-1" d="M24.71,2.49c-.65,2.42-1.64,4.78-2.21,7.2-.08.34.41.56.57.23a37.55,37.55,0,0,0,2.25-7.27A.32.32,0,0,0,24.71,2.49Z" transform="translate(-6.36 0)"/>
    <path class="cls-1" d="M25.76,3.75c-.31,1-.64,2-1,3a17,17,0,0,0-.94,3,.27.27,0,0,0,.49.19c1-1.72,1.46-4.08,2.05-6C26.51,3.5,25.89,3.35,25.76,3.75Z" transform="translate(-6.36 0)"/>
    <path class="cls-1" d="M26.76,4.74a33.26,33.26,0,0,0-1.77,6c0,.28.4.36.52.13.93-1.78,1.29-4.08,1.86-6C27.48,4.5,26.87,4.35,26.76,4.74Z" transform="translate(-6.36 0)"/>
    <path class="cls-1" d="M27.71,6.29c-.55,1.86-1.29,3.69-1.77,5.56-.07.31.4.51.54.21a44.32,44.32,0,0,0,1.81-5.62C28.4,6.06,27.82,5.92,27.71,6.29Z" transform="translate(-6.36 0)"/>
    <path class="cls-1" d="M28.45,8.22c-.44,1.45-.92,2.9-1.45,4.32a42.11,42.11,0,0,0-1.66,4.23.3.3,0,0,0,.55.22c1.61-2.44,2.4-5.83,3.18-8.61C29.19,8,28.56,7.82,28.45,8.22Z" transform="translate(-6.36 0)"/>
    <path class="cls-1" d="M27.77,14c-.86,1.87-1.89,3.69-2.67,5.59a.32.32,0,0,0,.56.31,49.48,49.48,0,0,0,2.64-5.61C28.46,13.93,27.93,13.63,27.77,14Z" transform="translate(-6.36 0)"/>
    <path class="cls-1" d="M13.75,15.73a8.86,8.86,0,0,1-.34,1.11,8.36,8.36,0,0,0-.4,1.09c-.06.28.32.54.52.28a5.94,5.94,0,0,0,.9-2.31A.35.35,0,0,0,13.75,15.73Z" transform="translate(-6.36 0)"/>
    <path class="cls-1" d="M14.3,18.33a8.24,8.24,0,0,0-.24.85.3.3,0,0,0,.55.21A7.18,7.18,0,0,0,15,18.6.37.37,0,1,0,14.3,18.33Z" transform="translate(-6.36 0)"/>
    <path class="cls-2" d="M16.26,7.72a77.44,77.44,0,0,0-2,7.94c-.08.46.61.65.72.18.62-2.66,1.15-5.33,1.84-8A.29.29,0,0,0,16.26,7.72Z" transform="translate(-6.36 0)"/>
    <path class="cls-2" d="M17.42,7.83a103.22,103.22,0,0,0-2.37,10.35.29.29,0,0,0,.56.14A103.3,103.3,0,0,0,17.94,8,.27.27,0,0,0,17.42,7.83Z" transform="translate(-6.36 0)"/>
    <path class="cls-2" d="M18.25,9.52c-.64,3.36-1.62,6.6-2.49,9.9-.12.43.51.57.65.17a56.4,56.4,0,0,0,2.37-9.94C18.84,9.31,18.32,9.17,18.25,9.52Z" transform="translate(-6.36 0)"/>
    <path class="cls-2" d="M19.3,10.12c-.79,3.4-1.9,6.74-2.63,10.15-.09.38.45.49.58.14a70.73,70.73,0,0,0,2.56-10.17C19.88,9.91,19.37,9.78,19.3,10.12Z" transform="translate(-6.36 0)"/>
    <path class="cls-2" d="M20.28,10.39c-.82,3.38-1.74,6.73-2.56,10.11a.36.36,0,0,0,.69.17c.92-3.35,1.69-6.75,2.46-10.13A.3.3,0,0,0,20.28,10.39Z" transform="translate(-6.36 0)"/>
    <path class="cls-2" d="M21.44,10.34c-.79,3.68-2,7.24-2.85,10.9-.07.28.38.49.5.19a65.44,65.44,0,0,0,2.87-11C22,10.13,21.51,10,21.44,10.34Z" transform="translate(-6.36 0)"/>
    <path class="cls-2" d="M22.42,10.39c-.85,3.79-2,7.48-2.93,11.24-.09.35.43.47.55.13a92.17,92.17,0,0,0,2.89-11.24C23,10.19,22.49,10.06,22.42,10.39Z" transform="translate(-6.36 0)"/>
    <path class="cls-2" d="M23.48,10.28c-.79,3.6-2.06,7.1-2.82,10.7-.07.31.4.54.54.22A56.38,56.38,0,0,0,24,10.41.28.28,0,0,0,23.48,10.28Z" transform="translate(-6.36 0)"/>
    <path class="cls-2" d="M24.57,10.14c-.72,3.26-1.55,6.49-2.37,9.73a.32.32,0,0,0,.62.15c.85-3.23,1.53-6.5,2.17-9.78A.22.22,0,0,0,24.57,10.14Z" transform="translate(-6.36 0)"/>
    <path class="cls-2" d="M25.37,11.16c-.32,2.27-1.05,4.51-1.32,6.77,0,.25.35.48.47.18a26.69,26.69,0,0,0,1.35-6.83C25.91,11,25.41,10.83,25.37,11.16Z" transform="translate(-6.36 0)"/>
    <path class="cls-2" d="M17.69,21.13c-.22,1.16-.61,2.29-.81,3.44-.05.28.37.49.49.19a17.34,17.34,0,0,0,.84-3.5C18.27,20.93,17.75,20.79,17.69,21.13Z" transform="translate(-6.36 0)"/>
    <path class="cls-2" d="M18.7,21.51a35,35,0,0,0-1.1,4.26.28.28,0,0,0,.54.14,36.55,36.55,0,0,0,1.12-4.26A.29.29,0,0,0,18.7,21.51Z" transform="translate(-6.36 0)"/>
    <path class="cls-2" d="M19.6,21.79c-.33,1.51-.75,3-1.1,4.52a.31.31,0,0,0,.6.15c.43-1.48.72-3,1-4.54.06-.34-.45-.47-.53-.13Z" transform="translate(-6.36 0)"/>
    <path class="cls-2" d="M20.73,21.89a21.54,21.54,0,0,0-1.21,5c0,.34.45.33.55.06.57-1.57.77-3.34,1.21-5C21.38,21.68,20.83,21.54,20.73,21.89Z" transform="translate(-6.36 0)"/>
    <path class="cls-2" d="M21.73,21.85c-.31,1.52-.52,3.1-1,4.59-.09.3.35.45.51.19a5.43,5.43,0,0,0,.47-2c.15-.89.29-1.77.44-2.66C22.22,21.67,21.78,21.56,21.73,21.85Z" transform="translate(-6.36 0)"/>
    <path class="cls-2" d="M22.33,24.15a5.44,5.44,0,0,1-.09.8,3.59,3.59,0,0,0-.12.73.27.27,0,0,0,.5.12,4.1,4.1,0,0,0,.31-1.67C23,23.75,22.35,23.77,22.33,24.15Z" transform="translate(-6.36 0)"/>
    <path class="cls-3" d="M9.64,27C8.77,29.33,7.46,31.81,7,34.23a.3.3,0,0,0,.59.15c.93-2.38,1.77-4.79,2.65-7.19C10.4,26.8,9.78,26.66,9.64,27Z" transform="translate(-6.36 0)"/>
    <path class="cls-3" d="M11.35,25.88c-1.36,3.93-3,7.88-4.07,11.91-.09.35.46.59.61.24,1.64-3.86,2.78-8,4.12-12C12.15,25.62,11.5,25.47,11.35,25.88Z" transform="translate(-6.36 0)"/>
    <path class="cls-3" d="M11.45,29.29a93.44,93.44,0,0,0-3.39,10c-.11.46.53.59.69.18,1.25-3.27,2.18-6.68,3.36-10C12.27,29,11.6,28.89,11.45,29.29Z" transform="translate(-6.36 0)"/>
    <path class="cls-3" d="M12.89,28.75a94.92,94.92,0,0,0-3,10.68.33.33,0,0,0,.64.16c1.12-3.51,1.9-7.14,2.95-10.68C13.65,28.5,13,28.35,12.89,28.75Z" transform="translate(-6.36 0)"/>
    <path class="cls-3" d="M14.18,27.66c-1,3.95-2,7.9-2.93,11.88a.33.33,0,0,0,.64.15c1-3.93,1.94-7.92,2.9-11.88A.31.31,0,0,0,14.18,27.66Z" transform="translate(-6.36 0)"/>
    <path class="cls-3" d="M15.12,27.85c-.75,3.74-1.8,7.48-2.38,11.25a.3.3,0,0,0,.58.14A99.33,99.33,0,0,0,15.76,28C15.84,27.59,15.2,27.43,15.12,27.85Z" transform="translate(-6.36 0)"/>
    <path class="cls-3" d="M16.11,29.67c-1,2.88-1.33,6-1.91,9a.31.31,0,0,0,.6.15c.88-3,.86-6.07,1.88-9C16.81,29.45,16.24,29.32,16.11,29.67Z" transform="translate(-6.36 0)"/>
    <path class="cls-3" d="M16.75,31.27c-.38,2.74-1,5.45-1.39,8.19a.28.28,0,0,0,.55.14,52.66,52.66,0,0,0,1.44-8.18c0-.4-.55-.55-.61-.15Z" transform="translate(-6.36 0)"/>
    <path class="cls-3" d="M17.86,33.86c-.3,1.54-.73,3.11-.88,4.68,0,.37.53.39.63.07.43-1.48.61-3.07.9-4.59C18.59,33.6,17.94,33.44,17.86,33.86Z" transform="translate(-6.36 0)"/>
    <path class="cls-3" d="M18.57,35.75A21.15,21.15,0,0,0,18,39.09c0,.38.51.39.63.06a20.44,20.44,0,0,0,.6-3.23C19.33,35.48,18.65,35.3,18.57,35.75Z" transform="translate(-6.36 0)"/>
    <path class="cls-3" d="M19.44,37.83a9.8,9.8,0,0,0-.25,1.61c0,.36.48.36.59.07a9.73,9.73,0,0,0,.3-1.52C20.16,37.57,19.52,37.41,19.44,37.83Z" transform="translate(-6.36 0)"/>
    <path class="cls-3" d="M21.78,33.87a39.83,39.83,0,0,0-1.32,5.67c-.05.38.49.54.59.15.53-1.86.85-3.79,1.35-5.66A.32.32,0,0,0,21.78,33.87Z" transform="translate(-6.36 0)"/>
    <path class="cls-3" d="M23.79,29a73.07,73.07,0,0,0-1.74,9.63c0,.38.56.42.65.07.82-3.11,1.16-6.38,1.77-9.54C24.56,28.73,23.88,28.56,23.79,29Z" transform="translate(-6.36 0)"/>
    <path class="cls-3" d="M25.29,27.31c-.66,3.86-1.6,7.78-1.89,11.68,0,.36.52.4.61.07,1-3.76,1.31-7.75,1.9-11.59C26,27.06,25.36,26.9,25.29,27.31Z" transform="translate(-6.36 0)"/>
    <path class="cls-3" d="M26.36,28.84c-.61,3.15-1.27,6.33-1.61,9.52,0,.35.54.41.6.07.63-3.13,1-6.3,1.61-9.44C27,28.6,26.43,28.44,26.36,28.84Z" transform="translate(-6.36 0)"/>
    <path class="cls-3" d="M27.55,29.29C27.11,32.65,26.34,36,26,39.35c0,.37.54.41.63.07a68.27,68.27,0,0,0,1.57-10C28.23,29,27.6,28.87,27.55,29.29Z" transform="translate(-6.36 0)"/>
    <path class="cls-3" d="M29.55,26.69c-.65,4-1.34,8-1.93,11.94-.07.47.64.66.72.18.66-4,1.21-8,1.81-12C30.21,26.45,29.61,26.29,29.55,26.69Z" transform="translate(-6.36 0)"/>
    <path class="cls-3" d="M31.78,30c-.56,2.92-1.5,6-1.57,9,0,.35.47.36.58.07,1-2.79,1.19-6,1.7-8.9C32.57,29.71,31.87,29.53,31.78,30Z" transform="translate(-6.36 0)"/>
    <path class="cls-3" d="M32.79,32.6c-.36,2.1-.85,4.15-1.24,6.23a.33.33,0,0,0,.64.16,50.41,50.41,0,0,0,1.27-6.22C33.53,32.33,32.86,32.16,32.79,32.6Z" transform="translate(-6.36 0)"/>
    <path class="cls-4" d="M29.05,7A13.75,13.75,0,0,0,24.41.78,4.17,4.17,0,0,0,19.64.72c-4.27-1.74-8,3.91-8.76,7.49a18.89,18.89,0,0,0,.53,7.8c.48,2.16,1.69,4.31,4.12,4.47a.53.53,0,0,0,.42-.14,8,8,0,0,0,.88.74c-.46,1.44-.7,2.72-2.42,3.09a9.69,9.69,0,0,0-3.1.83.38.38,0,0,0-.2.33C8,26.75,6.72,30.6,6.46,33.83c-.11,1.52-.37,4.51,1,5.63a3.09,3.09,0,0,0,2,.52c1.4,0,2.8,0,4.2,0q8.13,0,16.27-.23c1.69,0,3.57,0,4.16-1.92a12.19,12.19,0,0,0-.1-5.24c-.53-3.12-3-8.7-7.12-7.57-2-.17-4.38-.92-4.53-3.33a7.36,7.36,0,0,0,1.43-1.36l.09,0c2.7,1,3.8-2.41,4.42-4.3,1-3,2.05-6,.81-9.12ZM19.2,27.69a1.45,1.45,0,0,0-.1.18,1.08,1.08,0,0,0,.64,1.48A1,1,0,0,0,20.81,29,1,1,0,0,0,21,27.6a25,25,0,0,0,2.44-2.38A6.34,6.34,0,0,0,26.4,26a16.5,16.5,0,0,1,1.16,2c-.95-.63-1.93-1.24-2.93-1.81a.59.59,0,0,0-.85.37c-1.19,3.3-2.59,6.51-3.94,9.75a99.11,99.11,0,0,0-4.39-9.75.5.5,0,0,0-.77-.08c-.8.65-1.62,1.27-2.47,1.86a11.53,11.53,0,0,0,.44-2.83.31.31,0,0,0,0-.1c1.11-.3,2.33-.2,3.34-.84l.09-.06a.53.53,0,0,0,.13.3,21.72,21.72,0,0,0,3,2.91Zm3.47-3.09c-.83.86-1.74,1.62-2.6,2.44a28.85,28.85,0,0,1-3.18-3,.64.64,0,0,0-.21-.14,5,5,0,0,0,1-2.32,4.67,4.67,0,0,0,3.66.61,4.41,4.41,0,0,0,1.35,2.4ZM32.78,37.87c-.74,1.05-2.9.69-4,.72-2.36,0-4.72.1-7.08.13s-4.73.06-7.09.08l-3.67,0c-1.4,0-2.79.38-3.26-1.33-1-3.54.18-9.57,3.88-11.25a9.65,9.65,0,0,1-.79,3.08c-.18.42.24.94.69.65,1.17-.76,2.29-1.58,3.38-2.44a98.73,98.73,0,0,1,4.46,10,.5.5,0,0,1,0,.13c-.24.61.61,1.13.93.51a87.93,87.93,0,0,0,4.45-10.6q2,1.2,3.93,2.57c.43.3,1-.23.85-.68a17,17,0,0,0-1.59-3.36c1.76.06,3.28,2,4,3.44A14.39,14.39,0,0,1,33.05,35c0,.84.22,2.12-.28,2.84Zm-9-19.64c-.86,1.47-2.34,3.33-4.23,2.89a6.63,6.63,0,0,1-3.85-2.86,7.43,7.43,0,0,1-.94-5.18c.23-1.67.5-4.68,2.37-5.34.25.89.31,1.87,1.1,2.46,1.08.83,3,.49,4.29.47.82,0,2.21-.32,2.67.5a4.85,4.85,0,0,1,0,2.51,11.81,11.81,0,0,1-1.46,4.55ZM27.73,14c-.53,1.64-1.12,5.43-3.31,5.45a.76.76,0,0,1,.08-.11,12.4,12.4,0,0,0,1.71-4.35,8,8,0,0,0,.08-4.18c-.64-1.68-2.59-1.24-4-1.23-1.16,0-3,.34-3.66-.86-.36-.67-.26-1.46-.71-2.12a.56.56,0,0,0-1,.18c-2.72.91-3.2,4.93-3.32,7.42A8.1,8.1,0,0,0,15,19.22c-1.88-.56-2.36-2.87-2.69-4.6A16.52,16.52,0,0,1,12,8.48c.53-2.79,3.43-7.88,6.9-7h0c-.4.56.53,1,.93.51l.12-.16a.54.54,0,0,0,.46-.41c1.43-1,3.49.12,4.58,1.27A14.76,14.76,0,0,1,28.1,7.68C28.85,9.82,28.39,11.86,27.73,14Z" transform="translate(-6.36 0)"/>
  </g>
</svg>
