<svg id="레이어_1" data-name="레이어 1" xmlns="http://www.w3.org/2000/svg" viewBox="0 0 35.81 40">
  <defs>
    <style>
      .cls-1 {
        fill: #630;
      }

      .cls-1, .cls-2, .cls-3, .cls-4 {
        fill-rule: evenodd;
      }

      .cls-2 {
        fill: #ff9500;
      }

      .cls-3 {
        fill: #576d64;
      }
    </style>
  </defs>
  <title>1</title>
  <g>
    <polygon class="cls-1" points="32.24 38.76 32.47 34.52 31.53 6.04 30.29 4.1 27.01 3.11 10.82 2.97 3.75 3.44 3.75 2.43 7.36 0.72 12.63 0.57 25.33 1.51 32.39 2.01 34.52 3.11 35.05 8.38 35.12 34.49 33.34 38.76 32.24 38.76"/>
    <polygon class="cls-2" points="2.92 6.64 2.74 5.86 2.28 4.9 3.75 3.11 10.47 2.79 28.24 3.33 30.59 4.72 31.73 6.33 32.51 33.75 32.3 37.92 31.17 39.23 5.95 38.76 4.17 37.54 3.75 34.73 7.36 34.56 8.34 33.37 6.97 31.81 4.03 32.19 3.11 9.11 4.33 8.67 6.93 8.9 7.45 8.25 7.44 7.29 6.26 6.64 2.92 6.64"/>
    <polygon class="cls-3" points="15.88 17.55 15.88 14.38 16.72 12.82 18.93 12.41 20.73 12.63 21.79 14.53 21.72 17.14 19.82 20.33 19.6 21.35 21.15 22.11 23.51 23.13 24.65 25.21 24.65 26.36 18.4 26.85 13.12 26.85 12.53 25.19 14.14 23.13 15.68 22.58 17.5 22.04 17.74 21.21 17.08 19.99 15.95 18.55 15.88 17.55"/>
    <path class="cls-3" d="M20.81,12.65l-1.94,2.22A8.75,8.75,0,0,0,17.15,17a.47.47,0,0,0,.65.62,8.71,8.71,0,0,0,1.86-2l1.9-2.25C22,12.86,21.25,12.15,20.81,12.65Z" transform="translate(-1.71 0)"/>
    <path class="cls-3" d="M22.32,13.57c-.79,1-1.55,1.94-2.28,2.93a10.76,10.76,0,0,0-1.93,3.12c-.11.42.4.61.68.37a13.1,13.1,0,0,0,1.95-2.63c.74-1.05,1.52-2.07,2.33-3.08C23.48,13.77,22.75,13.06,22.32,13.57Z" transform="translate(-1.71 0)"/>
    <path class="cls-3" d="M22.65,16.71c-.54.9-1.12,1.77-1.74,2.62a24.61,24.61,0,0,0-1.74,2.32c-.18.33.24.8.57.54a18.3,18.3,0,0,0,3.69-5.05C23.73,16.64,23,16.22,22.65,16.71Z" transform="translate(-1.71 0)"/>
    <path class="cls-3" d="M21.31,21.35c-.86.9-1.7,1.82-2.54,2.74a21.4,21.4,0,0,0-2.22,2.64c-.28.45.34.83.7.52a26.88,26.88,0,0,0,2.33-2.66c.78-.89,1.56-1.77,2.35-2.64A.43.43,0,0,0,21.31,21.35Z" transform="translate(-1.71 0)"/>
    <path class="cls-3" d="M23.18,22.26c-.64.68-1.26,1.39-1.84,2.12A7.81,7.81,0,0,0,20,26.45c-.16.44.43.65.71.4a14.39,14.39,0,0,0,1.53-2c.52-.67,1.06-1.31,1.63-1.94C24.25,22.46,23.59,21.83,23.18,22.26Z" transform="translate(-1.71 0)"/>
    <path class="cls-3" d="M24.83,23.41a39.61,39.61,0,0,0-2.62,3.19c-.24.36.3.72.59.44A36.46,36.46,0,0,0,25.41,24C25.74,23.57,25.16,23,24.83,23.41Z" transform="translate(-1.71 0)"/>
    <path class="cls-3" d="M18.52,22.41c-1,1.32-2.21,2.46-3.24,3.75a.42.42,0,0,0,.61.58,20.5,20.5,0,0,0,3.28-3.85C19.44,22.52,18.8,22.05,18.52,22.41Z" transform="translate(-1.71 0)"/>
    <path class="cls-3" d="M16.2,22.86c-.63.86-1.34,1.7-1.89,2.62-.26.43.38.91.71.52.71-.8,1.29-1.73,1.92-2.59C17.24,23,16.51,22.44,16.2,22.86Z" transform="translate(-1.71 0)"/>
    <path class="cls-2" d="M6.55,3.45l-1.1,1.2a6.44,6.44,0,0,0-1,1.21c-.2.36.24.82.6.57a6.09,6.09,0,0,0,1.1-1.11c.37-.4.73-.81,1.09-1.22S7,3,6.55,3.45Z" transform="translate(-1.71 0)"/>
    <path class="cls-2" d="M8.49,3.32c-.42.48-.85,1-1.28,1.43A7,7,0,0,0,6.08,6.17a.4.4,0,0,0,.56.53A6.42,6.42,0,0,0,7.91,5.42L9.18,4C9.59,3.52,8.9,2.86,8.49,3.32Z" transform="translate(-1.71 0)"/>
    <path class="cls-2" d="M10.5,3.21A16.85,16.85,0,0,1,9.43,4.79,16,16,0,0,0,8.35,6.17c-.23.37.27.86.63.6a10,10,0,0,0,2.37-3.09C11.67,3.13,10.82,2.67,10.5,3.21Z" transform="translate(-1.71 0)"/>
    <path class="cls-2" d="M6.41,9.08l-1,1.16a5.61,5.61,0,0,0-.88,1.17c-.18.38.23.88.63.6a5.92,5.92,0,0,0,1-1l1-1.17C7.58,9.28,6.84,8.57,6.41,9.08Z" transform="translate(-1.71 0)"/>
    <path class="cls-2" d="M13,3.46c-2.78,3.55-5.72,7-8.34,10.7-.34.47.44,1,.81.59,2.87-3.43,5.47-7.12,8.17-10.68C14,3.62,13.35,3,13,3.46Z" transform="translate(-1.71 0)"/>
    <path class="cls-2" d="M15.29,3.58C11.92,8.13,8.27,12.5,5,17.12c-.33.47.43,1,.8.59C9.5,13.44,12.72,8.68,16,4.1,16.28,3.69,15.59,3.18,15.29,3.58Z" transform="translate(-1.71 0)"/>
    <path class="cls-2" d="M17.72,3.55C13.44,9.63,8.66,15.33,4.36,21.38c-.34.47.44,1,.82.6,4.94-5.52,9.17-11.87,13.37-18C18.89,3.51,18.06,3.07,17.72,3.55Z" transform="translate(-1.71 0)"/>
    <path class="cls-2" d="M20.89,3.47c-5.42,7.22-11.41,14.32-16.19,22a.49.49,0,0,0,.78.57C11.35,19.16,16.31,11.3,21.56,4,21.84,3.58,21.17,3.09,20.89,3.47Z" transform="translate(-1.71 0)"/>
    <path class="cls-2" d="M25.7,3.51q-1.36,2.05-2.76,4.1a29.31,29.31,0,0,0-2.73,4.11.47.47,0,0,0,.75.55,23.07,23.07,0,0,0,2.78-3.86Q25.21,6.22,26.63,4C27,3.45,26.07,2.94,25.7,3.51Z" transform="translate(-1.71 0)"/>
    <path class="cls-2" d="M29.09,3.65Q27.35,6,25.58,8.35a31.67,31.67,0,0,0-3.14,4.27.45.45,0,0,0,.71.52,30.58,30.58,0,0,0,3.61-4.61c1-1.43,2.08-2.86,3.12-4.3C30.19,3.78,29.42,3.21,29.09,3.65Z" transform="translate(-1.71 0)"/>
    <path class="cls-2" d="M31.54,4.3c-2.65,3.82-5.91,7.31-8.42,11.2-.28.44.36.86.71.52,3.3-3.16,5.94-7.51,8.47-11.29C32.62,4.25,31.85,3.84,31.54,4.3Z" transform="translate(-1.71 0)"/>
    <path class="cls-2" d="M32.27,6.24a173.63,173.63,0,0,1-11,14.92c-.46.57.37,1.37.84.79A157.88,157.88,0,0,0,33.05,6.67C33.35,6.19,32.58,5.77,32.27,6.24Z" transform="translate(-1.71 0)"/>
    <path class="cls-2" d="M33.05,8.87a136.4,136.4,0,0,1-9.42,13c-.45.55.32,1.31.8.77A84.73,84.73,0,0,0,33.89,9.34C34.2,8.8,33.37,8.35,33.05,8.87Z" transform="translate(-1.71 0)"/>
    <path class="cls-2" d="M32.75,13.24c-2.36,3.26-5.19,6.48-7.13,10a.47.47,0,0,0,.75.55c2.71-3,4.82-6.78,7.14-10.13C33.83,13.2,33.07,12.8,32.75,13.24Z" transform="translate(-1.71 0)"/>
    <path class="cls-2" d="M18.28,27.17C15.34,31,12.09,34.74,9.49,38.81a.48.48,0,0,0,.76.56c3.16-3.59,5.85-7.71,8.7-11.56C19.3,27.34,18.65,26.69,18.28,27.17Z" transform="translate(-1.71 0)"/>
    <path class="cls-2" d="M15.46,26.56A140.08,140.08,0,0,1,6.68,38.34c-.42.51.33,1.23.75.71A133.22,133.22,0,0,0,16.2,27C16.51,26.51,15.76,26.1,15.46,26.56Z" transform="translate(-1.71 0)"/>
    <path class="cls-2" d="M16.84,17.13C13.43,22,10.29,27.23,6.38,31.71a.48.48,0,0,0,.7.67c4.14-4.29,7.2-9.9,10.51-14.83C17.9,17.08,17.15,16.68,16.84,17.13Z" transform="translate(-1.71 0)"/>
    <path class="cls-2" d="M17.63,19.58a9.14,9.14,0,0,1-.83,1.29A11.8,11.8,0,0,0,15.9,22a.41.41,0,0,0,.57.54,4,4,0,0,0,1-1.13,10.63,10.63,0,0,0,.88-1.4A.43.43,0,0,0,17.63,19.58Z" transform="translate(-1.71 0)"/>
    <path class="cls-2" d="M13.74,26c-.78,1.14-1.59,2.26-2.45,3.35a25.53,25.53,0,0,0-2.15,2.73c-.27.45.33.79.68.5a18,18,0,0,0,2.56-3.12c.73-1,1.43-2,2.11-3C14.8,26,14.05,25.58,13.74,26Z" transform="translate(-1.71 0)"/>
    <path class="cls-2" d="M7,35.06a15.19,15.19,0,0,0-1.48,1.83c-.25.41.31.76.64.47a14.88,14.88,0,0,0,1.45-1.71C8,35.22,7.36,34.64,7,35.06Z" transform="translate(-1.71 0)"/>
    <path class="cls-1" d="M8.6.72A11.14,11.14,0,0,0,7.53,2.2a.36.36,0,0,0,.58.42A10,10,0,0,0,9.22,1.31C9.56.88,8.94.29,8.6.72Z" transform="translate(-1.71 0)"/>
    <path class="cls-1" d="M10.89.49A13.45,13.45,0,0,0,9.24,2c-.23.29.09.77.44.53A14.35,14.35,0,0,0,11.43,1c.36-.33-.18-.84-.54-.52Z" transform="translate(-1.71 0)"/>
    <path class="cls-1" d="M12.14.58c-.37.44-.77.87-1.12,1.33s.31.73.6.44.72-.83,1.07-1.24S12.47.2,12.14.58Z" transform="translate(-1.71 0)"/>
    <path class="cls-1" d="M14.15.65A8.24,8.24,0,0,0,13,1.91a.35.35,0,0,0,.49.47,9.45,9.45,0,0,0,1.26-1.19C15.08.83,14.51.29,14.15.65Z" transform="translate(-1.71 0)"/>
    <path class="cls-1" d="M15.52.91c-.25.37-.55.7-.84,1s.11.83.46.57a4.87,4.87,0,0,0,1.09-1.22C16.53.87,15.81.48,15.52.91Z" transform="translate(-1.71 0)"/>
    <path class="cls-1" d="M17.47.92c-.27.43-.64.77-.89,1.21s.18.54.44.42a3.15,3.15,0,0,0,1.17-1.23C18.47.87,17.74.47,17.47.92Z" transform="translate(-1.71 0)"/>
    <path class="cls-1" d="M19.75,1a12.63,12.63,0,0,0-.95,1.11c-.25.36.3.68.59.43a11,11,0,0,0,.93-1C20.66,1.19,20.09.65,19.75,1Z" transform="translate(-1.71 0)"/>
    <path class="cls-1" d="M21.43,1.34a12.1,12.1,0,0,0-.8,1c-.24.33.27.63.54.39a10.58,10.58,0,0,0,.8-.84C22.31,1.5,21.74,1,21.43,1.34Z" transform="translate(-1.71 0)"/>
    <path class="cls-1" d="M23.54,1.42a11.13,11.13,0,0,0-.89,1.27.34.34,0,0,0,.54.39A10.8,10.8,0,0,0,24.13,2C24.46,1.57,23.86,1,23.54,1.42Z" transform="translate(-1.71 0)"/>
    <path class="cls-1" d="M25.68,1.53a12.94,12.94,0,0,0-.89,1.07c-.26.34.28.67.56.42a11.5,11.5,0,0,0,.9-1C26.6,1.7,26,1.14,25.68,1.53Z" transform="translate(-1.71 0)"/>
    <path class="cls-1" d="M27.49,1.82A13.94,13.94,0,0,0,26.67,3a.29.29,0,0,0,.47.34,12.31,12.31,0,0,0,.92-1.11A.36.36,0,1,0,27.49,1.82Z" transform="translate(-1.71 0)"/>
    <path class="cls-1" d="M29.77,1.7a10.32,10.32,0,0,1-1.05,1.41.35.35,0,0,0,.5.49,5.9,5.9,0,0,0,1.25-1.52C30.73,1.64,30,1.26,29.77,1.7Z" transform="translate(-1.71 0)"/>
    <path class="cls-1" d="M32.66,1.82a.44.44,0,0,0-.58.16,14.42,14.42,0,0,0-.94,1.37.38.38,0,0,0,.6.44,13.37,13.37,0,0,0,1.08-1.4A.41.41,0,0,0,32.66,1.82Z" transform="translate(-1.71 0)"/>
    <path class="cls-1" d="M34.1,2a22,22,0,0,0-1.55,2.05c-.22.33.28.68.55.4a24.19,24.19,0,0,0,1.56-1.92c.3-.39-.25-.92-.56-.53Z" transform="translate(-1.71 0)"/>
    <path class="cls-1" d="M35.2,2.91c-.66.83-1.36,1.64-2,2.5-.2.3.27.64.51.38.69-.77,1.31-1.6,1.95-2.41C36,3,35.48,2.57,35.2,2.91Z" transform="translate(-1.71 0)"/>
    <path class="cls-1" d="M35.5,4.8c-.67.93-1.47,1.74-2.17,2.63a.35.35,0,0,0,.51.49,14.22,14.22,0,0,0,2.32-2.75C36.45,4.77,35.78,4.41,35.5,4.8Z" transform="translate(-1.71 0)"/>
    <path class="cls-1" d="M36,6.77,34.76,8.3a6.91,6.91,0,0,0-1,1.47c-.11.25.17.63.44.42A16.15,16.15,0,0,0,36.52,7.3C36.81,6.92,36.27,6.39,36,6.77Z" transform="translate(-1.71 0)"/>
    <path class="cls-1" d="M36.15,8.8A30,30,0,0,0,33.69,12a.35.35,0,0,0,.56.42,27.91,27.91,0,0,0,2.42-3.09C37,8.93,36.44,8.43,36.15,8.8Z" transform="translate(-1.71 0)"/>
    <path class="cls-1" d="M36.19,11.2c-.8,1.12-1.76,2.09-2.64,3.13a.37.37,0,0,0,.53.51,15.81,15.81,0,0,0,2.76-3.28C37.11,11.16,36.46,10.82,36.19,11.2Z" transform="translate(-1.71 0)"/>
    <path class="cls-1" d="M36.18,13.13c-.93,1.44-2.07,2.78-2.92,4.25a.4.4,0,0,0,.63.47,28.67,28.67,0,0,0,3-4.35C37.1,13.08,36.44,12.72,36.18,13.13Z" transform="translate(-1.71 0)"/>
    <path class="cls-1" d="M36.06,15.93c-.76,1.18-1.68,2.3-2.36,3.52a.37.37,0,0,0,.58.43,25.23,25.23,0,0,0,2.49-3.56C37.05,15.88,36.34,15.5,36.06,15.93Z" transform="translate(-1.71 0)"/>
    <path class="cls-1" d="M36.16,18.73c-.8,1.2-1.68,2.34-2.48,3.52-.25.36.33.79.62.46a33.87,33.87,0,0,0,2.58-3.58C37.17,18.69,36.45,18.3,36.16,18.73Z" transform="translate(-1.71 0)"/>
    <path class="cls-1" d="M36.17,21.26c-.68,1.21-1.53,2.27-2.29,3.41-.22.35.29.69.57.42a14.84,14.84,0,0,0,2.41-3.45A.39.39,0,0,0,36.17,21.26Z" transform="translate(-1.71 0)"/>
    <path class="cls-1" d="M36.41,24c-.74,1.13-1.53,2.24-2.18,3.42-.21.38.36.84.64.47.83-1.11,1.54-2.31,2.29-3.47C37.46,24,36.71,23.58,36.41,24Z" transform="translate(-1.71 0)"/>
    <path class="cls-1" d="M36.48,26.79a18.29,18.29,0,0,0-2.23,3.49c-.14.33.29.74.56.41.88-1.1,1.53-2.38,2.34-3.52C37.45,26.76,36.76,26.39,36.48,26.79Z" transform="translate(-1.71 0)"/>
    <path class="cls-1" d="M36.15,29.58,34.4,32.19c-.29.44.44.85.73.4L36.87,30C37.15,29.53,36.44,29.15,36.15,29.58Z" transform="translate(-1.71 0)"/>
    <path class="cls-1" d="M36.61,31.79c-.7,1-1.46,2.05-2.06,3.14-.21.37.33.79.6.45.81-1,1.48-2.12,2.19-3.19C37.64,31.75,36.91,31.35,36.61,31.79Z" transform="translate(-1.71 0)"/>
    <path class="cls-4" d="M32.14,39.91a2.32,2.32,0,0,0,.46-.07.61.61,0,0,0,.55.14c4.73-1,4.38-7,4.37-10.63h0q0-8.67-.32-17.32a64.28,64.28,0,0,0-.38-8.45c-.31-1.76-1.6-2.19-3.22-2.32C28,.81,22.37.57,16.76.24,12.63,0,7.12-.81,4.23,2.94a.58.58,0,0,0-.08.61,1,1,0,0,0-.08.11,2.09,2.09,0,0,0,0,2.58,2.72,2.72,0,0,0-1.61.61,1.61,1.61,0,0,0,.71,2.88,3.68,3.68,0,0,0,1.1,0,.67.67,0,0,0-.11.36,186.12,186.12,0,0,0,.67,21.64H4.62c-.75,0-1.83-.1-2.44.47-1.16,1.09.06,2.6,1.22,2.94a8.22,8.22,0,0,0,1.38.28c.13,2.37,1.31,4.21,3.9,4.34,3.94.21,7.92.08,11.86.11l5.68,0m-.9-17.7c1.13.79,2.41,2.9,1.66,4.32s-3.65,1-4.94.88a30.86,30.86,0,0,0-4.3,0,5.39,5.39,0,0,1-2.85-.13,2.48,2.48,0,0,1-.83-3.41,5.21,5.21,0,0,1,4.86-2.31h0c.23-.37-1.16-1.66-1.27-1.81a4.1,4.1,0,0,1-.59-1.16,8.5,8.5,0,0,1-.25-3.33c.15-2,.76-3.24,2.85-3.57,1.61-.27,3.44-.09,4.22,1.56a6.62,6.62,0,0,1-.49,5.51c-.26.47-.66.82-.94,1.26s-1.13.76-.08,1.38a3.78,3.78,0,0,0,.67,0,4.3,4.3,0,0,1,2.27.78ZM24,26.33c-2.22,0-4.38-.27-6.61-.1-1.29.1-3.09.21-2.24-1.71.61-1.38,2.41-1.78,3.75-1.72a.52.52,0,0,0,.51-.27,1.44,1.44,0,0,0,.49-1.9c-.4-.87-1.32-1.22-1.69-2.15a6.91,6.91,0,0,1-.26-3c.11-1.51.61-2.47,2.23-2.64s2.71.44,2.81,2.1a5.91,5.91,0,0,1-.93,3.6,10,10,0,0,0-1.39,1.88,1.66,1.66,0,0,0,.94,2.21,6.88,6.88,0,0,0,1.2,0,3.34,3.34,0,0,1,2,.78,3.06,3.06,0,0,1,1,1.66c.08,1.35-1,1.29-1.83,1.29ZM3.54,8.55,3.11,7.9a1.77,1.77,0,0,1,1.43-.55c.45,0,.92,0,1.37,0L8,7.29a.78.78,0,0,0,.18.11c.37.93.15,1.23-.64.88L7.1,8.22A7.6,7.6,0,0,0,6,8.17c-.61,0-2,.58-2.49.38Zm0,24.35c.13-.17,1.33-.08,1.63-.1h.14a.67.67,0,0,0,.52,0l2.88-.18c.12.15.23.29.33.44a2.38,2.38,0,0,0,.43.41,3.63,3.63,0,0,1-1,.43,9.33,9.33,0,0,1-3.57.24c-.33,0-2.31,0-1.37-1.19Zm28.55,5.73a75,75,0,0,1-8.61,0l-9.56-.08c-1.67,0-3.37,0-5-.05-1.95-.1-2.72-1.31-2.85-3a8.35,8.35,0,0,0,3.64-.76c2-1,.6-2.34-.64-3.35a.57.57,0,0,0-.85.19l-2.13.1C5.66,24.42,5.25,17.25,5.34,10a.5.5,0,0,0-.26-.47,6.42,6.42,0,0,1,1.44-.16c.92,0,2,.5,2.79-.12a1.58,1.58,0,0,0,.07-2.53.52.52,0,0,0-.52-.52l-3.52,0a.45.45,0,0,0-.18-.49c-.8-.63,0-1.63.63-1.92a3.62,3.62,0,0,1,1-.2c.62-.07,1.27-.06,1.9-.08,1.47,0,2.95-.08,4.42-.1q4.29-.06,8.56.1a63.71,63.71,0,0,1,9.06.7c2,.38,1.82,2.3,1.88,3.93s.1,3,.16,4.52q.31,8.73.64,17.47l.15,4.21c.06,1.5.62,4.06-1.49,4.29Zm2.73-1.09a17.28,17.28,0,0,0,0-3.53c-.29-7.83-.56-15.66-.86-23.49-.09-2.54.7-6.68-2.52-7.47a32.33,32.33,0,0,0-5.12-.54c-1.95-.15-3.92-.24-5.88-.3-4.31-.12-8.67-.11-13,.16-.36,0-.74,0-1.12.1,3.35-2.26,8.8-1.11,12.46-.88l8.87.54,4.43.28c1.52.09,3.31-.17,3.47,1.75.53,6,.49,12.18.58,18.22q.07,4.57.06,9.12C36.25,33.56,36.14,36,34.84,37.54Z" transform="translate(-1.71 0)"/>
  </g>
</svg>
