<svg xmlns="http://www.w3.org/2000/svg" xmlns:xlink="http://www.w3.org/1999/xlink" viewBox="0 0 40 40">
  <defs>
    <style>
      .cls-1 {
        isolation: isolate;
      }

      .cls-2 {
        fill: url(#linear-gradient);
      }

      .cls-11, .cls-3, .cls-4 {
        opacity: 0.25;
      }

      .cls-11, .cls-3, .cls-5, .cls-6, .cls-7 {
        mix-blend-mode: multiply;
      }

      .cls-3 {
        fill: url(#radial-gradient);
      }

      .cls-4 {
        fill: #fff;
      }

      .cls-5, .cls-6, .cls-7 {
        opacity: 0.35;
      }

      .cls-5 {
        fill: url(#linear-gradient-2);
      }

      .cls-6 {
        fill: url(#linear-gradient-3);
      }

      .cls-7 {
        fill: url(#linear-gradient-4);
      }

      .cls-8 {
        fill: #5d4037;
      }

      .cls-9 {
        fill: #4e342e;
      }

      .cls-10, .cls-11 {
        fill: #d95957;
      }
    </style>
    <linearGradient id="linear-gradient" x1="20" y1="-0.67" x2="20" y2="40.75" gradientUnits="userSpaceOnUse">
      <stop offset="0" stop-color="#ffe082"/>
      <stop offset="1" stop-color="#ffbf66"/>
    </linearGradient>
    <radialGradient id="radial-gradient" cx="20" cy="20" r="20" gradientUnits="userSpaceOnUse">
      <stop offset="0.8" stop-color="#fff"/>
      <stop offset="1" stop-color="#ffbf66"/>
    </radialGradient>
    <linearGradient id="linear-gradient-2" x1="20" y1="17.63" x2="20" y2="40.41" xlink:href="#linear-gradient"/>
    <linearGradient id="linear-gradient-3" x1="8.73" y1="10.34" x2="16.91" y2="10.34" xlink:href="#linear-gradient"/>
    <linearGradient id="linear-gradient-4" x1="23.09" y1="10.34" x2="31.27" y2="10.34" xlink:href="#linear-gradient"/>
  </defs>
  <title>1</title>
  <g class="cls-1">
    <g id="레이어_1" data-name="레이어 1">
      <g>
        <g>
          <circle class="cls-2" cx="20" cy="20" r="20"/>
          <circle class="cls-3" cx="20" cy="20" r="20"/>
          <path class="cls-4" d="M36.5,15.12c0,7.43-7.39,0-16.5,0s-16.5,7.43-16.5,0S10.89,1.67,20,1.67,36.5,7.69,36.5,15.12Z"/>
          <path class="cls-5" d="M20,36A20,20,0,0,1,.1,18,18.86,18.86,0,0,0,0,20a20,20,0,0,0,40,0,18.86,18.86,0,0,0-.1-2A20,20,0,0,1,20,36Z"/>
        </g>
        <path class="cls-6" d="M15.81,10.11c-2.52.29-5.42.8-7.08,3,.79-2.13,3-3.86,5.07-4.74.69-.3,1.63-1,2.41-.59A1.26,1.26,0,0,1,15.81,10.11Z"/>
        <path class="cls-7" d="M24.19,10.11c2.52.29,5.42.8,7.08,3-.79-2.13-3-3.86-5.07-4.74-.69-.3-1.63-1-2.41-.59A1.26,1.26,0,0,0,24.19,10.11Z"/>
        <path class="cls-8" d="M15.81,9.45c-2.54.28-5.42.79-7.08,2.94C9.59,10.05,11.82,8.6,14,7.58c.84-.41,2.25-1.16,2.82.06a1.28,1.28,0,0,1-1,1.81C13.29,9.73,17,9.3,15.81,9.45Z"/>
        <path class="cls-8" d="M24.19,9.45c2.54.28,5.42.79,7.08,2.94C30.41,10.05,28.18,8.6,26,7.58c-.84-.41-2.25-1.16-2.82.06a1.28,1.28,0,0,0,1,1.81C26.71,9.73,23,9.3,24.19,9.45Z"/>
        <path class="cls-4" d="M20.15,33.21A12.49,12.49,0,0,1,17,32.74a8.49,8.49,0,0,1-3.72-2.12c-.88-.88-2.23-2.55-1.53-3.78a1.25,1.25,0,0,1,1.11-.67,2.46,2.46,0,0,1,1.09.34l.07,0a18.37,18.37,0,0,0,1.77.64,17,17,0,0,0,4.11.49h.57a17,17,0,0,0,4.11-.49c.56-.17,1.14-.38,1.81-.65l0,0a2.46,2.46,0,0,1,1.09-.34,1.25,1.25,0,0,1,1.11.67c.7,1.23-.66,2.9-1.53,3.78a8.49,8.49,0,0,1-3.72,2.12,12.56,12.56,0,0,1-3.18.47Z"/>
        <path class="cls-8" d="M28,27.17c-.38-.67-1.13-.13-1.63.07a13.54,13.54,0,0,1-2.85.85,22.58,22.58,0,0,1-5.51.15,12.38,12.38,0,0,1-2.69-.5A17.92,17.92,0,0,0,13,26.85c-.64-.1-.85.58-.72,1.08a4.29,4.29,0,0,0,1,1.65c2.16,2.59,5.87,3.38,9.07,2.73a8.25,8.25,0,0,0,4.39-2.23c.59-.61,1.88-2,1.35-2.91Z"/>
        <path class="cls-9" d="M13.7,28.47a17.37,17.37,0,0,0,1.87.68,18.41,18.41,0,0,0,4.44.53h.29a18.41,18.41,0,0,0,4.44-.53,18.19,18.19,0,0,0,1.87-.68c.41-.2.95-.5,1.3-.09a1.36,1.36,0,0,0,.1-1.21c-.34-.6-1-.25-1.4,0a18.19,18.19,0,0,1-1.87.68,18.41,18.41,0,0,1-4.44.53H20a18.41,18.41,0,0,1-4.44-.53,17.37,17.37,0,0,1-1.87-.68c-.45-.22-1.06-.57-1.4,0a1.32,1.32,0,0,0,.1,1.21C12.75,28,13.29,28.27,13.7,28.47Z"/>
        <path class="cls-10" d="M20,29.46a6.35,6.35,0,0,0-4.83,1.78,8.36,8.36,0,0,0,2,.85,11.64,11.64,0,0,0,2.92.45c.31,0,.61,0,.91,0a12.38,12.38,0,0,0,2.18-.41,7.75,7.75,0,0,0,1.75-.71C24.12,30.26,22.22,29.46,20,29.46Z"/>
        <path class="cls-11" d="M24.49,30.92a9.34,9.34,0,0,1-1.33.51,12.38,12.38,0,0,1-2.18.4c-.3,0-.6,0-.91,0a12.11,12.11,0,0,1-2.92-.44,8.26,8.26,0,0,1-1.55-.63,3.76,3.76,0,0,0-.45.44,8.36,8.36,0,0,0,2,.85,11.64,11.64,0,0,0,2.92.45c.31,0,.61,0,.91,0a12.38,12.38,0,0,0,2.18-.41,7.75,7.75,0,0,0,1.75-.71A2.57,2.57,0,0,0,24.49,30.92Z"/>
        <g>
          <path class="cls-4" d="M12.78,19.6a5.12,5.12,0,0,1-5-3.39c-.25-.82-.14-1.48.32-1.8a1.18,1.18,0,0,1,.67-.21,2.42,2.42,0,0,1,1,.33,6,6,0,0,0,2.92.69,5.69,5.69,0,0,0,2.81-.7,2.34,2.34,0,0,1,1.09-.36,1.23,1.23,0,0,1,.78.28,1.73,1.73,0,0,1,.26,2A5.1,5.1,0,0,1,12.78,19.6Z"/>
          <path class="cls-8" d="M8.52,15c-.43.3,0,1.24.15,1.57A4.43,4.43,0,0,0,11,18.6a4.78,4.78,0,0,0,6-2.16c.19-.42.48-1.28-.07-1.56s-1.59.53-2.11.7a6.89,6.89,0,0,1-4.26,0C10.07,15.39,9,14.61,8.52,15Z"/>
          <path class="cls-9" d="M12.78,17.22c2.86,0,3.53-1.52,4.26-.93h0c.25-.61.25-1.14,0-1.34-.73-.59-1.4.93-4.26.93S9.18,14.51,8.52,15c-.22.16-.22.69,0,1.31C9.21,15.89,10,17.22,12.78,17.22Z"/>
        </g>
        <g>
          <path class="cls-4" d="M27.22,19.6a5.12,5.12,0,0,0,5-3.39c.25-.82.14-1.48-.32-1.8a1.18,1.18,0,0,0-.67-.21,2.42,2.42,0,0,0-1.05.33,6,6,0,0,1-2.92.69,5.69,5.69,0,0,1-2.81-.7,2.34,2.34,0,0,0-1.09-.36,1.23,1.23,0,0,0-.78.28,1.73,1.73,0,0,0-.26,2A5.1,5.1,0,0,0,27.22,19.6Z"/>
          <path class="cls-8" d="M27.22,15.89A7.42,7.42,0,0,1,23.89,15c-.52-.25-1.12-.21-1.12.49,0,2.16,2.62,3.44,4.45,3.44s4.29-1.32,4.42-3.43c0-.62-.42-.72-.92-.5A8.36,8.36,0,0,1,27.22,15.89Z"/>
          <path class="cls-9" d="M27.22,17.22c-2.86,0-3.53-1.52-4.26-.93h0c-.25-.61-.25-1.14,0-1.34.73-.59,1.4.93,4.26.93s3.6-1.38,4.26-.93c.22.16.22.69,0,1.31C30.79,15.89,30,17.22,27.22,17.22Z"/>
        </g>
      </g>
    </g>
  </g>
</svg>
