<svg id="레이어_1" data-name="레이어 1" xmlns="http://www.w3.org/2000/svg" viewBox="0 0 39.91 37.09">
  <defs>
    <style>
      .cls-1, .cls-2 {
        fill: #576d64;
      }

      .cls-1, .cls-4, .cls-5 {
        fill-rule: evenodd;
      }

      .cls-3, .cls-5 {
        fill: #aedff4;
      }
    </style>
  </defs>
  <title>1</title>
  <g>
    <polygon class="cls-1" points="5.62 20.7 1.22 19.67 1.36 10.56 5.62 10.56 5.62 20.7"/>
    <rect class="cls-2" x="7.9" y="21.39" width="6.88" height="8.71"/>
    <rect class="cls-3" x="8.59" y="30.46" width="5.61" height="5.61"/>
    <rect class="cls-3" x="5.68" y="10.03" width="13.7" height="10.67"/>
    <polygon class="cls-4" points="36.22 11.28 36.32 19.75 38.66 18.6 39.55 15.1 38.42 12.38 36.6 11.05 36.22 11.28"/>
    <path class="cls-1" d="M35.82,2.44v29h-.34C26.29,31.47,18.92,25,18.92,17S26.29,2.44,35.48,2.44Z" transform="translate(-0.01 -1.75)"/>
    <path class="cls-1" d="M4,11.92,2.24,13.77A9.19,9.19,0,0,0,.72,15.55a.41.41,0,0,0,.57.54,8.6,8.6,0,0,0,1.63-1.67l1.69-1.87C5,12.12,4.35,11.49,4,11.92Z" transform="translate(-0.01 -1.75)"/>
    <path class="cls-1" d="M5,13.69C4.18,14.44,3.4,15.2,2.63,16a9.3,9.3,0,0,0-2,2.26.38.38,0,0,0,.53.5,10.65,10.65,0,0,0,2.19-2.11c.76-.79,1.53-1.56,2.31-2.32C6,13.9,5.39,13.29,5,13.69Z" transform="translate(-0.01 -1.75)"/>
    <path class="cls-1" d="M5,16.8c-.57.53-1.14,1.06-1.74,1.56a10.18,10.18,0,0,0-1.76,1.5c-.21.28,0,.79.39.65a6.61,6.61,0,0,0,1.87-1.32q1-.84,1.92-1.74C6.06,17,5.38,16.38,5,16.8Z" transform="translate(-0.01 -1.75)"/>
    <path class="cls-1" d="M4.74,20l-1.19.94a7.66,7.66,0,0,0-1.1.95.42.42,0,0,0,.51.65,14.76,14.76,0,0,0,2.27-1.75C5.69,20.42,5.21,19.62,4.74,20Z" transform="translate(-0.01 -1.75)"/>
    <path class="cls-1" d="M28.49,4a81.49,81.49,0,0,0-8.7,7.69c-.36.39.16,1.11.61.76,3.07-2.4,5.82-5.26,8.8-7.78C29.68,4.23,29,3.58,28.49,4Z" transform="translate(-0.01 -1.75)"/>
    <path class="cls-1" d="M33.55,2.91C30.83,5.43,28.12,8,25.38,10.48c-1.94,1.78-4.91,3.29-6.17,5.69a.46.46,0,0,0,.73.53c2-2.13,4.42-3.82,6.55-5.84,2.58-2.44,5.13-4.89,7.7-7.34C34.6,3.12,34,2.52,33.55,2.91Z" transform="translate(-0.01 -1.75)"/>
    <path class="cls-1" d="M35.05,5.75c-2.44,2.44-4.92,4.83-7.48,7.15s-5.39,4.36-7.75,6.83a.42.42,0,0,0,.52.64C26,16.72,31,11.16,35.67,6.35,36.06,6,35.44,5.36,35.05,5.75Z" transform="translate(-0.01 -1.75)"/>
    <path class="cls-1" d="M35.26,8.79c-4.65,5.12-9.84,9.64-14.66,14.57-.36.37.16,1.06.59.73,5.4-4.22,10.15-9.59,14.68-14.71C36.24,9,35.62,8.38,35.26,8.79Z" transform="translate(-0.01 -1.75)"/>
    <path class="cls-1" d="M35,13.79A154.78,154.78,0,0,1,23.11,26.17c-.51.48.26,1.2.78.75A107.27,107.27,0,0,0,35.7,14.43C36.08,14,35.41,13.33,35,13.79Z" transform="translate(-0.01 -1.75)"/>
    <path class="cls-1" d="M34.76,18.29c-2.92,3.23-6,6.38-8.76,9.72-.43.52.3,1.24.77.73,3-3.16,5.77-6.55,8.64-9.83C35.79,18.48,35.15,17.86,34.76,18.29Z" transform="translate(-0.01 -1.75)"/>
    <path class="cls-1" d="M35.25,22.2,32,25.83a21,21,0,0,0-2.86,3.41c-.19.35.25.83.6.57a20.75,20.75,0,0,0,3-3.29c1.06-1.23,2.11-2.47,3.16-3.7C36.26,22.38,35.63,21.77,35.25,22.2Z" transform="translate(-0.01 -1.75)"/>
    <path class="cls-1" d="M35.36,25.89a29.8,29.8,0,0,1-2.11,2.51c-.75.78-1.66,1.44-2.38,2.25a.48.48,0,0,0,.6.74,17.77,17.77,0,0,0,4.63-4.95C36.41,26,35.67,25.46,35.36,25.89Z" transform="translate(-0.01 -1.75)"/>
    <path class="cls-1" d="M9.79,23.13,8.34,24.59A9,9,0,0,0,7,26a.43.43,0,0,0,.59.57A9.07,9.07,0,0,0,9,25.22l1.41-1.5A.43.43,0,0,0,9.79,23.13Z" transform="translate(-0.01 -1.75)"/>
    <path class="cls-1" d="M13.76,23.67c-1.77,2.18-3.85,4-5.73,6-.35.38.14,1.05.58.72a31.57,31.57,0,0,0,5.81-6.13c.35-.45-.29-1.08-.66-.63Z" transform="translate(-0.01 -1.75)"/>
    <path class="cls-1" d="M14.21,26.66l-2.49,2.72A17,17,0,0,0,9.49,32c-.22.38.28.9.65.62a16.11,16.11,0,0,0,2.33-2.48l2.45-2.76C15.34,26.86,14.64,26.19,14.21,26.66Z" transform="translate(-0.01 -1.75)"/>
    <path class="cls-1" d="M14.05,29.78c-.33.39-.69.78-1,1.15A7.21,7.21,0,0,0,12,32c-.23.36.25.74.59.55a4.88,4.88,0,0,0,1.1-1q.52-.57,1-1.17C15,30,14.42,29.35,14.05,29.78Z" transform="translate(-0.01 -1.75)"/>
    <path class="cls-5" d="M8,11.89A16.31,16.31,0,0,0,6.62,13c-.37.33-1,.76-1.08,1.27a.34.34,0,0,0,.43.4c.46-.13.79-.65,1.14-1S8,13,8.43,12.6,8.43,11.58,8,11.89Z" transform="translate(-0.01 -1.75)"/>
    <path class="cls-5" d="M10.56,11.79c-.92.73-1.83,1.48-2.69,2.28A10.18,10.18,0,0,0,5.5,16.65c-.17.36.21.77.56.54A15.15,15.15,0,0,0,8.31,15c.87-.85,1.78-1.65,2.72-2.42C11.48,12.2,11,11.44,10.56,11.79Z" transform="translate(-0.01 -1.75)"/>
    <path class="cls-5" d="M12.43,12.16c-1.32,1.3-2.63,2.61-3.91,3.95a26,26,0,0,0-3.38,3.81c-.21.35.27.86.61.58a35.93,35.93,0,0,0,3.49-3.7c1.27-1.35,2.56-2.69,3.86-4C13.52,12.38,12.86,11.74,12.43,12.16Z" transform="translate(-0.01 -1.75)"/>
    <path class="cls-5" d="M14.9,12.12l-5,5.56L7.56,20.33c-.46.52-.83.76-.86,1.43a.49.49,0,0,0,.74.4l.08-.05a.39.39,0,0,0,.19-.29,37.89,37.89,0,0,1,3.91-4.49l4-4.56C16,12.32,15.3,11.67,14.9,12.12Z" transform="translate(-0.01 -1.75)"/>
    <path class="cls-5" d="M17.47,11.76,13.21,17l-2,2.46-1,1.23c-.17.2-.33.41-.5.62s-.25.25-.23.31a.45.45,0,0,0-.25.29.17.17,0,0,1,0,.07.51.51,0,0,0,.63.6c.56-.13.83-.68,1.17-1.11.84-1,1.65-2.06,2.47-3.1l4.65-5.91C18.52,11.94,17.86,11.29,17.47,11.76Z" transform="translate(-0.01 -1.75)"/>
    <path class="cls-5" d="M18.37,14.21q-1.44,2.14-3,4.19c-.88,1.12-1.91,2.16-2.69,3.36-.31.48.39.9.77.56,2.31-2,4.11-5.09,5.76-7.65C19.52,14.16,18.7,13.72,18.37,14.21Z" transform="translate(-0.01 -1.75)"/>
    <path class="cls-5" d="M18.26,18.4a14.08,14.08,0,0,0-2.92,3.69c-.23.5.45,1.11.84.62A44.19,44.19,0,0,1,19,19.11C19.46,18.64,18.72,17.94,18.26,18.4Z" transform="translate(-0.01 -1.75)"/>
    <path class="cls-5" d="M18.85,20.38l-.71.94a2.73,2.73,0,0,0-.6.95.4.4,0,0,0,.59.43,2.89,2.89,0,0,0,.7-.81l.66-.89C19.83,20.55,19.19,19.93,18.85,20.38Z" transform="translate(-0.01 -1.75)"/>
    <path class="cls-5" d="M10.18,32.18A15.1,15.1,0,0,0,9,33.38c-.32.37-.83.83-.89,1.33a.42.42,0,0,0,.62.46c.44-.21.73-.79,1-1.15a15.6,15.6,0,0,1,1.14-1.16C11.37,32.43,10.65,31.76,10.18,32.18Z" transform="translate(-0.01 -1.75)"/>
    <path class="cls-5" d="M12.17,32.36c-.72.72-1.43,1.47-2.12,2.23a13.28,13.28,0,0,0-1.81,2.23.46.46,0,0,0,.74.54,22.19,22.19,0,0,0,1.91-2.19c.64-.74,1.3-1.45,2-2.14A.48.48,0,0,0,12.17,32.36Z" transform="translate(-0.01 -1.75)"/>
    <path class="cls-5" d="M13.69,33.31q-1,1-1.95,2a5.27,5.27,0,0,0-1.44,2,.4.4,0,0,0,.59.43c.68-.37,1.16-1.25,1.66-1.83s1.18-1.31,1.81-1.94C14.79,33.53,14.12,32.9,13.69,33.31Z" transform="translate(-0.01 -1.75)"/>
    <path class="cls-5" d="M13.32,36.32a9.46,9.46,0,0,1-1.26,1.49.42.42,0,0,0,.52.65,4.87,4.87,0,0,0,1.56-1.69C14.46,36.26,13.63,35.81,13.32,36.32Z" transform="translate(-0.01 -1.75)"/>
    <path class="cls-4" d="M38.17,15.49a22.91,22.91,0,0,0-2.48,2.12.45.45,0,0,0,.56.69,23.27,23.27,0,0,0,2.6-2.16C39.32,15.75,38.63,15.1,38.17,15.49Z" transform="translate(-0.01 -1.75)"/>
    <path class="cls-4" d="M15.7,23.55c1.18,0,2.34-.1,3.51-.18a.64.64,0,0,0,.58-.41,23.41,23.41,0,0,0,3.82,4.93c3.35,3.42,7.67,4.21,12.28,4.38a.74.74,0,0,0,.73-1,.76.76,0,0,0,.17-.45c.13-2.4-.16-4.87-.22-7.28l0-1.58c2-.3,3.52-2.88,3.37-4.79s-1.3-4.54-3.36-4.86c.07-3.2.18-6.39.35-9.58a1.08,1.08,0,0,0,0-.31V2.36A.61.61,0,0,0,36,1.82c-6.73-.29-13.66,3.1-16.51,9a.74.74,0,0,0-.58-.26c-4.58-.06-9.25.06-13.83.31a5.66,5.66,0,0,0-4,1.44,5.62,5.62,0,0,0-1,4.29c.11,1.69.21,4.21,1.31,5.59,1,1.18,2.62,1.16,4,1.24l1.46.07H7c0,2.29-.22,5.05.33,7.29a2.12,2.12,0,0,0,.58,1.07v0A25.55,25.55,0,0,0,8,35.09a8.92,8.92,0,0,0,.32,2.25c.48,1.2,2.54,1.37,3.64,1.47s2.65,0,2.9-1.33a10.13,10.13,0,0,0-.13-2.26,24.67,24.67,0,0,1,0-3.1,1.57,1.57,0,0,0,.71-.94,4.13,4.13,0,0,0,.12-1.33,4.88,4.88,0,0,1,1.27-.05.61.61,0,0,0,.73-.76c-.42-1.38-1.41-2.57-2-3.9a.58.58,0,0,0-.37-.35c0-.41,0-.82-.07-1.24Zm-7.58,0h6c.07,1.61.13,3.22.2,4.84,0,.23,0,.54.08.88a.62.62,0,0,0,0,.19c.05.72,0,1.51-.5,1.82s-2.06.14-2.66.13a5.32,5.32,0,0,1-2.39-.24c-.71-.43-.55-1.63-.59-2.4-.07-1.74-.12-3.49-.16-5.23Zm5.6,13.79c-.29.54-1.4.33-1.9.27a5.26,5.26,0,0,1-1.7-.39c-.46,0-.7-.29-.72-.8,0-.3-.08-.6-.11-.9-.12-1-.16-2-.19-3a13.13,13.13,0,0,0,2.19.08,18,18,0,0,0,2.3,0,24.26,24.26,0,0,0,0,3.19c0,.37.29,1.28.11,1.63Zm1.71-9.55c0-.12,0-.24,0-.36.22.39.47.76.68,1.15a5.7,5.7,0,0,0-.58.06c0-.29-.07-.58-.08-.85ZM1.51,16.61c-.11-1.75.07-3.53,2.08-4a7.89,7.89,0,0,1,1.28-.18v.05c.08,3.17,0,6.39.19,9.55l-1-.09c-2.39-.3-2.45-3.44-2.57-5.34ZM19.18,22c-3.33.21-6.68.29-10,.21l-2.68-.07a31.51,31.51,0,0,0-.15-3.92c0-1.91-.09-3.83-.14-5.75,0,0,0,0,0-.07.71,0,1.42,0,2.09,0,3.55-.07,7.12,0,10.67-.25h0a13.8,13.8,0,0,0-.79,4A12.33,12.33,0,0,0,19.31,22Zm15.93,1.63a61.13,61.13,0,0,0,.3,7c-4-.19-7.76-.9-10.7-3.9s-5.25-6.23-5.06-10.61C20,7.9,28,3.12,35.57,3.2c-.29,4.48-.47,9-.51,13.44,0,2.33,0,4.66,0,7Zm1.41-3c0-1.34,0-2.69,0-4,0-.93,0-1.86,0-2.79a4,4,0,0,1,1.88,2.85C38.68,17.83,38,20.28,36.52,20.65Z" transform="translate(-0.01 -1.75)"/>
    <path class="cls-4" d="M15.3,25.87l1.61,3.32-1.86.16S14.2,25.15,15.3,25.87Z" transform="translate(-0.01 -1.75)"/>
  </g>
</svg>
