<svg id="레이어_1" data-name="레이어 1" xmlns="http://www.w3.org/2000/svg" viewBox="0 0 39.64 40">
  <defs>
    <style>
      .cls-1 {
        fill: #ffda00;
      }

      .cls-1, .cls-2, .cls-3 {
        fill-rule: evenodd;
      }

      .cls-2 {
        fill: #ff9500;
      }
    </style>
  </defs>
  <title>1</title>
  <g>
    <polygon class="cls-1" points="28.39 3.65 26.68 8.28 22.11 10.28 26.04 12.28 28.39 17.18 30.6 12.28 35.29 9.6 30.6 7.96 29.09 4.14 28.39 3.65"/>
    <polygon class="cls-2" points="17.2 1 9.22 4.33 3.92 9.1 1.1 15.84 0.71 21.18 1.63 26.8 5.79 32.7 12.39 37.61 18.91 39.28 26.68 38.39 34.03 33.92 37.93 26.8 34.08 28.74 27.32 28.66 21.03 26.8 16.46 22.55 13.78 18.37 12.57 13.99 13.2 7.56 17.11 1.71 17.2 1"/>
    <path class="cls-1" d="M26.6,12.13,25.15,9.4c-.37-.7-1.41-.05-1,.64l1.45,2.74C25.93,13.47,27,12.83,26.6,12.13Z" transform="translate(0 0)"/>
    <path class="cls-1" d="M29.82,15.24A52.57,52.57,0,0,0,26.8,9c-.25-.52-1,0-.75.46A53.33,53.33,0,0,0,29,15.62.48.48,0,0,0,29.82,15.24Z" transform="translate(0 0)"/>
    <path class="cls-1" d="M31.08,13.42c-.88-2.07-2.23-3.94-3.16-6-.22-.5-1-.27-.83.25a23.7,23.7,0,0,0,3.26,6.2C30.63,14.2,31.26,13.82,31.08,13.42Z" transform="translate(0 0)"/>
    <path class="cls-1" d="M31.92,10.41c-.77-1.64-1.8-3.2-2.7-4.77-.29-.51-1.06,0-.77.48.87,1.58,1.66,3.28,2.66,4.78A.47.47,0,0,0,31.92,10.41Z" transform="translate(0 0)"/>
    <path class="cls-1" d="M34.36,10.75a2.68,2.68,0,0,1-.93-1.34.41.41,0,0,0-.78.23,3,3,0,0,0,1.26,1.72A.38.38,0,0,0,34.36,10.75Z" transform="translate(0 0)"/>
    <path class="cls-2" d="M9.16,33.56c-2-4.87-5.08-9.4-7.28-14.24-.28-.64-1.4-.14-1.12.51,2,4.74,4,10.17,7.15,14.29C8.34,34.69,9.48,34.34,9.16,33.56Z" transform="translate(0 0)"/>
    <path class="cls-2" d="M14.94,37.32c-3.69-8.07-8.17-15.85-12.31-23.7-.33-.63-1.25,0-.94.58,4,8,7.66,16.14,12.06,23.85C14.21,38.85,15.3,38.11,14.94,37.32Z" transform="translate(0 0)"/>
    <path class="cls-2" d="M19.2,38.45c-2-4.71-4.8-9.16-7.09-13.74Q8.44,17.36,5,9.89c-.27-.62-1.35-.14-1.08.49q3,7.08,6.35,14.07c2.3,4.86,4.43,10.19,7.43,14.67C18.22,39.84,19.57,39.34,19.2,38.45Z" transform="translate(0 0)"/>
    <path class="cls-2" d="M24.47,37.13l-.2-.15-.2-.11A292.26,292.26,0,0,1,7,6.22c-.37-.78-1.49-.07-1.14.7a332.57,332.57,0,0,0,17,31.49,1,1,0,0,0,1.47.15l.18-.18A.88.88,0,0,0,24.47,37.13Z" transform="translate(0 0)"/>
    <path class="cls-2" d="M25,32.27l-3.79-6.38c-.46-.77-1.62-.05-1.19.73,2,3.58,4.21,7.12,6,10.8a.7.7,0,0,0,.19.32l0,0a.83.83,0,0,0,1.38-.62C27.54,35.61,25.75,33.6,25,32.27Z" transform="translate(0 0)"/>
    <path class="cls-2" d="M30.58,35.42a13.78,13.78,0,0,0-1.44-3.3C28.55,31,28,29.81,27.32,28.66c-.43-.79-1.6-.05-1.19.74Q27,31,27.78,32.67A18,18,0,0,0,29.42,36,.65.65,0,0,0,30.58,35.42Z" transform="translate(0 0)"/>
    <path class="cls-2" d="M33.53,33.65c-.77-1.49-1.68-2.91-2.53-4.36-.4-.68-1.41-.05-1,.64.8,1.47,1.55,3,2.43,4.42C32.85,35.09,33.92,34.4,33.53,33.65Z" transform="translate(0 0)"/>
    <path class="cls-2" d="M35.15,31.31c-.34-.73-.73-1.43-1.1-2.14s-1.48-.06-1.11.69.7,1.37,1,2.07c.17.39.29.9.85.74S35.36,31.76,35.15,31.31Z" transform="translate(0 0)"/>
    <path class="cls-2" d="M13.18,10.26a9.89,9.89,0,0,0-1.47-2.8c-.57-1-1.12-2-1.66-3-.38-.72-1.43,0-1.08.67q.76,1.55,1.59,3.06a8.42,8.42,0,0,0,1.7,2.65A.56.56,0,0,0,13.18,10.26Z" transform="translate(0 0)"/>
    <path class="cls-2" d="M14,4.25a19.31,19.31,0,0,0-1.13-1.79c-.51-.71-1.65,0-1.16.71a18.78,18.78,0,0,1,1,1.73c.28.54.45,1.22,1,1.54a.59.59,0,0,0,.85-.37A2.76,2.76,0,0,0,14,4.25Z" transform="translate(0 0)"/>
    <path class="cls-3" d="M35.77,9.22,33,8.27c-1.22-.42-1.85-.46-2.18-1.74a5.28,5.28,0,0,0-1.78-3.29.76.76,0,0,0-1.23.36c-.42,1.13-1,4-2.17,4.58s-2.92.69-4.14,1a.73.73,0,0,0-.29,1.21,9.54,9.54,0,0,0,3.73,2c2,.7,1.77,3.08,2.83,4.63,1.63,2.36,2.79-1.45,3.26-3.31a2.18,2.18,0,0,1,1.27-1.33c1.37-.57,2.82-.62,3.81-1.86a.78.78,0,0,0-.37-1.26Zm1.94,16.45c.43-.79,1.79-.29,1.5.6A20.58,20.58,0,0,1,27.27,38.7C16.41,43,3.58,36.17.63,25A19.8,19.8,0,0,1,3.16,9.29C6.58,4.11,12.21,2,17.84,0a.67.67,0,0,1,.67,1.09,16.13,16.13,0,0,0-4.92,9,21.77,21.77,0,0,0,.35,6.14,13.93,13.93,0,0,0,5.19,7.84,16.14,16.14,0,0,0,10,4.13c2.66.08,7.14.21,8.61-2.52ZM13.61,37.1c-10-3.94-15.18-16-10-25.7,2.58-4.85,7.23-7.31,12.12-9.19A16.81,16.81,0,0,0,13.6,5.78a.55.55,0,0,0-.7.42c-.83,3.71-1.34,7.5-.32,11.22s3.59,6.45,6.62,8.71a17.32,17.32,0,0,0,11.16,3.66,17.16,17.16,0,0,0,5.9-.89,18.59,18.59,0,0,1-22.65,8.2ZM39.26,20.67c.53.06.47.84,0,1l-1.78.58-.15.2a4.22,4.22,0,0,0-.3.91.48.48,0,0,1-.07.18c0,.17-.1.35-.14.53a.53.53,0,0,1-1,0,5.87,5.87,0,0,0-.51-1.44,2.55,2.55,0,0,0-1.38-.85h0l-.05,0-.39-.09a.54.54,0,0,1,0-1A6.9,6.9,0,0,0,35,20.08c.59-.37.71-1.2.9-1.86a.42.42,0,0,1,.69-.2.39.39,0,0,1,.26.3,12.12,12.12,0,0,0,.32,1.22l.08.23s0,.08.05.13a4.36,4.36,0,0,0,1.74.72l.07,0,.14,0Zm-8.54-9.18a2.69,2.69,0,0,0-1.06,1.58,8.53,8.53,0,0,1-1,3.16c-.37-.62-1-3.23-1.16-3.53-.7-1.45-2.53-1.8-4-2.52l1.7-.38a4.16,4.16,0,0,0,1.88-.66A4,4,0,0,0,28,7.46c.28-.74.57-1.49.85-2.24.55,1.11.37,2.48,1.3,3.39a4.37,4.37,0,0,0,1.66.78l2.27.82C33,10.71,31.67,10.78,30.72,11.49Z" transform="translate(0 0)"/>
  </g>
</svg>
