<svg xmlns="http://www.w3.org/2000/svg" xmlns:xlink="http://www.w3.org/1999/xlink" viewBox="0 0 40 40">
  <defs>
    <style>
      .cls-1 {
        isolation: isolate;
      }

      .cls-2 {
        fill: url(#linear-gradient);
      }

      .cls-3, .cls-4, .cls-9 {
        opacity: 0.25;
      }

      .cls-10, .cls-11, .cls-3, .cls-5, .cls-9 {
        mix-blend-mode: multiply;
      }

      .cls-3 {
        fill: url(#radial-gradient);
      }

      .cls-4 {
        fill: #fff;
      }

      .cls-5 {
        opacity: 0.35;
        fill: url(#linear-gradient-2);
      }

      .cls-6 {
        fill: #5d4037;
      }

      .cls-7 {
        fill: #4e342e;
      }

      .cls-8, .cls-9 {
        fill: #d95957;
      }

      .cls-10, .cls-11 {
        opacity: 0.5;
      }

      .cls-10 {
        fill: url(#linear-gradient-3);
      }

      .cls-11 {
        fill: url(#linear-gradient-4);
      }
    </style>
    <linearGradient id="linear-gradient" x1="20" y1="-0.67" x2="20" y2="40.75" gradientUnits="userSpaceOnUse">
      <stop offset="0" stop-color="#80deea"/>
      <stop offset="0.5" stop-color="#ffcf73"/>
      <stop offset="1" stop-color="#ffbf66"/>
    </linearGradient>
    <radialGradient id="radial-gradient" cx="20" cy="20" r="20" gradientUnits="userSpaceOnUse">
      <stop offset="0.8" stop-color="#fff"/>
      <stop offset="1" stop-color="#ffbf66"/>
    </radialGradient>
    <linearGradient id="linear-gradient-2" x1="20" y1="17.63" x2="20" y2="40.41" gradientUnits="userSpaceOnUse">
      <stop offset="0" stop-color="#ffe082"/>
      <stop offset="1" stop-color="#ffbf66"/>
    </linearGradient>
    <linearGradient id="linear-gradient-3" x1="22.78" y1="7.32" x2="31.53" y2="7.32" xlink:href="#linear-gradient-2"/>
    <linearGradient id="linear-gradient-4" x1="408.59" y1="7.32" x2="417.34" y2="7.32" gradientTransform="matrix(-1, 0, 0, 1, 425.81, 0)" xlink:href="#linear-gradient-2"/>
  </defs>
  <title>1</title>
  <g class="cls-1">
    <g id="레이어_1" data-name="레이어 1">
      <g>
        <g>
          <g>
            <circle class="cls-2" cx="20" cy="20" r="20"/>
            <circle class="cls-3" cx="20" cy="20" r="20"/>
          </g>
          <path class="cls-4" d="M36.5,15.12c0,7.43-7.39,0-16.5,0s-16.5,7.43-16.5,0S10.89,1.67,20,1.67,36.5,7.69,36.5,15.12Z"/>
          <path class="cls-5" d="M20,36A20,20,0,0,1,.1,18,18.86,18.86,0,0,0,0,20a20,20,0,0,0,40,0,18.86,18.86,0,0,0-.1-2A20,20,0,0,1,20,36Z"/>
        </g>
        <g>
          <g>
            <path class="cls-4" d="M13.69,33.2a1.72,1.72,0,0,1-.78-.18c-1-.53-1.2-1.83-.45-3.49A8.17,8.17,0,0,1,20,25a8.76,8.76,0,0,1,3.24.61,7.9,7.9,0,0,1,4.1,3.72c.85,1.68.85,2.92,0,3.5a1.62,1.62,0,0,1-.93.27h0a5.51,5.51,0,0,1-2.31-.8,5.28,5.28,0,0,0-.71-.34,10.53,10.53,0,0,0-3.37-.55,10,10,0,0,0-3.13.49,7.71,7.71,0,0,0-.83.41A5.47,5.47,0,0,1,13.69,33.2Z"/>
            <path class="cls-6" d="M26.72,29.68A7.18,7.18,0,0,0,23,26.3c-3.56-1.41-8.23-.09-9.88,3.53-.31.68-.77,2.08.12,2.55.74.37,2-.41,2.87-.88a5.6,5.6,0,0,1,.58-.27,11.26,11.26,0,0,1,7,.06l.06,0c.81.31,2.44,1.5,3.25.94S27,30.21,26.72,29.68Z"/>
            <path class="cls-7" d="M26.72,29.68A7.18,7.18,0,0,0,23,26.3c-3.56-1.41-8.23-.09-9.88,3.53A2.85,2.85,0,0,0,12.86,32a5.68,5.68,0,0,1,.26-.71c1.65-3.62,6.32-4.94,9.88-3.53a7.18,7.18,0,0,1,3.72,3.38,8.07,8.07,0,0,1,.4,1C27.56,31.49,27,30.17,26.72,29.68Z"/>
            <path class="cls-8" d="M23.71,31.31l-.06,0a11.26,11.26,0,0,0-7-.06,5.6,5.6,0,0,0-.58.27,4.15,4.15,0,0,1,7.6-.19Z"/>
            <path class="cls-9" d="M16.69,30.57h0a4.94,4.94,0,0,0-.57.93,5.6,5.6,0,0,1,.58-.27,11.26,11.26,0,0,1,7,.06l.06,0a4.6,4.6,0,0,0-.55-.83A11.22,11.22,0,0,0,16.69,30.57Z"/>
          </g>
          <g>
            <ellipse class="cls-4" cx="25.58" cy="16.24" rx="3.87" ry="5.37"/>
            <ellipse class="cls-6" cx="25.58" cy="16.24" rx="3.2" ry="4.71"/>
            <path class="cls-7" d="M25.58,12.87c2,0,3,2.25,3.16,4a5.22,5.22,0,0,0,0-.67c0-1.83-.93-4.7-3.2-4.7s-3.2,2.87-3.2,4.7a5.22,5.22,0,0,0,0,.67C22.61,15.12,23.57,12.87,25.58,12.87Z"/>
          </g>
          <g>
            <ellipse class="cls-4" cx="14.25" cy="16.24" rx="3.87" ry="5.37"/>
            <ellipse class="cls-6" cx="14.25" cy="16.24" rx="3.2" ry="4.71"/>
            <path class="cls-7" d="M14.25,12.87c2,0,3,2.25,3.16,4,0-.23,0-.46,0-.67,0-1.83-.94-4.7-3.2-4.7S11,14.41,11,16.24c0,.21,0,.44,0,.67C11.28,15.12,12.24,12.87,14.25,12.87Z"/>
          </g>
          <g>
            <path class="cls-10" d="M24.36,5.2c2.67.72,5.74,1.72,7.17,4.3C29.94,8,27.59,7.6,25.46,7.62c-.77,0-2,.27-2.48-.52a1.27,1.27,0,0,1,1.38-1.9C27,5.91,23.42,4.94,24.36,5.2Z"/>
            <path class="cls-6" d="M24.36,4.53c2.67.72,5.74,1.72,7.17,4.3C29.94,7.31,27.59,6.94,25.46,7c-.77,0-2,.27-2.48-.51a1.28,1.28,0,0,1,1.38-1.91C27,5.24,23.42,4.27,24.36,4.53Z"/>
            <path class="cls-11" d="M15.64,5.2C13,5.92,9.9,6.92,8.47,9.5,10.06,8,12.41,7.6,14.54,7.62c.77,0,2,.27,2.48-.52a1.27,1.27,0,0,0-1.38-1.9C13,5.91,16.58,4.94,15.64,5.2Z"/>
            <path class="cls-6" d="M15.64,4.53C13,5.25,9.9,6.25,8.47,8.83,10.06,7.31,12.41,6.94,14.54,7c.77,0,2,.27,2.48-.51a1.28,1.28,0,0,0-1.38-1.91C13,5.24,16.58,4.27,15.64,4.53Z"/>
          </g>
        </g>
      </g>
    </g>
  </g>
</svg>
