<svg xmlns="http://www.w3.org/2000/svg" xmlns:xlink="http://www.w3.org/1999/xlink" viewBox="0 0 32.65 40">
  <defs>
    <style>
      .cls-1 {
        isolation: isolate;
      }

      .cls-2 {
        fill: #ffcb9e;
      }

      .cls-3 {
        fill: #ebebeb;
      }

      .cls-4 {
        fill: #eb5088;
      }

      .cls-5 {
        opacity: 0.1;
      }

      .cls-6 {
        fill: #fbfbfb;
      }

      .cls-7 {
        fill: url(#linear-gradient);
      }

      .cls-8 {
        fill: #d9af96;
        opacity: 0.5;
        mix-blend-mode: multiply;
      }

      .cls-9 {
        fill: #4f2619;
      }

      .cls-10 {
        fill: #101012;
      }

      .cls-11, .cls-20, .cls-23 {
        fill: #bf3c1b;
      }

      .cls-11 {
        opacity: 0.15;
      }

      .cls-12 {
        fill: #2f2120;
      }

      .cls-13 {
        fill: #7d4732;
      }

      .cls-14 {
        fill: #b08a72;
      }

      .cls-15 {
        fill: #ffb696;
      }

      .cls-16 {
        fill: #e65050;
        opacity: 0.6;
      }

      .cls-17 {
        fill: #8f3935;
      }

      .cls-18 {
        fill: #fff9f0;
      }

      .cls-19 {
        fill: #e8dac5;
      }

      .cls-20 {
        opacity: 0.2;
      }

      .cls-21 {
        fill: #121b21;
      }

      .cls-22 {
        fill: #784430;
      }

      .cls-23 {
        opacity: 0.3;
      }

      .cls-24 {
        fill: #313142;
      }
    </style>
    <linearGradient id="linear-gradient" x1="20.72" y1="29.31" x2="20.72" y2="32.46" gradientUnits="userSpaceOnUse">
      <stop offset="0" stop-color="#eea17a"/>
      <stop offset="1" stop-color="#ffcca6"/>
    </linearGradient>
  </defs>
  <title>1</title>
  <g class="cls-1">
    <g id="레이어_1" data-name="레이어 1">
      <g>
        <path class="cls-2" d="M17.12,33.88l-.93-1.8c-1.44.71-1.73,2.21-2,3.8A9.05,9.05,0,0,1,12.58,40H15a13.3,13.3,0,0,0,1.16-3.74C16.44,35,16.62,34.13,17.12,33.88Z" transform="translate(-3.67)"/>
        <path class="cls-2" d="M24.71,32.08l-.93,1.8c.5.25.68,1.07.94,2.38A13.3,13.3,0,0,0,25.88,40h2.44a9.05,9.05,0,0,1-1.57-4.12C26.44,34.29,26.15,32.79,24.71,32.08Z" transform="translate(-3.67)"/>
        <g>
          <path class="cls-3" d="M25.21,38a9.68,9.68,0,0,0-.59-6.45,10,10,0,0,0-8.58.25,12,12,0,0,0,0,6A10.72,10.72,0,0,1,16.35,40h8.58A12.41,12.41,0,0,1,25.21,38Z" transform="translate(-3.67)"/>
          <path class="cls-4" d="M21,36.26l1.06-1a1.57,1.57,0,0,0-1.48-.94,1.58,1.58,0,0,0-1.69.86L20,36.25l-1.34,2.46,1,1.29h1.67l1.16-1.32Z" transform="translate(-3.67)"/>
          <path class="cls-5" d="M17,33.14a5.51,5.51,0,0,0,2.24,2.93l1.23-1.5,1.62,1.49a4.6,4.6,0,0,0,2.19-3.4C24.26,31.76,16.47,31.27,17,33.14Z" transform="translate(-3.67)"/>
          <path class="cls-6" d="M17,30.92C15.61,33,19.1,35.57,19.1,35.57l1.35-1.18L22,35.63s3.15-1.92,2-4.5C23,28.81,18.38,28.85,17,30.92Z" transform="translate(-3.67)"/>
          <path class="cls-7" d="M19.62,28.47a2.55,2.55,0,0,0-1.48,2.4c-.08,1.39,1.45,3.24,2.51,3.28.8,0,4.2-2.56,1.81-5.08A3.08,3.08,0,0,0,19.62,28.47Z" transform="translate(-3.67)"/>
        </g>
        <g>
          <path class="cls-8" d="M11.37,23a2.91,2.91,0,0,1-3.28-2.73c-.39-3.11.72-4.11,2-4S11.37,23,11.37,23Z" transform="translate(-3.67)"/>
          <path class="cls-9" d="M21.4,22.79c3.12-.22,4.2,3.69,5.46,4C41,30.8,39.22,3.84,22.1,0-.1,1.77-2,31.34,15.15,27.09,18.29,26.31,16.44,23.16,21.4,22.79Z" transform="translate(-3.67)"/>
          <path class="cls-10" d="M27.94,29.58a4.93,4.93,0,0,0,1.72-6.13l-.47.24a4.35,4.35,0,0,1-1.55,5.46Z" transform="translate(-3.67)"/>
          <path class="cls-10" d="M11.47,25a4.19,4.19,0,0,0,2.09-.66l-.27-.46a2.84,2.84,0,0,1-2.68.4c-1.55-.71-2-3.25-2-3.28L8.07,21c0,.12.52,2.85,2.32,3.68A2.5,2.5,0,0,0,11.47,25Z" transform="translate(-3.67)"/>
          <path class="cls-2" d="M30.71,17.26c-.44-7.34-3.25-11.73-10.48-11.5-7.52.23-10,5.21-9.8,12.66S16,30.79,21.5,31.12C25.76,31.37,31.14,24.7,30.71,17.26Z" transform="translate(-3.67)"/>
          <path class="cls-11" d="M22.07,12.07c-3.46,3.24-8.41,2.42-11.23,5.14-.43.43-.22-.55-.67-1-.69-.71.47-2.76.84-3.41a16.58,16.58,0,0,1,7.85-6.51,15.69,15.69,0,0,1,3.2-1,7,7,0,0,1,5.18.55A7.46,7.46,0,0,1,31,12.49c-.06.89,0,4.14-.6,2.41-.74-2.13-5.67-5.44-5.4-6.78A21,21,0,0,1,22.07,12.07Z" transform="translate(-3.67)"/>
          <path class="cls-12" d="M15.31,19.31a2,2,0,0,0-1.5,0c-1.09-.85-.29-3.72,1.25-3.13C16.22,16.57,16.29,18.69,15.31,19.31Z" transform="translate(-3.67)"/>
          <path class="cls-13" d="M13.12,14.21a2.22,2.22,0,0,1,1.74-1.55A2.05,2.05,0,0,1,17,13.83,3,3,0,0,0,13.12,14.21Z" transform="translate(-3.67)"/>
          <path class="cls-14" d="M14.69,16.88c.57-.08.75.85.27,1.09C14.29,18.3,14.05,17,14.69,16.88Z" transform="translate(-3.67)"/>
          <path class="cls-9" d="M17.53,2.06a9.51,9.51,0,0,1,5.12.46c2.24.8,4.53,1.76,6.1,3.61a12.2,12.2,0,0,1,2.54,6c.2,1.2-.6,3.25-.63,4.43,0-4.75-5.28-6-5.43-9.25a15.39,15.39,0,0,1-8.91,6.9c-5.25,1.54-5.89,2.85-6.29,5.2-1.72-2.18-.51-6.78-.29-8.09C10.44,7.15,13.15,2.92,17.53,2.06Z" transform="translate(-3.67)"/>
          <path class="cls-15" d="M29.56,20.74a1.34,1.34,0,0,1,.11.37c.19,1.34-2.62.74-2.9.15-.53-1.12.46-1.33,1.18-1.28A1.94,1.94,0,0,1,29.56,20.74Z" transform="translate(-3.67)"/>
          <path class="cls-15" d="M15.77,20.65a1.14,1.14,0,0,1,.19.4c.44,1.51-2.76,1.47-3.17.84-.77-1.17.28-1.64,1.08-1.75A2,2,0,0,1,15.77,20.65Z" transform="translate(-3.67)"/>
          <g>
            <path class="cls-16" d="M21.59,23.11c-2.11,0-5.2.64-6.85-.34,2.7,4.66,4.4,5.53,6.55,5.7,2.7.21,3.65-1.67,4.08-3.09a8,8,0,0,1,2.11-2.47C25.79,23.3,24.13,23.06,21.59,23.11Z" transform="translate(-3.67)"/>
            <path class="cls-17" d="M16,23.59a21,21,0,0,0,10.35,0A2.92,2.92,0,0,0,25,25.16c-.41,1.05-1.84,1.76-4,1.68A6.29,6.29,0,0,1,16,23.59Z" transform="translate(-3.67)"/>
            <path class="cls-18" d="M17.25,23.89a1.69,1.69,0,0,0,1.28,1.32,10.81,10.81,0,0,0,4.89.29c1.16-.17,1.74-1.64,1.74-1.64A22.49,22.49,0,0,1,17.25,23.89Z" transform="translate(-3.67)"/>
            <path class="cls-18" d="M17.8,25.25c-.12-.24-.06-.64.48-.26a6.44,6.44,0,0,0,3.58.61c1.43,0,2.15-.46,2.43-.19s-1,1.79-3.46,1.47S17.8,25.25,17.8,25.25Z" transform="translate(-3.67)"/>
            <path class="cls-19" d="M17.55,24.56s5.76-.43,7.13.12a3.14,3.14,0,0,0,.48-.82,26.13,26.13,0,0,1-7.91,0A1.55,1.55,0,0,0,17.55,24.56Z" transform="translate(-3.67)"/>
            <path class="cls-19" d="M18.74,25.18a7.86,7.86,0,0,0,4.53.27A5.32,5.32,0,0,1,18.74,25.18Z" transform="translate(-3.67)"/>
          </g>
          <path class="cls-20" d="M23,20.31c.17.2-.39.74-1.07.78s-1.32-.65-1-.83.53,0,1,0S22.81,20.06,23,20.31Z" transform="translate(-3.67)"/>
          <path class="cls-12" d="M28.69,16.17c.84.53.77,2.18.18,3a1.85,1.85,0,0,0-1.37.22C25.77,18.82,27.14,15.17,28.69,16.17Z" transform="translate(-3.67)"/>
          <path class="cls-14" d="M27.94,16.71c.55,0,.62.95.14,1.13C27.42,18.09,27.33,16.73,27.94,16.71Z" transform="translate(-3.67)"/>
          <path class="cls-21" d="M32.12,16.66a2.92,2.92,0,0,1-3.61.26,1.33,1.33,0,0,0-1.67.32s.47-1.7,1.9-1.15C29.5,16.38,30.38,17.25,32.12,16.66Z" transform="translate(-3.67)"/>
          <path class="cls-21" d="M10.38,16.86a3.21,3.21,0,0,0,3.79.14,1.47,1.47,0,0,1,1.73.14s-.39-1.69-1.87-.93A4.56,4.56,0,0,1,10.38,16.86Z" transform="translate(-3.67)"/>
          <path class="cls-22" d="M28.16,3a14.87,14.87,0,0,1,5.49,6.35s-4,3.45-7,0a4.35,4.35,0,0,1-1.1-2.81c-2.51,3.65-6.36,6.24-9.1,6.17a14.7,14.7,0,0,1-4.17-.88c-1.15-.4-2.21-1-3.34-1.47-.21-.09-2.43-.88-2.55-.69,0,0,2.67-4.08,5.72-5.87C12.06,3.83,21.8,8.86,28.16,3Z" transform="translate(-3.67)"/>
          <path class="cls-22" d="M30.19,14.22a2.23,2.23,0,0,0-1.7-1.6,2.05,2.05,0,0,0-2.12,1.11A3,3,0,0,1,30.19,14.22Z" transform="translate(-3.67)"/>
          <path class="cls-2" d="M9.68,22.05a2.83,2.83,0,0,0,1.62.17l0-.08a14.31,14.31,0,0,0-.31-3.9c-.31-1.43-.82-2.43-1.78-2C7.24,17.14,8.05,21.29,9.68,22.05Z" transform="translate(-3.67)"/>
          <path class="cls-23" d="M10.69,20.65c.52-.73-.31-2.75-.81-3s-1.26.44-.68,1.57c.09-1.15.59-.49.63.31,0,.54-.32.61.11,1.24C10.17,21.08,10.53,20.88,10.69,20.65Z" transform="translate(-3.67)"/>
          <path class="cls-24" d="M25.76,29.06a1.17,1.17,0,1,0,1.17-1.17A1.17,1.17,0,0,0,25.76,29.06Z" transform="translate(-3.67)"/>
          <path class="cls-24" d="M10.54,20.59h0c-.07,0-.13-.11-.21-.07s-.08.14-.09.19,0,.14,0,.2-.22.17-.32.23a1.55,1.55,0,0,1-1.8,0A1.05,1.05,0,0,1,7.79,20a1.55,1.55,0,0,1,.71-.58c.35-.13.55-.28.91-.21.12,0,.24.19.35.19s.14-.12.2-.14.38-.12.52.08a1.53,1.53,0,0,1,.2.87C10.69,20.29,10.7,20.57,10.54,20.59Z" transform="translate(-3.67)"/>
        </g>
      </g>
    </g>
  </g>
</svg>
