<svg id="레이어_1" data-name="레이어 1" xmlns="http://www.w3.org/2000/svg" viewBox="0 0 39.72 40">
  <defs>
    <style>
      .cls-1 {
        fill: #86bcb6;
      }

      .cls-1, .cls-2, .cls-3 {
        fill-rule: evenodd;
      }

      .cls-2 {
        fill: #576d64;
      }
    </style>
  </defs>
  <title>1</title>
  <g>
    <polygon class="cls-1" points="16.97 17.56 18.76 21.1 21.74 22.83 26.06 20.84 30.86 16.8 34.15 12.15 33.99 8.55 31.86 6.13 29.17 5.85 23.29 11.13 21.17 13.13 18.36 12.47 14.53 13.13 13.67 12.87 21.74 4.36 26.96 1.12 30.87 1.12 34.34 1.98 37.27 5.85 38.74 8.55 38.74 14.02 35.8 19.11 31.47 22.83 27.23 26.66 22.97 28.84 18.05 28.04 14.71 25.23 12.31 21.63 15.79 17.88 16.97 17.56"/>
    <polygon class="cls-2" points="27.71 19.38 23.68 14.53 17.97 12.38 11.71 14.85 5.1 20.16 0.69 26.67 1.33 33.64 7.43 39.07 11.97 39.07 14.71 38.37 26.78 26.96 21.17 28.53 18.76 28.04 14.65 32.3 11.32 33.68 7.43 31.98 6.05 28.11 8.83 24.45 14.12 19.38 17.67 17.82 20.16 17.88 21.74 20 22.59 22.83 24.81 21.99 27.71 19.38"/>
    <path class="cls-2" d="M4.62,21c-.77,2-1.52,4-2.21,6.06A20.78,20.78,0,0,0,.88,32.58.59.59,0,0,0,2,32.85a26.79,26.79,0,0,0,1.8-5.45c.63-2,1.32-4.09,2-6.11C6.09,20.53,4.9,20.26,4.62,21Z" transform="translate(-0.19)"/>
    <path class="cls-2" d="M8.44,17.29c-1.65,6-4.19,11.78-5.72,17.79a.81.81,0,0,0,1.49.58c2.72-5.55,4.06-12.07,5.55-18A.68.68,0,0,0,8.44,17.29Z" transform="translate(-0.19)"/>
    <path class="cls-2" d="M12.34,14.05c-.53,1.42-1,2.84-1.48,4.29a11.68,11.68,0,0,0-.9,4,.67.67,0,0,0,1.25.31,15.93,15.93,0,0,0,1.21-3.92c.42-1.45.88-2.89,1.37-4.31C14.12,13.49,12.67,13.16,12.34,14.05Z" transform="translate(-0.19)"/>
    <path class="cls-2" d="M7.63,32.67c-.35.84-.67,1.69-1,2.55a4,4,0,0,0-.36,2.47.59.59,0,0,0,1,.23,4.54,4.54,0,0,0,.81-2.17c.24-.86.54-1.71.86-2.55S7.94,31.91,7.63,32.67Z" transform="translate(-0.19)"/>
    <path class="cls-2" d="M15.06,13a25.42,25.42,0,0,1-.58,2.86,8.14,8.14,0,0,0-.62,2.62.62.62,0,0,0,1.05.41,5.28,5.28,0,0,0,1-2.48,29,29,0,0,0,.55-3.07C16.54,12.5,15.2,12.14,15.06,13Z" transform="translate(-0.19)"/>
    <path class="cls-2" d="M10.62,34.22c-.36,1.52-.82,3.06-1.06,4.6a.81.81,0,0,0,1.57.4c.44-1.5.68-3.09,1-4.62A.78.78,0,0,0,10.62,34.22Z" transform="translate(-0.19)"/>
    <path class="cls-2" d="M18.55,12.47c-.16.83-.34,1.66-.55,2.49a11.54,11.54,0,0,0-.53,2.31.65.65,0,0,0,1.2.3,7.73,7.73,0,0,0,.69-2.28c.19-.82.35-1.66.49-2.49S18.72,11.62,18.55,12.47Z" transform="translate(-0.19)"/>
    <path class="cls-2" d="M14.23,32.5a33.62,33.62,0,0,0-.93,3.26A5.9,5.9,0,0,0,13,38.63a.64.64,0,0,0,1.16.13,8.4,8.4,0,0,0,.69-2.83c.22-1,.49-2.06.8-3.07S14.53,31.61,14.23,32.5Z" transform="translate(-0.19)"/>
    <path class="cls-2" d="M21.66,12.82c-.18,1-.37,2-.56,3a9.6,9.6,0,0,0-.38,2.8c.07.56.89.91,1.17.29a9.51,9.51,0,0,0,.53-2.75c.13-1,.26-2.06.4-3.08C22.92,12.37,21.8,12.05,21.66,12.82Z" transform="translate(-0.19)"/>
    <path class="cls-2" d="M17.72,29.38c-.23,1.16-.45,2.32-.68,3.48a9.74,9.74,0,0,0-.44,3.2.65.65,0,0,0,1.21.3,9.48,9.48,0,0,0,.73-3.12l.6-3.51C19.29,28.81,17.91,28.45,17.72,29.38Z" transform="translate(-0.19)"/>
    <path class="cls-2" d="M24.24,15.27c-.58,2.11-.8,4.27-1.29,6.39a.54.54,0,0,0-.07.45.31.31,0,0,1,0,.08.62.62,0,0,0,.6.43h.09a.7.7,0,0,0,.57-.35,13.11,13.11,0,0,0,.45-3c.2-1.24.46-2.47.75-3.69A.58.58,0,0,0,24.24,15.27Z" transform="translate(-0.19)"/>
    <path class="cls-2" d="M21,28.66c-.08.75-.18,1.5-.32,2.24s-.35,1.16,0,1.74a.56.56,0,0,0,.76.18c.61-.47.58-1.13.67-1.86s.15-1.55.19-2.33S21,27.84,21,28.66Z" transform="translate(-0.19)"/>
    <path class="cls-2" d="M25.91,17.33,25.52,19a4,4,0,0,0-.24,1.6.52.52,0,0,0,1,.24,4.09,4.09,0,0,0,.45-1.54c.12-.56.23-1.12.34-1.68A.58.58,0,0,0,25.91,17.33Z" transform="translate(-0.19)"/>
    <path class="cls-2" d="M25,28.52c-.06-.75-1.24-.73-1.18,0,0,.45-.2.84-.12,1.28a.51.51,0,0,0,.75.28C25,29.86,25,29,25,28.52Z" transform="translate(-0.19)"/>
    <path class="cls-1" d="M15.74,10l-.33,1.17a1.89,1.89,0,0,0-.15,1.14.47.47,0,0,0,.78.18,1.74,1.74,0,0,0,.41-1.05c.1-.4.19-.8.28-1.2A.51.51,0,0,0,15.74,10Z" transform="translate(-0.19)"/>
    <path class="cls-1" d="M14.19,19.78a17.49,17.49,0,0,0-.66,2.56,4.65,4.65,0,0,0-.07,2.31c.15.42.82.59,1,.11a7.26,7.26,0,0,0,.33-2.19,19.59,19.59,0,0,1,.46-2.52C15.47,19.34,14.42,19.1,14.19,19.78Z" transform="translate(-0.19)"/>
    <path class="cls-1" d="M18.79,7c-.4,1.47-1.07,3.44-.76,5,.14.68,1,.48,1.21,0a9.9,9.9,0,0,0,.3-2.32c.1-.78.24-1.55.39-2.32A.59.59,0,0,0,18.79,7Z" transform="translate(-0.19)"/>
    <path class="cls-1" d="M16.83,19.68q-.18,1.74-.42,3.48A12.68,12.68,0,0,0,16.1,26c0,.58.94.95,1.22.3.81-1.94.74-4.6.91-6.68C18.3,18.74,16.92,18.8,16.83,19.68Z" transform="translate(-0.19)"/>
    <path class="cls-1" d="M22.54,4.71c.11-.69-.93-1-1.05-.27a27,27,0,0,0-.3,3.71,16.75,16.75,0,0,0,0,3.81c.1.54.89.44,1,0C22.77,9.63,22.18,7.07,22.54,4.71Z" transform="translate(-0.19)"/>
    <path class="cls-1" d="M20,22.74a6.12,6.12,0,0,0-.52,2.5,5.48,5.48,0,0,0,.08,2.52.58.58,0,0,0,.8.19c.64-.51.61-1.21.61-2a7.21,7.21,0,0,1,.24-2.74c.26-.69-.9-1.14-1.21-.48Z" transform="translate(-0.19)"/>
    <path class="cls-1" d="M25.33,2.43c-.07-.68-1.11-.67-1.07,0a51.55,51.55,0,0,1-.17,6.69c-.06.85,1.22.8,1.31,0A35.61,35.61,0,0,0,25.33,2.43Z" transform="translate(-0.19)"/>
    <path class="cls-1" d="M23.63,22.46c-.16.94-.34,1.88-.5,2.82a6.62,6.62,0,0,0-.19,2.42.6.6,0,0,0,1.09.12,6.47,6.47,0,0,0,.5-2.39c.12-.89.21-1.78.32-2.67S23.77,21.64,23.63,22.46Z" transform="translate(-0.19)"/>
    <path class="cls-1" d="M28.3,4.16l0-3.07a.57.57,0,0,0-1.13,0l-.1,3.07A7.62,7.62,0,0,0,27.14,7a.52.52,0,0,0,1,0A8.06,8.06,0,0,0,28.3,4.16Z" transform="translate(-0.19)"/>
    <path class="cls-1" d="M27,20.3c-.09,1.12-.21,2.24-.37,3.35a12.64,12.64,0,0,0-.32,2.73c.05.54.85.84,1.11.28.82-1.82.68-4.42.71-6.38C28.14,19.53,27.05,19.59,27,20.3Z" transform="translate(-0.19)"/>
    <path class="cls-1" d="M31.63,3.38c0-.89,0-1.77-.08-2.65a.51.51,0,0,0-1,0c0,.88,0,1.76,0,2.64a8.38,8.38,0,0,0,0,2.4c.13.5.78.39.93,0A7.08,7.08,0,0,0,31.63,3.38Z" transform="translate(-0.19)"/>
    <path class="cls-1" d="M30.9,17.6a.61.61,0,0,0-1.22,0,20.47,20.47,0,0,1-.16,3.67,14.37,14.37,0,0,0-.43,3,.57.57,0,0,0,1.05.26C31.35,22.85,31.08,19.61,30.9,17.6Z" transform="translate(-0.19)"/>
    <path class="cls-1" d="M34.53,2a.53.53,0,0,0-1.06,0c0,1.93,0,3.86-.09,5.79a1.13,1.13,0,0,1,.52.47,6.29,6.29,0,0,1,.43,3.88,1.43,1.43,0,0,1-1.19,1.21A32.22,32.22,0,0,0,33,20.22a.53.53,0,0,0,1,.12c.79-2.73.58-5.85.64-8.68C34.77,8.44,34.67,5.21,34.53,2Z" transform="translate(-0.19)"/>
    <path class="cls-3" d="M39.14,6.5A10.32,10.32,0,0,0,28.06.12a13.44,13.44,0,0,0-7,3.88A81.83,81.83,0,0,0,14,11.67a.59.59,0,0,0-.14.22,6.93,6.93,0,0,0-.64.68c-.08.11-.19.24-.28.38C9.15,14.8,6,18.24,3.38,21.32c-3.16,3.73-4.27,8.52-2,13a10.77,10.77,0,0,0,11.36,5.51c2.9-.49,5.17-2.27,7.23-4.25,2.79-2.68,5.52-5.42,8.28-8.14a.63.63,0,0,0,.17-.24,5.9,5.9,0,0,0,.51-.49A.83.83,0,0,0,29,26.6a35.44,35.44,0,0,0,6.86-6.76C39,16,41.09,11.39,39.14,6.5ZM16.81,17c-1.88.58-3.28,2.3-4.62,3.63A72.7,72.7,0,0,0,6.87,26c-2.39,2.93-.78,6.79,2.59,8.07,4.2,1.6,7.21-2.51,9.83-5.1a.81.81,0,0,0,.09-.1,10.28,10.28,0,0,0,4.1.09,11,11,0,0,0,1.29-.29L21.6,31.78a40.13,40.13,0,0,1-5.5,5A9.4,9.4,0,0,1,4.34,35.72a9.51,9.51,0,0,1-.71-12.11,39.85,39.85,0,0,1,4.62-5.1A21.3,21.3,0,0,1,14,14.18a9.21,9.21,0,0,1,8-.26c2.28,1.14,3.78,3.35,5,5.5-.56.48-1.13.95-1.71,1.37a7.12,7.12,0,0,1-2,1.09C22.9,18.77,20.15,16,16.8,17Zm1.13,11.39c-1.78,1.86-4.05,4.85-6.76,4.66a4.65,4.65,0,0,1-4-3.13c-.5-1.7.65-3,1.76-4.07s2.18-2.23,3.28-3.33a15.79,15.79,0,0,0,4.15,5,8.71,8.71,0,0,0,1.57.88ZM13.3,21.45c.64-.62,1.28-1.22,1.93-1.81a5.68,5.68,0,0,1,1.53-1c1.41,3.24,3.87,6.28,7.78,4.4,2.19-1.05,4-3,5.69-4.7s3.7-3.29,4.61-5.47c1.27-3.07-.58-7.78-4.32-7.89-2.1-.06-3.71,1.63-5,3a31.2,31.2,0,0,1-2.78,2.61,3.75,3.75,0,0,0-1.22,1.59,9.22,9.22,0,0,0-4.93-.43c-.36.07-.7.14-1.05.24,1.86-2.19,3.79-4.32,5.84-6.32s4.32-3.91,7.22-4.21a9.16,9.16,0,0,1,9.73,10.93c-.55,2.9-2.44,5.28-4.33,7.45a30.08,30.08,0,0,1-6.32,5.92c-2.47,1.57-5.63,2.47-8.51,1.53s-4.37-3.45-5.83-5.83Zm4.86-3.2a3.16,3.16,0,0,1,1.5.35,4.37,4.37,0,0,1,2.27,3.48,3,3,0,0,1-1.44-.48,7.37,7.37,0,0,1-2.34-3.35Zm4.61-5.47c.63-1.16,2-1.91,2.89-2.85a14.94,14.94,0,0,1,3.4-3.15c2-1,3.92.56,4.53,2.42A4.93,4.93,0,0,1,32.38,14,44.39,44.39,0,0,1,28,18.54,14.81,14.81,0,0,0,22.77,12.78Z" transform="translate(-0.19)"/>
  </g>
</svg>
