<svg id="레이어_1" data-name="레이어 1" xmlns="http://www.w3.org/2000/svg" viewBox="0 0 40 34.45">
  <defs>
    <style>
      .cls-1 {
        fill: #ffda00;
      }

      .cls-1, .cls-2, .cls-3, .cls-4 {
        fill-rule: evenodd;
      }

      .cls-2 {
        fill: #ff9500;
      }

      .cls-3 {
        fill: #86bcb6;
      }
    </style>
  </defs>
  <title>1</title>
  <g>
    <polygon class="cls-1" points="33.63 1.81 32.75 4.09 30.32 5.35 32.75 6.28 33.9 8.67 35.01 6.5 36.99 5.35 35.01 4.19 33.9 1.81 33.63 1.81"/>
    <polygon class="cls-2" points="27.3 0.48 24.36 1.81 21 5.35 19.34 9.11 19.34 14.12 22.7 17.08 26.27 17.23 28.7 18.74 30.32 20.48 32.03 21.55 35.59 20.09 38.65 15.81 36.99 15.81 33.09 15.81 29.19 13.91 26.56 10.53 25.63 7.31 26.03 4.14 26.95 1.33 27.3 0.48"/>
    <path class="cls-3" d="M6.38,23.86l-3.61.78L.35,28.12v3.09l2.5,2.37,4.19,2,9,.57a62.21,62.21,0,0,1,8.14-.71c2.39,0,5.6-.58,5.35,0-.07.17,4.38-1.32,4.38-1.32l2.55-3.64-.8-3.41-1.44-2.43-3-1.14-1-.69-1.81-2.46-3.14-1.19L22.47,19l-4.14-3.36-5.15-.32L10,16.69,7.4,19.08,6.78,22Z" transform="translate(0 -1.98)"/>
    <path class="cls-1" d="M34.22,8.54c-.32-.61-.68-1.19-1-1.79-.2-.34-.71,0-.52.33.32.6.63,1.21,1,1.8C33.88,9.25,34.42,8.91,34.22,8.54Z" transform="translate(0 -1.98)"/>
    <path class="cls-1" d="M34.93,7a15.18,15.18,0,0,0-1-1.75.34.34,0,0,0-.58.36,17.23,17.23,0,0,1,.88,1.56A10,10,0,0,0,35,8.83c.17.23.59.15.56-.17A4.52,4.52,0,0,0,34.93,7Z" transform="translate(0 -1.98)"/>
    <path class="cls-2" d="M22.65,17.58c-1.09-1.82-2-3.86-3-5.75-.28-.53-1.07,0-.79.49l2,3.8c.28.55.71,2.08,1.48,2.07A.4.4,0,0,0,22.65,17.58Z" transform="translate(0 -1.98)"/>
    <path class="cls-2" d="M26.22,18.15c-1.45-3.25-3.55-6.3-5.25-9.43-.3-.55-1.11-.05-.82.5,1.6,3.09,3.08,6.54,5.1,9.37C25.58,19.05,26.48,18.74,26.22,18.15Z" transform="translate(0 -1.98)"/>
    <path class="cls-2" d="M31.58,22.61a59.52,59.52,0,0,0-4.13-8.31c-1.58-3-3.23-5.91-4.95-8.82-.27-.46-1,0-.71.45,1.55,2.81,3.08,5.64,4.56,8.49S29,20.31,30.76,23A.46.46,0,0,0,31.58,22.61Z" transform="translate(0 -1.98)"/>
    <path class="cls-2" d="M24.47,4c-.33-.47-1.1,0-.77.47a10.91,10.91,0,0,1,.84,1.43c.24.51.38,1,.63,1.54s.92.2.85-.26A8,8,0,0,0,24.47,4Z" transform="translate(0 -1.98)"/>
    <path class="cls-2" d="M33.41,19.9l-1.55-2.63a.46.46,0,0,0-.78.47l1.48,2.69c.36.65.64,1.54,1.28,2a.44.44,0,0,0,.64-.39A5.25,5.25,0,0,0,33.41,19.9Z" transform="translate(0 -1.98)"/>
    <path class="cls-3" d="M5.85,33.77q-2-3.57-3.7-7.3c-.22-.48-1-.26-.8.25Q3,30.59,5,34.29C5.3,34.86,6.17,34.33,5.85,33.77Z" transform="translate(0 -1.98)"/>
    <path class="cls-3" d="M10.14,35.44a27.26,27.26,0,0,0-2.69-4.68,47.16,47.16,0,0,1-3.17-6.51c-.21-.52-1.05-.28-.85.26,1.53,4,4,7.49,5.77,11.35C9.45,36.4,10.32,36,10.14,35.44Z" transform="translate(0 -1.98)"/>
    <path class="cls-3" d="M13,34.84c-1.7-3.92-3.88-7.68-5.88-11.46-.27-.52-1,0-.77.48,1.93,3.77,3.66,7.7,5.73,11.39C12.39,35.74,13.26,35.38,13,34.84Z" transform="translate(0 -1.98)"/>
    <path class="cls-3" d="M16.71,34.57c-2.59-5.16-5.59-10.14-8.39-15.19-.26-.46-.94,0-.69.43,2.72,5.09,5.29,10.31,8.22,15.29C16.19,35.66,17,35.14,16.71,34.57Z" transform="translate(0 -1.98)"/>
    <path class="cls-3" d="M19.9,34.68C17,28.67,13.72,22.81,10.36,17c-.3-.5-1.06,0-.77.48C12.89,23.34,16,29.28,19,35.26,19.28,35.9,20.21,35.31,19.9,34.68Z" transform="translate(0 -1.98)"/>
    <path class="cls-3" d="M24.33,34.64C21.87,28.13,17.77,21.9,14,16.1a.46.46,0,0,0-.78.48c3.83,6,6.73,12.35,10.25,18.47C23.7,35.54,24.54,35.19,24.33,34.64Z" transform="translate(0 -1.98)"/>
    <path class="cls-3" d="M28.69,35c-1.18-3.27-3.36-6.33-5.07-9.35q-2.81-5-5.63-10c-.32-.57-1.17,0-.85.53l5.28,9.63c1.72,3.13,3.22,6.75,5.43,9.55C28.15,35.79,28.89,35.57,28.69,35Z" transform="translate(0 -1.98)"/>
    <path class="cls-3" d="M31.67,34.55A59.06,59.06,0,0,0,28,27.28q-2.09-4-4.19-7.94c-.29-.56-1.11,0-.83.52l3.86,7.58a63.91,63.91,0,0,0,4,7.51C31.09,35.39,31.87,35.1,31.67,34.55Z" transform="translate(0 -1.98)"/>
    <path class="cls-3" d="M34.32,33.39c-2.13-4.8-4.81-9.4-7.23-14-.27-.53-1-.05-.76.47,2.32,4.65,4.44,9.5,7,14C33.66,34.32,34.57,33.94,34.32,33.39Z" transform="translate(0 -1.98)"/>
    <path class="cls-3" d="M36.33,30.5A21.43,21.43,0,0,0,32.91,24c-.34-.5-1.13,0-.79.48a58.53,58.53,0,0,1,3.29,6.46C35.67,31.45,36.46,31,36.33,30.5Z" transform="translate(0 -1.98)"/>
    <path class="cls-4" d="M39.05,15.78c-.09.2-.19.4-.29.6-.71.9-2.61,1.14-3.53,1.16a8.05,8.05,0,0,1-3-.46,9.35,9.35,0,0,1-4.65-3.76,9.22,9.22,0,0,1,.31-10.58A.44.44,0,0,0,27.65,2a.4.4,0,0,0-.29,0A9.91,9.91,0,0,0,20.59,7c-1.41,2.4-2.56,5.58-2,8.41l-.29-.11a9.33,9.33,0,0,0-8.55.91A8.76,8.76,0,0,0,6,22.86c-3-.17-5.63,2.9-5.9,5.89v0c-.44,2.71,1.29,5,3.59,6.25,2.77,1.52,6.09,1.42,9.15,1.39l11.55-.12c3.12,0,7,.49,9.76-1.16,2.44-1.42,3.09-4.37,2.71-7a6.76,6.76,0,0,0-1.47-3.4,5,5,0,0,0-1.5-1.19c2.8-1.15,4.4-3.86,5.72-6.53a2.45,2.45,0,0,0,.41-.86c.13-.53-.68-.89-.94-.36ZM39.49,13c.31.12.1.67-.22.55h0a3.34,3.34,0,0,0-.69.3c-.19.17-.16.5-.33.72h0v0a.37.37,0,0,1-.74,0,.67.67,0,0,0,0-.16,1.3,1.3,0,0,0-.33-.61,2.07,2.07,0,0,0-.52-.24h-.18a.37.37,0,0,1-.21-.68.77.77,0,0,1,.25-.1.51.51,0,0,1,.17-.07,1.78,1.78,0,0,1,.43-.18,4,4,0,0,0,.5-1,.33.33,0,0,1,.62.15v.11a.3.3,0,0,1,0,.08,2,2,0,0,1,.12.39,1,1,0,0,0,.55.46H39l.06,0a.37.37,0,0,1,.38.16l0,0ZM37.58,6.79a.52.52,0,0,1,0,1c-.71.28-1.84.48-2.27,1.17a11.14,11.14,0,0,0-.69,2c-.11.32-.59.58-.87.25a14.85,14.85,0,0,1-1.15-2,2.19,2.19,0,0,0-1-.85,9.69,9.69,0,0,1-1.52-.58A.41.41,0,0,1,30,7.07c.73-.65,2-.46,2.59-1.29s.41-1.62,1-2.33a.49.49,0,0,1,.8.19c.28.63.57,1.92,1.1,2.35a8.93,8.93,0,0,0,2.11.8ZM34.68,8A4.23,4.23,0,0,0,34,9.54a5,5,0,0,0-.9-1.63,4.24,4.24,0,0,0-1.28-.67A2.46,2.46,0,0,0,33,6.68a3.86,3.86,0,0,0,.78-1.75,4.28,4.28,0,0,0,.95,1.77,3.57,3.57,0,0,0,1.11.6A3,3,0,0,0,34.68,8Zm-.17,17.86c1.43,2,1.57,5.78-.33,7.51-2.17,2-5.86,1.49-8.56,1.51L16.88,35c-4.16,0-11.28.86-14.42-2.57a.51.51,0,0,0-.13-.62c-2.84-2.56.49-8.51,4.12-7.59a.64.64,0,0,0,.79-.63c-.18-5.28,5.19-8.57,10-7.16a9.42,9.42,0,0,1,3.32,1.73c.78.62,1.37,1.66,2.48,1.6a8.19,8.19,0,0,1,3.12,0,5.5,5.5,0,0,1,3,2.25A4.29,4.29,0,0,0,31,23.91c1.36.6,2.54.67,3.48,2Zm-2.07-3.07a.44.44,0,0,0-.16.06l-.46-.16c-1.25-.45-1.75-2.08-2.77-2.93a7,7,0,0,0-3.65-1.57,6.92,6.92,0,0,0-1.64,0c-1,.14-1.38-.35-2.1-.95A11.46,11.46,0,0,0,19.81,16a0,0,0,0,1,0,0c-1.16-4.87,2-11.35,6.9-12.94a10.33,10.33,0,0,0,.93,12,9.79,9.79,0,0,0,6.21,3.51,9.86,9.86,0,0,0,4-.34C36.6,20.31,35,22.22,32.44,22.82Z" transform="translate(0 -1.98)"/>
  </g>
</svg>
