<svg id="레이어_1" data-name="레이어 1" xmlns="http://www.w3.org/2000/svg" viewBox="0 0 27.39 39.65">
  <defs>
    <style>
      .cls-1 {
        fill: #1e1e29;
      }

      .cls-2 {
        fill: #e8e8e8;
      }

      .cls-3 {
        opacity: 0.1;
      }

      .cls-4 {
        fill: #5e4684;
      }

      .cls-5 {
        fill: #1c1c26;
      }

      .cls-6 {
        fill: #313142;
      }

      .cls-7 {
        fill: #f5f5f5;
      }

      .cls-8 {
        fill: #854422;
      }

      .cls-9 {
        fill: #261b18;
      }

      .cls-10 {
        fill: #9c552c;
      }

      .cls-11, .cls-12, .cls-14 {
        fill: #66241b;
      }

      .cls-11 {
        opacity: 0.4;
      }

      .cls-12, .cls-16, .cls-24 {
        opacity: 0.7;
      }

      .cls-13 {
        fill: #45362e;
      }

      .cls-14 {
        opacity: 0.5;
      }

      .cls-15 {
        fill: #d17642;
      }

      .cls-16 {
        fill: #f0ded1;
      }

      .cls-17 {
        fill: #d47b48;
      }

      .cls-18 {
        fill: #732e2b;
      }

      .cls-19 {
        fill: #fff9f0;
      }

      .cls-20 {
        fill: #e8dac5;
      }

      .cls-21 {
        fill: #212126;
      }

      .cls-22, .cls-23, .cls-24 {
        fill: #fff;
      }

      .cls-22 {
        opacity: 0.3;
      }
    </style>
  </defs>
  <title>1</title>
  <g>
    <g>
      <path class="cls-1" d="M8.72,39.82h4.82l-2-6.75C9.67,34.23,8.68,35,8.72,39.82Z" transform="translate(-6.21 -0.18)"/>
      <path class="cls-1" d="M29.24,33.07l-2,6.75H32C32.07,35,31.08,34.23,29.24,33.07Z" transform="translate(-6.21 -0.18)"/>
      <path class="cls-2" d="M15.41,31.26c-2,1.67-2.53,3.68.44,6.6a17.42,17.42,0,0,0,2.35,2h4c1.84-2,4.92-5.77,4.09-7.8C24.89,28.58,17.39,29.59,15.41,31.26Z" transform="translate(-6.21 -0.18)"/>
      <path class="cls-3" d="M16.07,33a6.51,6.51,0,0,0,2.54,3.37l2.09-2,2.22,1.89c2.12-1.89,2.54-3.08,2.72-3.75C26.19,30.4,15.14,30.05,16.07,33Z" transform="translate(-6.21 -0.18)"/>
      <path class="cls-4" d="M22.31,34.6a1.7,1.7,0,0,0-1.95-.88,1.8,1.8,0,0,0-1.5,1.37l1.08,1.1-1.07,3.63H23.1L21.67,36Z" transform="translate(-6.21 -0.18)"/>
      <g>
        <path class="cls-5" d="M25.68,30.73c.09.22.4.69.38.91-.24,2.62-2,5.94-3.37,8.18h5.54c.5-2.54,1.51-6.26,1.21-6.58A21.94,21.94,0,0,0,25.68,30.73Z" transform="translate(-6.21 -0.18)"/>
        <path class="cls-5" d="M15.35,31.6a3.66,3.66,0,0,1,.36-.68C14.14,31.6,11.24,33,11,33.5s1.17,3.31,1.85,6.32H19C17.1,37.28,14.63,33.47,15.35,31.6Z" transform="translate(-6.21 -0.18)"/>
      </g>
      <g>
        <path class="cls-6" d="M25.1,30c.36,3.67-1.49,7.46-2.83,9.78h2.08A37.15,37.15,0,0,0,27.19,37,18.4,18.4,0,0,0,26,34.84l2.16-1.34A9.85,9.85,0,0,0,25.1,30Z" transform="translate(-6.21 -0.18)"/>
        <path class="cls-6" d="M13.09,33.93,15.67,35a25.68,25.68,0,0,0-1.15,2.71A21.48,21.48,0,0,0,17,39.82h2.44c-1.41-2.08-3.32-5.49-3.32-9.35A6.93,6.93,0,0,0,13.09,33.93Z" transform="translate(-6.21 -0.18)"/>
      </g>
      <path class="cls-7" d="M15.72,31c-1,2.66,2.73,4.83,2.73,4.83l2.25-1.41,2.09,1.32s4.15-2.16,2.58-5.26C24,27.64,16.92,27.87,15.72,31Z" transform="translate(-6.21 -0.18)"/>
      <path class="cls-8" d="M19.05,27.23a3.15,3.15,0,0,0-2.31,2.89,2.45,2.45,0,0,0,.65,2.18,4.49,4.49,0,0,0,1.77,1c.5.16,1.36.74,1.51.74s.35-.25.82-.49a4.51,4.51,0,0,0,2-1.56c.55-1.08,1-3.21,0-4A6,6,0,0,0,19.05,27.23Z" transform="translate(-6.21 -0.18)"/>
    </g>
    <g>
      <path class="cls-9" d="M31.4,5.72c.44-.73.91-1.11.09-1.76A2.64,2.64,0,0,0,29,3.58c.45-1.86-2.11-2.31-3.11-1.26C25.6.26,23.63,0,22.43,1.46c-.58-1.56-2.81-1.86-3.2,0A2.4,2.4,0,0,0,15,2.64,1.87,1.87,0,0,0,11.65,4a2.36,2.36,0,0,0-2.89.57,2.44,2.44,0,0,0,0,2.61C6.43,7,6.8,9.08,8,10.25c-1.83.12-2.62,2.7-.43,2.9-1.19.43-1.33,2,.11,2.26-1.47.53-.84,1.83.43,2.11-.44,1.31-.16,1.83.86,2.64a14.47,14.47,0,0,1,1.59,1.72c1.41,1.59,2.42,3.48,3.79,5.06s2.84-1.09,4-1.73a7.76,7.76,0,0,1,4.95-1.05c1.5.22,2.56,1.79,4.08,1.83.93,0,1.52-.77,1.9-1.52a7.81,7.81,0,0,0,.48-2.32c.16-.77.9-1,1.37-1.54.2-.23.81-1.78,0-1.77,1.36,0,1.36-1.15.91-2a2.48,2.48,0,0,0-.33-.51c1.48-.22.92-1.35.38-2.21.52-.34.88-.39.84-1.07a1.79,1.79,0,0,0-1.07-1.33c.52-.38,1.17-.39,1.23-1.13a2.37,2.37,0,0,0-1-1.74C34.2,8.3,33.2,6,31.4,5.72Z" transform="translate(-6.21 -0.18)"/>
      <path class="cls-10" d="M18.66,4.76c-5.48,1.08-9.35,9-8.34,16.44.76,5.57,5,11.68,11.47,11.22s9.84-8.66,9-15.51C29.86,9.47,26.35,3.26,18.66,4.76Z" transform="translate(-6.21 -0.18)"/>
      <path class="cls-11" d="M25.73,5.93a24.56,24.56,0,0,0-6.65-1c-2,0-4.18-.14-6,.71-1,.46-2.29,1.1-2.68,2.24a10.47,10.47,0,0,0,0,4.66,12.61,12.61,0,0,0,1.48,4.6,18.11,18.11,0,0,1,.72-2.88l.39-1.67a1.71,1.71,0,0,0,1.71-1.9c.71,0,1.61-.26,1.75-1.05a1.76,1.76,0,0,0,1.18.47h.09c.8,0,.92-.5,1.45-.72.73-.29,2,.54,2.47-.55.86.53,1.94.89,2.72,0,.54.84,2.12,1.36,2.94.59.84.83,3.34-.11,2.62-1.47C29.26,6.75,26.84,6.27,25.73,5.93Z" transform="translate(-6.21 -0.18)"/>
      <path class="cls-10" d="M8.41,18.1c-2.7.75-1.62,4.7.58,5.49a5.24,5.24,0,0,0,2.18.24.43.43,0,0,0,0-.07c.32-.51-.13-3.39-.29-3.93C10.5,18.46,9.7,17.75,8.41,18.1Z" transform="translate(-6.21 -0.18)"/>
      <path class="cls-12" d="M9.35,19.56c-.61-.28-2.12.22-1.41,1.41.38-1.1,1-.38,1,.41-.07.52-.64.53-.08,1.2.31.37.92.23,1.23,0C11,22,10.09,19.9,9.35,19.56Z" transform="translate(-6.21 -0.18)"/>
      <path class="cls-9" d="M23.14,2.51a18.78,18.78,0,0,0-5.65-.17c-3.1.37-6.85,1.86-7.83,5.16-.61,2-.29,4.39-.14,6.47.1,1.26-.41,3.68.66,4.63,1.25,1.11,1.74-.56,1.86-1.75.17-1.76.38-3.46.61-5.2,1.13.1,1.64-.86,1.59-1.85a1.82,1.82,0,0,0,2.33-1A2.22,2.22,0,0,0,18,9.21c.51-.09.7-.7,1-.78s1,.42,1.54.32.8-.49,1.08-1c.75,1.18,2.46.92,3.34.09a1.77,1.77,0,0,0,2.7.86c-.42.28.62,1.15,1.15,1.47a.68.68,0,0,0,.26.11c.73.09,1.13-.47,1.46-1.05.83-1.47.18-3-.88-4.19C28.34,3.59,25,2.88,23.14,2.51Z" transform="translate(-6.21 -0.18)"/>
      <path class="cls-13" d="M30.51,6.54c.31-.47.52-1.25,0-1.66a2.3,2.3,0,0,0-2.32.22A1.93,1.93,0,0,0,27.58,3c-.59-.32-1.37.71-1.66,1.18A3.23,3.23,0,0,0,24.59,2c-1-.63-1.48.56-1.9,1.26A2.19,2.19,0,0,0,21,1.74c-.88-.14-1.27,1-1.6,1.63-.66-.62-1-1.53-2-1.53a1.42,1.42,0,0,0-1.42.68c-.28.51-.09,1.07-.29,1.58-.82-.4-1.3-1.09-2.31-1-1.19.09-1.2,1-1.25,2C9.46,3.94,8.62,6.27,9.76,7.79c-1.24.19-1.43,2.78,0,2.87-1,.5-1.24,1.46,0,2,1.36.58,1.7-1.12,1.35-2.09.92.08,1.06-.7,1-1.42.49.15.72.39,1.23.17s.54-.59.6-1.14c.45.23.88.67,1.44.42a1.72,1.72,0,0,0,.7-1.21A1.43,1.43,0,0,0,17.32,8c.61-.08.76-.44,1-.93a1.73,1.73,0,0,0,1.62.48c.72-.2.85-.59,1.1-1.23,1,.75,2.84,1.5,3.62,0,.7,1,2.44,2.2,3.51.91.74.86,1.42,2,2.76,1.54S32,6.57,30.51,6.54Z" transform="translate(-6.21 -0.18)"/>
    </g>
    <g>
      <path class="cls-14" d="M12.85,18.42c.09.45,1.09.11,1.41.14-.24.32-1,.41-1.35.64s-.27.38.14.32a7.5,7.5,0,0,0,1.78-.7C15.51,18.08,13.19,18.28,12.85,18.42Z" transform="translate(-6.21 -0.18)"/>
      <path class="cls-14" d="M29.28,18.38c.27,0,1.14.3,1.22-.15-.3-.14-2.31-.34-1.71.4a6.09,6.09,0,0,0,1.53.71c.37.06.41-.07.13-.32S29.48,18.69,29.28,18.38Z" transform="translate(-6.21 -0.18)"/>
      <path class="cls-15" d="M29.89,20.09a2.34,2.34,0,0,0-2-.73c-.85,0-2,.33-1.23,1.56.39.65,3.74,1.09,3.36-.42A1.41,1.41,0,0,0,29.89,20.09Z" transform="translate(-6.21 -0.18)"/>
      <path class="cls-15" d="M17.05,20.05a2.54,2.54,0,0,0-2.17-.4c-.88.14-2.4,1-1.13,1.86.91.63,4.22.38,3.56-1.08A1.28,1.28,0,0,0,17.05,20.05Z" transform="translate(-6.21 -0.18)"/>
      <path class="cls-9" d="M16.54,16.57c-2-.53-3.19,1.67-1.85,2.39a4.23,4.23,0,0,1,1.94.1A1.26,1.26,0,0,0,16.54,16.57Z" transform="translate(-6.21 -0.18)"/>
      <path class="cls-12" d="M22.11,21.05c-.69,0-1.29-.31-1.94,0s.1,1.21,1.92,1.16,2.32-.88,2-1.19S22.87,21,22.11,21.05Z" transform="translate(-6.21 -0.18)"/>
      <path class="cls-15" d="M22.07,17.09C20.51,17,19.29,20,20,21c.47.7,3.89.67,4.42-.14C24.57,20.53,23.55,17.22,22.07,17.09Z" transform="translate(-6.21 -0.18)"/>
      <path class="cls-16" d="M15.85,17c-.8.17-.19,1.15.58.79C17,17.49,16.55,16.81,15.85,17Z" transform="translate(-6.21 -0.18)"/>
      <path class="cls-9" d="M16.94,13.27c-1.73-.23-4.48.37-4.22,1.29s1.23.18,2.55.21,2.51.43,3.09,0C19.33,14.07,18.38,13.46,16.94,13.27Z" transform="translate(-6.21 -0.18)"/>
      <path class="cls-9" d="M26.81,13.17c-1.36.21-2.28.84-1.38,1.52.54.41,1.61,0,2.94-.06s2.16.65,2.43-.26S28.46,12.91,26.81,13.17Z" transform="translate(-6.21 -0.18)"/>
      <path class="cls-9" d="M28.62,16.3c-2-.27-2.95,2.08-1.53,2.61A4.29,4.29,0,0,1,29,18.76,1.27,1.27,0,0,0,28.62,16.3Z" transform="translate(-6.21 -0.18)"/>
      <path class="cls-16" d="M28,16.77c-.77.28,0,1.17.68.71C29.19,17.15,28.66,16.53,28,16.77Z" transform="translate(-6.21 -0.18)"/>
      <g>
        <path class="cls-17" d="M28.21,22.61c-2.54.8-9,.85-11.85.46-.45-.06-1.44-.54-1.08.36.23.55.41,1.14.67,1.67,1.24,2.45,2.42,4.47,5.86,4.53s4.53-2.15,4.67-4A3.33,3.33,0,0,1,27.26,24c.14-.17,1.28-1.27,1.2-1.38S28.25,22.59,28.21,22.61Z" transform="translate(-6.21 -0.18)"/>
        <path class="cls-14" d="M14.77,22.64c-.49.32-.48,1.37-.09,1.42s.41-.71.51-.93a.93.93,0,0,1,.54-.42l.46-.15s.66-.16.52-.24A4.49,4.49,0,0,0,14.77,22.64Z" transform="translate(-6.21 -0.18)"/>
        <path class="cls-14" d="M27.38,22.18c-.25.06.21.15.83.3s0,1.05.4,1.1.78-.62.52-1.17S27.38,22.18,27.38,22.18Z" transform="translate(-6.21 -0.18)"/>
        <path class="cls-18" d="M16.11,23.56s1.54,4.68,5.76,4.53c3.8-.14,4.25-1.73,4.42-2.85a2.93,2.93,0,0,1,1.25-2.09A21.43,21.43,0,0,1,16.11,23.56Z" transform="translate(-6.21 -0.18)"/>
        <path class="cls-19" d="M17.5,24a2.49,2.49,0,0,0,1.35,2.09,7.76,7.76,0,0,0,5.45.25c1.28-.38,2-2.68,2-2.68A33.79,33.79,0,0,1,17.5,24Z" transform="translate(-6.21 -0.18)"/>
        <path class="cls-19" d="M22.8,26.39a11.11,11.11,0,0,1-4.2-.6c-.71-.31-.71.12-.58.51,0,0,.23,1.56,3.52,1.83,2.88.24,4.13-1.74,3.81-2.15S24.61,26.36,22.8,26.39Z" transform="translate(-6.21 -0.18)"/>
        <path class="cls-20" d="M17.49,24a2.55,2.55,0,0,0,.14.66S24.46,24,26,24.55a4.3,4.3,0,0,0,.34-.85A39.57,39.57,0,0,1,17.49,24Z" transform="translate(-6.21 -0.18)"/>
        <path class="cls-20" d="M19,25.8a7.49,7.49,0,0,0,6,.1A11.45,11.45,0,0,1,19,25.8Z" transform="translate(-6.21 -0.18)"/>
      </g>
    </g>
    <g>
      <path class="cls-21" d="M23.84,15.32c-.84,1-.42,4.28.13,5.35s6.33,1.2,7.72.67,2.53-4.33,1.54-5.86S25.07,13.88,23.84,15.32Zm7.53,5.3c-1.05.37-6.2.26-6.69-.44s-.67-3.65-.07-4.32c.87-1,6.91-.84,7.79.16S32.42,20.25,31.37,20.62Z" transform="translate(-6.21 -0.18)"/>
      <path class="cls-21" d="M9.83,15.64c-1.06,1,0,4.4.92,5.43s7.58.6,8.93,0,1.35-4.27.2-5.72S11.38,14.12,9.83,15.64Zm9.29,4.8c-1,.4-6.8.71-7.56.06s-1.63-3.62-.89-4.3c1.1-1,7.5-1.22,8.47-.31S20.12,20,19.12,20.44Z" transform="translate(-6.21 -0.18)"/>
      <path class="cls-21" d="M20.63,17.3c-.14.07-.75.93-.32,1.13a3.67,3.67,0,0,1,3.29-.27c.25.1.48.08.4-.26C23.69,16.64,21.51,16.87,20.63,17.3Z" transform="translate(-6.21 -0.18)"/>
      <path class="cls-22" d="M28.22,15.45c-.39.1-3.06.61-2.56,1.88.33.83,6.52,1.4,6.94,0C33.46,14.53,29,15.25,28.22,15.45Z" transform="translate(-6.21 -0.18)"/>
      <path class="cls-22" d="M18.69,15.45a12.33,12.33,0,0,0-4.4.06c-.44.08-2.49.41-1.79,1.75s5.85,1.58,6.8.44A1.37,1.37,0,0,0,18.69,15.45Z" transform="translate(-6.21 -0.18)"/>
      <path class="cls-23" d="M28.65,15.66c-.67,0-1.13.18-1,.52.28.67,4.19.84,4.5.39S30.08,15.62,28.65,15.66Z" transform="translate(-6.21 -0.18)"/>
      <path class="cls-24" d="M25.64,19.31c-.42,0-.71,0-.66.3.1.57,2.49,1.12,2.73.8S26.52,19.42,25.64,19.31Z" transform="translate(-6.21 -0.18)"/>
      <path class="cls-23" d="M15.85,15.54c-.65,0-1.1.18-.95.49.29.62,4.13.7,4.43.29S17.26,15.48,15.85,15.54Z" transform="translate(-6.21 -0.18)"/>
      <path class="cls-24" d="M11.94,19.46c-.41,0-.69,0-.64.29.11.52,2.46,1,2.7.69S12.81,19.55,11.94,19.46Z" transform="translate(-6.21 -0.18)"/>
    </g>
  </g>
</svg>
