<svg id="레이어_1" data-name="레이어 1" xmlns="http://www.w3.org/2000/svg" viewBox="0 0 27.53 39.92">
  <defs>
    <style>
      .cls-1 {
        fill: #9ab5de;
      }

      .cls-2 {
        fill: #3a3a4a;
      }

      .cls-3 {
        fill: #f2f2f2;
      }

      .cls-4 {
        opacity: 0.1;
      }

      .cls-5 {
        fill: #b0c6e8;
      }

      .cls-6 {
        fill: #f1aa83;
      }

      .cls-7 {
        fill: #c9beb7;
      }

      .cls-8 {
        fill: #ffb97f;
      }

      .cls-13, .cls-9 {
        fill: #bf3c1b;
      }

      .cls-9 {
        opacity: 0.2;
      }

      .cls-10, .cls-16 {
        fill: #b54319;
      }

      .cls-10 {
        opacity: 0.35;
      }

      .cls-11 {
        fill: #f0eae6;
      }

      .cls-11, .cls-24 {
        opacity: 0.7;
      }

      .cls-12 {
        fill: #9e8f88;
      }

      .cls-13, .cls-15, .cls-18, .cls-22 {
        opacity: 0.3;
      }

      .cls-14 {
        fill: #ffcb9e;
      }

      .cls-15 {
        fill: #6e2210;
      }

      .cls-16 {
        opacity: 0.5;
      }

      .cls-17 {
        fill: #121b21;
      }

      .cls-18 {
        fill: #a67663;
      }

      .cls-19 {
        fill: #ffd2ab;
      }

      .cls-20 {
        fill: #7d8ba8;
      }

      .cls-21 {
        fill: #4f2c1e;
      }

      .cls-22, .cls-23, .cls-24 {
        fill: #fff;
      }

      .cls-25 {
        fill: #c1c5c9;
      }
    </style>
  </defs>
  <title>1</title>
  <g>
    <g>
      <path class="cls-1" d="M15.59,33.53,15,30.38a6.37,6.37,0,0,0-5,5.84c-.11,1.37-.25,3.51-.25,3.7h4S14,34.41,15.59,33.53Z" transform="translate(-6.06 0)"/>
      <path class="cls-1" d="M25,30.38l-.6,3.15c1.63.88,1.86,6.39,1.86,6.39h4c0-.19-.14-2.33-.25-3.7A6.38,6.38,0,0,0,25,30.38Z" transform="translate(-6.06 0)"/>
      <path class="cls-1" d="M25.13,30.17c-2.53-.88-7.35-1.22-10.34.12-1.66.74-1.44,5.38-1.31,9.63h13C26.61,35.65,26.73,30.73,25.13,30.17Z" transform="translate(-6.06 0)"/>
      <g>
        <path class="cls-2" d="M25.5,30.26a.57.57,0,0,0-1.1.32c.49,1.72.19,4.88-.14,8.22,0,.37-.06.74-.1,1.12h1.15l.09-1C25.74,35.46,26.05,32.19,25.5,30.26Z" transform="translate(-6.06 0)"/>
        <polygon class="cls-3" points="18.17 38.21 19.52 38.24 19.53 37.66 18.18 37.63 18.17 38.21"/>
      </g>
      <g>
        <path class="cls-2" d="M15.63,30.58a.57.57,0,0,0-1.1-.32c-.55,1.93-.24,5.2.09,8.66,0,.33.07.66.1,1h1.15c0-.37-.07-.75-.11-1.11C15.44,35.46,15.14,32.3,15.63,30.58Z" transform="translate(-6.06 0)"/>
        <rect class="cls-3" x="14.44" y="37.65" width="1.35" height="0.57" transform="translate(-6.81 0.31) rotate(-1.14)"/>
      </g>
      <path class="cls-4" d="M22.5,31.84c-1.55-1-7.88-1.23-7.16,1.49A7.73,7.73,0,0,0,17.9,37.4L20,35l2.25,2.29A11.86,11.86,0,0,0,25,32.73,4.5,4.5,0,0,1,22.5,31.84Z" transform="translate(-6.06 0)"/>
      <path class="cls-5" d="M15.19,30.84c-1,3.22,2.65,5.85,2.65,5.85L20,35l2,1.6s4-2.61,2.49-6.37C23.17,26.83,16.36,27.1,15.19,30.84Z" transform="translate(-6.06 0)"/>
      <path class="cls-6" d="M19.92,25.76a4.24,4.24,0,0,0-4.39,3.91,3.29,3.29,0,0,0,.81,2.74,10.29,10.29,0,0,0,3.71,2.16,10.82,10.82,0,0,0,3.65-2.3,3.29,3.29,0,0,0,.72-2.77A4.2,4.2,0,0,0,19.92,25.76Z" transform="translate(-6.06 0)"/>
      <path class="cls-3" d="M20,38a.44.44,0,0,0-.43.44.43.43,0,0,0,.86,0A.44.44,0,0,0,20,38Z" transform="translate(-6.06 0)"/>
    </g>
    <g>
      <g>
        <path class="cls-7" d="M17.32.09C2.73,1.16,5.05,21.52,9.22,20.66c3.07-.63,6.1-1.49,9.15-2.24,2.84-.69,6-.13,8.88.08,2.27.17,2.24-.8,2.36-2.65.23-3.45-.14-4.71,0-6.11C30.39,3.82,25.67-.53,17.32.09Z" transform="translate(-6.06 0)"/>
        <path class="cls-8" d="M17.8,4.42c-5.37,1-9.19,8.74-8.24,16,.7,5.44,4.85,11.43,11.14,11s9.66-8.41,8.86-15.1C28.7,9.07,25.31,3,17.8,4.42Z" transform="translate(-6.06 0)"/>
        <path class="cls-8" d="M7.7,17.39c-2.63.71-1.6,4.58.55,5.37a5.13,5.13,0,0,0,2.12.24.16.16,0,0,0,0-.07c.32-.49-.23-3.07-.38-3.6C9.63,18,9,17.05,7.7,17.39Z" transform="translate(-6.06 0)"/>
        <path class="cls-9" d="M27.16,6.48a24.54,24.54,0,0,0-9-1.94c-2.14,0-5.33-.2-7,1.37-1.38,1.26-1.5,3.61-1.59,5.35,0,.66-.05,5.72.34,4.63.71-2,2.32-2.73,2.27-4.81,3.09,1.4,7.74,1.3,11.78.91,2.54-.25,4.58-.87,5.08,1.25C29.36,11.39,29.18,7.3,27.16,6.48Z" transform="translate(-6.06 0)"/>
        <path class="cls-10" d="M8.62,18.82c-.59-.28-2.07.2-1.38,1.37.37-1.08,1-.36.92.4-.07.51-.62.52-.08,1.18.29.36.89.23,1.19,0C10.23,21.21,9.34,19.15,8.62,18.82Z" transform="translate(-6.06 0)"/>
        <path class="cls-7" d="M32.27,1.55c-3.43,2.75-9-3.34-16.79-1C4.8,3.75,8.77,15.09,8.82,16.46a6.8,6.8,0,0,0,1.09,3.12,2.57,2.57,0,0,0,1.44,0c-1-.9-1.34-3.34-.56-5.62.44-1.27,1.07-2.17.93-3.89.93.86,7.64,2.15,16,.39A8,8,0,0,0,32.92,7a19.17,19.17,0,0,0-2.05.23C32.09,5.9,32.25,3.39,32.27,1.55Z" transform="translate(-6.06 0)"/>
        <path class="cls-11" d="M23.46,1.26C19.63.17,13.79.06,10.79,3.2S10.37,9.07,20.58,9c9.31-.11,11.25-6.72,11.25-6.72C29.05,3.55,27.28,2.34,23.46,1.26Z" transform="translate(-6.06 0)"/>
        <path class="cls-12" d="M8.29,17.33c.93.06,1.05,1.86,1.71,2.32a2.27,2.27,0,0,0,1.35-.06c-.7-1-.86-3.63-.87-4.36C10,16.31,7.44,17.27,8.29,17.33Z" transform="translate(-6.06 0)"/>
        <path class="cls-11" d="M7.77,7.22A9.84,9.84,0,0,0,7,9.88c-.15,1.1-.25,2.66.57,3.54a1.69,1.69,0,0,0,2.85-.73C11.58,9.27,7.77,7.22,7.77,7.22Z" transform="translate(-6.06 0)"/>
      </g>
      <g>
        <path class="cls-4" d="M14.58,30.69c1.08,4.08,9.92,5.16,11.82.61C27.81,27.91,13.75,27.56,14.58,30.69Z" transform="translate(-6.06 0)"/>
        <path class="cls-7" d="M29.46,15.54c.51,11.06-2.92,6.9-2.92,6.9l-1.06.42c.39,2.7-2.4,3.83-2.86,2L20,25c-.7,2.66-3.49-.28-3.42-1.88s-1.27-.38-1.27-.38c-1.73,1.69-4.1-2.54-4.32-3.45l-1.32-.1S9.73,34.14,22.52,33C33.46,31.92,29.66,15,29.66,15Z" transform="translate(-6.06 0)"/>
        <path class="cls-13" d="M18.14,24.3c.83,2.06,5.18,2,5.82.27C22.49,25.1,19.28,25.34,18.14,24.3Z" transform="translate(-6.06 0)"/>
        <path class="cls-14" d="M22.09,23.23a13.08,13.08,0,0,1-3.28-.17A.82.82,0,0,0,18,24.45c.88,1,2.57,1,3.69.91.88-.05,2.72-.24,2.86-1.67C24.68,22.45,22.6,23.18,22.09,23.23Z" transform="translate(-6.06 0)"/>
        <path class="cls-15" d="M15,22.92c3.57,1.76,9.93,1.6,12.19-.38C24.4,23.1,17.81,23.49,15,22.92Z" transform="translate(-6.06 0)"/>
        <path class="cls-16" d="M13.4,17.67c0,.43,1,.23,1.32.3-.26.26-1,.26-1.35.45s-.3.32.1.31a7.15,7.15,0,0,0,1.75-.46C16,17.65,13.74,17.58,13.4,17.67Z" transform="translate(-6.06 0)"/>
        <path class="cls-16" d="M28.59,18c-.25-.19-.89-.2-1.08-.48.25-.06,1.06.17,1.13-.26-.28-.1-2.13-.07-1.59.55a4.89,4.89,0,0,0,1.42.5C28.8,18.37,28.85,18.24,28.59,18Z" transform="translate(-6.06 0)"/>
        <path class="cls-17" d="M16.05,15.8c-1.38-.61-2.26,1.85-1.32,2.66a2,2,0,0,1,1.37.13A1.69,1.69,0,0,0,16.05,15.8Z" transform="translate(-6.06 0)"/>
        <path class="cls-7" d="M21.69,20.32l-1.05,0a6.82,6.82,0,0,0-3.59.76,7.06,7.06,0,0,0-2.28,1.79,22.64,22.64,0,0,0,10.92.31,4.68,4.68,0,0,0,1.84-.73,8.9,8.9,0,0,0-4.79-2.23A4.14,4.14,0,0,0,21.69,20.32Z" transform="translate(-6.06 0)"/>
        <path class="cls-18" d="M21.66,19.84c-.69,0-1-.22-1.45,0s.21,1.11,1.43,1.06,1.78-.89,1.5-1.13S22.43,19.82,21.66,19.84Z" transform="translate(-6.06 0)"/>
        <path class="cls-19" d="M21.23,15.94c-.6,0-.72,1.67-.92,2.44s-.35,1.51,0,1.74a2.94,2.94,0,0,0,2.87-.22c.18-.17-.26-1-.61-1.77S21.91,15.89,21.23,15.94Z" transform="translate(-6.06 0)"/>
        <path class="cls-17" d="M27.16,15.75c-1.41-.76-2.52,2.25-1,2.63A1.84,1.84,0,0,1,27.4,18,1.59,1.59,0,0,0,27.16,15.75Z" transform="translate(-6.06 0)"/>
        <path class="cls-20" d="M15.65,16.15c-.56.19-.14,1.28.41.89S16.15,16,15.65,16.15Z" transform="translate(-6.06 0)"/>
        <path class="cls-20" d="M26.8,16.14c-.53.13-.22,1.18.32.85C27.51,16.76,27.28,16,26.8,16.14Z" transform="translate(-6.06 0)"/>
        <path class="cls-21" d="M25.94,12.8c-1.24,0-2.17,0-2.17,0,0,.59.27,1.78,1.2,1.66.57-.07,1.14-.22,1.7-.25a6.94,6.94,0,0,1,2.08.19.36.36,0,0,0,.37-.56A4.08,4.08,0,0,0,25.94,12.8Z" transform="translate(-6.06 0)"/>
        <path class="cls-21" d="M16,13a4.56,4.56,0,0,0-3.44,1.19c-.16.15,0,.67.48.55a8.62,8.62,0,0,1,2.3-.27c.63,0,1.29.14,1.93.19,1.06.08,1.23-1.14,1.16-1.73C18.45,12.85,17.42,13,16,13Z" transform="translate(-6.06 0)"/>
        <path class="cls-19" d="M28.7,19.44a2.2,2.2,0,0,0-2-.52c-.84.12-1.91.62-1,1.84.48.65,3.86.68,3.29-.9A1.69,1.69,0,0,0,28.7,19.44Z" transform="translate(-6.06 0)"/>
        <path class="cls-19" d="M16.37,19.54a2.25,2.25,0,0,0-2.16-.5c-.87.16-2,.75-1,2.05.52.69,4.06.59,3.41-1.11A1.44,1.44,0,0,0,16.37,19.54Z" transform="translate(-6.06 0)"/>
        <path class="cls-11" d="M22.91,21a3.42,3.42,0,0,1-1.71.46A12.32,12.32,0,0,0,19.07,21a7.57,7.57,0,0,0-2.48,1.3c3.1.68,7.1.91,9.34-.27C25.19,21.37,23.72,20.6,22.91,21Z" transform="translate(-6.06 0)"/>
        <path class="cls-11" d="M26.54,26.33c-.93-1.13-1.92-.15-1.88,1a2.23,2.23,0,0,0-4,.65c-.79-2.15-3-2-2.8-.52-.34-1.29-2.15-3-3.53-2.72-2.4.43-.35,3.58.46,4.66,2.91,3.9,14.73,3.51,13.89-4.05C28.48,23.45,26.26,23.92,26.54,26.33Z" transform="translate(-6.06 0)"/>
      </g>
    </g>
    <g>
      <path class="cls-18" d="M26,15.74c.57,0,1.15-.05,1.72-.06a4.16,4.16,0,0,0,1.45-.12c.6-.25.48-1.09.11-1.51s-1-.3-1.47-.24a14.79,14.79,0,0,0-2,.35,12.14,12.14,0,0,0-2.53.69,3,3,0,0,1-1.86.56c-1.56-.05-2.88-1-4.43-1.18a13.12,13.12,0,0,0-4.88.11c-.42.12-1.67.61-.82,1.05a7.45,7.45,0,0,0,3,.32c.42,0,.84,0,1.26.06,1.48.12,3.76-.1,3.65,1.76a3.07,3.07,0,0,1-1.92,2.84,13,13,0,0,1-3.05.34A5.32,5.32,0,0,1,12,20.24c-.2-.09-.79-.46-1-.2-.33.47.88,1.22,1.2,1.36a7.33,7.33,0,0,0,2.27.5c1.94.19,3.93.08,5-1.72.63-1,.94-2.25,1.52-3.32.95-1.75,1.35.63,1.62,1.67a5.34,5.34,0,0,0,.71,1.64,3.67,3.67,0,0,0,2.72,1.44,12,12,0,0,0,3.1-.33c.34-.15.52-.72.12-.89a18.87,18.87,0,0,0-2.24.22,7.23,7.23,0,0,1-1.14-.12,3.27,3.27,0,0,1-1.36-.64,2.6,2.6,0,0,1-.69-.82,2.7,2.7,0,0,1-.11-2.19C24.1,15.86,25.13,15.8,26,15.74Z" transform="translate(-6.06 0)"/>
      <path class="cls-2" d="M10.42,14.19c-1.27.12-2.38-.16-2.66.12s.38,1.45.38,1.45a2.24,2.24,0,0,0,1,.27c.14.89.24,3.19,2,4.53,1.43,1.12,5.88,1.18,7.21.4a5.38,5.38,0,0,0,2.47-4.22C21.3,12.83,12.21,14,10.42,14.19Zm7.94,5.72c-1.61,1.2-5.94,1-7.15-.35-.94-1-1.23-3.25-.73-3.6,1.55-1.08,7.64-1.1,9.11-.12C20.3,16.32,19.59,19,18.36,19.91Z" transform="translate(-6.06 0)"/>
      <path class="cls-2" d="M31.19,13.75c-1.55-.09-9.42-.85-8.88,3a5.41,5.41,0,0,0,2.25,4.09c1.18.72,5,.46,6.21-.73,1.45-1.42,1.46-3.72,1.56-4.61a1.78,1.78,0,0,0,.87-.32s.62-1.13.29-1.48S32.29,13.82,31.19,13.75Zm-.51,5.4c-1,1.38-4.74,1.81-6.17.69-1.08-.86-1.77-3.5-1.17-4,1.24-1.05,6.48-1.31,7.85-.3C31.64,15.85,31.45,18.1,30.68,19.15Z" transform="translate(-6.06 0)"/>
      <path class="cls-22" d="M24.38,15.55c-.88.33.65.9,1,1a11.07,11.07,0,0,0,3.73.07c.66-.09,2.09-.63,1.71-1C30.26,15,25.35,15.17,24.38,15.55Z" transform="translate(-6.06 0)"/>
      <path class="cls-23" d="M28.22,15.54c-.47.05-.78.18-.66.4.22.45,3,.36,3.18,0S29.22,15.43,28.22,15.54Z" transform="translate(-6.06 0)"/>
      <path class="cls-24" d="M25.18,18.85c-.29,0-.5,0-.45.24.09.38,1.79.66,1.95.43S25.81,18.89,25.18,18.85Z" transform="translate(-6.06 0)"/>
      <path class="cls-24" d="M12.18,19.18c-.33,0-.56,0-.51.22.08.38,1.94.72,2.13.5S12.86,19.24,12.18,19.18Z" transform="translate(-6.06 0)"/>
      <path class="cls-22" d="M18.9,15.66c-1.16-.33-6.83-.39-7.38.15-.4.39,1.32.87,2.08.94a15.92,15.92,0,0,0,4.28-.14C18.26,16.53,20,16,18.9,15.66Z" transform="translate(-6.06 0)"/>
      <path class="cls-23" d="M16.43,15.49c-.52,0-.87.18-.74.41.25.45,3.29.35,3.51,0S17.53,15.38,16.43,15.49Z" transform="translate(-6.06 0)"/>
      <path class="cls-2" d="M23.5,14.5a6.91,6.91,0,0,1-4.05.07c-1.27-.35.67.76.82,1.41s0,2.75.4,1.57,1.23-1.24,1.74-.14.62-1.76.84-2S24.7,14.14,23.5,14.5Z" transform="translate(-6.06 0)"/>
      <path class="cls-25" d="M11,14.53c3.45,0,6.21-.13,8.33.54C18,14,15.6,13.94,11,14.53Z" transform="translate(-6.06 0)"/>
      <path class="cls-25" d="M23.87,14.88c1.79-.76,4-.57,7-.84C26.88,14,25,13.87,23.87,14.88Z" transform="translate(-6.06 0)"/>
    </g>
  </g>
</svg>
