<svg id="레이어_1" data-name="레이어 1" xmlns="http://www.w3.org/2000/svg" viewBox="0 0 38.86 40">
  <defs>
    <style>
      .cls-1 {
        fill: #576d64;
      }

      .cls-1, .cls-2 {
        fill-rule: evenodd;
      }
    </style>
  </defs>
  <title>10</title>
  <g>
    <polygon class="cls-1" points="5.69 8.61 8.92 3.49 13.59 1.12 18.54 1.12 22.68 3.62 23.63 4.71 27.85 4.98 30.2 6.29 31.75 8.36 33.27 9.62 36.86 11.77 38.24 15.24 37.62 19.2 33.76 22.13 27.91 22.91 8.86 22.37 5.21 21.33 1.62 19.44 0.4 15.12 3.02 10.8 5.69 8.61"/>
    <path class="cls-1" d="M6.24,21.35c-.63-2.85-2.36-5.75-3.52-8.42-.21-.48-1-.26-.79.23,1.15,2.8,2.45,5.6,3.41,8.47A.47.47,0,0,0,6.24,21.35Z" transform="translate(-0.57)"/>
    <path class="cls-1" d="M10.83,21.35v-.09a.5.5,0,0,0-.5-.35h-.08l-.17,0c1-.65-4-10.1-4.5-11.26-.23-.5-1.13-.11-.9.41,1,2.28,2,4.57,3,6.87.57,1.36,1,4,2.2,4.94A.58.58,0,0,0,10.83,21.35Z" transform="translate(-0.57)"/>
    <path class="cls-1" d="M14.68,21.22C13.32,16.05,10.6,11,8.46,6.06c-.25-.58-1.21-.31-1,.3,2.08,5,3.64,10.5,6.14,15.33C14,22.29,14.84,21.83,14.68,21.22Z" transform="translate(-0.57)"/>
    <path class="cls-1" d="M19.74,21.56C18,15.17,14.45,8.84,11.55,2.89c-.33-.68-1.29-.06-1,.6,1.55,3.31,3,6.65,4.46,10,1.2,2.83,2.16,5.84,3.57,8.56C18.94,22.72,19.92,22.23,19.74,21.56Z" transform="translate(-0.57)"/>
    <path class="cls-1" d="M24.93,21.93C23.8,18.39,21.81,15,20.22,11.64L15,.6c-.27-.58-1.09,0-.84.52C15.9,5,17.62,8.78,19.35,12.62c1.45,3.23,2.67,6.77,4.54,9.78A.58.58,0,0,0,24.93,21.93Z" transform="translate(-0.57)"/>
    <path class="cls-1" d="M31.22,22.46C28.55,15.19,24.58,8.17,21,1.34c-.31-.58-1.16,0-.86.53,3.55,6.93,6.45,14.19,10,21.08A.61.61,0,0,0,31.22,22.46Z" transform="translate(-0.57)"/>
    <path class="cls-1" d="M36.5,21A150.55,150.55,0,0,0,28.42,5c-.35-.63-1.28,0-.94.59,2.81,5.24,5.21,10.67,7.91,16C35.7,22.14,36.76,21.67,36.5,21Z" transform="translate(-0.57)"/>
    <path class="cls-1" d="M38.8,17.29a14.56,14.56,0,0,0-1.67-3.66c-.69-1.28-1.45-2.53-2.25-3.76-.39-.6-1.34,0-1,.59.74,1.17,1.43,2.35,2.07,3.57a30.21,30.21,0,0,0,1.84,3.69A.53.53,0,0,0,38.8,17.29Z" transform="translate(-0.57)"/>
    <path class="cls-2" d="M38,11.65a7.64,7.64,0,0,0-1.88-1.84,20.26,20.26,0,0,0-2.28-1c-1-.52-1.48-1.82-2.31-2.6a8.1,8.1,0,0,0-7-2,10.18,10.18,0,0,0-15.63-1A11.16,11.16,0,0,0,7.15,5.68c-.29.55-.49,1.13-.75,1.69A3.34,3.34,0,0,1,4.88,8.89c-3.26,2-5.48,6.18-3.64,9.92,2,4.05,7.81,4.11,11.67,4.19l6.73.14c1.48.09,3,.09,4.45.06H26.8a50.61,50.61,0,0,0,5.64.08,7.6,7.6,0,0,0,7-6.61,7.36,7.36,0,0,0-1.38-5ZM29.84,24.77a38.82,38.82,0,0,1-2.72,5c-.55.85-1.19,1.64-1.75,2.48-.39.59-.51,1.41-1,1.89s.15,1.11.64.79a2.29,2.29,0,0,0,.9-1.28,18.45,18.45,0,0,1,1.77-2.73,35.75,35.75,0,0,0,3.06-5.64c.26-.59-.61-1.09-.88-.49Zm-8,4.92c-.89,1.79-1.85,3.53-2.88,5.24a20.52,20.52,0,0,0-2.49,4.48.48.48,0,0,0,.89.35c1.81-3.17,3.77-6.27,5.37-9.57.29-.59-.6-1.08-.89-.5Zm-2.07-4.84c.24-.62,1.24-.38,1,.25-1.29,3.4-3.54,6.6-5.4,9.72a.52.52,0,0,1-.91-.51c1.69-3.15,4-6.12,5.3-9.46Zm-7.41,5C10.49,32.94,8.45,36,6.86,39.25a.49.49,0,0,0,.85.48c2-3,3.67-6.3,5.47-9.43.33-.56-.55-1-.87-.48ZM10,24.75h0c.17-.56,1.06-.34.89.23A16.75,16.75,0,0,1,8.3,29.24a44,44,0,0,0-2.87,5.21c-.27.56-1.09.09-.84-.47a33.49,33.49,0,0,1,2.62-4.77c.93-1.45,2.23-2.78,2.73-4.46Zm28.16-7.82a6.44,6.44,0,0,1-2.76,4.14c-1.63,1.11-3.46,1.11-5.36,1l-.59,0c-4.89-.22-9.78-.26-14.67-.36-4.3-.08-13.34.3-12.81-6.23a6.7,6.7,0,0,1,1.72-3.81A15.68,15.68,0,0,1,6.51,9.49,4.71,4.71,0,0,0,7.94,7.25a10.58,10.58,0,0,1,2.25-3.38A8.92,8.92,0,0,1,23.67,5.26a.67.67,0,0,0,.76.29,6.75,6.75,0,0,1,5.1.75,6.53,6.53,0,0,1,2,1.86,5.42,5.42,0,0,0,1,1.37,10.1,10.1,0,0,0,2.14.9,6,6,0,0,1,1.86,1.41A6.13,6.13,0,0,1,38.11,16.93Z" transform="translate(-0.57)"/>
  </g>
</svg>
