<svg id="레이어_1" data-name="레이어 1" xmlns="http://www.w3.org/2000/svg" viewBox="0 0 24.27 40">
  <defs>
    <style>
      .cls-1 {
        fill: #1e1e29;
      }

      .cls-2 {
        fill: #e8e8e8;
      }

      .cls-3 {
        fill: #313142;
      }

      .cls-4 {
        opacity: 0.1;
      }

      .cls-5 {
        fill: #f5f5f5;
      }

      .cls-6 {
        fill: #2b221c;
      }

      .cls-7 {
        fill: #ffcb9e;
      }

      .cls-8 {
        fill: #bf3c1b;
      }

      .cls-17, .cls-8, .cls-9 {
        opacity: 0.3;
      }

      .cls-9 {
        fill: #c94614;
      }

      .cls-10, .cls-20 {
        fill: #45362e;
      }

      .cls-11 {
        fill: #f7a286;
      }

      .cls-12 {
        fill: #8f3935;
      }

      .cls-13 {
        fill: #fff9f0;
      }

      .cls-14 {
        fill: #e8dac5;
      }

      .cls-15 {
        fill: #ffa073;
      }

      .cls-16 {
        fill: #261b18;
      }

      .cls-17 {
        fill: #b54d26;
      }

      .cls-18 {
        fill: #ffdfc2;
      }

      .cls-19 {
        fill: #e6d2c3;
      }

      .cls-19, .cls-20 {
        opacity: 0.7;
      }
    </style>
  </defs>
  <title>1</title>
  <g>
    <path class="cls-1" d="M10.57,35.81A41.7,41.7,0,0,0,10.63,40h3.7s.21-5,1.74-5.78l-1.3-2.9C11.81,32.29,10.74,34.12,10.57,35.81Z" transform="translate(-8.16 0)"/>
    <path class="cls-1" d="M27.3,31.32,26,34.22C27.53,35,27.73,40,27.73,40h3.71c0-.17.17-3,0-4.19C31.33,34.12,30.25,32.29,27.3,31.32Z" transform="translate(-8.16 0)"/>
    <g>
      <path class="cls-2" d="M26.31,30.82a11.62,11.62,0,0,0-10.41.27c-2.74,1.79-2.47,4.63-1.8,8.91H27.93C28.67,35.79,29,32.27,26.31,30.82Z" transform="translate(-8.16 0)"/>
      <g>
        <path class="cls-1" d="M26.18,30.52c-.72,2.34-1.6,6-2.33,9.48H28.3c.59-3.49,1.32-7.1,1.11-7.65C29.13,31.62,26.18,30.52,26.18,30.52Z" transform="translate(-8.16 0)"/>
        <path class="cls-3" d="M26.1,30s-.5,3.32-.62,3.77,4.36-.89,4.4-1.34S28.88,30.18,26.1,30Z" transform="translate(-8.16 0)"/>
        <path class="cls-3" d="M25.72,32.49a43.65,43.65,0,0,0-2,7.51h2.68c1.3-2.58,2.43-4.77,2.51-5C29.07,34.47,26.07,31.88,25.72,32.49Z" transform="translate(-8.16 0)"/>
      </g>
      <g>
        <path class="cls-1" d="M12.6,32.35c-.21.55.51,4.16,1.11,7.65h4.45c-.74-3.51-1.62-7.14-2.34-9.48C15.82,30.52,12.88,31.62,12.6,32.35Z" transform="translate(-8.16 0)"/>
        <path class="cls-3" d="M12.13,32.42c0,.45,4.5,1.8,4.39,1.34S15.9,30,15.9,30C13.12,30.18,12.09,32,12.13,32.42Z" transform="translate(-8.16 0)"/>
        <path class="cls-3" d="M13.12,35c.09.23,1.22,2.42,2.51,5h2.69a44.29,44.29,0,0,0-2-7.51C15.93,31.88,12.94,34.47,13.12,35Z" transform="translate(-8.16 0)"/>
      </g>
      <path class="cls-4" d="M20.48,26.4c-6.19,0-6.17,9,.53,9C27.27,35.38,29.08,26.4,20.48,26.4Z" transform="translate(-8.16 0)"/>
      <path class="cls-5" d="M20.44,26.1c-6.61,0-6.59,8.5.56,8.5C27.68,34.6,29.62,26.1,20.44,26.1Z" transform="translate(-8.16 0)"/>
    </g>
    <g>
      <path class="cls-6" d="M30.34,3.39C27-.5,21.2-1,14.65,1.69A11.78,11.78,0,0,0,18,1.62c-3.45,1.51-7.52,3.52-8.48,7.54-1.09,4.6-.32,10,2.23,10.4,2.19.32,5-4.5,6.46-4,3.15,1,11,.08,13.29-3.17a7.07,7.07,0,0,0,.59-5.67A8.33,8.33,0,0,0,30.34,3.39Z" transform="translate(-8.16 0)"/>
      <path class="cls-7" d="M20,5.38c-5.36,1-9.27,8.59-8.42,15.85.63,5.43,4.68,11.46,11,11.13s9.73-8.25,9-14.93C30.79,10.16,27.48,4.05,20,5.38Z" transform="translate(-8.16 0)"/>
      <path class="cls-8" d="M27,6.83a24.3,24.3,0,0,0-6.34-1.1c-1.91-.06-4-.21-5.79.55-1,.41-2.2,1-2.59,2-.31.87-.69,2-.22,2.78,1,1.63,3,.7,3.76.32,1.66-.82,9.09-.1,12.57,0,1.44,0,3.53-.19,3-2.16C30.9,7.65,28.35,7.25,27,6.83Z" transform="translate(-8.16 0)"/>
      <path class="cls-7" d="M9.75,18.18c-2.63.68-1.65,4.54.47,5.35a5.14,5.14,0,0,0,2.12.28.43.43,0,0,1,0-.07c.32-.49-.06-3.31-.21-3.84C11.79,18.57,11,17.85,9.75,18.18Z" transform="translate(-8.16 0)"/>
      <path class="cls-9" d="M10.64,19.61c-.58-.28-2.06.18-1.39,1.35.38-1.06,1-.35.91.41-.08.51-.62.51-.09,1.18.29.36.88.24,1.19.05C12.22,22,11.36,20,10.64,19.61Z" transform="translate(-8.16 0)"/>
      <path class="cls-6" d="M28.41,3.47c-4-2.2-10.21-1.77-13.65.7s-4.47,7.11-4.55,11.24a4,4,0,0,0,1.38,3.37c1.23,1.1,1.17-2.16,1.31-3.41.31-2.77,1.48-5,4.52-5,2,0,10-.27,11.82.41,1,.37,2.36.93,2.6-.7a6.12,6.12,0,0,0-1.39-5A7.42,7.42,0,0,0,28.41,3.47Z" transform="translate(-8.16 0)"/>
      <path class="cls-10" d="M29.32,4.17a10.08,10.08,0,0,0-5.67-2.88,11.17,11.17,0,0,0-4.27.31,13.76,13.76,0,0,1,1.51.66A22.22,22.22,0,0,0,16.55,3.6c-.44.18-4,2.53-4,2.53a4.56,4.56,0,0,0,3.2.15,10.83,10.83,0,0,1,4.84,0c1.5.37,2.84,1.16,4.34,1.54,0-.68-.58-1.29-.86-1.76.86,0,4.1,2.16,4.77,2.72a26.07,26.07,0,0,1-1-2.44c.84.14,2.71,1.88,3.27,2.87a7.76,7.76,0,0,0-.18-2.47A6,6,0,0,0,29.32,4.17Z" transform="translate(-8.16 0)"/>
    </g>
    <g>
      <g>
        <path class="cls-11" d="M27.24,23.69c-1.16.1-2.45.12-4.08.17A43.67,43.67,0,0,1,18,24c-.77-.06-1.28.57-.93,1,2.26,2.79,3.75,3.05,5.72,3.15,2.84.14,3.95-1.16,4.38-2.45A4,4,0,0,1,28,24.57C28.48,24.06,28,23.63,27.24,23.69Z" transform="translate(-8.16 0)"/>
        <path class="cls-12" d="M17.31,24.23a6.61,6.61,0,0,0,5.28,2.86c2.26,0,3.75-.65,4.17-1.61a2.86,2.86,0,0,1,1.42-1.43A25.37,25.37,0,0,1,17.31,24.23Z" transform="translate(-8.16 0)"/>
        <path class="cls-13" d="M18.62,24.47s.11.85,1.36,1.18a13.18,13.18,0,0,0,5.14.17,2.71,2.71,0,0,0,1.81-1.52A27.24,27.24,0,0,1,18.62,24.47Z" transform="translate(-8.16 0)"/>
        <path class="cls-13" d="M23.48,25.94a7.7,7.7,0,0,1-3.76-.49c-.58-.33-.63,0-.51.25,0,0,.52,1.17,3.21,1.43S26.33,26,26,25.72,25,25.88,23.48,25.94Z" transform="translate(-8.16 0)"/>
        <path class="cls-14" d="M18.62,24.47a1.3,1.3,0,0,0,.32.6s6-.49,7.49,0a2.91,2.91,0,0,0,.5-.75A31.62,31.62,0,0,1,18.62,24.47Z" transform="translate(-8.16 0)"/>
        <path class="cls-14" d="M20.2,25.62a6.38,6.38,0,0,0,4.76.16A9.53,9.53,0,0,1,20.2,25.62Z" transform="translate(-8.16 0)"/>
      </g>
      <path class="cls-15" d="M30.5,20.56a2.45,2.45,0,0,0-1.94-.79c-.83,0-2,.24-1.24,1.46.38.66,3.7,1.22,3.35-.26A1.15,1.15,0,0,0,30.5,20.56Z" transform="translate(-8.16 0)"/>
      <path class="cls-15" d="M18,20.17a2.51,2.51,0,0,0-2.18-.3c-.86.19-1.93.75-.88,1.81.55.56,4.07.27,3.33-1.15A1.41,1.41,0,0,0,18,20.17Z" transform="translate(-8.16 0)"/>
      <path class="cls-16" d="M16.79,16.59c-1.36-.62-2.27,1.82-1.35,2.64a1.94,1.94,0,0,1,1.36.14A1.69,1.69,0,0,0,16.79,16.59Z" transform="translate(-8.16 0)"/>
      <path class="cls-17" d="M23.25,21.13c-.8,0-1.11-.38-1.68-.06s.21,1.42,1.64,1.4,2.05-1,1.76-1.37S24.15,21.13,23.25,21.13Z" transform="translate(-8.16 0)"/>
      <path class="cls-18" d="M23.1,18.09c-1.51-.16-1.68,3-1.34,3.32.83.69,2.61.25,3.14-.28C25.1,20.92,24.54,18.24,23.1,18.09Z" transform="translate(-8.16 0)"/>
      <path class="cls-16" d="M30.05,16.75c-1.39-.88-2.47,1.82-1.33,2.61a1.81,1.81,0,0,1,1.46,0C30.75,18.77,30.79,17.21,30.05,16.75Z" transform="translate(-8.16 0)"/>
      <path class="cls-19" d="M16.12,17.18c-.56.18-.16,1.28.4.89C16.91,17.79,16.62,17,16.12,17.18Z" transform="translate(-8.16 0)"/>
      <path class="cls-19" d="M29.32,17.2c-.55.1-.31,1.2.26.9C30,17.88,29.81,17.11,29.32,17.2Z" transform="translate(-8.16 0)"/>
      <path class="cls-6" d="M18.25,14.15A6,6,0,0,0,15,13.61a1.29,1.29,0,0,0-1.14,1.77c.09.33.27-.43,1.92-.46s2.91,1.06,3.16.57S18.72,14.36,18.25,14.15Z" transform="translate(-8.16 0)"/>
      <path class="cls-6" d="M30.41,13.89a6.15,6.15,0,0,0-3.28.42c-.47.2-1,.69-.73,1.32s1.68-.54,3.19-.46,1.79.87,1.9.54A1.31,1.31,0,0,0,30.41,13.89Z" transform="translate(-8.16 0)"/>
      <path class="cls-6" d="M27.32,22.5c-1.44-1.05-2.27-.61-4-.43-2.31,0-3.16-.75-4.95,1.15A2.86,2.86,0,0,1,14.27,23c.3,3.46,5.58,3.14,6.92,1.38A1.57,1.57,0,0,0,23.46,24c.48.54,2,1.62,2.57.6a2.5,2.5,0,0,0,1,.61,2.77,2.77,0,0,0,3.8-2.16C29.29,24,28.69,23.51,27.32,22.5Z" transform="translate(-8.16 0)"/>
      <path class="cls-20" d="M26.31,22.39a4.37,4.37,0,0,0-2.51-.1,7.7,7.7,0,0,1-2.14-.11,2.17,2.17,0,0,0-1.54.19c-.35.22-1.7,1.09-1.36,1.54.19.24.84.25,1.11.23a2.57,2.57,0,0,0,1.45-.65c.3.38.48.67,1,.57a1.19,1.19,0,0,0,.91-.66c.2.27,1.72,1.07,1.82.42a3.8,3.8,0,0,0,1.64.15c.25,0,.89-.17,1-.47a.34.34,0,0,0,0-.24C27.56,22.89,26.66,22.55,26.31,22.39Z" transform="translate(-8.16 0)"/>
    </g>
  </g>
</svg>
