<svg id="레이어_1" data-name="레이어 1" xmlns="http://www.w3.org/2000/svg" viewBox="0 0 40 39.97">
  <defs>
    <style>
      .cls-1 {
        fill: #576d64;
      }

      .cls-1, .cls-2, .cls-3 {
        fill-rule: evenodd;
      }

      .cls-2 {
        fill: #86bcb6;
      }
    </style>
  </defs>
  <title>1</title>
  <g>
    <polygon class="cls-1" points="10.49 14.43 14.17 18.23 8.94 23.57 6.19 27.74 6.64 31.35 9.2 33.39 11.92 33.39 15.76 31.06 21.19 25.58 24.17 27.74 24.48 29.66 21.48 32.74 15.09 38.5 11.38 39.23 7.88 38.5 4.54 37.36 1.93 33.88 0.83 29.98 0.83 26.83 2.46 22.99 5.67 19.54 10.49 14.43"/>
    <polygon class="cls-2" points="14.17 11.22 18.2 14.55 23.73 8.72 27.86 6.14 30.52 6.5 32.81 8.36 33.67 10.35 32.81 13.06 30.84 15.64 25.21 21.54 29.48 25.58 36.76 17.8 39.39 12.1 39.1 8.66 37.7 5 35.02 2.47 30.22 0.9 26.78 0.9 21.19 3.7 14.17 11.22"/>
    <path class="cls-1" d="M3.42,21.37a104.74,104.74,0,0,0-2,11.79c-.08.84,1.36,1,1.48.17.59-3.89,1-7.8,1.62-11.68C4.64,20.93,3.58,20.64,3.42,21.37Z" transform="translate(0 0)"/>
    <path class="cls-1" d="M6.43,17.84c-.86,5.91-1.88,11.79-3,17.66-.17.9,1.21,1.25,1.38.35,1.13-5.93,2-11.9,2.59-17.91C7.45,17.4,6.51,17.29,6.43,17.84Z" transform="translate(0 0)"/>
    <path class="cls-1" d="M8.93,16.06c-.1,1.38-.21,2.76-.37,4.14a10.75,10.75,0,0,0-.17,3,.54.54,0,0,0,1,.11,9.76,9.76,0,0,0,.46-3.23c.1-1.35.16-2.69.22-4C10.09,15.3,9,15.34,8.93,16.06Z" transform="translate(0 0)"/>
    <path class="cls-1" d="M7.18,32.68c-.16.87-.3,1.75-.4,2.63a6,6,0,0,0,0,2.45.57.57,0,0,0,1.1,0,7.16,7.16,0,0,0,.24-2.17c.07-.87.17-1.72.31-2.57S7.34,31.86,7.18,32.68Z" transform="translate(0 0)"/>
    <path class="cls-1" d="M11.59,15.9l-.28,1.91a7.27,7.27,0,0,0-.19,1.79.56.56,0,0,0,1.1.13A7.51,7.51,0,0,0,12.5,18c.08-.59.15-1.18.22-1.77S11.7,15.15,11.59,15.9Z" transform="translate(0 0)"/>
    <path class="cls-1" d="M10.28,33.81c-.29,1.66-.88,3.73-.62,5.41a.59.59,0,0,0,1.15.13A11.22,11.22,0,0,0,11.07,37c.08-1,.18-1.92.31-2.88C11.47,33.38,10.41,33.08,10.28,33.81Z" transform="translate(0 0)"/>
    <path class="cls-1" d="M13.94,32.59c-.2,1.08-.37,2.16-.5,3.25a6.93,6.93,0,0,0-.07,2.72c.12.41.8.54,1,.1a7.8,7.8,0,0,0,.36-2.46c.08-1.11.22-2.22.38-3.32.1-.74-1-1.05-1.16-.29Z" transform="translate(0 0)"/>
    <path class="cls-1" d="M16.87,29.52c-.18,2.12-.42,4.25-.48,6.37,0,1,1.46.94,1.54,0,.19-2.11.2-4.24.27-6.36C18.23,28.62,16.94,28.68,16.87,29.52Z" transform="translate(0 0)"/>
    <path class="cls-1" d="M20.94,26.76c-.08-.8-1.32-.8-1.27,0,.12,2.11-.14,4.27,0,6.37A.67.67,0,0,0,21,33.3,22.07,22.07,0,0,0,20.94,26.76Z" transform="translate(0 0)"/>
    <path class="cls-1" d="M24.12,28.84,24,27.26a.59.59,0,0,0-1.18,0l.06,1.58a5.78,5.78,0,0,0,.13,1.5.56.56,0,0,0,1.07,0A5.38,5.38,0,0,0,24.12,28.84Z" transform="translate(0 0)"/>
    <path class="cls-2" d="M18.47,11.72l-.15-3.18a.57.57,0,0,0-1.14,0c0,1.06,0,2.12,0,3.18a10.5,10.5,0,0,0,.17,2.86.56.56,0,0,0,1.07,0A10.22,10.22,0,0,0,18.47,11.72Z" transform="translate(0 0)"/>
    <path class="cls-2" d="M21.88,8.19C21.77,7.12,21.62,6,21.47,5c-.11-.71-1.23-.71-1.14,0,.13,1.06.25,2.14.33,3.21a12.22,12.22,0,0,0,.32,2.9.52.52,0,0,0,1,0A9.49,9.49,0,0,0,21.88,8.19Z" transform="translate(0 0)"/>
    <path class="cls-2" d="M24.78,2.13c-.07-.67-1.1-.66-1.05,0,.07,1,.13,2.05.17,3.07A12.27,12.27,0,0,0,24.09,8a.53.53,0,0,0,1,0C25.47,6.17,25,3.94,24.78,2.13Z" transform="translate(0 0)"/>
    <path class="cls-2" d="M26.83,21.68c0-.36,0-.72,0-1.08a.53.53,0,0,0-1.06,0l0,1.08a2,2,0,0,0,.13,1,.51.51,0,0,0,.87,0A2.18,2.18,0,0,0,26.83,21.68Z" transform="translate(0 0)"/>
    <path class="cls-2" d="M28.44,3.69c0-.91-.08-1.82-.14-2.73a.53.53,0,0,0-1.06,0c0,.91.05,1.82.05,2.73a5.33,5.33,0,0,0,.2,2.22.45.45,0,0,0,.77,0A4.66,4.66,0,0,0,28.44,3.69Z" transform="translate(0 0)"/>
    <path class="cls-2" d="M30.16,21.4c-.05-1.34-.11-2.68-.19-4a.55.55,0,0,0-1.09,0c0,1.25,0,2.5,0,3.75A8.36,8.36,0,0,0,29,24.51c.14.37.74.54.94.1A7.36,7.36,0,0,0,30.16,21.4Z" transform="translate(0 0)"/>
    <path class="cls-2" d="M32.14,4.23c-.12-1.1-.26-2.18-.4-3.27-.08-.56-.93-.56-.9,0,.06,1.09.12,2.18.19,3.27a9.79,9.79,0,0,0,.37,2.92.47.47,0,0,0,.9,0A9.59,9.59,0,0,0,32.14,4.23Z" transform="translate(0 0)"/>
    <path class="cls-2" d="M33.1,13.9c-.08-.72-1.19-.71-1.14,0,.09,1.3.14,2.59.15,3.89a14.07,14.07,0,0,0,.17,3.5.61.61,0,0,0,1.17,0C34,19.06,33.34,16.17,33.1,13.9Z" transform="translate(0 0)"/>
    <path class="cls-2" d="M35.22,2.13c-.09-.53-.92-.54-.86,0,.52,4.88.55,9.94,1.37,14.77.11.6,1,.38,1-.16.17-4.82-.79-9.87-1.53-14.63Z" transform="translate(0 0)"/>
    <path class="cls-2" d="M38.35,5.14c-.12-.53-.89-.28-.8.24.49,2.65.48,5.42,1,8,.12.54.85.33.89-.14C39.68,10.66,38.91,7.68,38.35,5.14Z" transform="translate(0 0)"/>
    <path class="cls-3" d="M36.85,3a11,11,0,0,0-12.28-2c-4.42,2.08-7.24,6.4-10.77,9.6A.75.75,0,0,0,14,11.82a17.77,17.77,0,0,1,3.89,3.5A.76.76,0,0,0,19,15.14c.25-.47.49-.92.74-1.35,1.64-1.64,3.26-3.3,4.95-4.89,1.88-1.77,4.58-3.1,6.81-1a4,4,0,0,1,1.14,3.67c-.3,1.52-1.57,2.58-2.59,3.65L24.52,21a.68.68,0,0,0,0,.95,29.74,29.74,0,0,1,4.12,4.2.71.71,0,0,0,1.11.12c2.85-3.72,7.08-6.46,9.14-10.76A10.94,10.94,0,0,0,36.85,3ZM21.39,24.9c1.39.75,4.3,2.7,3.75,4.6-.32,1.09-1.6,1.93-2.37,2.7Q21,34,19.19,35.81a13.7,13.7,0,0,1-5.13,3.72,10.18,10.18,0,0,1-6.43-.18A11.27,11.27,0,0,1,.18,30.77C-.66,26,1.56,22.3,4.85,19.1L8,16c.61-.59,1.43-1.78,2.38-1.89.74-.08,1.2.49,1.68,1C13,16.05,14,17,14.87,18a.61.61,0,0,1,0,.85c-1.49,1.46-3,2.92-4.45,4.4a.51.51,0,0,1-.38.16l-.94,1C7.36,26.35,6,29,7.88,31.36,10,34,13,32.6,15,30.69s3.7-3.77,5.53-5.66a.74.74,0,0,1,.86-.12Zm-.09,6.77c-1.63,1.64-3.19,3.41-5,4.9-3.79,3.2-9.27,2.19-12.49-1.35A10,10,0,0,1,3.6,22.34a59.4,59.4,0,0,1,4.93-5A11.38,11.38,0,0,1,9.89,16c.79-.53.62-.5,1.31,0a15.63,15.63,0,0,1,2.19,2.19C9.86,21.62,2.22,27.28,7,32.52s10.92-2.59,14.21-6.12a5.32,5.32,0,0,1,2.33,2.12c.41,1.11-1.48,2.42-2.21,3.15ZM36.89,16.18c-2.07,3.22-5.23,5.55-7.65,8.48A31.35,31.35,0,0,0,26,21.4l3.59-3.73a33.12,33.12,0,0,0,3.56-3.84,5.35,5.35,0,0,0-.67-6.92,5.45,5.45,0,0,0-6.41-.6,16.07,16.07,0,0,0-3.36,2.86l-3.05,3.05a9.36,9.36,0,0,0-1.34,1.33,18.13,18.13,0,0,0-2.78-2.47c2.68-2.58,4.95-5.67,8.05-7.76,3.8-2.58,8.91-2.6,12.31.74A9.62,9.62,0,0,1,36.89,16.18Z" transform="translate(0 0)"/>
    <path class="cls-1" d="M22.06,18.23" transform="translate(0 0)"/>
  </g>
</svg>
