<svg id="레이어_1" data-name="레이어 1" xmlns="http://www.w3.org/2000/svg" viewBox="0 0 23.32 40">
  <defs>
    <style>
      .cls-1 {
        fill: #bcceeb;
      }

      .cls-2 {
        opacity: 0.1;
      }

      .cls-3 {
        fill: #cbdaf2;
      }

      .cls-4 {
        fill: #f7b07c;
      }

      .cls-5 {
        fill: #f2f2f2;
      }

      .cls-6 {
        fill: #3d2518;
      }

      .cls-7 {
        fill: #977053;
      }

      .cls-8 {
        fill: #ffbc82;
      }

      .cls-9 {
        fill: #bf541b;
        opacity: 0.3;
      }

      .cls-10 {
        fill: #b54319;
        opacity: 0.5;
      }

      .cls-11 {
        fill: #82572e;
      }

      .cls-12 {
        fill: #202930;
      }

      .cls-13 {
        fill: #ffd4ad;
      }

      .cls-14 {
        fill: #c3cee6;
        opacity: 0.7;
      }

      .cls-15 {
        fill: #2b221c;
      }
    </style>
  </defs>
  <title>1</title>
  <g>
    <g>
      <path class="cls-1" d="M14.32,32.75c-1.1,1.53-.9,4.5-.37,7.25H27.37c.48-2.56.71-5.36,0-7.15C25.91,29.41,17,29.05,14.32,32.75Z" transform="translate(-8.34)"/>
      <path class="cls-2" d="M16.13,32.93a6.49,6.49,0,0,0,2.74,3.92l1.94-2.13,2.07,2c2-2,2.41-2.42,2.56-4.17S15.59,30.5,16.13,32.93Z" transform="translate(-8.34)"/>
      <path class="cls-3" d="M16.19,31.08c-1,2.84,2.54,5.14,2.54,5.14l2.08-1.5,2,1.41s3.85-2.3,2.39-5.6C23.84,27.56,17.3,27.8,16.19,31.08Z" transform="translate(-8.34)"/>
      <path class="cls-4" d="M19.25,27.7A3.13,3.13,0,0,0,17,30.59a2.52,2.52,0,0,0,.63,2.18,4.28,4.28,0,0,0,1.7,1c.47.15,1.3.73,1.45.74s.33-.25.77-.49a4.43,4.43,0,0,0,1.94-1.56c.52-1.08,1-3.22,0-4.06A5.58,5.58,0,0,0,19.25,27.7Z" transform="translate(-8.34)"/>
      <path class="cls-1" d="M10,40h4.3s.2-4.76,1.74-5.53l-.22-3C11.49,32.46,10.16,36.15,10,40Z" transform="translate(-8.34)"/>
      <path class="cls-1" d="M25.84,31.42l-.22,3c1.54.77,1.75,5.53,1.75,5.53h4.29C31.46,36.15,30.13,32.46,25.84,31.42Z" transform="translate(-8.34)"/>
      <path class="cls-5" d="M21.05,36.38a.41.41,0,1,0,.41.41A.4.4,0,0,0,21.05,36.38Z" transform="translate(-8.34)"/>
      <path class="cls-5" d="M21.05,38.42a.4.4,0,0,0-.4.41.41.41,0,1,0,.81,0A.41.41,0,0,0,21.05,38.42Z" transform="translate(-8.34)"/>
    </g>
    <g>
      <path class="cls-6" d="M15,21.18c1.63-.38,3.26-.72,4.89-1.06,2.69-.55,5.62.08,8.33.38,2.12.24,1.39-1.77,1.25-3.51-.21-2.58.57-3.3.65-4.62.41-6.32-2.73-9.76-10.58-9.47C16.12,3,12.56,4.58,11,7.7A9.72,9.72,0,0,0,10,11.78c-.09,3.19-.5,6.14,1,9.14C11.75,22.5,13.63,21.48,15,21.18Z" transform="translate(-8.34)"/>
      <path class="cls-7" d="M28.29,19a1.54,1.54,0,0,0-1.16-.39c-.2-.3-.7-3.42-.1-8.16,2.39.22,4.12.33,3.41,10.18a3.52,3.52,0,0,1-1.54-.29A2.94,2.94,0,0,0,28.29,19Z" transform="translate(-8.34)"/>
      <path class="cls-8" d="M11.52,21.69c.47,5.13,4.15,10.89,10.06,10.72s9.34-7.54,8.83-13.85C29.85,11.71,26.88,5.89,19.79,7,14.73,7.74,10.88,14.85,11.52,21.69Z" transform="translate(-8.34)"/>
      <path class="cls-9" d="M20.2,12.64c-1.38-.34-2.77-1-4.16-.86A2.32,2.32,0,0,0,14,13.29c-.48,1.06-.9,2.65-2.44,2.47-1.32-.15-1.31-1.83-1.14-2.82a6.32,6.32,0,0,1,4.21-5.43,12.68,12.68,0,0,1,5.55-.41,23.18,23.18,0,0,1,8.33,2.13c.77.35,1.5,1.7.34,2.35a6.78,6.78,0,0,1-1.86.49c-.81.16-1.59.5-2.43.63a12.41,12.41,0,0,1-3.44.12A7.17,7.17,0,0,1,20.2,12.64Z" transform="translate(-8.34)"/>
      <path class="cls-8" d="M10.21,23.83a4.83,4.83,0,0,0,2,.3l.05-.06c.31-.46,0-3.11-.12-3.61-.33-1.27-1-2-2.23-1.68C7.39,19.36,8.23,23,10.21,23.83Z" transform="translate(-8.34)"/>
      <path class="cls-10" d="M11.2,23c.92-.53.16-2.49-.51-2.83s-1.94.12-1.34,1.24c.39-1,1-.31.85.41-.08.47-.6.46-.11,1.1C10.35,23.24,10.91,23.14,11.2,23Z" transform="translate(-8.34)"/>
      <path class="cls-6" d="M27.67,11.49c-.77.16-1.57.26-2.17.43a8,8,0,0,1-4.63.15,14.54,14.54,0,0,0-4.34-1A2.91,2.91,0,0,0,14,12.15c-.74.89-2.84-.45-3.21-1.05-.49-.8.27-2.69.67-3.47A6.34,6.34,0,0,1,13.53,4.8a42.76,42.76,0,0,0,5.34-3.59,1.72,1.72,0,0,0,0,.54A3.76,3.76,0,0,0,21.05.67c0,.31,0,.61,0,.92s1.24-.45,1.36-.53A19.42,19.42,0,0,1,24.21,0a12.46,12.46,0,0,0-.28,1.6,6.18,6.18,0,0,0,2.54-1,7.24,7.24,0,0,1-.4,1.57,6.93,6.93,0,0,0,2.11-.67c-.05,1.14-.86,1.74-1.21,2.77.69.17,2.22-.09,2.81.28A8.94,8.94,0,0,0,28.59,6,4.83,4.83,0,0,1,30.72,7.1c-.71.14-.74,1.76-.85,2.8S28.61,11.28,27.67,11.49Z" transform="translate(-8.34)"/>
      <path class="cls-7" d="M11.39,19.12a1.5,1.5,0,0,0-1.16-.39c-.2-.3-.7-3.42-.1-8.16A7.18,7.18,0,0,0,14,12.15c-.65.95-1.23,5.45-.9,8.65A1.58,1.58,0,0,1,12,20.46,2.94,2.94,0,0,0,11.39,19.12Z" transform="translate(-8.34)"/>
      <path class="cls-11" d="M18.24,2.28c-.2,1.33,1.64-.37,2.08-.67.08.32.17.7.27,1A9.37,9.37,0,0,0,23.23.92c.08.48-.1,1,0,1.56.89,0,1.66-.8,2.33-1.24a5.52,5.52,0,0,1-.25,1.46,7.38,7.38,0,0,0,2.15-.63A14,14,0,0,1,26,5c.94.09,1.89-.64,2.84-.5a4.2,4.2,0,0,0-1,1.89A5.71,5.71,0,0,1,30.11,7c-.3.32-.75.6-.88,1a2.88,2.88,0,0,0,.59,0,14,14,0,0,1-.56,1.53,5.5,5.5,0,0,1-1.6,1.4,5.53,5.53,0,0,0,.7-1.55c-.65.37-3.29,1.74-3.95,2.05,1-.62,3.77-2.64,3.87-4-1.06.36-5.53,3-6.44,3.35a52.84,52.84,0,0,0,5-4.75c-1.79.37-5.49,3.77-7.34,4.1.87-.5,5.05-4.19,5-5.39-.83,0-8.45,4.58-8.44,4.57.64-.88,4.9-3.17,4.74-4.37C20.76,4.46,15.9,7,15.59,7.16c0-.31,3.71-2.87,3.37-2.8-5.46,1.17-7,3.3-6.34,2.2C13.76,4.66,16.73,3.83,18.24,2.28Z" transform="translate(-8.34)"/>
    </g>
    <g>
      <path class="cls-12" d="M17.38,20.1a1.84,1.84,0,0,0-1.28-.17c-.85-.79.06-3.06,1.33-2.45A1.6,1.6,0,0,1,17.38,20.1Z" transform="translate(-8.34)"/>
      <path class="cls-10" d="M24.29,22c-.3-.41-.77,0-1.61,0s-1-.38-1.59-.09.17,1.34,1.51,1.35S24.56,22.4,24.29,22Z" transform="translate(-8.34)"/>
      <path class="cls-13" d="M23.72,20c-.27-.82-.49-2.61-1.19-2.58s-.85,1.93-1.12,2.82-.46,1.74-.15,2a2.75,2.75,0,0,0,3-.2C24.42,21.87,24,20.94,23.72,20Z" transform="translate(-8.34)"/>
      <path class="cls-12" d="M28.61,17.87a1.9,1.9,0,0,1,.06,2.49,1.69,1.69,0,0,0-1.36-.06C26.25,19.53,27.32,17,28.61,17.87Z" transform="translate(-8.34)"/>
      <path class="cls-14" d="M17,17.87c.48-.14.73.59.35.85S16.42,18,17,17.87Z" transform="translate(-8.34)"/>
      <path class="cls-14" d="M28.08,18.13c.46-.07.62.65.23.85C27.76,19.25,27.56,18.21,28.08,18.13Z" transform="translate(-8.34)"/>
      <path class="cls-15" d="M15,16.35a2.26,2.26,0,0,1-.58.09A2.3,2.3,0,0,1,16.59,15a17.7,17.7,0,0,0,1.91.32c.26,0,.85-.17,1.07,0a1.62,1.62,0,0,1,.26.92c0,.62-2,.17-2.36.13a11.55,11.55,0,0,0-1.64-.23A4.08,4.08,0,0,0,15,16.35Z" transform="translate(-8.34)"/>
      <path class="cls-15" d="M30,16.38a2.87,2.87,0,0,0,.57.11A2.27,2.27,0,0,0,28.49,15a17.53,17.53,0,0,1-1.91.26c-.27,0-.85-.2-1.08,0a1.67,1.67,0,0,0-.29.91c0,.62,2,.23,2.37.2a11.12,11.12,0,0,1,1.64-.18A4.67,4.67,0,0,1,30,16.38Z" transform="translate(-8.34)"/>
      <path class="cls-13" d="M29.56,21.56a1.25,1.25,0,0,1,.2.36c.49,1.35-2.67,1.19-3.1.63-.8-1.07.21-1.44,1-1.51A2.27,2.27,0,0,1,29.56,21.56Z" transform="translate(-8.34)"/>
      <path class="cls-13" d="M17.74,21.28a1,1,0,0,1,.2.38c.47,1.43-2.84,1.16-3.27.55-.81-1.14.27-1.5,1.1-1.54A2.35,2.35,0,0,1,17.74,21.28Z" transform="translate(-8.34)"/>
      <path class="cls-10" d="M27.29,24.43a.41.41,0,0,0-.51.21,5.13,5.13,0,0,1-4.73,2.7,5,5,0,0,1-4.88-3.17.38.38,0,0,0-.49-.21.38.38,0,0,0-.27.46A5.73,5.73,0,0,0,22,28.06h.21a5.89,5.89,0,0,0,5.29-3.17A.33.33,0,0,0,27.29,24.43Z" transform="translate(-8.34)"/>
    </g>
  </g>
</svg>
