<svg id="레이어_1" data-name="레이어 1" xmlns="http://www.w3.org/2000/svg" viewBox="0 0 27.9 40.05">
  <defs>
    <style>
      .cls-1 {
        fill: #313142;
      }

      .cls-2 {
        fill: #e8e8e8;
      }

      .cls-3 {
        opacity: 0.1;
      }

      .cls-4 {
        fill: #f5f5f5;
      }

      .cls-5 {
        fill: #854422;
      }

      .cls-6 {
        fill: #70442d;
      }

      .cls-7 {
        fill: #9c552c;
      }

      .cls-8 {
        fill: #66241b;
      }

      .cls-11, .cls-20, .cls-8 {
        opacity: 0.7;
      }

      .cls-9 {
        fill: #261b18;
      }

      .cls-10 {
        fill: #bf6c3c;
      }

      .cls-11 {
        fill: #e6d2c3;
      }

      .cls-12 {
        fill: #d47b48;
      }

      .cls-13 {
        fill: #78231f;
      }

      .cls-14 {
        fill: #fff7ea;
      }

      .cls-15 {
        fill: #ecdcc4;
      }

      .cls-16 {
        opacity: 0.2;
      }

      .cls-17 {
        fill: #d9c9b2;
      }

      .cls-18, .cls-19, .cls-20 {
        fill: #fff;
      }

      .cls-18 {
        opacity: 0.3;
      }
    </style>
  </defs>
  <title>1</title>
  <g>
    <path class="cls-1" d="M8.05,40h3.56v0A5.69,5.69,0,0,1,14,34.79l-1.89-3A9.23,9.23,0,0,0,8.05,40Z" transform="translate(-6.47 0.05)"/>
    <path class="cls-1" d="M28.17,31.76l-1.9,3A5.65,5.65,0,0,1,28.66,40v0h3.56A9.23,9.23,0,0,0,28.17,31.76Z" transform="translate(-6.47 0.05)"/>
    <g>
      <path class="cls-2" d="M25.8,30.69a12.21,12.21,0,0,0-11,.29c-2.81,1.83-2.62,4.71-2,9H27.57C28.3,35.73,28.55,32.17,25.8,30.69Z" transform="translate(-6.47 0.05)"/>
      <path class="cls-1" d="M11.42,32.3c-.21.56.49,4.13,1.11,7.7h3.86a35.7,35.7,0,0,0-1.2-9.69S11.72,31.53,11.42,32.3Z" transform="translate(-6.47 0.05)"/>
      <path class="cls-1" d="M25.07,30.31A36.1,36.1,0,0,0,23.87,40h3.87c.62-3.57,1.32-7.14,1.11-7.7C28.55,31.53,25.07,30.31,25.07,30.31Z" transform="translate(-6.47 0.05)"/>
      <path class="cls-3" d="M15.44,32.69a7.22,7.22,0,0,0,3,3.79l1.67-1.94,2.2,1.93a5.9,5.9,0,0,0,3-4.4C25.31,30.9,14.76,30.27,15.44,32.69Z" transform="translate(-6.47 0.05)"/>
      <path class="cls-4" d="M15.47,29.81c-1.87,2.67,2.84,6,2.84,6l1.84-1.53,2.08,1.6s4.27-2.5,2.75-5.84C23.62,27.07,17.35,27.13,15.47,29.81Z" transform="translate(-6.47 0.05)"/>
      <path class="cls-5" d="M23.52,27.41a6.82,6.82,0,0,0-4.91-.78,3.41,3.41,0,0,0-2.55,3.12c-.13,1.8,2.51,4.2,4.34,4.25C21.78,34,27.63,30.67,23.52,27.41Z" transform="translate(-6.47 0.05)"/>
      <path class="cls-4" d="M20.23,36.09a.47.47,0,1,0,.47.46A.47.47,0,0,0,20.23,36.09Z" transform="translate(-6.47 0.05)"/>
      <path class="cls-4" d="M20.24,38.2a.47.47,0,1,0,.47.47A.47.47,0,0,0,20.24,38.2Z" transform="translate(-6.47 0.05)"/>
    </g>
    <g>
      <path class="cls-5" d="M31.16,17.05c-1.11-.48-1.81.28-2.16,1.78-.14.59-.52,3.78-.24,4.37a.3.3,0,0,1,0,.08,3.51,3.51,0,0,0,1.87-.15C32.56,22.38,33.48,18,31.16,17.05Z" transform="translate(-6.47 0.05)"/>
      <path class="cls-6" d="M8.51,7.45C7.77,11,7.6,15.62,9.29,19c.87,1.75,3,.59,4.45.22,1.82-.46,3.65-.87,5.48-1.27,3-.67,6.3,0,9.35.28,2.39.23,2.57,1.36,2.57-.6,0-2.42.62-6.41,0-9.07C28.16-4.4,10.29-1,8.51,7.45Z" transform="translate(-6.47 0.05)"/>
      <path class="cls-7" d="M18.93,3.15c-8.52,1.16-9.87,9-9,16.68.62,5.75,4.85,12.15,11.49,11.86S31.74,23.06,31.06,16C30.32,8.3,28.67,1.81,18.93,3.15Z" transform="translate(-6.47 0.05)"/>
      <path class="cls-7" d="M8,16.56c-2.78.56-1.36,5.1.75,6.14A1.49,1.49,0,0,0,10.92,22c.46-.62.15-2.35-.35-3.86A2.08,2.08,0,0,0,8,16.56Z" transform="translate(-6.47 0.05)"/>
      <path class="cls-8" d="M8.94,18.11c-.62-.31-2.18.17-1.49,1.41.42-1.12,1.09-.36,1,.45-.08.53-.66.53-.11,1.24.3.38.93.26,1.26.07C10.59,20.66,9.69,18.48,8.94,18.11Z" transform="translate(-6.47 0.05)"/>
      <path class="cls-6" d="M19.76,1.65C12.85,1.59,7.94,6.57,8.39,16.52a1.71,1.71,0,0,1,1.31.42,3.18,3.18,0,0,1,.71,1.49c.07.16.16.43.7.4-1-3.34-.43-8,.7-9.56,2.8-3.77,9.1,1.33,11.18,1.26,1.58-.06,5.37-4.82,6.87-1.25C30.88,11.72,30.86,1.74,19.76,1.65Z" transform="translate(-6.47 0.05)"/>
    </g>
    <g>
      <path class="cls-9" d="M15.52,14.42c-1.65-.55-2.4,2.37-1.23,3.2a2.32,2.32,0,0,1,1.58,0C16.89,17,16.74,14.82,15.52,14.42Z" transform="translate(-6.47 0.05)"/>
      <path class="cls-8" d="M22.38,19.82c-1.06,0-1.46-.45-2.22-.1s.25,1.57,2.12,1.57,2.73-1,2.36-1.46S23.55,19.85,22.38,19.82Z" transform="translate(-6.47 0.05)"/>
      <path class="cls-10" d="M22,15.84c-1,.07-2.5,3.89-2,4.19a5.91,5.91,0,0,0,4.77-.14C25.08,19.65,23.11,15.77,22,15.84Z" transform="translate(-6.47 0.05)"/>
      <path class="cls-9" d="M29.56,14.42c-1.62-1-2.84,2.14-1.51,3a2.11,2.11,0,0,1,1.69,0C30.39,16.76,30.42,15,29.56,14.42Z" transform="translate(-6.47 0.05)"/>
      <path class="cls-11" d="M15,15c-.62.28,0,1.49.57,1C16,15.57,15.55,14.71,15,15Z" transform="translate(-6.47 0.05)"/>
      <path class="cls-11" d="M28.92,14.76c-.64.12-.35,1.38.31,1C29.7,15.54,29.49,14.65,28.92,14.76Z" transform="translate(-6.47 0.05)"/>
      <path class="cls-9" d="M25.14,13.14c.28.65,1.54.25,1.94,0a2.48,2.48,0,0,1,2.11-.22c.18.05,2,.44,2.13.07-.69-.71-2.13-1.76-3.08-1.72C27.65,11.31,24.59,11.84,25.14,13.14Z" transform="translate(-6.47 0.05)"/>
      <path class="cls-9" d="M14.56,11.61a6.06,6.06,0,0,0-3.31,1.73c.17.37,2.05.06,2.25,0a3.78,3.78,0,0,1,2.65,0c.41.22,1.39.73,1.69.08C18.44,12.11,15.18,11.62,14.56,11.61Z" transform="translate(-6.47 0.05)"/>
      <path class="cls-10" d="M30.43,19a2.52,2.52,0,0,0-2.08-.73c-.89,0-2.06.35-1.24,1.6.43.67,4,1.1,3.52-.45A1.25,1.25,0,0,0,30.43,19Z" transform="translate(-6.47 0.05)"/>
      <path class="cls-10" d="M16.76,18.66a2.63,2.63,0,0,0-2.3-.28c-.9.2-2,.82-.91,1.92.59.59,4.31.23,3.51-1.26A1.26,1.26,0,0,0,16.76,18.66Z" transform="translate(-6.47 0.05)"/>
      <g>
        <path class="cls-12" d="M15,21.45S16.32,29,21.7,29c3,0,4-1.74,5.06-4.3.49-1.2.64-2.51,1.39-3.43C26.59,22.55,19.56,23.94,15,21.45Z" transform="translate(-6.47 0.05)"/>
        <path class="cls-8" d="M27.08,21.37c-.16.13.2,0,.69,0s.32.74.63.65.38-.68,0-1S27.08,21.37,27.08,21.37Z" transform="translate(-6.47 0.05)"/>
        <path class="cls-8" d="M14.88,21.2c-.44.12-.66.87-.38,1s.42-.55.89-.67,1.13,0,1-.11A3.48,3.48,0,0,0,14.88,21.2Z" transform="translate(-6.47 0.05)"/>
        <path class="cls-13" d="M16,22.31s1.65,4.41,5.83,4.56a4.37,4.37,0,0,0,4-2.63,9.37,9.37,0,0,1,1.49-2.13A10.3,10.3,0,0,1,16,22.31Z" transform="translate(-6.47 0.05)"/>
        <path class="cls-14" d="M16,22.31a7.64,7.64,0,0,0,2.66,2.44,8.25,8.25,0,0,0,5.56.33c1.38-.34,3.07-3,3.07-3S22.56,25.4,16,22.31Z" transform="translate(-6.47 0.05)"/>
        <path class="cls-14" d="M22.27,25.14a8.8,8.8,0,0,1-3.86-.81c-.75-.32-.64.46-.48.84,0,0,.78,1.37,3.55,1.68,2.6.28,3.76-1.75,3.41-2.15S24.18,25.16,22.27,25.14Z" transform="translate(-6.47 0.05)"/>
        <path class="cls-15" d="M16,22.31a5.94,5.94,0,0,0,1.16,1.38,20.31,20.31,0,0,0,9.2-.32,5,5,0,0,0,.93-1.26A11.91,11.91,0,0,1,16,22.31Z" transform="translate(-6.47 0.05)"/>
        <path class="cls-15" d="M17.88,24.33c4.17,2.48,6.7.53,6.7.53A11.26,11.26,0,0,1,17.88,24.33Z" transform="translate(-6.47 0.05)"/>
      </g>
    </g>
    <g>
      <path class="cls-16" d="M28.75,20a3.13,3.13,0,0,0-.92,0,7.7,7.7,0,0,1-1.17-.1,3.32,3.32,0,0,1-1.4-.62,3.05,3.05,0,0,1-.73-.83,2.85,2.85,0,0,1-.16-2.27c.34-1,1.39-1.11,2.26-1.2a30.17,30.17,0,0,0,3.3-.27c.13,0-.05-1-.09-1.05a1,1,0,0,0-.64-.64,5.15,5.15,0,0,0-2.79.34,12.5,12.5,0,0,0-2.57.77,2.87,2.87,0,0,1-1.85.62c-1.52-.06-3-1.06-4.61-1.22a13.4,13.4,0,0,0-5,.11c-.43.12-1.73.62-.85,1.08a7.63,7.63,0,0,0,3.09.33c.43,0,.87,0,1.3.06,1.53.14,3.89-.09,3.78,1.84a3.22,3.22,0,0,1-2,2.94,14,14,0,0,1-3.15.34,5.47,5.47,0,0,1-2.29-.48c-.21-.1-.82-.49-1-.21-.34.48.92,1.26,1.24,1.41a7.61,7.61,0,0,0,2.36.51c2,.21,4.06.09,5.18-1.77.65-1.07,1-2.34,1.57-3.44,1-1.8,1.43.64,1.73,1.7A5.62,5.62,0,0,0,24,19.56,3.76,3.76,0,0,0,26.86,21c.62,0,2.68.46,3.3-.81C30.33,19.82,29.18,20.12,28.75,20Z" transform="translate(-6.47 0.05)"/>
      <path class="cls-17" d="M10.6,13.4c-1.32.13-2.47-.17-2.76.12s.4,1.51.4,1.51a2.28,2.28,0,0,0,1.06.28c.14.91.24,3.29,2,4.69,1.48,1.16,6.09,1.22,7.47.41a5.57,5.57,0,0,0,2.56-4.36C21.86,12,12.45,13.22,10.6,13.4Zm8,5.62c-1.57,1.17-5.8.94-7-.35-.9-1-1.19-3.16-.7-3.51,1.51-1.05,7.45-1.07,8.88-.11C20.53,15.52,19.83,18.13,18.64,19Z" transform="translate(-6.47 0.05)"/>
      <path class="cls-17" d="M31.91,12.71c-1.59-.05-9.65-.64-9,3.37a5.66,5.66,0,0,0,2.41,4.18c1.22.72,5.13.34,6.33-.92,1.44-1.5,1.4-3.89,1.47-4.81a1.77,1.77,0,0,0,.89-.35s.6-1.19.26-1.53S33,12.75,31.91,12.71ZM31.35,18c-.93,1.36-4.5,1.87-5.9.81-1.06-.8-1.79-3.35-1.23-3.86,1.17-1.05,6.2-1.43,7.54-.49C32.2,14.79,32.07,17,31.35,18Z" transform="translate(-6.47 0.05)"/>
      <path class="cls-18" d="M25,14.74c-.9.38.69.93,1,1a11.09,11.09,0,0,0,3.81,0c.67-.11,2.12-.71,1.72-1.12C31,14,26,14.33,25,14.74Z" transform="translate(-6.47 0.05)"/>
      <path class="cls-19" d="M28.92,14.64c-.48.07-.8.2-.67.44.24.46,3.05.29,3.25-.05S29.94,14.5,28.92,14.64Z" transform="translate(-6.47 0.05)"/>
      <path class="cls-20" d="M25.89,18.14c-.3,0-.51.06-.45.26.1.4,1.84.64,2,.4S26.53,18.17,25.89,18.14Z" transform="translate(-6.47 0.05)"/>
      <path class="cls-20" d="M12.7,18.45c-.33,0-.57,0-.53.23.09.4,2,.75,2.21.52S13.41,18.51,12.7,18.45Z" transform="translate(-6.47 0.05)"/>
      <path class="cls-18" d="M19.37,14.93c-1.2-.35-7.07-.41-7.64.15-.41.4,1.36.9,2.16,1a16.24,16.24,0,0,0,4.43-.14C18.71,15.83,20.46,15.24,19.37,14.93Z" transform="translate(-6.47 0.05)"/>
      <path class="cls-19" d="M16.81,14.75c-.54.05-.89.18-.76.42.26.47,3.4.37,3.63,0S18,14.64,16.81,14.75Z" transform="translate(-6.47 0.05)"/>
      <path class="cls-17" d="M24.07,13.69a6.67,6.67,0,0,1-4.13.11c-1.32-.36.7.79.85,1.46s0,2.85.42,1.62,1.27-1.28,1.82-.16.58-1.83.8-2.11S25.28,13.28,24.07,13.69Z" transform="translate(-6.47 0.05)"/>
      <path class="cls-19" d="M11.24,13.75c3.57-.05,6.42-.13,8.62.56C18.39,13.25,16,13.15,11.24,13.75Z" transform="translate(-6.47 0.05)"/>
      <path class="cls-19" d="M31.61,13c-4.1,0-6,0-7.16,1.05C26.26,13.23,28.55,13.38,31.61,13Z" transform="translate(-6.47 0.05)"/>
    </g>
  </g>
</svg>
