<svg id="레이어_1" data-name="레이어 1" xmlns="http://www.w3.org/2000/svg" viewBox="0 0 40 40">
  <defs>
    <style>
      .cls-1 {
        stroke: #000;
        stroke-miterlimit: 10;
        stroke-width: 0.75px;
      }
    </style>
  </defs>
  <title>1</title>
  <path d="M20,40A20,20,0,1,1,40,20,20,20,0,0,1,20,40ZM20,3.66A16.34,16.34,0,1,0,36.34,20,16.36,16.36,0,0,0,20,3.66Z"/>
  <path class="cls-1" d="M9.58,16.25V13.69H23.84v2.56Zm1.44,6a4.92,4.92,0,0,1,.39-1.92,4.56,4.56,0,0,1,1.1-1.63,5.46,5.46,0,0,1,1.79-1.12,6.58,6.58,0,0,1,2.43-.42,6.44,6.44,0,0,1,2.44.43A5.36,5.36,0,0,1,21,18.75a5,5,0,0,1,1.1,1.62,4.9,4.9,0,0,1-1.12,5.43,5.37,5.37,0,0,1-1.78,1.13,6.58,6.58,0,0,1-2.43.42,6.38,6.38,0,0,1-2.43-.43,5.5,5.5,0,0,1-1.79-1.14,4.94,4.94,0,0,1-1.1-1.63A4.77,4.77,0,0,1,11,22.26Zm1.54-10V9.67h8.27V12.3Zm6.88,10a2.94,2.94,0,0,0-.17-1,2.38,2.38,0,0,0-.52-.83,2.8,2.8,0,0,0-.86-.59,2.86,2.86,0,0,0-1.16-.22,2.81,2.81,0,0,0-1.15.22,2.68,2.68,0,0,0-.86.59,2.38,2.38,0,0,0-.52.83,3,3,0,0,0,0,2,2.42,2.42,0,0,0,.52.84,2.49,2.49,0,0,0,.86.57,3,3,0,0,0,1.15.21,3,3,0,0,0,1.16-.21,2.59,2.59,0,0,0,.86-.57,2.42,2.42,0,0,0,.52-.84A2.94,2.94,0,0,0,19.44,22.26Zm11.85-1.49H27.74V31.85H24.66V8.9h3.08v9.29h3.55Z"/>
</svg>
