<svg id="레이어_1" data-name="레이어 1" xmlns="http://www.w3.org/2000/svg" viewBox="0 0 40 21.05">
  <defs>
    <style>
      .cls-1 {
        fill: #576d64;
      }

      .cls-1, .cls-2 {
        fill-rule: evenodd;
      }
    </style>
  </defs>
  <title>1</title>
  <g>
    <polygon class="cls-1" points="14.36 1.26 0.7 10.36 13.99 19.97 13.76 14.71 38.94 14.6 39.23 6.87 14.82 6.35 13.48 6.35 14.36 1.26"/>
    <path class="cls-1" d="M4.63,16.62l-.91,2.11a8.25,8.25,0,0,0-.75,2c-.06.39.45.81.75.42a8.71,8.71,0,0,0,.9-1.9c.29-.71.58-1.42.88-2.12S4.89,16,4.63,16.62Z" transform="translate(0 -9.48)"/>
    <path class="cls-1" d="M8.34,14A79,79,0,0,0,4.9,21.59c-.17.53.62.8.89.35a73.44,73.44,0,0,0,3.4-7.51C9.45,13.86,8.6,13.38,8.34,14Z" transform="translate(0 -9.48)"/>
    <path class="cls-1" d="M11.53,12.26A107.11,107.11,0,0,0,7.45,24.08a.56.56,0,0,0,1.08.27c1.38-3.94,2.51-7.94,4-11.85C12.7,11.9,11.75,11.68,11.53,12.26Z" transform="translate(0 -9.48)"/>
    <path class="cls-1" d="M13.1,15.3c-1.06,3.43-2.5,6.64-3.86,9.94-.24.58.56,1.06.87.48A53.67,53.67,0,0,0,14,15.51C14.11,15,13.27,14.77,13.1,15.3Z" transform="translate(0 -9.48)"/>
    <path class="cls-1" d="M15.69,15.62c-1.55,4-3.17,8.11-4.39,12.27-.2.67.81.89,1,.25,1.5-4.06,2.8-8.2,4.31-12.27C16.89,15.26,15.92,15,15.69,15.62Z" transform="translate(0 -9.48)"/>
    <path class="cls-1" d="M19,16.19c-.81,2.43-1.84,4.74-2.82,7.1-.26.61.61,1.13.93.51A49.52,49.52,0,0,0,20,16.44C20.19,15.81,19.2,15.57,19,16.19Z" transform="translate(0 -9.48)"/>
    <path class="cls-1" d="M26.34,15.73c-1.2,2.53-2.66,5.42-3.07,8.2-.07.51.66.9.9.36,1.18-2.61,1.86-5.44,3.06-8.06C27.5,15.64,26.62,15.14,26.34,15.73Z" transform="translate(0 -9.48)"/>
    <path class="cls-1" d="M29.71,15.71A22.14,22.14,0,0,0,26.56,24a.5.5,0,0,0,1,.24,41,41,0,0,1,3.06-8A.5.5,0,0,0,29.71,15.71Z" transform="translate(0 -9.48)"/>
    <path class="cls-1" d="M33.09,16a23.56,23.56,0,0,0-2.85,7.64c0,.46.64.87.85.33,1-2.51,1.6-5.06,2.83-7.51C34.2,15.87,33.37,15.41,33.09,16Z" transform="translate(0 -9.48)"/>
    <path class="cls-1" d="M36.73,16c-.46,1.4-1,2.78-1.55,4.14a23.89,23.89,0,0,0-1.41,3.3c-.09.39.44.73.71.39,1.63-2,2.44-5.15,3.21-7.59C37.89,15.65,36.93,15.42,36.73,16Z" transform="translate(0 -9.48)"/>
    <path class="cls-1" d="M39.22,17.4A49,49,0,0,0,36.61,24c-.13.45.57.75.78.31,1-2.09,1.67-4.36,2.54-6.5C40.13,17.32,39.43,16.91,39.22,17.4Z" transform="translate(0 -9.48)"/>
    <path class="cls-2" d="M14,9.6C9.45,12.74,4.9,15.91.35,19.07a.76.76,0,0,0,0,1.3,93.21,93.21,0,0,1,13.32,10,.73.73,0,0,0,1.22-.54,31.9,31.9,0,0,0-.71-5.15c8.21,0,16.42.08,24.64.07A.68.68,0,0,0,39.5,24c.09-1.61.18-3.21.28-4.82,0-.89.51-2.51-.06-3.31-.43-.6-1.22-.51-1.86-.52-1.62,0-3.25,0-4.89,0l-18.64-.12c.27-1.6.54-3.2.82-4.79.11-.61-.55-1.24-1.13-.84Zm24.18,7c.66.28.42.61.37,1.4l-.12,1.81-.24,3.53c-8.3-.08-16.6-.09-24.89-.14a.7.7,0,0,0-.65.9,31.36,31.36,0,0,1,.68,4A93,93,0,0,0,2.1,19.69L13.37,11.9c-.21,1.26-.42,2.53-.64,3.8a.79.79,0,0,0,1.29.73h0c5.4.05,10.8.11,16.2.15l4,0,1.83,0A7.3,7.3,0,0,1,38.2,16.65Z" transform="translate(0 -9.48)"/>
  </g>
</svg>
