<svg id="레이어_1" data-name="레이어 1" xmlns="http://www.w3.org/2000/svg" viewBox="0 0 40 40">
  <defs>
    <style>
      .cls-1 {
        stroke: #000;
        stroke-miterlimit: 10;
        stroke-width: 0.75px;
      }
    </style>
  </defs>
  <title>1</title>
  <path d="M20,40A20,20,0,1,1,40,20,20,20,0,0,1,20,40ZM20,3.66A16.34,16.34,0,1,0,36.34,20,16.36,16.36,0,0,0,20,3.66Z"/>
  <path class="cls-1" d="M25.83,12.81a6.79,6.79,0,0,0-1.77-.94,7,7,0,0,0-2.4-.36,4.48,4.48,0,0,0-2.13.53,5.8,5.8,0,0,0-1.79,1.51,8.73,8.73,0,0,0-1.3,2.34,11.86,11.86,0,0,0-.7,3h.06a5.16,5.16,0,0,1,2.13-1.81,6.34,6.34,0,0,1,2.71-.6,6.82,6.82,0,0,1,2.73.53,5.63,5.63,0,0,1,2.07,1.5,6.81,6.81,0,0,1,1.31,2.37A9.83,9.83,0,0,1,27.2,24a8.9,8.9,0,0,1-.54,3.17,7.31,7.31,0,0,1-1.51,2.48,6.63,6.63,0,0,1-2.32,1.61,7.56,7.56,0,0,1-3,.57A7.21,7.21,0,0,1,16.48,31,6.22,6.22,0,0,1,14.18,29a9.26,9.26,0,0,1-1.32-3.21,19.12,19.12,0,0,1-.42-4.15,20,20,0,0,1,.65-5.34,12.44,12.44,0,0,1,1.85-4,8.56,8.56,0,0,1,2.87-2.58,7.66,7.66,0,0,1,3.73-.92A10.12,10.12,0,0,1,24.2,9a8.13,8.13,0,0,1,2,.82v2.76a.24.24,0,0,1-.13.24A.23.23,0,0,1,25.83,12.81ZM16,24.21a5.5,5.5,0,0,0,.32,1.88,4.84,4.84,0,0,0,.86,1.51,4,4,0,0,0,1.23,1,3.17,3.17,0,0,0,1.48.36,3.41,3.41,0,0,0,1.61-.37,3.57,3.57,0,0,0,1.19-1A5.12,5.12,0,0,0,23.4,26a6.93,6.93,0,0,0,.26-1.93,5.63,5.63,0,0,0-.94-3.54A3.29,3.29,0,0,0,20,19.39a3.29,3.29,0,0,0-2.88,1.34A7.35,7.35,0,0,0,16,24.21Z"/>
</svg>
