<svg xmlns="http://www.w3.org/2000/svg" xmlns:xlink="http://www.w3.org/1999/xlink" viewBox="0 0 40 40">
  <defs>
    <style>
      .cls-1 {
        isolation: isolate;
      }

      .cls-2 {
        fill: url(#linear-gradient);
      }

      .cls-12, .cls-3, .cls-4 {
        opacity: 0.25;
      }

      .cls-10, .cls-12, .cls-3, .cls-5 {
        mix-blend-mode: multiply;
      }

      .cls-3 {
        fill: url(#radial-gradient);
      }

      .cls-4, .cls-8 {
        fill: #fff;
      }

      .cls-5 {
        opacity: 0.35;
        fill: url(#linear-gradient-2);
      }

      .cls-6 {
        fill: #5d4037;
      }

      .cls-7 {
        fill: #4e342e;
      }

      .cls-9 {
        fill: #f5f5f5;
      }

      .cls-10 {
        fill: #cfd8dc;
      }

      .cls-11, .cls-12 {
        fill: #d95957;
      }
    </style>
    <linearGradient id="linear-gradient" x1="20" y1="-0.67" x2="20" y2="40.75" gradientUnits="userSpaceOnUse">
      <stop offset="0" stop-color="#ffe082"/>
      <stop offset="1" stop-color="#ffbf66"/>
    </linearGradient>
    <radialGradient id="radial-gradient" cx="20" cy="20" r="20" gradientUnits="userSpaceOnUse">
      <stop offset="0.8" stop-color="#fff"/>
      <stop offset="1" stop-color="#ffbf66"/>
    </radialGradient>
    <linearGradient id="linear-gradient-2" x1="20" y1="17.63" x2="20" y2="40.41" xlink:href="#linear-gradient"/>
  </defs>
  <title>1</title>
  <g class="cls-1">
    <g id="레이어_1" data-name="레이어 1">
      <g>
        <g>
          <circle class="cls-2" cx="20" cy="20" r="20"/>
          <circle class="cls-3" cx="20" cy="20" r="20"/>
          <path class="cls-4" d="M36.5,15.12c0,7.43-7.39,0-16.5,0s-16.5,7.43-16.5,0S10.89,1.67,20,1.67,36.5,7.69,36.5,15.12Z"/>
          <path class="cls-5" d="M20,36A20,20,0,0,1,.1,18,18.86,18.86,0,0,0,0,20a20,20,0,0,0,40,0,18.86,18.86,0,0,0-.1-2A20,20,0,0,1,20,36Z"/>
        </g>
        <g>
          <g>
            <path class="cls-4" d="M26.33,19.42a5.38,5.38,0,1,1,5.34-5.37A5.36,5.36,0,0,1,26.33,19.42Z"/>
            <ellipse class="cls-6" cx="26.33" cy="14.05" rx="4.67" ry="4.71"/>
            <path class="cls-7" d="M26.33,10.67a4.68,4.68,0,0,1,4.62,4,3.68,3.68,0,0,0,.06-.66,4.68,4.68,0,1,0-9.35,0,4.89,4.89,0,0,0,.05.66A4.69,4.69,0,0,1,26.33,10.67Z"/>
            <ellipse class="cls-8" cx="26.33" cy="14.05" rx="4" ry="4.03"/>
            <ellipse class="cls-9" cx="26.33" cy="14.05" rx="3.33" ry="3.36"/>
            <path class="cls-8" d="M30.09,13.47c0,1.69-1.68,0-3.76,0s-3.75,1.69-3.75,0a3.78,3.78,0,0,1,7.51,0Z"/>
            <path class="cls-6" d="M27.93,14.05a1.6,1.6,0,0,1-3.19,0A1.6,1.6,0,0,1,27.93,14.05Z"/>
            <path class="cls-6" d="M27.93,14.05a1.6,1.6,0,0,1-3.19,0A1.6,1.6,0,0,1,27.93,14.05Z"/>
            <path class="cls-10" d="M26.33,10.68a4,4,0,0,1,4,3.7c0-.11,0-.22,0-.33a4,4,0,1,0-8,0c0,.11,0,.22,0,.33A4,4,0,0,1,26.33,10.68Z"/>
          </g>
          <g>
            <path class="cls-4" d="M20,34c-4.81,0-10.53-2.81-11.67-8a2.48,2.48,0,0,1,.35-2,1.4,1.4,0,0,1,1.12-.53,2.14,2.14,0,0,1,.54.08,3.75,3.75,0,0,1,.88.41l.29.17a12,12,0,0,0,1.62.67,25.79,25.79,0,0,0,6.91,1.06h0A24.51,24.51,0,0,0,25.85,25a12.15,12.15,0,0,0,3.38-1.38,1.82,1.82,0,0,1,1-.3,1.47,1.47,0,0,1,1.38.91,2.47,2.47,0,0,1,.12,1.15,1.49,1.49,0,0,0,0,.21,6.64,6.64,0,0,1-1.5,3.56,11.26,11.26,0,0,1-3.68,3.15A13.81,13.81,0,0,1,20,34h0Z"/>
            <path class="cls-6" d="M31,25.59a5.57,5.57,0,0,1-1.27,3,9.89,9.89,0,0,1-2.65,2.55A13,13,0,0,1,20,33.29H20c-4.07,0-8.66-2-10.47-5.81A4.21,4.21,0,0,1,9,24.72c.38-1.27,1.7-.32,2.42,0a22.12,22.12,0,0,0,8.67,1.7H20a26.72,26.72,0,0,0,6.89-1,22.17,22.17,0,0,0,2.85-1.29.91.91,0,0,1,1,.12c.38.36.26.89.25,1.35C31,26.69,31,25.26,31,25.59Z"/>
            <path class="cls-6" d="M31,25.59c0,1.67-1.39,3.44-2.54,4.51a11.8,11.8,0,0,1-5,2.73A13.34,13.34,0,0,1,13,31.27,9.51,9.51,0,0,1,9.8,27.94c-.45-.82-1.51-3-.46-3.74.6-.44,1.36.18,1.88.44a14.18,14.18,0,0,0,2.9,1.06,21.67,21.67,0,0,0,6.15.73,25.6,25.6,0,0,0,6.63-1,22.17,22.17,0,0,0,2.85-1.29.91.91,0,0,1,1,.12c.38.35.27.89.25,1.35C31,26.69,31,25.26,31,25.59Z"/>
            <path class="cls-7" d="M9,26a.83.83,0,0,1,1.13-.53,5.75,5.75,0,0,1,1.05.53,11.74,11.74,0,0,0,1.72.71A26.13,26.13,0,0,0,20,27.78,25.41,25.41,0,0,0,26,27a13.06,13.06,0,0,0,3.56-1.47.9.9,0,0,1,1.38.32s0,.05,0,.08c0-.12,0-.23,0-.35A2.57,2.57,0,0,0,31,24.52a.89.89,0,0,0-1.38-.31A13,13,0,0,1,26,25.67a24.91,24.91,0,0,1-6,.78,25.76,25.76,0,0,1-7.08-1.1,11.74,11.74,0,0,1-1.72-.71,7.38,7.38,0,0,0-1.05-.53C9,23.79,8.82,25,9,25.8A1.21,1.21,0,0,1,9,26Z"/>
            <g>
              <path class="cls-11" d="M24.17,26.09v7.5a4.19,4.19,0,0,1-8.38,0V26.05a36.34,36.34,0,0,0,4.22.4A38.26,38.26,0,0,0,24.17,26.09Z"/>
              <path class="cls-12" d="M20,34.11a.53.53,0,0,1-.53-.52V26.41l.57,0,.49,0v7.17A.53.53,0,0,1,20,34.11Z"/>
              <path class="cls-12" d="M20,26.45a36.34,36.34,0,0,1-4.22-.4v2a36.34,36.34,0,0,0,4.22.4,38.26,38.26,0,0,0,4.16-.36v-2A38.26,38.26,0,0,1,20,26.45Z"/>
              <path class="cls-12" d="M20,36.44a4.19,4.19,0,0,1-4.19-4.19v1.34a4.19,4.19,0,0,0,8.38,0V32.25A4.19,4.19,0,0,1,20,36.44Z"/>
            </g>
          </g>
          <g>
            <path class="cls-4" d="M13,11.33A4.68,4.68,0,0,0,8.33,16c0,.86,0,.91.07,1a1.53,1.53,0,0,0,1.4,1A1.61,1.61,0,0,0,11,17.52,3.26,3.26,0,0,1,13,16.67a3.32,3.32,0,0,1,2.05.85A1.61,1.61,0,0,0,16.2,18a1.53,1.53,0,0,0,1.4-1c0-.12.07-.17.07-1A4.68,4.68,0,0,0,13,11.33Z"/>
            <path class="cls-6" d="M13,12a4.09,4.09,0,0,0-4,4.39.84.84,0,0,0,1.48.66A3.75,3.75,0,0,1,13,16a3.75,3.75,0,0,1,2.49,1c.58.53,1.48.35,1.51-.51C17.05,14.16,15.54,12,13,12Z"/>
            <path class="cls-7" d="M13,12a4,4,0,0,0-4,4,5.18,5.18,0,0,0,0,.77.05.05,0,0,0,0,0,4,4,0,0,1,7.92,0,.05.05,0,0,0,0,0A5.18,5.18,0,0,0,17,16,4,4,0,0,0,13,12Z"/>
          </g>
        </g>
      </g>
    </g>
  </g>
</svg>
