<svg id="레이어_1" data-name="레이어 1" xmlns="http://www.w3.org/2000/svg" viewBox="0 0 26.16 40">
  <defs>
    <style>
      .cls-1 {
        fill: #e34f7e;
      }

      .cls-2 {
        fill: #313142;
      }

      .cls-3 {
        opacity: 0.1;
      }

      .cls-4 {
        fill: #f06799;
      }

      .cls-5 {
        fill: #f7b07c;
      }

      .cls-6 {
        fill: #c9beb7;
      }

      .cls-7 {
        fill: #ffc490;
      }

      .cls-10, .cls-8 {
        fill: #bc551e;
      }

      .cls-8 {
        opacity: 0.3;
      }

      .cls-9 {
        fill: #1f1a17;
      }

      .cls-10 {
        opacity: 0.4;
      }

      .cls-11 {
        fill: #ffd1a7;
      }

      .cls-12 {
        fill: #a88888;
      }

      .cls-13 {
        fill: #fab27b;
      }

      .cls-14 {
        fill: #f5ae79;
      }

      .cls-15 {
        fill: #3d302a;
      }

      .cls-16 {
        fill: #8f322d;
      }

      .cls-17 {
        fill: #fff3e2;
      }

      .cls-18 {
        fill: #e8dac5;
      }

      .cls-19 {
        fill: #f0eae6;
      }
    </style>
  </defs>
  <title>1</title>
  <g>
    <g>
      <path class="cls-1" d="M14.53,31s-2,1-3,1.56c-1.48.86-2.19,1.27-2.19,3A40.11,40.11,0,0,1,9.13,40h5.32c.38-2.18.61-3.94.61-3.94Z" transform="translate(-6.92 0)"/>
      <path class="cls-1" d="M29.34,32.54c-.95-.55-3-1.56-3-1.56l-.52,5.08s.22,1.76.61,3.94h5.31a40.11,40.11,0,0,1-.25-4.45C31.53,33.81,30.82,33.4,29.34,32.54Z" transform="translate(-6.92 0)"/>
      <path class="cls-1" d="M26,31.2c-1.36-3.46-8.61-2.45-10.53-.77s-2.45,3.69.43,6.63A13.53,13.53,0,0,0,19.81,40h1.35C22.46,38.63,27,33.65,26,31.2Z" transform="translate(-6.92 0)"/>
      <path class="cls-2" d="M29.52,32.51a26.87,26.87,0,0,0-4.11-2.61c.09.22.39.69.37.92-.39,4.38-4.87,9-4.87,9s-6.6-6.06-5.49-9a2.8,2.8,0,0,1,.35-.69c-1.53.68-4.33,2.08-4.58,2.59s1.43,3.94,2,7.27a.07.07,0,0,0,0,0H27.71C28.08,37.56,29.84,32.88,29.52,32.51Z" transform="translate(-6.92 0)"/>
      <path class="cls-3" d="M23,30.94c-1.49-.81-7.54-1-6.86,1.24a6.48,6.48,0,0,0,2.46,3.38l2-2,2.15,1.9a9.6,9.6,0,0,0,2.63-3.76A4.8,4.8,0,0,1,23,30.94Z" transform="translate(-6.92 0)"/>
      <path class="cls-4" d="M15.77,30.12c-1,2.67,2.64,4.85,2.64,4.85l2.18-1.42,2,1.33s4-2.17,2.5-5.28C23.74,26.8,16.93,27,15.77,30.12Z" transform="translate(-6.92 0)"/>
      <path class="cls-5" d="M19,26.39a3.14,3.14,0,0,0-2.25,2.9,2.53,2.53,0,0,0,.64,2.19,4.31,4.31,0,0,0,1.71,1c.48.16,1.32.74,1.47.75s.33-.26.78-.5a4.4,4.4,0,0,0,2-1.56c.53-1.08,1-3.23,0-4.07A5.59,5.59,0,0,0,19,26.39Z" transform="translate(-6.92 0)"/>
    </g>
    <g>
      <path class="cls-6" d="M33.08,8a1.9,1.9,0,0,1-1.37.34,2.34,2.34,0,0,0,1.23-2.29c-2.09-1.81-7.09-5.5-12.83-6-3.53-.31-7.25.47-9.32,3.6a7.09,7.09,0,0,0-1,2.19,3.21,3.21,0,0,1-.51-1.79A2.37,2.37,0,0,0,9.12,7a2.59,2.59,0,0,0-1.85.71,3.52,3.52,0,0,1,1.46.27,4.2,4.2,0,0,0-.67,2.42,20.36,20.36,0,0,0,.33,4.71c.33,1.49.72,5.13,3,4.76,3.09-.51,6.5-2.07,9.61-.76,2.17.92,4.11,2.37,6.31,3.28,2,.81,3.83,2.82,4.49.1A18.19,18.19,0,0,0,32.19,16a15.38,15.38,0,0,0-1.3-5.45A3.08,3.08,0,0,0,33.08,8Z" transform="translate(-6.92 0)"/>
      <path class="cls-7" d="M20.54,5.33C14.72,5.5,9.48,11.72,9.69,18.85s4.83,12.08,11.6,12.27c7.5.22,10.61-5.87,10.4-13S26.37,5.16,20.54,5.33Z" transform="translate(-6.92 0)"/>
      <path class="cls-8" d="M30.59,17.39c-.24-.14-2-.43-1.6.26a5.07,5.07,0,0,0,1.27.71c.31.07.37,0,.16-.28s-.81-.34-1-.63C29.73,17.43,30.45,17.78,30.59,17.39Z" transform="translate(-6.92 0)"/>
      <path class="cls-8" d="M15.27,18.07c.14.4.86.05,1.11.06-.13.29-.74.42-.94.64s-.15.34.16.27a4.57,4.57,0,0,0,1.26-.71C17.28,17.65,15.51,17.93,15.27,18.07Z" transform="translate(-6.92 0)"/>
      <path class="cls-9" d="M18,16.08c-1.28-.62-2.2,1.66-1.34,2.46a1.83,1.83,0,0,1,1.28.16A1.59,1.59,0,0,0,18,16.08Z" transform="translate(-6.92 0)"/>
      <path class="cls-10" d="M23.36,19.51c-.73,0-1-.3-1.52,0s.14,1.41,1.43,1.37,1.92-1.09,1.64-1.39S24.17,19.5,23.36,19.51Z" transform="translate(-6.92 0)"/>
      <path class="cls-11" d="M22.86,15.57c-.66,0-1.13.95-1.27,2.16s-.11,1.77.2,2a2.57,2.57,0,0,0,3.05-.14C25.78,18.72,24.44,15.51,22.86,15.57Z" transform="translate(-6.92 0)"/>
      <path class="cls-9" d="M28.88,15.71c-1.36-.66-2.29,2.22-.8,2.51a1.64,1.64,0,0,1,1.11-.37A1.51,1.51,0,0,0,28.88,15.71Z" transform="translate(-6.92 0)"/>
      <path class="cls-12" d="M17.27,16.53c-.53.15-.18,1.2.35.85S17.75,16.39,17.27,16.53Z" transform="translate(-6.92 0)"/>
      <path class="cls-12" d="M28.23,16.22c-.51.15-.17,1.12.32.8S28.67,16.09,28.23,16.22Z" transform="translate(-6.92 0)"/>
      <path class="cls-7" d="M8.75,17.15c-2.91.61-2,4.28.3,5.07a6.14,6.14,0,0,0,2.3.28l.05-.06c.37-.46-.09-2.9-.23-3.41C10.81,17.76,10.14,16.85,8.75,17.15Z" transform="translate(-6.92 0)"/>
      <path class="cls-8" d="M17.94,8.62c-2.25.14-5.15,1-5.77,3.5a19.51,19.51,0,0,0-.61,3,6,6,0,0,0,0,.94,29.74,29.74,0,0,0,.73,3.69c.54-5.67,2-7.51,2.29-8.32a44.39,44.39,0,0,0,12.71.9c1-.07,3.29-.22,2.19-1.74C28.74,9.55,21.13,8.42,17.94,8.62Z" transform="translate(-6.92 0)"/>
      <path class="cls-8" d="M10.21,18.56c-.72-.38-2.72-.22-2,1,.66-.95,1.38-.14,1.12.56-.18.47-.89.37-.3,1.1a1.66,1.66,0,0,0,1.55.28C11.9,21.16,11.09,19,10.21,18.56Z" transform="translate(-6.92 0)"/>
      <path class="cls-6" d="M26.85,5.16c-3.16-1.62-8.11-2.25-11.65-.62a7.05,7.05,0,0,0-2.78,2.21c-1.59,2.13-3.64,5.66-3,8.34.16.6,0,1.44.22,2.05.46,1.49,1,7.26,2.29,7.33.47,0,1.81.39,1.59,0-1.87-3.86-1.11-10.5.69-13.57,10.35,1.67,16.32.45,16-1.91C30.06,7.32,28.2,5.86,26.85,5.16Z" transform="translate(-6.92 0)"/>
      <path class="cls-13" d="M18.41,19.7a2.81,2.81,0,0,0-2.51-.19c-1,.28-2.16,1-.91,2.2.67.63,4.69,0,3.76-1.59A1.6,1.6,0,0,0,18.41,19.7Z" transform="translate(-6.92 0)"/>
      <path class="cls-13" d="M28.69,18.86a2.06,2.06,0,0,0-1.11.62c-.42.5-.44,1.16.42,1.62s2.63.59,3.11-.5C31.77,19.11,29.66,18.66,28.69,18.86Z" transform="translate(-6.92 0)"/>
      <path class="cls-14" d="M22.37,27.76a1.66,1.66,0,0,0-1.26,1.58c0-.12.49-.82,1.78-1a2.89,2.89,0,0,1,2.26.76C25.29,27.94,23.42,27.46,22.37,27.76Z" transform="translate(-6.92 0)"/>
      <path class="cls-15" d="M27.88,12.67c-.81.06-1.76.67-2.56.43a1.57,1.57,0,0,0,1.36,1.49,2.76,2.76,0,0,0,1.65-.3,4.94,4.94,0,0,1,.65-.22,3.57,3.57,0,0,1,1.13,0,1.42,1.42,0,0,0-.12-.4A2,2,0,0,0,27.88,12.67Z" transform="translate(-6.92 0)"/>
      <path class="cls-15" d="M19,13.27c-.5-.11-1-.39-1.51-.46-1.24-.18-2.57,1.44-1.81,2.56.17-.14.31-.32.47-.47.81-.8,1.91-.12,2.84.07,1.24.27,1.86-.49,1.85-1.69A3.48,3.48,0,0,1,19,13.27Z" transform="translate(-6.92 0)"/>
      <g>
        <path class="cls-8" d="M27.72,21.33c.13,0,.49.37.5.5s-.3.41-.49.51a6.93,6.93,0,0,1-2.17.44,20,20,0,0,1-5.36,0,11.62,11.62,0,0,1-2.95-.8l.1-.07c.51-.29,1.24-.3,1-.4a3.46,3.46,0,0,0-3.3.61,2.26,2.26,0,0,1,2.64,1c1.36,2.57,2.8,4.31,5.25,4.36,3.19.07,3.94-2,4.39-3.44a2.87,2.87,0,0,1,.81-1.28,4.08,4.08,0,0,1,1.39-1,2.76,2.76,0,0,1,1.14-.2C30,20.85,28.52,21,27.72,21.33Z" transform="translate(-6.92 0)"/>
        <path class="cls-16" d="M17.94,22.64s1.47,3.77,5.25,3.61c2.56-.1,3.63-1.33,4-2.41a2.26,2.26,0,0,1,1-1.44A14.86,14.86,0,0,1,17.94,22.64Z" transform="translate(-6.92 0)"/>
        <path class="cls-17" d="M19.19,23a2,2,0,0,0,1.25,1.66,7.89,7.89,0,0,0,4.89.23c1.14-.29,1.75-2.1,1.75-2.1A17.14,17.14,0,0,1,19.19,23Z" transform="translate(-6.92 0)"/>
        <path class="cls-17" d="M24,24.92a11.07,11.07,0,0,1-3.78-.5c-.64-.25-.64.09-.51.39,0,0,.24,1.24,3.2,1.48,2.58.2,3.66-1.35,3.36-1.67S25.61,24.91,24,24.92Z" transform="translate(-6.92 0)"/>
        <path class="cls-18" d="M19.18,23a1.62,1.62,0,0,0,.45,1.08s5.44-.54,6.82-.06a3.76,3.76,0,0,0,.63-1.22A19,19,0,0,1,19.18,23Z" transform="translate(-6.92 0)"/>
        <path class="cls-18" d="M20.54,24.43a7.55,7.55,0,0,0,5.36.12A11.6,11.6,0,0,1,20.54,24.43Z" transform="translate(-6.92 0)"/>
      </g>
      <path class="cls-8" d="M28.94,19.76a1.38,1.38,0,0,0-.69.2c-.37.27.12.19.32.32.46.29.05.89-.37.9-.72,0-1.43,0-2.15.07a65.45,65.45,0,0,1-6.57.22c-.49,0-1.42.11-1.82-.22-.6-.5.88-.89.12-1-.52-.11-1.22.53-1.43.95a1.8,1.8,0,0,0-.08.21c-.2.92.56,1.47,1.25,1.89a3.42,3.42,0,0,0,2,.36,14.28,14.28,0,0,1,2.07.1,16,16,0,0,0,2.07.11c.69,0,1.35-.14,2-.21,1.22-.12,2.26,0,3.26-.85a1.93,1.93,0,0,0,.9-1.75C29.83,20.43,29.63,19.77,28.94,19.76Z" transform="translate(-6.92 0)"/>
      <path class="cls-6" d="M28.05,20.06c.48-.27.9,0,.87.36-.05.5-.68.43-1,.38-1.11-.15-2.26-.6-3.4-.28-1.49.41-2.48-.16-4,0a20.76,20.76,0,0,0-2.27.49c-.38.09-.87.14-.94-.28a.44.44,0,0,1,.73-.36c-.16-.36-.84-.47-1.16-.36a.88.88,0,0,0-.62,1.09c.12.75,1.16,1.28,1.79,1.55a13.26,13.26,0,0,0,3,.79,14.33,14.33,0,0,0,2.17.18,11.68,11.68,0,0,0,2.29-.2,8.07,8.07,0,0,0,2.73-1c.65-.4,1.64-.92,1.59-1.9A1,1,0,0,0,28.05,20.06Z" transform="translate(-6.92 0)"/>
      <path class="cls-19" d="M9.14,10.12c-.07.86,1.7,1.69,2.35,1.83a3.84,3.84,0,0,1-1.31,0c-.46-.08-.95-.43-1.42-.41.09,1,1.68,1.33,2.44,1.7a3.26,3.26,0,0,1-.88.05c-.22,0-.62-.17-.84-.09-.64.23-.47,1.72-.43,2.23.08.88.61,1.89,1.33.43C10.08,18,12.16,21.5,12,20.08a18.24,18.24,0,0,1,.29-4.67,17.2,17.2,0,0,1,.43-2.23c.05-.17.56-2.12.55-2.12-.43,0-.85-.08-1.28-.13C11,10.8,10.15,10.23,9.14,10.12Z" transform="translate(-6.92 0)"/>
      <path class="cls-19" d="M23.89,10.13a38.88,38.88,0,0,1-11.4-.4A36.94,36.94,0,0,0,25.1,11.16c6.1-.61,5.3-2.52,5.3-2.52S30.41,9.45,23.89,10.13Z" transform="translate(-6.92 0)"/>
      <path class="cls-19" d="M26.67,21.05a4,4,0,0,0-2.4,0,2.73,2.73,0,0,1-2.35,0c-1.1-.51-3.66.23-3.33.66s1.52.27,1.52.27a.8.8,0,0,0,.49.72c.48.15,1.41-.47,1.41-.47a.65.65,0,0,0,.6.72c.65.06,1.24-.69,1.24-.69s.39.72,1,.64a.64.64,0,0,0,.61-.68,2.22,2.22,0,0,0,1.28.29c.49-.13.24-.82.24-.82a1.52,1.52,0,0,0,1.28,0C29.05,21.32,27.56,21.26,26.67,21.05Z" transform="translate(-6.92 0)"/>
      <path class="cls-19" d="M12.19,6.27C14,8,16.62,7.83,18.88,7.58c-1.51,1-6.26.63-8.37-.07,1.61,1,3.69,1.79,8.56,2.18a21.1,21.1,0,0,0,9.75-1.4,9,9,0,0,0,3.42-2.35C31,5.44,25.82,1.91,22,1.08,14.89-.46,9.72,3.89,12.19,6.27Z" transform="translate(-6.92 0)"/>
    </g>
  </g>
</svg>
