<svg id="레이어_1" data-name="레이어 1" xmlns="http://www.w3.org/2000/svg" viewBox="0 0 40 40">
  <defs>
    <style>
      .cls-1 {
        stroke: #000;
        stroke-miterlimit: 10;
        stroke-width: 0.75px;
      }
    </style>
  </defs>
  <title>1</title>
  <path d="M20,40A20,20,0,1,1,40,20,20,20,0,0,1,20,40ZM20,3.66A16.34,16.34,0,1,0,36.34,20,16.36,16.36,0,0,0,20,3.66Z"/>
  <path class="cls-1" d="M19,20.27a15.39,15.39,0,0,0,2.19,2.55,26.68,26.68,0,0,0,2.63,2.12l-2.11,2.19c-.89-.71-1.7-1.42-2.43-2.11a18.92,18.92,0,0,1-2-2.31,19.62,19.62,0,0,1-3,2.84,27.32,27.32,0,0,1-3.41,2.23L8.87,25.69a21.42,21.42,0,0,0,3.17-2,20.8,20.8,0,0,0,2.63-2.35,14.13,14.13,0,0,0,1.9-2.5,7.28,7.28,0,0,0,.94-2.45c-.76,0-1.51.05-2.26.05H10.19V13.87h7.88c1,0,2,0,3.05,0a16.14,16.14,0,0,1-.76,3.44A16.56,16.56,0,0,1,19,20.27Zm-6.88-8V9.69H19.6V12.3Zm19,7.8H27.5V31.92H24.42V8.9H27.5v8.57h3.6Z"/>
</svg>
