<svg id="레이어_1" data-name="레이어 1" xmlns="http://www.w3.org/2000/svg" xmlns:xlink="http://www.w3.org/1999/xlink" viewBox="0 0 28.15 39.91">
  <defs>
    <style>
      .cls-1 {
        fill: #e8e8e8;
      }

      .cls-2 {
        fill: #313142;
      }

      .cls-3 {
        fill: #f5f5f5;
      }

      .cls-4 {
        fill: url(#linear-gradient);
      }

      .cls-5 {
        fill: #fff;
        opacity: 0.07;
      }

      .cls-6 {
        fill: #fdd281;
      }

      .cls-7 {
        fill: #ffa763;
      }

      .cls-17, .cls-8 {
        fill: #c4170e;
      }

      .cls-8 {
        opacity: 0.2;
      }

      .cls-9 {
        fill: #b54319;
        opacity: 0.5;
      }

      .cls-10 {
        fill: #ffebbd;
      }

      .cls-11 {
        fill: #ffc48f;
      }

      .cls-12 {
        fill: #305d80;
      }

      .cls-13 {
        fill: #86bae3;
      }

      .cls-14 {
        fill: #6e4c3c;
      }

      .cls-15 {
        fill: #121b21;
      }

      .cls-16 {
        opacity: 0.35;
      }

      .cls-18 {
        fill: #8f2621;
      }

      .cls-19 {
        fill: #fff9f0;
      }

      .cls-20 {
        fill: #e8dac5;
      }
    </style>
    <linearGradient id="linear-gradient" x1="21.1" y1="30.33" x2="21.1" y2="32.57" gradientUnits="userSpaceOnUse">
      <stop offset="0" stop-color="#e88958"/>
      <stop offset="0.34" stop-color="#f49d62"/>
      <stop offset="0.69" stop-color="#fcab69"/>
      <stop offset="1" stop-color="#ffb06b"/>
    </linearGradient>
  </defs>
  <title>1</title>
  <g>
    <g>
      <path class="cls-1" d="M18.07,34.31l-1-2.06c-1.4.72-1.76,2.36-2.15,4.1-.12.59-.5,2.22-.88,3.65h2.38c.31-1.29.63-2.7.73-3.15C17.36,35.71,17.62,34.54,18.07,34.31Z" transform="translate(-5.4 -0.09)"/>
      <path class="cls-1" d="M25.15,32.25l-1,2.06c.44.23.7,1.4.95,2.54.1.45.42,1.86.74,3.15h2.37c-.37-1.43-.75-3.06-.88-3.65C26.92,34.61,26.56,33,25.15,32.25Z" transform="translate(-5.4 -0.09)"/>
      <path class="cls-1" d="M25.12,32.16c-1.67-1.7-6-1.56-7.87-.12s.06,5.27.36,8h7.08C24.75,36.32,27,34.09,25.12,32.16Z" transform="translate(-5.4 -0.09)"/>
      <path class="cls-2" d="M25.25,36.73a7.87,7.87,0,0,1-.15-4.59c-1.67-1.67-6.24-1.53-8.14,0a7.3,7.3,0,0,1-.17,4.28A19.77,19.77,0,0,1,17.52,40h7.26A10.16,10.16,0,0,1,25.25,36.73Z" transform="translate(-5.4 -0.09)"/>
      <path class="cls-3" d="M23.2,30.76a6.59,6.59,0,0,0-4.49.06c-2.2,1,.14,4.47.14,4.47l2.36-.6,2.36.52S25.35,31.67,23.2,30.76Z" transform="translate(-5.4 -0.09)"/>
      <path class="cls-4" d="M23.23,31.08c-.39-.31-.3-1.25-.23-2.35.14-2.49-4.14-2.58-4.13.14,0,1.2,0,1.95-.28,2.28-.62.65-.56,1.77,2.56,3.22C22.86,33.52,25.07,32.56,23.23,31.08Z" transform="translate(-5.4 -0.09)"/>
      <path class="cls-5" d="M23,35.67a7.15,7.15,0,0,1-4.22-.07c-.76-.2-1.2.72-1,1.51.31,1,1.9,1.31,3.29,1.29,2.73,0,3.76-1.13,3.29-2.41C24.24,35.64,23.66,35.41,23,35.67Z" transform="translate(-5.4 -0.09)"/>
    </g>
    <g>
      <path class="cls-6" d="M9.74,7.38c-1.81,4.75-2,8.43-3.22,16-.31,1.9-1.51,4.83-1,6,.72,1.62,2.56.69,4.07,1.19s3.45,1.3,3.84-1a3.58,3.58,0,0,1,.17,1.41c1.27,0,5.62-1.35,8.56-1.23,2.61.11,8,2.49,9.13-.53.83-2.25,1.64-12.21,1.29-15.47,0-.2.78-.48.8-.65.08-.58.13-1,.14-1.15C34.24-1.1,14.24-4.47,9.74,7.38Z" transform="translate(-5.4 -0.09)"/>
      <path class="cls-7" d="M20.05,5.66c-5.08.9-8.77,8.15-8,15,.59,5.1,5.21,10.19,10.14,10.28,5.22.08,9.45-7.84,8.8-13.9C30.3,10.18,27.16,4.4,20.05,5.66Z" transform="translate(-5.4 -0.09)"/>
      <path class="cls-8" d="M28.91,7.73a23.77,23.77,0,0,0-8.42-2c-1.85-.08-4.33-.24-6.07.48a6.25,6.25,0,0,0-4.16,5.39c-.27,1.78,1.48,3.52,2.84,4.66,1-.94.55-2.24.54-3.37.21,1.29,1.26.93,2.37,1s2.66.52,3.57.05c.4-.22.48-.51.64-.94a1.53,1.53,0,0,0,.54.45,5.89,5.89,0,0,0,2.26.28,8.71,8.71,0,0,0,3.26-.14c.46-.15.73-.28.87-.8.16,1.1,1.81.94,2.7.92C33.74,13.7,31,8.62,28.91,7.73Z" transform="translate(-5.4 -0.09)"/>
      <path class="cls-7" d="M10.37,17.8c-2.5.64-1.57,4.31.45,5.08a4.93,4.93,0,0,0,2,.25.21.21,0,0,1,0-.06c.3-.47-.07-3.13-.21-3.64C12.3,18.17,11.57,17.49,10.37,17.8Z" transform="translate(-5.4 -0.09)"/>
      <path class="cls-9" d="M11.22,19.16c-.56-.27-2,.17-1.32,1.28.36-1,1-.33.86.39-.07.48-.59.48-.09,1.11.27.34.84.23,1.13,0C12.71,21.44,11.89,19.49,11.22,19.16Z" transform="translate(-5.4 -0.09)"/>
      <path class="cls-6" d="M27.43,4.38C24.67,1.94,21,1.9,17.57,2.44a14.89,14.89,0,0,0-4.4,1.15c-1,.55-1.47,1.91-2,2.93a18.33,18.33,0,0,0-1.38,6,18.22,18.22,0,0,0,.38,3.26c.09,1.05.54,2,.72,3a9.28,9.28,0,0,1-.38,4.7c-.22.63-.73,1.16-.28,1.74s1.25.67,1.64.27a19.31,19.31,0,0,0,1.16-3.87A25.77,25.77,0,0,0,13.39,16,13.74,13.74,0,0,1,14,11a20.93,20.93,0,0,0,.22,2.31c1.71-.18,3.54,0,5.26-.05a6.62,6.62,0,0,0,.59-1.74v0s0,0,0,0v0c.11.32.22,1,.44,1.18.41.34,1.61.16,2.11.2.93.08,2.52.44,3.43.06.59-.24.68-.79.84-1.39h0c.18.31.25.86.54,1a5.9,5.9,0,0,0,1.7.34,13.76,13.76,0,0,0,2,0c1.36-.23.43-2.65.09-3.52A14,14,0,0,0,27.43,4.38Z" transform="translate(-5.4 -0.09)"/>
      <path class="cls-6" d="M20.08,11.49v0S20.08,11.47,20.08,11.49Z" transform="translate(-5.4 -0.09)"/>
      <path class="cls-6" d="M26.91,11.58Z" transform="translate(-5.4 -0.09)"/>
      <path class="cls-10" d="M19.28,1.2c-2.61.23-6.35,2.27-7.55,4.6A42.33,42.33,0,0,0,7.61,22.86c-.08,1.49-1,3.74-.91,5.11s.67,1.29,1.68.6c1.31-.91-.05-5.79.24-8.81.23-2.38,2.19-2.46,2.89-5.59A30.8,30.8,0,0,1,9.75,28.51c5.67-9.25,1.42-14.17,4.41-20.38a4.78,4.78,0,0,0,5.32,1.15,8.25,8.25,0,0,1,5.71-.07,8.68,8.68,0,0,0,7.21.2C31.13,2.73,24,.77,19.28,1.2Z" transform="translate(-5.4 -0.09)"/>
    </g>
    <g>
      <path class="cls-11" d="M28.5,19.07c-.79-.13-1.87,0-1.35,1.23.28.65,3.34,1.59,3.18.15a1,1,0,0,0-.11-.4A2.28,2.28,0,0,0,28.5,19.07Z" transform="translate(-5.4 -0.09)"/>
      <path class="cls-11" d="M18.05,19.48a2.35,2.35,0,0,0-2.07-.1c-.8.25-1.76.88-.69,1.78.57.49,3.88-.09,3.06-1.36A1.32,1.32,0,0,0,18.05,19.48Z" transform="translate(-5.4 -0.09)"/>
      <path class="cls-9" d="M23.24,20.24c-.66,0-.64-.4-1.12-.13s-.12,1.3,1,1.35,1.7-.8,1.47-1.16S24,20.29,23.24,20.24Z" transform="translate(-5.4 -0.09)"/>
      <path class="cls-11" d="M23.07,18.33c-.53,0-1.33,1.82-1.06,2.09a2.12,2.12,0,0,0,2.56-.1C24.74,20.14,23.68,18.32,23.07,18.33Z" transform="translate(-5.4 -0.09)"/>
      <path class="cls-12" d="M29.18,16.28c-1.8-.77-3.45,1.46-2.15,2.63a2.36,2.36,0,0,1,2.55-.09A1.61,1.61,0,0,0,29.18,16.28Z" transform="translate(-5.4 -0.09)"/>
      <path class="cls-13" d="M29.38,17.54c-.49.15-.26,1.1.25.77S29.82,17.4,29.38,17.54Z" transform="translate(-5.4 -0.09)"/>
      <path class="cls-13" d="M27.69,16.55c-.84.26-.44,1.88.42,1.31C28.73,17.45,28.44,16.31,27.69,16.55Z" transform="translate(-5.4 -0.09)"/>
      <path class="cls-12" d="M15.76,16.43A1.6,1.6,0,0,0,15.44,19,2.34,2.34,0,0,1,18,19C19.24,17.79,17.54,15.6,15.76,16.43Z" transform="translate(-5.4 -0.09)"/>
      <path class="cls-13" d="M15.59,17.69c-.44-.13-.59.55-.22.78S16.09,17.83,15.59,17.69Z" transform="translate(-5.4 -0.09)"/>
      <path class="cls-13" d="M17.25,16.65c-.75-.21-1,.93-.37,1.33C17.75,18.52,18.1,16.89,17.25,16.65Z" transform="translate(-5.4 -0.09)"/>
      <path class="cls-14" d="M18.2,13.84a9.73,9.73,0,0,0-2.62.4,4.4,4.4,0,0,0-1.59.87c-.13.13-.3.34-.27.52.14,0,.25-.1.37-.14a8.11,8.11,0,0,1,2.06-.42c.53-.06,1.07-.08,1.6-.15.36-.05.86,0,1-.4S18.68,13.81,18.2,13.84Z" transform="translate(-5.4 -0.09)"/>
      <path class="cls-14" d="M29.05,14.09a9.56,9.56,0,0,0-2.55-.35c-.47,0-.77.22-.57.67s.64.32,1,.36c.53.07,1,.07,1.57.13a7.44,7.44,0,0,1,2,.37c.13,0,.23.14.37.13,0-.17-.13-.37-.26-.49A4.28,4.28,0,0,0,29.05,14.09Z" transform="translate(-5.4 -0.09)"/>
      <path class="cls-15" d="M28.82,16a1.87,1.87,0,0,0-2.13,1.34,1.69,1.69,0,0,1,1.88-.58A3.05,3.05,0,0,0,32.32,16C30.57,16.86,29.67,16.13,28.82,16Z" transform="translate(-5.4 -0.09)"/>
      <path class="cls-15" d="M16.18,16.15c-.85.17-1.74.91-3.5.11a3,3,0,0,0,3.75.65,1.68,1.68,0,0,1,1.89.56A1.87,1.87,0,0,0,16.18,16.15Z" transform="translate(-5.4 -0.09)"/>
      <g>
        <g class="cls-16">
          <path class="cls-17" d="M15.71,22.65c2.84,4.19,4.56,4.94,6.73,5a3.68,3.68,0,0,0,4-2.94,7.87,7.87,0,0,1,2.05-2.31c-1.68.4-3.35.23-5.91.34C20.48,22.87,17.39,23.5,15.71,22.65Z" transform="translate(-5.4 -0.09)"/>
        </g>
        <path class="cls-18" d="M17,23.37a6.34,6.34,0,0,0,5.09,2.84c2.17,0,3.58-.68,4-1.65a2.79,2.79,0,0,1,1.34-1.45A23.2,23.2,0,0,1,17,23.37Z" transform="translate(-5.4 -0.09)"/>
        <path class="cls-19" d="M18.26,23.6s.11.86,1.32,1.18a11.76,11.76,0,0,0,4.92.13c1.15-.18,1.7-1.54,1.7-1.54A24.69,24.69,0,0,1,18.26,23.6Z" transform="translate(-5.4 -0.09)"/>
        <path class="cls-19" d="M22.93,25.05a7.06,7.06,0,0,1-3.61-.47c-.55-.33-.6,0-.48.26,0,0,.52,1.17,3.09,1.41s3.72-1.2,3.44-1.44S24.37,25,22.93,25.05Z" transform="translate(-5.4 -0.09)"/>
        <path class="cls-20" d="M18.26,23.6a1.42,1.42,0,0,0,.31.61s5.78-.54,7.17-.08a2.68,2.68,0,0,0,.46-.76A28.45,28.45,0,0,1,18.26,23.6Z" transform="translate(-5.4 -0.09)"/>
        <path class="cls-20" d="M19.79,24.75a5.81,5.81,0,0,0,4.55.12A8.64,8.64,0,0,1,19.79,24.75Z" transform="translate(-5.4 -0.09)"/>
      </g>
    </g>
  </g>
</svg>
