<svg id="레이어_1" data-name="레이어 1" xmlns="http://www.w3.org/2000/svg" viewBox="0 0 40.03 40">
  <defs>
    <style>
      .cls-1 {
        fill: #ffda00;
      }

      .cls-1, .cls-2, .cls-3 {
        fill-rule: evenodd;
      }

      .cls-2 {
        fill: #576d64;
      }
    </style>
  </defs>
  <title>1</title>
  <g>
    <polygon class="cls-1" points="14.97 20.18 14.97 29.62 17.52 29.37 17.45 38.66 24.4 26.21 20.02 26.12 23.41 20 14.97 20.18"/>
    <polygon class="cls-2" points="6.01 8.78 2.6 11.63 0.43 16.16 1.36 19.7 4.81 22.11 14.61 22.91 15.19 20.36 23.41 20 22.07 23.24 32.76 23.49 36.4 22.21 38.76 19.76 39.1 15.91 37.82 12.13 35.02 10.2 33.18 9.42 31.23 6.42 28.38 5.24 25.23 5.04 24.2 5.04 21.02 1.84 18.05 1.1 13.8 1.01 10.27 2.43 7.81 5.43 6.01 8.78"/>
    <path class="cls-1" d="M19.46,36.11a6.05,6.05,0,0,0-.52-1.2l-.62-1.28c-.17-.37-.7,0-.53.33s.37.81.55,1.21a6.23,6.23,0,0,0,.6,1.18A.29.29,0,0,0,19.46,36.11Z" transform="translate(0 0)"/>
    <path class="cls-1" d="M18.26,30.29c-.3-.39-1,0-.66.41a14.22,14.22,0,0,1,1,1.6A16.13,16.13,0,0,0,19.52,34c.2.27.76.2.7-.2A8.83,8.83,0,0,0,18.26,30.29Z" transform="translate(0 0)"/>
    <path class="cls-1" d="M17.4,29.3c-.46-.73-1-1.39-1.57-2.07-.27-.34-.86,0-.59.36a26.26,26.26,0,0,0,1.66,2.12C17.16,30,17.6,29.61,17.4,29.3Z" transform="translate(0 0)"/>
    <path class="cls-1" d="M21.34,30.62a13.7,13.7,0,0,0-2.42-2.81l-2.76-3c-.37-.4-.94.21-.58.61l2.7,3a13.25,13.25,0,0,0,2.57,2.66C21.2,31.34,21.48,30.93,21.34,30.62Z" transform="translate(0 0)"/>
    <path class="cls-1" d="M22.5,29a22.51,22.51,0,0,0-3.06-3.27,43.19,43.19,0,0,1-3.53-4c-.33-.44-1.08,0-.74.46A42.69,42.69,0,0,0,18.41,26a24,24,0,0,0,3.53,3.53C22.3,29.8,22.72,29.29,22.5,29Z" transform="translate(0 0)"/>
    <path class="cls-1" d="M20.68,24.46a23.33,23.33,0,0,0-4.06-4.19c-.41-.37-1,.24-.59.61.7.66,1.38,1.33,2,2S19.3,24.38,20,25A.44.44,0,0,0,20.68,24.46Z" transform="translate(0 0)"/>
    <path class="cls-1" d="M23.73,27.09a5.35,5.35,0,0,0-1.06-1c-.41-.37-1,.24-.59.61a5.65,5.65,0,0,0,1.14.94A.39.39,0,0,0,23.73,27.09Z" transform="translate(0 0)"/>
    <path class="cls-1" d="M21.9,22.56a7.44,7.44,0,0,0-1.32-1.37c-.48-.47-1-.92-1.46-1.37a.43.43,0,0,0-.59.62c.48.47.95.94,1.41,1.42a8.54,8.54,0,0,0,1.37,1.32C21.7,23.42,22.12,22.92,21.9,22.56Z" transform="translate(0 0)"/>
    <path class="cls-1" d="M23.06,21.27a7,7,0,0,0-1.3-1.36c-.41-.39-1,.23-.6.64a7.23,7.23,0,0,0,1.38,1.27A.4.4,0,0,0,23.06,21.27Z" transform="translate(0 0)"/>
    <path class="cls-2" d="M5.36,21.22c-.65-2.55-2.17-5.09-3.24-7.49-.28-.62-1.32-.33-1,.32,1,2.46,1.89,5.35,3.34,7.6A.52.52,0,0,0,5.36,21.22Z" transform="translate(0 0)"/>
    <path class="cls-2" d="M8.88,22c-1.34-3.64-3.09-7.18-4.64-10.74-.29-.66-1.38-.35-1.09.33C4.67,15.21,6.05,19,7.78,22.49,8.08,23.1,9.12,22.64,8.88,22Z" transform="translate(0 0)"/>
    <path class="cls-2" d="M12.06,22.08c-1.43-4.18-3.53-8.24-5.29-12.3-.29-.66-1.37-.35-1.09.33,1.71,4.14,3.19,8.51,5.22,12.5C11.23,23.25,12.29,22.77,12.06,22.08Z" transform="translate(0 0)"/>
    <path class="cls-2" d="M15.17,19.82C13.68,15,10.6,10.41,8.33,5.94c-.31-.6-1.15-.05-.87.54,2.12,4.47,3.91,9.73,6.76,13.77A.53.53,0,0,0,15.17,19.82Z" transform="translate(0 0)"/>
    <path class="cls-2" d="M18.72,19c-2-5.54-4.81-10.89-7.25-16.27-.25-.55-1.21-.13-1,.43,2.31,5.44,4.4,11.09,7.09,16.35A.63.63,0,0,0,18.72,19Z" transform="translate(0 0)"/>
    <path class="cls-2" d="M23,19.74c-2.33-6.32-5.56-12.41-8.37-18.52-.21-.45-1-.1-.8.36C16.54,7.74,19,14.2,22.13,20.13A.48.48,0,0,0,23,19.74Z" transform="translate(0 0)"/>
    <path class="cls-2" d="M24.63,23.12c-.23-.55-.56-1-.78-1.59s-1.1-.31-.9.27a5.77,5.77,0,0,0,.89,1.81C24.14,24,24.82,23.55,24.63,23.12Z" transform="translate(0 0)"/>
    <path class="cls-2" d="M28.94,22.67A229.14,229.14,0,0,0,18.6,1.26c-.26-.49-1,0-.72.44,3.54,7,6.66,14.16,9.78,21.36C28,23.83,29.26,23.47,28.94,22.67Z" transform="translate(0 0)"/>
    <path class="cls-2" d="M32.35,23.17C29.9,17,27.12,10.84,24.49,4.69c-.22-.52-1.08-.28-.86.26,2.5,6.19,4.85,12.47,7.51,18.59C31.46,24.27,32.66,23.94,32.35,23.17Z" transform="translate(0 0)"/>
    <path class="cls-2" d="M35.85,21.74a169.9,169.9,0,0,0-7-16.47c-.23-.49-1.1-.11-.87.39,2.4,5.41,4.44,10.94,6.6,16.45C34.92,22.87,36.12,22.53,35.85,21.74Z" transform="translate(0 0)"/>
    <path class="cls-2" d="M38.8,19.5c-1-3.5-3.12-6.94-4.73-10.21-.3-.59-1.13,0-.86.53,1.54,3.31,2.75,7,4.62,10.11A.54.54,0,0,0,38.8,19.5Z" transform="translate(0 0)"/>
    <path class="cls-3" d="M38.57,12a7.7,7.7,0,0,0-1.93-1.89A20.66,20.66,0,0,0,34.28,9c-1-.54-1.52-1.88-2.37-2.68a8.3,8.3,0,0,0-7.24-2.05A10.65,10.65,0,0,0,14.2.19,10.75,10.75,0,0,0,8.56,3.3,10.92,10.92,0,0,0,6.78,5.85C6.48,6.42,6.28,7,6,7.59A3.46,3.46,0,0,1,4.45,9.16C1.08,11.27-1.21,15.53.69,19.38c2.06,4.17,8,4.23,12,4.31l1.48,0c0,2,0,4,.09,6a.67.67,0,0,0,.68.65l2-.18q0,4.61-.39,9.2c-.06.68,1,.85,1.26.31q3.61-6.66,7.46-13.2a.67.67,0,0,0-.59-1c-1.22.11-2.43.16-3.64.16.38-.58.76-1.16,1.13-1.75.69,0,1.38,0,2.06,0H27a51.3,51.3,0,0,0,5.81.08A7.83,7.83,0,0,0,40,17.19,7.52,7.52,0,0,0,38.57,12ZM14.23,22.37C9.68,22.31.86,22.51,1.39,16A7,7,0,0,1,3.16,12a16.17,16.17,0,0,1,3-2.25A4.92,4.92,0,0,0,7.59,7.47,10.93,10.93,0,0,1,9.91,4,9.2,9.2,0,0,1,23.8,5.42a.69.69,0,0,0,.78.3,7,7,0,0,1,5.25.77,6.59,6.59,0,0,1,2.08,1.92,5.94,5.94,0,0,0,1,1.41,11.35,11.35,0,0,0,2.21.93,6.44,6.44,0,0,1,3.52,6.69,6.64,6.64,0,0,1-2.84,4.27c-1.68,1.13-3.57,1.14-5.52,1.06l-.61,0q-3.35-.15-6.7-.22a18.5,18.5,0,0,0,.93-1.83s0,0,0-.06.15-.24.23-.36a.58.58,0,0,0-.52-.85c-2.9,0-5.8.07-8.7.09a.66.66,0,0,0-.63.65c0,.74-.08,1.47-.1,2.2Zm9.26,4.54q-2.74,4.68-5.38,9.43c.14-2.3.2-4.61.16-6.92a.66.66,0,0,0-.68-.65l-2,.19c-.11-2.73-.09-5.45,0-8.18l7.09-.18A56.12,56.12,0,0,0,19.26,26a.67.67,0,0,0,.59,1C21.07,27,22.28,27,23.49,26.91Z" transform="translate(0 0)"/>
  </g>
</svg>
