<svg id="레이어_1" data-name="레이어 1" xmlns="http://www.w3.org/2000/svg" viewBox="0 0 40 39.83">
  <defs>
    <style>
      .cls-1, .cls-5 {
        fill: #ff9500;
      }

      .cls-2, .cls-6 {
        fill: #e3ca95;
      }

      .cls-3 {
        fill: #0000ce;
      }

      .cls-3, .cls-4, .cls-5, .cls-6, .cls-7 {
        fill-rule: evenodd;
      }

      .cls-4 {
        fill: #ec331e;
      }
    </style>
  </defs>
  <title>1</title>
  <g>
    <circle class="cls-1" cx="19.71" cy="19.78" r="19.21"/>
    <ellipse class="cls-2" cx="19.84" cy="19.88" rx="14.78" ry="15.19"/>
    <polygon class="cls-3" points="18.01 18.3 12.12 28.39 21.89 22.48 18.01 18.3"/>
    <polygon class="cls-4" points="18.3 18.25 27.75 11.98 21.89 22.48 18.3 18.25"/>
    <path class="cls-5" d="M7.2,5.13c-2.28,3.55-5,7.3-6.52,11.22a.51.51,0,0,0,.89.49C4,13.3,5.79,9.26,8,5.6,8.36,5.07,7.53,4.62,7.2,5.13Z" transform="translate(0 0)"/>
    <path class="cls-5" d="M11.28,2.55A160.71,160.71,0,0,0,.41,22.73c-.3.7.7,1.29,1.05.59C4.92,16.47,8.17,9.61,12.05,3,12.35,2.49,11.57,2.07,11.28,2.55Z" transform="translate(0 0)"/>
    <path class="cls-5" d="M16.06.94C15,2.61,13.7,4.24,12.72,6c-.27.49.46,1.06.82.59C14.78,5,15.81,3.14,16.92,1.42,17.26.89,16.41.43,16.06.94Z" transform="translate(0 0)"/>
    <path class="cls-5" d="M4.61,22.75,3,25.34a13.16,13.16,0,0,0-1.35,2.43.51.51,0,0,0,.86.47A12.41,12.41,0,0,0,4,25.89l1.53-2.62C5.92,22.67,5,22.15,4.61,22.75Z" transform="translate(0 0)"/>
    <path class="cls-5" d="M20,.92c-.26.62-.54,1.23-.86,1.82s-.75,1.13-1,1.73.46,1.18.91.67a12.88,12.88,0,0,0,2-3.82C21.19.74,20.19.34,20,.92Z" transform="translate(0 0)"/>
    <path class="cls-5" d="M6.38,27.62,5.09,29.68a3.66,3.66,0,0,0-.89,1.87.46.46,0,0,0,.68.37c.61-.29.91-1.11,1.25-1.67l1.25-2.07C7.77,27.55,6.76,27,6.38,27.62Z" transform="translate(0 0)"/>
    <path class="cls-5" d="M23.78,1.54c-.39.63-.77,1.27-1.13,1.91a4.87,4.87,0,0,0-.77,1.8c-.05.46.57.57.84.32a6,6,0,0,0,1-1.68c.33-.61.67-1.22,1-1.82S24.15.94,23.78,1.54Z" transform="translate(0 0)"/>
    <path class="cls-5" d="M9,31,7.74,33c-.35.57-1,1.19-.87,1.88a.46.46,0,0,0,.58.43c.68-.26.93-1,1.28-1.6L10,31.53C10.38,30.89,9.39,30.36,9,31Z" transform="translate(0 0)"/>
    <path class="cls-5" d="M28,2.8C27.37,3.94,26.53,5,25.89,6.11a.5.5,0,0,0,.8.58,15.62,15.62,0,0,0,2.19-3.41A.5.5,0,0,0,28,2.8Z" transform="translate(0 0)"/>
    <path class="cls-5" d="M12.57,33.93a20.94,20.94,0,0,0-1.63,3.33c-.13.45.53.85.83.46a20.89,20.89,0,0,0,1.74-3.27C13.81,33.83,12.89,33.32,12.57,33.93Z" transform="translate(0 0)"/>
    <path class="cls-5" d="M31.09,5c-.28.47-.57.92-.86,1.38a4.91,4.91,0,0,0-.71,1.36.45.45,0,0,0,.76.42,5,5,0,0,0,.88-1.26L32,5.52C32.35,5,31.44,4.45,31.09,5Z" transform="translate(0 0)"/>
    <path class="cls-5" d="M16.43,34.94l-1,1.76a5.81,5.81,0,0,0-.84,1.69.47.47,0,0,0,.78.44,5.58,5.58,0,0,0,1-1.61c.33-.59.65-1.19,1-1.78A.51.51,0,0,0,16.43,34.94Z" transform="translate(0 0)"/>
    <path class="cls-5" d="M34.14,7.22l-1.2,2.15a6.93,6.93,0,0,0-1,2.05.45.45,0,0,0,.76.43A6.75,6.75,0,0,0,33.9,9.91l1.18-2.18A.54.54,0,0,0,34.14,7.22Z" transform="translate(0 0)"/>
    <path class="cls-5" d="M20.27,35.07c-.32.56-.63,1.13-.94,1.7a7.71,7.71,0,0,0-.82,1.62.46.46,0,0,0,.78.43,8.46,8.46,0,0,0,.93-1.56l.91-1.71A.49.49,0,0,0,20.27,35.07Z" transform="translate(0 0)"/>
    <path class="cls-5" d="M36.52,10.56c-.47.89-1,1.78-1.43,2.67a10.24,10.24,0,0,0-1.21,2.49.47.47,0,0,0,.78.43A10.73,10.73,0,0,0,36,13.75c.45-.91.91-1.8,1.37-2.7A.5.5,0,0,0,36.52,10.56Z" transform="translate(0 0)"/>
    <path class="cls-5" d="M23.94,34.56l-1.17,2.21a8.3,8.3,0,0,0-1,2.08.47.47,0,0,0,.79.44,8.29,8.29,0,0,0,1.14-2l1.14-2.22C25.13,34.48,24.25,34,23.94,34.56Z" transform="translate(0 0)"/>
    <path class="cls-5" d="M29.27,32c-.06.12-.13.24-.18.37a1.26,1.26,0,0,1-1.25.77c-.8,1.6-1.6,3.21-2.38,4.82-.32.67.67,1.24,1,.57,1.24-2.3,2.43-4.62,3.61-7A7.27,7.27,0,0,1,29.27,32Z" transform="translate(0 0)"/>
    <path class="cls-5" d="M37.78,14c-1,2-2.1,4-3.16,6a6.12,6.12,0,0,1,.4,1.54c1.17-2.39,2.34-4.77,3.53-7.14C38.8,14,38,13.52,37.78,14Z" transform="translate(0 0)"/>
    <path class="cls-5" d="M38.68,17.48c-2.25,5.92-5,11.59-7.63,17.31-.29.61.6,1.11.91.51a140.75,140.75,0,0,0,7.47-17.63C39.6,17.2,38.85,17,38.68,17.48Z" transform="translate(0 0)"/>
    <path class="cls-6" d="M12.53,6.91,8.46,12.84C7.29,14.56,5.68,16.3,5,18.29a.45.45,0,0,0,.76.42,39.68,39.68,0,0,0,3.61-5.34q2-3,3.92-6C13.66,6.85,12.86,6.43,12.53,6.91Z" transform="translate(0 0)"/>
    <path class="cls-6" d="M16.34,5.43C12.83,11.3,9.14,17.06,5.55,22.88c-.42.69.66,1.27,1.08.6,3.68-5.76,7.08-11.7,10.46-17.63A.43.43,0,0,0,16.34,5.43Z" transform="translate(0 0)"/>
    <path class="cls-6" d="M19.45,5c-4,7.37-7.83,14.85-12.27,22-.43.69.65,1.26,1.09.6,4.6-7,8.12-14.74,11.94-22.15A.43.43,0,0,0,19.45,5Z" transform="translate(0 0)"/>
    <path class="cls-6" d="M22.75,5.58c-4.58,7.91-9.59,15.61-14,23.6-.37.66.6,1.17,1,.56C14.8,22.17,19.15,14,23.54,6A.45.45,0,0,0,22.75,5.58Z" transform="translate(0 0)"/>
    <path class="cls-6" d="M25.77,6l-3.49,5.5a28.2,28.2,0,0,0-2.93,5c-.17.47.51.79.83.46a28,28,0,0,0,3.14-4.92l3.31-5.59C27,5.93,26.1,5.47,25.77,6Z" transform="translate(0 0)"/>
    <path class="cls-6" d="M13.64,27.73a25.78,25.78,0,0,0-1.55,2.06A5.17,5.17,0,0,0,11,32c-.05.47.56.57.84.33A7.55,7.55,0,0,0,13,30.43a21.94,21.94,0,0,1,1.38-2C14.7,27.92,14,27.25,13.64,27.73Z" transform="translate(0 0)"/>
    <path class="cls-6" d="M28.25,7.28c-.48,1-1,2-1.54,3a20.36,20.36,0,0,0-1.5,2.7c-.19.48.53.81.85.46,1.39-1.5,2.24-3.84,3.05-5.7C29.36,7.18,28.53,6.71,28.25,7.28Z" transform="translate(0 0)"/>
    <path class="cls-6" d="M18.72,24.65Q17.33,26.77,16,28.92a18.38,18.38,0,0,0-2.2,4,.53.53,0,0,0,.89.49A23.66,23.66,0,0,0,17,29.49q1.26-2.19,2.59-4.34C20,24.58,19.09,24.1,18.72,24.65Z" transform="translate(0 0)"/>
    <path class="cls-6" d="M30.14,10c-4.08,8.17-8.65,16-13.32,23.86-.42.71.68,1.31,1.12.62a243.22,243.22,0,0,0,13-24.06C31.15,9.91,30.39,9.49,30.14,10Z" transform="translate(0 0)"/>
    <path class="cls-6" d="M32,12c-1.83,4-3.79,8-5.87,11.87-1.91,3.55-4.55,7.05-6,10.8-.17.47.51.79.81.45,2.67-3,4.44-7.14,6.26-10.65,2-3.93,3.9-7.93,5.64-12C33.11,11.89,32.28,11.41,32,12Z" transform="translate(0 0)"/>
    <path class="cls-6" d="M33.66,15.11c-1.61,3.27-3.24,6.53-4.92,9.77-1.52,2.93-3.44,5.83-4.55,8.94-.21.59.62.78.93.37C27.13,31.44,28.46,28,30,25s3-6.26,4.48-9.42C34.67,15,33.91,14.59,33.66,15.11Z" transform="translate(0 0)"/>
    <path class="cls-6" d="M34.4,19.88c-1.94,4.09-4.1,8-6.38,11.93a.57.57,0,0,0,1,.55A120.89,120.89,0,0,0,35.15,20.3C35.38,19.8,34.64,19.37,34.4,19.88Z" transform="translate(0 0)"/>
    <path class="cls-4" d="M19.89,17.77c-.07-.61-1-.6-1,0a9.39,9.39,0,0,0,.3,2.18c.11.35.74.41.79,0A9.37,9.37,0,0,0,19.89,17.77Z" transform="translate(0 0)"/>
    <path class="cls-4" d="M21.59,19.59c-.13-.9-.23-1.81-.31-2.72-.06-.64-1.06-.63-1,0,0,1,.11,1.94.22,2.91a6.68,6.68,0,0,0,.5,2.36.49.49,0,0,0,.89-.14A8.84,8.84,0,0,0,21.59,19.59Z" transform="translate(0 0)"/>
    <path class="cls-4" d="M22.67,15.84c-.09-.65-1.11-.64-1,0,.2,1.83.18,3.77.56,5.57.13.62,1,.4,1-.17A33.24,33.24,0,0,0,22.67,15.84Z" transform="translate(0 0)"/>
    <path class="cls-4" d="M24.54,16.94c-.06-.64-.11-1.28-.17-1.93s-1.17-.7-1.13,0,.09,1.38.13,2.07a4,4,0,0,0,.28,1.76.5.5,0,0,0,.91-.14A4.16,4.16,0,0,0,24.54,16.94Z" transform="translate(0 0)"/>
    <path class="cls-4" d="M25.89,15c-.07-.39-.15-.79-.22-1.18-.13-.64-1.24-.47-1.14.18l.18,1.19a2.8,2.8,0,0,0,.3,1.14.54.54,0,0,0,1-.15A2.62,2.62,0,0,0,25.89,15Z" transform="translate(0 0)"/>
    <path class="cls-7" d="M29.35,7.59a16.54,16.54,0,0,0-19-.44.68.68,0,0,0-.33.16c-.13.11-.25.23-.37.35l-.17.12A.67.67,0,0,0,9.27,8,16.76,16.76,0,0,0,5.76,26.18,15.92,15.92,0,0,0,20.57,35.8,15.25,15.25,0,0,0,35.07,24,16.61,16.61,0,0,0,29.35,7.58Zm-1.71,3.58a.63.63,0,0,1,.87.83l-3.15,6.11c-.78,1.53-1.48,3.79-2.86,4.88S19,24.91,17.42,25.9c-1.83,1.12-3.61,2.32-5.35,3.58-.47.34-1.08-.3-.8-.77q3.15-5.45,6.18-11a.45.45,0,0,1,.42-.25q4.9-3.15,9.77-6.32ZM13.53,27.05q2.22-3.94,4.36-7.94c.56.65,1.12,1.31,1.64,2a7.27,7.27,0,0,0,1.3,1.46c-2.44,1.53-4.92,2.9-7.3,4.48Zm11-10c-.77,1.48-1.46,3.6-2.72,4.84a.59.59,0,0,0-.18-.17A7.29,7.29,0,0,1,20.09,20c-.42-.52-.86-1-1.31-1.52l7.55-4.92L24.54,17ZM8.36,19.77A1.06,1.06,0,0,1,7,21.11a.63.63,0,0,1-.65-.29,1.2,1.2,0,0,1,.49-1.72,1.16,1.16,0,0,1,1.53.67ZM20.62,32.69a1,1,0,0,1-.15,1.18,1.05,1.05,0,0,1-1.65-.18v0h0a1,1,0,0,1,0-1,1,1,0,0,1,.89-.55,1.05,1.05,0,0,1,.93.54Zm12.78-13h0a1.05,1.05,0,0,1-.29,1.72,1.09,1.09,0,0,1-1.52-1,.91.91,0,0,1,.81-.92h0a1,1,0,0,1,1,.18ZM20.73,6.93h0a1,1,0,0,1-.85,1.47,1,1,0,0,1-.95-1.29,1,1,0,0,1,1.53-.58.61.61,0,0,1,.27.4ZM33.59,5.5a18.94,18.94,0,0,1,4.22,23,22.84,22.84,0,0,1-8.5,9.3c-3.61,2-8.3,2.31-12.34,1.83C8.81,38.67,2.2,33.24.48,25.07-1,17.88,1,8.63,7.27,4.21a.73.73,0,0,1,.26-.38C15.22-2,26.62-.9,33.59,5.5Zm4.2,19.42a23.16,23.16,0,0,1-6.32,9.46c-3.24,3-7.29,4-11.63,4-7.43,0-14.55-3.74-17.22-10.95S1.35,9.46,8.33,4.89C15.13.74,23.47.1,30.27,4.71c6.54,4.42,10.07,12.54,7.52,20.21Zm-15,9.38a14.7,14.7,0,0,1-15-6.9A15.51,15.51,0,0,1,10.5,8.61,15.37,15.37,0,0,1,26.42,7.25,14.94,14.94,0,0,1,34.15,21,14,14,0,0,1,22.76,34.3Z" transform="translate(0 0)"/>
  </g>
</svg>
