<svg xmlns="http://www.w3.org/2000/svg" xmlns:xlink="http://www.w3.org/1999/xlink" viewBox="0 0 40 40">
  <defs>
    <style>
      .cls-1 {
        isolation: isolate;
      }

      .cls-2 {
        fill: url(#linear-gradient);
      }

      .cls-15, .cls-3, .cls-4 {
        opacity: 0.25;
      }

      .cls-12, .cls-13, .cls-15, .cls-3, .cls-5, .cls-6, .cls-7 {
        mix-blend-mode: multiply;
      }

      .cls-3 {
        fill: url(#radial-gradient);
      }

      .cls-10, .cls-4 {
        fill: #fff;
      }

      .cls-13, .cls-5, .cls-6, .cls-7 {
        opacity: 0.35;
      }

      .cls-5 {
        fill: url(#linear-gradient-2);
      }

      .cls-6 {
        fill: url(#linear-gradient-3);
      }

      .cls-7 {
        fill: url(#linear-gradient-4);
      }

      .cls-8 {
        fill: #5d4037;
      }

      .cls-9 {
        fill: #4e342e;
      }

      .cls-11 {
        fill: #f5f5f5;
      }

      .cls-12 {
        fill: #cfd8dc;
      }

      .cls-13 {
        fill: url(#linear-gradient-5);
      }

      .cls-14, .cls-15 {
        fill: #d95957;
      }
    </style>
    <linearGradient id="linear-gradient" x1="20" y1="-0.67" x2="20" y2="40.75" gradientUnits="userSpaceOnUse">
      <stop offset="0" stop-color="#ffe082"/>
      <stop offset="1" stop-color="#ffbf66"/>
    </linearGradient>
    <radialGradient id="radial-gradient" cx="20" cy="20" r="20" gradientUnits="userSpaceOnUse">
      <stop offset="0.8" stop-color="#fff"/>
      <stop offset="1" stop-color="#ffbf66"/>
    </radialGradient>
    <linearGradient id="linear-gradient-2" x1="20" y1="17.63" x2="20" y2="40.41" xlink:href="#linear-gradient"/>
    <linearGradient id="linear-gradient-3" x1="23.07" y1="6.78" x2="31.27" y2="6.78" xlink:href="#linear-gradient"/>
    <linearGradient id="linear-gradient-4" x1="8.73" y1="6.78" x2="16.91" y2="6.78" xlink:href="#linear-gradient"/>
    <linearGradient id="linear-gradient-5" x1="21.15" y1="35.61" x2="32.11" y2="35.61" xlink:href="#linear-gradient"/>
  </defs>
  <title>1</title>
  <g class="cls-1">
    <g id="레이어_1" data-name="레이어 1">
      <g>
        <g>
          <circle class="cls-2" cx="20" cy="20" r="20"/>
          <circle class="cls-3" cx="20" cy="20" r="20"/>
          <path class="cls-4" d="M36.5,15.12c0,7.43-7.39,0-16.5,0s-16.5,7.43-16.5,0S10.89,1.67,20,1.67,36.5,7.69,36.5,15.12Z"/>
          <path class="cls-5" d="M20,36A20,20,0,0,1,.1,18,18.86,18.86,0,0,0,0,20a20,20,0,0,0,40,0,18.86,18.86,0,0,0-.1-2A20,20,0,0,1,20,36Z"/>
        </g>
        <g>
          <g>
            <path class="cls-6" d="M24.84,4.16c2.5,1.1,5.41,2.59,6.43,5.34-1.39-1.79-3.89-2.58-6.05-2.83-.78-.09-1.78,0-2.08-1A1.27,1.27,0,0,1,24.84,4.16Z"/>
            <path class="cls-7" d="M15.81,6.56c-2.52.28-5.42.79-7.08,2.94.79-2.13,3-3.86,5.07-4.74.69-.3,1.63-.95,2.41-.59A1.27,1.27,0,0,1,15.81,6.56Z"/>
            <path class="cls-8" d="M24.84,3.5c2.5,1.1,5.41,2.59,6.43,5.34C29.88,7,27.38,6.25,25.22,6c-.78-.09-1.78-.06-2.08-1A1.26,1.26,0,0,1,24.84,3.5Z"/>
            <path class="cls-8" d="M15.81,5.89c-2.52.29-5.42.8-7.08,3,.79-2.14,3-3.87,5.07-4.75.69-.29,1.63-.95,2.41-.58A1.26,1.26,0,0,1,15.81,5.89Z"/>
          </g>
          <g>
            <g>
              <ellipse class="cls-4" cx="26.97" cy="16.49" rx="5.98" ry="6.02"/>
              <ellipse class="cls-8" cx="26.97" cy="16.49" rx="5.23" ry="5.27"/>
              <path class="cls-9" d="M27,12.71a5.24,5.24,0,0,1,5.17,4.52,4.52,4.52,0,0,0,.06-.74,5.24,5.24,0,1,0-10.47,0,6,6,0,0,0,.06.74A5.25,5.25,0,0,1,27,12.71Z"/>
              <path class="cls-10" d="M31.45,16.49A4.48,4.48,0,1,1,27,12,4.5,4.5,0,0,1,31.45,16.49Z"/>
              <path class="cls-11" d="M27,20.25a3.77,3.77,0,1,1,3.73-3.76A3.76,3.76,0,0,1,27,20.25Z"/>
              <path class="cls-10" d="M31.17,15.84c0,1.9-1.88,0-4.2,0s-4.21,1.9-4.21,0a4.24,4.24,0,0,1,8.41,0Z"/>
              <path class="cls-8" d="M27.42,16.49a1.79,1.79,0,0,1-3.57,0A1.79,1.79,0,0,1,27.42,16.49Z"/>
              <path class="cls-12" d="M27,12.72a4.49,4.49,0,0,1,4.46,4.14c0-.12,0-.25,0-.37a4.48,4.48,0,1,0-9,0c0,.12,0,.25,0,.37A4.49,4.49,0,0,1,27,12.72Z"/>
            </g>
            <g>
              <ellipse class="cls-4" cx="13.03" cy="16.49" rx="5.98" ry="6.02"/>
              <ellipse class="cls-8" cx="13.03" cy="16.49" rx="5.23" ry="5.27"/>
              <path class="cls-9" d="M13,12.71a5.24,5.24,0,0,0-5.17,4.52,4.52,4.52,0,0,1-.06-.74,5.24,5.24,0,1,1,10.47,0,6,6,0,0,1-.06.74A5.25,5.25,0,0,0,13,12.71Z"/>
              <path class="cls-10" d="M8.55,16.49A4.48,4.48,0,1,0,13,12,4.5,4.5,0,0,0,8.55,16.49Z"/>
              <path class="cls-11" d="M13,20.25A3.77,3.77,0,1,0,9.3,16.49,3.76,3.76,0,0,0,13,20.25Z"/>
              <path class="cls-10" d="M8.83,15.84c0,1.9,1.88,0,4.2,0s4.21,1.9,4.21,0A4.1,4.1,0,0,0,13,12.12,4.1,4.1,0,0,0,8.83,15.84Z"/>
              <path class="cls-8" d="M12.58,16.49a1.79,1.79,0,0,0,3.57,0A1.79,1.79,0,0,0,12.58,16.49Z"/>
              <path class="cls-12" d="M13,12.72a4.49,4.49,0,0,0-4.46,4.14c0-.12,0-.25,0-.37a4.48,4.48,0,1,1,9,0c0,.12,0,.25,0,.37A4.49,4.49,0,0,0,13,12.72Z"/>
            </g>
          </g>
          <g>
            <g>
              <path class="cls-4" d="M20,36a18.35,18.35,0,0,1-3.39-.3A13,13,0,0,1,5.71,25.15c-.25-1.5-.09-2.41.48-2.72a2.1,2.1,0,0,1,1.07-.27,9.24,9.24,0,0,1,3.29,1A22.26,22.26,0,0,0,20,25.49a22.26,22.26,0,0,0,9.45-2.29,9.24,9.24,0,0,1,3.29-1,2.16,2.16,0,0,1,1.08.27c.56.31.72,1.23.47,2.72a13,13,0,0,1-10.9,10.57A18.28,18.28,0,0,1,20,36Z"/>
              <path class="cls-8" d="M23.27,35.07a19.23,19.23,0,0,1-6.54,0C6.85,33.29,5.61,23.51,6.51,23c2-1.1,5.84,3.15,13.49,3.15S31.53,21.91,33.49,23C34.38,23.51,33.15,33.28,23.27,35.07Z"/>
              <path class="cls-9" d="M6.51,24.34c2-1.1,5.84,3.15,13.49,3.15s11.54-4.25,13.49-3.15a.54.54,0,0,1,.19.37c.11-.94,0-1.58-.19-1.7-2-1.1-5.84,3.15-13.49,3.15S8.46,21.91,6.51,23c-.21.12-.3.76-.19,1.7A.54.54,0,0,1,6.51,24.34Z"/>
            </g>
            <path class="cls-9" d="M22.48,28c-.86-.29-1.89,0-1.62,1,.48,1.62.84,3.28-.86,3.28s-1.34-1.66-.86-3.28c.27-.94-.75-1.25-1.61-1-1.44.47-2.12,2.24-2.12,3.86a4.55,4.55,0,0,0,1.32,3.22,19.23,19.23,0,0,0,6.54,0,4.53,4.53,0,0,0,1.32-3.22C24.59,30.23,23.91,28.46,22.48,28Z"/>
            <path class="cls-13" d="M29.19,33.11a6.44,6.44,0,0,0-8,2.1s.15.14,2,.19c1.13,0,2.43,2,4,3.3a19.8,19.8,0,0,0,5-2.79A5.74,5.74,0,0,0,29.19,33.11Z"/>
            <path class="cls-14" d="M21.39,35.3a6.44,6.44,0,0,1,7.39-3.8c3.06.53,5.84,4.08,3.21,6.08-3,2.25-6.68-2.9-8.61-2.53A5.87,5.87,0,0,1,21.39,35.3Z"/>
            <path class="cls-15" d="M32,36.47c-3,2.25-6.76-2.35-8.7-2a3.35,3.35,0,0,1-1.56,0,6.26,6.26,0,0,0-.38.78,5.87,5.87,0,0,0,2-.25c1.93-.37,5.64,4.78,8.61,2.53a2.35,2.35,0,0,0,1-2.37A2.61,2.61,0,0,1,32,36.47Z"/>
            <path class="cls-10" d="M8.15,23.67c0,2.63,4.95,5,11.85,5,6.67,0,10.73-2.73,11.59-4.9-.47.17-1,.4-1.61.66a23.31,23.31,0,0,1-10,2.41,23.31,23.31,0,0,1-10-2.41C9.3,24.11,8.68,23.84,8.15,23.67Z"/>
            <path class="cls-12" d="M20,26.83a23.31,23.31,0,0,1-10-2.41c-.72-.31-1.34-.58-1.87-.75a2.29,2.29,0,0,0,.14.68c2.27.7,5.9,3.14,11.71,3.14,5.35,0,8.85-2.06,11.14-2.94a4.27,4.27,0,0,0,.45-.79c-.47.17-1,.4-1.61.66A23.31,23.31,0,0,1,20,26.83Z"/>
          </g>
        </g>
      </g>
    </g>
  </g>
</svg>
