<svg id="레이어_1" data-name="레이어 1" xmlns="http://www.w3.org/2000/svg" xmlns:xlink="http://www.w3.org/1999/xlink" viewBox="0 0 32.8 40">
  <defs>
    <style>
      .cls-1 {
        fill: #ffc38f;
      }

      .cls-2 {
        fill: #23232d;
      }

      .cls-3 {
        fill: #141418;
      }

      .cls-4 {
        fill: #3a3a4a;
      }

      .cls-12, .cls-26, .cls-27, .cls-5, .cls-6 {
        fill: #fff;
      }

      .cls-6 {
        opacity: 0.5;
      }

      .cls-7 {
        fill: #e8e8e8;
      }

      .cls-8 {
        fill: #313142;
      }

      .cls-9 {
        fill: #f5f5f5;
      }

      .cls-10 {
        fill: url(#linear-gradient);
      }

      .cls-11 {
        fill: #fff9f0;
      }

      .cls-12 {
        opacity: 0.07;
      }

      .cls-13 {
        fill: #c93712;
      }

      .cls-14 {
        fill: #ff9819;
      }

      .cls-15 {
        fill: #a61900;
        opacity: 0.2;
      }

      .cls-16 {
        fill: #d14f2e;
        opacity: 0.4;
      }

      .cls-17 {
        fill: #e85216;
      }

      .cls-18 {
        fill: #ff7752;
      }

      .cls-19 {
        fill: #1c5c57;
      }

      .cls-20 {
        fill: #6cd9d2;
      }

      .cls-20, .cls-27 {
        opacity: 0.7;
      }

      .cls-21 {
        fill: #121b21;
      }

      .cls-22 {
        fill: #ff3b3b;
        opacity: 0.8;
      }

      .cls-23 {
        fill: #8f2621;
      }

      .cls-24 {
        fill: #e8dac5;
      }

      .cls-25 {
        fill: #b54d26;
      }

      .cls-25, .cls-26 {
        opacity: 0.3;
      }

      .cls-28 {
        fill: #c1c5c9;
      }
    </style>
    <linearGradient id="linear-gradient" x1="21.26" y1="29.99" x2="21.26" y2="32.12" gradientUnits="userSpaceOnUse">
      <stop offset="0" stop-color="#ee996d"/>
      <stop offset="0.02" stop-color="#ee9a6e"/>
      <stop offset="0.37" stop-color="#f8b181"/>
      <stop offset="0.71" stop-color="#fdbf8d"/>
      <stop offset="1" stop-color="#ffc491"/>
    </linearGradient>
  </defs>
  <title>1</title>
  <g>
    <g>
      <path class="cls-1" d="M30.69,29.45c-1.58,1.93,0,2.48,1.51,3.49.76.5,1.65,1.37,2.26.09A18.74,18.74,0,0,0,35.08,31,8.14,8.14,0,0,1,36,29C37.11,27.54,35.57,23.48,30.69,29.45Z" transform="translate(-4.02)"/>
      <g>
        <path class="cls-2" d="M30.2,20.44a.62.62,0,0,0-.87,0l-3.61,3.64a.62.62,0,0,0,0,.88l6.44,6.45a.63.63,0,0,0,.88,0l3.61-3.64a.64.64,0,0,0,0-.88Z" transform="translate(-4.02)"/>
        <path class="cls-3" d="M30,20.23a.61.61,0,0,0-.85,0l-3.53,3.57a.6.6,0,0,0,0,.85l6.15,6.15a.59.59,0,0,0,.85,0l3.53-3.56a.61.61,0,0,0,0-.86Z" transform="translate(-4.02)"/>
        <path class="cls-4" d="M30,20.23a.61.61,0,0,0-.85,0l-3.53,3.57a.6.6,0,0,0,0,.85l6.15,6.15a.59.59,0,0,0,.85,0l3.53-3.56a.61.61,0,0,0,0-.86Z" transform="translate(-4.02)"/>
        <path class="cls-5" d="M30,21.51a.47.47,0,0,0-.65,0l-2.58,2.6a.47.47,0,0,0,0,.65l4.75,4.75a.46.46,0,0,0,.65,0l2.57-2.6a.46.46,0,0,0,0-.65Z" transform="translate(-4.02)"/>
        <path class="cls-6" d="M29.12,20.27l-3.53,3.57a.6.6,0,0,0,0,.85L30,29.1A54.23,54.23,0,0,1,32.78,23L30,20.23A.61.61,0,0,0,29.12,20.27Z" transform="translate(-4.02)"/>
      </g>
      <path class="cls-1" d="M29.39,28.73c-.11.31.42.88.54,1.16.21.45-.13,1.27.41,1.62s.78-.05.95-.42a2,2,0,0,0-.61-2.15C30.39,28.65,29.56,28.24,29.39,28.73Z" transform="translate(-4.02)"/>
      <path class="cls-7" d="M25,32.56c-.33-.23-.57,1.69-.33,2.5.87,3,8.46,4.93,9.88-1.6l-2.83-.7C30.7,38.69,26,33.2,25,32.56Z" transform="translate(-4.02)"/>
      <path class="cls-5" d="M33.38,33.68a.34.34,0,0,0-.17.45.35.35,0,0,0,.45.18.35.35,0,0,0,.17-.45A.34.34,0,0,0,33.38,33.68Z" transform="translate(-4.02)"/>
    </g>
    <g>
      <path class="cls-7" d="M18.37,34.6l-1-2c-1.33.69-1.68,2.25-2,3.91-.12.56-.48,2.1-.83,3.45h2.26c.29-1.22.6-2.55.69-3C17.7,35.94,18,34.82,18.37,34.6Z" transform="translate(-4.02)"/>
      <path class="cls-7" d="M25.08,32.56c-1.58-1.62-5.74-1.49-7.49-.12s0,5,.34,7.56h6.74C24.74,36.51,26.88,34.39,25.08,32.56Z" transform="translate(-4.02)"/>
      <path class="cls-8" d="M25.21,36.91a7.38,7.38,0,0,1-.14-4.37c-1.6-1.59-5.95-1.45-7.76,0a7,7,0,0,1-.16,4.08,19,19,0,0,1,.7,3.34h6.91A9.71,9.71,0,0,1,25.21,36.91Z" transform="translate(-4.02)"/>
      <path class="cls-9" d="M23.26,31.22a6.35,6.35,0,0,0-4.28.06c-2.09,1,.13,4.26.13,4.26L21.36,35l2.25.5S25.3,32.09,23.26,31.22Z" transform="translate(-4.02)"/>
      <path class="cls-10" d="M23.28,31.53c-.36-.29-.28-1.19-.22-2.24.14-2.37-3.93-2.45-3.93.13,0,1.15,0,1.86-.26,2.18-.59.61-.54,1.68,2.44,3.07C22.93,33.86,25,32.94,23.28,31.53Z" transform="translate(-4.02)"/>
      <g>
        <path class="cls-11" d="M18.75,31.62a.35.35,0,0,0-.33.36.33.33,0,0,0,.35.34.35.35,0,1,0,0-.7Z" transform="translate(-4.02)"/>
        <path class="cls-11" d="M19.54,32.16a.35.35,0,0,0,0,.7.34.34,0,0,0,.33-.36A.36.36,0,0,0,19.54,32.16Z" transform="translate(-4.02)"/>
        <path class="cls-11" d="M20.57,32.53a.35.35,0,0,0,0,.7.36.36,0,0,0,.34-.36A.35.35,0,0,0,20.57,32.53Z" transform="translate(-4.02)"/>
        <path class="cls-11" d="M21.6,32.59a.35.35,0,0,0,0,.69.35.35,0,0,0,.34-.36A.35.35,0,0,0,21.6,32.59Z" transform="translate(-4.02)"/>
        <path class="cls-11" d="M23.47,31.59a.35.35,0,0,0-.34.36.35.35,0,0,0,.36.33.35.35,0,0,0,0-.69Z" transform="translate(-4.02)"/>
        <path class="cls-11" d="M22.64,32.2a.35.35,0,0,0-.33.36.34.34,0,0,0,.35.34.36.36,0,0,0,.34-.36A.35.35,0,0,0,22.64,32.2Z" transform="translate(-4.02)"/>
      </g>
      <path class="cls-12" d="M23,35.9a6.89,6.89,0,0,1-4-.06c-.73-.19-1.14.68-.92,1.43.3,1,1.82,1.25,3.13,1.23,2.61,0,3.59-1.08,3.15-2.3C24.25,35.88,23.69,35.65,23,35.9Z" transform="translate(-4.02)"/>
    </g>
    <g>
      <path class="cls-13" d="M23.62,2.46A3.41,3.41,0,0,1,23.29,0a3.49,3.49,0,0,0-1.93,2.14,5,5,0,0,0-4-2.15,5.65,5.65,0,0,1,1.5,2.42c-1,.15-1.69.16-2.68.3C11,3.41,8,6.52,6.67,11.19c-.63,2.2-.35,5.26,0,7.51.16,1.14,1.3,4.05,0,4.93a1,1,0,0,1-1.62-.95A2.11,2.11,0,0,0,4.7,26,4.65,4.65,0,0,0,9,26.62a6.76,6.76,0,0,0,1.31,5.11,3.32,3.32,0,0,1,1.1-1.83c-.33.25,1.09,1,1.24,1a3.33,3.33,0,0,0,1.69-.33c1.47-.49,2.6-1.33,4.17-1.66,3.62-.76,8.61,2.41,10.6,1.44-.41-3.4,2.19-7.35,5.1-15.28.06.05,1.22,2,1.21,2.06C36,13.85,36.19,3,23.62,2.46Z" transform="translate(-4.02)"/>
      <path class="cls-14" d="M30.54,22.66a.9.9,0,0,0-.89.92.92.92,0,0,0,.91.89.91.91,0,0,0,0-1.81Z" transform="translate(-4.02)"/>
      <path class="cls-1" d="M19.21,5.39c-5.07,1.06-8.56,8.46-7.53,15.33.77,5.15,4.8,10.76,10.76,10.26s9-8.15,8.14-14.49C29.63,9.61,26.31,3.9,19.21,5.39Z" transform="translate(-4.02)"/>
      <path class="cls-15" d="M30.52,8.85a3.48,3.48,0,0,0-1.27-1.17,14.28,14.28,0,0,0-3.48-1.29,22.25,22.25,0,0,0-6.18-.89c-1.85,0-3.87-.09-5.59.72-.94.45-2.1,1-2.44,2.12a9.51,9.51,0,0,0,0,4.31A11.82,11.82,0,0,0,13,16.9a5.25,5.25,0,0,1,1.1-2.85c.5-.64,1.21-1.8,2.07-2,0,0-.57,1.67-.66,1.85a3.5,3.5,0,0,1-1.43,1.2c.53.45,2.11.37,2.75.23a3.26,3.26,0,0,0,1.32-.5,1.77,1.77,0,0,0-.07.52c.84-.11,1.69-.09,2.54-.27a11,11,0,0,0,1.84-.61,1.35,1.35,0,0,0-.18.41,2.25,2.25,0,0,0,.51-.2,1.32,1.32,0,0,0-.13.61c1.64,0,3.34-.07,5-.23a3.48,3.48,0,0,0,2.76-1.75A4.55,4.55,0,0,0,30.91,11,4.55,4.55,0,0,0,30.52,8.85Z" transform="translate(-4.02)"/>
      <path class="cls-1" d="M9.87,17.88c-2.49.72-1.44,4.37.61,5.08a5,5,0,0,0,2,.19l0-.06c.29-.48-.16-3.15-.32-3.65C11.82,18.18,11.06,17.53,9.87,17.88Z" transform="translate(-4.02)"/>
      <path class="cls-16" d="M10.76,19.21c-.56-.25-2,.24-1.28,1.33.33-1,1-.36.87.36,0,.49-.57.5,0,1.12.29.34.85.2,1.13,0C12.33,21.45,11.45,19.52,10.76,19.21Z" transform="translate(-4.02)"/>
      <path class="cls-13" d="M29.88,6.93c-1.08-.73-1.7-1.9-3-2.5a14.33,14.33,0,0,0-3.6-1.18,17,17,0,0,0-5.23-.09C15.22,3.54,11.76,5,10.9,8c-.54,1.89-.22,4.07-.05,6,.2,2.21-.13,4.85,2,6.31.13-.53.1-1.12.18-1.66a10.64,10.64,0,0,0,.25-2.18,7.2,7.2,0,0,1,0-2.07,5.61,5.61,0,0,1,2.11-3c.81-.65,1.31-.34,1.06.65a4.86,4.86,0,0,1-1.69,2.19,24.78,24.78,0,0,0,2.58,0,3.81,3.81,0,0,0,2.17-1.65c-.41.74-.27,1.2-.94,1.86,2,.58,3.11-.08,4.76-1.32a4.16,4.16,0,0,1-.51,1c.26-.14.68-.39.9-.5-.12.34-.26.66-.4,1,1.32-.22,2.65.29,4,0,1.62-.41,4.18-2.42,4.45-4.17a3,3,0,0,0-.42-2A4.64,4.64,0,0,0,29.88,6.93Z" transform="translate(-4.02)"/>
      <path class="cls-17" d="M27.94,5.11c-3.78.36-6.44,4.36-10.45,3.5a21,21,0,0,0-5-.8c-1.69,0-3.94.7-4.69,2.35-.16.36-1.29,4.43-.43,4.54A6.38,6.38,0,0,0,10.31,14c.9-.31,1.2.29,1.87.71-.5-.32,1.62-2.82,1.94-3.08A2.45,2.45,0,0,1,16.46,11a1.15,1.15,0,0,1,.25.12c.82.54,0,1.72-.17,2.41a17.1,17.1,0,0,0,3.93-2.36,24,24,0,0,1-.5,2.44,4.4,4.4,0,0,0,2.67-1.4c.4-.38.72-1,1.23-1.23.26-.14.42-.29.52.06A6.21,6.21,0,0,1,24,12.29c.38-.25,1.27-1.53,1.78-1.38s-1.18,2.95-1.41,2.9a5.94,5.94,0,0,0,4.39-.91,6.13,6.13,0,0,0,1.63-1.46c.55-.7.09-1.28.31-2.06a5.73,5.73,0,0,1,.7,1.12,6.19,6.19,0,0,1-.2,3.63c1.73.69,2.08-.63,2.38-2.14.36.47.57,1,.93,1.51C35.19,9.79,32,4.72,27.94,5.11Z" transform="translate(-4.02)"/>
      <path class="cls-14" d="M11.24,23.51a.9.9,0,0,0-.88.92.9.9,0,1,0,1.79,0A.9.9,0,0,0,11.24,23.51Z" transform="translate(-4.02)"/>
    </g>
    <g>
      <path class="cls-18" d="M29.9,21.28a1.74,1.74,0,0,0-1.48-.66c-.65,0-1.54.18-1,1.18.26.54,2.83,1,2.63-.19A1,1,0,0,0,29.9,21.28Z" transform="translate(-4.02)"/>
      <path class="cls-18" d="M17.69,21.48A1.8,1.8,0,0,0,16,21.06c-.73.11-1.67.57-1,1.61.39.56,3.29.53,2.86-.83A1,1,0,0,0,17.69,21.48Z" transform="translate(-4.02)"/>
      <path class="cls-13" d="M26.05,16a39,39,0,0,0,5,0C30.22,14.83,27.11,14.84,26.05,16Z" transform="translate(-4.02)"/>
      <path class="cls-16" d="M23,21.76c-.49,0-.69-.19-1,0s.42.84,1,.78,1.22-.65,1-.85S23.49,21.74,23,21.76Z" transform="translate(-4.02)"/>
      <path class="cls-13" d="M13.68,16c2.68,0,3.58.1,5.43,0C18.11,14.79,14.84,15,13.68,16Z" transform="translate(-4.02)"/>
      <path class="cls-19" d="M16.87,17.34c-1.42-.49-2.08,2.12-1.08,2.87a1.88,1.88,0,0,1,1.36,0C18,19.64,17.92,17.71,16.87,17.34Z" transform="translate(-4.02)"/>
      <path class="cls-20" d="M17,18.64c-.58.1-.33,1.29.27,1C17.68,19.39,17.5,18.55,17,18.64Z" transform="translate(-4.02)"/>
      <path class="cls-19" d="M29.13,17.23c-1.42-.91-2.66,2.41-1.09,2.88a1.71,1.71,0,0,1,1.24-.2C29.82,19.21,29.88,17.71,29.13,17.23Z" transform="translate(-4.02)"/>
      <path class="cls-20" d="M28.92,18.37c-.56,0-.48,1.26.13,1C29.48,19.23,29.42,18.36,28.92,18.37Z" transform="translate(-4.02)"/>
      <path class="cls-21" d="M29.17,17.15c-1.3-.5-1.72,1-1.72,1A1.2,1.2,0,0,1,29,17.91a2.65,2.65,0,0,0,3.28-.24C30.66,18.21,29.86,17.42,29.17,17.15Z" transform="translate(-4.02)"/>
      <path class="cls-21" d="M15.93,17.44a4.21,4.21,0,0,1-3.3.66,2.93,2.93,0,0,0,3.45,0,1.33,1.33,0,0,1,1.57.08S17.26,16.72,15.93,17.44Z" transform="translate(-4.02)"/>
      <g>
        <path class="cls-22" d="M16.34,23.6c1.62,4,3.25,5.22,6.09,5.22a4.22,4.22,0,0,0,4.43-3.34,8.62,8.62,0,0,1,1.64-2.37c-1.42.54-3.89.48-6.14.64C20.44,23.88,17.9,24.37,16.34,23.6Z" transform="translate(-4.02)"/>
        <path class="cls-23" d="M16.93,24.11a5.2,5.2,0,0,0,5.28,3.48c3.67-.24,4.2-1.55,4.42-2.47A2.81,2.81,0,0,1,28,23.39,24.36,24.36,0,0,1,16.93,24.11Z" transform="translate(-4.02)"/>
        <path class="cls-11" d="M18,24.32s0,.84,1.27,1.07a15.19,15.19,0,0,0,5.24-.08,2.93,2.93,0,0,0,1.87-1.44A38.59,38.59,0,0,1,18,24.32Z" transform="translate(-4.02)"/>
        <path class="cls-11" d="M23.15,26.74a13.67,13.67,0,0,1-3.3-.13c-.55-.12-.55.09-.44.27,0,0,.18.75,2.76.75,2.25,0,3.22-1,3-1.19S24.56,26.65,23.15,26.74Z" transform="translate(-4.02)"/>
        <path class="cls-24" d="M18,24.32a.75.75,0,0,0,.19.49A68.64,68.64,0,0,1,26,24.44a3.74,3.74,0,0,0,.41-.57A38.33,38.33,0,0,1,18,24.32Z" transform="translate(-4.02)"/>
        <path class="cls-24" d="M20.08,26.76a9.24,9.24,0,0,0,4.68-.18A14.32,14.32,0,0,1,20.08,26.76Z" transform="translate(-4.02)"/>
      </g>
    </g>
    <g>
      <path class="cls-25" d="M29.87,15.7a14.75,14.75,0,0,0-2.88.44,12.41,12.41,0,0,0-2.49.69,2.84,2.84,0,0,1-1.79.55c-1.47-.07-2.71-1-4.18-1.15a12.32,12.32,0,0,0-4.61.06c-.39.11-1.58.56-.78,1A7,7,0,0,0,16,17.6l1.19.06c1.4.14,3.55-.05,3.43,1.71A2.91,2.91,0,0,1,18.74,22a12.28,12.28,0,0,1-2.89.29,5,5,0,0,1-2.08-.46c-.19-.09-.75-.45-.93-.19-.31.43.83,1.15,1.12,1.29a6.92,6.92,0,0,0,2.15.48c1.82.21,3.71.12,4.74-1.57.6-1,.91-2.12,1.46-3.12.92-1.65,1.34.59,1.62,1.56a5.22,5.22,0,0,0,.72,1.55,3.7,3.7,0,0,0,2.72,1.31,4.09,4.09,0,0,0,1.77-.23c.34-.14.48-.53.07-.69a3.75,3.75,0,0,0-.89,0,7.08,7.08,0,0,1-1.13-.09,3.32,3.32,0,0,1-1.35-.59,2.54,2.54,0,0,1-.7-.76A2.46,2.46,0,0,1,25,18.7c.34-.93,1.36-1,2.2-1.07,1-.09,2.06-.06,3.07-.15a12.29,12.29,0,0,1,1.36,0c.58,0,1.84-.16,1.16-1S30.82,15.66,29.87,15.7Z" transform="translate(-4.02)"/>
      <path class="cls-4" d="M12.47,15.64c-1.21,0-2.24-.3-2.52-.06s.27,1.4.27,1.4a2.16,2.16,0,0,0,.95.32c.08.84,0,3,1.56,4.39,1.28,1.15,5.47,1.49,6.78.83A5.09,5.09,0,0,0,22.1,18.7C22.81,15,14.17,15.59,12.47,15.64Zm7.13,5.89c-1.6,1-5.67.54-6.73-.78-.81-1-.95-3.13-.46-3.44,1.53-.92,7.27-.55,8.59.47C21.65,18.27,20.8,20.75,19.6,21.53Z" transform="translate(-4.02)"/>
      <path class="cls-4" d="M32.23,15.34c-1.53,0-9.35-.29-8.61,3.34a5.06,5.06,0,0,0,2.45,3.74c1.2.62,5,.16,6.09-1C33.51,20,33.41,17.81,33.45,17a1.74,1.74,0,0,0,.85-.35s.55-1.1.21-1.4S33.33,15.34,32.23,15.34ZM32,20.46c-.91,1.35-4.58,2-6,1-1.11-.75-1.94-3.2-1.37-3.71,1.16-1.06,6.33-1.59,7.74-.72C32.79,17.3,32.72,19.42,32,20.46Z" transform="translate(-4.02)"/>
      <path class="cls-26" d="M25.6,17.4c-.85.37.69.82,1,.87a11.52,11.52,0,0,0,3.69-.14c.64-.12,2-.71,1.63-1.06C31.38,16.57,26.54,17,25.6,17.4Z" transform="translate(-4.02)"/>
      <path class="cls-5" d="M29.4,17.19c-.46.07-.77.21-.64.42.25.41,3,.17,3.15-.14S30.38,17,29.4,17.19Z" transform="translate(-4.02)"/>
      <path class="cls-27" d="M26.46,20.58c-.29,0-.49.05-.44.23.1.36,1.78.6,1.93.38S27.08,20.61,26.46,20.58Z" transform="translate(-4.02)"/>
      <path class="cls-27" d="M13.81,20.45c-.3-.05-.52,0-.49.18,0,.37,1.78.81,2,.61S14.45,20.56,13.81,20.45Z" transform="translate(-4.02)"/>
      <path class="cls-26" d="M20.37,17.56c-1.08-.38-6.42-.79-7-.32s1.19.9,1.91,1a14.94,14.94,0,0,0,4,.13C19.71,18.34,21.34,17.91,20.37,17.56Z" transform="translate(-4.02)"/>
      <path class="cls-5" d="M18.05,17.25c-.5,0-.83.11-.72.33.2.44,3.07.55,3.31.26S19.09,17.21,18.05,17.25Z" transform="translate(-4.02)"/>
      <path class="cls-4" d="M24.64,16.49a4.56,4.56,0,0,1-3.76,0c-1.18-.42.61.77.75,1.38s-.07,2.48.34,1.37,1.23-1.19,1.75-.16.49-1.71.7-2S25.76,16,24.64,16.49Z" transform="translate(-4.02)"/>
      <path class="cls-28" d="M13,16c3.26.17,5.86.27,7.82,1C19.57,16,17.36,15.74,13,16Z" transform="translate(-4.02)"/>
      <path class="cls-28" d="M32,15.63c-4,.13-5.82.16-6.89,1.17C26.79,16,29,16.05,32,15.63Z" transform="translate(-4.02)"/>
    </g>
  </g>
</svg>
