<svg id="레이어_1" data-name="레이어 1" xmlns="http://www.w3.org/2000/svg" viewBox="0 0 40 40">
  <defs>
    <style>
      .cls-1 {
        stroke: #000;
        stroke-miterlimit: 10;
        stroke-width: 0.75px;
      }
    </style>
  </defs>
  <title>1</title>
  <path d="M20,40A20,20,0,1,1,40,20,20,20,0,0,1,20,40ZM20,3.66A16.34,16.34,0,1,0,36.34,20,16.36,16.36,0,0,0,20,3.66Z"/>
  <path class="cls-1" d="M31.73,14.83v3.52H8.27V14.83ZM29.46,24.92a4.15,4.15,0,0,1-.59,2.13,5.57,5.57,0,0,1-1.79,1.8,9.91,9.91,0,0,1-3,1.25,17,17,0,0,1-4.14.45,16.92,16.92,0,0,1-4.14-.45,9.63,9.63,0,0,1-3-1.25,5.6,5.6,0,0,1-1.77-1.8,4.05,4.05,0,0,1-.59-2.13,3.89,3.89,0,0,1,.59-2.09,5.15,5.15,0,0,1,1.77-1.69,10.16,10.16,0,0,1,3-1.14A18.08,18.08,0,0,1,20,19.58a18.29,18.29,0,0,1,4.15.42,10.19,10.19,0,0,1,3,1.14,5.24,5.24,0,0,1,1.77,1.69A4,4,0,0,1,29.46,24.92Zm-3-15.44v3.76H13.53V9.48ZM25.45,25a1.58,1.58,0,0,0-.26-.88,2.14,2.14,0,0,0-.89-.76,5.86,5.86,0,0,0-1.67-.53A15.07,15.07,0,0,0,20,22.64a14.85,14.85,0,0,0-2.63.19,6.47,6.47,0,0,0-1.68.51,2,2,0,0,0-.88.76,1.68,1.68,0,0,0-.27.9,1.64,1.64,0,0,0,.27.88,2.13,2.13,0,0,0,.88.73,5.78,5.78,0,0,0,1.68.51,14.74,14.74,0,0,0,2.63.2,15,15,0,0,0,2.66-.2,5.61,5.61,0,0,0,1.67-.51,2.1,2.1,0,0,0,.89-.73A1.63,1.63,0,0,0,25.45,25Z"/>
</svg>
