<svg xmlns="http://www.w3.org/2000/svg" xmlns:xlink="http://www.w3.org/1999/xlink" viewBox="0 0 40 40">
  <defs>
    <style>
      .cls-1 {
        isolation: isolate;
      }

      .cls-2 {
        fill: url(#linear-gradient);
      }

      .cls-17, .cls-3, .cls-4 {
        opacity: 0.25;
      }

      .cls-17, .cls-3, .cls-5, .cls-6, .cls-9 {
        mix-blend-mode: multiply;
      }

      .cls-3 {
        fill: url(#radial-gradient);
      }

      .cls-4 {
        fill: #fff;
      }

      .cls-10, .cls-11, .cls-12, .cls-5, .cls-8 {
        opacity: 0.35;
      }

      .cls-5 {
        fill: url(#linear-gradient-2);
      }

      .cls-6, .cls-9 {
        opacity: 0.5;
      }

      .cls-6 {
        fill: url(#linear-gradient-3);
      }

      .cls-17, .cls-7 {
        fill: #d95957;
      }

      .cls-10, .cls-11, .cls-12, .cls-8 {
        mix-blend-mode: screen;
      }

      .cls-8 {
        fill: url(#linear-gradient-4);
      }

      .cls-9 {
        fill: url(#linear-gradient-5);
      }

      .cls-10 {
        fill: url(#linear-gradient-6);
      }

      .cls-11 {
        fill: url(#linear-gradient-7);
      }

      .cls-12 {
        fill: url(#linear-gradient-8);
      }

      .cls-13 {
        fill: #5d4037;
      }

      .cls-14 {
        fill: #4e342e;
      }

      .cls-15 {
        fill: #f5f5f5;
      }

      .cls-16 {
        fill: #cfd8dc;
      }
    </style>
    <linearGradient id="linear-gradient" x1="20" y1="-0.67" x2="20" y2="40.75" gradientUnits="userSpaceOnUse">
      <stop offset="0" stop-color="#ffe082"/>
      <stop offset="1" stop-color="#ffbf66"/>
    </linearGradient>
    <radialGradient id="radial-gradient" cx="20" cy="20" r="20" gradientUnits="userSpaceOnUse">
      <stop offset="0.8" stop-color="#fff"/>
      <stop offset="1" stop-color="#ffbf66"/>
    </radialGradient>
    <linearGradient id="linear-gradient-2" x1="20" y1="17.63" x2="20" y2="40.41" xlink:href="#linear-gradient"/>
    <linearGradient id="linear-gradient-3" x1="6.42" y1="17.18" x2="17.29" y2="17.18" xlink:href="#linear-gradient"/>
    <linearGradient id="linear-gradient-4" x1="11.86" y1="11.47" x2="11.86" y2="20.46" gradientUnits="userSpaceOnUse">
      <stop offset="0" stop-color="#fff"/>
      <stop offset="1"/>
    </linearGradient>
    <linearGradient id="linear-gradient-5" x1="23.08" y1="17.18" x2="33.95" y2="17.18" xlink:href="#linear-gradient"/>
    <linearGradient id="linear-gradient-6" x1="28.51" y1="11.47" x2="28.51" y2="20.46" xlink:href="#linear-gradient-4"/>
    <linearGradient id="linear-gradient-7" x1="11.86" y1="11.47" x2="11.86" y2="20.46" gradientUnits="userSpaceOnUse">
      <stop offset="0" stop-color="#fff"/>
      <stop offset="0.5"/>
    </linearGradient>
    <linearGradient id="linear-gradient-8" x1="28.51" y1="11.47" x2="28.51" y2="20.46" xlink:href="#linear-gradient-7"/>
  </defs>
  <title>1</title>
  <g class="cls-1">
    <g id="레이어_1" data-name="레이어 1">
      <g>
        <g>
          <circle class="cls-2" cx="20" cy="20" r="20"/>
          <circle class="cls-3" cx="20" cy="20" r="20"/>
          <path class="cls-4" d="M36.5,15.12c0,7.43-7.39,0-16.5,0s-16.5,7.43-16.5,0S10.89,1.67,20,1.67,36.5,7.69,36.5,15.12Z"/>
          <path class="cls-5" d="M20,36A20,20,0,0,1,.1,18,18.86,18.86,0,0,0,0,20a20,20,0,0,0,40,0,18.86,18.86,0,0,0-.1-2A20,20,0,0,1,20,36Z"/>
        </g>
        <path class="cls-6" d="M13.64,12.53c-1.47.21-1.52,1.15-2.1,1.23s-.9-.81-2.36-.6a3.2,3.2,0,0,0-2.72,3.62c.46,3.28,5.41,5.18,6.21,5.07s5-3.3,4.59-6.59A3.22,3.22,0,0,0,13.64,12.53Z"/>
        <path class="cls-7" d="M13.64,11.2c-1.47.21-1.52,1.14-2.1,1.23s-.9-.81-2.36-.6a3.19,3.19,0,0,0-2.72,3.62c.46,3.28,5.41,5.18,6.21,5.06s5-3.3,4.59-6.58A3.21,3.21,0,0,0,13.64,11.2Z"/>
        <path class="cls-8" d="M12.58,19.85c-.77,0-5.07-1.69-5.46-4.5a2.53,2.53,0,0,1,2.16-2.86l.32,0a1.65,1.65,0,0,1,1,.31,1.64,1.64,0,0,0,.91.33h.17a1.59,1.59,0,0,0,.95-.6,1.61,1.61,0,0,1,1.15-.63,2.17,2.17,0,0,1,.36,0A2.56,2.56,0,0,1,16.6,14C17,16.83,13.24,19.65,12.58,19.85Z"/>
        <path class="cls-9" d="M31.19,13.16c-1.46-.21-1.77.68-2.36.6s-.63-1-2.1-1.23a3.22,3.22,0,0,0-3.62,2.73c-.46,3.29,3.78,6.47,4.59,6.59s5.75-1.79,6.22-5.07A3.22,3.22,0,0,0,31.19,13.16Z"/>
        <path class="cls-7" d="M31.19,11.83c-1.46-.21-1.77.68-2.36.6s-.63-1-2.1-1.23a3.21,3.21,0,0,0-3.62,2.73c-.46,3.28,3.78,6.47,4.59,6.58s5.75-1.78,6.22-5.06A3.21,3.21,0,0,0,31.19,11.83Z"/>
        <path class="cls-10" d="M27.77,19.85c-.57-.15-4.39-3-4-5.83a2.56,2.56,0,0,1,2.51-2.18,2.17,2.17,0,0,1,.36,0,1.61,1.61,0,0,1,1.15.63,1.59,1.59,0,0,0,.95.6h.17a1.64,1.64,0,0,0,.91-.33,1.65,1.65,0,0,1,.95-.31l.32,0a2.52,2.52,0,0,1,2.16,2.86c-.39,2.82-4.74,4.5-5.48,4.5Z"/>
        <path class="cls-11" d="M12.58,19.85c-.77,0-5.07-1.69-5.46-4.5a2.53,2.53,0,0,1,2.16-2.86l.32,0a1.65,1.65,0,0,1,1,.31,1.64,1.64,0,0,0,.91.33h.17a1.59,1.59,0,0,0,.95-.6,1.61,1.61,0,0,1,1.15-.63,2.17,2.17,0,0,1,.36,0A2.56,2.56,0,0,1,16.6,14C17,16.83,13.24,19.65,12.58,19.85Z"/>
        <path class="cls-12" d="M27.77,19.85c-.57-.15-4.39-3-4-5.83a2.56,2.56,0,0,1,2.51-2.18,2.17,2.17,0,0,1,.36,0,1.61,1.61,0,0,1,1.15.63,1.59,1.59,0,0,0,.95.6h.17a1.64,1.64,0,0,0,.91-.33,1.65,1.65,0,0,1,.95-.31l.32,0a2.52,2.52,0,0,1,2.16,2.86c-.39,2.82-4.74,4.5-5.48,4.5Z"/>
        <path class="cls-4" d="M20,34C13.7,34,9.94,30.3,8.63,27.15,8,25.69,8,24.5,8.63,23.9a1.46,1.46,0,0,1,1.08-.46,4.26,4.26,0,0,1,1.74.58A17.79,17.79,0,0,0,20,25.87,17.79,17.79,0,0,0,28.55,24a4.26,4.26,0,0,1,1.74-.58,1.46,1.46,0,0,1,1.08.46c.61.6.6,1.79,0,3.25C30.06,30.3,26.3,34,20,34Z"/>
        <path class="cls-13" d="M30.9,24.37c-.74-.74-2.14.3-2.86.62a19.59,19.59,0,0,1-8,1.54A19.59,19.59,0,0,1,12,25c-.72-.32-2.12-1.36-2.86-.62s.15,2.65.57,3.38A10.7,10.7,0,0,0,14.4,32.1c4.85,2.33,11.37,1.35,14.89-2.84a8.7,8.7,0,0,0,1.69-3c.15-.53.38-1.44-.08-1.9Z"/>
        <path class="cls-14" d="M9.1,25.71c1.23-1.23,2.76,2.16,10.9,2.16s9.67-3.39,10.9-2.16a.63.63,0,0,1,.16.25,1.78,1.78,0,0,0-.16-1.59c-1.23-1.23-2.76,2.16-10.9,2.16s-9.67-3.39-10.9-2.16A1.78,1.78,0,0,0,8.94,26,.63.63,0,0,1,9.1,25.71Z"/>
        <path class="cls-14" d="M10.49,26.14C10.52,29.51,16,31,20,31s9.48-1.49,9.51-4.86c-1.22.29-3.41,2.39-9.51,2.39S11.71,26.43,10.49,26.14Z"/>
        <path class="cls-15" d="M10,24.81c0,3.36,5.82,4.86,10,4.86s10-1.5,10-4.86c-1.29.28-3.6,2.39-10,2.39S11.27,25.09,10,24.81Z"/>
        <path class="cls-16" d="M20,27.87c6.26,0,8.61-2,9.92-2.37a2.61,2.61,0,0,0,.1-.69c-1.29.28-3.6,2.39-10,2.39s-8.73-2.11-10-2.39a2.61,2.61,0,0,0,.1.69C11.39,25.87,13.74,27.87,20,27.87Z"/>
        <path class="cls-7" d="M20,33.31a13.07,13.07,0,0,0,4.78-.86A6.34,6.34,0,0,0,20,30.65a6.4,6.4,0,0,0-4.82,1.77A13.06,13.06,0,0,0,20,33.31Z"/>
        <path class="cls-17" d="M24.28,32a13.62,13.62,0,0,1-8.65,0,3.81,3.81,0,0,0-.5.48,13.06,13.06,0,0,0,4.87.89,13.07,13.07,0,0,0,4.78-.86A3.27,3.27,0,0,0,24.28,32Z"/>
      </g>
    </g>
  </g>
</svg>
