<svg id="레이어_1" data-name="레이어 1" xmlns="http://www.w3.org/2000/svg" viewBox="0 0 29.53 39.99">
  <defs>
    <style>
      .cls-1 {
        fill: #e8e8e8;
      }

      .cls-2 {
        fill: #ffb97f;
      }

      .cls-3 {
        fill: #404048;
      }

      .cls-4 {
        fill: #141418;
      }

      .cls-5 {
        fill: #1c1c26;
      }

      .cls-25, .cls-26, .cls-6 {
        fill: #fff;
      }

      .cls-7 {
        fill: #313142;
      }

      .cls-8 {
        opacity: 0.1;
      }

      .cls-9 {
        fill: #f2f2f2;
      }

      .cls-10 {
        fill: #f2a66e;
      }

      .cls-11 {
        fill: #2b221c;
      }

      .cls-12 {
        fill: #ffcb9e;
      }

      .cls-13 {
        fill: #bf3c1b;
      }

      .cls-13, .cls-14, .cls-18, .cls-25 {
        opacity: 0.3;
      }

      .cls-14 {
        fill: #c94614;
      }

      .cls-15, .cls-23 {
        fill: #45362e;
      }

      .cls-16 {
        fill: #ffa073;
      }

      .cls-17 {
        fill: #261b18;
      }

      .cls-18 {
        fill: #b54d26;
      }

      .cls-19 {
        fill: #ffdfc2;
      }

      .cls-20 {
        fill: #e6d2c3;
      }

      .cls-20, .cls-26 {
        opacity: 0.7;
      }

      .cls-21 {
        fill: #f5b37a;
      }

      .cls-22 {
        fill: #bf795c;
      }

      .cls-23 {
        opacity: 0.5;
      }

      .cls-24 {
        fill: #3a3a4a;
      }

      .cls-27 {
        fill: #c1c5c9;
      }
    </style>
  </defs>
  <title>1</title>
  <g>
    <path class="cls-1" d="M9.9,40h5.18l.67-8.95C11.24,32.45,10.29,33,9.9,40Z" transform="translate(-6.39 -0.01)"/>
    <g>
      <path class="cls-2" d="M28.88,25.07c-1.45,2,.13,2.42,1.66,3.33.76.46,1.67,1.26,2.21,0a18.05,18.05,0,0,0,.51-2.05,7.65,7.65,0,0,1,.79-2C35.08,22.88,33.37,19,28.88,25.07Z" transform="translate(-6.39 -0.01)"/>
      <g>
        <path class="cls-3" d="M28.11,16a.61.61,0,0,0-.86.07L23.9,19.77a.61.61,0,0,0,0,.87l6.62,6a.61.61,0,0,0,.86-.08l3.35-3.73a.62.62,0,0,0,0-.87Z" transform="translate(-6.39 -0.01)"/>
        <path class="cls-4" d="M27.87,15.78a.59.59,0,0,0-.84.08l-3.28,3.66a.58.58,0,0,0,0,.83l6.31,5.72A.59.59,0,0,0,30.9,26l3.28-3.66a.58.58,0,0,0,0-.83Z" transform="translate(-6.39 -0.01)"/>
        <path class="cls-5" d="M27.87,15.78a.59.59,0,0,0-.84.08l-3.28,3.66a.58.58,0,0,0,0,.83l6.31,5.72A.59.59,0,0,0,30.9,26l3.28-3.66a.58.58,0,0,0,0-.83Z" transform="translate(-6.39 -0.01)"/>
        <path class="cls-6" d="M28,17a.44.44,0,0,0-.63,0L25,19.72a.45.45,0,0,0,0,.63l4.88,4.42a.44.44,0,0,0,.63,0l2.4-2.66a.47.47,0,0,0,0-.64Z" transform="translate(-6.39 -0.01)"/>
      </g>
      <path class="cls-2" d="M27.58,24.25c-.09.33.45.89.59,1.17.22.46-.08,1.34.46,1.67s.78-.1.93-.5a2.12,2.12,0,0,0-.69-2.21C28.58,24.1,27.74,23.73,27.58,24.25Z" transform="translate(-6.39 -0.01)"/>
      <path class="cls-1" d="M29.82,28.51s2.79,2.37,2,4-4.44-.41-6-1.32c-.54-.32-1,3.92-.84,4,2.69,1.89,7.4,3.08,9.86.17,3-3.57-1.43-9-1.43-9Z" transform="translate(-6.39 -0.01)"/>
      <path class="cls-6" d="M33.3,27.16a.44.44,0,0,0-.45.44.45.45,0,1,0,.89,0A.44.44,0,0,0,33.3,27.16Z" transform="translate(-6.39 -0.01)"/>
    </g>
    <path class="cls-1" d="M25.57,31c-2.48-1.3-8.09-1.28-11,0-2.39,1.05-2,5.35-1.19,9H26.71C27.39,36.39,27.68,32.12,25.57,31Z" transform="translate(-6.39 -0.01)"/>
    <path class="cls-7" d="M21.23,35.91l.64-1.35a1.68,1.68,0,0,0-1.93-.87,1.79,1.79,0,0,0-1.47,1.36l1.06,1.08L18.39,40h4.23l.07-.16Z" transform="translate(-6.39 -0.01)"/>
    <path class="cls-8" d="M15.45,32.45a6.45,6.45,0,0,0,2.82,3.86l2-2.1,2.13,2c2-2,2.48-2.38,2.64-4.1S14.89,30.06,15.45,32.45Z" transform="translate(-6.39 -0.01)"/>
    <path class="cls-9" d="M15.5,30.63c-1,2.79,2.62,5.06,2.62,5.06l2.14-1.48,2,1.39s4-2.26,2.46-5.52C23.38,27.16,16.65,27.39,15.5,30.63Z" transform="translate(-6.39 -0.01)"/>
    <path class="cls-10" d="M18.66,27.3a3.09,3.09,0,0,0-2.28,2.85A2.41,2.41,0,0,0,17,32.29a4.34,4.34,0,0,0,1.75,1c.49.15,1.34.73,1.49.73s.34-.24.8-.48a4.45,4.45,0,0,0,2-1.54c.54-1.06,1-3.17,0-4A5.91,5.91,0,0,0,18.66,27.3Z" transform="translate(-6.39 -0.01)"/>
    <g>
      <path class="cls-11" d="M28,3.21C24.57-.56,18.89-1,12.46,1.83a11.91,11.91,0,0,0,3.34-.14C12.42,3.25,8.44,5.31,7.56,9.3c-2.15,9.88,6,5.32,8.71,6.11,3.12.9,10.89-.11,13.06-3.36a7,7,0,0,0,.48-5.62A8.33,8.33,0,0,0,28,3.21Z" transform="translate(-6.39 -0.01)"/>
      <path class="cls-12" d="M17.79,5.37c-5.27,1-9,8.66-8,15.81.72,5.36,4.83,11.24,11,10.79s9.46-8.33,8.64-14.91C28.56,9.9,25.18,3.92,17.79,5.37Z" transform="translate(-6.39 -0.01)"/>
      <path class="cls-13" d="M24.75,6.67a24.25,24.25,0,0,0-6.28-1c-1.9,0-3.95-.14-5.71.64-1,.43-2.16,1-2.52,2.06-.3.86-.65,2-.17,2.74,1,1.6,3,.64,3.72.26,1.62-.85,9-.27,12.41-.28,1.42,0,3.48-.25,2.89-2.19C28.63,7.42,26.09,7.07,24.75,6.67Z" transform="translate(-6.39 -0.01)"/>
      <path class="cls-12" d="M7.93,18.2c-2.59.72-1.56,4.52.56,5.28a5,5,0,0,0,2.09.23l.05-.06c.31-.5-.13-3.27-.29-3.79C9.94,18.55,9.17,17.86,7.93,18.2Z" transform="translate(-6.39 -0.01)"/>
      <path class="cls-14" d="M8.84,19.6c-.59-.27-2,.22-1.36,1.36.36-1.06,1-.36.91.39-.07.51-.61.51-.07,1.16.29.35.88.22,1.17,0C10.44,22,9.54,19.93,8.84,19.6Z" transform="translate(-6.39 -0.01)"/>
      <path class="cls-11" d="M26.08,3.33c-4-2.1-10.11-1.56-13.46.94a7.34,7.34,0,0,0-3.34,6.59c.07,1.57,2.17,1.81,3.05.69a3.69,3.69,0,0,1,3-1.25c2-.08,9.85-.45,11.69.18,1,.35,2.35.88,2.55-.74a6.06,6.06,0,0,0-1.45-4.88A7.9,7.9,0,0,0,26.08,3.33Z" transform="translate(-6.39 -0.01)"/>
      <path class="cls-15" d="M27,4a10,10,0,0,0-5.66-2.74,11.11,11.11,0,0,0-4.21.39,15.87,15.87,0,0,1,1.51.62,23.19,23.19,0,0,0-4.27,1.4c-.42.2-3.91,2.58-3.91,2.58a4.52,4.52,0,0,0,3.16.1,10.58,10.58,0,0,1,4.78-.14c1.49.34,2.84,1.09,4.32,1.44,0-.67-.6-1.26-.88-1.72.84,0,4.09,2.05,4.75,2.6-.16-.57-.94-1.78-1-2.39.83.12,2.7,1.8,3.27,2.77a7.21,7.21,0,0,0-.22-2.43A5.78,5.78,0,0,0,27,4Z" transform="translate(-6.39 -0.01)"/>
      <path class="cls-11" d="M8.28,14a21.65,21.65,0,0,0,.19,4.1c1.24.15,2.76,1.83,2.76,1.83-.43-3,0-4.64.64-8C10.7,11.94,8.35,12.39,8.28,14Z" transform="translate(-6.39 -0.01)"/>
    </g>
    <g>
      <path class="cls-16" d="M28.47,20.18a2.36,2.36,0,0,0-1.93-.75c-.83,0-1.93.27-1.21,1.47.39.63,3.68,1.13,3.31-.33A1.39,1.39,0,0,0,28.47,20.18Z" transform="translate(-6.39 -0.01)"/>
      <path class="cls-16" d="M16.12,20A2.53,2.53,0,0,0,14,19.76c-.84.2-1.89.78-.84,1.8.56.55,4,.2,3.28-1.19A1.72,1.72,0,0,0,16.12,20Z" transform="translate(-6.39 -0.01)"/>
      <path class="cls-17" d="M14.85,16.5c-1.36-.58-2.21,1.84-1.28,2.63a1.88,1.88,0,0,1,1.34.12A1.67,1.67,0,0,0,14.85,16.5Z" transform="translate(-6.39 -0.01)"/>
      <path class="cls-18" d="M21.32,20.87c-.8,0-1.11-.36-1.67,0s.24,1.4,1.65,1.35,2-1,1.71-1.38S22.2,20.86,21.32,20.87Z" transform="translate(-6.39 -0.01)"/>
      <path class="cls-19" d="M21.11,17.87c-1.5-.13-1.61,3-1.27,3.31a2.88,2.88,0,0,0,3.1-.34C23.14,20.63,22.53,18,21.11,17.87Z" transform="translate(-6.39 -0.01)"/>
      <path class="cls-17" d="M28,16.41c-1.39-.83-2.4,1.85-1.26,2.61a1.76,1.76,0,0,1,1.44,0A2,2,0,0,0,28,16.41Z" transform="translate(-6.39 -0.01)"/>
      <path class="cls-20" d="M14.2,17.1c-.55.19-.13,1.27.41.87C15,17.69,14.69,16.93,14.2,17.1Z" transform="translate(-6.39 -0.01)"/>
      <path class="cls-20" d="M27.24,16.88c-.55.11-.29,1.18.27.88C27.91,17.54,27.72,16.78,27.24,16.88Z" transform="translate(-6.39 -0.01)"/>
      <path class="cls-11" d="M16.12,13.51a6.63,6.63,0,0,0-2.79.17c-1.45.4-1.51,1.13-1.41,1.6s.6.25,2.22.16,2.6.26,2.84-.45A1.07,1.07,0,0,0,16.12,13.51Z" transform="translate(-6.39 -0.01)"/>
      <path class="cls-11" d="M28.49,13.6a6.78,6.78,0,0,0-2.8,0,1.08,1.08,0,0,0-.77,1.53c.28.69,1.36.3,2.86.29s2.14.17,2.21-.3S30,13.91,28.49,13.6Z" transform="translate(-6.39 -0.01)"/>
      <path class="cls-11" d="M30,24.53a8.24,8.24,0,0,1,.5-1.87c.3-1.48.36-4.2-1-5.15.29,2.77-.57,4.88-1.11,5.4-1.13,1.08-2.49-.38-3-.76-1.44-1-2.25-.56-4-.35-2.28,0-3.4-.61-5,1.45-1.21,1.59-4.19.91-4.83-3.2-.11-.65,0-2.11-1-1.79s-.22,6.21-.22,7.34c0,.92.11,2.94,1.22,3.18-.31,1.13-.15,3,1.48,2.51-.09.9-.14,2,.69,2.49a2.25,2.25,0,0,0,2.51-.18,2.92,2.92,0,0,0,1.89,1.69c.73.16,2.12.06,2.32-.84.73.89,4.83,1.72,4.69-.21A1.69,1.69,0,0,0,28,32.46c1.56.15,2-.66,1.82-2.08,1.33-.33,1.35-1.9,1.17-3C30.82,26.4,30.09,25.45,30,24.53Z" transform="translate(-6.39 -0.01)"/>
      <path class="cls-21" d="M23.56,24.14c-.3.75-1.62.27-2.11,0a2,2,0,0,1-2.41.17c-.09.42-1.45.79-1.52,1.35,1.18,2,7.28,1.25,7.94-.21C25.33,24.82,24,24.58,23.56,24.14Z" transform="translate(-6.39 -0.01)"/>
      <path class="cls-22" d="M19.17,25.14A12.2,12.2,0,0,0,23.5,25,9.67,9.67,0,0,0,19.17,25.14Z" transform="translate(-6.39 -0.01)"/>
      <path class="cls-23" d="M22.94,27.56a14.19,14.19,0,0,1-5.3-.47c-1-.24-1.38-.5-2.19.18a6.87,6.87,0,0,0-1.36,1.54c-.5.78-.39,3.8.7,2.39.13,1.63,1.54,1.23,2.37.33.24.82.14,1.43,1.18,1.59a1.81,1.81,0,0,0,1.78-.79c.65.29,1.4,1.53,2.23,1.17.6-.27.27-1.24.64-1.4.6-.26,1.65,1.3,2.37.53.44-.48-.19-1.25-.41-1.69.59.32,2.22.85,2.71,0,.26-.41-.11-1.24-.25-1.66.13.41,1.15.07,1.26-.25.17-.48-.49-1.17-.75-1.48C26.41,25.81,24.88,27.23,22.94,27.56Z" transform="translate(-6.39 -0.01)"/>
    </g>
    <g>
      <path class="cls-8" d="M27.65,21.51a3.38,3.38,0,0,0-.9-.06,7.35,7.35,0,0,1-1.15-.12,3.32,3.32,0,0,1-1.35-.62,2.79,2.79,0,0,1-.7-.79,2.49,2.49,0,0,1-.09-2.1c.36-.93,1.39-1,2.25-1A31.67,31.67,0,0,0,29,16.63c.13,0,0-.88-.06-1a1,1,0,0,0-.61-.6,5.38,5.38,0,0,0-2.75.22,12.05,12.05,0,0,0-2.53.65,2.94,2.94,0,0,1-1.83.51c-1.5-.1-2.73-1.06-4.22-1.26a12.64,12.64,0,0,0-4.67,0c-.4.1-1.61.53-.81,1a7,7,0,0,0,2.84.39l1.2.09c1.42.17,3.61,0,3.45,1.81A3,3,0,0,1,17,21.06a13.74,13.74,0,0,1-2.93.23,5.27,5.27,0,0,1-2.1-.51c-.19-.1-.75-.48-.94-.22-.32.43.81,1.19,1.11,1.33a7,7,0,0,0,2.17.54c1.84.25,3.75.2,4.84-1.49.63-1,1-2.13,1.54-3.13,1-1.65,1.34.62,1.61,1.62A5.09,5.09,0,0,0,23,21a3.75,3.75,0,0,0,2.72,1.39c.61.05,2.62.51,3.26-.64C29.2,21.44,28.06,21.68,27.65,21.51Z" transform="translate(-6.39 -0.01)"/>
      <path class="cls-24" d="M10.68,14.93c-1.22.09-2.27-.22-2.55,0s.33,1.4.33,1.4a2,2,0,0,0,1,.29c.11.85.13,3.06,1.74,4.39,1.34,1.12,5.59,1.31,6.89.6a5.16,5.16,0,0,0,2.49-4C21.13,14,12.4,14.82,10.68,14.93Zm7.44,5.71c-1.58,1.11-5.73.76-6.84-.54-.87-1-1.09-3.14-.59-3.47,1.51-1,7.34-.83,8.72.16C20.08,17.27,19.31,19.81,18.12,20.64Z" transform="translate(-6.39 -0.01)"/>
      <path class="cls-24" d="M30.94,14.92c-1.55-.1-9.44-.88-8.92,2.84a5.17,5.17,0,0,0,2.25,3.94c1.17.7,5,.47,6.23-.66C32,19.69,32,17.48,32.07,16.63a1.76,1.76,0,0,0,.88-.3s.63-1.08.3-1.41S32,15,30.94,14.92Zm-.54,5.17c-1,1.3-4.75,1.69-6.18.61-1.08-.83-1.77-3.36-1.16-3.85,1.24-1,6.51-1.21,7.87-.24C31.38,16.93,31.18,19.08,30.4,20.09Z" transform="translate(-6.39 -0.01)"/>
      <path class="cls-25" d="M24.1,16.59c-.88.32.65.87,1,.94a11.39,11.39,0,0,0,3.74.09c.66-.08,2.1-.59,1.72-1C30,16.1,25.08,16.23,24.1,16.59Z" transform="translate(-6.39 -0.01)"/>
      <path class="cls-6" d="M28,16.61c-.48,0-.79.16-.67.38.22.43,3,.36,3.19.05S29,16.51,28,16.61Z" transform="translate(-6.39 -0.01)"/>
      <path class="cls-26" d="M24.9,19.76c-.3,0-.51,0-.46.22.09.37,1.79.64,2,.42S25.52,19.8,24.9,19.76Z" transform="translate(-6.39 -0.01)"/>
      <path class="cls-26" d="M12.21,19.76c-.31,0-.53,0-.49.2.07.37,1.84.75,2,.54S12.87,19.84,12.21,19.76Z" transform="translate(-6.39 -0.01)"/>
      <path class="cls-25" d="M18.76,16.59c-1.11-.35-6.54-.57-7.08-.07-.39.36,1.24.87,2,1a14.79,14.79,0,0,0,4.1,0C18.11,17.41,19.75,16.91,18.76,16.59Z" transform="translate(-6.39 -0.01)"/>
      <path class="cls-6" d="M16.39,16.36c-.5,0-.83.14-.72.37.23.43,3.14.44,3.36.13S17.45,16.29,16.39,16.36Z" transform="translate(-6.39 -0.01)"/>
      <path class="cls-24" d="M23.23,15.58a6.39,6.39,0,0,1-3.92,0c-1.21-.36.62.76.75,1.38s-.1,2.63.33,1.51,1.23-1.14,1.73-.09.63-1.68.85-1.93S24.43,15.25,23.23,15.58Z" transform="translate(-6.39 -0.01)"/>
      <path class="cls-27" d="M11.27,15.28c3.3.05,5.94.06,8,.76C17.89,15,15.65,14.85,11.27,15.28Z" transform="translate(-6.39 -0.01)"/>
      <path class="cls-27" d="M23.6,16c1.79-.72,4-.52,7-.76C26.62,15.08,24.74,15,23.6,16Z" transform="translate(-6.39 -0.01)"/>
    </g>
  </g>
</svg>
