<svg xmlns="http://www.w3.org/2000/svg" xmlns:xlink="http://www.w3.org/1999/xlink" viewBox="0 0 40 40">
  <defs>
    <style>
      .cls-1 {
        isolation: isolate;
      }

      .cls-2 {
        fill: url(#linear-gradient);
      }

      .cls-3, .cls-4 {
        opacity: 0.25;
      }

      .cls-12, .cls-3, .cls-5, .cls-6, .cls-8 {
        mix-blend-mode: multiply;
      }

      .cls-3 {
        fill: url(#radial-gradient);
      }

      .cls-10, .cls-4 {
        fill: #fff;
      }

      .cls-5 {
        opacity: 0.35;
        fill: url(#linear-gradient-2);
      }

      .cls-6, .cls-8 {
        opacity: 0.5;
      }

      .cls-6 {
        fill: url(#linear-gradient-3);
      }

      .cls-7 {
        fill: #5d4037;
      }

      .cls-8 {
        fill: url(#linear-gradient-4);
      }

      .cls-9 {
        fill: #4e342e;
      }

      .cls-11 {
        fill: #f5f5f5;
      }

      .cls-12 {
        fill: #cfd8dc;
      }
    </style>
    <linearGradient id="linear-gradient" x1="20" y1="-0.67" x2="20" y2="40.75" gradientUnits="userSpaceOnUse">
      <stop offset="0" stop-color="#ffe082"/>
      <stop offset="1" stop-color="#ffbf66"/>
    </linearGradient>
    <radialGradient id="radial-gradient" cx="20" cy="20" r="20" gradientUnits="userSpaceOnUse">
      <stop offset="0.8" stop-color="#fff"/>
      <stop offset="1" stop-color="#ffbf66"/>
    </radialGradient>
    <linearGradient id="linear-gradient-2" x1="20" y1="17.63" x2="20" y2="40.41" xlink:href="#linear-gradient"/>
    <linearGradient id="linear-gradient-3" x1="20.58" y1="11.02" x2="30.15" y2="11.02" xlink:href="#linear-gradient"/>
    <linearGradient id="linear-gradient-4" x1="11.74" y1="7.67" x2="18.57" y2="7.67" xlink:href="#linear-gradient"/>
  </defs>
  <title>1</title>
  <g class="cls-1">
    <g id="레이어_1" data-name="레이어 1">
      <g>
        <g>
          <circle class="cls-2" cx="20" cy="20" r="20"/>
          <circle class="cls-3" cx="20" cy="20" r="20"/>
          <path class="cls-4" d="M36.5,15.12c0,7.43-7.39,0-16.5,0s-16.5,7.43-16.5,0S10.89,1.67,20,1.67,36.5,7.69,36.5,15.12Z"/>
          <path class="cls-5" d="M20,36A20,20,0,0,1,.1,18,18.86,18.86,0,0,0,0,20a20,20,0,0,0,40,0,18.86,18.86,0,0,0-.1-2A20,20,0,0,1,20,36Z"/>
        </g>
        <g>
          <path class="cls-6" d="M21.5,10.19a14.1,14.1,0,0,1,5.27-.72,9,9,0,0,1,3.06.79c.29.14.53.64,0,.7a4.21,4.21,0,0,1-.93-.16,10.46,10.46,0,0,0-6.16,1.5c-.66.35-1.44.56-2-.17A1.26,1.26,0,0,1,21.5,10.19Z"/>
          <path class="cls-7" d="M21.5,9.52a14.1,14.1,0,0,1,5.27-.72,9,9,0,0,1,3.06.79c.29.14.53.64,0,.71a4.91,4.91,0,0,1-.93-.17,10.53,10.53,0,0,0-6.16,1.5c-.66.35-1.44.56-2-.16A1.27,1.27,0,0,1,21.5,9.52Z"/>
        </g>
        <g>
          <path class="cls-8" d="M16.19,10.21a10.26,10.26,0,0,0-2.74-4.09,9,9,0,0,0-1.06-.78c-.18-.11-.51-.21-.6-.44-.38-1,1.55-.21,1.81-.09A12.09,12.09,0,0,1,18.14,8.7a1.35,1.35,0,0,1,.09,1.88A1.27,1.27,0,0,1,16.19,10.21Z"/>
          <path class="cls-7" d="M16.19,9.55a10.23,10.23,0,0,0-2.74-4.1,8,8,0,0,0-1.06-.77c-.18-.12-.51-.22-.6-.45-.38-1,1.55-.21,1.81-.09A12.11,12.11,0,0,1,18.14,8a1.34,1.34,0,0,1,.09,1.87A1.26,1.26,0,0,1,16.19,9.55Z"/>
        </g>
        <g>
          <path class="cls-4" d="M13,22.09a5.38,5.38,0,1,1,5.34-5.38A5.37,5.37,0,0,1,13,22.09Z"/>
          <path class="cls-7" d="M17.7,16.71A4.74,4.74,0,0,1,13,21.42,4.71,4.71,0,0,1,13,12,4.74,4.74,0,0,1,17.7,16.71Z"/>
          <path class="cls-9" d="M13,13.34a4.68,4.68,0,0,1,4.62,4,4.91,4.91,0,0,0,.05-.67,4.67,4.67,0,1,0-9.34,0,4.91,4.91,0,0,0,.05.67A4.68,4.68,0,0,1,13,13.34Z"/>
          <path class="cls-10" d="M17,16.71a4,4,0,1,1-4-4A4,4,0,0,1,17,16.71Z"/>
          <path class="cls-11" d="M13,20.07a3.36,3.36,0,1,1,3.33-3.36A3.34,3.34,0,0,1,13,20.07Z"/>
          <path class="cls-10" d="M16.79,16.14c0,1.69-1.69,0-3.76,0s-3.75,1.69-3.75,0A3.66,3.66,0,0,1,13,12.81,3.67,3.67,0,0,1,16.79,16.14Z"/>
          <path class="cls-7" d="M13.29,16.71a1.6,1.6,0,0,1-3.19,0A1.6,1.6,0,0,1,13.29,16.71Z"/>
          <path class="cls-12" d="M13,13.35a4,4,0,0,1,4,3.7c0-.11,0-.23,0-.34a4,4,0,1,0-8,0c0,.11,0,.23,0,.34A4,4,0,0,1,13,13.35Z"/>
        </g>
        <g>
          <path class="cls-4" d="M27,22.09a5.38,5.38,0,1,1,5.34-5.38A5.37,5.37,0,0,1,27,22.09Z"/>
          <path class="cls-7" d="M31.72,16.71A4.68,4.68,0,1,1,27,12,4.74,4.74,0,0,1,31.72,16.71Z"/>
          <path class="cls-9" d="M27,13.34a4.68,4.68,0,0,1,4.62,4,3.71,3.71,0,0,0,.06-.67,4.68,4.68,0,1,0-9.35,0,4.91,4.91,0,0,0,.05.67A4.69,4.69,0,0,1,27,13.34Z"/>
          <path class="cls-10" d="M31,16.71a4,4,0,1,1-4-4A4,4,0,0,1,31,16.71Z"/>
          <path class="cls-11" d="M27,20.07a3.36,3.36,0,1,1,3.34-3.36A3.35,3.35,0,0,1,27,20.07Z"/>
          <path class="cls-10" d="M30.8,16.14c0,1.69-1.68,0-3.76,0s-3.75,1.69-3.75,0a3.78,3.78,0,0,1,7.51,0Z"/>
          <path class="cls-7" d="M27.3,16.71a1.59,1.59,0,0,1-3.18,0A1.59,1.59,0,0,1,27.3,16.71Z"/>
          <path class="cls-12" d="M27,13.35a4,4,0,0,1,4,3.7c0-.11,0-.23,0-.34a4,4,0,1,0-8,0c0,.11,0,.23,0,.34A4,4,0,0,1,27,13.35Z"/>
        </g>
        <g>
          <path class="cls-4" d="M19.75,33.23c-.91,0-1.86,0-2.83-.13-2.48-.21-5.61-.79-6.45-2.34a2,2,0,0,1,.09-1.94,2.5,2.5,0,0,1,2.31-1.15l2.24,0h.78c1.34,0,2.68,0,4,0s2.66,0,4,0h.77l2.24,0a2.53,2.53,0,0,1,2.32,1.15,1.94,1.94,0,0,1,.08,1.94c-.83,1.55-4,2.13-6.45,2.34-1,.08-1.92.13-2.83.13Z"/>
          <path class="cls-7" d="M28.66,29.14a1.82,1.82,0,0,0-1.75-.8c-.89,0-1.77,0-2.65,0-1.45,0-2.91,0-4.36,0s-2.9,0-4.36,0c-.88,0-1.76,0-2.65,0a1.82,1.82,0,0,0-1.75.8c-1.43,2.61,4.59,3.19,5.84,3.3,1,.08,1.94.12,2.92.12s2,0,2.92-.12C24.07,32.33,30.09,31.75,28.66,29.14Z"/>
          <path class="cls-9" d="M11.14,30.47a1.84,1.84,0,0,1,1.75-.8c.89,0,1.77,0,2.65,0,1.46,0,2.91,0,4.36,0s2.91,0,4.36,0c.88,0,1.76,0,2.65,0a1.84,1.84,0,0,1,1.75.8l0,.06a1.29,1.29,0,0,0,0-1.39,1.82,1.82,0,0,0-1.75-.8c-.89,0-1.77,0-2.65,0-1.45,0-2.91,0-4.36,0s-2.9,0-4.36,0c-.88,0-1.76,0-2.65,0a1.82,1.82,0,0,0-1.75.8,1.29,1.29,0,0,0,0,1.39Z"/>
        </g>
      </g>
    </g>
  </g>
</svg>
