<svg id="레이어_1" data-name="레이어 1" xmlns="http://www.w3.org/2000/svg" viewBox="0 0 26.96 40">
  <defs>
    <style>
      .cls-1 {
        fill: #1e1e29;
      }

      .cls-2 {
        fill: #e8e8e8;
      }

      .cls-3 {
        fill: #313142;
      }

      .cls-4 {
        opacity: 0.1;
      }

      .cls-5 {
        fill: #f5f5f5;
      }

      .cls-6 {
        fill: #f2b486;
      }

      .cls-7 {
        fill: #4f3023;
      }

      .cls-8 {
        fill: #ffcb9e;
      }

      .cls-9 {
        fill: #bf3c1b;
      }

      .cls-10, .cls-15, .cls-21, .cls-9 {
        opacity: 0.3;
      }

      .cls-10 {
        fill: #c94614;
      }

      .cls-11 {
        fill: #693a27;
      }

      .cls-12 {
        fill: #bf795c;
      }

      .cls-13 {
        fill: #ffa073;
      }

      .cls-14 {
        fill: #224245;
      }

      .cls-15 {
        fill: #b54d26;
      }

      .cls-16 {
        fill: #ffdfc2;
      }

      .cls-17 {
        fill: #d4e6dd;
      }

      .cls-17, .cls-22 {
        opacity: 0.7;
      }

      .cls-18 {
        fill: #94110c;
        opacity: 0.5;
      }

      .cls-19 {
        fill: #2b221c;
      }

      .cls-20 {
        fill: #3a3a4a;
      }

      .cls-21, .cls-22 {
        fill: #fff;
      }

      .cls-23 {
        fill: #c1c5c9;
      }
    </style>
  </defs>
  <title>1</title>
  <g>
    <g>
      <path class="cls-1" d="M7.72,40h4.94l-.5-8.11C8.66,33.52,7.58,33.9,7.72,40Z" transform="translate(-6.7)"/>
      <path class="cls-1" d="M28.49,31.89,28,40h4.95C33.07,33.9,32,33.52,28.49,31.89Z" transform="translate(-6.7)"/>
      <path class="cls-2" d="M26.06,30.89a12.38,12.38,0,0,0-11.15.29c-2.78,1.81-2.67,4.64-2,8.82H27.92C28.61,35.82,28.78,32.35,26.06,30.89Z" transform="translate(-6.7)"/>
      <path class="cls-3" d="M21.94,35.3a1.64,1.64,0,0,0-1.89-.84,1.75,1.75,0,0,0-1.44,1.32l1,1.06L18.81,40h3.31l-.8-3.37Z" transform="translate(-6.7)"/>
      <path class="cls-1" d="M25.35,30.54A34.52,34.52,0,0,0,24.23,40H29a58.14,58.14,0,0,0,.25-7.48C28.89,31.74,25.35,30.54,25.35,30.54Z" transform="translate(-6.7)"/>
      <path class="cls-1" d="M11.45,32.52A58.14,58.14,0,0,0,11.7,40h4.72a34.52,34.52,0,0,0-1.12-9.46S11.76,31.74,11.45,32.52Z" transform="translate(-6.7)"/>
      <path class="cls-4" d="M15.54,33.13a7.08,7.08,0,0,0,3.08,3.64l1.69-1.86,2.23,1.85a5.67,5.67,0,0,0,3-4.23C25.57,31.41,14.85,30.8,15.54,33.13Z" transform="translate(-6.7)"/>
      <path class="cls-5" d="M15.57,30.36c-1.9,2.56,2.89,5.8,2.89,5.8l1.87-1.47,2.11,1.53s4.33-2.39,2.8-5.6C23.86,27.74,17.48,27.79,15.57,30.36Z" transform="translate(-6.7)"/>
      <path class="cls-6" d="M23.75,27.56c-1.2-.95-3.55-1.1-5-.79a3.46,3.46,0,0,0-2.6,3.16c-.13,1.82,2.55,4.26,4.41,4.31C22,34.27,27.93,30.87,23.75,27.56Z" transform="translate(-6.7)"/>
      <path class="cls-3" d="M25.3,30.37a29.22,29.22,0,0,0-1.07,9.41c.05.37,4.27-4.69,4.24-4.85a16.57,16.57,0,0,0-1.63-1.35l1.75-2A9.66,9.66,0,0,0,25.3,30.37Z" transform="translate(-6.7)"/>
      <path class="cls-3" d="M12,31.53l1.75,2a15.43,15.43,0,0,0-1.62,1.35c0,.16,4.21,5.28,4.26,4.92a30,30,0,0,0-1.1-9.48A9.66,9.66,0,0,0,12,31.53Z" transform="translate(-6.7)"/>
    </g>
    <g>
      <path class="cls-7" d="M27,.45C21.37-.74,12,.33,8.83,5.05a5.71,5.71,0,0,0-1,4.52c.41,1.67,1.62,2.77,3.45,2.22a3.62,3.62,0,0,1,2.53.12c1,.34,2,.87,3,1.12,1.77.43,3.64.13,5.38.65a7.49,7.49,0,0,0,4.88,0c1.52-.53,3.23-.85,3.41-2.72a2.29,2.29,0,0,1,.32,1.75,5.8,5.8,0,0,0,2-2.56,7.4,7.4,0,0,0-.45-5.76A7.87,7.87,0,0,0,27,.45Z" transform="translate(-6.7)"/>
      <path class="cls-8" d="M17.57,4.75C12.28,6,8.86,13.89,10.15,21.07c1,5.39,5.37,11.15,11.61,10.43s9.2-8.83,8.09-15.45C28.64,8.85,25,3,17.57,4.75Z" transform="translate(-6.7)"/>
      <path class="cls-9" d="M24.66,5.76a24.14,24.14,0,0,0-6.39-.7,13.77,13.77,0,0,0-5.74.9c-1,.47-2.14,1.12-2.46,2.19-.26.88-.57,2-.06,2.78,1.09,1.56,3,.52,3.78.09,1.6-.92,9.06-.66,12.52-.82,1.45-.06,3.52-.41,2.84-2.33C28.61,6.34,26,6.1,24.66,5.76Z" transform="translate(-6.7)"/>
      <path class="cls-8" d="M8.16,18.14c-2.59.84-1.38,4.64.8,5.32a5.24,5.24,0,0,0,2.12.14.43.43,0,0,1,0-.07c.29-.51-.27-3.3-.45-3.81C10.21,18.4,9.4,17.74,8.16,18.14Z" transform="translate(-6.7)"/>
      <path class="cls-10" d="M9.14,19.52c-.6-.25-2.05.31-1.31,1.43.32-1.09,1-.41.93.36,0,.51-.59.54,0,1.17a1,1,0,0,0,1.19,0C10.86,21.82,9.87,19.82,9.14,19.52Z" transform="translate(-6.7)"/>
      <path class="cls-7" d="M27.26,3a5,5,0,0,0-1.34-.84,9.41,9.41,0,0,0-4.06-.64c-1.08.05-2.15-.14-3.23-.08a22.09,22.09,0,0,0-3.52.49,13.29,13.29,0,0,0-4,1.4c-1,.63-1.4,2-1.85,3.07A4.58,4.58,0,0,0,9.13,8a24.35,24.35,0,0,0,.08,2.7c.14,1.58,2.27,1.73,3.11.56a3.75,3.75,0,0,1,3-1.4c2-.16,9.93-.88,11.81-.32,1,.31,2.42.78,2.55-.86A7.08,7.08,0,0,0,29,5.78,7.23,7.23,0,0,0,27.26,3Z" transform="translate(-6.7)"/>
      <path class="cls-11" d="M28.62,2.15C25.89.74,22.33.81,19.39,1.08a18.15,18.15,0,0,0-7,2.22A4.77,4.77,0,0,0,9.84,8.38a8.55,8.55,0,0,1,4.57-3A24.27,24.27,0,0,1,13,7.85C14,7.26,18.52,5,19.73,4.93c-.38.48-1.27,1.12-1.18,1.79,2-.42,4.11-1.66,6.19-1.61-.61.64-1.62.83-2.12,1.62,2-.07,4.2-.45,6.28-.56A8.37,8.37,0,0,0,27,7.35a21.32,21.32,0,0,1,5.24.13A6.85,6.85,0,0,0,28.62,2.15Z" transform="translate(-6.7)"/>
      <path class="cls-12" d="M8.68,11.16C8,12.37,8.51,17.57,8.7,18c1.26.1,2.87,1.72,2.87,1.72-.56-3-.16-4.69.3-8.09A14,14,0,0,1,8.68,11.16Z" transform="translate(-6.7)"/>
    </g>
    <g>
      <path class="cls-13" d="M29.61,19.29a2.42,2.42,0,0,0-2-.67c-.84,0-1.94.36-1.15,1.54.42.62,3.77,1,3.33-.48A1.31,1.31,0,0,0,29.61,19.29Z" transform="translate(-6.7)"/>
      <path class="cls-13" d="M15.82,19.65a2.47,2.47,0,0,0-2.18-.16c-.85.23-1.88.87-.78,1.85.59.53,4.09,0,3.26-1.34A1,1,0,0,0,15.82,19.65Z" transform="translate(-6.7)"/>
      <path class="cls-14" d="M15.08,16.13c-1.39-.54-2.15,1.95-1.18,2.71a1.93,1.93,0,0,1,1.36.06A1.68,1.68,0,0,0,15.08,16.13Z" transform="translate(-6.7)"/>
      <path class="cls-15" d="M21.8,20.25c-.8.05-1.13-.31-1.68.05s.3,1.4,1.72,1.29,2-1.12,1.68-1.47S22.69,20.2,21.8,20.25Z" transform="translate(-6.7)"/>
      <path class="cls-16" d="M21.46,17.23c-1.51-.07-1.49,3.14-1.13,3.4.87.64,2.62.08,3.11-.48C23.64,19.93,22.91,17.29,21.46,17.23Z" transform="translate(-6.7)"/>
      <path class="cls-14" d="M28.31,15.46c-1.43-.78-2.35,2-1.16,2.69a1.79,1.79,0,0,1,1.45-.07A2,2,0,0,0,28.31,15.46Z" transform="translate(-6.7)"/>
      <path class="cls-17" d="M14.45,16.76c-.55.21-.08,1.28.45.86C15.28,17.32,14.94,16.57,14.45,16.76Z" transform="translate(-6.7)"/>
      <path class="cls-17" d="M27.61,16c-.54.14-.23,1.21.32.88C28.32,16.6,28.1,15.84,27.61,16Z" transform="translate(-6.7)"/>
      <path class="cls-18" d="M26.37,21.2a1.17,1.17,0,0,0,.3,1.15,5.67,5.67,0,0,1-5.31,3.51A5.77,5.77,0,0,1,16,23.12a1.09,1.09,0,0,0-.06-1.22,1.38,1.38,0,0,1-1.8.82,1.36,1.36,0,0,0,1.09.74,6.65,6.65,0,0,0,6,3.18h.23a6.46,6.46,0,0,0,6.08-4,1.1,1.1,0,0,0,.87-.93A1.55,1.55,0,0,1,26.37,21.2Z" transform="translate(-6.7)"/>
      <path class="cls-19" d="M18.31,13.13a12.21,12.21,0,0,0-3.25-.1c-1.67.17-2.78.72-2.64,1.07s1.34.2,3.23.27,3,.4,3.28-.1A.74.74,0,0,0,18.31,13.13Z" transform="translate(-6.7)"/>
      <path class="cls-19" d="M27.51,12.55a10,10,0,0,0-2.88.3A.75.75,0,0,0,24.12,14c.23.48,1.37.08,2.91-.09s2.75-.11,2.86-.46S29,12.63,27.51,12.55Z" transform="translate(-6.7)"/>
    </g>
    <g>
      <path class="cls-15" d="M28.71,13.54a14.72,14.72,0,0,0-2.94.51,12.75,12.75,0,0,0-2.53.76,3,3,0,0,1-1.83.6c-1.51,0-2.8-.95-4.31-1.08a12.54,12.54,0,0,0-4.73.16c-.4.12-1.6.6-.77,1a7,7,0,0,0,2.88.27c.41,0,.82,0,1.22.05,1.44.1,3.64-.14,3.56,1.67a3,3,0,0,1-1.82,2.77,13.37,13.37,0,0,1-3,.36,5,5,0,0,1-2.15-.43c-.19-.08-.77-.44-.95-.17-.31.44.87,1.16,1.18,1.29a7.2,7.2,0,0,0,2.21.46c1.87.16,3.8,0,4.82-1.72.6-1,.88-2.2,1.43-3.24.9-1.7,1.38.58,1.69,1.57A5.36,5.36,0,0,0,23.5,20a3.78,3.78,0,0,0,2.81,1.29A4.15,4.15,0,0,0,28.12,21c.35-.15.48-.56.06-.71a3.52,3.52,0,0,0-.92,0,6.46,6.46,0,0,1-1.16-.07,3.31,3.31,0,0,1-1.39-.57,2.59,2.59,0,0,1-.74-.77,2.48,2.48,0,0,1-.18-2.11c.32-1,1.36-1.06,2.23-1.15,1-.11,2.1-.11,3.14-.22a9.35,9.35,0,0,1,1.4,0c.59,0,1.88-.21,1.15-1.07S29.68,13.47,28.71,13.54Z" transform="translate(-6.7)"/>
      <path class="cls-20" d="M10.75,14.36c-1.23.14-2.31-.13-2.58.14s.39,1.41.39,1.41a2.13,2.13,0,0,0,1,.25c.15.86.27,3.08,1.95,4.36,1.4,1.07,5.71,1.08,7,.3a5.19,5.19,0,0,0,2.34-4.11C21.27,12.91,12.48,14.17,10.75,14.36Zm7.76,5.44c-1.55,1.19-5.75,1-6.94-.25-.91-1-1.22-3.13-.74-3.47,1.49-1.07,7.38-1.16,8.82-.23C20.34,16.31,19.68,18.91,18.51,19.8Z" transform="translate(-6.7)"/>
      <path class="cls-20" d="M31.22,13.46c-1.57,0-9.58-.48-8.89,3.26a5.18,5.18,0,0,0,2.44,3.88c1.21.66,5.09.25,6.26-.94,1.41-1.43,1.34-3.65,1.41-4.52a1.85,1.85,0,0,0,.87-.34s.59-1.12.24-1.44S32.34,13.48,31.22,13.46ZM30.9,18.7c-1,1.37-4.73,1.93-6.22.89-1.13-.78-1.93-3.32-1.34-3.83,1.21-1.06,6.52-1.51,8-.59C31.75,15.47,31.64,17.65,30.9,18.7Z" transform="translate(-6.7)"/>
      <path class="cls-21" d="M24.38,15.44c-.88.37.69.86,1,.91a11.74,11.74,0,0,0,3.78-.07c.67-.11,2.1-.69,1.7-1.06C30.32,14.7,25.35,15,24.38,15.44Z" transform="translate(-6.7)"/>
      <path class="cls-22" d="M28.28,15.3c-.48.06-.79.2-.66.41.25.43,3,.24,3.22-.08S29.29,15.15,28.28,15.3Z" transform="translate(-6.7)"/>
      <path class="cls-22" d="M25.32,18.61c-.3,0-.5.06-.45.25.11.37,1.84.57,2,.34S26,18.63,25.32,18.61Z" transform="translate(-6.7)"/>
      <path class="cls-22" d="M12.51,19.17c-.32,0-.54,0-.49.22.09.37,1.89.68,2.07.46S13.17,19.22,12.51,19.17Z" transform="translate(-6.7)"/>
      <path class="cls-21" d="M19,15.68c-1.13-.3-6.63-.29-7.15.24s1.29.82,2,.88A14.47,14.47,0,0,0,18,16.61C18.37,16.54,20,16,19,15.68Z" transform="translate(-6.7)"/>
      <path class="cls-22" d="M16.58,15.55c-.5.06-.84.18-.71.4.25.43,3.19.31,3.4,0S17.65,15.43,16.58,15.55Z" transform="translate(-6.7)"/>
      <path class="cls-20" d="M23.46,14.47a6.59,6.59,0,0,1-4,.15c-1.24-.32.66.73.81,1.36s0,2.66.41,1.51,1.18-1.21,1.74-.17.56-1.72.77-2S24.66,14.07,23.46,14.47Z" transform="translate(-6.7)"/>
      <path class="cls-23" d="M11.36,14.68c3.34-.09,6-.2,8.07.43C18,14.12,15.76,14.06,11.36,14.68Z" transform="translate(-6.7)"/>
      <path class="cls-23" d="M30.93,13.74c-4.07.07-6,.06-7.09,1.08C25.62,14,27.9,14.12,30.93,13.74Z" transform="translate(-6.7)"/>
    </g>
  </g>
</svg>
