<svg id="레이어_1" data-name="레이어 1" xmlns="http://www.w3.org/2000/svg" viewBox="0 0 39.85 36.17">
  <defs>
    <style>
      .cls-1 {
        fill: #576d64;
      }

      .cls-1, .cls-2, .cls-3 {
        fill-rule: evenodd;
      }

      .cls-2 {
        fill: #e3ca95;
      }
    </style>
  </defs>
  <title>1</title>
  <g>
    <polygon class="cls-1" points="5.16 24.36 3.17 25.39 2.77 28.29 4.6 31.22 3.17 31.86 1.39 32.92 0.45 34.9 1.94 35.58 7.96 35.31 9.85 35.73 9.12 32.92 6.89 31.86 5.86 31.85 5.58 31.6 6.7 29.9 7.57 27.1 6.89 25.39 5.16 24.36"/>
    <polygon class="cls-1" points="19.85 24.36 18.28 24.28 17.85 25.39 17.45 28.29 19.28 31.22 17.85 31.86 16.08 32.92 15.14 34.9 16.63 35.58 22.64 35.31 24.54 35.73 23.8 32.92 21.57 31.86 20.54 31.85 20.26 31.6 21.39 29.9 22.25 27.1 21.57 25.39 19.85 24.36"/>
    <polygon class="cls-1" points="34.65 24.36 33.08 24.28 32.65 25.39 32.26 28.29 34.09 31.22 32.65 31.86 30.88 32.92 29.94 34.9 31.43 35.58 37.44 35.31 39.34 35.73 38.61 32.92 36.37 31.86 35.34 31.85 35.06 31.6 36.19 29.9 37.05 27.1 36.37 25.39 34.65 24.36"/>
    <polygon class="cls-1" points="22.38 11.25 21.83 13.76 20.3 16.77 26.05 16.5 26.05 14.13 24.44 11.88 22.38 11.25"/>
    <polygon class="cls-1" points="17.49 11.36 14.39 12.42 13.34 15.29 13.91 17.03 19.57 16.5 17.78 13.6 17.49 11.36"/>
    <polygon class="cls-2" points="19.06 0.64 17.05 1.76 16.39 5.4 17.87 8.75 18.85 9.56 17.78 11.28 19.01 11.82 22.09 11.25 21.02 9.26 23.03 6.42 23.03 2.95 22.04 0.93 19.06 0.64"/>
    <path class="cls-1" d="M15.94,14.14c-.5.62-1,1.23-1.49,1.85a6.06,6.06,0,0,0-1.17,1.65.31.31,0,0,0,.45.33,6.32,6.32,0,0,0,1.36-1.55l1.38-1.77C16.76,14.28,16.24,13.76,15.94,14.14Z" transform="translate(-0.08 -1.88)"/>
    <path class="cls-1" d="M17.07,14.61c-.53.74-1.07,1.47-1.64,2.18a6.52,6.52,0,0,0-1.28,1.74c-.09.28.25.46.47.34A6,6,0,0,0,16.29,17c.52-.66,1-1.34,1.49-2C18.08,14.57,17.37,14.19,17.07,14.61Z" transform="translate(-0.08 -1.88)"/>
    <path class="cls-1" d="M17.89,16.22l-1.11,1.26a7.73,7.73,0,0,0-1,1.22c-.14.27.18.64.46.44A7.3,7.3,0,0,0,17.31,18l1.1-1.27C18.71,16.37,18.2,15.87,17.89,16.22Z" transform="translate(-0.08 -1.88)"/>
    <path class="cls-1" d="M23.13,14l-1.22,1.62c-.29.39.25.91.54.52l1.22-1.62C24,14.15,23.42,13.63,23.13,14Z" transform="translate(-0.08 -1.88)"/>
    <path class="cls-1" d="M24.46,14.53l-1.67,1.86a13.12,13.12,0,0,0-1.49,1.75c-.17.27.21.66.47.45a13.21,13.21,0,0,0,1.57-1.69L25,15C25.29,14.68,24.77,14.19,24.46,14.53Z" transform="translate(-0.08 -1.88)"/>
    <path class="cls-1" d="M25,15.68a6.54,6.54,0,0,1-1.78,2,.36.36,0,0,0,.38.61,5.46,5.46,0,0,0,2.08-2.26C26,15.61,25.27,15.23,25,15.68Z" transform="translate(-0.08 -1.88)"/>
    <path class="cls-1" d="M4.83,26.74A27.79,27.79,0,0,0,2.89,29.4a.34.34,0,0,0,.54.4,26.65,26.65,0,0,0,1.93-2.55C5.63,26.87,5.11,26.37,4.83,26.74Z" transform="translate(-0.08 -1.88)"/>
    <path class="cls-1" d="M6.3,27.4,4.7,29.48a12.87,12.87,0,0,0-1.42,1.94.35.35,0,0,0,.56.41,12.89,12.89,0,0,0,1.53-1.92l1.49-2C7.16,27.54,6.61,27,6.3,27.4Z" transform="translate(-0.08 -1.88)"/>
    <path class="cls-1" d="M7,29.08A34.67,34.67,0,0,0,4.3,32a.33.33,0,0,0,.48.46,34.88,34.88,0,0,0,2.77-2.93C7.85,29.24,7.35,28.76,7,29.08Z" transform="translate(-0.08 -1.88)"/>
    <path class="cls-1" d="M6.22,32.19a43,43,0,0,0-4.95,4.68.35.35,0,0,0,.51.48c1.66-1.54,3.19-3.21,4.9-4.71C7,32.36,6.53,31.92,6.22,32.19Z" transform="translate(-0.08 -1.88)"/>
    <path class="cls-1" d="M6.37,33.83c-.53.5-1,1-1.54,1.55A8.05,8.05,0,0,0,3.54,37c-.12.25.17.62.43.41a11.37,11.37,0,0,0,1.37-1.49c.49-.54,1-1.06,1.52-1.56C7.18,34,6.68,33.54,6.37,33.83Z" transform="translate(-0.08 -1.88)"/>
    <path class="cls-1" d="M7.37,34.82c-.29.46-.61.92-.93,1.36a6.45,6.45,0,0,0-.86,1.16c-.1.23.14.54.39.37a5,5,0,0,0,1-1.23c.32-.44.63-.88.92-1.34S7.6,34.47,7.37,34.82Z" transform="translate(-0.08 -1.88)"/>
    <path class="cls-1" d="M8.6,35.78l-.52.82c-.2.32.29.57.5.28l.56-.81C9.37,35.75,8.82,35.44,8.6,35.78Z" transform="translate(-0.08 -1.88)"/>
    <path class="cls-1" d="M19.39,26.4c-.35.5-.72,1-1.11,1.47a12.23,12.23,0,0,0-1,1.27c-.16.28.2.66.47.45a11.88,11.88,0,0,0,2.31-2.82C20.33,26.37,19.67,26,19.39,26.4Z" transform="translate(-0.08 -1.88)"/>
    <path class="cls-1" d="M21.1,27c-.6.74-1.2,1.46-1.83,2.17a9.46,9.46,0,0,0-1.67,2,.31.31,0,0,0,.43.41,7.75,7.75,0,0,0,1.81-1.89c.62-.73,1.21-1.46,1.8-2.2C21.94,27.16,21.4,26.64,21.1,27Z" transform="translate(-0.08 -1.88)"/>
    <path class="cls-1" d="M21.47,29.14c-.51.71-1,1.42-1.61,2.1s-1,1.11-1.46,1.72c-.17.24.19.59.42.41a18.14,18.14,0,0,0,3.23-3.91C22.3,29.1,21.71,28.79,21.47,29.14Z" transform="translate(-0.08 -1.88)"/>
    <path class="cls-1" d="M20.73,32.34c-1.24,1.49-2.63,2.94-3.72,4.53-.23.34.29.69.56.41,1.33-1.36,2.46-3,3.67-4.46C21.52,32.47,21,32,20.73,32.34Z" transform="translate(-0.08 -1.88)"/>
    <path class="cls-1" d="M21.24,34.2a9.65,9.65,0,0,0-1.7,2.74.33.33,0,0,0,.56.31A11.51,11.51,0,0,0,20.84,36c.28-.46.59-.91.91-1.34S21.52,33.84,21.24,34.2Z" transform="translate(-0.08 -1.88)"/>
    <path class="cls-1" d="M22.69,34.43c-.45,1-1.05,1.81-1.59,2.73a.3.3,0,0,0,.48.35,11.35,11.35,0,0,0,1.67-2.78C23.42,34.36,22.86,34.05,22.69,34.43Z" transform="translate(-0.08 -1.88)"/>
    <path class="cls-1" d="M24,35.18A5.12,5.12,0,0,0,22.84,37c-.11.31.36.47.51.2a7.16,7.16,0,0,1,1.08-1.53C24.71,35.32,24.25,34.89,24,35.18Z" transform="translate(-0.08 -1.88)"/>
    <path class="cls-1" d="M17.41,33.88c-.34.46-.68.91-1,1.36a7.9,7.9,0,0,0-.91,1.18c-.13.27.18.64.45.43A6,6,0,0,0,17,35.58c.35-.45.68-.9,1-1.36S17.66,33.53,17.41,33.88Z" transform="translate(-0.08 -1.88)"/>
    <path class="cls-1" d="M34.13,26.09,33,27.52a7.57,7.57,0,0,0-1,1.37.31.31,0,0,0,.5.36,7.52,7.52,0,0,0,1-1.32l1-1.35C34.91,26.22,34.4,25.73,34.13,26.09Z" transform="translate(-0.08 -1.88)"/>
    <path class="cls-1" d="M35.38,27a17.56,17.56,0,0,1-3,3.93c-.26.28.11.79.44.54A12.12,12.12,0,0,0,36,27.29C36.21,26.89,35.59,26.54,35.38,27Z" transform="translate(-0.08 -1.88)"/>
    <path class="cls-1" d="M36.21,28.71a16.08,16.08,0,0,1-1.14,1.87c-.42.59-1,1.1-1.35,1.71-.15.25.17.57.41.4A10.55,10.55,0,0,0,36.8,29C37,28.66,36.41,28.33,36.21,28.71Z" transform="translate(-0.08 -1.88)"/>
    <path class="cls-1" d="M36.08,32c-1.29,1.52-2.76,3-3.89,4.62-.2.29.24.58.47.35,1.41-1.37,2.6-3,3.87-4.54C36.78,32.1,36.34,31.67,36.08,32Z" transform="translate(-0.08 -1.88)"/>
    <path class="cls-1" d="M36,34.15c-.53.77-1.08,1.54-1.6,2.32-.22.34.32.62.55.31.55-.77,1.07-1.55,1.6-2.32C36.75,34.12,36.19,33.81,36,34.15Z" transform="translate(-0.08 -1.88)"/>
    <path class="cls-1" d="M37.64,34.45c-.23.44-.48.88-.75,1.3a5.74,5.74,0,0,0-.75,1.16.22.22,0,0,0,.33.24,3.55,3.55,0,0,0,.86-1.06,15.7,15.7,0,0,0,.78-1.38C38.26,34.39,37.79,34.13,37.64,34.45Z" transform="translate(-0.08 -1.88)"/>
    <path class="cls-1" d="M38.48,35.6c-.35.37-.7.74-1,1.12a.24.24,0,0,0,.34.33c.39-.34.76-.69,1.13-1S38.75,35.32,38.48,35.6Z" transform="translate(-0.08 -1.88)"/>
    <path class="cls-1" d="M32.92,33.69c-.9,1.08-1.87,2.13-2.71,3.26-.22.31.17.73.45.43,1-1,1.82-2.17,2.72-3.25C33.64,33.82,33.18,33.38,32.92,33.69Z" transform="translate(-0.08 -1.88)"/>
    <path class="cls-2" d="M19.22,2.92a34.71,34.71,0,0,0-2.71,3.49c-.18.3.24.58.47.35a34.11,34.11,0,0,0,2.71-3.39C19.94,3,19.48,2.59,19.22,2.92Z" transform="translate(-0.08 -1.88)"/>
    <path class="cls-2" d="M20.83,3.31A37.57,37.57,0,0,0,17,8.54c-.19.35.32.76.58.43C18.88,7.29,20,5.48,21.35,3.81,21.63,3.45,21.12,3,20.83,3.31Z" transform="translate(-0.08 -1.88)"/>
    <path class="cls-2" d="M21.92,4.27c-.75,1-1.51,2-2.25,3A15.32,15.32,0,0,0,17.75,10a.3.3,0,0,0,.47.35,18,18,0,0,0,2.13-2.76c.69-.94,1.4-1.87,2.1-2.8C22.74,4.4,22.21,3.89,21.92,4.27Z" transform="translate(-0.08 -1.88)"/>
    <path class="cls-2" d="M22.71,6.15C21.47,7.73,20.1,9.27,19,10.94c-.21.32.29.67.54.39C20.84,9.86,22,8.18,23.2,6.62,23.46,6.28,23,5.81,22.71,6.15Z" transform="translate(-0.08 -1.88)"/>
    <path class="cls-2" d="M20.43,11.24l-1,1a8.19,8.19,0,0,0-.89,1c-.18.29.23.7.5.48a6.89,6.89,0,0,0,.91-1l.92-1C21.19,11.38,20.73,10.93,20.43,11.24Z" transform="translate(-0.08 -1.88)"/>
    <path class="cls-2" d="M21.15,12.56a3.55,3.55,0,0,0-.74.81.29.29,0,0,0,.4.39,3.64,3.64,0,0,0,.81-.76C21.91,12.71,21.45,12.27,21.15,12.56Z" transform="translate(-0.08 -1.88)"/>
    <path class="cls-3" d="M21.92,12.93a5,5,0,0,1-2.1.51,11.85,11.85,0,0,1-2-.29.37.37,0,0,0-.26.67c1.36.85,3.39.43,4.73-.24C22.75,13.36,22.35,12.73,21.92,12.93Z" transform="translate(-0.08 -1.88)"/>
    <path class="cls-3" d="M9.64,38a.51.51,0,0,0,.63-.51c0-2.24-1.51-4.46-3.81-4.19h0l0-.08c-.1-.21.72-1.27.82-1.48a6.12,6.12,0,0,0,.41-1.32,5.55,5.55,0,0,0,.17-2.56,2.73,2.73,0,0,0-3.06-2c-3.55.64-2.48,5.15-.73,7.2-.49.27-1.16.29-1.64.51a4.15,4.15,0,0,0-1.31,1c-.6.67-1.36,2.06-.86,3s2.42.23,3.22.14M33.61,22.09q-6.55.27-13.08.26c0-.77-.09-1.55-.1-2.26a.5.5,0,0,0-1,0c0,.7-.07,1.46-.09,2.22q-6.6,0-13.2-.33a.47.47,0,0,0-.29.07.45.45,0,0,0-.38.37,2.86,2.86,0,0,0,0,1c0,.33.07.67.1,1,.07.7,1.15.69,1.09,0l-.07-1c0-.1,0-.21,0-.31q6.38.3,12.76.31a6.74,6.74,0,0,0,.14,1.11.46.46,0,0,0,.88,0,6.36,6.36,0,0,0,.15-1.09q6.36,0,12.71-.31c0,.11,0,.22,0,.34a5.65,5.65,0,0,1-.06,1c-.09.65.91.92,1,.25a4.47,4.47,0,0,0,0-2.24.59.59,0,0,0-.28-.28.53.53,0,0,0-.32-.1Zm-7.54-7.63a4.46,4.46,0,0,0-1.51-1.32c-1-.51-2.85-.46-2.94-1.82a3.8,3.8,0,0,0,.95-.93,5.9,5.9,0,0,0,1-3.56c0-1.24,0-2.87-.79-3.9a.46.46,0,0,0-.29-.18,4,4,0,0,0-5.29.3c-1.64,1.86-1.16,5.33,0,7.31a3.11,3.11,0,0,0,1.08,1.11s0,0,0,0c.19,1.13-2,1.33-2.75,1.71a5.23,5.23,0,0,0-1.72,1.41A4.58,4.58,0,0,0,13.08,19a.59.59,0,0,0,.58.42l7.52-.16c1.33,0,2.67,0,4-.1.6,0,1.2,0,1.54-.59.7-1.18.07-3.07-.66-4.06ZM18.13,9.78A7,7,0,0,1,17.44,5c.57-2,3.41-2.7,4.63-.87a.67.67,0,0,0,.32.25,8.52,8.52,0,0,1,.07,3.85c-.42,2-2.91,4-4.33,1.58ZM16.9,13.87a10.36,10.36,0,0,0,.9,2.63,14.75,14.75,0,0,0,.81,1.57l-4.53.12c-.5-2.17,1-3.53,2.81-4.32Zm4.25,2.22a18.27,18.27,0,0,1-1.1,1.79,9.51,9.51,0,0,1-2.11-4.43,2.08,2.08,0,0,0,1.33-1.61,3,3,0,0,0,1.16,0,2.4,2.4,0,0,0,1.45,1.66,8.75,8.75,0,0,1-.73,2.61Zm3.76,1.82c-.58,0-1.17,0-1.75,0L21.37,18a9.48,9.48,0,0,0,1.52-4.17,4.19,4.19,0,0,1,1.81.85,3.41,3.41,0,0,1,1.09,2.49c0,.8-.16.71-.88.74Zm14.42,17A3.94,3.94,0,0,0,38,33.67c-.44-.26-1.72-.38-1.8-.72s.47-.68.67-1a3.32,3.32,0,0,0,.42-1.19,6.69,6.69,0,0,0,.1-2.52,2.76,2.76,0,0,0-3.16-2.47l-.08,0a2.17,2.17,0,0,0-2.1,1.14,4.91,4.91,0,0,0,.14,4.31,5.76,5.76,0,0,0,.67,1.15c.4.54.38.58-.44.81a4.33,4.33,0,0,0-1.79.67c-.87.7-1.75,2.38-1,3.47s3.23.27,4.27.18a10.65,10.65,0,0,1,3.38.1c.6.14,1.32.59,2,.38,1.22-.42.6-2.29.12-3Zm-.69,1.9a8,8,0,0,1-1.11-.36,9.42,9.42,0,0,0-2.12-.21,22.6,22.6,0,0,0-2.47.17c-.5.05-2,.43-2.34.09-.64-.7.89-2,1.47-2.17s1.18,0,1.71-.32a1.23,1.23,0,0,0,.3-1.94,6.75,6.75,0,0,1-1.25-2.46c-.19-.87-.13-3.28,1.33-2.89l.15.05.16.07a.5.5,0,0,0,.45,0c1.81.45,1.74,3.6.67,4.81-.54.62-1.27,1.41-.57,2.23.32.39.78.36,1.24.41a2.76,2.76,0,0,1,2.1,1.23c.08.12.6,1.1.28,1.3Zm-14-2.17c.54.74,1.23,2.6.15,3.21-.58.33-1.47,0-2.07-.11a21.84,21.84,0,0,0-3.7-.33c-1.07,0-2.11.48-3.16.5a1.28,1.28,0,0,1-1.14-.51c-.65-1,.25-2.58,1-3.25s1.18-.5,1.86-.84c.38-.19.23.27.4-.4s0-.24-.2-.71c-.15-.29-.38-.53-.51-.84a5.77,5.77,0,0,1,.08-4.71,2.08,2.08,0,0,1,2.3-.93h0a2.49,2.49,0,0,1,3,2.43,10.16,10.16,0,0,1-.43,3.09,3.71,3.71,0,0,1-.41,1.27,3.48,3.48,0,0,1-.6.52s1.77.34,2,.44a3.77,3.77,0,0,1,1.39,1.18Zm-.69,2c.39-.27.13-.73-.09-1.12a2.66,2.66,0,0,0-2.38-1.28,1.87,1.87,0,0,1-1.24-.36c-.69-.62-.38-1.18.1-1.71a2.86,2.86,0,0,0,.75-1,10.11,10.11,0,0,0,.24-1.12c.21-1,.58-3.69-1.29-3.23a.56.56,0,0,1-.61-.21c-1.37-.52-1.54,1.79-1.49,2.62A4.53,4.53,0,0,0,19,32.08c.45.61.71,1.42,0,2a3.12,3.12,0,0,1-1.38.37c-.77.15-2,.8-2,1.75s1.29.34,1.88.25a12.74,12.74,0,0,1,2.62-.09c.85.05,1.71.17,2.56.3.37,0,.86.27,1.19,0Zm-21.78.14c-.12,0-.85.26-.92.19s0-.62,0-.78a2.87,2.87,0,0,1,1.52-1.7c.82-.41,1.78-.27,2.38-1.05a.5.5,0,0,0,0-.7,5,5,0,0,1-1.77-3.52,2.36,2.36,0,0,1,1-2.31,1.81,1.81,0,0,1,2.42.62c.83,1.33-.16,3.52-.89,4.65a1.28,1.28,0,0,0-.26,1.27c-.47.28-.17,1.13.41.93,1.8-.61,3,.85,3.16,2.44A20,20,0,0,0,2.14,36.81Z" transform="translate(-0.08 -1.88)"/>
  </g>
</svg>
