<svg id="레이어_1" data-name="레이어 1" xmlns="http://www.w3.org/2000/svg" xmlns:xlink="http://www.w3.org/1999/xlink" viewBox="0 0 31.14 40">
  <defs>
    <style>
      .cls-1 {
        fill: #1e1e29;
      }

      .cls-2 {
        fill: #ffc596;
      }

      .cls-3 {
        fill: #8e9194;
      }

      .cls-4 {
        fill: #141418;
      }

      .cls-5 {
        fill: #d9d9d9;
      }

      .cls-24, .cls-25, .cls-6 {
        fill: #fff;
      }

      .cls-7 {
        fill: #43acf0;
      }

      .cls-8 {
        fill: url(#linear-gradient);
      }

      .cls-9 {
        fill: #313142;
      }

      .cls-10 {
        fill: #231e1a;
      }

      .cls-11 {
        fill: #d14f2e;
      }

      .cls-11, .cls-22, .cls-24 {
        opacity: 0.3;
      }

      .cls-12 {
        fill: #bf3c1b;
        opacity: 0.2;
      }

      .cls-13 {
        fill: #423833;
      }

      .cls-14 {
        fill: #1a1614;
      }

      .cls-15 {
        fill: #2b241e;
      }

      .cls-16 {
        fill: #a88686;
      }

      .cls-17 {
        fill: #ffa26f;
      }

      .cls-18 {
        fill: #ff3b3b;
        opacity: 0.5;
      }

      .cls-19 {
        fill: #8f2722;
      }

      .cls-20 {
        fill: #fff9f0;
      }

      .cls-21 {
        fill: #e8dac5;
      }

      .cls-22 {
        fill: #b54d26;
      }

      .cls-23 {
        fill: #f06799;
      }

      .cls-25 {
        opacity: 0.7;
      }

      .cls-26 {
        fill: #ffd1e2;
      }
    </style>
    <linearGradient id="linear-gradient" x1="20.16" y1="31.44" x2="20.16" y2="33.57" gradientUnits="userSpaceOnUse">
      <stop offset="0" stop-color="#ee996d"/>
      <stop offset="0.02" stop-color="#ee9a6e"/>
      <stop offset="0.37" stop-color="#f8b181"/>
      <stop offset="0.71" stop-color="#fdbf8d"/>
      <stop offset="1" stop-color="#ffc491"/>
    </linearGradient>
  </defs>
  <title>1</title>
  <g>
    <path class="cls-1" d="M17.4,35.07l-1.51-1.9c-1.41,1.13-2.33,3.38-2.81,6.83h2.44C16,36.7,16.86,35.5,17.4,35.07Z" transform="translate(-4.81)"/>
    <g>
      <path class="cls-2" d="M29.67,27.3c-1.62,2,0,2.54,1.55,3.57.77.51,1.69,1.4,2.31.1a19.86,19.86,0,0,0,.64-2.12,8.11,8.11,0,0,1,.93-2.05C36.24,25.34,34.67,21.19,29.67,27.3Z" transform="translate(-4.81)"/>
      <g>
        <path class="cls-3" d="M29.18,18.08a.66.66,0,0,0-.91,0l-3.68,3.73a.63.63,0,0,0,0,.9l6.6,6.6a.63.63,0,0,0,.9,0l3.69-3.72a.64.64,0,0,0,0-.9Z" transform="translate(-4.81)"/>
        <path class="cls-4" d="M28.93,17.86a.62.62,0,0,0-.87,0l-3.61,3.65a.63.63,0,0,0,0,.88l6.29,6.29a.63.63,0,0,0,.88,0L35.19,25a.62.62,0,0,0,0-.87Z" transform="translate(-4.81)"/>
        <path class="cls-5" d="M28.93,17.86a.62.62,0,0,0-.87,0l-3.61,3.65a.63.63,0,0,0,0,.88l6.29,6.29a.63.63,0,0,0,.88,0L35.19,25a.62.62,0,0,0,0-.87Z" transform="translate(-4.81)"/>
        <path class="cls-6" d="M29,19.17a.46.46,0,0,0-.66,0L25.7,21.82a.48.48,0,0,0,0,.67l4.86,4.86a.46.46,0,0,0,.66,0l2.64-2.66a.47.47,0,0,0,0-.67Z" transform="translate(-4.81)"/>
      </g>
      <path class="cls-2" d="M28.34,26.56c-.11.32.43.9.56,1.19.21.45-.14,1.3.41,1.66s.8-.06,1-.44a2.06,2.06,0,0,0-.63-2.2C29.37,26.48,28.52,26.06,28.34,26.56Z" transform="translate(-4.81)"/>
      <path class="cls-1" d="M31.32,31.26c.18,1.94-.36,3.35-1.47,3.86-1.42.66-3.55-.17-5.43-2.12l-1.73,1.69a8.88,8.88,0,0,0,6.1,3.08,4.87,4.87,0,0,0,2.07-.44C32.92,36.38,34,34,33.72,31Z" transform="translate(-4.81)"/>
    </g>
    <g>
      <path class="cls-1" d="M24.68,37.63c.54-2,.37-4-1.18-5.26a6,6,0,0,0-7.22.31c-1.15.87-1.7,2.16-.65,4.7A12.79,12.79,0,0,1,16.46,40h7.68A23.86,23.86,0,0,1,24.68,37.63Z" transform="translate(-4.81)"/>
      <path class="cls-7" d="M22.57,32.07c-.84-.4-4.62-.45-5.13.08-1.37,1.4-1.2,5.88,3,6.91C23.85,38.23,24.15,32.82,22.57,32.07Z" transform="translate(-4.81)"/>
      <path class="cls-5" d="M20.49,35.35a.4.4,0,0,0-.42.39.42.42,0,0,0,.84,0A.4.4,0,0,0,20.49,35.35Z" transform="translate(-4.81)"/>
      <path class="cls-5" d="M20.49,36.94a.4.4,0,1,0,.42.4A.41.41,0,0,0,20.49,36.94Z" transform="translate(-4.81)"/>
      <path class="cls-8" d="M22.51,32c-.39-.26-.62-1.59-.56-2.64C22.08,27,18,26.91,18,29.49c0,1.15,0,2.12-.29,2.43-.59.61-.24,1.6,2.68,2.81C22,33.92,23.5,32.63,22.51,32Z" transform="translate(-4.81)"/>
    </g>
    <g>
      <path class="cls-9" d="M22.33,31.69c1,2.29,1,5.64-1.82,7.37a8.7,8.7,0,0,0,5.35-2.6s-.69-.8-1.15-1.22a4.06,4.06,0,0,1,1.67-.53C25.91,33.6,23.66,32.11,22.33,31.69Z" transform="translate(-4.81)"/>
      <path class="cls-9" d="M17.82,31.79c-1.23.4-3.13,1.6-3.52,2.79a4,4,0,0,1,1.7.52c-.43.46-1.06,1.34-1.06,1.34a8.76,8.76,0,0,0,5.48,2.62A6.41,6.41,0,0,1,17.82,31.79Z" transform="translate(-4.81)"/>
    </g>
    <g>
      <path class="cls-10" d="M29.28,6.31c-1.24-1.62-1.63-3.45.43-3.56-1.34-1-5.13-2-9.32-1.82.13-.36,0-.63.39-.93-1.8.24-4,.28-6.24,1.67-1,.63-1.51,1.6-2.72,2a11.31,11.31,0,0,0-3,1.21,10.16,10.16,0,0,0-4,5.24,2.6,2.6,0,0,1,2-.57,4.54,4.54,0,0,0-.44,4.22c.55,1.53-1,4.43-.18,5.63a21.27,21.27,0,0,1,3.26,8.52s3.3-2.24,3.59-2.65c.54-.75.66-1.68,1.25-2.42a8,8,0,0,1,6.31-2.61c1.65,0,2.25.75,3.23,1.85.64.73,3.06,1.65,4.55,4.68a6.06,6.06,0,0,0,1.46-3.33c.25.45,1.25.45,2.24,0-1.16-.93-2.09-4-2-5.4.09-1,1.88-1.83,1-4.45-.24-.69-.41-.55-.44-1.29a5.65,5.65,0,0,0,2.21-1.18C30.39,11,30.74,8.21,29.28,6.31Z" transform="translate(-4.81)"/>
      <path class="cls-6" d="M28.74,22a.86.86,0,0,0-.68,1,.78.78,0,1,0,.68-1Z" transform="translate(-4.81)"/>
      <path class="cls-2" d="M19,6.61c-5.44.48-9.63,5.25-9.21,12.83S15.1,31.88,20.57,31.89c4.84,0,9.28-6.82,8.62-14.39S24.49,6.12,19,6.61Z" transform="translate(-4.81)"/>
      <path class="cls-2" d="M7.93,17.44c-2.42,1.11-1.24,5.32.81,5.95a4,4,0,0,0,2,0l0-.08c.28-.59-.38-3.42-.56-4C9.77,17.89,9.1,16.91,7.93,17.44Z" transform="translate(-4.81)"/>
      <path class="cls-11" d="M9.34,18.92c-.66-.36-2.35.1-1.62,1.47.46-1.2,1.17-.34,1,.52-.1.58-.72.55-.13,1.34a1.09,1.09,0,0,0,1.35.13C11.07,21.76,10.14,19.35,9.34,18.92Z" transform="translate(-4.81)"/>
      <path class="cls-6" d="M9.73,22.75a.85.85,0,0,0-.74.93.86.86,0,0,0,.78.9.86.86,0,0,0,.74-.94A.84.84,0,0,0,9.73,22.75Z" transform="translate(-4.81)"/>
      <path class="cls-12" d="M25.64,7.09a27.66,27.66,0,0,0-8.93.7A10.8,10.8,0,0,0,9.1,18.66c.23,2.71,1.15,6.32,4.46,6.11a11.1,11.1,0,0,1-.77-1.16,12.67,12.67,0,0,1-.85-8.89c.17,0,1.09.33,1.07.56.18-2,1-2.78,2.8-3.49a15.36,15.36,0,0,1,4.43-1.17c1.08,0,2.08.94,3,1.42a5.81,5.81,0,0,0,3.39.69,2.43,2.43,0,0,1-.31-1.16c0-.26,1.47,1.24,1.54,1.34a5,5,0,0,1,1,2.37c.44-1.85-.83-3.38-1.08-5.28S27.22,7.22,25.64,7.09Z" transform="translate(-4.81)"/>
      <path class="cls-10" d="M28.91,8.75A5.42,5.42,0,0,0,26.6,6.16C21.34,3.75,16,5.21,11,7.62A5.88,5.88,0,0,0,8.48,10c-1.07,1.91-.14,6.83.81,10.78a4.08,4.08,0,0,0,3.3,3.38c-2.44-3.21-1-11,0-12.71A2.52,2.52,0,0,0,12.84,14c0-1.77,1.53-2.38,2.85-3a14.08,14.08,0,0,1,5.37-1.52,6.15,6.15,0,0,0,4.63,2.49,1.08,1.08,0,0,1-.42-1.38,6.87,6.87,0,0,1,2,.83c.16.13,2.41,1.69,2.41,1.77C29.61,11.8,29.9,10.48,28.91,8.75Z" transform="translate(-4.81)"/>
      <path class="cls-13" d="M29.23,7.51C28.46,6.58,27.28,4.69,25,4.2A7.6,7.6,0,0,1,27.8,2.64a15.22,15.22,0,0,0-5.11-.8c-.68,0-1.4.43-2.07.18-.22-.08-1.14-.73-.66-1.53A20.3,20.3,0,0,0,16,1.8c-1.1.54-2,1.42-3.06,2-1.42.75-2.78.53-4.57,1.71-1.1.73-1.79,2.3-2.21,2.83C6.89,8,9,7,9.8,7.14c-1,2.34-.86,3.61-3.09,5.77,4.39.63,5.29-2.76,6.85-3.28-.09.75-.4,1.43-.44,2.18,2-2.63,5.13-3.15,8.17-3.54a6,6,0,0,0,2.88,2.09,5.45,5.45,0,0,1,.2-2c1.28.16,6.38,3.67,7.47,2.8C30.31,11.12,30.28,8.79,29.23,7.51Z" transform="translate(-4.81)"/>
    </g>
    <g>
      <path class="cls-14" d="M16.52,17c-1.5-.52-2.23,2.14-1.17,2.91a2.07,2.07,0,0,1,1.45,0A1.79,1.79,0,0,0,16.52,17Z" transform="translate(-4.81)"/>
      <path class="cls-14" d="M27.37,16.86c-1.48-.82-2.75,2.27-1.11,2.7a1.88,1.88,0,0,1,1.29-.2C28.11,18.7,28.17,17.3,27.37,16.86Z" transform="translate(-4.81)"/>
      <path class="cls-15" d="M12.85,16.17a7,7,0,0,1,3.45-.43c1.22.12,1.79.68,2.12-.87a22.11,22.11,0,0,1-2.81.19A4.25,4.25,0,0,0,12.85,16.17Z" transform="translate(-4.81)"/>
      <path class="cls-15" d="M24,14.55c.34,1.41.84.84,2,.62a6.26,6.26,0,0,1,3.15.09,3.6,3.6,0,0,0-2.54-.79A20.12,20.12,0,0,1,24,14.55Z" transform="translate(-4.81)"/>
      <path class="cls-11" d="M21.84,21.88c-.53.05-.77-.16-1.12.08s.53.89,1.18.79,1.3-.78,1.08-1S22.43,21.83,21.84,21.88Z" transform="translate(-4.81)"/>
      <path class="cls-14" d="M12.37,17.65a2.7,2.7,0,0,0,3.42.2l-.22-.77A2.74,2.74,0,0,1,12.37,17.65Z" transform="translate(-4.81)"/>
      <path class="cls-14" d="M27.41,16.91l-.23.68a2.31,2.31,0,0,0,3.08.07C28.86,18.27,27.41,16.91,27.41,16.91Z" transform="translate(-4.81)"/>
      <path class="cls-16" d="M15.84,17.4c-.57.24,0,1.36.5.9S16.35,17.18,15.84,17.4Z" transform="translate(-4.81)"/>
      <path class="cls-16" d="M26.64,17.17c-.57.13-.26,1.25.32.91C27.37,17.84,27.14,17.05,26.64,17.17Z" transform="translate(-4.81)"/>
      <path class="cls-17" d="M27,20.69c-.82.06-1.44.57-1.4,1.12s.75,1,1.57.88,1.44-.57,1.4-1.12S27.82,20.62,27,20.69Z" transform="translate(-4.81)"/>
      <path class="cls-17" d="M15.54,21c-.9-.07-1.67.36-1.73,1s.64,1.17,1.54,1.24,1.67-.36,1.73-1S16.44,21.06,15.54,21Z" transform="translate(-4.81)"/>
      <g>
        <path class="cls-18" d="M26.41,23.86a32.44,32.44,0,0,0-9.32.54c-1.45.3-1.23.64-.69,1.61a5.59,5.59,0,0,0,6.5,2.15A2.43,2.43,0,0,0,24.74,25Z" transform="translate(-4.81)"/>
        <path class="cls-19" d="M17.54,24.91c-.85,0-1.17.22-.5,1.09.88,1.15,3.05,1.74,5,1.42,1.73-.29,2.56-1.41,2.33-2.6.17-.1.42-.3.66-.46C23,24.09,19.61,24.82,17.54,24.91Z" transform="translate(-4.81)"/>
        <path class="cls-20" d="M24.32,24.35a27.15,27.15,0,0,0-6.05.71c-.3.07-.94.39-.57.63.67.44,6,.08,6.2-.05S24.8,24.36,24.32,24.35Z" transform="translate(-4.81)"/>
        <path class="cls-21" d="M24.42,24.3a47.23,47.23,0,0,0-7.13.62,1,1,0,0,0,.41.77A13.06,13.06,0,0,1,24.42,25S24.83,24.32,24.42,24.3Z" transform="translate(-4.81)"/>
      </g>
    </g>
    <g>
      <path class="cls-22" d="M28.19,15.17a13.71,13.71,0,0,0-2.76.52,11.87,11.87,0,0,0-2.37.74,2.77,2.77,0,0,1-1.71.59c-1.42,0-2.65-.87-4.07-1a11.85,11.85,0,0,0-4.44.21c-.37.11-1.5.58-.72,1a6.89,6.89,0,0,0,2.72.22c.38,0,.77,0,1.15,0,1.35.09,3.42-.16,3.36,1.53a2.83,2.83,0,0,1-1.68,2.63A12.31,12.31,0,0,1,14.9,22a4.83,4.83,0,0,1-2-.37c-.18-.08-.73-.41-.9-.16-.29.42.83,1.08,1.12,1.2a6.74,6.74,0,0,0,2.08.41c1.77.13,3.58,0,4.52-1.67.55-1,.8-2.08,1.31-3.06.82-1.61,1.3.52,1.61,1.45a5,5,0,0,0,.74,1.47A3.58,3.58,0,0,0,26,22.45a4.09,4.09,0,0,0,1.7-.28c.32-.15.44-.53.05-.67a3.16,3.16,0,0,0-.87,0,8,8,0,0,1-1.09,0,3.32,3.32,0,0,1-1.32-.52,2.5,2.5,0,0,1-.69-.72,2.3,2.3,0,0,1-.2-2c.29-.91,1.27-1,2.08-1.11,1-.11,2-.12,2.95-.25a11.45,11.45,0,0,1,1.31,0c.56,0,1.77-.22,1.08-1S29.1,15.1,28.19,15.17Z" transform="translate(-4.81)"/>
      <path class="cls-23" d="M11.43,15.68c-1.16.07-2.17-.22-2.43,0S9.31,17,9.31,17a2,2,0,0,0,.92.28c.1.81.12,2.9,1.65,4.18,1.27,1.06,5.31,1.25,6.55.57a4.87,4.87,0,0,0,2.37-3.76C21.36,14.77,13.06,15.57,11.43,15.68Zm7.05,5.44c-1.5,1.05-5.44.7-6.5-.53-.82-.95-1-3-.55-3.3,1.44-.94,7-.77,8.29.17C20.35,17.91,19.62,20.33,18.48,21.12Z" transform="translate(-4.81)"/>
      <path class="cls-23" d="M30.45,14.75c-1.48,0-9,0-8.18,3.49a4.88,4.88,0,0,0,2.47,3.53c1.18.55,4.8,0,5.84-1.19,1.25-1.41,1.08-3.5,1.1-4.31a1.72,1.72,0,0,0,.8-.37s.5-1.07.16-1.36S31.5,14.71,30.45,14.75Zm-.05,4.94c-.84,1.32-4.34,2-5.79,1.13-1.1-.68-2-3-1.45-3.53,1.09-1.05,6.06-1.73,7.44-.94C31.05,16.61,31.05,18.66,30.4,19.69Z" transform="translate(-4.81)"/>
      <path class="cls-24" d="M24.13,17c-.81.38.69.76,1,.8a11,11,0,0,0,3.55-.25c.62-.14,1.93-.75,1.54-1.08C29.67,16,25,16.52,24.13,17Z" transform="translate(-4.81)"/>
      <path class="cls-6" d="M27.78,16.62c-.44.08-.73.22-.6.42.25.39,2.86.07,3-.24S28.72,16.43,27.78,16.62Z" transform="translate(-4.81)"/>
      <path class="cls-25" d="M25.06,20c-.28,0-.47.06-.42.24.11.34,1.74.51,1.88.3S25.66,20,25.06,20Z" transform="translate(-4.81)"/>
      <path class="cls-25" d="M12.87,20.27c-.29,0-.5,0-.47.18.07.36,1.75.72,1.93.53S13.5,20.35,12.87,20.27Z" transform="translate(-4.81)"/>
      <path class="cls-24" d="M19.1,17.27c-1.05-.34-6.21-.56-6.73-.08-.37.34,1.18.83,1.87.91a13.76,13.76,0,0,0,3.9,0C18.48,18,20.05,17.58,19.1,17.27Z" transform="translate(-4.81)"/>
      <path class="cls-6" d="M16.85,17c-.47,0-.79.14-.68.35.21.42,3,.43,3.19.14S17.86,17,16.85,17Z" transform="translate(-4.81)"/>
      <path class="cls-23" d="M23.17,16.1a4.42,4.42,0,0,1-3.62.16c-1.14-.37.62.72.77,1.3s0,2.4.37,1.31,1.15-1.18,1.69-.21.41-1.67.61-1.91S24.23,15.57,23.17,16.1Z" transform="translate(-4.81)"/>
      <path class="cls-26" d="M12,16c3.14,0,5.65.06,7.56.74C18.28,15.77,16.14,15.61,12,16Z" transform="translate(-4.81)"/>
      <path class="cls-26" d="M30.2,15c-3.82.26-5.61.35-6.6,1.36C25.23,15.54,27.37,15.53,30.2,15Z" transform="translate(-4.81)"/>
    </g>
  </g>
</svg>
