<svg xmlns="http://www.w3.org/2000/svg" xmlns:xlink="http://www.w3.org/1999/xlink" viewBox="0 0 39.91 34.16">
  <defs>
    <style>
      .cls-1 {
        isolation: isolate;
      }

      .cls-2 {
        fill: url(#linear-gradient);
      }

      .cls-21, .cls-3, .cls-4 {
        opacity: 0.25;
      }

      .cls-21, .cls-3, .cls-5, .cls-6, .cls-7, .cls-9 {
        mix-blend-mode: multiply;
      }

      .cls-3 {
        fill: url(#radial-gradient);
      }

      .cls-4 {
        fill: #fff;
      }

      .cls-12, .cls-13, .cls-14, .cls-15, .cls-16, .cls-17, .cls-18, .cls-19, .cls-5 {
        opacity: 0.35;
      }

      .cls-5 {
        fill: url(#linear-gradient-2);
      }

      .cls-6, .cls-7, .cls-9 {
        opacity: 0.5;
      }

      .cls-6 {
        fill: url(#linear-gradient-3);
      }

      .cls-7 {
        fill: url(#linear-gradient-4);
      }

      .cls-8 {
        fill: #5d4037;
      }

      .cls-9 {
        fill: url(#linear-gradient-5);
      }

      .cls-10 {
        fill: #4e342e;
      }

      .cls-11 {
        fill: #80cbc4;
      }

      .cls-12, .cls-13, .cls-14, .cls-15, .cls-16, .cls-17, .cls-18, .cls-19 {
        mix-blend-mode: screen;
      }

      .cls-12 {
        fill: url(#linear-gradient-6);
      }

      .cls-13 {
        fill: url(#linear-gradient-7);
      }

      .cls-14 {
        fill: url(#linear-gradient-8);
      }

      .cls-15 {
        fill: url(#linear-gradient-9);
      }

      .cls-16 {
        fill: url(#linear-gradient-10);
      }

      .cls-17 {
        fill: url(#linear-gradient-11);
      }

      .cls-18 {
        fill: url(#linear-gradient-12);
      }

      .cls-19 {
        fill: url(#linear-gradient-13);
      }

      .cls-20, .cls-21 {
        fill: #d95957;
      }
    </style>
    <linearGradient id="linear-gradient" x1="19.96" y1="-0.57" x2="19.96" y2="34.8" gradientUnits="userSpaceOnUse">
      <stop offset="0" stop-color="#ffe082"/>
      <stop offset="1" stop-color="#ffbf66"/>
    </linearGradient>
    <radialGradient id="radial-gradient" cx="20.03" cy="20" r="17.08" gradientUnits="userSpaceOnUse">
      <stop offset="0.8" stop-color="#fff"/>
      <stop offset="1" stop-color="#ffbf66"/>
    </radialGradient>
    <linearGradient id="linear-gradient-2" x1="20.03" y1="17.98" x2="20.03" y2="37.43" xlink:href="#linear-gradient"/>
    <linearGradient id="linear-gradient-3" x1="8.43" y1="8.44" x2="32.24" y2="28.18" xlink:href="#linear-gradient"/>
    <linearGradient id="linear-gradient-4" x1="10.4" y1="8.02" x2="17.26" y2="8.02" xlink:href="#linear-gradient"/>
    <linearGradient id="linear-gradient-5" x1="557.01" y1="8.02" x2="563.87" y2="8.02" gradientTransform="matrix(-1, 0, 0, 1, 586.67, 0)" xlink:href="#linear-gradient"/>
    <linearGradient id="linear-gradient-6" x1="32.54" y1="15.43" x2="38.89" y2="20.4" gradientUnits="userSpaceOnUse">
      <stop offset="0" stop-color="#fff"/>
      <stop offset="0.5"/>
      <stop offset="1" stop-color="#fff"/>
    </linearGradient>
    <linearGradient id="linear-gradient-7" x1="32.54" y1="15.43" x2="38.89" y2="20.4" gradientUnits="userSpaceOnUse">
      <stop offset="0" stop-color="#fff"/>
      <stop offset="0.5"/>
    </linearGradient>
    <linearGradient id="linear-gradient-8" x1="7.43" y1="15.32" x2="1.31" y2="20.34" xlink:href="#linear-gradient-6"/>
    <linearGradient id="linear-gradient-9" x1="7.43" y1="15.32" x2="1.31" y2="20.34" xlink:href="#linear-gradient-7"/>
    <linearGradient id="linear-gradient-10" x1="39.01" y1="7.98" x2="32.44" y2="12.95" xlink:href="#linear-gradient-6"/>
    <linearGradient id="linear-gradient-11" x1="39.01" y1="7.98" x2="32.44" y2="12.95" xlink:href="#linear-gradient-7"/>
    <linearGradient id="linear-gradient-12" x1="1.24" y1="8.02" x2="7.37" y2="13.1" xlink:href="#linear-gradient-6"/>
    <linearGradient id="linear-gradient-13" x1="1.24" y1="8.02" x2="7.37" y2="13.1" xlink:href="#linear-gradient-7"/>
  </defs>
  <title>1</title>
  <g class="cls-1">
    <g id="레이어_1" data-name="레이어 1">
      <g>
        <g>
          <circle class="cls-2" cx="19.96" cy="17.08" r="17.08"/>
          <path class="cls-3" d="M37.11,20a16.54,16.54,0,0,1-.36,3.47A17.08,17.08,0,0,1,3,20a16.14,16.14,0,0,1,.16-2.32,15.5,15.5,0,0,1,.78-3.26,16.72,16.72,0,0,1,1.89-3.84,17.07,17.07,0,0,1,28.49,0,16.49,16.49,0,0,1,1.9,3.83A16.85,16.85,0,0,1,37,17.68,17.6,17.6,0,0,1,37.11,20Z" transform="translate(-0.07 -2.92)"/>
          <path class="cls-4" d="M34.12,15.83c0,6.35-6.31,0-14.09,0s-14.09,6.35-14.09,0S12.25,4.34,20,4.34,34.12,9.49,34.12,15.83Z" transform="translate(-0.07 -2.92)"/>
          <path class="cls-5" d="M20,33.66A17.09,17.09,0,0,1,3,18.29C3,18.85,3,19.42,3,20a17.08,17.08,0,0,0,34.16,0A16,16,0,0,0,37,18.29,17.08,17.08,0,0,1,20,33.66Z" transform="translate(-0.07 -2.92)"/>
        </g>
        <path class="cls-6" d="M37,17.68a16.53,16.53,0,0,0-5.82-.83s3.36,4.9,4.38,5.92a2.58,2.58,0,0,0,1.24.7A16.54,16.54,0,0,0,37.11,20,17.6,17.6,0,0,0,37,17.68Zm-33.84,0A16.14,16.14,0,0,0,3,20a17.23,17.23,0,0,0,.35,3.47,2.61,2.61,0,0,0,1.25-.7c1-1,4.37-5.92,4.37-5.92A16.46,16.46,0,0,0,3.11,17.68Zm31.16-7.09c-1.36,1.8-3.14,4.4-3.14,4.4a17.29,17.29,0,0,0,5-.57A16.49,16.49,0,0,0,34.27,10.59Zm-28.49,0a16.72,16.72,0,0,0-1.89,3.84,17.21,17.21,0,0,0,5,.57S7.14,12.39,5.78,10.58Z" transform="translate(-0.07 -2.92)"/>
        <path class="cls-7" d="M17.23,7C16.55,10,12.11,8.31,10.4,10.4a4.19,4.19,0,0,1,2-1.92c.33-.18,2.54-.58,2.79-2.25,0-.38.51-.57.89-.6A1.09,1.09,0,0,1,17.23,7Z" transform="translate(-0.07 -2.92)"/>
        <path class="cls-8" d="M17.23,6.38c-.68,3.08-5.12,1.36-6.83,3.45a4.19,4.19,0,0,1,2-1.92c.33-.18,2.54-.58,2.79-2.25,0-.38.51-.57.89-.6A1.09,1.09,0,0,1,17.23,6.38Z" transform="translate(-0.07 -2.92)"/>
        <path class="cls-9" d="M22.83,7C23.51,10,28,8.31,29.66,10.4a4.23,4.23,0,0,0-2-1.92c-.33-.18-2.55-.58-2.79-2.25-.06-.38-.51-.57-.89-.6A1.08,1.08,0,0,0,22.83,7Z" transform="translate(-0.07 -2.92)"/>
        <path class="cls-8" d="M22.83,6.38c.68,3.08,5.12,1.36,6.83,3.45a4.23,4.23,0,0,0-2-1.92c-.33-.18-2.55-.58-2.79-2.25-.06-.38-.51-.57-.89-.6A1.08,1.08,0,0,0,22.83,6.38Z" transform="translate(-0.07 -2.92)"/>
        <g>
          <path class="cls-4" d="M17.33,16.13a2,2,0,0,1-.83-.26,5.1,5.1,0,0,0-2.43-.57,5,5,0,0,0-2.42.57,2,2,0,0,1-.84.26.93.93,0,0,1-.76-.38,2,2,0,0,1,0-2.06,4.35,4.35,0,0,1,4-2.38,4.32,4.32,0,0,1,4,2.38,1.94,1.94,0,0,1,0,2.06.93.93,0,0,1-.76.38Z" transform="translate(-0.07 -2.92)"/>
          <path class="cls-8" d="M14.07,11.88c-2.94,0-4.18,2.75-3.57,3.52.49.61,1.06-.67,3.57-.67s3.08,1.28,3.57.67C18.25,14.63,17,11.88,14.07,11.88Z" transform="translate(-0.07 -2.92)"/>
          <path class="cls-10" d="M14.07,13a3.74,3.74,0,0,1,3.6,2.34c.54-.81-.7-3.48-3.6-3.48s-4.14,2.67-3.59,3.48A3.72,3.72,0,0,1,14.07,13Z" transform="translate(-0.07 -2.92)"/>
        </g>
        <g>
          <path class="cls-4" d="M28.87,16.13a2,2,0,0,1-.84-.26,5.44,5.44,0,0,0-4.85,0,2,2,0,0,1-.84.26.92.92,0,0,1-.75-.38,2,2,0,0,1,0-2.06,4.54,4.54,0,0,1,8,0,2,2,0,0,1,0,2.06A.92.92,0,0,1,28.87,16.13Z" transform="translate(-0.07 -2.92)"/>
          <path class="cls-8" d="M25.61,11.88c2.93,0,4.17,2.75,3.57,3.52-.49.61-1.06-.67-3.57-.67S22.52,16,22,15.4C21.43,14.63,22.67,11.88,25.61,11.88Z" transform="translate(-0.07 -2.92)"/>
          <path class="cls-10" d="M25.61,13a3.73,3.73,0,0,1,3.59,2.34c.54-.81-.7-3.48-3.59-3.48s-4.14,2.67-3.6,3.48A3.74,3.74,0,0,1,25.61,13Z" transform="translate(-0.07 -2.92)"/>
        </g>
        <g>
          <path class="cls-11" d="M39.22,17.36a2.62,2.62,0,0,1-3.71,3.7c-1-1-4.38-5.92-4.38-5.92S36.69,14.83,39.22,17.36Z" transform="translate(-0.07 -2.92)"/>
          <path class="cls-12" d="M37.36,21.26a2,2,0,0,1-1.45-.6,60.44,60.44,0,0,1-3.7-4.95c1.56,0,4.91.36,6.6,2.05a2.05,2.05,0,0,1-1.45,3.5Z" transform="translate(-0.07 -2.92)"/>
          <path class="cls-13" d="M37.36,21.26a2,2,0,0,1-1.45-.6,60.44,60.44,0,0,1-3.7-4.95c1.56,0,4.91.36,6.6,2.05a2.05,2.05,0,0,1-1.45,3.5Z" transform="translate(-0.07 -2.92)"/>
        </g>
        <g>
          <path class="cls-11" d="M.84,17.36a2.62,2.62,0,1,0,3.71,3.7c1-1,4.37-5.92,4.37-5.92S3.36,14.83.84,17.36Z" transform="translate(-0.07 -2.92)"/>
          <path class="cls-14" d="M2.69,21.26a2.05,2.05,0,0,1-1.45-3.5c1.7-1.69,5-2,6.6-2.05a58.19,58.19,0,0,1-3.7,4.95A2,2,0,0,1,2.69,21.26Z" transform="translate(-0.07 -2.92)"/>
          <path class="cls-15" d="M2.69,21.26a2.05,2.05,0,0,1-1.45-3.5c1.7-1.69,5-2,6.6-2.05a58.19,58.19,0,0,1-3.7,4.95A2,2,0,0,1,2.69,21.26Z" transform="translate(-0.07 -2.92)"/>
        </g>
        <g>
          <path class="cls-11" d="M39.22,11.07a2.62,2.62,0,0,0-3.71-3.71c-1,1-4.38,5.92-4.38,5.92S36.69,13.59,39.22,11.07Z" transform="translate(-0.07 -2.92)"/>
          <path class="cls-16" d="M32.21,12.72a61,61,0,0,1,3.7-5,2.05,2.05,0,0,1,2.9,2.9C37.12,12.36,33.77,12.67,32.21,12.72Z" transform="translate(-0.07 -2.92)"/>
          <path class="cls-17" d="M32.21,12.72a61,61,0,0,1,3.7-5,2.05,2.05,0,0,1,2.9,2.9C37.12,12.36,33.77,12.67,32.21,12.72Z" transform="translate(-0.07 -2.92)"/>
        </g>
        <g>
          <path class="cls-11" d="M.84,11.07A2.62,2.62,0,0,1,4.55,7.36c1,1,4.37,5.92,4.37,5.92S3.36,13.59.84,11.07Z" transform="translate(-0.07 -2.92)"/>
          <path class="cls-18" d="M7.84,12.72c-1.56-.05-4.9-.36-6.6-2.06a2.05,2.05,0,0,1,1.45-3.5h0a2,2,0,0,1,1.45.6A58.67,58.67,0,0,1,7.84,12.72Z" transform="translate(-0.07 -2.92)"/>
          <path class="cls-19" d="M7.84,12.72c-1.56-.05-4.9-.36-6.6-2.06a2.05,2.05,0,0,1,1.45-3.5h0a2,2,0,0,1,1.45.6A58.67,58.67,0,0,1,7.84,12.72Z" transform="translate(-0.07 -2.92)"/>
        </g>
        <g>
          <path class="cls-4" d="M27.23,30.26a5.09,5.09,0,0,1-1.94-.53l-.5-.21-.88-.31a12.77,12.77,0,0,0-2-.54,11.42,11.42,0,0,0-4,0,12.24,12.24,0,0,0-2.25.6l-.8.28-.5.21a5.14,5.14,0,0,1-1.94.53,1.84,1.84,0,0,1-.41,0,2.67,2.67,0,0,1-2-2.14,7,7,0,0,1,.76-4.41,9.26,9.26,0,0,1,3.5-3.77,10.8,10.8,0,0,1,11.15,0,9.17,9.17,0,0,1,3.49,3.77,7,7,0,0,1,.77,4.4,2.62,2.62,0,0,1-2,2.15A1.75,1.75,0,0,1,27.23,30.26Z" transform="translate(-0.07 -2.92)"/>
          <path class="cls-8" d="M29.11,27.92c-.24.84-.64,1.58-1.57,1.74A5.46,5.46,0,0,1,25,29l-.89-.32a14.15,14.15,0,0,0-2.1-.56,11.28,11.28,0,0,0-2.17-.2,10.54,10.54,0,0,0-2,.17,13.69,13.69,0,0,0-2.34.62l-.81.29a5.42,5.42,0,0,1-2.55.67c-.94-.16-1.34-.9-1.57-1.74a6.29,6.29,0,0,1,.72-4,8.87,8.87,0,0,1,3.28-3.54,10.28,10.28,0,0,1,10.56,0,8.8,8.8,0,0,1,3.28,3.54A6.23,6.23,0,0,1,29.11,27.92Z" transform="translate(-0.07 -2.92)"/>
          <path class="cls-10" d="M11.26,25.06a8.76,8.76,0,0,1,3.29-3.54,10.26,10.26,0,0,1,10.55,0,8.83,8.83,0,0,1,3.29,3.54,8.62,8.62,0,0,1,.79,2.5,6.88,6.88,0,0,0-.79-3.64,8.83,8.83,0,0,0-3.29-3.54,10.26,10.26,0,0,0-10.55,0,8.76,8.76,0,0,0-3.29,3.54,6.78,6.78,0,0,0-.79,3.64A8.06,8.06,0,0,1,11.26,25.06Z" transform="translate(-0.07 -2.92)"/>
          <path class="cls-10" d="M22,21.48c-.73-.24-1.62,0-1.38.82.41,1.39.72,2.81-.74,2.81s-1.14-1.42-.73-2.81c.23-.8-.64-1.06-1.38-.82-1.22.4-1.81,1.91-1.81,3.3a3.91,3.91,0,0,0,1.81,3.3,10.54,10.54,0,0,1,2-.17,11.28,11.28,0,0,1,2.17.2,3.9,3.9,0,0,0,1.86-3.33C23.85,23.39,23.27,21.88,22,21.48Z" transform="translate(-0.07 -2.92)"/>
          <g>
            <path class="cls-20" d="M24.09,28.67a12.37,12.37,0,0,0-8.62,0c.62-2.56,2.31-4.4,4.31-4.4S23.46,26.13,24.09,28.67Z" transform="translate(-0.07 -2.92)"/>
            <path class="cls-21" d="M19.82,27.34a12.39,12.39,0,0,0-4.17.73c-.06.2-.13.41-.18.63a12.37,12.37,0,0,1,8.62,0c-.06-.22-.12-.42-.19-.63A12.15,12.15,0,0,0,19.82,27.34Z" transform="translate(-0.07 -2.92)"/>
          </g>
        </g>
      </g>
    </g>
  </g>
</svg>
