<svg id="레이어_1" data-name="레이어 1" xmlns="http://www.w3.org/2000/svg" viewBox="0 0 39.96 38.46">
  <defs>
    <style>
      .cls-1 {
        fill: #ff9500;
      }

      .cls-1, .cls-2 {
        fill-rule: evenodd;
      }
    </style>
  </defs>
  <title>1</title>
  <g>
    <polygon class="cls-1" points="18.74 1.01 14.01 13.31 2.11 13.35 0.63 14.67 1.3 16.95 11.23 24.06 7.13 34.92 8.26 37.09 10.7 36.5 19.68 30.31 29.15 37.6 31.81 37.6 31.93 35.57 28.58 23.39 38.49 16.52 39.11 14.95 37.95 13.08 24.72 13.31 23.18 8.24 21.46 1.37 19.68 0.87 18.74 1.01"/>
    <path class="cls-1" d="M3.86,14c-.47.51-.93,1-1.37,1.56s-1,1-1,1.62a.59.59,0,0,0,.75.55c.6-.19.91-.84,1.29-1.3s.84-1,1.27-1.51S4.44,13.34,3.86,14Z" transform="translate(0 -0.77)"/>
    <path class="cls-1" d="M7,14.2c-.78.9-1.55,1.81-2.3,2.74A8.84,8.84,0,0,0,3,19.15c.32.19.64.39,1,.57a13.21,13.21,0,0,0,1.63-2.11c.7-.9,1.41-1.77,2.14-2.64C8.22,14.42,7.43,13.66,7,14.2Z" transform="translate(0 -0.77)"/>
    <path class="cls-1" d="M9.93,14.31c-.9,1.06-1.78,2.13-2.62,3.23a10.54,10.54,0,0,0-2,3c-.13.41.43.86.78.58a15.11,15.11,0,0,0,2.22-2.86c.79-1.06,1.61-2.08,2.45-3.09C11.3,14.56,10.44,13.72,9.93,14.31Z" transform="translate(0 -0.77)"/>
    <path class="cls-1" d="M19.82,1.4c-.51.9-1,1.77-1.62,2.62A9.44,9.44,0,0,0,16.63,6.4a.5.5,0,0,0,.73.54,6.63,6.63,0,0,0,1.79-2.2c.6-.9,1.14-1.84,1.66-2.79A.57.57,0,0,0,19.82,1.4Z" transform="translate(0 -0.77)"/>
    <path class="cls-1" d="M21.22,3.89c-1.34,1.64-2.65,3.3-3.91,5A28.37,28.37,0,0,0,14,13.67a.54.54,0,0,0,0,.41.6.6,0,0,0-.9.1c-1,1.44-2,2.88-3.11,4.3a20.41,20.41,0,0,0-2.51,3.6.52.52,0,0,0,.82.61A18.25,18.25,0,0,0,11.16,19c1-1.4,2-2.82,2.92-4.24a.52.52,0,0,0,.09-.38.51.51,0,0,0,.77,0A40.48,40.48,0,0,0,18.1,9.91C19.36,8.12,20.67,6.37,22,4.65,22.44,4.1,21.67,3.34,21.22,3.89Z" transform="translate(0 -0.77)"/>
    <path class="cls-1" d="M23.62,11C18.33,17.7,12.73,24.47,8.2,31.73c-.45.72.67,1.57,1.2.89,5.22-6.79,9.86-14,15-20.86C24.85,11.2,24.07,10.43,23.62,11Z" transform="translate(0 -0.77)"/>
    <path class="cls-1" d="M24.72,14.08c-5.56,7.8-11.41,15.39-17.43,22.85-.53.67.41,1.6,1,.93a285.6,285.6,0,0,0,17.4-23.27C26.05,14,25.12,13.53,24.72,14.08Z" transform="translate(0 -0.77)"/>
    <path class="cls-1" d="M28,14.14c-5.2,7-10.59,13.85-15.49,21-.36.53.5,1.17.9.66C19,28.77,24.08,21.3,29.36,14a.48.48,0,0,0,.08-.18A5.2,5.2,0,0,1,28,14.14Z" transform="translate(0 -0.77)"/>
    <path class="cls-1" d="M30.93,14.09c-3.73,5.53-7.67,11-11.16,16.67-.38.63.57,1.11,1,.54,3.91-5.4,7.42-11.14,11.09-16.7C32.22,14,31.3,13.53,30.93,14.09Z" transform="translate(0 -0.77)"/>
    <path class="cls-1" d="M34.16,14c-4.49,5.8-7.33,12.63-11.77,18.47-.49.64.41,1.52.92.87,4.54-5.79,7.11-12.82,11.51-18.71C35.17,14.13,34.52,13.5,34.16,14Z" transform="translate(0 -0.77)"/>
    <path class="cls-1" d="M36.74,14.28c-1.54,2.35-3.22,4.59-4.84,6.88-.38.54.53,1.21.94.69a84.59,84.59,0,0,0,4.87-7C38.09,14.21,37.13,13.69,36.74,14.28Z" transform="translate(0 -0.77)"/>
    <path class="cls-1" d="M29,27.31a82.74,82.74,0,0,0-4.45,7.45c-.27.58.54,1.3,1,.71A82.85,82.85,0,0,0,30,27.88C30.38,27.22,29.36,26.67,29,27.31Z" transform="translate(0 -0.77)"/>
    <path class="cls-1" d="M30.19,31c-.58,1-1.17,1.95-1.76,2.93a15.2,15.2,0,0,0-1.52,2.73.52.52,0,0,0,.88.47,14.69,14.69,0,0,0,1.61-2.67c.55-1,1.1-2,1.66-3A.5.5,0,0,0,30.19,31Z" transform="translate(0 -0.77)"/>
    <path class="cls-1" d="M31.26,34.87a9.56,9.56,0,0,0-1.4,1.65,2.74,2.74,0,0,0-.71,1.85.45.45,0,0,0,.67.25c.48-.33.65-1,1-1.48A8.35,8.35,0,0,1,32,35.62C32.54,35.13,31.76,34.4,31.26,34.87Z" transform="translate(0 -0.77)"/>
    <path class="cls-1" d="M38.23,15.22c-.48.87-1,1.73-1.44,2.61a.51.51,0,0,0,.9.49c.49-.86,1-1.74,1.42-2.61A.5.5,0,0,0,38.23,15.22Z" transform="translate(0 -0.77)"/>
    <path class="cls-2" d="M39.15,14.14c-1.34-1.26-3.92-.77-5.54-.75l-8.07.1a37.76,37.76,0,0,1-2.48-7.74c-.4-1.47-.88-4.68-2.8-5C18,.47,17.32,3.49,16.77,5.05q-1.48,4.18-2.83,8.42l-8.75-.1C3.49,13.35.71,13,.1,15.14s1.58,3.5,3.05,4.52l7.31,5.09a44.53,44.53,0,0,1-2.82,8.19C7,34.45,5.82,36.7,7.53,38c1.56,1.18,3.53-.31,4.8-1.18q3.59-2.41,7-5.05l5.46,4.16c1.43,1.09,3.07,2.83,4.87,3.23a2.47,2.47,0,0,0,3-1.55c.58-1.77-.77-3.64-1.22-5.3-.56-2.09-.78-4.27-1.54-6.3-.25-.71-.59-1.15-.05-1.74a8.19,8.19,0,0,1,1.45-1l3.15-2.12c1.69-1.14,7.64-4.22,4.68-7Zm-.88,2.48c-.51,1.1-2.06,1.82-3,2.47l-2.91,2c-1,.65-2,1.28-2.91,1.95-.51.36-1.17.69-1.33,1.36s.36,1.41.58,2a20.67,20.67,0,0,1,.82,3,49.62,49.62,0,0,0,1.7,6,3.9,3.9,0,0,1,.32,1.26A1.23,1.23,0,0,1,30.44,38c-.52.17-1.22-.33-1.65-.6-1-.65-1.92-1.45-2.87-2.17l-6-4.6-.05,0a.42.42,0,0,0-.44-.1.75.75,0,0,0-.55.37q-2.32,1.75-4.72,3.43c-.89.63-5.81,4.78-6.36,1.87-.18-1,.74-2.25,1.12-3.11s.75-1.75,1.09-2.65a43.77,43.77,0,0,0,1.72-5.72A.58.58,0,0,0,11.4,24L6.29,20.41l-2.8-1.95a11.26,11.26,0,0,1-1.3-1C1.41,16.78,1,16.2,1.63,15.3c.49-.65.72-.66,1.46-.68.52,0,1,0,1.55,0l3.17,0,6.61.09a.66.66,0,0,0,.62-.48c.7-2.25,1.44-4.48,2.21-6.71.35-1,.7-2,1.07-3,.22-.62.36-1.52.9-1.95C19.5,2,20,2,20.58,2.52c.15.3.27.61.39.92,1.4,3.64,1.72,7.59,3.63,11.05a.66.66,0,0,0,.57.31l7.3-.08,3.5-.05C37.23,14.65,39.15,14.75,38.27,16.62Z" transform="translate(0 -0.77)"/>
  </g>
</svg>
