<svg id="레이어_1" data-name="레이어 1" xmlns="http://www.w3.org/2000/svg" viewBox="0 0 40 32.74">
  <defs>
    <style>
      .cls-1, .cls-3 {
        fill: #576d64;
      }

      .cls-2, .cls-4 {
        fill: #aedff4;
      }

      .cls-3, .cls-4, .cls-5 {
        fill-rule: evenodd;
      }
    </style>
  </defs>
  <title>1</title>
  <g>
    <rect class="cls-1" x="9.71" y="29.8" width="19.94" height="2.22"/>
    <rect class="cls-1" x="15.21" y="27.13" width="9.9" height="2.74"/>
    <rect class="cls-1" x="1.17" y="23.35" width="37.52" height="3.39"/>
    <rect class="cls-2" x="0.93" y="0.83" width="37.8" height="22.15"/>
    <path class="cls-3" d="M2.79,27.3c-.34.39-.68.79-1,1.2s-.7.73-.71,1.21a.39.39,0,0,0,.51.37c.43-.16.63-.61.89-1s.61-.82.93-1.22S3.15,26.87,2.79,27.3Z" transform="translate(0 -3.63)"/>
    <path class="cls-3" d="M4.77,27.18,3.7,28.41a3.14,3.14,0,0,0-.85,1.23c-.05.26.2.6.5.47.47-.19.73-.66,1-1s.69-.84,1.05-1.25-.27-1.08-.67-.64Z" transform="translate(0 -3.63)"/>
    <path class="cls-3" d="M6.56,27.33c-.33.42-.67.84-1,1.24a6.31,6.31,0,0,0-1,1.19.43.43,0,0,0,.59.56,4.22,4.22,0,0,0,1.1-1.09c.35-.41.69-.83,1-1.26S6.93,26.86,6.56,27.33Z" transform="translate(0 -3.63)"/>
    <path class="cls-3" d="M8.64,27.16c-.39.49-.78,1-1.16,1.49a4.56,4.56,0,0,0-.88,1.46.41.41,0,0,0,.61.45,4.9,4.9,0,0,0,1-1.24c.36-.51.73-1,1.12-1.49S9,26.67,8.64,27.16Z" transform="translate(0 -3.63)"/>
    <path class="cls-3" d="M10.53,27.15l-1,1.2a6.22,6.22,0,0,0-.91,1.2c-.17.37.24.88.63.6a5.92,5.92,0,0,0,1-1.1l1-1.2c.41-.5-.31-1.2-.73-.7Z" transform="translate(0 -3.63)"/>
    <path class="cls-3" d="M12.53,27.15q-.48.63-1,1.23a5.64,5.64,0,0,0-1,1.18.45.45,0,0,0,.62.59A4.05,4.05,0,0,0,12.33,29c.35-.42.67-.85,1-1.28s-.46-1-.8-.59Z" transform="translate(0 -3.63)"/>
    <path class="cls-3" d="M14.73,27.22a16,16,0,0,1-1,1.36,4.14,4.14,0,0,0-.87,1.21.4.4,0,0,0,.5.48,3.2,3.2,0,0,0,1.18-1.16,15.91,15.91,0,0,0,1-1.45C15.84,27.15,15,26.72,14.73,27.22Z" transform="translate(0 -3.63)"/>
    <path class="cls-3" d="M17.27,27l-1.41,1.7c-.39.47-1,1-1.12,1.6,0,.26.18.56.47.45.6-.23.95-.89,1.34-1.38s.92-1.16,1.38-1.74S17.65,26.52,17.27,27Z" transform="translate(0 -3.63)"/>
    <path class="cls-3" d="M19.46,26.86a39.2,39.2,0,0,0-4.35,5.36.46.46,0,0,0,.74.54c1.55-1.62,2.79-3.6,4.2-5.34C20.38,27,19.8,26.45,19.46,26.86Z" transform="translate(0 -3.63)"/>
    <path class="cls-3" d="M21.4,27.06c-.75.88-1.49,1.77-2.23,2.66a16,16,0,0,0-2,2.52.51.51,0,0,0,.81.6A18.85,18.85,0,0,0,20,30.28l2.06-2.56C22.47,27.25,21.8,26.59,21.4,27.06Z" transform="translate(0 -3.63)"/>
    <path class="cls-3" d="M23.43,27c-1.35,1.94-2.92,3.75-4.22,5.71-.32.48.43,1,.81.6a45.09,45.09,0,0,0,4.16-5.9C24.48,27,23.74,26.6,23.43,27Z" transform="translate(0 -3.63)"/>
    <path class="cls-3" d="M25.44,27.07c-.63.9-1.28,1.81-1.92,2.71a15.76,15.76,0,0,0-1.82,2.77.45.45,0,0,0,.72.52,15.23,15.23,0,0,0,1.86-2.63c.65-1,1.29-2,1.94-2.94.31-.49-.46-.89-.78-.43Z" transform="translate(0 -3.63)"/>
    <path class="cls-3" d="M27.6,26.75l-1.33,1.57a5.43,5.43,0,0,0-1.1,1.48c-.14.38.35.66.65.48a5.56,5.56,0,0,0,1.24-1.36l1.22-1.51C28.67,26.94,28,26.28,27.6,26.75Z" transform="translate(0 -3.63)"/>
    <path class="cls-3" d="M24.58,30.9l-.71,1a3.21,3.21,0,0,0-.62,1,.4.4,0,0,0,.6.43,3.43,3.43,0,0,0,.72-.88c.22-.33.45-.66.68-1S24.86,30.52,24.58,30.9Z" transform="translate(0 -3.63)"/>
    <path class="cls-3" d="M29.65,27.06l-1.16,1.39a6.62,6.62,0,0,0-1.06,1.37c-.15.37.22.86.63.59a6.34,6.34,0,0,0,1.13-1.29l1.13-1.42c.37-.46-.29-1.1-.68-.64Z" transform="translate(0 -3.63)"/>
    <path class="cls-3" d="M31.83,27c-.35.52-.71,1-1.07,1.55a5.09,5.09,0,0,0-1,1.48.39.39,0,0,0,.57.42A4.52,4.52,0,0,0,31.5,29.1c.39-.54.76-1.1,1.13-1.65s-.48-.92-.8-.44Z" transform="translate(0 -3.63)"/>
    <path class="cls-3" d="M33.61,27.23c-.32.47-.65.93-1,1.39a4.57,4.57,0,0,0-.83,1.21c-.11.33.31.58.58.42a4.14,4.14,0,0,0,1-1.18c.34-.47.66-.94,1-1.42s-.45-.88-.76-.42Z" transform="translate(0 -3.63)"/>
    <path class="cls-3" d="M36,27l-1.21,1.56a4.4,4.4,0,0,0-1,1.44.35.35,0,0,0,.51.37,4.44,4.44,0,0,0,1-1.25c.38-.54.77-1.08,1.16-1.61C36.77,27.11,36.26,26.59,36,27Z" transform="translate(0 -3.63)"/>
    <path class="cls-3" d="M37.36,27c-.36.53-.74,1-1.13,1.55a5.36,5.36,0,0,0-.93,1.34.4.4,0,0,0,.6.43A4.57,4.57,0,0,0,37,29c.38-.52.73-1.05,1.08-1.59S37.66,26.6,37.36,27Z" transform="translate(0 -3.63)"/>
    <path class="cls-3" d="M38.57,27.67c-.33.45-.67.9-1,1.34a4,4,0,0,0-.82,1.18.37.37,0,0,0,.55.4,3.92,3.92,0,0,0,1-1.18c.33-.45.64-.9.95-1.36s-.4-.79-.69-.38Z" transform="translate(0 -3.63)"/>
    <path class="cls-3" d="M10.85,33.77c-.17.2-.33.39-.49.6A1.88,1.88,0,0,0,10,35a.37.37,0,0,0,.55.4A2.24,2.24,0,0,0,11,34.9c.15-.19.31-.37.47-.55C11.82,34,11.21,33.37,10.85,33.77Z" transform="translate(0 -3.63)"/>
    <path class="cls-3" d="M12.55,33.58c-.23.26-.46.53-.7.79a2.11,2.11,0,0,0-.56.88.39.39,0,0,0,.49.47,2.21,2.21,0,0,0,.78-.68l.67-.81C13.63,33.76,13,33.11,12.55,33.58Z" transform="translate(0 -3.63)"/>
    <path class="cls-3" d="M14.9,33.52l-.76.87a3.18,3.18,0,0,0-.64,1c-.13.37.34.63.64.46A2.93,2.93,0,0,0,14.9,35l.69-.85c.38-.48-.29-1.14-.69-.66Z" transform="translate(0 -3.63)"/>
    <path class="cls-3" d="M17,33.47c-.29.35-.57.71-.83,1.08s-.6.75-.57,1.18a.4.4,0,0,0,.6.32c.35-.17.51-.62.71-.93a9.44,9.44,0,0,1,.75-1C18,33.65,17.33,33,17,33.47Z" transform="translate(0 -3.63)"/>
    <path class="cls-3" d="M19.18,33.45l-.8,1a2.06,2.06,0,0,0-.59,1,.38.38,0,0,0,.47.35c.4-.15.59-.54.83-.87s.51-.72.77-1.07S19.47,33.06,19.18,33.45Z" transform="translate(0 -3.63)"/>
    <path class="cls-3" d="M21.41,33.63l-.56.85c-.18.27-.43.54-.4.88a.36.36,0,0,0,.44.32c.34-.11.49-.45.67-.73l.6-.91C22.46,33.58,21.71,33.17,21.41,33.63Z" transform="translate(0 -3.63)"/>
    <path class="cls-3" d="M24.29,33.43a.44.44,0,0,0-.6,0A12.44,12.44,0,0,0,22.54,35a.39.39,0,0,0,.62.45A9.21,9.21,0,0,0,24.3,34,.45.45,0,0,0,24.29,33.43Z" transform="translate(0 -3.63)"/>
    <path class="cls-3" d="M26,33.48a.38.38,0,0,0-.53,0c-.21.28-.42.56-.64.83a5.37,5.37,0,0,0-.61.81c-.14.28.2.68.48.46A7.65,7.65,0,0,0,26,34a.4.4,0,0,0,0-.53Z" transform="translate(0 -3.63)"/>
    <path class="cls-3" d="M27.79,33.4c-.28.27-.56.54-.82.83a2.44,2.44,0,0,0-.66.93.4.4,0,0,0,.59.43,3.14,3.14,0,0,0,.74-.8c.25-.28.49-.55.76-.81S28.18,33,27.79,33.4Z" transform="translate(0 -3.63)"/>
    <path class="cls-3" d="M28.94,33.88c-.3.39-.7.71-1,1.11a.38.38,0,0,0,.48.58,4.1,4.1,0,0,0,1.16-1.22c.27-.36-.37-.83-.64-.47Z" transform="translate(0 -3.63)"/>
    <path class="cls-4" d="M3,4.62A21,21,0,0,0,.2,8.54.43.43,0,0,0,1,9C1.85,7.69,2.65,6.4,3.64,5.22,4,4.79,3.38,4.2,3,4.62Z" transform="translate(0 -3.63)"/>
    <path class="cls-4" d="M5.86,4.44A80,80,0,0,0,.25,11.28c-.31.43.43,1,.76.56C2.81,9.54,4.57,7.23,6.48,5c.37-.42-.25-1-.62-.59Z" transform="translate(0 -3.63)"/>
    <path class="cls-4" d="M8.79,4.7C6,8.29,3.07,11.68.26,15.21c-.39.48.27,1.15.7.67A134.75,134.75,0,0,0,9.4,5.28C9.72,4.86,9.12,4.27,8.79,4.7Z" transform="translate(0 -3.63)"/>
    <path class="cls-4" d="M12.06,4.39A161.8,161.8,0,0,1,.53,18.33a.47.47,0,0,0,.68.65A95.32,95.32,0,0,0,12.73,4.77C13,4.35,12.34,4,12.06,4.39Z" transform="translate(0 -3.63)"/>
    <path class="cls-4" d="M14.78,4.73C10.13,10.36,5.08,16,1,22c-.28.41.38.88.71.51,5-5.33,9.27-11.49,13.7-17.26C15.68,4.88,15.12,4.32,14.78,4.73Z" transform="translate(0 -3.63)"/>
    <path class="cls-4" d="M17.83,4.71A143.72,143.72,0,0,1,9,16.45c-2.73,3.17-5.83,6.06-8,9.66-.33.55.52,1,.87.48,2.66-3.93,6-7.24,9-10.95,2.71-3.4,5.15-7,7.58-10.6C18.67,4.67,18.08,4.36,17.83,4.71Z" transform="translate(0 -3.63)"/>
    <path class="cls-4" d="M21,4.71c-5.48,7-10.89,14.08-15.82,21.45-.35.53.49,1,.85.47,5.16-7.15,10.21-14.36,15.51-21.4.29-.38-.24-.9-.54-.52Z" transform="translate(0 -3.63)"/>
    <path class="cls-4" d="M23.37,4.73c-4.56,7.4-9.59,14.41-14.81,21.36-.38.51.32,1.22.74.71A170.39,170.39,0,0,0,24,5.09c.24-.42-.4-.77-.66-.36Z" transform="translate(0 -3.63)"/>
    <path class="cls-4" d="M26.5,4.65Q19.2,15.39,11.66,26c-.38.54.53,1,.91.5Q20.1,15.91,27.22,5.05C27.51,4.6,26.79,4.22,26.5,4.65Z" transform="translate(0 -3.63)"/>
    <path class="cls-4" d="M29.63,4.66q-3.48,5.55-7.13,11c-2.42,3.61-5.19,7.07-7.44,10.79a.44.44,0,0,0,.7.51C21.35,20.38,25.84,12.4,30.23,5,30.45,4.61,29.86,4.29,29.63,4.66Z" transform="translate(0 -3.63)"/>
    <path class="cls-4" d="M32.5,4.71C28.14,12.1,23.09,18.94,18.4,26.1c-.31.49.46,1.06.83.61,5.39-6.59,9.81-14.21,14-21.59A.42.42,0,0,0,32.5,4.71Z" transform="translate(0 -3.63)"/>
    <path class="cls-4" d="M35.78,4.68c-4.37,7.39-9.3,14.42-14.23,21.44-.35.51.5,1,.85.47,4.93-7,9.82-14.07,14-21.55a.37.37,0,0,0-.65-.36Z" transform="translate(0 -3.63)"/>
    <path class="cls-4" d="M38,5.17C33.71,12.54,28.69,19.35,24,26.44c-.27.41.37.88.68.5,5.42-6.5,9.87-14.07,14-21.42A.36.36,0,0,0,38,5.17Z" transform="translate(0 -3.63)"/>
    <path class="cls-4" d="M38.73,8.27c-3.73,6.12-8,11.93-11.68,18-.25.42.38.9.69.51,4.39-5.65,8-12,11.6-18.21.24-.39-.38-.73-.62-.34Z" transform="translate(0 -3.63)"/>
    <path class="cls-4" d="M38.67,12.33c-2.71,4.72-5.88,9.08-8.91,13.6-.29.43.4.94.73.54a87.21,87.21,0,0,0,8.8-13.8A.35.35,0,0,0,38.67,12.33Z" transform="translate(0 -3.63)"/>
    <path class="cls-4" d="M38.6,16.66c-2.09,3.15-4.38,6.17-6.5,9.29-.28.42.41.93.72.53,2.36-3,4.41-6.24,6.46-9.44C39.56,16.62,38.88,16.25,38.6,16.66Z" transform="translate(0 -3.63)"/>
    <path class="cls-4" d="M38.8,19.94c-1.55,2.09-3.2,4.15-4.64,6.32-.29.44.43,1,.76.55,1.6-2.06,3-4.27,4.5-6.41C39.66,20,39.06,19.59,38.8,19.94Z" transform="translate(0 -3.63)"/>
    <path class="cls-4" d="M38.6,23.64,37.43,25a6.42,6.42,0,0,0-1,1.34c-.12.28.18.67.48.46A6.2,6.2,0,0,0,38,25.55l1.13-1.42C39.39,23.78,38.89,23.29,38.6,23.64Z" transform="translate(0 -3.63)"/>
    <path class="cls-5" d="M39.91,5.88c-.34-1.75-1.81-2.06-3.37-2.07-2.51,0-5,0-7.54,0l-15.34,0-7.53,0c-1.46,0-4.42-.41-5.58.75a2.74,2.74,0,0,0-.49,2C0,7.66,0,8.9,0,10.14c0,2.56,0,5.13.09,7.69s.15,5,.25,7.44c0,1.24.11,2.48.16,3.72,0,.55-.06,1.32.43,1.72s1.55.27,2.2.27l4,0,7.48,0h0c0,.23.06.46.08.7a4.86,4.86,0,0,1,0,1,.81.81,0,0,0,0,.22L13.35,33l-2.12.12a6,6,0,0,0-1.75.14,1.24,1.24,0,0,0-.65,1.27c.17,1.91,2.77,1.58,4.08,1.6l8.18.1,3.95,0a24.54,24.54,0,0,0,3.93,0,1.7,1.7,0,0,0,1.58-1.7c.07-.59-.59-1.3-1.29-1.47a19.83,19.83,0,0,0-3.7-.17h-.19a4.17,4.17,0,0,0,.05-1.86h8.43a23.91,23.91,0,0,0,4-.06c2.08-.36,1.64-2.59,1.66-4.2,0-4,0-8,0-12,.06-.76.12-1.51.2-2.27.11-1.1.13-2.21.17-3.31a14.53,14.53,0,0,0,0-3.36Zm-4.6,22.17a.74.74,0,0,1,.39.67.81.81,0,0,1-1.32.63.9.9,0,0,1-.15-.19.72.72,0,0,1-.14-.5.77.77,0,0,1,.41-.6.84.84,0,0,1,.8,0Zm3.13-1.7C26.19,26,13.87,26,1.62,26.41c-.06-1.54-.12-3.08-.17-4.62-.14-4.24-.24-8.49-.2-12.74a12.12,12.12,0,0,1,.07-3.19C1.71,4.72,3.59,5,4.58,5,6.72,5,8.86,5,11,5l12.92.07,7,0,3.77,0c1.32,0,3.54-.51,3.93,1.24a12.11,12.11,0,0,1-.09,2.88c-.05,1.22-.1,2.44-.08,3.66,0,2.43-.05,4.88-.12,7.31a.4.4,0,0,0,.17.35c0,.66,0,1.32,0,2,0,1.06,0,2.12,0,3.19,0,.17,0,.37,0,.59ZM1.68,27.66q18.42-.18,36.83-.19a4.18,4.18,0,0,1-.14,1.47c-.52,1.45-2.32,1-3.48,1h-3.2Q18.87,29.91,6,29.8l-3.21,0H1.76a7.52,7.52,0,0,1-.07-1.6v-.5Zm14.11,3.39h8.47a6.3,6.3,0,0,1,.1.86,4,4,0,0,1-.13,1l-2.39,0c-2,0-4,0-6,.07a7.27,7.27,0,0,0,.07-1.14,4.78,4.78,0,0,0-.08-.74Zm12.78,4.12h-.66l-1.05,0-2.37,0-4.75-.06L12.62,35c-.22,0-2.64.09-2.42-.51.11-.3,4-.18,4.51-.19q2.38-.07,4.77-.09c1.6,0,3.19,0,4.78,0l2.39.07c.25,0,2.61.12,2.64.34-.24.19-.48.38-.73.56Z" transform="translate(0 -3.63)"/>
  </g>
</svg>
