<svg xmlns="http://www.w3.org/2000/svg" xmlns:xlink="http://www.w3.org/1999/xlink" viewBox="0 0 40 40">
  <defs>
    <style>
      .cls-1 {
        isolation: isolate;
      }

      .cls-2 {
        fill: url(#linear-gradient);
      }

      .cls-3, .cls-4 {
        opacity: 0.25;
      }

      .cls-3, .cls-5, .cls-6, .cls-7 {
        mix-blend-mode: multiply;
      }

      .cls-3 {
        fill: url(#radial-gradient);
      }

      .cls-4 {
        fill: #fff;
      }

      .cls-5, .cls-6, .cls-7 {
        opacity: 0.35;
      }

      .cls-5 {
        fill: url(#linear-gradient-2);
      }

      .cls-6 {
        fill: url(#linear-gradient-3);
      }

      .cls-7 {
        fill: url(#linear-gradient-4);
      }

      .cls-8 {
        fill: #5d4037;
      }

      .cls-9 {
        fill: #4e342e;
      }
    </style>
    <linearGradient id="linear-gradient" x1="20" y1="-0.67" x2="20" y2="40.75" gradientUnits="userSpaceOnUse">
      <stop offset="0" stop-color="#ffe082"/>
      <stop offset="1" stop-color="#ffbf66"/>
    </linearGradient>
    <radialGradient id="radial-gradient" cx="20" cy="20" r="20" gradientUnits="userSpaceOnUse">
      <stop offset="0.8" stop-color="#fff"/>
      <stop offset="1" stop-color="#ffbf66"/>
    </radialGradient>
    <linearGradient id="linear-gradient-2" x1="20" y1="17.63" x2="20" y2="40.41" xlink:href="#linear-gradient"/>
    <linearGradient id="linear-gradient-3" x1="23.46" y1="12.35" x2="32.22" y2="12.35" xlink:href="#linear-gradient"/>
    <linearGradient id="linear-gradient-4" x1="7.78" y1="10.36" x2="16.53" y2="10.36" xlink:href="#linear-gradient"/>
  </defs>
  <title>1</title>
  <g class="cls-1">
    <g id="레이어_1" data-name="레이어 1">
      <g>
        <g>
          <circle class="cls-2" cx="20" cy="20" r="20"/>
          <circle class="cls-3" cx="20" cy="20" r="20"/>
          <path class="cls-4" d="M36.5,15.12c0,7.43-7.39,0-16.5,0s-16.5,7.43-16.5,0S10.89,1.67,20,1.67,36.5,7.69,36.5,15.12Z"/>
          <path class="cls-5" d="M20,36A20,20,0,0,1,.1,18,18.86,18.86,0,0,0,0,20a20,20,0,0,0,40,0,18.86,18.86,0,0,0-.1-2A20,20,0,0,1,20,36Z"/>
        </g>
        <path class="cls-6" d="M25.05,10.22c2.64.71,5.74,1.74,7.17,4.31-1.72-1.64-4.39-2-6.64-1.87-.8,0-1.76.12-2.06-.84A1.27,1.27,0,0,1,25.05,10.22Z"/>
        <path class="cls-7" d="M15.23,10.69c-2.53-.1-5.48,0-7.45,1.84,1.11-2,3.6-3.36,5.74-3.92.73-.19,1.75-.7,2.47-.22A1.27,1.27,0,0,1,15.23,10.69Z"/>
        <path class="cls-8" d="M15.23,10c-2.55-.1-5.48,0-7.45,1.84a9.19,9.19,0,0,1,5.74-3.92c.91-.24,2.39-.91,2.91.32A1.28,1.28,0,0,1,15.23,10Z"/>
        <g>
          <path class="cls-4" d="M14.64,19a5,5,0,0,1-2.33-.78c-.23-.12-.47-.25-.69-.34a2.92,2.92,0,0,0-1.24-.25,7.26,7.26,0,0,0-1.5.2A3.75,3.75,0,0,1,8,18H8a.88.88,0,0,1-.87-.51.93.93,0,0,1,0-.78c.58-1.25,4.2-2.31,4.23-2.32a10.23,10.23,0,0,1,2.88-.49,5.24,5.24,0,0,1,1,.09,2.2,2.2,0,0,1,1.94,2.25,2.37,2.37,0,0,1-1.87,2.7A2.44,2.44,0,0,1,14.64,19Z"/>
          <path class="cls-8" d="M7.76,17.22c.16.35,1.44-.09,1.7-.13a4.57,4.57,0,0,1,3,.48c.91.48,1.87,1,2.91.67a1.72,1.72,0,0,0,1.22-1.8c0-2.44-3-2-4.59-1.52C11.43,15.06,7.33,16.27,7.76,17.22Z"/>
          <path class="cls-9" d="M10,17A15.58,15.58,0,0,1,12,16.31a7.91,7.91,0,0,1,3.55-.38,1.83,1.83,0,0,1,1,.54v-.2a1.55,1.55,0,0,0-1.42-1.62,7.91,7.91,0,0,0-3.55.38c-1.84.53-4.08,1.63-3.83,2.19C7.91,17.54,8.85,17.1,10,17Z"/>
        </g>
        <g>
          <path class="cls-4" d="M29.84,20l-.37,0a4.06,4.06,0,0,1-2.57-1.74l-.52-.58a4.46,4.46,0,0,0-2.53-1c-.67-.12-1.43-.24-1.47-1a.89.89,0,0,1,.26-.68c.57-.6,2.16-.72,3.4-.72.48,0,1,0,1.42.06a8.59,8.59,0,0,1,3.76,1.05,2.2,2.2,0,0,1,1,2.8A2.36,2.36,0,0,1,29.84,20Z"/>
          <path class="cls-8" d="M23,15.56c0,.37,1.2.41,1.44.45A4.59,4.59,0,0,1,27,17.26,6.31,6.31,0,0,0,29,19.15a1.83,1.83,0,0,0,2.29-.68c1.33-2.3-1.34-3.22-3.16-3.47a14.91,14.91,0,0,0-3.2-.11C24.62,14.92,23,15,23,15.56Z"/>
          <path class="cls-9" d="M25.22,16.2a15.71,15.71,0,0,1,2.06,0,8.05,8.05,0,0,1,3.45.94,1.82,1.82,0,0,1,.77.9l.08-.19a1.56,1.56,0,0,0-.73-2,7.78,7.78,0,0,0-3.45-.94c-1.91-.18-4.39,0-4.36.64C23.06,15.91,24.1,15.85,25.22,16.2Z"/>
        </g>
        <path class="cls-8" d="M25.05,9.56c2.67.72,5.73,1.72,7.17,4.3-1.6-1.52-3.95-1.9-6.07-1.88-.78,0-2,.27-2.49-.52a1.27,1.27,0,0,1,1.39-1.9C27.69,10.27,24.1,9.3,25.05,9.56Z"/>
        <g>
          <path class="cls-4" d="M19.35,32.61c-5.09,0-5.09-1.12-5.09-1.49,0-.92,1.07-1.09,2.83-1.37a15.13,15.13,0,0,0,5.09-1.42,5.73,5.73,0,0,0,2.57-2.68,5.67,5.67,0,0,1,.8-1.22A3.35,3.35,0,0,1,28,23.15a3.33,3.33,0,0,1,1.76.56,2.56,2.56,0,0,1,1,3.6c-1,2.14-3.45,3.89-6.76,4.79a18.69,18.69,0,0,1-4.65.51Z"/>
          <path class="cls-8" d="M29.4,24.27a2.6,2.6,0,0,0-3.7,1.05A10.47,10.47,0,0,1,23.8,28c-2.32,2-5.2,2-8,2.67-.45.1-1.29.46-.47.8a9.46,9.46,0,0,0,3.3.47,15.08,15.08,0,0,0,9.1-2.2C29.27,28.67,31.9,25.81,29.4,24.27Z"/>
          <path class="cls-9" d="M23.78,29.57c2.77-1.67,2.57-3,3.52-4a2.43,2.43,0,0,1,2.5-1,4.63,4.63,0,0,0-.4-.3,2.37,2.37,0,0,0-3.36.61c-1,1-.75,2.35-3.52,4s-7.6,1.42-7.6,2.22c0,.24.51.44,1.3.59C16.57,31,21.12,31.17,23.78,29.57Z"/>
        </g>
      </g>
    </g>
  </g>
</svg>
