<svg id="레이어_1" data-name="레이어 1" xmlns="http://www.w3.org/2000/svg" viewBox="0 0 40 40.03">
  <defs>
    <style>
      .cls-1 {
        fill: #e3ca95;
      }

      .cls-1, .cls-2, .cls-3, .cls-4, .cls-5 {
        fill-rule: evenodd;
      }

      .cls-2 {
        fill: #2b2722;
      }

      .cls-3 {
        fill: #ec331e;
      }

      .cls-4 {
        fill: #576d64;
      }
    </style>
  </defs>
  <title>1</title>
  <g>
    <polygon class="cls-1" points="7.01 4.12 7.54 11.27 11.26 10.81 14.71 11.71 16.34 12.78 16.77 14.98 21.45 10.54 25.9 14.28 34.33 6.1 35.91 7.33 25.27 17.88 21.03 14.28 16.96 17.55 16.42 20.77 14.71 24.31 14.1 25.17 14 25.75 22.94 25.29 33.42 25.64 36.57 25.26 38.08 23.11 37.74 3.68 7.01 4.12"/>
    <polygon class="cls-1" points="6.42 29.75 9.38 30.74 12.38 30.68 15.64 29.27 13.71 25.46 16.77 19.53 16.13 17.91 15.39 15.33 14.69 14.41 12.06 15.67 11.02 15.9 8.91 14.77 7.6 14.98 7.08 16.93 6.21 19.14 5.72 19.34 6.45 22.75 7.78 24.26 8.31 25.66 7.1 28.41 6.42 29.32 6.42 29.75"/>
    <polygon class="cls-2" points="5.72 19.34 5.78 14.02 6.67 11.73 9.94 10.97 13.56 11.14 15.96 12.54 16.96 14.66 16.77 18.65 15.29 15.09 14.69 14.41 12.24 15.44 10.54 15.71 8.91 14.77 7.78 14.54 7.26 16.28 6.67 18.26 5.72 19.34"/>
    <polygon class="cls-3" points="16.77 14.66 16.96 17.55 21.03 14.28 25.27 17.88 36.12 7.18 34.33 6.1 25.27 14.72 21.45 10.54 17.24 14.88 16.77 14.66"/>
    <path class="cls-4" d="M5.93,30S4,27.66.62,33.47l.52,5.66,20.19.15.56-2.71-.63-4.21L16.19,29l-2.65,7.55L11,39.13,7.1,32.19l-.68-2.44Z" transform="translate(0 0)"/>
    <path class="cls-4" d="M6.12.72,6.18,4S34.23,2.93,38.93,4l.47-.54L39.19.73Z" transform="translate(0 0)"/>
    <polygon class="cls-3" points="9.8 30.74 10.68 32.19 9.65 37.07 11.02 39.13 12.79 37.54 11.97 32.67 12.38 30.68 9.8 30.74"/>
    <path class="cls-3" d="M17.85,14a28.49,28.49,0,0,1-1,3.16c-.13.41.45.58.66.26a8.85,8.85,0,0,0,1.07-3.24C18.62,13.69,17.94,13.51,17.85,14Z" transform="translate(0 0)"/>
    <path class="cls-3" d="M19.45,12.59a23.23,23.23,0,0,0-.87,3.17c0,.42.56.77.77.3a22.62,22.62,0,0,0,1-3.26C20.46,12.25,19.61,12,19.45,12.59Z" transform="translate(0 0)"/>
    <path class="cls-3" d="M21.11,10.91a31,31,0,0,0-.93,3.49.4.4,0,0,0,.77.2,32.19,32.19,0,0,0,.93-3.5A.4.4,0,0,0,21.11,10.91Z" transform="translate(0 0)"/>
    <path class="cls-3" d="M22,12.14a8.71,8.71,0,0,1-.15,1.25,6.4,6.4,0,0,0-.24,1.12c0,.42.53.48.73.18a5.23,5.23,0,0,0,.52-2.57C22.91,11.56,22.06,11.59,22,12.14Z" transform="translate(0 0)"/>
    <path class="cls-3" d="M23.29,13.26c-.1.48-.19,1-.28,1.45a4,4,0,0,0-.16,1.37.39.39,0,0,0,.73.18A3.91,3.91,0,0,0,23.93,15c.09-.49.17-1,.26-1.46S23.4,12.67,23.29,13.26Z" transform="translate(0 0)"/>
    <path class="cls-3" d="M24.37,14.49c-.15.87-.34,1.73-.44,2.6-.07.58.77.83.9.23.19-.86.3-1.74.44-2.6C25.36,14.13,24.46,13.9,24.37,14.49Z" transform="translate(0 0)"/>
    <path class="cls-3" d="M25.9,14.28c-.09.39-.17.77-.25,1.16a3.22,3.22,0,0,0-.17,1.11.4.4,0,0,0,.75.18,3.34,3.34,0,0,0,.3-1.08c.07-.38.15-.77.23-1.15C26.87,13.94,26,13.72,25.9,14.28Z" transform="translate(0 0)"/>
    <path class="cls-3" d="M27.55,12.69c-.09.44-.17.89-.26,1.34a4.52,4.52,0,0,0-.16,1.27.42.42,0,0,0,.79.19,9.22,9.22,0,0,0,.56-2.57C28.59,12.32,27.67,12.08,27.55,12.69Z" transform="translate(0 0)"/>
    <path class="cls-3" d="M29.15,11.23l-.34,1.57a5,5,0,0,0-.21,1.48.4.4,0,0,0,.74.18A4.73,4.73,0,0,0,29.72,13c.11-.53.2-1,.31-1.58S29.27,10.65,29.15,11.23Z" transform="translate(0 0)"/>
    <path class="cls-3" d="M30.83,9.65a12.3,12.3,0,0,0-.59,3.28A.39.39,0,0,0,31,13c.31-1,.39-2.13.63-3.17A.41.41,0,0,0,30.83,9.65Z" transform="translate(0 0)"/>
    <path class="cls-3" d="M32.4,8.18A21,21,0,0,0,32,10.89c0,.51.71.54.85.1a22.7,22.7,0,0,0,.48-2.59C33.39,7.82,32.51,7.59,32.4,8.18Z" transform="translate(0 0)"/>
    <path class="cls-3" d="M34,6.61a9.48,9.48,0,0,0-.14,2.49c.09.51.77.36.9,0A10.41,10.41,0,0,0,35,6.58C35.09,5.91,34.07,6,34,6.61Z" transform="translate(0 0)"/>
    <path class="cls-4" d="M7.56,1.32A11.77,11.77,0,0,0,6.43,3.8c-.07.31.35.6.58.32a12,12,0,0,0,1.27-2.4C8.52,1.24,7.79.84,7.56,1.32Z" transform="translate(0 0)"/>
    <path class="cls-4" d="M9,1.3c-.37.71-.79,1.42-1.1,2.16a.4.4,0,0,0,.7.39c.44-.68.79-1.42,1.16-2.13C10,1.22,9.24.8,9,1.3Z" transform="translate(0 0)"/>
    <path class="cls-4" d="M10.29,1.18C10,2,9.49,2.77,9.16,3.6c-.17.39.31.83.64.46A7.92,7.92,0,0,0,11.17,1.4C11.36.85,10.49.64,10.29,1.18Z" transform="translate(0 0)"/>
    <path class="cls-4" d="M12.28.75a14.2,14.2,0,0,0-1.12,2.71.39.39,0,0,0,.72.29,13.33,13.33,0,0,0,1.19-2.57C13.3.65,12.52.21,12.28.75Z" transform="translate(0 0)"/>
    <path class="cls-4" d="M13.79,1.29a10.23,10.23,0,0,1-.53,1.33,4.77,4.77,0,0,0-.52,1.18.37.37,0,0,0,.63.34,3.37,3.37,0,0,0,.75-1.25,13.6,13.6,0,0,0,.54-1.38C14.85,1,14,.75,13.79,1.29Z" transform="translate(0 0)"/>
    <path class="cls-4" d="M15.48,1c-.33.69-.68,1.36-1,2.07-.22.54.51,1,.82.45s.69-1.35,1-2S15.76.46,15.48,1Z" transform="translate(0 0)"/>
    <path class="cls-4" d="M17.33,1.07l-.54,1.09a3.51,3.51,0,0,0-.44,1.08A.39.39,0,0,0,17,3.6a3.82,3.82,0,0,0,.59-1l.54-1.09C18.41,1,17.59.53,17.33,1.07Z" transform="translate(0 0)"/>
    <path class="cls-4" d="M19.12,1.18c-.18.32-.37.64-.56,1a2.54,2.54,0,0,0-.4,1,.39.39,0,0,0,.59.33,2.45,2.45,0,0,0,.64-.85l.57-1C20.27,1.11,19.43.64,19.12,1.18Z" transform="translate(0 0)"/>
    <path class="cls-4" d="M20.8.94a21.72,21.72,0,0,0-1.12,2.27c-.16.45.49.61.73.28a18.09,18.09,0,0,0,1.18-2.11A.45.45,0,0,0,20.8.94Z" transform="translate(0 0)"/>
    <path class="cls-4" d="M22.49.6l-.67,1.2A4.43,4.43,0,0,0,21.27,3a.4.4,0,0,0,.68.37,4.18,4.18,0,0,0,.71-1.09c.21-.41.43-.81.65-1.22A.47.47,0,0,0,22.49.6Z" transform="translate(0 0)"/>
    <path class="cls-4" d="M24.14.64c-.22.42-.44.84-.67,1.26a5.21,5.21,0,0,0-.57,1.22.39.39,0,0,0,.65.36,4.65,4.65,0,0,0,.68-1.16l.66-1.27A.43.43,0,0,0,24.14.64Z" transform="translate(0 0)"/>
    <path class="cls-4" d="M25.56.72a8.74,8.74,0,0,1-.62,1,4.43,4.43,0,0,0-.66.9.39.39,0,0,0,.54.51,2.68,2.68,0,0,0,.87-.87,8.84,8.84,0,0,0,.68-1A.47.47,0,0,0,25.56.72Z" transform="translate(0 0)"/>
    <path class="cls-4" d="M27.14.84A13.34,13.34,0,0,0,26,3.24c-.09.37.46.74.72.39a14,14,0,0,0,1.18-2.35C28.19.75,27.39.3,27.14.84Z" transform="translate(0 0)"/>
    <path class="cls-4" d="M28.84,1.07c-.19.31-.39.61-.59.91a2.6,2.6,0,0,0-.49.93.39.39,0,0,0,.58.42,2.86,2.86,0,0,0,.7-.84l.63-1C30,1,29.18.56,28.84,1.07Z" transform="translate(0 0)"/>
    <path class="cls-4" d="M30.38,1a5.59,5.59,0,0,0-1.11,1.9c-.15.45.57.73.79.3a7.51,7.51,0,0,1,1-1.57C31.43,1.16,30.76.52,30.38,1Z" transform="translate(0 0)"/>
    <path class="cls-4" d="M31.79,1a16.43,16.43,0,0,0-1.11,2.17c-.15.38.46.72.71.39A18.29,18.29,0,0,0,32.6,1.41.46.46,0,0,0,31.79,1Z" transform="translate(0 0)"/>
    <path class="cls-4" d="M33.29,1a9.24,9.24,0,0,1-.49,1.33,7.49,7.49,0,0,0-.56,1.18.42.42,0,0,0,.71.39,3.42,3.42,0,0,0,.76-1.27,9.71,9.71,0,0,0,.5-1.4A.47.47,0,0,0,33.29,1Z" transform="translate(0 0)"/>
    <path class="cls-4" d="M35.27.84A12,12,0,0,0,34.12,3.1a.42.42,0,0,0,.7.38,12.19,12.19,0,0,0,1.24-2.2C36.33.76,35.54.32,35.27.84Z" transform="translate(0 0)"/>
    <path class="cls-4" d="M37,.94c-.3.42-.57.85-.83,1.29a3.76,3.76,0,0,0-.6,1.34.41.41,0,0,0,.68.37A6.28,6.28,0,0,0,37,2.69a14.84,14.84,0,0,1,.83-1.29C38.13.9,37.29.45,37,.94Z" transform="translate(0 0)"/>
    <path class="cls-4" d="M38.57.85a21.22,21.22,0,0,1-1.46,2.37c-.26.4.31.73.63.46a7,7,0,0,0,1.61-2.39C39.6.76,38.81.32,38.57.85Z" transform="translate(0 0)"/>
    <path class="cls-4" d="M3.23,30.43c-.39.83-.8,1.67-1.22,2.48a11.31,11.31,0,0,0-1.1,2.27.33.33,0,0,0,.55.3,8.23,8.23,0,0,0,1.32-2.14c.43-.82.83-1.65,1.22-2.49C4.23,30.34,3.47,29.91,3.23,30.43Z" transform="translate(0 0)"/>
    <path class="cls-4" d="M4.87,30.12A82.91,82.91,0,0,0,.66,38a.39.39,0,0,0,.69.38,83.74,83.74,0,0,0,4.28-7.85A.43.43,0,0,0,4.87,30.12Z" transform="translate(0 0)"/>
    <path class="cls-4" d="M6.06,30.54C4.82,33.42,3.18,36.11,1.93,39a.45.45,0,0,0,.78.43A44.21,44.21,0,0,0,6.82,31C7,30.45,6.28,30,6.06,30.54Z" transform="translate(0 0)"/>
    <path class="cls-4" d="M6.82,32.9c-.4,1-.8,1.94-1.19,2.91a12.84,12.84,0,0,0-1,2.65.37.37,0,0,0,.67.27A13.44,13.44,0,0,0,6.48,36c.36-.91.72-1.81,1.09-2.72C7.77,32.81,7,32.39,6.82,32.9Z" transform="translate(0 0)"/>
    <path class="cls-4" d="M7.46,34.73a20.51,20.51,0,0,1-.78,2.41,17.89,17.89,0,0,0-.91,2.11.34.34,0,0,0,.57.31,12.13,12.13,0,0,0,1.82-4.65A.36.36,0,0,0,7.46,34.73Z" transform="translate(0 0)"/>
    <path class="cls-4" d="M8.17,36.85a9.77,9.77,0,0,0-.82,2.61c0,.37.46.4.63.15a4.38,4.38,0,0,0,.51-1.22l.45-1.34C9.11,36.56,8.34,36.37,8.17,36.85Z" transform="translate(0 0)"/>
    <path class="cls-4" d="M9.06,38.24c-.1.3-.21.61-.3.91s.41.53.55.22.24-.59.36-.89A.33.33,0,1,0,9.06,38.24Z" transform="translate(0 0)"/>
    <path class="cls-4" d="M16.46,30.21C15.41,33,14,35.72,13.18,38.56a.34.34,0,0,0,.63.25c1.49-2.54,2.38-5.66,3.41-8.41C17.39,29.93,16.63,29.75,16.46,30.21Z" transform="translate(0 0)"/>
    <path class="cls-4" d="M18,30.7c-1.23,2.79-2.92,5.69-3.68,8.65a.29.29,0,0,0,.53.2c1.65-2.53,2.64-5.7,3.84-8.47C18.9,30.62,18.22,30.24,18,30.7Z" transform="translate(0 0)"/>
    <path class="cls-4" d="M19.06,31.34c-.82,2.64-2,5.09-3,7.66-.16.41.49.63.71.27a35.06,35.06,0,0,0,3-7.74C20,31,19.21,30.86,19.06,31.34Z" transform="translate(0 0)"/>
    <path class="cls-4" d="M20.21,32.37c-.92,2.13-1.93,4.25-2.74,6.42-.16.42.53.69.73.29,1-2.06,1.81-4.22,2.69-6.33C21.09,32.29,20.41,31.9,20.21,32.37Z" transform="translate(0 0)"/>
    <path class="cls-4" d="M20.77,34.51c-.62,1.52-1.48,3-2,4.54-.12.39.42.53.63.24a21.17,21.17,0,0,0,2-4.4C21.64,34.43,21,34,20.77,34.51Z" transform="translate(0 0)"/>
    <path class="cls-4" d="M21.1,36.54c-.3.68-.59,1.36-.87,2.06-.16.41.42.77.63.34.33-.66.64-1.34.94-2C22,36.46,21.31,36.07,21.1,36.54Z" transform="translate(0 0)"/>
    <path class="cls-3" d="M11.43,30.92c-.28.57-.66,1.06-1,1.62a.32.32,0,0,0,.52.37,5.79,5.79,0,0,0,1-1.66C12.21,30.85,11.62,30.52,11.43,30.92Z" transform="translate(0 0)"/>
    <path class="cls-3" d="M11.3,33.15c-.21.59-.55,1.09-.8,1.66a.28.28,0,0,0,.45.32,4.7,4.7,0,0,0,1-1.82C12.09,32.91,11.44,32.75,11.3,33.15Z" transform="translate(0 0)"/>
    <path class="cls-3" d="M11.55,34.88A23.86,23.86,0,0,0,10.08,37c-.18.34.29.72.56.41a22.25,22.25,0,0,0,1.54-2.2C12.45,34.84,11.82,34.5,11.55,34.88Z" transform="translate(0 0)"/>
    <path class="cls-3" d="M11.88,36.44,10.6,38.35c-.27.4.4.77.66.36.42-.64.83-1.28,1.24-1.92C12.76,36.4,12.13,36.07,11.88,36.44Z" transform="translate(0 0)"/>
    <path class="cls-2" d="M7.5,11.56a12.41,12.41,0,0,1-.81,1.53,14.8,14.8,0,0,0-.94,1.44c-.15.35.22.83.58.56a7.37,7.37,0,0,0,2-3.06C8.58,11.47,7.76,11,7.5,11.56Z" transform="translate(0 0)"/>
    <path class="cls-2" d="M8.86,11.36a43.19,43.19,0,0,1-3,5.75c-.24.43.38.92.71.52a20.81,20.81,0,0,0,3.21-6C10,11,9.07,10.81,8.86,11.36Z" transform="translate(0 0)"/>
    <path class="cls-2" d="M10.51,11.43l-.86,1.72a8.16,8.16,0,0,0-.74,1.62c-.09.41.47.78.76.42a7.6,7.6,0,0,0,.85-1.56l.85-1.72C11.65,11.34,10.79,10.86,10.51,11.43Z" transform="translate(0 0)"/>
    <path class="cls-2" d="M12,11.12a15.57,15.57,0,0,1-1.75,3.74c-.31.5.48.93.8.44a14.33,14.33,0,0,0,1.73-4C12.92,10.81,12.15,10.62,12,11.12Z" transform="translate(0 0)"/>
    <path class="cls-2" d="M13.15,11.58a14.76,14.76,0,0,1-.76,1.9,9.9,9.9,0,0,0-.79,1.6c-.12.39.38.6.64.36a5.11,5.11,0,0,0,1-1.74A16.36,16.36,0,0,0,14,11.78C14.14,11.25,13.31,11.06,13.15,11.58Z" transform="translate(0 0)"/>
    <path class="cls-2" d="M14.45,11.94l-.72,1.61A4.44,4.44,0,0,0,13.24,15a.34.34,0,0,0,.58.22,4.24,4.24,0,0,0,.68-1.34l.63-1.53C15.33,11.86,14.65,11.47,14.45,11.94Z" transform="translate(0 0)"/>
    <path class="cls-2" d="M15.28,13.27a8.4,8.4,0,0,1-.59,1.39.37.37,0,0,0,.59.43,3.4,3.4,0,0,0,.83-1.62A.43.43,0,0,0,15.28,13.27Z" transform="translate(0 0)"/>
    <path class="cls-2" d="M16,15.08a9.24,9.24,0,0,0-.67,1.47c-.1.34.39.65.63.35a8.43,8.43,0,0,0,.78-1.41C17,15,16.25,14.6,16,15.08Z" transform="translate(0 0)"/>
    <path class="cls-1" d="M8.44,15.43,7.3,17.28a12.39,12.39,0,0,0-1.09,1.86c-.15.36.29.79.59.44A26.89,26.89,0,0,0,9.11,15.8C9.36,15.38,8.7,15,8.44,15.43Z" transform="translate(0 0)"/>
    <path class="cls-1" d="M9.34,15.91C8.87,17,8.38,18,7.85,19a18,18,0,0,0-1.38,2.74.36.36,0,0,0,.61.33,11.43,11.43,0,0,0,1.51-2.66c.51-1,1-2.05,1.41-3.1C10.19,15.84,9.54,15.46,9.34,15.91Z" transform="translate(0 0)"/>
    <path class="cls-1" d="M10.43,16.36c-1,2.4-2.29,4.64-3.29,7a.43.43,0,0,0,.75.42,36.14,36.14,0,0,0,3.34-7.12C11.41,16.22,10.61,15.9,10.43,16.36Z" transform="translate(0 0)"/>
    <path class="cls-1" d="M12.18,15.94c-1.16,3.21-2.8,6.18-4,9.33a.41.41,0,0,0,.72.4A43.56,43.56,0,0,0,13,16.14C13.12,15.65,12.36,15.47,12.18,15.94Z" transform="translate(0 0)"/>
    <path class="cls-1" d="M13.92,15.2A78.8,78.8,0,0,1,7.59,29.48a.46.46,0,0,0,.8.44,66.32,66.32,0,0,0,6.2-14.56C14.72,14.93,14.06,14.78,13.92,15.2Z" transform="translate(0 0)"/>
    <path class="cls-1" d="M15,16.25a147.41,147.41,0,0,1-5.9,13.88.38.38,0,0,0,.66.36,64.9,64.9,0,0,0,5.88-14.08C15.75,16,15.12,15.86,15,16.25Z" transform="translate(0 0)"/>
    <path class="cls-1" d="M15.41,18.88a77.61,77.61,0,0,1-4.12,11c-.21.47.48.86.71.39a67.21,67.21,0,0,0,4.07-11.17A.34.34,0,0,0,15.41,18.88Z" transform="translate(0 0)"/>
    <path class="cls-1" d="M13.65,27.35l-.55,1.36a4.24,4.24,0,0,0-.41,1.23.35.35,0,0,0,.59.23A4.63,4.63,0,0,0,13.83,29c.17-.46.35-.92.53-1.37S13.82,27,13.65,27.35Z" transform="translate(0 0)"/>
    <path class="cls-1" d="M14.38,28.4a8.18,8.18,0,0,1-.41,1,.33.33,0,0,0,.52.38,2.73,2.73,0,0,0,.6-1.23A.37.37,0,0,0,14.38,28.4Z" transform="translate(0 0)"/>
    <path class="cls-1" d="M8.55,4.57A19.27,19.27,0,0,0,7.54,8c0,.4.57.5.73.18A19.13,19.13,0,0,0,9.36,4.77C9.51,4.26,8.71,4.06,8.55,4.57Z" transform="translate(0 0)"/>
    <path class="cls-1" d="M10.39,4.44C9.65,6.66,8.5,9,8.09,11.28a.37.37,0,0,0,.67.27c1.16-2.05,1.72-4.67,2.44-6.9C11.36,4.13,10.56,3.94,10.39,4.44Z" transform="translate(0 0)"/>
    <path class="cls-1" d="M12.32,4.22a58.88,58.88,0,0,0-2.51,6.37c-.11.37.49.62.63.25C11.28,8.75,12,6.6,12.85,4.51,13,4.16,12.47,3.85,12.32,4.22Z" transform="translate(0 0)"/>
    <path class="cls-1" d="M13.74,4.21c-.85,2.19-1.73,4.37-2.48,6.6-.17.51.62.69.81.2.83-2.2,1.58-4.42,2.39-6.62C14.63,3.94,13.91,3.78,13.74,4.21Z" transform="translate(0 0)"/>
    <path class="cls-1" d="M15.56,4.13a39.51,39.51,0,0,0-2.65,6.76.35.35,0,0,0,.65.25c1.08-2.09,1.71-4.5,2.6-6.67C16.32,4.06,15.74,3.73,15.56,4.13Z" transform="translate(0 0)"/>
    <path class="cls-1" d="M17.38,4a39.29,39.29,0,0,0-2.66,7.39.39.39,0,0,0,.75.19C16.4,9.17,17,6.65,18,4.24,18.13,3.89,17.52,3.65,17.38,4Z" transform="translate(0 0)"/>
    <path class="cls-1" d="M19.09,4A61.92,61.92,0,0,0,16,12.54c-.13.48.59.64.74.18.9-2.84,1.81-5.64,3-8.4C19.83,3.94,19.26,3.62,19.09,4Z" transform="translate(0 0)"/>
    <path class="cls-1" d="M20.37,4.27C19.28,7.49,17.9,10.68,17,14c-.11.4.51.66.69.27A92.55,92.55,0,0,0,21,4.43C21.14,4,20.51,3.87,20.37,4.27Z" transform="translate(0 0)"/>
    <path class="cls-1" d="M21.81,3.88c-.57,3-2,5.66-2.69,8.57-.09.39.5.65.67.27a40,40,0,0,0,2.73-8.66C22.6,3.6,21.9,3.42,21.81,3.88Z" transform="translate(0 0)"/>
    <path class="cls-1" d="M23.38,4a51.49,51.49,0,0,0-2,6.25.39.39,0,0,0,.75.19c.75-2,1.25-4.2,1.93-6.26C24.23,3.74,23.53,3.57,23.38,4Z" transform="translate(0 0)"/>
    <path class="cls-1" d="M25.27,3.88c-.73,2.6-1.92,5.25-2.4,7.9a.33.33,0,0,0,.6.24c1.27-2.37,1.82-5.38,2.49-8A.36.36,0,0,0,25.27,3.88Z" transform="translate(0 0)"/>
    <path class="cls-1" d="M27.27,3.7a55.58,55.58,0,0,0-2.92,9.4.37.37,0,0,0,.72.19C26.2,10.22,26.88,7,27.91,3.86,28,3.45,27.41,3.31,27.27,3.7Z" transform="translate(0 0)"/>
    <path class="cls-1" d="M29,3.63c-1.07,3.26-2.29,6.49-3.22,9.79-.15.5.58.65.76.19,1.23-3.2,2.12-6.54,3.08-9.82C29.77,3.39,29.16,3.25,29,3.63Z" transform="translate(0 0)"/>
    <path class="cls-1" d="M30.72,3.52C29.93,6,29.05,8.4,28.39,10.89c-.14.51.62.68.78.19.84-2.42,1.47-4.93,2.17-7.4C31.46,3.28,30.85,3.13,30.72,3.52Z" transform="translate(0 0)"/>
    <path class="cls-1" d="M32.1,3.51a13.35,13.35,0,0,0-.78,2.39c-.22.87-.61,1.73-.78,2.61-.06.31.35.59.58.32,1.07-1.31,1-3.43,1.63-5C32.94,3.44,32.3,3.08,32.1,3.51Z" transform="translate(0 0)"/>
    <path class="cls-1" d="M33.52,3.81a14.38,14.38,0,0,1-.35,1.58,5.77,5.77,0,0,0-.39,1.45.35.35,0,0,0,.6.23A3.35,3.35,0,0,0,34,5.7,12.09,12.09,0,0,0,34.32,4C34.4,3.49,33.61,3.28,33.52,3.81Z" transform="translate(0 0)"/>
    <path class="cls-1" d="M35.47,3.89c-.09.36-.2.73-.32,1.09a3.63,3.63,0,0,0-.3,1,.33.33,0,0,0,.56.22,2.9,2.9,0,0,0,.42-1c.13-.39.23-.78.32-1.17A.35.35,0,0,0,35.47,3.89Z" transform="translate(0 0)"/>
    <path class="cls-1" d="M37,4.39Q34.59,14.74,31.55,24.9c-.13.45.57.63.71.18A204.91,204.91,0,0,0,37.48,4.52C37.55,4.18,37,4.05,37,4.39Z" transform="translate(0 0)"/>
    <path class="cls-1" d="M37.13,9.5C35.66,14.83,34,20.1,32.54,25.43c-.15.56.7.76.88.21,1.7-5.24,3-10.62,4.34-16A.33.33,0,0,0,37.13,9.5Z" transform="translate(0 0)"/>
    <path class="cls-1" d="M37.53,13.57c-.89,3.93-2,7.76-3.29,11.58-.19.57.7.78.89.22a74.31,74.31,0,0,0,2.95-11.66A.28.28,0,0,0,37.53,13.57Z" transform="translate(0 0)"/>
    <path class="cls-1" d="M37.7,20.24A27.4,27.4,0,0,0,35.92,25a.35.35,0,0,0,.65.25,49.52,49.52,0,0,0,1.77-4.77C38.47,20.12,37.85,19.88,37.7,20.24Z" transform="translate(0 0)"/>
    <path class="cls-1" d="M34.38,8.81a142.84,142.84,0,0,0-4.7,16.33.43.43,0,0,0,.83.21C32.2,20,33.42,14.39,35,9,35.08,8.58,34.5,8.44,34.38,8.81Z" transform="translate(0 0)"/>
    <path class="cls-1" d="M31.87,11.43c-1.68,4.28-3.63,8.94-4.24,13.53a.33.33,0,0,0,.64.16c1.63-4.42,2.58-9.1,4.19-13.54C32.59,11.21,32,11.08,31.87,11.43Z" transform="translate(0 0)"/>
    <path class="cls-1" d="M28.59,14.39c-1.05,3.33-2.4,6.87-2.81,10.36a.36.36,0,0,0,.7.17c1.24-3.3,1.82-7,2.78-10.37C29.38,14.12,28.72,14,28.59,14.39Z" transform="translate(0 0)"/>
    <path class="cls-1" d="M25.13,18.12A49.46,49.46,0,0,0,23.54,25c0,.43.56.41.69.08a48.27,48.27,0,0,0,1.52-6.76A.32.32,0,0,0,25.13,18.12Z" transform="translate(0 0)"/>
    <path class="cls-1" d="M23.44,17.16c-.56,2.61-1.21,5.21-1.65,7.84-.08.47.61.66.72.18.63-2.59,1.06-5.24,1.57-7.86C24.17,16.91,23.53,16.74,23.44,17.16Z" transform="translate(0 0)"/>
    <path class="cls-1" d="M22,15.46c-.51,3.18-1.44,6.26-2,9.42a.34.34,0,0,0,.67.16,43.16,43.16,0,0,0,1.93-9.43C22.68,15.21,22.09,15.05,22,15.46Z" transform="translate(0 0)"/>
    <path class="cls-1" d="M20.74,14.64c-.8,3.32-1.79,6.66-2.35,10a.41.41,0,0,0,.79.2c.95-3.29,1.51-6.72,2.22-10.07A.34.34,0,0,0,20.74,14.64Z" transform="translate(0 0)"/>
    <path class="cls-1" d="M19,15.85c-.77,2.93-1.76,5.89-2.25,8.88a.41.41,0,0,0,.8.2c.94-2.88,1.43-6,2.1-8.92A.33.33,0,0,0,19,15.85Z" transform="translate(0 0)"/>
    <path class="cls-5" d="M16.7,12.86c-.8-1.5-2.43-2-4-2.26A9.17,9.17,0,0,0,8,10.83c-.08-2.1-.21-4.18-.19-6.28,9.72-.24,19.5-1.18,29.21-.4.14,3.53.25,7.07.36,10.6.07,1.78.13,3.56.19,5.34S38.21,24.35,36,25c-1.66.49-3.74,0-5.45-.05s-3.52-.14-5.29-.16c-3.53,0-7.06.06-10.58.3a9.07,9.07,0,0,0,1.48-2.48,18.21,18.21,0,0,0,1.21-4.44.58.58,0,0,0,.24-.14L21,14.77c1.35,1.14,2.64,2.33,3.89,3.59a.57.57,0,0,0,.78,0c3.56-3.56,7.13-7.1,10.68-10.67a.55.55,0,0,0-.13-.85,9.31,9.31,0,0,1-1.37-1.14.53.53,0,0,0-.74,0c-2.9,2.65-5.78,5.31-8.56,8.08-1.23-1.26-2.47-2.52-3.73-3.76a.5.5,0,0,0-.7,0,42,42,0,0,1-3.72,4.06h0l0,0-.14.15a6.46,6.46,0,0,0-.53-1.43ZM14.63,32.19a15.83,15.83,0,0,0-1.8-.6,2.53,2.53,0,0,0,.12-.4A22.37,22.37,0,0,0,15.37,30c-.29.71-.51,1.44-.74,2.17Zm-2.12.17a19.51,19.51,0,0,0,1.86.66,14.19,14.19,0,0,1-.65,1.63c-.26.55-.54,1.09-.86,1.63-.15-.84-.35-1.66-.44-2.5a3.11,3.11,0,0,1,.09-1.42Zm-3-.78a17.7,17.7,0,0,1-1.64.93c-.29-.72-.57-1.44-.86-2.15l.33.05a6.48,6.48,0,0,1,2,.73h0a1.22,1.22,0,0,0,.18.41l0,0ZM8.19,33.22l.57,1.38a11.25,11.25,0,0,0,.86,1.61c.19-1.05.44-2.1.53-3.15a1.28,1.28,0,0,0-.16-.91l-.06.05a13.67,13.67,0,0,1-1.74,1Zm6.86-4.11a3.69,3.69,0,0,1-.7-.78,9.2,9.2,0,0,1-.95-2.15,4.05,4.05,0,0,1-3.75.34,5.72,5.72,0,0,1-1-.51A6.43,6.43,0,0,1,7,29.38a13.28,13.28,0,0,1,2.75,1,9.3,9.3,0,0,1,2.58-.1.48.48,0,0,1,.22.08A23,23,0,0,1,15,29.11ZM7.83,25.4A5.34,5.34,0,0,1,6.1,28.86l-.18,0C.76,28.62-1.21,35.12.74,39.1a.31.31,0,0,0,.08.11.52.52,0,0,0,.5.58q9.82.3,19.63,0a.48.48,0,0,0,.74,0,3.82,3.82,0,0,0,.76-2.82A29.09,29.09,0,0,0,22,32.57c-.23-1.13-1-1.64-1.95-2.26a9.56,9.56,0,0,0-3.79-1.67.48.48,0,0,0-.24,0,3.66,3.66,0,0,1-.9-.9A9.83,9.83,0,0,1,14.26,26q6.14-.36,12.26-.25,3.15.06,6.29.27c1.52.09,3.19.29,4.52-.61a3.07,3.07,0,0,0,1.29-2.83c0-2-.12-4.06-.19-6.09-.12-4.09-.26-8.18-.38-12.27l1.15.11a.37.37,0,0,0,.38-.22.51.51,0,0,0,.36-.47,10.4,10.4,0,0,0-.1-3,.42.42,0,0,0-.55-.32h-.12Q22.87.19,6.54.1A.48.48,0,0,0,6,.1H5.8a.56.56,0,0,0-.15,1.08c0,.94,0,1.9-.07,2.84a.4.4,0,0,0,.06.3.45.45,0,0,0,.44.27l.84,0a55.27,55.27,0,0,0,.16,6.56A2.43,2.43,0,0,0,5.5,13.3a26.26,26.26,0,0,0-.15,5.81c.16,2.29.8,4.76,2.48,6.29ZM5.31,29.83a4.76,4.76,0,0,0-3.76,3.06c-.8,2-.23,3.85.08,5.88q4.22.12,8.45.15A28.58,28.58,0,0,1,7.93,35.1c-.68-1.71-1.34-3.41-2-5.12l-.16,0a.44.44,0,0,1-.46-.19Zm12.1-14.48a10.45,10.45,0,0,1,.05,1.26l3.13-3a.57.57,0,0,1,.78,0c1.35,1.12,2.65,2.31,3.9,3.54,3.29-3.27,6.56-6.56,9.86-9.82q-.35-.27-.66-.57c-2.95,2.59-5.77,5.33-8.53,8.12a.55.55,0,0,1-.76,0c-1.23-1.26-2.46-2.52-3.67-3.8-1,1.17-2,2.31-3.15,3.38a.47.47,0,0,1-.05.1,3.34,3.34,0,0,1-.75.7.28.28,0,0,1-.15,0ZM22.91,3a117.35,117.35,0,0,1,16,.39c0-.72,0-1.43,0-2.15q-16.07,0-32.12,0a14.22,14.22,0,0,1-.1,2.35C12.08,3.27,17.5,3.17,22.91,3ZM11.09,38.68a12.51,12.51,0,0,0-.78-1.38.42.42,0,0,0,.09-.16,18.8,18.8,0,0,0,.8-4.28,1.91,1.91,0,0,0,0-.89c-.1-.29-.42-.52-.64-.78A9.6,9.6,0,0,1,12,31.08c-.1.38-.42.67-.55,1.05a2.42,2.42,0,0,0-.07,1.1A36.08,36.08,0,0,0,12,37.1a.38.38,0,0,0,.15.23,11,11,0,0,1-1.1,1.35Zm10.06.12c.62-1.56.13-3.7-.11-5.26a2.54,2.54,0,0,0-1-1.94c-.39-.3-.81-.58-1.24-.85a8.07,8.07,0,0,0-2.25-1c-.94,1.91-1.24,4-2.24,6a15.89,15.89,0,0,1-2,3.22c2.94,0,5.89,0,8.83-.12Zm-14-26.7c-1,.65-1.11,3.33-.92,5.81a8.79,8.79,0,0,0,.54-2.3,1.85,1.85,0,0,1,.79-1.4,1.44,1.44,0,0,1,1.42,0,4,4,0,0,1,.76.54,2.13,2.13,0,0,0,2.28.43c1-.33,2.61-2,3.54-.79a4.1,4.1,0,0,1,.61,1.81c.09.47.16.89.27,1.29a10.66,10.66,0,0,0-.26-3.17c-.86-3.5-6-3.11-8.58-2.11a.44.44,0,0,1-.45-.07Zm7.24,11.81a13.51,13.51,0,0,0,1.82-4.66c-1.27-1.07-.54-3.11-1.5-4.27-1.63.43-2.93,2-4.78,1.13-.32-.15-.59-.51-.91-.65-1.49-.66-1.31.9-1.43,1.5a5.31,5.31,0,0,1-1.06,2.22.44.44,0,0,1-.15.13,16.29,16.29,0,0,0,.56,3C8.13,25.53,12.15,27.32,14.37,23.91Z" transform="translate(0 0)"/>
  </g>
</svg>
