<svg id="레이어_1" data-name="레이어 1" xmlns="http://www.w3.org/2000/svg" viewBox="0 0 30.57 39.78">
  <defs>
    <style>
      .cls-1 {
        fill: #1e1e29;
      }

      .cls-2 {
        fill: #379bdb;
      }

      .cls-3 {
        fill: #121219;
      }

      .cls-4 {
        fill: #3a3a4a;
      }

      .cls-17, .cls-5 {
        opacity: 0.3;
      }

      .cls-6 {
        fill: #db5f07;
      }

      .cls-7 {
        fill: #fbb37b;
      }

      .cls-8 {
        fill: #d14f2e;
      }

      .cls-12, .cls-8 {
        opacity: 0.4;
      }

      .cls-9 {
        fill: #ea750c;
      }

      .cls-10 {
        fill: #f89e66;
      }

      .cls-11 {
        fill: #472117;
      }

      .cls-12, .cls-17 {
        fill: #bc551e;
      }

      .cls-13 {
        fill: #96342f;
      }

      .cls-14 {
        fill: #fff5e6;
      }

      .cls-15 {
        fill: #efdbbd;
      }

      .cls-16 {
        fill: #af968e;
      }

      .cls-18 {
        fill: #bc4411;
      }

      .cls-19 {
        fill: #d65b14;
      }

      .cls-20 {
        fill: #ffc08d;
      }

      .cls-21 {
        fill: #ea771a;
      }
    </style>
  </defs>
  <title>1</title>
  <g>
    <path class="cls-1" d="M14,30.84s-2,1.17-2.92,1.69c-1.47.8-2.18,1.18-2.18,2.81a35,35,0,0,1-.29,4.44h5.28c.41-2.17.66-4,.66-4Z" transform="translate(-3.95)"/>
    <path class="cls-1" d="M30.8,32.53c-.94-.52-2.91-1.69-2.91-1.69l-.56,5s.25,1.8.67,4h5.27A35.07,35.07,0,0,1,33,35.34C33,33.71,32.28,33.33,30.8,32.53Z" transform="translate(-3.95)"/>
    <g>
      <path class="cls-1" d="M30,32.25c-3.29-2.34-14.71-1.83-18.07.08-1.31.75,0,3.27.91,7.45h16.1C29.65,36.58,31.1,33.05,30,32.25Z" transform="translate(-3.95)"/>
      <path class="cls-2" d="M25.59,30.65c-1-1.79-8.78-1.72-9.49.17-.94,2.47,2.58,8.18,5.33,9h1.16C25.08,38.9,26.55,32.32,25.59,30.65Z" transform="translate(-3.95)"/>
      <path class="cls-3" d="M29,37.06c.06-.35-2.55-1.62-2.46-1.83s3.83-2,4.13-2.39-3.42-3.56-4.91-3.14c-.39.1,1,4.77-4.12,8.34a11,11,0,0,0-.31,1.74h3.4A27.63,27.63,0,0,1,29,37.06Z" transform="translate(-3.95)"/>
      <path class="cls-4" d="M28.9,36.16c.06-.35-2.34-1-2.24-1.18s3.72-2.8,4-3.17-3.44-2.92-5-2.5c-.4.11,1,5-4.22,8.55a9,9,0,0,0-.32,1.92h3.06A32.28,32.28,0,0,1,28.9,36.16Z" transform="translate(-3.95)"/>
      <path class="cls-3" d="M16.57,29.84c-1.76-.23-5,2.64-4.64,3.09s3.83,2.28,3.92,2.49-2.18,1.45-2.12,1.8a37.05,37.05,0,0,1,4.61,2.56h4.12c-.09-.41-.18-.83-.29-1.27C16,35.46,16.94,29.88,16.57,29.84Z" transform="translate(-3.95)"/>
      <path class="cls-4" d="M16.77,29.44c-1.76-.23-4.91,2-4.58,2.43s3.57,2.95,3.66,3.15-2.12.84-2.06,1.19a53.09,53.09,0,0,1,5,3.29l.31.28h3.8c-.08-.48-.19-1-.31-1.5C16.31,35.29,17.14,29.48,16.77,29.44Z" transform="translate(-3.95)"/>
      <path class="cls-5" d="M21.37,37.59a8.16,8.16,0,0,1,1.31.9A8.74,8.74,0,0,1,23,39.78h.14a3.92,3.92,0,0,0-.26-1.4A6.41,6.41,0,0,0,21.37,37.59Z" transform="translate(-3.95)"/>
    </g>
    <g>
      <path class="cls-6" d="M30.07,2.13a6.59,6.59,0,0,0-3.35-1.06c-.94,0-3,.35-3.56,1.18.3-.43,1-1.41.54-2s-2.23.4-2.28,1.13c-.28-.51-1-1.88-1.79-1.26-.59.46.17,1.57.37,2.07a8.78,8.78,0,0,0-2.12-.53C14,1.17,9.82,1.9,7.52,5.35c-1.35,2-.4,4.25-.25,6.5.11,1.67-.54,3.05-2.47,2.08A2.32,2.32,0,0,0,5.71,16c-.4,0-1.2.09-1.76.08C5.78,22,14.46,19.28,18.39,18.2A14.31,14.31,0,0,1,26.28,18,25.83,25.83,0,0,0,29,19.09,4,4,0,0,0,31,18.71c1.37-.37,2-.39,2-2.08,0-1.41.83-2.73,1.19-4.06a9.06,9.06,0,0,0,0-4.33A10.07,10.07,0,0,0,30.07,2.13Z" transform="translate(-3.95)"/>
      <path class="cls-7" d="M19.84,3.93c-6.13.53-12,7.31-9.92,14.54,1.07,3.73,1,4.65,2.61,8.38S18,32.94,23.19,32.63C28,32.35,29.67,30,30.89,26a24.38,24.38,0,0,0,1.22-9.44C31.46,9,26,3.39,19.84,3.93Z" transform="translate(-3.95)"/>
      <path class="cls-8" d="M14.83,17.91c0,.43,1,.2,1.3.27-.25.27-1,.28-1.32.47s-.29.33.11.31a7.08,7.08,0,0,0,1.72-.49C17.35,17.84,15.16,17.81,14.83,17.91Z" transform="translate(-3.95)"/>
      <path class="cls-8" d="M30.33,17.76c.25,0,1,.24,1.13-.17-.26-.12-2.09-.24-1.6.42a5.07,5.07,0,0,0,1.36.6c.32,0,.38-.08.13-.3S30.49,18,30.33,17.76Z" transform="translate(-3.95)"/>
      <path class="cls-9" d="M26.43,14.12c.37,1,1.68.54,2.45.44a10.6,10.6,0,0,0,2.31-.07.55.55,0,0,0,.19-.14C32.84,12.57,25.67,12,26.43,14.12Z" transform="translate(-3.95)"/>
      <path class="cls-9" d="M14.6,15a.67.67,0,0,0,.24.12A11.6,11.6,0,0,0,17.37,15c.86,0,2.38.41,2.61-.69C20.44,12.08,12.68,13.33,14.6,15Z" transform="translate(-3.95)"/>
      <path class="cls-10" d="M29.39,18.59c-.77-.08-1.85.11-1.34,1.34.28.66,3.29,1.43,3.15,0a1,1,0,0,0-.11-.4A2,2,0,0,0,29.39,18.59Z" transform="translate(-3.95)"/>
      <path class="cls-10" d="M17.27,19.32a2.28,2.28,0,0,0-2,0c-.78.28-1.71,1-.62,1.84.58.47,3.81-.23,3-1.5A1.32,1.32,0,0,0,17.27,19.32Z" transform="translate(-3.95)"/>
      <path class="cls-11" d="M17.72,16.16c-1.31-.72-2.39,1.65-1.53,2.53a1.91,1.91,0,0,1,1.34.24A1.69,1.69,0,0,0,17.72,16.16Z" transform="translate(-3.95)"/>
      <g>
        <path class="cls-12" d="M28,21.17c-.23.07.19.16.75.33a.32.32,0,0,1,.21.18c-3,.83-8.28,1.56-12.1.17a.44.44,0,0,1,.11-.09c.54-.41,1.3-.42,1.09-.56a3.61,3.61,0,0,0-1.79.32c-.46.35-.49,1.49-.13,1.55s.32-.57.58-1c.22,1.25,1.41,6.5,5.76,6.62,3.28.1,4.33-1.62,4.52-3.67a6.35,6.35,0,0,1,2-3.19c.05.35-.17.85.09.89s.73-.66.51-1.27S28,21.17,28,21.17Z" transform="translate(-3.95)"/>
        <path class="cls-13" d="M17.56,22.7s1.26,5.09,5.15,5c3.51-.12,4-1.84,4.16-3.06a3.34,3.34,0,0,1,1.22-2.25A11.65,11.65,0,0,1,17.56,22.7Z" transform="translate(-3.95)"/>
        <path class="cls-14" d="M18.82,23.24A2.78,2.78,0,0,0,20,25.52a6.18,6.18,0,0,0,5,.32C26.2,25.43,27,23,27,23A13.58,13.58,0,0,1,18.82,23.24Z" transform="translate(-3.95)"/>
        <path class="cls-14" d="M23.63,25.84a8.63,8.63,0,0,1-3.85-.69c-.64-.35-.66.12-.55.54,0,0,.16,1.7,3.18,2,2.64.29,3.86-1.85,3.58-2.29S25.29,25.82,23.63,25.84Z" transform="translate(-3.95)"/>
        <path class="cls-15" d="M18.82,23.21a3.31,3.31,0,0,0,.27,1.3s6-.92,7.34-.26A8.87,8.87,0,0,0,27,23,14.89,14.89,0,0,1,18.82,23.21Z" transform="translate(-3.95)"/>
        <path class="cls-15" d="M20.12,25.16a6,6,0,0,0,5.5.16A9,9,0,0,1,20.12,25.16Z" transform="translate(-3.95)"/>
      </g>
      <path class="cls-11" d="M28.74,18.27a1.85,1.85,0,0,1,1.3-.16,1.7,1.7,0,0,0,.15-2.42C28.87,14.65,27.19,17.6,28.74,18.27Z" transform="translate(-3.95)"/>
      <path class="cls-16" d="M17.3,16.47c-.58.14-.25,1.26.33.92C18,17.14,17.8,16.35,17.3,16.47Z" transform="translate(-3.95)"/>
      <path class="cls-16" d="M29.68,15.88c-.58,0-.45,1.2.17.95C30.29,16.66,30.19,15.84,29.68,15.88Z" transform="translate(-3.95)"/>
      <path class="cls-7" d="M8.12,17.11c-3,.82-1.84,4.64.62,5.33a6.75,6.75,0,0,0,2.45.15l0-.06C11.6,22,11,19.47,10.79,19,10.33,17.63,9.57,16.71,8.12,17.11Z" transform="translate(-3.95)"/>
      <path class="cls-17" d="M27.52,7.46a27.16,27.16,0,0,0-8.86.17c-2,.38-4.11,1.14-5.31,2.89s-2.88,3.35-2.56,5.55c.06.48.65,2.83,1.56,2.11.41-.33,0-2,.31-3.64a3.23,3.23,0,0,0,1.42,2c.12.08,2.72-3.68,3.37-4a3.28,3.28,0,0,0,1.45,3.17,6,6,0,0,1,2-2.39c.2.17,1.25,2.63,1.27,2.6.45-.49.71-1.14,1.15-1.65a9,9,0,0,1,4.36-2.92c1-.28,2.67-.58,3.17-1.67C31.67,7.82,28.56,7.6,27.52,7.46Z" transform="translate(-3.95)"/>
      <path class="cls-8" d="M9.75,18.51c-.78-.36-2.88-.07-2.07,1.21.64-1,1.45-.24,1.22.52-.16.51-.92.44-.25,1.18a1.76,1.76,0,0,0,1.65.2C11.69,21.14,10.7,19,9.75,18.51Z" transform="translate(-3.95)"/>
      <path class="cls-18" d="M30.16,20.36c-1.56-1.25-4-.24-5.69.05-1.86.32-3.78-.13-5.64-.23s-4.75.55-4.91,2.85c-.22,3,2.38.33,3-.68,0,.51,1.05.35,1.76,0-.75.88,1.26.66,1.66.26-.38.74,1.09.54,1.81.09-.51.6.51,1.11.87.09-.24.69,1,.79,1,0,1,.75,1.65.26,1.19-.36,1,.82,1.85.24,1.6-.21.56.29,1.63.64,1.68-.35.4.84,1,1.86,1.42,2C30.65,24.12,32.67,22.38,30.16,20.36Z" transform="translate(-3.95)"/>
      <path class="cls-18" d="M32.13,16.69c-.2,1-.17,4-1,4.79-.64.55-1.67-.48-2.51-.09-.54.25,2,8.06-1.74,8.16-1.35,0-1.43-1.36-3.85-1-1.24.21-2.56,2.11-4.18,1.37-3.1-1.41-2.89-5.9-2.17-7.5.56-1.26-2.44.08-3.43-1.19-.62-.81-.44-2.1-1-2.89-.71-1-1.62-.48-1.67.63a14.09,14.09,0,0,1-.12,3.05c-.71,2.69-.17,3.75.32,2.76-.05.39-.31,2.71.57,1.74-.38.64-.09,3,.84,2.32-.11.62.3,2.47,1,2.37.12.61,1.14,2.46,1.74,1.36-.09.17.73,1.22.87,1.39.35.42.9,1,1.49.94.32,0,.44-.29.76-.24s.76.6,1.09.76.72.3,1-.05a1.32,1.32,0,0,0,2.15.21,1.18,1.18,0,0,0,2-.1c.65,1,1.54-.27,1.87-.86-.33.6,1.33,1.21,1.85-1.67.06.73.69.57,1,.15a2.8,2.8,0,0,0,.43-1.45c1,.73,1.29-1.31,1.2-1.89,1,.25.73-1.92.6-2.39,1.22.57.66-1.82.5-2.26.52,1.36,1.2-.45.38-2.39C33.35,23.74,32.6,17.66,32.13,16.69Z" transform="translate(-3.95)"/>
      <path class="cls-19" d="M13.41,22.56a5.88,5.88,0,0,1-1.16-2.17c-.05.67-.9.17-1.09-.14a3.36,3.36,0,0,0,0,1.14s.5.86.52.62c0,.44-.73,3.53.46,2.75-.17.52,0,3.32.79,2,0,.5-.06,2.57.82,2.4s1-4.76.7-5.41C14.24,23.27,13.72,23,13.41,22.56Z" transform="translate(-3.95)"/>
      <path class="cls-6" d="M29.58,6a15,15,0,0,0-5.79-2.14,29.13,29.13,0,0,0-3.37-.51,12.74,12.74,0,0,0-5.59,1.4C12.24,6,10.5,8.91,9.67,11.56a10.46,10.46,0,0,0-.46,4.9c.19,1.05,1.08,3.28,2.63,3.59.34.07.82-.13.72-1.35-.15-1.79-.86-4.26.51-5.93a2.69,2.69,0,0,0,.81,2.59c.77-1.49,2.28-3.24,4-3.59a5.09,5.09,0,0,0,.92,3,3.61,3.61,0,0,1,1.93-2.39,7.56,7.56,0,0,0,1.39,2.47c1.13-1.25,2-2.83,3.39-3.78s3.5-.76,5-1.78S30.63,6.6,29.58,6Z" transform="translate(-3.95)"/>
      <path class="cls-20" d="M23.22,15.56c-1.69.11-2.2,4.34-1.28,4.89a4,4,0,0,0,3.73-.22C26.12,19.83,25.23,15.43,23.22,15.56Z" transform="translate(-3.95)"/>
      <path class="cls-19" d="M25,29.52c-1.54-.74-3.06.14-4.31,1.3-1.07,1-1.4,3.1,0,4.12.43.32,1,.4.95-.8.54,1,1.91,1.84,2.1.48.88.75,1.6.25,1.93-.75.91,1.3,2-.77,2-1.64C27.6,30.76,26.13,30.07,25,29.52Z" transform="translate(-3.95)"/>
      <path class="cls-19" d="M27.54,20.13c-1.27.12-1.86.85-2.92,1.32a3.16,3.16,0,0,1-3-.44c-3.19-1.75-8.76.3-7.37,4.68.19.58.32,1.24,1,1.41.79-1.85-.2-4.71,2-5.69-1,1.55,1.74.07,2.15-.09-1.18,1.79.93,1,1.78.42a1.42,1.42,0,0,0-.37.92c.61.24,1.12-.28,1.52-.7-.26.85.64,1,1.1.45.25.44.49.36.67-.11.25.23.46.15.74.27,0-.17.11-.35.05-.56.55.34,1.81.58,1.37-.52.45.78,2.22.79,1.81-.39a4.27,4.27,0,0,1,1.37,3.26c.06.75-.33,4.24,1.16,3A2.57,2.57,0,0,0,31,24.8c1.46,1.05-.16-2.38-.37-2.73C29.9,20.81,29.06,20,27.54,20.13Z" transform="translate(-3.95)"/>
      <path class="cls-19" d="M17.35,30.12c-.47-.39-1.07-2.15-1.8-2s-.42,1.81-.4,2.33.63,2.62,1.08,1.3a2.19,2.19,0,0,0,.74,2c.56.34,1.27-.36,1.06-.49.43.26.8.87,1.26,1,1.43.54,1.55-2.66,1.58-3.61a8.53,8.53,0,0,1-1.09.33A3,3,0,0,1,17.35,30.12Z" transform="translate(-3.95)"/>
      <path class="cls-19" d="M28.83,31h0Z" transform="translate(-3.95)"/>
      <path class="cls-19" d="M29.31,28.49c-.41-.06-.45.63-.62.91a2.11,2.11,0,0,1-1.34,1c-.28.06-1-.13-1.19,0-.54.34-.22,1.32.15,1.69,1.14,1.15,2.48.51,2.52-1.11v0h0c.42.73.89,0,1-.49C29.94,30.11,29.86,28.56,29.31,28.49Z" transform="translate(-3.95)"/>
      <path class="cls-21" d="M20.81,2.83a11.91,11.91,0,0,0-8-.15C10.49,3.41,8,5,8,7.75a7.66,7.66,0,0,0,.53,3.57c.31.68,1.69,2.32,1.26,3a3.69,3.69,0,0,0,2.3-2c-.08.44-.19.88-.26,1.32A20.66,20.66,0,0,1,14,11.41c.27,1.17-1.05,2,0,3.05-.15-.16.69-1.44,2-2.29.65-.43,1.67-1.28,2.49-1.2a5.83,5.83,0,0,0,.27,2.26c.74-.54,1.4-1.34,2.2-1.88a11.19,11.19,0,0,1,.5,1.27,10.8,10.8,0,0,1,.65,1.5l.54-.34c2.23-1.31,2.6-4.4,2-6.69A6.15,6.15,0,0,0,20.81,2.83Z" transform="translate(-3.95)"/>
      <path class="cls-21" d="M23.76,2.63c-.14.05-.87.57-1,.46A8,8,0,0,1,25.2,6.52a7.1,7.1,0,0,1,.35,2.09c0,.25-.25.92-.06,1.13s2.25-.21,2.63-.31a4.86,4.86,0,0,0,1.78-.84c.4-.31.62-.77,1.15-.7,1.76.23.38,4,1.8,4.75a4.32,4.32,0,0,1,.3-1.63c.84-2.35-.21-4.13-1.62-5.9A7.26,7.26,0,0,0,23.76,2.63Z" transform="translate(-3.95)"/>
    </g>
  </g>
</svg>
