<svg xmlns="http://www.w3.org/2000/svg" xmlns:xlink="http://www.w3.org/1999/xlink" viewBox="0 0 40 40">
  <defs>
    <style>
      .cls-1 {
        isolation: isolate;
      }

      .cls-2 {
        fill: url(#linear-gradient);
      }

      .cls-3, .cls-4 {
        opacity: 0.25;
      }

      .cls-10, .cls-11, .cls-3, .cls-5 {
        mix-blend-mode: multiply;
      }

      .cls-3 {
        fill: url(#radial-gradient);
      }

      .cls-4, .cls-8 {
        fill: #fff;
      }

      .cls-11, .cls-5 {
        opacity: 0.35;
      }

      .cls-5 {
        fill: url(#linear-gradient-2);
      }

      .cls-6 {
        fill: #5d4037;
      }

      .cls-7 {
        fill: #4e342e;
      }

      .cls-9 {
        fill: #f5f5f5;
      }

      .cls-10 {
        fill: #cfd8dc;
      }

      .cls-12 {
        fill: url(#linear-gradient-3);
      }

      .cls-13 {
        fill: url(#linear-gradient-4);
      }
    </style>
    <linearGradient id="linear-gradient" x1="20" y1="-0.67" x2="20" y2="40.75" gradientUnits="userSpaceOnUse">
      <stop offset="0" stop-color="#ffe082"/>
      <stop offset="1" stop-color="#ffbf66"/>
    </linearGradient>
    <radialGradient id="radial-gradient" cx="20" cy="20" r="20" gradientUnits="userSpaceOnUse">
      <stop offset="0.8" stop-color="#fff"/>
      <stop offset="1" stop-color="#ffbf66"/>
    </radialGradient>
    <linearGradient id="linear-gradient-2" x1="20" y1="17.63" x2="20" y2="40.41" xlink:href="#linear-gradient"/>
    <linearGradient id="linear-gradient-3" x1="8.53" y1="9.28" x2="17.28" y2="9.28" xlink:href="#linear-gradient"/>
    <linearGradient id="linear-gradient-4" x1="1898.56" y1="9.28" x2="1907.32" y2="9.28" gradientTransform="matrix(-1, 0, 0, 1, 1930.04, 0)" xlink:href="#linear-gradient"/>
  </defs>
  <title>1</title>
  <g class="cls-1">
    <g id="레이어_1" data-name="레이어 1">
      <g>
        <g>
          <circle class="cls-2" cx="20" cy="20" r="20"/>
          <circle class="cls-3" cx="20" cy="20" r="20"/>
          <path class="cls-4" d="M36.5,15.12c0,7.43-7.39,0-16.5,0s-16.5,7.43-16.5,0S10.89,1.67,20,1.67,36.5,7.69,36.5,15.12Z"/>
          <path class="cls-5" d="M20,36A20,20,0,0,1,.1,18,18.86,18.86,0,0,0,0,20a20,20,0,0,0,40,0,18.86,18.86,0,0,0-.1-2A20,20,0,0,1,20,36Z"/>
        </g>
        <path class="cls-4" d="M28,32.24a2.37,2.37,0,0,1-1-.19,7.65,7.65,0,0,1-2.22-1.75l-.49-.48a11.48,11.48,0,0,0-3-2.29,3.07,3.07,0,0,0-1.23-.27c-1.66,0-3.17,1.47-4.5,2.77l-.11.11-.33.33a5.37,5.37,0,0,1-2.46,1.7,2.48,2.48,0,0,1-.61.07,3.65,3.65,0,0,1-3.27-2.46,3.74,3.74,0,0,1-.19-1.29,2.23,2.23,0,0,1,.13-.93l.1-.4a1.22,1.22,0,0,1,.2-.45c1.09-2.23,3.7-2.26,5.32-2.28l5.49-.06h.63l2.26,0,1.55,0h1.43a6.48,6.48,0,0,1,4.35,1.17,4,4,0,0,1,.94,4.76A3.75,3.75,0,0,1,28,32.24Z"/>
        <path class="cls-6" d="M9.44,27.72c.63-2.41,2.88-2.6,5-2.62L19.91,25c1.41,0,2.82,0,4.22,0,1.82,0,4.08-.26,5.57,1A3.28,3.28,0,0,1,30.48,30c-.53,1-2,1.93-3.13,1.43a9.93,9.93,0,0,1-2.52-2.1,11.76,11.76,0,0,0-3.19-2.42c-2.65-1.17-4.83,1-6.58,2.75a6.07,6.07,0,0,1-2.47,1.85,2.89,2.89,0,0,1-3.1-1.95,3.24,3.24,0,0,1-.05-1.85Z"/>
        <path class="cls-7" d="M9.44,27.72l.08-.31Zm0,1.51,0-.17,0,.15Zm0-1.51L9.36,28Zm.14-.54s0,0,0,0Zm-.06.23,0-.12Zm0-.12,0-.11Zm-.2.74,0,.13Zm-.06.24Zm0-.11,0,.11ZM29.7,26.08c-1.49-1.26-3.75-1-5.57-1-1.4,0-2.81-.06-4.22,0l-5.48.07c-2.11,0-4.36.21-5,2.62a3.41,3.41,0,0,0,0,1.49l0-.15.08-.31,0-.13,0,.13-.08.31c.63-2.42,2.88-2.61,5-2.63l5.48-.06c1.41,0,2.82,0,4.22,0,1.82,0,4.08-.26,5.57,1a3.22,3.22,0,0,1,1.05,1.8A3.3,3.3,0,0,0,29.7,26.08ZM9.58,28.51Z"/>
        <g>
          <path class="cls-4" d="M13,20.83c-2.94,0-5.34-1.08-5.34-4a5.34,5.34,0,1,1,10.68,0C18.37,19.75,16,20.83,13,20.83Z"/>
          <path class="cls-6" d="M17.7,16.79c0,2.55-2.11,3.37-4.67,3.37s-4.67-.82-4.67-3.37A4.74,4.74,0,0,1,13,12.08,4.74,4.74,0,0,1,17.7,16.79Z"/>
          <path class="cls-7" d="M13,13.41a4.68,4.68,0,0,1,4.62,4,4.77,4.77,0,0,0,.05-.66,4.67,4.67,0,1,0-9.34,0,4.77,4.77,0,0,0,.05.66A4.68,4.68,0,0,1,13,13.41Z"/>
          <path class="cls-8" d="M17,16.79c0,2.22-1.79,2.69-4,2.69S9,19,9,16.79a4,4,0,1,1,8,0Z"/>
          <path class="cls-9" d="M13,18.82c-1.84,0-3.33-.18-3.33-2a3.33,3.33,0,1,1,6.66,0C16.36,18.64,14.87,18.82,13,18.82Z"/>
          <path class="cls-8" d="M16.79,16.21c0,1.69-1.69,0-3.76,0s-3.75,1.69-3.75,0A3.66,3.66,0,0,1,13,12.89,3.67,3.67,0,0,1,16.79,16.21Z"/>
          <path class="cls-6" d="M16,15.45a1.6,1.6,0,0,1-3.19,0A1.6,1.6,0,0,1,16,15.45Z"/>
          <path class="cls-10" d="M13,13.42a4,4,0,0,1,4,3.7c0-.11,0-.22,0-.33a4,4,0,1,0-8,0c0,.11,0,.22,0,.33A4,4,0,0,1,13,13.42Z"/>
        </g>
        <g>
          <path class="cls-4" d="M27,20.83c-2.94,0-5.34-1.08-5.34-4a5.34,5.34,0,1,1,10.68,0C32.38,19.75,30,20.83,27,20.83Z"/>
          <path class="cls-6" d="M31.72,16.79c0,2.55-2.12,3.37-4.68,3.37s-4.67-.82-4.67-3.37a4.68,4.68,0,1,1,9.35,0Z"/>
          <path class="cls-7" d="M27,13.41a4.68,4.68,0,0,1,4.62,4,3.6,3.6,0,0,0,.06-.66,4.68,4.68,0,1,0-9.35,0,4.77,4.77,0,0,0,.05.66A4.69,4.69,0,0,1,27,13.41Z"/>
          <path class="cls-8" d="M31,16.79c0,2.22-1.79,2.69-4,2.69s-4-.47-4-2.69a4,4,0,1,1,8,0Z"/>
          <path class="cls-9" d="M27,18.82c-1.83,0-3.33-.18-3.33-2a3.34,3.34,0,1,1,6.67,0C30.38,18.64,28.88,18.82,27,18.82Z"/>
          <path class="cls-8" d="M30.8,16.21c0,1.69-1.68,0-3.76,0s-3.75,1.69-3.75,0a3.78,3.78,0,0,1,7.51,0Z"/>
          <path class="cls-6" d="M30,15.45a1.6,1.6,0,0,1-3.19,0A1.6,1.6,0,0,1,30,15.45Z"/>
          <path class="cls-10" d="M27,13.42a4,4,0,0,1,4,3.7c0-.11,0-.22,0-.33a4,4,0,1,0-8,0c0,.11,0,.22,0,.33A4,4,0,0,1,27,13.42Z"/>
        </g>
        <g class="cls-11">
          <path class="cls-12" d="M8.53,11.41c4,0,4.19-1.21,6.15-1.61.76-.16,1.9,0,2.4-.78.6-.94-.21-2.26-1.73-1.76C12.76,8.12,12.15,10.27,8.53,11.41Z"/>
        </g>
        <path class="cls-6" d="M8.53,10.75c4,0,4.19-1.21,6.15-1.62.76-.16,1.9,0,2.4-.78S16.87,6.1,15.35,6.6C12.76,7.45,12.15,9.6,8.53,10.75Z"/>
        <g class="cls-11">
          <path class="cls-13" d="M31.47,11.41c-4,0-4.19-1.21-6.15-1.61-.76-.16-1.9,0-2.4-.78-.6-.94.21-2.26,1.73-1.76C27.24,8.12,27.85,10.27,31.47,11.41Z"/>
        </g>
        <path class="cls-6" d="M31.47,10.75c-4,0-4.19-1.21-6.15-1.62-.76-.16-1.9,0-2.4-.78s.21-2.25,1.73-1.75C27.24,7.45,27.85,9.6,31.47,10.75Z"/>
      </g>
    </g>
  </g>
</svg>
