<svg xmlns="http://www.w3.org/2000/svg" xmlns:xlink="http://www.w3.org/1999/xlink" viewBox="0 0 32.53 40.06">
  <defs>
    <style>
      .cls-1 {
        isolation: isolate;
      }

      .cls-2 {
        fill: #381d18;
      }

      .cls-3 {
        fill: #1e1e29;
      }

      .cls-4 {
        fill: #f5f5f5;
      }

      .cls-5 {
        fill: #313142;
      }

      .cls-6 {
        fill: url(#linear-gradient);
      }

      .cls-7 {
        fill: #fff9f0;
      }

      .cls-8 {
        fill: #a09d98;
        opacity: 0.2;
        mix-blend-mode: multiply;
      }

      .cls-9 {
        fill: #ffc38f;
      }

      .cls-10 {
        fill: #bc551e;
        opacity: 0.3;
      }

      .cls-11 {
        fill: #d14f2e;
        opacity: 0.4;
      }

      .cls-12 {
        fill: #593a2f;
      }

      .cls-13 {
        fill: #ff7752;
      }

      .cls-14 {
        fill: #261b18;
      }

      .cls-15 {
        fill: #f04d4d;
      }

      .cls-15, .cls-18 {
        opacity: 0.7;
      }

      .cls-16 {
        fill: #8f3935;
      }

      .cls-17 {
        fill: #e8dac5;
      }

      .cls-18 {
        fill: #f0ded1;
      }

      .cls-19 {
        fill: #121b21;
      }
    </style>
    <linearGradient id="linear-gradient" x1="21.29" y1="29.33" x2="21.29" y2="32.53" gradientUnits="userSpaceOnUse">
      <stop offset="0" stop-color="#ee996d"/>
      <stop offset="0.34" stop-color="#f7ad7c"/>
      <stop offset="0.69" stop-color="#fdbb86"/>
      <stop offset="1" stop-color="#ffc08a"/>
    </linearGradient>
  </defs>
  <title>1</title>
  <g class="cls-1">
    <g id="레이어_1" data-name="레이어 1">
      <g>
        <path class="cls-2" d="M34.69,21.4c2.12-1,1.22-5.53-1.17-4.06,1.63-.06,0,2.54-.86.58-.57-1.24.75-1.84,1.35-2.66a4.78,4.78,0,0,0,.84-3.44c-.29-3.35-3.36-5.47-5.13-8.06C27.79,1,25.06-.86,21.55.41A5.75,5.75,0,0,0,19.36,2,3.37,3.37,0,0,0,18.27.5c-.06.5-.08,1-.1,1.52-1.91-1.18-4.89-.7-6.55.38-2.26,1.47-2,3.73-2.95,5.93-.83,2-3.47,4.37-3.3,6.71.1,1.46,1.14,2.22,1.07,3.72C6.38,20,5,20.7,5.64,21.93s3.18.82,1.88,2.93c-1.19,1.93-3.53-.35-2.07-.67-1.61-.79-2.29,1.32-2.05,2.57.33,1.75,2.77,1.79,4.08,1.43C4.07,34.47,13.79,36,18.6,31.86c2.06-1.78,3.71,2.92,6.2,3.14,3.36.3,5.14-2.12,4.45-4.29.58,1.81,2.58,1.92,4.09,1.27a3.9,3.9,0,0,0,2.26-3.83,2.45,2.45,0,0,1-2.76.56A1.88,1.88,0,0,1,32,25.8c.93-1.33,3.58-3,1-4.44A1.86,1.86,0,0,0,34.69,21.4Z" transform="translate(-3.36 0)"/>
        <path class="cls-3" d="M17.82,33.79l-1-2c-1.34.68-1.55,2.38-1.79,4.35a13.09,13.09,0,0,1-.88,3.9h2.37a18.7,18.7,0,0,0,.71-3.63A7.31,7.31,0,0,1,17.82,33.79Z" transform="translate(-3.36 0)"/>
        <path class="cls-3" d="M26,31.81l-1,2a7.31,7.31,0,0,1,.59,2.64,18.7,18.7,0,0,0,.71,3.63h2.37a13.09,13.09,0,0,1-.88-3.9C27.57,34.19,27.36,32.49,26,31.81Z" transform="translate(-3.36 0)"/>
        <g>
          <path class="cls-4" d="M25.4,32.27c-1.17-2.92-5.88-2.36-7.52-.94s-1.29,4,.58,5.82A20.73,20.73,0,0,1,21,40.06h1.31C23.57,38.17,26.13,34.1,25.4,32.27Z" transform="translate(-3.36 0)"/>
          <path class="cls-3" d="M25.82,36.51a3.86,3.86,0,0,0,.32-3.06c-.42-2.1-.93-1-1.12-.37a19.87,19.87,0,0,1-3.36,5.86s-3.29-3.3-4.11-5.85c-.19-.61,0-1.51-.53-.37-.89,2-.17,2.82.25,4.42a8.35,8.35,0,0,1,.18,2.92h7.77A7,7,0,0,1,25.82,36.51Z" transform="translate(-3.36 0)"/>
          <path class="cls-5" d="M24.47,30.87a1.16,1.16,0,0,0-.28-.06,1.81,1.81,0,0,1,.49,1.53,18.6,18.6,0,0,1-3,6.6s3.47-2.74,5.12-4.3c.32-.3-.28-.66-.59-.89a3.68,3.68,0,0,0-.71-.37c.11-.27,1.29-.82,1.62-1.22S25.29,31.08,24.47,30.87Z" transform="translate(-3.36 0)"/>
          <path class="cls-5" d="M18.36,31c-.13,0-3.3.68-2.8,1.28.33.39,1.51,1,1.62,1.21a3.72,3.72,0,0,0-.71.38c-.31.23-.91.59-.59.89a53.1,53.1,0,0,0,5.78,4.21,24.26,24.26,0,0,1-3-4.72C18.21,33.24,17.51,32,18.36,31Z" transform="translate(-3.36 0)"/>
          <path class="cls-6" d="M23.82,30.78c-1.26-.69.1-3.87-.91-4.66a3.09,3.09,0,0,0-2.89-.3c-1.73.69,0,4.55-1.68,5.25-.33.14-.41.52.24,1.54a25.07,25.07,0,0,0,2.87,3.74,18.08,18.08,0,0,0,2.83-4C24.72,31.21,24.45,31.13,23.82,30.78Z" transform="translate(-3.36 0)"/>
          <g>
            <path class="cls-7" d="M24.17,30.72a.29.29,0,0,0-.31.28.3.3,0,0,0,.3.31.32.32,0,0,0,.32-.29A.3.3,0,0,0,24.17,30.72Z" transform="translate(-3.36 0)"/>
            <path class="cls-7" d="M18.34,30.87a.29.29,0,0,0-.31.29.29.29,0,0,0,.3.3.3.3,0,0,0,.31-.29A.29.29,0,0,0,18.34,30.87Z" transform="translate(-3.36 0)"/>
            <path class="cls-7" d="M18.89,31.53a.36.36,0,0,0-.35.38.37.37,0,0,0,.39.34.36.36,0,0,0,0-.72Z" transform="translate(-3.36 0)"/>
            <path class="cls-7" d="M19.74,32.07a.35.35,0,0,0-.34.38.36.36,0,0,0,.38.34.35.35,0,0,0,.34-.38A.36.36,0,0,0,19.74,32.07Z" transform="translate(-3.36 0)"/>
            <path class="cls-7" d="M20.84,32.42a.36.36,0,0,0-.35.38.37.37,0,0,0,.73,0A.36.36,0,0,0,20.84,32.42Z" transform="translate(-3.36 0)"/>
            <path class="cls-7" d="M21.93,32.45a.36.36,0,1,0,0,.72.36.36,0,1,0,0-.72Z" transform="translate(-3.36 0)"/>
            <path class="cls-7" d="M23.88,31.38a.37.37,0,0,0-.35.38.37.37,0,0,0,.39.34.36.36,0,1,0,0-.72Z" transform="translate(-3.36 0)"/>
            <path class="cls-7" d="M23,32a.37.37,0,0,0-.35.38.37.37,0,0,0,.39.34A.36.36,0,1,0,23,32Z" transform="translate(-3.36 0)"/>
          </g>
          <path class="cls-8" d="M19.28,37.27a16.31,16.31,0,0,1,2.15-.45,13.39,13.39,0,0,1,2,.37,8.6,8.6,0,0,0-2-.67A13.12,13.12,0,0,0,19.28,37.27Z" transform="translate(-3.36 0)"/>
          <path class="cls-4" d="M22.13,36.66l2.49,1a33.13,33.13,0,0,0,.09-5.72Z" transform="translate(-3.36 0)"/>
          <path class="cls-4" d="M18.21,37.69l2.49-1L18,31.9A28.11,28.11,0,0,0,18.21,37.69Z" transform="translate(-3.36 0)"/>
        </g>
        <g>
          <path class="cls-9" d="M20.11,6.17c-5.34.69-9.57,5-8.87,12.43s5.69,11.92,11.07,11.87c4.13,0,9.11-6.81,8.83-14.49C30.88,8.62,25.44,5.49,20.11,6.17Z" transform="translate(-3.36 0)"/>
          <path class="cls-9" d="M8.92,15.54c-2.55.91-1.44,4.62.67,5.22a4.87,4.87,0,0,0,2.08.08l0-.07c.3-.51-.31-3-.48-3.5C10.81,16,10.14,15.11,8.92,15.54Z" transform="translate(-3.36 0)"/>
          <path class="cls-10" d="M26.38,5.8a26.62,26.62,0,0,0-8.72.45c-2,.44-4,1.25-5.14,3-.81,1.26-2.17,2.63-2.35,4.18s-2.26,1.73.27,4.11c1.24,1.17,0,1.72.4,3.15.27,1,.7,2,2.95,1.93-1.51-1.47-.32-2.58,0-4.22.15-.88-.64-2.29-.64-3.18,0-.21,0-.41,0-.61a13.48,13.48,0,0,1,.55-2.34c-.31,2.74,3.64,1.24,4.75.8a1.93,1.93,0,0,1,1.15-.21c-1.34,1.38.62,3.78,2.25,3.78,2.65,0,3.32-1.1,4.42-2.62a3.69,3.69,0,0,1,2.49-1.59c.69-.08,1.38.52,1.67-.3C30.85,10.93,27.74,5.94,26.38,5.8Z" transform="translate(-3.36 0)"/>
          <path class="cls-11" d="M10.51,16.93c-.67-.33-2.45,0-1.73,1.25.52-1,1.23-.28,1.05.47-.12.51-.76.47-.17,1.17.31.39,1,.31,1.4.15C12.23,19.45,11.33,17.33,10.51,16.93Z" transform="translate(-3.36 0)"/>
          <path class="cls-2" d="M22.84,2.34A27.28,27.28,0,0,0,19.6,2a11.89,11.89,0,0,0-5.31,1.56c-2.45,1.31-4,4.28-4.75,6.92a10.73,10.73,0,0,0-.3,4.84c.3,1.41,2.11,1.94,2.22,3.39,0,.65-.52,1.14-.51,1.76a2,2,0,0,0,.62,1.4,3.36,3.36,0,0,0,1.53.47c-1-1.12,0-1.76.06-2.85a8.69,8.69,0,0,0-.37-2.91,4.45,4.45,0,0,1,1.33-5.23c.16,2,2.19,1.92,3.65,1.63.65-.12,2.56-.9,2.89.1.21.62-.78,1.16-1,.44,0,1.06,0,1.93,1.3,2.2a3.88,3.88,0,0,0,4.43-1.91,3.39,3.39,0,0,1,1.28-1.32,4.7,4.7,0,0,1,2.13-.38C30.45,12,31,10.81,31,9.22,30.75,4.9,26.64,2.68,22.84,2.34Z" transform="translate(-3.36 0)"/>
          <path class="cls-12" d="M21.53,2a4.45,4.45,0,0,0-2.08,1.29A9,9,0,0,1,21,6a2.94,2.94,0,0,1-1.19,2.89c-1,.65-6.51,1.63-2.67,3,1.17.41,2.39-.36,3.55-.09.92.21,1.53,1.57.57,2.2A3.34,3.34,0,0,0,24,13.37a12.12,12.12,0,0,1,1.52-1,7.66,7.66,0,0,0,3.15-2.28c1.14-1.52,1.17-3.48-.47-5.8A6.92,6.92,0,0,0,21.53,2Z" transform="translate(-3.36 0)"/>
          <path class="cls-12" d="M15.51,3c-4.85.33-3.87,4.52-5.93,7.53-.7,1-1.38,1.91-.78,3.1a5.31,5.31,0,0,0,3.1,2.53,4.09,4.09,0,0,1-.33-2.57c.88-3.11,4.49-4.06,6.06-6.58C18.93,4.9,18,2.79,15.51,3Z" transform="translate(-3.36 0)"/>
        </g>
        <g>
          <path class="cls-13" d="M29.53,20.43a1.75,1.75,0,0,0-1.44-.68c-.64,0-1.52.15-1.05,1.14.25.53,2.76,1.07,2.59-.13A1.15,1.15,0,0,0,29.53,20.43Z" transform="translate(-3.36 0)"/>
          <path class="cls-13" d="M17.22,20.35a1.77,1.77,0,0,0-1.7-.46c-.71.1-1.65.52-1,1.57.36.56,3.22.59,2.83-.76A1.14,1.14,0,0,0,17.22,20.35Z" transform="translate(-3.36 0)"/>
          <path class="cls-14" d="M25.9,15.22c1.4.13,2.57-.28,4.67-.11C29.8,14.14,27,14.12,25.9,15.22Z" transform="translate(-3.36 0)"/>
          <path class="cls-11" d="M22.78,20.89c-.47,0-.66-.2-1,0s.4.84,1,.79,1.21-.61,1-.81S23.31,20.88,22.78,20.89Z" transform="translate(-3.36 0)"/>
          <path class="cls-14" d="M13.41,14.92c2.62.06,3.51.18,5.33.13C17.78,13.82,14.57,13.9,13.41,14.92Z" transform="translate(-3.36 0)"/>
          <g>
            <path class="cls-15" d="M22.41,22.54c-1.88,0-4.64.58-6.11-.3,2.41,4.16,3.92,4.94,5.85,5.09,2.41.19,3.26-1.49,3.64-2.76a7.18,7.18,0,0,1,1.88-2.2C26.16,22.72,24.68,22.5,22.41,22.54Z" transform="translate(-3.36 0)"/>
            <path class="cls-16" d="M17.43,23a5.63,5.63,0,0,0,4.45,2.9c1.92.07,3.2-.57,3.57-1.51A2.58,2.58,0,0,1,26.68,23,18.78,18.78,0,0,1,17.43,23Z" transform="translate(-3.36 0)"/>
            <path class="cls-7" d="M18.54,23.24a1.51,1.51,0,0,0,1.14,1.18,9.68,9.68,0,0,0,4.37.26c1-.15,1.55-1.46,1.55-1.46A20.19,20.19,0,0,1,18.54,23.24Z" transform="translate(-3.36 0)"/>
            <path class="cls-7" d="M22.66,24.77a5.75,5.75,0,0,1-3.2-.55c-.49-.33-.54,0-.43.24,0,0,.42,1.16,2.7,1.45s3.34-1.07,3.09-1.31S23.93,24.74,22.66,24.77Z" transform="translate(-3.36 0)"/>
            <path class="cls-17" d="M18.54,23.24a1.44,1.44,0,0,0,.26.6s5.15-.38,6.37.11a2.85,2.85,0,0,0,.43-.73A23.34,23.34,0,0,1,18.54,23.24Z" transform="translate(-3.36 0)"/>
            <path class="cls-17" d="M19.87,24.4a4.75,4.75,0,0,0,4,.23A7,7,0,0,1,19.87,24.4Z" transform="translate(-3.36 0)"/>
          </g>
          <path class="cls-14" d="M16.5,16.26c-1.39-.52-2.09,2-1.13,2.8a1.82,1.82,0,0,1,1.34,0A1.77,1.77,0,0,0,16.5,16.26Z" transform="translate(-3.36 0)"/>
          <path class="cls-18" d="M16.71,17.11c-.57.09-.36,1.27.24,1C17.38,17.86,17.22,17,16.71,17.11Z" transform="translate(-3.36 0)"/>
          <path class="cls-14" d="M28.67,16.29c-1.39-.89-2.61,2.37-1.07,2.84a1.65,1.65,0,0,1,1.22-.2C29.35,18.24,29.41,16.77,28.67,16.29Z" transform="translate(-3.36 0)"/>
          <path class="cls-18" d="M28.58,17c-.54,0-.46,1.24.13,1C29.13,17.83,29.07,17,28.58,17Z" transform="translate(-3.36 0)"/>
          <path class="cls-19" d="M28.71,16.22c-1.28-.49-1.7,1-1.7,1A1.18,1.18,0,0,1,28.5,17a2.61,2.61,0,0,0,3.23-.24C30.17,17.25,29.39,16.48,28.71,16.22Z" transform="translate(-3.36 0)"/>
          <path class="cls-19" d="M15.57,16.33a4.09,4.09,0,0,1-3.26.58A2.88,2.88,0,0,0,15.7,17a1.31,1.31,0,0,1,1.54.12S16.9,15.65,15.57,16.33Z" transform="translate(-3.36 0)"/>
        </g>
      </g>
    </g>
  </g>
</svg>
