<svg id="레이어_1" data-name="레이어 1" xmlns="http://www.w3.org/2000/svg" viewBox="0 0 30.09 40">
  <defs>
    <style>
      .cls-1 {
        fill: #e8e8e8;
      }

      .cls-2 {
        fill: #1e1e29;
      }

      .cls-3 {
        fill: #3a3a4a;
      }

      .cls-4 {
        fill: #381d18;
      }

      .cls-5 {
        fill: #fbb37b;
      }

      .cls-10, .cls-6 {
        fill: #bc551e;
      }

      .cls-11, .cls-6 {
        opacity: 0.4;
      }

      .cls-7 {
        fill: #96342f;
      }

      .cls-8 {
        fill: #fff5e6;
      }

      .cls-9 {
        fill: #efdbbd;
      }

      .cls-10 {
        opacity: 0.3;
      }

      .cls-11 {
        fill: #d14f2e;
      }

      .cls-12 {
        fill: #261b18;
      }

      .cls-13 {
        fill: #45362e;
      }

      .cls-14 {
        fill: #593a2f;
      }

      .cls-15 {
        fill: #f89e66;
      }

      .cls-16 {
        fill: #e6d2c3;
        opacity: 0.7;
      }

      .cls-17 {
        fill: #ffc08d;
      }
    </style>
  </defs>
  <title>1</title>
  <g>
    <g>
      <path class="cls-1" d="M15.17,40c-.3-2.9.45-5.43,1.85-6.25l-1.74-2C13.15,32.85,12.39,36,12.38,40Z" transform="translate(-4.95 0)"/>
      <path class="cls-1" d="M28.27,40c.29-2.9-.45-5.43-1.85-6.25l1.74-2c2.13,1.09,2.89,4.19,2.9,8.24Z" transform="translate(-4.95 0)"/>
      <path class="cls-1" d="M26.12,30.68a9.2,9.2,0,0,0-8.56.23C15,32.63,15.63,35.5,16.32,40H27.19C27.94,35.77,28.62,32.08,26.12,30.68Z" transform="translate(-4.95 0)"/>
      <path class="cls-2" d="M22.32,35.79l1.11-1.1a1.63,1.63,0,0,0-1.55-1,1.66,1.66,0,0,0-1.78.94l1.12,1.16-1.41,3.46.59.77h2.77l.69-.82Z" transform="translate(-4.95 0)"/>
      <path class="cls-3" d="M17.86,30.4s-2.71.87-2.94,1.42c-.16.39.43,4.23.86,8.18h2.94A27.82,27.82,0,0,0,17.86,30.4Z" transform="translate(-4.95 0)"/>
      <path class="cls-3" d="M25.58,30.4s2.71.87,2.94,1.42c.16.39-.43,4.23-.86,8.18H24.71A28.09,28.09,0,0,1,25.58,30.4Z" transform="translate(-4.95 0)"/>
    </g>
    <g>
      <path class="cls-4" d="M6.69,15.76c-.39,0-1.18.09-1.74.08C6.76,21.7,15.3,19,19.18,17.91a14.12,14.12,0,0,1,7.76-.2,26,26,0,0,0,2.63,1.08,3.85,3.85,0,0,0,2.06-.37c1.35-.36,2-.38,2-2.05,0-1.39.82-2.68,1.18-4a8.9,8.9,0,0,0,0-4.26,9.84,9.84,0,0,0-4.11-6,6.47,6.47,0,0,0-3.3-1c-.92,0-2.92.35-3.51,1.17.31-.43,1-1.39.54-1.94s-2.19.4-2.25,1.12c-.27-.5-1-1.86-1.76-1.24-.58.45.17,1.55.36,2a8.79,8.79,0,0,0-2.08-.51c-3.78-.53-7.93.19-10.2,3.59-1.33,2-.4,4.18-.24,6.4.11,1.64-.54,3-2.44,2.05A2.27,2.27,0,0,0,6.69,15.76Z" transform="translate(-4.95 0)"/>
      <path class="cls-5" d="M10.54,18.57c1.08,3.75,1.05,4.68,2.62,8.42s5.46,6.13,10.73,5.82c4.79-.28,6.52-2.68,7.74-6.71a24.79,24.79,0,0,0,1.24-9.49C32.21,9.07,26.68,3.4,20.51,3.94S8.46,11.3,10.54,18.57Z" transform="translate(-4.95 0)"/>
      <g>
        <path class="cls-6" d="M30.38,21.55c-.23-.61-1.61-.26-1.61-.26-.24.06.19.16.75.33a.3.3,0,0,1,.21.18c-3.06.84-8.32,1.57-12.16.17a.47.47,0,0,1,.1-.1c.55-.4,1.31-.42,1.1-.56a3.57,3.57,0,0,0-1.8.33c-.47.35-.49,1.5-.13,1.55s.32-.57.58-1c.23,1.25,1.42,6.54,5.8,6.66,3.3.1,4.35-1.63,4.54-3.69a6.31,6.31,0,0,1,2-3.21c.05.35-.17.85.09.89S30.6,22.16,30.38,21.55Z" transform="translate(-4.95 0)"/>
        <path class="cls-7" d="M18.23,22.82a11.72,11.72,0,0,0,10.59-.33,3.34,3.34,0,0,0-1.23,2.26c-.19,1.22-.66,3-4.18,3.07C19.5,28,18.23,22.82,18.23,22.82Z" transform="translate(-4.95 0)"/>
        <path class="cls-8" d="M19.5,23.37a2.76,2.76,0,0,0,1.18,2.29,6.21,6.21,0,0,0,5,.32c1.2-.41,2-2.91,2-2.91A13.67,13.67,0,0,1,19.5,23.37Z" transform="translate(-4.95 0)"/>
        <path class="cls-8" d="M19.9,25.83c-.11-.42-.09-.89.55-.55a8.65,8.65,0,0,0,3.88.7c1.67,0,2.08-.87,2.37-.43s-.94,2.6-3.6,2.32C20.06,27.54,19.9,25.83,19.9,25.83Z" transform="translate(-4.95 0)"/>
        <path class="cls-9" d="M19.76,24.65s6-.94,7.39-.27a8.65,8.65,0,0,0,.52-1.31,14.92,14.92,0,0,1-8.18.27A3.59,3.59,0,0,0,19.76,24.65Z" transform="translate(-4.95 0)"/>
        <path class="cls-9" d="M20.8,25.3a9.09,9.09,0,0,0,5.54.16S23.38,27,20.8,25.3Z" transform="translate(-4.95 0)"/>
      </g>
      <path class="cls-5" d="M9.36,22.56a6.79,6.79,0,0,0,2.46.16l0-.07c.36-.51-.27-3.07-.46-3.6C11,17.73,10.19,16.8,8.73,17.2,5.68,18,6.88,21.86,9.36,22.56Z" transform="translate(-4.95 0)"/>
      <path class="cls-10" d="M13.3,14.62c-.3,1.65.1,3.33-.32,3.66-.9.72-1.5-1.64-1.57-2.12-.31-2.22,1.44-3.91,2.58-5.59s3.34-2.52,5.34-2.91a27.47,27.47,0,0,1,8.91-.16c1,.14,4.17.36,3.35,2.17-.5,1.1-2.17,1.39-3.19,1.68A9,9,0,0,0,24,14.29c-.44.51-.7,1.17-1.15,1.66,0,0-1.09-2.45-1.29-2.62a6,6,0,0,0-2,2.4,3.27,3.27,0,0,1-1.46-3.19c-.66.34-3.28,4.13-3.4,4.05A3.22,3.22,0,0,1,13.3,14.62Z" transform="translate(-4.95 0)"/>
      <path class="cls-11" d="M10.92,21.74c1.41-.48.41-2.69-.55-3.13-.79-.36-2.9-.07-2.08,1.21.64-1,1.46-.23,1.22.53-.15.51-.92.44-.24,1.19A1.76,1.76,0,0,0,10.92,21.74Z" transform="translate(-4.95 0)"/>
      <path class="cls-12" d="M24.78,22.91c-.05.79-1.28.69-1,0-.35,1-1.38.5-.87-.1-.72.46-2.2.66-1.82-.09-.4.41-2.42.63-1.67-.25-.71.35-1.78.51-1.77,0-.65,1-3.27,3.74-3,.69.17-2.32,3.17-3,4.94-2.87s3.8.56,5.67.23c1.7-.29,4.16-1.31,5.73-.05,2.52,2,.49,3.78-.19,3.53-.42-.15-1-1.18-1.43-2-.05,1-1.12.64-1.69.35.25.46-.63,1-1.61.21C26.45,23.17,25.75,23.66,24.78,22.91Z" transform="translate(-4.95 0)"/>
      <path class="cls-12" d="M11.06,22.17c-.72,2.71-.17,3.77.32,2.77-.05.39-.32,2.73.57,1.75-.38.65-.09,3,.85,2.34-.12.62.3,2.49,1,2.39.12.6,1.15,2.47,1.75,1.36-.09.17.73,1.23.88,1.4.35.42.9,1,1.49.94.33,0,.45-.29.77-.24s.76.61,1.1.77.72.3,1-.06a1.34,1.34,0,0,0,2.17.22,1.18,1.18,0,0,0,2-.11c.66,1,1.56-.27,1.89-.86-.34.6,1.34,1.22,1.86-1.68.06.74.69.58,1,.16a2.81,2.81,0,0,0,.44-1.46c1,.73,1.29-1.32,1.2-1.91,1,.26.73-1.92.61-2.4,1.22.58.66-1.83.5-2.27.52,1.37,1.2-.46.38-2.4,1.25,1,.49-5.12,0-6.1-.2,1-.17,4.08-1,4.81-.64.56-1.67-.47-2.52-.08-.54.25,2,8.1-1.76,8.2-1.35,0-1.43-1.37-3.86-1-1.25.21-2.58,2.12-4.2,1.38-3.12-1.42-2.91-5.94-2.19-7.55.57-1.27-2.45.09-3.45-1.19-.62-.81-.44-2.12-1-2.91-.71-1-1.63-.48-1.68.63A14.25,14.25,0,0,1,11.06,22.17Z" transform="translate(-4.95 0)"/>
      <path class="cls-13" d="M14.05,22.68c.31.42.84.72,1.06,1.19.3.66.24,5.27-.71,5.45s-.81-1.92-.82-2.42c-.74,1.33-1-1.48-.8-2-1.19.78-.5-2.33-.45-2.77,0,.24-.52-.58-.53-.62a3.41,3.41,0,0,1,0-1.15c.19.32,1,.81,1.1.14A5.92,5.92,0,0,0,14.05,22.68Z" transform="translate(-4.95 0)"/>
      <path class="cls-4" d="M30.31,6a15,15,0,0,0-5.82-2.15,29.32,29.32,0,0,0-3.38-.52,12.88,12.88,0,0,0-5.63,1.41C12.88,6,11.13,9,10.29,11.62a10.59,10.59,0,0,0-.47,4.93c.2,1.05,1.1,3.3,2.65,3.61.35.07.83-.13.73-1.36-.15-1.8-.87-4.28.51-6a2.72,2.72,0,0,0,.81,2.61c.78-1.5,2.29-3.25,4-3.61a5.27,5.27,0,0,0,.92,3,3.64,3.64,0,0,1,1.94-2.41,7.35,7.35,0,0,0,1.41,2.49c1.13-1.26,2-2.85,3.4-3.8s3.52-.76,5-1.8S31.37,6.64,30.31,6Z" transform="translate(-4.95 0)"/>
      <path class="cls-13" d="M25.72,29.69c-1.55-.75-3.08.13-4.33,1.3-1.08,1-1.42,3.12,0,4.14.44.32,1,.4,1-.8.54,1,1.92,1.85,2.11.48.88.76,1.61.25,1.94-.76.92,1.32,2-.77,2-1.64C28.33,30.93,26.85,30.23,25.72,29.69Z" transform="translate(-4.95 0)"/>
      <path class="cls-13" d="M22.33,21.12c-3.21-1.75-8.81.31-7.41,4.72.18.57.32,1.24,1,1.41.78-1.86-.21-4.73,2-5.73-1,1.56,1.76.07,2.16-.08-1.18,1.79.94,1,1.79.41a1.53,1.53,0,0,0-.37.93c.62.25,1.14-.28,1.54-.7-.27.85.64,1,1.1.45.25.45.5.36.67-.11.26.24.46.15.74.27,0-.17.12-.35.06-.56.55.34,1.82.58,1.38-.52.45.78,2.23.79,1.81-.4a4.3,4.3,0,0,1,1.38,3.28c.06.76-.33,4.26,1.17,3a2.58,2.58,0,0,0,.37-2.6c1.47,1.06-.16-2.38-.36-2.74-.74-1.26-1.59-2.08-3.11-2-1.28.12-1.88.85-2.94,1.33A3.19,3.19,0,0,1,22.33,21.12Z" transform="translate(-4.95 0)"/>
      <path class="cls-13" d="M18,30.29a3.1,3.1,0,0,0,2.44.95,10.74,10.74,0,0,0,1.1-.34c0,1-.16,4.17-1.59,3.63-.47-.17-.83-.78-1.28-1.05.22.13-.49.84-1.05.5a2.16,2.16,0,0,1-.75-2c-.45,1.33-1.06-.9-1.08-1.31s-.31-2.17.4-2.35S17.54,29.89,18,30.29Z" transform="translate(-4.95 0)"/>
      <path class="cls-13" d="M29.42,29.56c.17-.28.21-1,.62-.91.56.07.64,1.63.55,2s-.61,1.23-1,.49c0-.05,0,0,0,0,0,1.62-1.39,2.27-2.53,1.11-.38-.38-.7-1.36-.16-1.7.2-.13.92.07,1.2,0A2.17,2.17,0,0,0,29.42,29.56Z" transform="translate(-4.95 0)"/>
      <path class="cls-14" d="M14.58,14.54c-1-1.07.3-1.9,0-3.07a20.14,20.14,0,0,0-2.19,2.24c.07-.45.18-.89.27-1.33a3.67,3.67,0,0,1-2.32,2c.44-.69-.95-2.34-1.26-3a7.77,7.77,0,0,1-.54-3.59c.07-2.78,2.55-4.37,4.87-5.1a12,12,0,0,1,8,.15,6.16,6.16,0,0,1,3.72,4.29c.63,2.3.27,5.41-2,6.73-.18.1-.35.23-.54.34A9.48,9.48,0,0,0,22,12.69a9.71,9.71,0,0,0-.49-1.28c-.81.54-1.47,1.34-2.21,1.89A5.73,5.73,0,0,1,19.05,11c-.83-.07-1.85.78-2.5,1.22C15.27,13.09,14.42,14.38,14.58,14.54Z" transform="translate(-4.95 0)"/>
      <path class="cls-14" d="M23.46,3.11a8,8,0,0,1,2.45,3.45,7,7,0,0,1,.35,2.09c0,.26-.25.93-.06,1.14s2.27-.21,2.64-.31a4.82,4.82,0,0,0,1.8-.85c.4-.31.62-.77,1.15-.7,1.77.24.38,4,1.81,4.78a4.68,4.68,0,0,1,.3-1.65c.85-2.36-.2-4.14-1.62-5.93a7.3,7.3,0,0,0-7.82-2.49C24.32,2.69,23.59,3.22,23.46,3.11Z" transform="translate(-4.95 0)"/>
      <g>
        <path class="cls-11" d="M17.3,18.57c.71-.63-1.49-.66-1.82-.56,0,.43,1,.2,1.31.27-.25.27-1,.28-1.33.47s-.29.33.11.32A7.05,7.05,0,0,0,17.3,18.57Z" transform="translate(-4.95 0)"/>
        <path class="cls-11" d="M30.59,18.11c-.49-.67,1.35-.55,1.62-.43-.11.42-.89.13-1.14.18.16.28.8.34,1,.55s.19.34-.14.3A5.28,5.28,0,0,1,30.59,18.11Z" transform="translate(-4.95 0)"/>
        <path class="cls-12" d="M31.93,14.56a.45.45,0,0,0,.19-.14c1.48-1.79-5.74-2.33-5-.22.37,1,1.69.54,2.46.44A10.11,10.11,0,0,0,31.93,14.56Z" transform="translate(-4.95 0)"/>
        <path class="cls-12" d="M15.49,15.22a.77.77,0,0,1-.24-.12c-1.93-1.7,5.87-3,5.4-.72-.22,1.1-1.75.72-2.62.69A11.66,11.66,0,0,1,15.49,15.22Z" transform="translate(-4.95 0)"/>
        <path class="cls-15" d="M31.84,19.6A1.45,1.45,0,0,1,32,20c.13,1.47-2.9.7-3.17,0-.51-1.24.57-1.43,1.35-1.35A2.08,2.08,0,0,1,31.84,19.6Z" transform="translate(-4.95 0)"/>
        <path class="cls-15" d="M17.93,19.42a1.54,1.54,0,0,1,.3.32c.85,1.28-2.4,2-3,1.51-1.09-.88-.16-1.56.62-1.85A2.33,2.33,0,0,1,17.93,19.42Z" transform="translate(-4.95 0)"/>
        <path class="cls-12" d="M18.2,19a2,2,0,0,0-1.36-.24c-.86-.89.23-3.26,1.55-2.54A1.7,1.7,0,0,1,18.2,19Z" transform="translate(-4.95 0)"/>
        <path class="cls-12" d="M30.93,15.77a1.71,1.71,0,0,1-.15,2.44,1.88,1.88,0,0,0-1.31.16C27.92,17.7,29.6,14.73,30.93,15.77Z" transform="translate(-4.95 0)"/>
        <path class="cls-16" d="M18,16.56c.51-.12.75.67.33.92C17.71,17.83,17.39,16.7,18,16.56Z" transform="translate(-4.95 0)"/>
        <path class="cls-16" d="M30.41,16c.52,0,.62.77.17,1C30,17.17,29.83,16,30.41,16Z" transform="translate(-4.95 0)"/>
        <path class="cls-17" d="M26.31,20.35c.46-.4-.37-4.84-2.4-4.71-1.69.12-2.28,4.46-1.35,5A4,4,0,0,0,26.31,20.35Z" transform="translate(-4.95 0)"/>
      </g>
    </g>
  </g>
</svg>
