<svg xmlns="http://www.w3.org/2000/svg" xmlns:xlink="http://www.w3.org/1999/xlink" viewBox="0 0 30.89 39.74">
  <defs>
    <style>
      .cls-1 {
        isolation: isolate;
      }

      .cls-2 {
        fill: #e8e8e8;
      }

      .cls-3 {
        fill: #fff;
      }

      .cls-4 {
        fill: url(#linear-gradient);
      }

      .cls-5 {
        opacity: 0.1;
      }

      .cls-6 {
        fill: #f5f5f5;
      }

      .cls-7 {
        fill: #bf3c1b;
        opacity: 0.2;
      }

      .cls-8 {
        fill: #eb5088;
      }

      .cls-9 {
        fill: #cf2965;
      }

      .cls-10 {
        fill: #d9af96;
        mix-blend-mode: multiply;
      }

      .cls-10, .cls-21 {
        opacity: 0.5;
      }

      .cls-11 {
        fill: #4f2619;
      }

      .cls-12 {
        fill: #fff9f0;
      }

      .cls-13 {
        fill: #ffcb9e;
      }

      .cls-14 {
        fill: #2f2120;
      }

      .cls-15 {
        fill: #7d4732;
      }

      .cls-16 {
        fill: #b08a72;
      }

      .cls-17 {
        fill: #ffb696;
      }

      .cls-18 {
        fill: #d14f2e;
        opacity: 0.3;
      }

      .cls-19 {
        fill: #121b21;
      }

      .cls-20 {
        fill: #784430;
      }

      .cls-21 {
        fill: #c20902;
      }
    </style>
    <linearGradient id="linear-gradient" x1="20.02" y1="27.97" x2="20.02" y2="30.97" gradientUnits="userSpaceOnUse">
      <stop offset="0" stop-color="#eea17a"/>
      <stop offset="1" stop-color="#ffcca6"/>
    </linearGradient>
  </defs>
  <title>1</title>
  <g class="cls-1">
    <g id="레이어_1" data-name="레이어 1">
      <g>
        <g>
          <path class="cls-2" d="M17.46,32.75l-1-2c-1.4.7-1.76,2.27-2.14,3.94-.18.8-.86,3.63-1.33,5h2.42c.37-1.31,1-3.92,1.14-4.55C16.76,34.09,17,33,17.46,32.75Z" transform="translate(-3.89)"/>
          <path class="cls-2" d="M23.69,30.77l-1,2c.44.22.7,1.34.95,2.44.14.63.76,3.24,1.13,4.55h2.42c-.46-1.4-1.14-4.23-1.33-5C25.45,33,25.09,31.47,23.69,30.77Z" transform="translate(-3.89)"/>
          <path class="cls-2" d="M24.7,36c.72-1.8.75-2.23.33-3.24a5.45,5.45,0,0,0-8.4-2.27,3.33,3.33,0,0,0-1,1.81c-.71,1.88,0,2.75.38,4.36a9.37,9.37,0,0,1,.19,3.1h7.94A7.71,7.71,0,0,1,24.7,36Z" transform="translate(-3.89)"/>
          <path class="cls-3" d="M20.1,36.38a.36.36,0,1,0,.36.36A.36.36,0,0,0,20.1,36.38Z" transform="translate(-3.89)"/>
          <path class="cls-3" d="M20.15,38.57a.34.34,0,0,0-.35.35.35.35,0,1,0,.7,0A.34.34,0,0,0,20.15,38.57Z" transform="translate(-3.89)"/>
          <path class="cls-4" d="M22.66,29.93c-1.29-.73.11-4.08-.93-4.92a3.09,3.09,0,0,0-3-.31c-1.77.73,0,4.8-1.72,5.54-.33.14-.41.55.25,1.62a5.72,5.72,0,0,0,2.92,2.7,5.74,5.74,0,0,0,2.91-2.94A1.34,1.34,0,0,0,22.66,29.93Z" transform="translate(-3.89)"/>
          <path class="cls-5" d="M20.22,34.56c-.4,0-3.72-.9-3.72-.9l.29,2.46s3.12-1.39,3.42-1.39a37.48,37.48,0,0,1,3.51,1.49V33.68A32.61,32.61,0,0,1,20.22,34.56Z" transform="translate(-3.89)"/>
          <path class="cls-6" d="M22.81,29.88a3,3,0,0,1-.19,2.58,9.66,9.66,0,0,1-2.4,2.1l3.29,1S24.24,30.87,22.81,29.88Z" transform="translate(-3.89)"/>
          <path class="cls-6" d="M17.89,32.71a3.2,3.2,0,0,1-.76-2.6c-1.6,1.09-.18,5.41-.18,5.41l3.27-1A6.58,6.58,0,0,1,17.89,32.71Z" transform="translate(-3.89)"/>
          <g>
            <path class="cls-7" d="M22.35,31.23c0-.21.23-.39.3-.59a1.94,1.94,0,0,0,0-.83c-.3-.12-.82.29-1.1.39a12.35,12.35,0,0,1-1.25.46A3.39,3.39,0,0,1,18,30.3a2,2,0,0,1-.72-.62,1.58,1.58,0,0,0,.91,1.75c.36.22.76.24,1.11.43a3.52,3.52,0,0,0-.7,1.85c-.2,1,.06,2-.13,3,.62.06,1.52-.66,2-1a4.21,4.21,0,0,0,1.13-1.38,2.22,2.22,0,0,0,.28-.82,4.26,4.26,0,0,0,2.72.85,5.83,5.83,0,0,0-1.17-1.88C23.12,32.17,22.27,31.76,22.35,31.23Z" transform="translate(-3.89)"/>
            <path class="cls-8" d="M22.23,29.08a3.25,3.25,0,0,0-.53.52,2.49,2.49,0,0,1-1.77.68,2.41,2.41,0,0,1-.75-.13A2.09,2.09,0,0,1,17.76,29a2.26,2.26,0,0,0-.77.64,2.34,2.34,0,0,0,.72,1.3,2.69,2.69,0,0,0,.8.5A3.83,3.83,0,0,0,22.85,30c.08-.13.12-.18,0-.31A3.57,3.57,0,0,0,22.23,29.08Z" transform="translate(-3.89)"/>
            <path class="cls-8" d="M20.5,32c.95.33,2.32-.63,1.71-1.67C21.19,28.65,18.54,31.35,20.5,32Z" transform="translate(-3.89)"/>
            <path class="cls-8" d="M20.84,31c-.39.53-1,.72-1.42,1.28A4.58,4.58,0,0,0,18.74,34a13.78,13.78,0,0,1-.44,2.72,3.53,3.53,0,0,0,3.21-4.27A3.75,3.75,0,0,0,20.84,31Z" transform="translate(-3.89)"/>
            <path class="cls-8" d="M21.06,30.68c.45,4.14,3.69,4.43,5.39,3.73C24.55,33.68,23.84,30.06,21.06,30.68Z" transform="translate(-3.89)"/>
            <path class="cls-9" d="M23.19,32.82c-.78-.51-1.2-.48-1.54-.89A2.5,2.5,0,0,0,24,34,2.14,2.14,0,0,0,23.19,32.82Z" transform="translate(-3.89)"/>
            <path class="cls-9" d="M20.61,33.86a3,3,0,0,0-.09,1.43,2.33,2.33,0,0,0,.79-1.35,3,3,0,0,0,0-1.58C21.23,32.88,21,33.05,20.61,33.86Z" transform="translate(-3.89)"/>
            <path class="cls-9" d="M21.25,31.84a1.83,1.83,0,0,1-.45.07,1.22,1.22,0,0,1-.5-.11c-.05,0-.08-.05-.13,0a1.64,1.64,0,0,0,.5.36c.15.1.32.16.47.26a.35.35,0,0,0,.35.08c.15-.05.22-.23.29-.37a2.22,2.22,0,0,0,.34-.86c-.1.09-.17.21-.28.3A1.85,1.85,0,0,1,21.25,31.84Z" transform="translate(-3.89)"/>
          </g>
        </g>
        <g>
          <path class="cls-10" d="M10,15.38c-1.25-.13-2.3.81-1.93,3.76a2.75,2.75,0,0,0,3.1,2.58S11.26,15.51,10,15.38Z" transform="translate(-3.89)"/>
          <path class="cls-11" d="M21.32,0C.32,1.67-1.49,29.65,14.74,25.62c3-.74,1.23-3.71,5.92-4.06,2.95-.22,4,3.48,5.16,3.82C39.18,29.13,37.52,3.63,21.32,0Z" transform="translate(-3.89)"/>
          <path class="cls-12" d="M27.53,20.74a2,2,0,0,0-1.67,2.33,2.08,2.08,0,0,0,2.08,2,2,2,0,0,0,1.68-2.33A2.09,2.09,0,0,0,27.53,20.74Zm.35,3.58a1.51,1.51,0,0,1-1.51-1.46,1.46,1.46,0,0,1,1.21-1.68,1.49,1.49,0,0,1,1.51,1.46A1.46,1.46,0,0,1,27.88,24.32Z" transform="translate(-3.89)"/>
          <path class="cls-13" d="M19.55,5.45c-7.11.22-9.45,4.93-9.27,12s5.22,11.69,10.47,12c4,.24,9.12-6.06,8.71-13.1S26.39,5.23,19.55,5.45Z" transform="translate(-3.89)"/>
          <path class="cls-7" d="M26.18,5.48A6.76,6.76,0,0,0,21.28,5a15.5,15.5,0,0,0-3,1,15.66,15.66,0,0,0-7.42,6.16c-.34.61-1.45,2.55-.79,3.23.42.44.22,1.37.63,1,2.66-2.58,7.35-1.8,10.62-4.86a20.17,20.17,0,0,0,2.79-3.74c-.26,1.27,4.4,4.4,5.1,6.41.57,1.64.51-1.43.57-2.27A7.07,7.07,0,0,0,26.18,5.48Z" transform="translate(-3.89)"/>
          <path class="cls-14" d="M14.67,15.26c-1.47-.55-2.22,2.16-1.2,3a2,2,0,0,1,1.43,0A1.87,1.87,0,0,0,14.67,15.26Z" transform="translate(-3.89)"/>
          <path class="cls-15" d="M14.47,12a2.12,2.12,0,0,0-1.65,1.46,2.86,2.86,0,0,1,3.63-.36A2,2,0,0,0,14.47,12Z" transform="translate(-3.89)"/>
          <path class="cls-16" d="M14.31,16c-.6.09-.38,1.34.26,1C15,16.77,14.85,15.89,14.31,16Z" transform="translate(-3.89)"/>
          <path class="cls-11" d="M27.61,5.8a13,13,0,0,0-5.77-3.42A9.07,9.07,0,0,0,17,2c-4.14.81-6.71,4.81-7.37,8.76C9.42,12,8.28,16.3,9.9,18.36c.38-2.22,1-3.46,6-4.92a14.49,14.49,0,0,0,8.42-6.53c.15,3.07,5.1,4.27,5.14,8.75,0-1.12.78-3.06.59-4.19A11.54,11.54,0,0,0,27.61,5.8Z" transform="translate(-3.89)"/>
          <path class="cls-17" d="M28.37,19.88a1.83,1.83,0,0,0-1.52-.72c-.68-.05-1.61.15-1.11,1.21.26.56,2.93,1.13,2.74-.14A.8.8,0,0,0,28.37,19.88Z" transform="translate(-3.89)"/>
          <path class="cls-17" d="M15.33,19.79a1.87,1.87,0,0,0-1.79-.48c-.76.1-1.75.55-1,1.66.39.59,3.42.63,3-.8A1.11,1.11,0,0,0,15.33,19.79Z" transform="translate(-3.89)"/>
          <path class="cls-18" d="M21.21,19.21c-.46,0-.64-.21-1,0s.36.81.93.78,1.17-.55,1-.74S21.72,19.22,21.21,19.21Z" transform="translate(-3.89)"/>
          <path class="cls-14" d="M27.56,15.29c-1.48-.94-2.77,2.51-1.13,3a1.78,1.78,0,0,1,1.29-.21C28.28,17.36,28.34,15.8,27.56,15.29Z" transform="translate(-3.89)"/>
          <path class="cls-16" d="M26.84,15.81c-.58,0-.49,1.31.13,1.07C27.43,16.71,27.36,15.79,26.84,15.81Z" transform="translate(-3.89)"/>
          <path class="cls-19" d="M27.6,15.22c-1.35-.52-1.79,1.08-1.79,1.08A1.24,1.24,0,0,1,27.38,16a2.78,2.78,0,0,0,3.42-.25C29.15,16.31,28.32,15.5,27.6,15.22Z" transform="translate(-3.89)"/>
          <path class="cls-19" d="M13.69,15.34a4.34,4.34,0,0,1-3.45.61,3,3,0,0,0,3.58.13,1.42,1.42,0,0,1,1.64.13S15.09,14.62,13.69,15.34Z" transform="translate(-3.89)"/>
          <path class="cls-20" d="M27.05,2.83c-6,5.55-15.22.79-15.22.79C8.94,5.32,6.42,9.16,6.41,9.17a8.79,8.79,0,0,1,2.42.66c1.06.43,2.07,1,3.15,1.39a13.91,13.91,0,0,0,3.95.83c2.59.07,6.23-2.39,8.6-5.84a4.18,4.18,0,0,0,1,2.66c2.85,3.23,6.68,0,6.68,0A14.09,14.09,0,0,0,27.05,2.83Z" transform="translate(-3.89)"/>
          <path class="cls-20" d="M27.37,11.94a2,2,0,0,0-2,1.05,2.85,2.85,0,0,1,3.61.46A2.09,2.09,0,0,0,27.37,11.94Z" transform="translate(-3.89)"/>
          <path class="cls-13" d="M9.16,15.36c-1.89.85-1.13,4.78.42,5.49a2.6,2.6,0,0,0,1.53.16l0-.07a13.94,13.94,0,0,0-.3-3.68C10.55,15.9,10.07,15,9.16,15.36Z" transform="translate(-3.89)"/>
          <path class="cls-18" d="M9.77,16.67c-.39-.2-1.2.43-.65,1.49.09-1.09.56-.46.59.3,0,.51-.3.57.11,1.16.22.32.55.13.71-.08C11,18.85,10.23,16.93,9.77,16.67Z" transform="translate(-3.89)"/>
          <path class="cls-12" d="M10.47,21.13a2,2,0,0,0-1.84,2.19,2.08,2.08,0,0,0,1.93,2.16,2,2,0,0,0,1.84-2.19A2.07,2.07,0,0,0,10.47,21.13Zm.09,3.59a1.49,1.49,0,0,1-1.4-1.57,1.46,1.46,0,0,1,1.33-1.59,1.51,1.51,0,0,1,1.4,1.57A1.46,1.46,0,0,1,10.56,24.72Z" transform="translate(-3.89)"/>
          <path class="cls-21" d="M25.16,22.27c-.16.16-4.06,3.82-9.42-.09a.49.49,0,0,0-.67.05.41.41,0,0,0,.09.61,10.38,10.38,0,0,0,3.73,1.78,7.76,7.76,0,0,0,3.94-.08,7.63,7.63,0,0,0,3.05-1.66.4.4,0,0,0,0-.61A.52.52,0,0,0,25.16,22.27Z" transform="translate(-3.89)"/>
        </g>
      </g>
    </g>
  </g>
</svg>
