<svg id="레이어_1" data-name="레이어 1" xmlns="http://www.w3.org/2000/svg" viewBox="0 0 40 40">
  <defs>
    <style>
      .cls-1 {
        stroke: #000;
        stroke-miterlimit: 10;
        stroke-width: 0.75px;
      }
    </style>
  </defs>
  <title>1</title>
  <path d="M20,40A20,20,0,1,1,40,20,20,20,0,0,1,20,40ZM20,3.66A16.34,16.34,0,1,0,36.34,20,16.36,16.36,0,0,0,20,3.66Z"/>
  <path class="cls-1" d="M14.26,13.46a.22.22,0,0,1-.25,0,.23.23,0,0,1-.11-.22V10.54a10,10,0,0,1,2.8-1.76,8.58,8.58,0,0,1,3.39-.67,7.3,7.3,0,0,1,4.84,1.44A5.44,5.44,0,0,1,26.64,14a6.49,6.49,0,0,1-.32,2,9.85,9.85,0,0,1-.9,2,15.3,15.3,0,0,1-1.33,1.91q-.75.93-1.59,1.83l-5.27,5.63v.06H27v2.8H13.26V27.48l6.52-7.14a21.79,21.79,0,0,0,1.65-2,11.88,11.88,0,0,0,1-1.66A5.49,5.49,0,0,0,23,15.28,6.74,6.74,0,0,0,23.11,14a3.17,3.17,0,0,0-.78-2.21,3.14,3.14,0,0,0-2.44-.87,6.85,6.85,0,0,0-2.81.63A10.39,10.39,0,0,0,14.26,13.46Z"/>
</svg>
