<svg id="레이어_1" data-name="레이어 1" xmlns="http://www.w3.org/2000/svg" viewBox="0 0 24.48 40">
  <defs>
    <style>
      .cls-1 {
        fill: #8d573e;
      }

      .cls-2 {
        fill: #e8e8e8;
      }

      .cls-3 {
        opacity: 0.1;
      }

      .cls-4 {
        fill: #a1664c;
      }

      .cls-5 {
        fill: #f5f5f5;
      }

      .cls-6 {
        fill: #f2b88e;
      }

      .cls-7 {
        fill: #b8b1ad;
      }

      .cls-8 {
        fill: #ffcb9e;
      }

      .cls-9 {
        fill: #bf3c1b;
      }

      .cls-10, .cls-15, .cls-9 {
        opacity: 0.3;
      }

      .cls-10 {
        fill: #c94614;
      }

      .cls-11 {
        fill: #dfdddc;
      }

      .cls-11, .cls-17, .cls-22 {
        opacity: 0.7;
      }

      .cls-12 {
        fill: #bf9584;
      }

      .cls-13 {
        fill: #ffa073;
      }

      .cls-14 {
        fill: #261b18;
      }

      .cls-15, .cls-23 {
        fill: #b54d26;
      }

      .cls-16 {
        fill: #ffdfc2;
      }

      .cls-17 {
        fill: #e6d2c3;
      }

      .cls-18 {
        fill: #5e5a59;
      }

      .cls-19 {
        fill: #302f2d;
      }

      .cls-20 {
        fill: #f5b37a;
      }

      .cls-21 {
        fill: #bf795c;
      }

      .cls-22 {
        fill: #595655;
      }

      .cls-23 {
        opacity: 0.2;
      }
    </style>
  </defs>
  <title>1</title>
  <g>
    <g>
      <path class="cls-1" d="M8.88,40h4.83l-2-6.78C9.83,34.39,8.84,35.12,8.88,40Z" transform="translate(-7.79)"/>
      <path class="cls-1" d="M29.46,33.22l-2,6.78h4.84C32.3,35.12,31.31,34.39,29.46,33.22Z" transform="translate(-7.79)"/>
      <path class="cls-2" d="M15.59,31.41c-2,1.67-2.54,3.69.44,6.62a17.6,17.6,0,0,0,2.36,2h4c1.85-2,4.94-5.79,4.11-7.82C25.09,28.72,17.57,29.73,15.59,31.41Z" transform="translate(-7.79)"/>
      <path class="cls-3" d="M16.25,33.16a6.56,6.56,0,0,0,2.54,3.37l2.1-2,2.23,1.9c2.13-1.9,2.55-3.09,2.73-3.77C26.4,30.54,15.32,30.2,16.25,33.16Z" transform="translate(-7.79)"/>
      <g>
        <path class="cls-1" d="M25.89,30.88c.09.21.4.69.38.91-.24,2.63-2,6-3.38,8.21h5.56c.5-2.55,1.51-6.28,1.22-6.61A22.15,22.15,0,0,0,25.89,30.88Z" transform="translate(-7.79)"/>
        <path class="cls-1" d="M15.53,31.75a3.66,3.66,0,0,1,.36-.68c-1.58.68-4.48,2.07-4.74,2.59S12.33,37,13,40H19.2C17.28,37.45,14.8,33.63,15.53,31.75Z" transform="translate(-7.79)"/>
      </g>
      <g>
        <path class="cls-4" d="M25.3,30.19c.37,3.68-1.48,7.48-2.83,9.81h2.08a38.61,38.61,0,0,0,2.86-2.82A18.52,18.52,0,0,0,26.17,35l2.17-1.34A9.88,9.88,0,0,0,25.3,30.19Z" transform="translate(-7.79)"/>
        <path class="cls-4" d="M13.26,34.09l2.59,1.07a24,24,0,0,0-1.15,2.72A21,21,0,0,0,17.17,40h2.45c-1.41-2.09-3.33-5.51-3.33-9.39A7,7,0,0,0,13.26,34.09Z" transform="translate(-7.79)"/>
      </g>
      <path class="cls-5" d="M15.9,31.1c-1,2.67,2.74,4.84,2.74,4.84l2.25-1.41L23,35.85s4.16-2.16,2.59-5.27C24.16,27.78,17.1,28,15.9,31.1Z" transform="translate(-7.79)"/>
      <path class="cls-6" d="M19.24,27.37a3.14,3.14,0,0,0-2.32,2.9,2.45,2.45,0,0,0,.66,2.18,4.5,4.5,0,0,0,1.77,1c.5.15,1.37.74,1.52.74s.35-.25.81-.49a4.55,4.55,0,0,0,2-1.56c.55-1.09,1-3.23,0-4.07A6,6,0,0,0,19.24,27.37Z" transform="translate(-7.79)"/>
    </g>
    <g>
      <path class="cls-7" d="M31.05,6.38a8.36,8.36,0,0,0-1.8-3.2C25.85-.57,20.2-1,13.81,1.8a11.65,11.65,0,0,0,3.32-.13C13.78,3.22,9.81,5.26,9,9.23,6.81,19,14.86,14.51,17.59,15.3c3.11.89,10.83-.12,13-3.34A7,7,0,0,0,31.05,6.38Z" transform="translate(-7.79)"/>
      <path class="cls-8" d="M11.14,21c.72,5.32,4.8,11.16,11,10.72s9.4-8.27,8.59-14.82c-.89-7.11-4.24-13-11.58-11.61C13.87,6.35,10.17,13.92,11.14,21Z" transform="translate(-7.79)"/>
      <path class="cls-9" d="M15.13,11.32c-.74.38-2.69,1.33-3.7-.25-.47-.75-.12-1.87.18-2.72a4.18,4.18,0,0,1,2.5-2c1.75-.78,3.79-.67,5.67-.64a23.53,23.53,0,0,1,6.24,1c1.34.39,3.85.73,4.32,2.25.59,1.93-1.48,1.83-2.9,1.83C24,10.7,16.74,10.48,15.13,11.32Z" transform="translate(-7.79)"/>
      <path class="cls-8" d="M9.87,23.32a5.07,5.07,0,0,0,2.08.22l0-.06c.31-.49-.12-3.24-.28-3.76-.4-1.31-1.17-2-2.4-1.65C6.73,18.78,7.77,22.56,9.87,23.32Z" transform="translate(-7.79)"/>
      <path class="cls-10" d="M10.87,22.38c.93-.59.05-2.59-.66-2.92s-2,.21-1.34,1.35c.36-1,1-.36.9.39-.07.5-.61.51-.07,1.15C10,22.7,10.57,22.57,10.87,22.38Z" transform="translate(-7.79)"/>
      <path class="cls-7" d="M27.35,3.29c-4-2.08-10-1.54-13.38.94a7.29,7.29,0,0,0-3.32,6.55c.08,1.55,2.16,1.79,3,.68a3.68,3.68,0,0,1,3-1.24c2-.08,9.78-.45,11.61.18,1,.35,2.33.87,2.53-.73a6,6,0,0,0-1.44-4.85A8,8,0,0,0,27.35,3.29Z" transform="translate(-7.79)"/>
      <path class="cls-11" d="M30.08,8.84a7.15,7.15,0,0,0-.22-2.42A5.77,5.77,0,0,0,28.25,4a9.87,9.87,0,0,0-5.61-2.72,10.72,10.72,0,0,0-4.18.39c.33.19,1.2.38,1.49.61a22.9,22.9,0,0,0-4.24,1.4c-.42.19-3.88,2.55-3.88,2.55a4.46,4.46,0,0,0,3.14.1,10.44,10.44,0,0,1,4.75-.13C21.2,6.5,22.53,7.24,24,7.58c0-.66-.59-1.25-.87-1.7.84,0,4.06,2,4.73,2.58a25.12,25.12,0,0,1-1-2.38C27.65,6.21,29.51,7.88,30.08,8.84Z" transform="translate(-7.79)"/>
      <path class="cls-12" d="M13.22,11.87c-.59,3.31-1.05,4.92-.63,7.92,0,0-1.51-1.66-2.74-1.81a21.33,21.33,0,0,1-.19-4.07C9.73,12.3,12.07,11.85,13.22,11.87Z" transform="translate(-7.79)"/>
    </g>
    <g>
      <path class="cls-10" d="M15.29,18.74c.56-.82-1.74-.62-2.06-.47.16.51,1.12.13,1.44.18-.18.35-1,.45-1.25.71s-.21.43.2.36A5.68,5.68,0,0,0,15.29,18.74Z" transform="translate(-7.79)"/>
      <path class="cls-10" d="M29.1,18.68c-.57-.83,1.73-.63,2-.47-.16.51-1.11.13-1.44.18.18.35,1,.45,1.25.71s.21.43-.2.36A5.76,5.76,0,0,1,29.1,18.68Z" transform="translate(-7.79)"/>
      <path class="cls-13" d="M29.71,20a1.17,1.17,0,0,1,.18.39c.37,1.46-2.9,1-3.29.33-.72-1.19.38-1.48,1.2-1.46A2.33,2.33,0,0,1,29.71,20Z" transform="translate(-7.79)"/>
      <path class="cls-13" d="M17.45,19.87a1.21,1.21,0,0,1,.27.35c.76,1.38-2.7,1.73-3.25,1.19-1-1,0-1.59.84-1.79A2.49,2.49,0,0,1,17.45,19.87Z" transform="translate(-7.79)"/>
      <path class="cls-14" d="M16.25,19.11A1.94,1.94,0,0,0,14.91,19c-.92-.78-.07-3.19,1.28-2.61A1.65,1.65,0,0,1,16.25,19.11Z" transform="translate(-7.79)"/>
      <path class="cls-15" d="M24.3,20.66c-.34-.41-.81.05-1.69.06s-1.1-.36-1.65,0,.23,1.39,1.63,1.34S24.59,21,24.3,20.66Z" transform="translate(-7.79)"/>
      <path class="cls-16" d="M22.4,17.74c-1.48-.13-1.59,3-1.25,3.29a2.83,2.83,0,0,0,3.07-.34C24.42,20.48,23.82,17.86,22.4,17.74Z" transform="translate(-7.79)"/>
      <path class="cls-14" d="M29.2,16.29a2,2,0,0,1,.18,2.59,1.74,1.74,0,0,0-1.43,0C26.81,18.13,27.82,15.46,29.2,16.29Z" transform="translate(-7.79)"/>
      <path class="cls-17" d="M15.54,17c.49-.16.79.59.4.87S15,17.16,15.54,17Z" transform="translate(-7.79)"/>
      <path class="cls-17" d="M28.49,16.75c.48-.09.67.66.27.88C28.21,17.93,28,16.86,28.49,16.75Z" transform="translate(-7.79)"/>
      <path class="cls-18" d="M17.45,13.41a1.07,1.07,0,0,1,.85,1.47c-.24.7-1.33.37-2.81.45s-2.12.3-2.21-.17,0-1.19,1.4-1.59A6.68,6.68,0,0,1,17.45,13.41Z" transform="translate(-7.79)"/>
      <path class="cls-18" d="M27,13.49A1.06,1.06,0,0,0,26.2,15c.27.68,1.34.29,2.83.28s2.13.18,2.2-.29,0-1.19-1.49-1.5A6.68,6.68,0,0,0,27,13.49Z" transform="translate(-7.79)"/>
      <path class="cls-19" d="M26.62,22c.53.37,1.89,1.83,3,.76.54-.52,1.4-2.61,1.11-5.37,1,1.13.61,3.21.31,4.68a11.18,11.18,0,0,0-.16,2.3c.07.91.76,1.86.9,2.8.17,1.12.16,2.68-1.1,3,.13,1.41-.25,2.21-1.74,2.06A1.62,1.62,0,0,1,26.3,34c.12,1.91-3.77,1.09-4.5.2-.2.9-1.58,1-2.31.84a2.92,2.92,0,0,1-1.87-1.68,2.24,2.24,0,0,1-2.49.17c-.83-.53-.78-1.57-.69-2.47-1.62.46-1.78-1.37-1.48-2.49-1.1-.24-1.2-2.24-1.2-3.16,0-1.13-.94-6.93.22-7.29s.87,1.13,1,1.78c.64,4.08,3.6,4.75,4.8,3.17,1.55-2,2.66-1.41,4.93-1.44C24.39,21.43,25.2,21,26.62,22Z" transform="translate(-7.79)"/>
      <path class="cls-20" d="M26.72,25.23c-.12-.58-1.45-.83-1.88-1.26-.3.74-1.61.27-2.1,0a2,2,0,0,1-2.39.17c-.09.42-1.44.78-1.51,1.33C20,27.41,26.08,26.68,26.72,25.23Z" transform="translate(-7.79)"/>
      <path class="cls-21" d="M20.47,25a9.74,9.74,0,0,1,4.31-.17A12.09,12.09,0,0,1,20.47,25Z" transform="translate(-7.79)"/>
      <path class="cls-22" d="M28.66,29.12c.14.43.51,1.25.26,1.66-.5.79-2.11.26-2.7-.05.22.43.85,1.2.41,1.67-.72.77-1.76-.78-2.35-.52-.38.16-.05,1.12-.64,1.38-.82.37-1.58-.87-2.22-1.16a1.79,1.79,0,0,1-1.76.79c-1-.16-.94-.76-1.18-1.58-.83.89-2.22,1.3-2.35-.33-1.08,1.41-1.19-1.59-.7-2.37a6.8,6.8,0,0,1,1.35-1.53c.8-.68,1.21-.42,2.18-.18a14.21,14.21,0,0,0,5.26.47c1.93-.33,3.46-1.74,5,0,.26.3.91,1,.75,1.47C29.81,29.2,28.8,29.54,28.66,29.12Z" transform="translate(-7.79)"/>
      <path class="cls-23" d="M28.47,12.83A36.73,36.73,0,0,0,16.23,13C20.35,13.07,23.59,13,28.47,12.83Z" transform="translate(-7.79)"/>
      <path class="cls-23" d="M27.56,11.67a32.13,32.13,0,0,0-10.74.11C20.43,11.88,23.28,11.83,27.56,11.67Z" transform="translate(-7.79)"/>
    </g>
  </g>
</svg>
