<svg id="레이어_1" data-name="레이어 1" xmlns="http://www.w3.org/2000/svg" xmlns:xlink="http://www.w3.org/1999/xlink" viewBox="0 0 33.47 40">
  <defs>
    <style>
      .cls-1 {
        fill: #381d18;
      }

      .cls-2 {
        fill: #ffc38f;
      }

      .cls-3 {
        fill: #ebebeb;
      }

      .cls-4 {
        fill: url(#linear-gradient);
      }

      .cls-5 {
        fill: #fbfbfb;
      }

      .cls-11, .cls-15, .cls-5 {
        opacity: 0.7;
      }

      .cls-6 {
        fill: #bc551e;
        opacity: 0.3;
      }

      .cls-7 {
        fill: #d14f2e;
        opacity: 0.4;
      }

      .cls-8 {
        fill: #593a2f;
      }

      .cls-9 {
        fill: #ff7752;
      }

      .cls-10 {
        fill: #261b18;
      }

      .cls-11 {
        fill: #f04d4d;
      }

      .cls-12 {
        fill: #8f3935;
      }

      .cls-13 {
        fill: #fff9f0;
      }

      .cls-14 {
        fill: #e8dac5;
      }

      .cls-15 {
        fill: #f0ded1;
      }

      .cls-16 {
        fill: #121b21;
      }
    </style>
    <linearGradient id="linear-gradient" x1="2788.85" y1="30.65" x2="2788.85" y2="32.99" gradientTransform="translate(-2767.63)" gradientUnits="userSpaceOnUse">
      <stop offset="0" stop-color="#eea17a"/>
      <stop offset="0" stop-color="#eea17a"/>
      <stop offset="0.36" stop-color="#f7b88e"/>
      <stop offset="0.7" stop-color="#fdc69a"/>
      <stop offset="1" stop-color="#ffcb9e"/>
    </linearGradient>
  </defs>
  <title>1</title>
  <g>
    <path class="cls-1" d="M7.34,29c-3.51,6.46,6.49,8.05,11.44,3.77,2.12-1.83,3.82,3,6.38,3.24,3.46.31,5.29-2.19,4.58-4.42.59,1.87,2.66,2,4.21,1.3A4,4,0,0,0,36.27,29a2.49,2.49,0,0,1-2.84.58,1.92,1.92,0,0,1-.9-3c.95-1.37,3.68-3.12,1-4.57a2,2,0,0,0,1.79,0c2.18-1,1.26-5.69-1.21-4.18,1.67-.06.06,2.62-.88.6-.59-1.27.77-1.89,1.38-2.74a4.84,4.84,0,0,0,.87-3.53c-.3-3.46-3.46-5.63-5.28-8.3-2-2.9-4.79-4.75-8.4-3.44A5.7,5.7,0,0,0,19.57,2.1,3.69,3.69,0,0,0,18.44.51c-.06.52-.09,1-.1,1.57-2-1.21-5-.72-6.74.39C9.28,4,9.49,6.3,8.56,8.57c-.86,2.08-3.57,4.49-3.4,6.9.11,1.51,1.18,2.29,1.11,3.84-.06,1.29-1.46,2-.82,3.26s3.27.84,1.93,3c-1.23,2-3.63-.37-2.13-.69-1.66-.81-2.35,1.35-2.11,2.65C3.48,29.34,6,29.37,7.34,29Z" transform="translate(-3.09)"/>
    <g>
      <path class="cls-2" d="M27.94,40c-.08-.49-.41-3.48-.53-4l-2.05.45c.11.52.32,3,.39,3.59Z" transform="translate(-3.09)"/>
      <path class="cls-3" d="M24.36,37.18c-.26-1.2-.62-1.62-.72-1.62L24,31.74c1.19.1,3.3.85,4.11,4.64Z" transform="translate(-3.09)"/>
      <path class="cls-2" d="M14.94,40c.08-.49.41-3.48.53-4l2,.45c-.11.52-.32,3-.39,3.59Z" transform="translate(-3.09)"/>
      <path class="cls-3" d="M18.39,37.18l-3.73-.8c.81-3.79,2.92-4.54,4.1-4.64l.35,3.82C19,35.56,18.64,36,18.39,37.18Z" transform="translate(-3.09)"/>
      <path class="cls-3" d="M24.82,40a18.65,18.65,0,0,1,.65-3.36c.72-2.7.8-4.34-.86-4.89a10.58,10.58,0,0,0-6.37.05c-1.42.6-1.87,1.59-.9,4.59A15.78,15.78,0,0,1,18.16,40Z" transform="translate(-3.09)"/>
      <path class="cls-4" d="M23.28,31.62c-.35-.62,0-1.61,0-2.67.14-2.39-4-2.48-4,.13a6.49,6.49,0,0,1-.15,2.42C17.54,34.08,24.81,34.39,23.28,31.62Z" transform="translate(-3.09)"/>
      <path class="cls-5" d="M17.9,36.08c.34.89,2.06,1.13,3.55,1.12,2.95,0,4.05-.94,3.55-2-.14-.3-.77-.5-1.52-.28a9.73,9.73,0,0,1-4.55-.08A.9.9,0,0,0,17.9,36.08Z" transform="translate(-3.09)"/>
    </g>
    <g>
      <path class="cls-2" d="M31.69,16.45c-.28-7.58-5.87-10.8-11.36-10.1s-9.84,5.15-9.12,12.79S17.07,31.4,22.6,31.36C26.84,31.32,32,24.34,31.69,16.45Z" transform="translate(-3.09)"/>
      <path class="cls-2" d="M9.51,21.37a5,5,0,0,0,2.14.07.16.16,0,0,0,0-.07c.31-.53-.32-3.08-.49-3.6-.44-1.32-1.12-2.23-2.38-1.78C6.19,16.92,7.34,20.74,9.51,21.37Z" transform="translate(-3.09)"/>
      <path class="cls-6" d="M13.17,15q0,.32,0,.63c0,.92.81,2.37.65,3.27-.28,1.69-1.51,2.83,0,4.34-1.78,0-3.17-1.13-3.27-2.15-.26-2.55,1.1-1.87-.18-3.07-2.6-2.45-.45-2.74-.27-4.23s1.59-3,2.41-4.3c1.16-1.81,3.28-2.65,5.29-3.1a27.36,27.36,0,0,1,9-.46c1.39.15,2.89.16,3.65,1.55.62,1.14,1.32,3.25.88,4.49-.3.84-1.38.71-2.08.79a3.75,3.75,0,0,0-2.56,1.63c-1.14,1.57-1.83,2.7-4.56,2.7-1.67,0-3.69-2.47-2.31-3.89a2,2,0,0,0-1.18.22c-1.15.45-5.21,2-4.89-.82A14,14,0,0,0,13.17,15Z" transform="translate(-3.09)"/>
      <path class="cls-7" d="M11,20.55c1.21-.53.28-2.72-.56-3.13s-2.53,0-1.78,1.28c.53-1.07,1.26-.28,1.08.49-.12.53-.79.48-.18,1.21C9.9,20.79,10.64,20.71,11,20.55Z" transform="translate(-3.09)"/>
      <path class="cls-1" d="M27.07,12.8a5,5,0,0,1,2.2-.4c1.71,0,2.3-1.28,2.22-2.91C31.28,5,27.06,2.76,23.14,2.41A28.3,28.3,0,0,0,19.81,2a12.48,12.48,0,0,0-5.47,1.61C11.82,5,10.2,8,9.46,10.73a10.94,10.94,0,0,0-.31,5c.3,1.44,2.17,2,2.28,3.48.05.67-.53,1.18-.52,1.82a2.09,2.09,0,0,0,.64,1.44,3.49,3.49,0,0,0,1.57.48c-1-1.15,0-1.82.06-2.94a8.66,8.66,0,0,0-.38-3,4.59,4.59,0,0,1,1.37-5.38c.16,2.06,2.26,2,3.75,1.68.68-.13,2.64-.93,3,.09.21.64-.8,1.2-1,.47,0,1.08,0,2,1.34,2.26a4,4,0,0,0,4.56-2A3.44,3.44,0,0,1,27.07,12.8Z" transform="translate(-3.09)"/>
      <path class="cls-8" d="M29.16,10.43a8,8,0,0,1-3.24,2.34,12.08,12.08,0,0,0-1.56,1,3.47,3.47,0,0,1-2.9.58c1-.66.37-2.05-.58-2.27-1.2-.27-2.45.51-3.66.09C13.27,10.79,19,9.78,20,9.1a3,3,0,0,0,1.22-3,9.11,9.11,0,0,0-1.55-2.76A4.62,4.62,0,0,1,21.79,2a7.11,7.11,0,0,1,6.89,2.42C30.37,6.84,30.34,8.85,29.16,10.43Z" transform="translate(-3.09)"/>
      <path class="cls-8" d="M11.55,13.94a4.09,4.09,0,0,0,.34,2.64A5.48,5.48,0,0,1,8.69,14c-.61-1.23.09-2.14.81-3.19,2.12-3.09,1.11-7.4,6.1-7.74,2.56-.17,3.52,2,2.18,4.12C16.17,9.76,12.45,10.74,11.55,13.94Z" transform="translate(-3.09)"/>
    </g>
    <g>
      <path class="cls-9" d="M30,21a.91.91,0,0,1,.11.34c.18,1.23-2.41.68-2.67.14-.48-1,.43-1.22,1.08-1.18A1.77,1.77,0,0,1,30,21Z" transform="translate(-3.09)"/>
      <path class="cls-9" d="M17.36,20.94a1.2,1.2,0,0,1,.17.36c.4,1.39-2.54,1.35-2.91.78-.7-1.08.26-1.51,1-1.61A1.82,1.82,0,0,1,17.36,20.94Z" transform="translate(-3.09)"/>
      <path class="cls-10" d="M31.1,15.55c-.8-1-3.73-1-4.81.11C27.73,15.8,28.93,15.37,31.1,15.55Z" transform="translate(-3.09)"/>
      <path class="cls-7" d="M24.14,21.46c.18.2-.39.77-1.07.83s-1.36-.62-1-.81.54,0,1,0S23.92,21.22,24.14,21.46Z" transform="translate(-3.09)"/>
      <path class="cls-10" d="M13.44,15.35c1.19-1,4.5-1.14,5.49.14C17.05,15.53,16.14,15.41,13.44,15.35Z" transform="translate(-3.09)"/>
      <g>
        <path class="cls-11" d="M22.7,23.2c-1.93,0-4.77.58-6.28-.31,2.48,4.28,4,5.08,6,5.23,2.48.19,3.35-1.54,3.75-2.83A7.35,7.35,0,0,1,28.11,23C26.56,23.37,25,23.15,22.7,23.2Z" transform="translate(-3.09)"/>
        <path class="cls-12" d="M17.58,23.64a19.3,19.3,0,0,0,9.51,0,2.68,2.68,0,0,0-1.27,1.42c-.38,1-1.69,1.62-3.67,1.55A5.78,5.78,0,0,1,17.58,23.64Z" transform="translate(-3.09)"/>
        <path class="cls-13" d="M18.72,23.91a1.55,1.55,0,0,0,1.17,1.22,10,10,0,0,0,4.5.26c1.06-.15,1.6-1.5,1.6-1.5A20.79,20.79,0,0,1,18.72,23.91Z" transform="translate(-3.09)"/>
        <path class="cls-13" d="M19.22,25.17c-.11-.23,0-.59.45-.25a5.93,5.93,0,0,0,3.28.57c1.31,0,2-.43,2.24-.18S24.25,27,22,26.66,19.22,25.17,19.22,25.17Z" transform="translate(-3.09)"/>
        <path class="cls-14" d="M19,24.53s5.29-.39,6.55.11a2.88,2.88,0,0,0,.45-.75,24,24,0,0,1-7.27,0A1.41,1.41,0,0,0,19,24.53Z" transform="translate(-3.09)"/>
        <path class="cls-14" d="M20.08,25.1a7.27,7.27,0,0,0,4.17.25A4.92,4.92,0,0,1,20.08,25.1Z" transform="translate(-3.09)"/>
      </g>
      <path class="cls-10" d="M16.84,19.65a1.93,1.93,0,0,0-1.38,0c-1-.78-.27-3.41,1.16-2.88C17.68,17.13,17.74,19.08,16.84,19.65Z" transform="translate(-3.09)"/>
      <path class="cls-15" d="M16.84,17.61c.52-.08.69.77.24,1C16.47,18.91,16.25,17.7,16.84,17.61Z" transform="translate(-3.09)"/>
      <path class="cls-10" d="M29.14,16.76c.76.49.7,2,.16,2.72a1.76,1.76,0,0,0-1.26.2C26.45,19.2,27.71,15.85,29.14,16.76Z" transform="translate(-3.09)"/>
      <path class="cls-15" d="M29.05,17.48c.5,0,.57.87.13,1C28.57,18.75,28.49,17.49,29.05,17.48Z" transform="translate(-3.09)"/>
      <path class="cls-16" d="M32.29,17.21a2.69,2.69,0,0,1-3.33.25,1.2,1.2,0,0,0-1.52.28s.43-1.55,1.74-1C29.88,17,30.69,17.75,32.29,17.21Z" transform="translate(-3.09)"/>
      <path class="cls-16" d="M12.31,17.4a3,3,0,0,0,3.49.13,1.37,1.37,0,0,1,1.59.12s-.36-1.54-1.73-.84A4.24,4.24,0,0,1,12.31,17.4Z" transform="translate(-3.09)"/>
    </g>
  </g>
</svg>
