<svg id="레이어_1" data-name="레이어 1" xmlns="http://www.w3.org/2000/svg" xmlns:xlink="http://www.w3.org/1999/xlink" viewBox="0 0 31.54 40.03">
  <defs>
    <style>
      .cls-1 {
        fill: #e8e8e8;
      }

      .cls-2 {
        fill: #313142;
      }

      .cls-3 {
        fill: #f5f5f5;
      }

      .cls-4 {
        fill: url(#linear-gradient);
      }

      .cls-5 {
        fill: #fff9f0;
      }

      .cls-6 {
        fill: #fff;
        opacity: 0.07;
      }

      .cls-7 {
        fill: #261b18;
      }

      .cls-8 {
        fill: #ffc38f;
      }

      .cls-9 {
        fill: #bc551e;
      }

      .cls-10, .cls-9 {
        opacity: 0.4;
      }

      .cls-10 {
        fill: #d14f2e;
      }

      .cls-11 {
        fill: #45362e;
      }

      .cls-12 {
        fill: #ff7752;
      }

      .cls-13 {
        fill: #1c5c57;
      }

      .cls-14 {
        fill: #6cd9d2;
        opacity: 0.7;
      }

      .cls-15 {
        fill: #121b21;
      }

      .cls-16 {
        fill: #ff3b3b;
      }
    </style>
    <linearGradient id="linear-gradient" x1="21.47" y1="29.78" x2="21.47" y2="31.96" gradientUnits="userSpaceOnUse">
      <stop offset="0" stop-color="#ee996d"/>
      <stop offset="0.02" stop-color="#ee9a6e"/>
      <stop offset="0.37" stop-color="#f8b181"/>
      <stop offset="0.71" stop-color="#fdbf8d"/>
      <stop offset="1" stop-color="#ffc491"/>
    </linearGradient>
  </defs>
  <title>1</title>
  <g>
    <g>
      <path class="cls-1" d="M18.52,34.49l-1-2c-1.37.7-1.72,2.3-2.09,4-.13.57-.49,2.16-.85,3.55h2.3c.31-1.26.62-2.63.72-3.06C17.84,35.86,18.09,34.72,18.52,34.49Z" transform="translate(-4.43)"/>
      <path class="cls-1" d="M25.41,32.49l-1,2c.43.23.68,1.37.92,2.48.1.43.41,1.8.72,3.06h2.3c-.36-1.39-.73-3-.85-3.55C27.13,34.79,26.77,33.19,25.41,32.49Z" transform="translate(-4.43)"/>
      <path class="cls-1" d="M25.38,32.41c-1.62-1.65-5.87-1.52-7.65-.12s.05,5.12.35,7.74H25C25,36.45,27.22,34.28,25.38,32.41Z" transform="translate(-4.43)"/>
      <path class="cls-2" d="M25.51,36.85a7.6,7.6,0,0,1-.15-4.46c-1.63-1.62-6.07-1.49-7.91,0a7.15,7.15,0,0,1-.17,4.16A18.51,18.51,0,0,1,18,40h7.06A9.64,9.64,0,0,1,25.51,36.85Z" transform="translate(-4.43)"/>
      <path class="cls-3" d="M23.51,31.05a6.4,6.4,0,0,0-4.36.05c-2.14,1,.13,4.35.13,4.35l2.3-.58,2.29.5S25.6,31.93,23.51,31.05Z" transform="translate(-4.43)"/>
      <path class="cls-4" d="M23.54,31.36c-.38-.3-.29-1.22-.23-2.29.14-2.41-4-2.5-4,.13,0,1.17,0,1.91-.27,2.23-.6.62-.55,1.72,2.49,3.13C23.18,33.73,25.33,32.79,23.54,31.36Z" transform="translate(-4.43)"/>
      <g>
        <path class="cls-5" d="M18.91,31.45a.36.36,0,0,0-.34.37.35.35,0,0,0,.37.34.35.35,0,0,0,.34-.36A.37.37,0,0,0,18.91,31.45Z" transform="translate(-4.43)"/>
        <path class="cls-5" d="M19.72,32a.37.37,0,0,0-.34.37.36.36,0,1,0,.34-.37Z" transform="translate(-4.43)"/>
        <path class="cls-5" d="M20.77,32.38a.36.36,0,0,0,0,.71.37.37,0,0,0,.35-.37A.35.35,0,0,0,20.77,32.38Z" transform="translate(-4.43)"/>
        <path class="cls-5" d="M21.82,32.43a.36.36,0,0,0-.34.37.35.35,0,0,0,.37.34.34.34,0,0,0,.33-.36A.35.35,0,0,0,21.82,32.43Z" transform="translate(-4.43)"/>
        <path class="cls-5" d="M23.73,31.42a.34.34,0,0,0-.34.36.35.35,0,0,0,.36.35.36.36,0,0,0,.34-.37A.35.35,0,0,0,23.73,31.42Z" transform="translate(-4.43)"/>
        <path class="cls-5" d="M22.88,32a.36.36,0,0,0-.34.37.35.35,0,0,0,.37.34.35.35,0,0,0,.34-.36A.36.36,0,0,0,22.88,32Z" transform="translate(-4.43)"/>
      </g>
      <path class="cls-6" d="M23.28,35.82a7,7,0,0,1-4.1-.07c-.74-.19-1.16.7-.94,1.47.31,1,1.85,1.27,3.2,1.25,2.66,0,3.65-1.1,3.2-2.34C24.52,35.79,24,35.56,23.28,35.82Z" transform="translate(-4.43)"/>
    </g>
    <g>
      <path class="cls-7" d="M24,2.45A3.32,3.32,0,0,1,23.68,0a3.51,3.51,0,0,0-1.94,2.14,5,5,0,0,0-4-2.15,5.6,5.6,0,0,1,1.5,2.42c-1,.14-1.68.16-2.68.29-5.12.68-8.12,3.79-9.45,8.45-.64,2.2-.35,5.26,0,7.51.16,1.14,1.3,4,0,4.92a1,1,0,0,1-1.62-.94A2.1,2.1,0,0,0,5.11,26a4.62,4.62,0,0,0,4.25.57,6.78,6.78,0,0,0,1.31,5.11,3.32,3.32,0,0,1,1.1-1.83c-.33.26,1.09,1,1.24,1a3.43,3.43,0,0,0,1.69-.32c1.46-.5,2.59-1.33,4.16-1.66,1.26-.27,12.39,1.8,12.05-.41.09.58.14,1.17.22,1.75a4.79,4.79,0,0,0,2.06-4c1.74-.25,2.89-.76,2.36-2.73-.28.78-1.23.74-1.88.44-2.13-1-.62-4.68.31-7.18a12.38,12.38,0,0,0,.56-1.74c.06,0,1.22,2,1.21,2.06C36.37,13.83,36.56,3,24,2.45Z" transform="translate(-4.43)"/>
      <path class="cls-5" d="M30.91,22.63a.9.9,0,0,0-.88.92.9.9,0,1,0,.88-.92Z" transform="translate(-4.43)"/>
      <path class="cls-8" d="M19.6,5.38c-5.07,1.07-8.55,8.45-7.52,15.32.77,5.14,4.8,10.74,10.75,10.24s9-8.14,8.13-14.47C30,9.59,26.69,3.89,19.6,5.38Z" transform="translate(-4.43)"/>
      <path class="cls-9" d="M29.63,7.66a14.25,14.25,0,0,0-3.48-1.28A22.61,22.61,0,0,0,20,5.49c-1.85,0-3.87-.09-5.58.72A4.26,4.26,0,0,0,12,8.33a9.61,9.61,0,0,0,.05,4.3,11.52,11.52,0,0,0,1.43,4.24A5.25,5.25,0,0,1,14.53,14c.5-.64,1.21-1.8,2.07-1.95,0,0-.58,1.67-.67,1.84a3.53,3.53,0,0,1-1.42,1.2c.53.46,2.1.37,2.74.24a3.22,3.22,0,0,0,1.32-.51,1.52,1.52,0,0,0-.07.52c.84-.11,1.69-.08,2.54-.27a11.34,11.34,0,0,0,1.84-.61,1.17,1.17,0,0,0-.19.41,2.82,2.82,0,0,0,.51-.19,1.54,1.54,0,0,0-.13.6c1.64,0,3.35-.07,5-.23,2.65-.26,3.45-5.29,2.86-6.25A3.75,3.75,0,0,0,29.63,7.66Z" transform="translate(-4.43)"/>
      <path class="cls-8" d="M10.27,17.85c-2.48.73-1.44,4.37.61,5.08a4.79,4.79,0,0,0,2,.19.21.21,0,0,1,0-.06c.29-.48-.16-3.14-.33-3.64C12.21,18.16,11.46,17.51,10.27,17.85Z" transform="translate(-4.43)"/>
      <path class="cls-10" d="M11.16,19.19c-.56-.25-1.95.23-1.28,1.33.33-1,1-.37.87.36-.05.48-.57.5-.05,1.12a.92.92,0,0,0,1.13,0C12.73,21.43,11.85,19.5,11.16,19.19Z" transform="translate(-4.43)"/>
      <path class="cls-7" d="M30.26,6.93c-1.08-.74-1.7-1.9-3-2.51a15.26,15.26,0,0,0-3.59-1.18,17.3,17.3,0,0,0-5.23-.08C15.62,3.54,12.16,5,11.3,8c-.54,1.89-.22,4.06-.05,6,.2,2.21-.13,4.84,1.95,6.3.13-.53.1-1.11.18-1.66a11.19,11.19,0,0,0,.25-2.17,6.86,6.86,0,0,1,0-2.07,5.57,5.57,0,0,1,2.1-3c.81-.65,1.31-.34,1.06.65a4.77,4.77,0,0,1-1.69,2.18,24.4,24.4,0,0,0,2.58,0,3.9,3.9,0,0,0,2.17-1.65c-.41.73-.27,1.2-.94,1.85,2,.58,3.1-.08,4.75-1.31a4.25,4.25,0,0,1-.5,1l.89-.5c-.12.35-.26.67-.39,1,1.31-.22,2.64.29,3.94,0,1.62-.42,4.17-2.43,4.45-4.17a3.07,3.07,0,0,0-.42-2A4.72,4.72,0,0,0,30.26,6.93Z" transform="translate(-4.43)"/>
      <path class="cls-11" d="M28.32,5.1c-3.77.36-6.44,4.36-10.44,3.5a21.49,21.49,0,0,0-5-.81c-1.69,0-3.93.71-4.69,2.36-.16.35-1.28,4.42-.42,4.53A6.36,6.36,0,0,0,10.71,14c.9-.31,1.2.29,1.87.72-.51-.33,1.62-2.82,1.94-3.09A2.49,2.49,0,0,1,16.86,11l.24.13c.82.53,0,1.71-.17,2.4a17.1,17.1,0,0,0,3.93-2.36c-.12.85-.31,1.63-.5,2.44A4.33,4.33,0,0,0,23,12.24c.4-.39.73-1,1.23-1.23.26-.14.43-.29.52.06a7.21,7.21,0,0,1-.42,1.21c.37-.26,1.27-1.53,1.77-1.38s-1.18,2.94-1.4,2.89a5.93,5.93,0,0,0,4.37-.9,6.72,6.72,0,0,0,1.64-1.46c.54-.7.09-1.28.3-2.07a5.15,5.15,0,0,1,.7,1.12,6.18,6.18,0,0,1-.19,3.63c1.73.69,2.08-.63,2.38-2.14.35.47.56,1,.92,1.51C35.56,9.78,32.38,4.72,28.32,5.1Z" transform="translate(-4.43)"/>
      <path class="cls-5" d="M11.64,23.49a.9.9,0,1,0,.91.89A.89.89,0,0,0,11.64,23.49Z" transform="translate(-4.43)"/>
    </g>
    <g>
      <path class="cls-12" d="M30.28,20.94a1.74,1.74,0,0,0-1.48-.66c-.65,0-1.54.18-1,1.18.26.53,2.83,1,2.63-.2A1,1,0,0,0,30.28,20.94Z" transform="translate(-4.43)"/>
      <path class="cls-12" d="M17.69,20.93A1.8,1.8,0,0,0,16,20.5c-.72.12-1.66.57-1,1.62.39.55,3.29.52,2.86-.84A1,1,0,0,0,17.69,20.93Z" transform="translate(-4.43)"/>
      <path class="cls-7" d="M26.47,15.62a39.88,39.88,0,0,0,5,.36C30.69,14.76,27.6,14.56,26.47,15.62Z" transform="translate(-4.43)"/>
      <path class="cls-10" d="M23.33,21.41c-.48,0-.68-.18-1,0s.41.84,1,.77,1.22-.64,1-.84S23.87,21.4,23.33,21.41Z" transform="translate(-4.43)"/>
      <path class="cls-7" d="M13.84,16.05c2.66-.21,3.57-.18,5.41-.41C18.15,14.48,14.91,14.9,13.84,16.05Z" transform="translate(-4.43)"/>
      <path class="cls-13" d="M16.94,17c-1.41-.5-2.07,2.11-1.07,2.87a1.83,1.83,0,0,1,1.36,0A1.79,1.79,0,0,0,16.94,17Z" transform="translate(-4.43)"/>
      <path class="cls-14" d="M16.7,18c-.58.1-.33,1.29.27,1C17.4,18.71,17.22,17.87,16.7,18Z" transform="translate(-4.43)"/>
      <path class="cls-13" d="M29.5,16.89c-1.41-.91-2.65,2.41-1.08,2.88a1.7,1.7,0,0,1,1.24-.2C30.2,18.87,30.26,17.37,29.5,16.89Z" transform="translate(-4.43)"/>
      <path class="cls-14" d="M28.94,17.69c-.55,0-.48,1.25.12,1C29.5,18.55,29.44,17.68,28.94,17.69Z" transform="translate(-4.43)"/>
      <path class="cls-15" d="M29.54,16.82c-1.29-.5-1.71,1-1.71,1a1.19,1.19,0,0,1,1.5-.29,2.66,2.66,0,0,0,3.29-.24C31,17.87,30.24,17.09,29.54,16.82Z" transform="translate(-4.43)"/>
      <path class="cls-15" d="M16,17.1a4.16,4.16,0,0,1-3.29.66,2.93,2.93,0,0,0,3.45,0,1.33,1.33,0,0,1,1.56.09S17.34,16.38,16,17.1Z" transform="translate(-4.43)"/>
      <g>
        <path class="cls-16" d="M16.13,23.13c.72,1.35,2.46.7,1.72-.69A1.31,1.31,0,0,1,16.13,23.13Z" transform="translate(-4.43)"/>
        <path class="cls-16" d="M27.64,22.2a1,1,0,1,0,1.88.53A1.46,1.46,0,0,1,27.64,22.2Z" transform="translate(-4.43)"/>
        <path class="cls-16" d="M28.46,22.94a.4.4,0,0,0-.52.21,5.27,5.27,0,0,1-5.18,3.21,5.42,5.42,0,0,1-4.94-2.84.45.45,0,0,0-.54-.22.33.33,0,0,0-.21.47,6.2,6.2,0,0,0,5.52,3.31h.22a6,6,0,0,0,5.92-3.68A.38.38,0,0,0,28.46,22.94Z" transform="translate(-4.43)"/>
      </g>
    </g>
  </g>
</svg>
