<svg xmlns="http://www.w3.org/2000/svg" xmlns:xlink="http://www.w3.org/1999/xlink" viewBox="0 0 40 40">
  <defs>
    <style>
      .cls-1 {
        isolation: isolate;
      }

      .cls-2 {
        fill: url(#linear-gradient);
      }

      .cls-3, .cls-4 {
        opacity: 0.25;
      }

      .cls-10, .cls-11, .cls-12, .cls-3, .cls-5 {
        mix-blend-mode: multiply;
      }

      .cls-3 {
        fill: url(#radial-gradient);
      }

      .cls-4, .cls-8 {
        fill: #fff;
      }

      .cls-5 {
        opacity: 0.35;
        fill: url(#linear-gradient-2);
      }

      .cls-6 {
        fill: #5d4037;
      }

      .cls-7 {
        fill: #4e342e;
      }

      .cls-9 {
        fill: #f5f5f5;
      }

      .cls-10 {
        fill: #cfd8dc;
      }

      .cls-11, .cls-12 {
        opacity: 0.5;
      }

      .cls-11 {
        fill: url(#linear-gradient-3);
      }

      .cls-12 {
        fill: url(#linear-gradient-4);
      }
    </style>
    <linearGradient id="linear-gradient" x1="20" y1="-0.67" x2="20" y2="40.75" gradientUnits="userSpaceOnUse">
      <stop offset="0" stop-color="#ffe082"/>
      <stop offset="1" stop-color="#ffbf66"/>
    </linearGradient>
    <radialGradient id="radial-gradient" cx="20" cy="20" r="20" gradientUnits="userSpaceOnUse">
      <stop offset="0.8" stop-color="#fff"/>
      <stop offset="1" stop-color="#ffbf66"/>
    </radialGradient>
    <linearGradient id="linear-gradient-2" x1="20" y1="17.63" x2="20" y2="40.41" xlink:href="#linear-gradient"/>
    <linearGradient id="linear-gradient-3" x1="22.78" y1="10.32" x2="31.53" y2="10.32" xlink:href="#linear-gradient"/>
    <linearGradient id="linear-gradient-4" x1="408.59" y1="7.65" x2="417.34" y2="7.65" gradientTransform="matrix(-1, 0, 0, 1, 425.81, 0)" xlink:href="#linear-gradient"/>
  </defs>
  <title>1</title>
  <g class="cls-1">
    <g id="레이어_1" data-name="레이어 1">
      <g>
        <g>
          <circle class="cls-2" cx="20" cy="20" r="20"/>
          <circle class="cls-3" cx="20" cy="20" r="20"/>
          <path class="cls-4" d="M36.5,15.12c0,7.43-7.39,0-16.5,0s-16.5,7.43-16.5,0S10.89,1.67,20,1.67,36.5,7.69,36.5,15.12Z"/>
          <path class="cls-5" d="M20,36A20,20,0,0,1,.1,18,18.86,18.86,0,0,0,0,20a20,20,0,0,0,40,0,18.86,18.86,0,0,0-.1-2A20,20,0,0,1,20,36Z"/>
        </g>
        <g>
          <path class="cls-4" d="M13.35,22.09a5.38,5.38,0,1,1,5.34-5.38A5.36,5.36,0,0,1,13.35,22.09Z"/>
          <path class="cls-6" d="M18,16.71A4.67,4.67,0,1,1,13.35,12,4.74,4.74,0,0,1,18,16.71Z"/>
          <path class="cls-7" d="M13.35,13.34a4.69,4.69,0,0,1,4.62,4,4.91,4.91,0,0,0,.05-.67,4.67,4.67,0,1,0-9.34,0,4.91,4.91,0,0,0,.05.67A4.68,4.68,0,0,1,13.35,13.34Z"/>
          <path class="cls-8" d="M17.35,16.71a4,4,0,1,1-4-4A4,4,0,0,1,17.35,16.71Z"/>
          <path class="cls-9" d="M13.35,20.07a3.36,3.36,0,1,1,3.33-3.36A3.35,3.35,0,0,1,13.35,20.07Z"/>
          <path class="cls-8" d="M17.1,16.14c0,1.69-1.68,0-3.75,0s-3.76,1.69-3.76,0a3.67,3.67,0,0,1,3.76-3.33A3.66,3.66,0,0,1,17.1,16.14Z"/>
          <path class="cls-6" d="M14.94,16.71a1.6,1.6,0,0,1-3.19,0A1.6,1.6,0,0,1,14.94,16.71Z"/>
          <path class="cls-10" d="M13.35,13.35a4,4,0,0,1,4,3.7c0-.11,0-.23,0-.34a4,4,0,1,0-8,0c0,.11,0,.23,0,.34A4,4,0,0,1,13.35,13.35Z"/>
        </g>
        <g>
          <path class="cls-4" d="M19.09,32.84c-.48,0-4.72,0-4.77-1.5,0-.83.87-1,2.5-1.4a20.3,20.3,0,0,0,4.74-1.53A7.53,7.53,0,0,0,25.22,25,3.08,3.08,0,0,1,28,23.13a3.69,3.69,0,0,1,1.72.47A2.52,2.52,0,0,1,31,25.34a3.62,3.62,0,0,1-.79,2.9,11,11,0,0,1-4,3.1A17.52,17.52,0,0,1,19.09,32.84Z"/>
          <path class="cls-6" d="M29.69,27.83A10.36,10.36,0,0,1,26,30.74c-5.32,2.4-10.95,1.2-11,.58s3.91-.77,6.89-2.32a8.21,8.21,0,0,0,3.94-3.7,2.38,2.38,0,0,1,3.54-1.11C30.78,25,30.59,26.67,29.69,27.83Z"/>
          <path class="cls-7" d="M16.7,32a21.56,21.56,0,0,0,5.17-1.65,8.16,8.16,0,0,0,3.94-3.7,2.38,2.38,0,0,1,3.54-1.11,1.87,1.87,0,0,1,.95,1.1,2,2,0,0,0-.95-2.43,2.38,2.38,0,0,0-3.54,1.11A8.21,8.21,0,0,1,21.87,29c-3,1.55-6.91,1.7-6.89,2.32C15,31.53,15.64,31.8,16.7,32Z"/>
        </g>
        <g>
          <path class="cls-4" d="M24.17,19.4a2.79,2.79,0,0,1-2.78-2.78,2.91,2.91,0,0,1,2.68-2.77,8.84,8.84,0,0,1,1.47-.12,8.38,8.38,0,0,1,1.75.18c5.17,1.06,5.07,1.71,5,2.19-.11.65-.73.68-1.59.73a8.36,8.36,0,0,0-3.12.62,3.28,3.28,0,0,0-1,.83A2.81,2.81,0,0,1,24.17,19.4Z"/>
          <path class="cls-6" d="M31.63,16c-.05.32-2.55,0-4.34.86-1.47.74-1.31,1.88-3.12,1.88a2.11,2.11,0,0,1-2.11-2.11,2.25,2.25,0,0,1,2.11-2.11,8.32,8.32,0,0,1,3,.05C29.26,15,31.68,15.68,31.63,16Z"/>
          <path class="cls-7" d="M24.17,15.84a8.56,8.56,0,0,1,3,.05c.62.13,1.27.28,1.87.44,1.34-.22,2.56-.12,2.6-.34s-2.37-1-4.47-1.43a8.32,8.32,0,0,0-3-.05,2.25,2.25,0,0,0-2.11,2.11,2.16,2.16,0,0,0,.12.68A2.46,2.46,0,0,1,24.17,15.84Z"/>
        </g>
        <g>
          <g>
            <path class="cls-11" d="M24.36,8.19c2.67.72,5.74,1.72,7.17,4.3-1.59-1.52-3.94-1.9-6.07-1.88-.77,0-2,.27-2.48-.52a1.27,1.27,0,0,1,1.38-1.9C27,8.9,23.42,7.93,24.36,8.19Z"/>
            <path class="cls-6" d="M24.36,7.52c2.67.72,5.74,1.72,7.17,4.3-1.59-1.52-3.94-1.89-6.07-1.88-.77,0-2,.27-2.48-.51a1.28,1.28,0,0,1,1.38-1.91C27,8.23,23.42,7.26,24.36,7.52Z"/>
          </g>
          <g>
            <path class="cls-12" d="M15.64,5.52C13,6.24,9.9,7.24,8.47,9.82c1.59-1.52,3.94-1.89,6.07-1.88.77,0,2,.27,2.48-.51a1.28,1.28,0,0,0-1.38-1.91C13,6.23,16.58,5.26,15.64,5.52Z"/>
            <path class="cls-6" d="M15.64,4.85C13,5.57,9.9,6.58,8.47,9.16c1.59-1.52,3.94-1.9,6.07-1.89.77,0,2,.28,2.48-.51a1.28,1.28,0,0,0-1.38-1.91Z"/>
          </g>
        </g>
      </g>
    </g>
  </g>
</svg>
