<svg xmlns="http://www.w3.org/2000/svg" xmlns:xlink="http://www.w3.org/1999/xlink" viewBox="0 0 40 40">
  <defs>
    <style>
      .cls-1 {
        isolation: isolate;
      }

      .cls-2 {
        fill: url(#linear-gradient);
      }

      .cls-13, .cls-3, .cls-4 {
        opacity: 0.25;
      }

      .cls-13, .cls-15, .cls-16, .cls-17, .cls-3, .cls-5, .cls-6, .cls-7 {
        mix-blend-mode: multiply;
      }

      .cls-3 {
        fill: url(#radial-gradient);
      }

      .cls-14, .cls-4 {
        fill: #fff;
      }

      .cls-16, .cls-17, .cls-5 {
        opacity: 0.35;
      }

      .cls-5 {
        fill: url(#linear-gradient-2);
      }

      .cls-6, .cls-7 {
        opacity: 0.5;
      }

      .cls-6 {
        fill: url(#radial-gradient-2);
      }

      .cls-7 {
        fill: url(#radial-gradient-3);
      }

      .cls-8 {
        fill: #5d4037;
      }

      .cls-9 {
        fill: #4e342e;
      }

      .cls-10 {
        fill: #f5f5f5;
      }

      .cls-11, .cls-15 {
        fill: #cfd8dc;
      }

      .cls-12, .cls-13 {
        fill: #d95957;
      }

      .cls-16 {
        fill: url(#linear-gradient-3);
      }

      .cls-17 {
        fill: url(#linear-gradient-4);
      }
    </style>
    <linearGradient id="linear-gradient" x1="20" y1="-0.67" x2="20" y2="40.75" gradientUnits="userSpaceOnUse">
      <stop offset="0" stop-color="#ffe082"/>
      <stop offset="1" stop-color="#ffbf66"/>
    </linearGradient>
    <radialGradient id="radial-gradient" cx="20" cy="20" r="20" gradientUnits="userSpaceOnUse">
      <stop offset="0.8" stop-color="#fff"/>
      <stop offset="1" stop-color="#ffbf66"/>
    </radialGradient>
    <linearGradient id="linear-gradient-2" x1="20" y1="17.63" x2="20" y2="40.41" xlink:href="#linear-gradient"/>
    <radialGradient id="radial-gradient-2" cx="30.46" cy="23.02" r="6.03" gradientTransform="translate(46.72 -11.48) rotate(77.89)" gradientUnits="userSpaceOnUse">
      <stop offset="0" stop-color="#ff7043"/>
      <stop offset="1" stop-color="#fff"/>
    </radialGradient>
    <radialGradient id="radial-gradient-3" cx="-323.54" cy="23.02" r="6.03" gradientTransform="matrix(-0.98, -0.22, -0.22, 0.98, -301.07, -70.31)" xlink:href="#radial-gradient-2"/>
    <linearGradient id="linear-gradient-3" x1="-26.83" y1="16.54" x2="-18.65" y2="16.54" gradientTransform="translate(29.53 -14.22) rotate(-14.55)" xlink:href="#linear-gradient"/>
    <linearGradient id="linear-gradient-4" x1="-117.78" y1="-7.07" x2="-109.6" y2="-7.07" gradientTransform="matrix(-0.97, -0.25, -0.25, 0.97, -83.53, -14.22)" xlink:href="#linear-gradient"/>
  </defs>
  <title>1</title>
  <g class="cls-1">
    <g id="레이어_1" data-name="레이어 1">
      <g>
        <g>
          <circle class="cls-2" cx="20" cy="20" r="20"/>
          <circle class="cls-3" cx="20" cy="20" r="20"/>
          <path class="cls-4" d="M36.5,15.12c0,7.43-7.39,0-16.5,0s-16.5,7.43-16.5,0S10.89,1.67,20,1.67,36.5,7.69,36.5,15.12Z"/>
          <path class="cls-5" d="M20,36A20,20,0,0,1,.1,18,18.86,18.86,0,0,0,0,20a20,20,0,0,0,40,0,18.86,18.86,0,0,0-.1-2A20,20,0,0,1,20,36Z"/>
          <circle class="cls-6" cx="30.46" cy="23.17" r="6.35" transform="translate(1.42 48.09) rotate(-77.89)"/>
          <circle class="cls-7" cx="9.54" cy="23.17" r="6.35" transform="translate(-4.84 2.65) rotate(-12.65)"/>
        </g>
        <g>
          <path class="cls-4" d="M20,35.38h0c-8.43,0-12.2-5.9-13.09-9.35-.52-2-.27-3.54.65-4.05a2.09,2.09,0,0,1,1-.27,6.4,6.4,0,0,1,2.74,1,17.48,17.48,0,0,0,17.44,0,6.4,6.4,0,0,1,2.74-1,2.09,2.09,0,0,1,1,.27c.92.51,1.17,2.06.65,4.05a13,13,0,0,1-12.43,9.34H20Z"/>
          <path class="cls-8" d="M32.16,22.56c-2-1.1-4.51,3.15-12.16,3.15S9.8,21.46,7.84,22.56,8.61,34.66,20,34.72H20C31.39,34.66,34.11,23.65,32.16,22.56Z"/>
          <path class="cls-9" d="M7.84,23.89C9.8,22.79,12.35,27,20,27s10.2-4.25,12.16-3.15a1.34,1.34,0,0,1,.53,1c.15-1.17,0-2.05-.53-2.32-2-1.1-4.51,3.15-12.16,3.15S9.8,21.46,7.84,22.56c-.48.27-.68,1.15-.53,2.32A1.34,1.34,0,0,1,7.84,23.89Z"/>
          <path class="cls-10" d="M20,28.55c7.21,0,10.11-2.53,10.94-5.4a11.06,11.06,0,0,0-1.6.74,18.83,18.83,0,0,1-18.68,0,11.06,11.06,0,0,0-1.6-.74C9.89,26,12.79,28.55,20,28.55Z"/>
          <path class="cls-11" d="M20,26.37a18.57,18.57,0,0,1-9.34-2.48,11.06,11.06,0,0,0-1.6-.74,7,7,0,0,0,.27.72C11.23,24.51,14.09,27,20,27s8.77-2.53,10.67-3.17a7,7,0,0,0,.27-.72,11.06,11.06,0,0,0-1.6.74A18.57,18.57,0,0,1,20,26.37Z"/>
          <path class="cls-12" d="M20,32.19a6.4,6.4,0,0,0-4.8,1.75,14.66,14.66,0,0,0,4.77.78H20A14.91,14.91,0,0,0,24.79,34,6.34,6.34,0,0,0,20,32.19Z"/>
          <path class="cls-13" d="M24.25,33.44a15,15,0,0,1-4.21.61H20a15.13,15.13,0,0,1-4.23-.61,3.72,3.72,0,0,0-.54.5,14.66,14.66,0,0,0,4.77.78H20A14.91,14.91,0,0,0,24.79,34,3.77,3.77,0,0,0,24.25,33.44Z"/>
        </g>
        <g>
          <path class="cls-4" d="M13,20.75c-2.94,0-5.34-1.07-5.34-4a5.34,5.34,0,1,1,10.68,0C18.37,19.68,16,20.75,13,20.75Z"/>
          <path class="cls-8" d="M17.7,16.71c0,2.55-2.11,3.38-4.67,3.38s-4.67-.83-4.67-3.38A4.74,4.74,0,0,1,13,12,4.74,4.74,0,0,1,17.7,16.71Z"/>
          <path class="cls-9" d="M13,13.34a4.68,4.68,0,0,1,4.62,4,4.91,4.91,0,0,0,.05-.67,4.67,4.67,0,1,0-9.34,0,4.91,4.91,0,0,0,.05.67A4.68,4.68,0,0,1,13,13.34Z"/>
          <path class="cls-14" d="M17,16.71c0,2.23-1.79,2.7-4,2.7s-4-.47-4-2.7a4,4,0,1,1,8,0Z"/>
          <path class="cls-10" d="M13,18.74c-1.84,0-3.33-.17-3.33-2a3.33,3.33,0,1,1,6.66,0C16.36,18.57,14.87,18.74,13,18.74Z"/>
          <path class="cls-14" d="M16.79,16.14c0,1.69-1.69,0-3.76,0s-3.75,1.69-3.75,0A3.66,3.66,0,0,1,13,12.81,3.67,3.67,0,0,1,16.79,16.14Z"/>
          <path class="cls-8" d="M16,14.71a1.6,1.6,0,0,1-3.19,0A1.6,1.6,0,0,1,16,14.71Z"/>
          <path class="cls-15" d="M13,13.35a4,4,0,0,1,4,3.7c0-.11,0-.23,0-.34a4,4,0,1,0-8,0c0,.11,0,.23,0,.34A4,4,0,0,1,13,13.35Z"/>
        </g>
        <g>
          <path class="cls-4" d="M27,20.75c-2.94,0-5.34-1.07-5.34-4a5.34,5.34,0,1,1,10.68,0C32.38,19.68,30,20.75,27,20.75Z"/>
          <path class="cls-8" d="M31.72,16.71c0,2.55-2.12,3.38-4.68,3.38s-4.67-.83-4.67-3.38a4.68,4.68,0,1,1,9.35,0Z"/>
          <path class="cls-9" d="M27,13.34a4.68,4.68,0,0,1,4.62,4,3.71,3.71,0,0,0,.06-.67,4.68,4.68,0,1,0-9.35,0,4.91,4.91,0,0,0,.05.67A4.69,4.69,0,0,1,27,13.34Z"/>
          <path class="cls-14" d="M31,16.71c0,2.23-1.79,2.7-4,2.7s-4-.47-4-2.7a4,4,0,1,1,8,0Z"/>
          <path class="cls-10" d="M27,18.74c-1.83,0-3.33-.17-3.33-2a3.34,3.34,0,1,1,6.67,0C30.38,18.57,28.88,18.74,27,18.74Z"/>
          <path class="cls-14" d="M30.8,16.14c0,1.69-1.68,0-3.76,0s-3.75,1.69-3.75,0a3.78,3.78,0,0,1,7.51,0Z"/>
          <path class="cls-8" d="M26.43,17.87a1.6,1.6,0,0,1-3.19,0A1.6,1.6,0,0,1,26.43,17.87Z"/>
          <path class="cls-15" d="M27,13.35a4,4,0,0,1,4,3.7c0-.11,0-.23,0-.34a4,4,0,1,0-8,0c0,.11,0,.23,0,.34A4,4,0,0,1,27,13.35Z"/>
        </g>
        <g>
          <path class="cls-16" d="M14.51,6.53c-2.36.91-5,2.13-6.12,4.63.23-2.26,2-4.5,3.73-5.86.59-.47,1.33-1.34,2.18-1.18A1.27,1.27,0,0,1,14.51,6.53Z"/>
          <path class="cls-8" d="M14.35,5.88C12,6.8,9.29,8,8.23,10.52c.25-2.49,2-4.45,3.86-6,.72-.6,1.89-1.69,2.75-.65a1.28,1.28,0,0,1-.49,2Z"/>
          <path class="cls-17" d="M25.45,6.53c2.37.91,5.05,2.13,6.12,4.63-.23-2.26-2-4.5-3.72-5.86-.6-.47-1.34-1.34-2.18-1.18A1.27,1.27,0,0,0,25.45,6.53Z"/>
          <path class="cls-8" d="M25.62,5.88C28,6.8,30.67,8,31.73,10.52c-.25-2.49-2-4.45-3.86-6-.71-.6-1.89-1.69-2.75-.65a1.28,1.28,0,0,0,.5,2Z"/>
        </g>
      </g>
    </g>
  </g>
</svg>
