<svg id="레이어_1" data-name="레이어 1" xmlns="http://www.w3.org/2000/svg" viewBox="0 0 39.55 40">
  <defs>
    <style>
      .cls-1, .cls-2 {
        fill: #576d64;
      }

      .cls-1, .cls-4, .cls-5 {
        fill-rule: evenodd;
      }

      .cls-3, .cls-4 {
        fill: #aedff4;
      }
    </style>
  </defs>
  <title>1</title>
  <g>
    <polygon class="cls-1" points="28.75 23.27 37.86 32.35 38.98 35.73 38.13 38.23 35.48 39.39 32.16 38.23 22.95 29.07 27.75 23.69 28.75 23.27"/>
    <ellipse class="cls-2" cx="15.6" cy="16" rx="14.92" ry="15.37"/>
    <ellipse class="cls-3" cx="15.87" cy="16.13" rx="11.68" ry="11.32"/>
    <polygon class="cls-1" points="15.5 7.79 12.61 9.14 12.52 12.45 13.14 15.98 14.43 17.8 12 18.83 9.77 21.01 9.63 23.38 21.52 23.69 22.48 22.13 20.89 20.19 17.93 19.2 17.02 17.71 18.47 16.13 19.5 11.98 18.86 9.45 17.02 8 15.5 7.79"/>
    <path class="cls-1" d="M6.8,3.88A126.93,126.93,0,0,0,.46,17c-.17.48.58.76.82.32,2.28-4.2,4.07-8.73,6.17-13C7.65,3.81,7,3.45,6.8,3.88Z" transform="translate(-0.2 0)"/>
    <path class="cls-1" d="M9.8,2.09A162.94,162.94,0,0,0,1.55,21c-.18.52.7.88.92.36,2.71-6.3,5.1-12.7,8-18.92C10.67,2,10,1.65,9.8,2.09Z" transform="translate(-0.2 0)"/>
    <path class="cls-1" d="M12.5,1.5C12.07,2.78,11.44,4,10.94,5.23a.54.54,0,0,0,.94.52,16.92,16.92,0,0,0,1.61-4C13.68,1.11,12.71.89,12.5,1.5Z" transform="translate(-0.2 0)"/>
    <path class="cls-1" d="M15.36,1.39c-.22.58-.46,1.14-.72,1.69A5.38,5.38,0,0,0,14,4.59a.45.45,0,0,0,.75.41,4.35,4.35,0,0,0,.93-1.6c.26-.57.48-1.16.7-1.75S15.59.76,15.36,1.39Z" transform="translate(-0.2 0)"/>
    <path class="cls-1" d="M18.45,1.8a12.05,12.05,0,0,0-1,2.45.47.47,0,0,0,.87.34,11.39,11.39,0,0,0,1-2.27C19.65,1.7,18.73,1.18,18.45,1.8Z" transform="translate(-0.2 0)"/>
    <path class="cls-1" d="M20.76,2.79a24.76,24.76,0,0,0-1,2.36c-.17.49.56.73.82.32A22.24,22.24,0,0,0,21.67,3.3C22,2.7,21.05,2.19,20.76,2.79Z" transform="translate(-0.2 0)"/>
    <path class="cls-1" d="M23.09,3.79a7,7,0,0,1-.49,1.29,2.36,2.36,0,0,0-.46,1.18.44.44,0,0,0,.56.41c.5-.19.7-.66.92-1.12a8.81,8.81,0,0,0,.53-1.49C24.34,3.38,23.29,3.12,23.09,3.79Z" transform="translate(-0.2 0)"/>
    <path class="cls-1" d="M25.28,5.44a7.17,7.17,0,0,0-1,2.45c-.05.5.64.54.86.21A5.42,5.42,0,0,0,25.65,7c.17-.36.34-.72.52-1.08A.51.51,0,0,0,25.28,5.44Z" transform="translate(-0.2 0)"/>
    <path class="cls-1" d="M27,7.54c-.33,1-.7,1.89-.94,2.86-.11.44.56.73.76.3.44-.94.75-1.95,1.1-2.93C28.13,7.2,27.21,7,27,7.54Z" transform="translate(-0.2 0)"/>
    <path class="cls-1" d="M28.83,9.29l-1,2.45A8.88,8.88,0,0,0,27,14c0,.33.39.7.65.36a20.55,20.55,0,0,0,2-4.62C29.88,9.19,29.06,8.73,28.83,9.29Z" transform="translate(-0.2 0)"/>
    <path class="cls-1" d="M30.08,11.24c-2.42,6-5.09,11.8-7.84,17.62-.32.67.69,1.24,1,.56a193.44,193.44,0,0,0,7.66-17.84C31.11,11.09,30.27,10.76,30.08,11.24Z" transform="translate(-0.2 0)"/>
    <path class="cls-1" d="M30.74,15.35c-2.12,4.93-4.43,9.77-6.61,14.68-.29.67.7,1.25,1,.56,2.29-4.86,4.26-9.88,6.23-14.87C31.56,15.28,30.93,14.91,30.74,15.35Z" transform="translate(-0.2 0)"/>
    <path class="cls-1" d="M29.75,24c-.56,1.39-1.15,2.77-1.79,4.12a15.64,15.64,0,0,0-1.68,3.71.46.46,0,0,0,.78.43,11.82,11.82,0,0,0,2-3.82c.58-1.34,1.1-2.69,1.59-4.06C30.89,23.78,30,23.41,29.75,24Z" transform="translate(-0.2 0)"/>
    <path class="cls-1" d="M31.79,26.29c-1.25,2.63-3,5.41-3.79,8.22-.16.58.63.82.93.37,1.59-2.4,2.53-5.5,3.69-8.13C32.87,26.19,32.06,25.73,31.79,26.29Z" transform="translate(-0.2 0)"/>
    <path class="cls-1" d="M33.59,28.56c-1.11,2.42-2.68,5-3.35,7.57a.51.51,0,0,0,.94.37c1.43-2.2,2.25-5.05,3.28-7.46C34.71,28.46,33.86,28,33.59,28.56Z" transform="translate(-0.2 0)"/>
    <path class="cls-1" d="M35.63,30.78C35.08,32,34.52,33.22,34,34.44a18,18,0,0,0-1.39,3.34.48.48,0,0,0,.88.35A18.8,18.8,0,0,0,35,34.72l1.47-3.47c.24-.56-.59-1-.85-.47Z" transform="translate(-0.2 0)"/>
    <path class="cls-1" d="M36.93,32.74a39.31,39.31,0,0,0-2.08,5.7.54.54,0,0,0,1,.39A40.65,40.65,0,0,0,38,33C38.23,32.33,37.17,32.09,36.93,32.74Z" transform="translate(-0.2 0)"/>
    <path class="cls-1" d="M20.55,26.37c-.25.64-.51,1.27-.79,1.9A4.92,4.92,0,0,0,19.14,30c0,.37.47.48.7.26a4.5,4.5,0,0,0,.91-1.68c.27-.59.5-1.19.73-1.8S20.76,25.84,20.55,26.37Z" transform="translate(-0.2 0)"/>
    <path class="cls-1" d="M17.43,27.11q-.37.9-.81,1.77A4.18,4.18,0,0,0,16,30.49a.45.45,0,0,0,.68.37,3.43,3.43,0,0,0,1-1.41c.29-.58.55-1.18.78-1.78S17.72,26.42,17.43,27.11Z" transform="translate(-0.2 0)"/>
    <path class="cls-1" d="M14.86,27.41a15.83,15.83,0,0,0-1.51,3.4c-.09.46.53.92.88.48A16,16,0,0,0,15.84,28c.29-.66-.67-1.21-1-.55Z" transform="translate(-0.2 0)"/>
    <path class="cls-1" d="M4.33,20.34a11,11,0,0,0-1,2.8.51.51,0,0,0,.88.33,11.29,11.29,0,0,0,1.16-2.74c.22-.57-.79-1-1-.39Z" transform="translate(-0.2 0)"/>
    <path class="cls-1" d="M5.7,23.75a9.5,9.5,0,0,1-.47,1.19,4,4,0,0,0-.44,1.13.45.45,0,0,0,.76.42A5.54,5.54,0,0,0,6.72,24C6.93,23.36,5.92,23.13,5.7,23.75Z" transform="translate(-0.2 0)"/>
    <path class="cls-1" d="M12.48,28.06a.49.49,0,0,0-.66.19l-.36.89a4.63,4.63,0,0,0-.32.88.46.46,0,0,0,.85.33,3.84,3.84,0,0,0,.36-.8l.32-.83A.5.5,0,0,0,12.48,28.06Z" transform="translate(-0.2 0)"/>
    <path class="cls-1" d="M9.56,26.68,9,27.61a1.69,1.69,0,0,0-.42,1,.5.5,0,0,0,.75.41c.34-.16.48-.54.66-.85l.54-.95A.54.54,0,0,0,9.56,26.68Z" transform="translate(-0.2 0)"/>
    <path class="cls-1" d="M7.27,25.59c-.16.29-.32.58-.49.87a2.58,2.58,0,0,0-.39.92c0,.35.35.81.72.52a5.55,5.55,0,0,0,1.14-1.77A.56.56,0,0,0,7.27,25.59Z" transform="translate(-0.2 0)"/>
    <path class="cls-1" d="M14.86,8.19,13.75,9.6A4.6,4.6,0,0,0,12.83,11a.49.49,0,0,0,.72.53,4.74,4.74,0,0,0,1.06-1.21l1-1.34C16.06,8.4,15.29,7.64,14.86,8.19Z" transform="translate(-0.2 0)"/>
    <path class="cls-1" d="M17.34,8.63c-.77.87-1.52,1.75-2.23,2.66a8.24,8.24,0,0,0-1.68,2.48c-.11.37.37.76.69.51a10.07,10.07,0,0,0,1.72-2.22c.7-1,1.43-1.88,2.17-2.78C18.4,8.81,17.74,8.18,17.34,8.63Z" transform="translate(-0.2 0)"/>
    <path class="cls-1" d="M18.36,11c-.72.93-1.46,1.84-2.21,2.75a17.74,17.74,0,0,0-2,2.54c-.22.38.27.92.65.62a13.91,13.91,0,0,0,2.16-2.43c.73-.92,1.45-1.86,2.14-2.81.37-.5-.31-1.17-.7-.67Z" transform="translate(-0.2 0)"/>
    <path class="cls-1" d="M18.37,14.19a29.13,29.13,0,0,1-4.07,4.73c-1.23,1.21-2.84,2.41-3.64,4-.22.43.3,1.05.74.7a36.47,36.47,0,0,0,4.1-4.32,29.17,29.17,0,0,0,3.67-4.63C19.48,14.12,18.68,13.7,18.37,14.19Z" transform="translate(-0.2 0)"/>
    <path class="cls-1" d="M17.8,18.83l-1.93,2.24a6.44,6.44,0,0,0-1.54,2.06c-.12.42.36.67.7.5.72-.36,1.24-1.28,1.75-1.91l1.77-2.17C19,19,18.24,18.32,17.8,18.83Z" transform="translate(-0.2 0)"/>
    <path class="cls-1" d="M20,19.71a14.18,14.18,0,0,0-2.06,2.65c-.18.39.25.93.66.63a13.62,13.62,0,0,0,2.21-2.51C21.22,19.92,20.42,19.15,20,19.71Z" transform="translate(-0.2 0)"/>
    <path class="cls-4" d="M10.05,6.71c-1.91,2.86-4.12,5.9-5.34,9.13-.19.5.57.72.83.32,1.92-2.87,3.35-6.12,5.22-9,.28-.45-.43-.82-.72-.4Z" transform="translate(-0.2 0)"/>
    <path class="cls-4" d="M12.58,6c-2.41,4.43-5.2,8.91-7,13.62-.19.5.6.77.86.34C9,15.62,10.88,10.78,13.14,6.29,13.33,5.92,12.77,5.61,12.58,6Z" transform="translate(-0.2 0)"/>
    <path class="cls-4" d="M14.94,5.43a7.45,7.45,0,0,0-1.37,2.76.37.37,0,0,0,.68.26,13.61,13.61,0,0,0,.65-1.33c.23-.45.47-.88.74-1.3S15.22,5,14.94,5.43Z" transform="translate(-0.2 0)"/>
    <path class="cls-4" d="M12.46,10.45c-2,3.86-4.31,7.84-5.66,12-.16.49.58.75.83.32,2.14-3.75,3.64-8,5.5-11.92C13.35,10.37,12.68,10,12.46,10.45Z" transform="translate(-0.2 0)"/>
    <path class="cls-4" d="M12.5,15.51c-.27.55-.54,1.09-.83,1.62a8.73,8.73,0,0,0-.74,1.54.44.44,0,0,0,.75.4A10.59,10.59,0,0,0,13.34,16C13.6,15.41,12.77,14.94,12.5,15.51Z" transform="translate(-0.2 0)"/>
    <path class="cls-4" d="M9,23.19c-.29.48-.73,1.24-.56,1.8a.42.42,0,0,0,.71.17,2.06,2.06,0,0,0,.31-.75,4.75,4.75,0,0,1,.37-.75C10.1,23.13,9.27,22.67,9,23.19Z" transform="translate(-0.2 0)"/>
    <path class="cls-4" d="M17.1,5.63c-.12.26-.24.52-.35.78a3.33,3.33,0,0,0-.31.79c-.05.41.46.82.78.43A6.68,6.68,0,0,0,18,6.11c.25-.58-.61-1.06-.86-.48Z" transform="translate(-0.2 0)"/>
    <path class="cls-4" d="M19.32,6.3c-.19.34-.38.69-.56,1a2.28,2.28,0,0,0-.39,1A.39.39,0,0,0,19,8.7a2.52,2.52,0,0,0,.63-.91l.54-1C20.41,6.21,19.6,5.76,19.32,6.3Z" transform="translate(-0.2 0)"/>
    <path class="cls-4" d="M21.75,6.83c-.45.71-.88,1.44-1.29,2.18a7.11,7.11,0,0,0-1,2.12c-.06.41.44.77.76.41a9.27,9.27,0,0,0,1.13-2c.39-.75.8-1.49,1.22-2.21C22.94,6.75,22.09,6.3,21.75,6.83Z" transform="translate(-0.2 0)"/>
    <path class="cls-4" d="M23.3,7.88c-1.74,3.5-3.64,6.92-5.36,10.43a.59.59,0,0,0,1,.57c1.92-3.4,3.53-7,5.15-10.53C24.39,7.79,23.57,7.32,23.3,7.88Z" transform="translate(-0.2 0)"/>
    <path class="cls-4" d="M25.15,9.45c-1.57,3.17-3.68,6.28-4.92,9.58-.16.44.52.82.8.44,2.08-2.81,3.43-6.42,4.89-9.59C26.16,9.37,25.4,8.94,25.15,9.45Z" transform="translate(-0.2 0)"/>
    <path class="cls-4" d="M26.17,12.45Q25.11,14.67,24,16.87a15.05,15.05,0,0,0-1.86,4,.37.37,0,0,0,.63.34,13,13,0,0,0,2.18-3.83c.72-1.48,1.41-3,2.09-4.47C27.27,12.36,26.45,11.89,26.17,12.45Z" transform="translate(-0.2 0)"/>
    <path class="cls-4" d="M27,15.33c-1.45,3.13-3.25,6.08-4.72,9.19a.54.54,0,0,0,.95.52,61.25,61.25,0,0,0,4.59-9.25C28,15.24,27.23,14.78,27,15.33Z" transform="translate(-0.2 0)"/>
    <path class="cls-4" d="M20.54,24.06c-.28.43-.56.87-.83,1.32a4.48,4.48,0,0,0-.64,1.32.43.43,0,0,0,.73.4,5.51,5.51,0,0,0,.78-1.24c.25-.46.52-.9.79-1.34S20.87,23.55,20.54,24.06Z" transform="translate(-0.2 0)"/>
    <path class="cls-4" d="M18.21,23.49c-.38.63-.75,1.27-1.12,1.9a6.13,6.13,0,0,0-.89,1.86.5.5,0,0,0,.84.46,6.94,6.94,0,0,0,1-1.78c.34-.66.68-1.31,1-1.95a.5.5,0,0,0-.87-.48Z" transform="translate(-0.2 0)"/>
    <path class="cls-4" d="M15.52,23.52c-.33.54-.66,1.09-1,1.64a5.54,5.54,0,0,0-.83,1.6.48.48,0,0,0,.8.44,5.59,5.59,0,0,0,1-1.52L16.4,24A.5.5,0,0,0,15.52,23.52Z" transform="translate(-0.2 0)"/>
    <path class="cls-4" d="M12.17,23.68a9.2,9.2,0,0,0-.8,1.06A2.25,2.25,0,0,0,10.89,26a.5.5,0,0,0,.86.33,3,3,0,0,0,.53-1,6.73,6.73,0,0,1,.6-1c.38-.5-.28-1.17-.71-.68Z" transform="translate(-0.2 0)"/>
    <path class="cls-5" d="M23.1,20.94a5.08,5.08,0,0,0-3.39-2.74c-.74-.18-1.73.12-1.2-.78.39-.66,1-1,1.31-1.79a9.66,9.66,0,0,0,.37-5.14c-.43-2.6-3.42-4.34-5.67-3.21a3,3,0,0,0-2.44,1.85,9.16,9.16,0,0,0,.23,6c.24.6,1.36,1.69,1.33,2.18,0,.28-2.2,1-2.67,1.35a4.68,4.68,0,0,0-2.06,5.15.87.87,0,0,0,.84.6c2.56-.08,5.13-.11,7.69-.05,1.17,0,2.33.07,3.5.12a3.22,3.22,0,0,0,1.94-.25c1.06-.72.69-2.3.22-3.27ZM38.63,31.6a5.53,5.53,0,0,1-.38,7.17c-2.31,2.16-4.91,1.15-7.1-.52a51.43,51.43,0,0,1-7.69-7.78,15.75,15.75,0,0,1-18.75-3C-3.68,19,.19,3.58,11.78.48,17.64-1.09,24,1.3,27.94,5.83a15.18,15.18,0,0,1,3.66,7.66c.5,3.34-.28,6.6-1.24,9.78l4.23,4.19a34.23,34.23,0,0,1,4,4.14ZM37,37.52c-2.47,2.15-5.51-1.14-7.27-2.78-2-1.89-3.83-4-5.64-6.05a.65.65,0,0,0-.86-.16,1,1,0,0,0-.43.14c-5,2.92-10.93,2.07-15.41-1.47A14.56,14.56,0,0,1,2.08,13.73,14.37,14.37,0,0,1,11,2.53C16.05.58,21.78,2.16,25.67,5.78A14,14,0,0,1,29.93,13a21.47,21.47,0,0,1-.72,9.61.89.89,0,0,0-.47,1.49l6.11,6.05c1.77,1.75,4.9,4.9,2.1,7.34Zm-9.18-25c1.58,5.59-.57,12.4-6.06,14.83-5,2.2-11.5,1.8-15-2.63C3.72,21.05,2.82,15.54,5,11.31A10,10,0,0,1,7.53,7.36a15.53,15.53,0,0,1,8.81-3.5,8,8,0,0,1,3.93,1c1.06.56,2.19.64,3.19,1.37a11.93,11.93,0,0,1,4.31,6.33Zm-1.64,6.83A9,9,0,0,1,20,26.25c-2.72.88-6.54,1.14-9.18-.16C7.07,24.25,5,19.69,5.29,15.49,6,12.75,7,9.73,9.33,8.15s6.14-3.27,9-2.32c1.06.34,1.79,1,2.87,1.24,1.59.37,2.81,1.83,3.65,3.16a11.53,11.53,0,0,1,1.23,9.14Zm-6.28,3.32q-4.71-.18-9.42,0c-.23-2.35,2.35-3,4.1-3.74a1.56,1.56,0,0,0,1-2.08c-.26-.6-.94-1-1.31-1.5a5.75,5.75,0,0,1-.87-2.76,7.49,7.49,0,0,1,0-2.63,2.24,2.24,0,0,1,.18-.44.6.6,0,0,0,.45,0c.9-.37,1.73-1,2.76-.71a2.47,2.47,0,0,1,1.74,2.37,7.09,7.09,0,0,1-.47,4.18c-.71,1.21-3,2.7-.93,4,1,.62,2.19.29,3.18.92a3,3,0,0,1,1.42,1.79c.12,1.14-1.15.63-1.87.61Z" transform="translate(-0.2 0)"/>
  </g>
</svg>
