<svg xmlns="http://www.w3.org/2000/svg" xmlns:xlink="http://www.w3.org/1999/xlink" viewBox="0 0 39.89 39.89">
  <defs>
    <style>
      .cls-1 {
        isolation: isolate;
      }

      .cls-2 {
        fill: url(#linear-gradient);
      }

      .cls-11, .cls-3, .cls-4 {
        opacity: 0.25;
      }

      .cls-11, .cls-12, .cls-13, .cls-14, .cls-15, .cls-3, .cls-5 {
        mix-blend-mode: multiply;
      }

      .cls-3 {
        fill: url(#radial-gradient);
      }

      .cls-4 {
        fill: #fff;
      }

      .cls-14, .cls-15, .cls-16, .cls-17, .cls-5 {
        opacity: 0.35;
      }

      .cls-5 {
        fill: url(#linear-gradient-2);
      }

      .cls-6 {
        fill: #5d4037;
      }

      .cls-7 {
        fill: #4e342e;
      }

      .cls-8 {
        fill: #f5f5f5;
      }

      .cls-9 {
        fill: #cfd8dc;
      }

      .cls-10, .cls-11 {
        fill: #d95957;
      }

      .cls-12, .cls-13 {
        opacity: 0.5;
      }

      .cls-12 {
        fill: url(#linear-gradient-3);
      }

      .cls-13 {
        fill: url(#linear-gradient-4);
      }

      .cls-14 {
        fill: url(#linear-gradient-5);
      }

      .cls-15 {
        fill: url(#linear-gradient-6);
      }

      .cls-16, .cls-17 {
        mix-blend-mode: screen;
      }

      .cls-16 {
        fill: url(#linear-gradient-7);
      }

      .cls-17 {
        fill: url(#linear-gradient-8);
      }
    </style>
    <linearGradient id="linear-gradient" x1="19.95" y1="-0.66" x2="19.95" y2="40.64" gradientUnits="userSpaceOnUse">
      <stop offset="0" stop-color="#ffe082"/>
      <stop offset="1" stop-color="#ffbf66"/>
    </linearGradient>
    <radialGradient id="radial-gradient" cx="19.95" cy="19.95" r="19.95" gradientUnits="userSpaceOnUse">
      <stop offset="0.8" stop-color="#fff"/>
      <stop offset="1" stop-color="#ffbf66"/>
    </radialGradient>
    <linearGradient id="linear-gradient-2" x1="19.95" y1="17.69" x2="19.95" y2="40.41" xlink:href="#linear-gradient"/>
    <linearGradient id="linear-gradient-3" x1="22.78" y1="9.25" x2="31.5" y2="9.25" xlink:href="#linear-gradient"/>
    <linearGradient id="linear-gradient-4" x1="408.58" y1="7.25" x2="417.31" y2="7.25" gradientTransform="matrix(-1, 0, 0, 1, 425.81, 0)" xlink:href="#linear-gradient"/>
    <linearGradient id="linear-gradient-5" x1="26.67" y1="15.88" x2="27.56" y2="23.85" xlink:href="#linear-gradient"/>
    <linearGradient id="linear-gradient-6" x1="1276.82" y1="15.88" x2="1277.7" y2="23.85" gradientTransform="matrix(-1, 0, 0, 1, 1290.04, 0)" xlink:href="#linear-gradient"/>
    <linearGradient id="linear-gradient-7" x1="26.71" y1="14.19" x2="27.55" y2="21.8" gradientUnits="userSpaceOnUse">
      <stop offset="0" stop-color="#fff"/>
      <stop offset="1"/>
    </linearGradient>
    <linearGradient id="linear-gradient-8" x1="13.36" y1="13.94" x2="11.79" y2="21.91" xlink:href="#linear-gradient-7"/>
  </defs>
  <title>1</title>
  <g class="cls-1">
    <g id="레이어_1" data-name="레이어 1">
      <g>
        <g>
          <circle class="cls-2" cx="19.95" cy="19.95" r="19.95"/>
          <circle class="cls-3" cx="19.95" cy="19.95" r="19.95"/>
          <path class="cls-4" d="M36.4,15.19c0,7.41-7.37,0-16.45,0s-16.46,7.41-16.46,0S10.86,1.77,20,1.77,36.4,7.78,36.4,15.19Z" transform="translate(0 -0.11)"/>
          <path class="cls-5" d="M20,36A19.94,19.94,0,0,1,.1,18.06a18.81,18.81,0,0,0-.1,2,19.95,19.95,0,1,0,39.89,0,18.81,18.81,0,0,0-.1-2A19.94,19.94,0,0,1,20,36Z" transform="translate(0 -0.11)"/>
        </g>
        <g>
          <g>
            <path class="cls-4" d="M19.9,35.83h0C11.48,35.79,7.73,30,6.84,26.5c-.52-2-.26-3.52.65-4a2.16,2.16,0,0,1,1-.26,6.51,6.51,0,0,1,2.73,1,17.41,17.41,0,0,0,17.4,0,6.43,6.43,0,0,1,2.72-1,2.16,2.16,0,0,1,1,.26c.91.52,1.17,2.07.65,4-.86,3.36-4.45,9-12.4,9.32H19.9Z" transform="translate(0 -0.11)"/>
            <path class="cls-6" d="M32.07,23C30.12,22,27.58,26.18,20,26.18S9.77,22,7.82,23,8.58,35.11,19.9,35.17H20C31.31,35.11,34,24.14,32.07,23Z" transform="translate(0 -0.11)"/>
            <path class="cls-7" d="M7.82,24.37c1.95-1.09,4.49,3.14,12.13,3.14s10.17-4.23,12.12-3.14a1.32,1.32,0,0,1,.53,1c.15-1.17-.05-2.05-.53-2.32C30.12,22,27.58,26.18,20,26.18S9.77,22,7.82,23c-.48.27-.68,1.15-.53,2.32A1.32,1.32,0,0,1,7.82,24.37Z" transform="translate(0 -0.11)"/>
            <path class="cls-8" d="M20,29c7.18,0,10.08-2.52,10.9-5.39a11.54,11.54,0,0,0-1.59.74,18.73,18.73,0,0,1-18.63,0A11.54,11.54,0,0,0,9,23.63C9.86,26.5,12.76,29,20,29Z" transform="translate(0 -0.11)"/>
            <path class="cls-9" d="M20,26.85a18.51,18.51,0,0,1-9.32-2.48A11.54,11.54,0,0,0,9,23.63a6.93,6.93,0,0,0,.26.72c1.9.64,4.75,3.16,10.65,3.16S28.7,25,30.59,24.35a6.93,6.93,0,0,0,.26-.72,11.54,11.54,0,0,0-1.59.74A18.44,18.44,0,0,1,20,26.85Z" transform="translate(0 -0.11)"/>
            <path class="cls-10" d="M19.94,32.65a6.33,6.33,0,0,0-4.79,1.75,14.91,14.91,0,0,0,4.75.77H20a14.47,14.47,0,0,0,4.73-.77A6.35,6.35,0,0,0,19.94,32.65Z" transform="translate(0 -0.11)"/>
            <path class="cls-11" d="M24.18,33.9a14.91,14.91,0,0,1-4.19.6H19.9a14.68,14.68,0,0,1-4.21-.61,3.31,3.31,0,0,0-.54.51,14.91,14.91,0,0,0,4.75.77H20a14.47,14.47,0,0,0,4.73-.77A3.26,3.26,0,0,0,24.18,33.9Z" transform="translate(0 -0.11)"/>
          </g>
          <g>
            <g>
              <path class="cls-12" d="M24.35,7.13c2.67.71,5.72,1.71,7.15,4.29-1.59-1.52-3.93-1.89-6.05-1.88-.77,0-2,.27-2.48-.51a1.27,1.27,0,0,1,1.38-1.9C27,7.83,23.41,6.87,24.35,7.13Z" transform="translate(0 -0.11)"/>
              <path class="cls-6" d="M24.35,6.46c2.67.72,5.72,1.72,7.15,4.29-1.59-1.51-3.93-1.89-6.05-1.88-.77,0-2,.28-2.48-.51a1.27,1.27,0,0,1,1.38-1.9C27,7.17,23.41,6.2,24.35,6.46Z" transform="translate(0 -0.11)"/>
            </g>
            <g>
              <path class="cls-13" d="M15.66,5.13C13,5.85,9.93,6.85,8.5,9.42c1.59-1.51,3.94-1.89,6.05-1.88.78,0,2,.28,2.49-.51a1.27,1.27,0,0,0-1.38-1.9C13,5.84,16.6,4.87,15.66,5.13Z" transform="translate(0 -0.11)"/>
              <path class="cls-6" d="M15.66,4.47C13,5.18,9.93,6.18,8.5,8.76c1.59-1.52,3.94-1.89,6.05-1.88.78,0,2,.27,2.49-.51a1.27,1.27,0,0,0-1.38-1.9C13,5.17,16.6,4.21,15.66,4.47Z" transform="translate(0 -0.11)"/>
            </g>
          </g>
          <path class="cls-14" d="M33.06,16.81a6.25,6.25,0,0,1-12.38,1.7c-.47-3.41,2.54-2.07,6-2.54S32.59,13.39,33.06,16.81Z" transform="translate(0 -0.11)"/>
          <path class="cls-15" d="M6.83,16.81a6.25,6.25,0,0,0,12.38,1.7c.47-3.41-2.54-2.07-6-2.54S7.3,13.39,6.83,16.81Z" transform="translate(0 -0.11)"/>
          <g>
            <path class="cls-7" d="M33.06,14.81a6.25,6.25,0,1,1-12.38,1.71c-.47-3.42,2.54-2.08,6-2.55S32.59,11.39,33.06,14.81Z" transform="translate(0 -0.11)"/>
            <path class="cls-16" d="M32.89,17.35c-.76-2.27-3.14-.49-6.25-.05-2.45.33-4.69-.26-5.59.63a5.42,5.42,0,0,1-.37-1.41c-.47-3.42,2.54-2.08,6-2.55s6-2.58,6.42.85A6.12,6.12,0,0,1,32.89,17.35Z" transform="translate(0 -0.11)"/>
          </g>
          <g>
            <path class="cls-7" d="M6.83,14.81a6.25,6.25,0,1,0,12.38,1.71c.47-3.42-2.54-2.08-6-2.55S7.3,11.39,6.83,14.81Z" transform="translate(0 -0.11)"/>
            <path class="cls-17" d="M19.21,16.52a5.85,5.85,0,0,1-.37,1.41c-.9-.89-3.13-.3-5.59-.63-3.11-.44-5.49-2.22-6.25.05a6.3,6.3,0,0,1-.17-2.53c.47-3.43,3-1.32,6.42-.85S19.68,13.1,19.21,16.52Z" transform="translate(0 -0.11)"/>
          </g>
        </g>
      </g>
    </g>
  </g>
</svg>
